<?xml version="1.0" encoding="UTF-8"?>
<!DOCTYPE svg PUBLIC "-//W3C//DTD SVG 1.1//EN" "http://www.w3.org/Graphics/SVG/1.1/DTD/svg11.dtd">
<!-- Creator: CorelDRAW -->
<svg xmlns="http://www.w3.org/2000/svg" xml:space="preserve" width="20.9526mm" height="19.211mm" version="1.1" style="shape-rendering:geometricPrecision; text-rendering:geometricPrecision; image-rendering:optimizeQuality; fill-rule:evenodd; clip-rule:evenodd"
viewBox="0 0 35.22 32.29"
 xmlns:xlink="http://www.w3.org/1999/xlink"
 xmlns:xodm="http://www.corel.com/coreldraw/odm/2003">
 <defs>
  <style type="text/css">
   <![CDATA[
    .fil0 {fill:#239E54}
    .fil4 {fill:#4FB578;fill-opacity:0.501961}
    .fil3 {fill:#7ACF9C;fill-opacity:0.501961}
    .fil2 {fill:#7DD19F;fill-opacity:0.501961}
    .fil1 {fill:#81DBA5;fill-opacity:0.501961}
   ]]>
  </style>
 </defs>
 <g id="Layer_x0020_1">
  <metadata id="CorelCorpID_0Corel-Layer"/>
  <g id="_105553715769344">
   <path class="fil0" d="M15.64 0.05l-4.13 2.65c-0.66,0.45 -1.34,0.85 -2.06,1.32l-9.27 5.95c-0.29,0.28 -0.16,1.12 -0.16,1.6 -0,0.5 -0.12,1.15 0.39,1.31 0.44,0.14 0.87,-0.28 1.16,-0.46 0.7,-0.43 1.34,-0.88 2.06,-1.32l10.28 -6.62c0.35,-0.22 0.68,-0.44 1.03,-0.66 1.31,-0.82 0.94,-0.58 3.28,0.88 0.68,0.43 1.35,0.89 2.06,1.32 2.69,1.67 5.53,3.57 8.24,5.28 0.66,0.42 1.41,0.88 2.05,1.33 0.34,0.24 0.85,0.46 1.13,-0.02 0.17,-0.3 0.09,-1.27 0.09,-1.68 0.01,-1 0.06,-0.85 -1.55,-1.84l-6.17 -3.97c-1.37,-0.92 -2.76,-1.72 -4.11,-2.65l-3.09 -1.98c-0.33,-0.21 -0.79,-0.63 -1.23,-0.44zm13.87 18.89l0 2.11c-0.77,-0.02 -1.5,0.01 -2.14,0.07 -1.11,0.11 -2.46,0.31 -3.38,0.75 -1.13,0.54 -1.73,1.37 -0.36,2.12 1.34,0.73 3.64,1.06 5.88,1.01l0 6.7 -9.73 0 0 -0.07 -2.16 -0 0 -11.49c0,-0.81 -0.12,-1.25 -0.98,-1.27 -1.51,-0.03 -3.06,0 -4.58,0 -1.51,0 -3.08,-0.04 -4.58,-0 -0.89,0.02 -0.95,0.49 -0.95,1.34l0 11.42c-0.78,-0.01 -1.57,-0 -2.36,-0 -0.58,0 -1.73,0.18 -2.01,-0.25 -0.22,-0.34 -0.1,-12.45 -0.1,-13.42l-0 -3.45c0.01,-0.48 0.1,-0.51 0.41,-0.72 0.9,-0.62 1.83,-1.17 2.75,-1.76l8.26 -5.32c0.47,-0.3 0.91,-0.58 1.38,-0.88 0.47,-0.3 0.91,-0.8 1.55,-0.37 0.91,0.62 1.85,1.18 2.74,1.77 0.9,0.6 1.84,1.21 2.74,1.76 2.24,1.38 4.69,3.08 6.9,4.43 0.76,0.47 0.71,0.47 0.71,1.51 -0,0.8 0.09,2.94 0.02,4zm-21.33 12.7c0.98,0 7.39,0.07 7.79,-0.04l-0 -11.04 -7.75 -0.02c-0.14,0.6 -0.02,9.61 -0.04,11.1zm7.34 -21.37c-0.84,0.23 -1.55,1.06 -1.29,2.16 0.55,2.27 4.06,1.45 3.47,-0.87 -0.21,-0.83 -1.1,-1.58 -2.18,-1.29zm-0.03 -1.67c-1.73,0.23 -3.24,1.87 -2.92,3.94 0.27,1.72 1.9,3.17 3.96,2.85 1.68,-0.26 3.18,-1.91 2.83,-3.95 -0.29,-1.71 -1.84,-3.1 -3.87,-2.84z"/>
   <path class="fil1" d="M27.38 28.41c-1.11,0.11 -2.46,0.31 -3.38,0.75 -1.13,0.54 -1.73,1.37 -0.36,2.12 2.36,1.29 7.73,1.34 10.42,0.2 1.24,-0.53 1.67,-1.39 0.39,-2.13 -1.67,-0.96 -4.94,-1.15 -7.06,-0.94z"/>
   <path class="fil2" d="M27.38 25.98c-1.11,0.11 -2.46,0.31 -3.38,0.75 -1.13,0.54 -1.73,1.37 -0.36,2.12 2.36,1.29 7.73,1.34 10.42,0.2 1.24,-0.53 1.67,-1.39 0.39,-2.13 -1.67,-0.96 -4.94,-1.15 -7.06,-0.94z"/>
   <path class="fil3" d="M27.38 23.55c-1.11,0.11 -2.46,0.31 -3.38,0.75 -1.13,0.54 -1.73,1.37 -0.36,2.12 2.36,1.29 7.73,1.34 10.42,0.2 1.24,-0.53 1.67,-1.39 0.39,-2.13 -1.67,-0.96 -4.94,-1.15 -7.06,-0.94z"/>
   <path class="fil4" d="M27.38 21.12c-1.11,0.11 -2.46,0.31 -3.38,0.75 -1.13,0.54 -1.73,1.37 -0.36,2.12 2.36,1.29 7.73,1.34 10.42,0.2 1.24,-0.53 1.67,-1.39 0.39,-2.13 -1.67,-0.96 -4.94,-1.15 -7.06,-0.94z"/>
  </g>
 </g>
</svg>
