<?xml version="1.0" encoding="UTF-8"?>
<!DOCTYPE svg PUBLIC "-//W3C//DTD SVG 1.1//EN" "http://www.w3.org/Graphics/SVG/1.1/DTD/svg11.dtd">
<!-- Creator: CorelDRAW -->
<svg xmlns="http://www.w3.org/2000/svg" xml:space="preserve" width="22.0892mm" height="18.8956mm" version="1.1" style="shape-rendering:geometricPrecision; text-rendering:geometricPrecision; image-rendering:optimizeQuality; fill-rule:evenodd; clip-rule:evenodd"
viewBox="0 0 52.52 44.93"
 xmlns:xlink="http://www.w3.org/1999/xlink"
 xmlns:xodm="http://www.corel.com/coreldraw/odm/2003">
 <defs>
  <style type="text/css">
   <![CDATA[
    .fil0 {fill:black;fill-rule:nonzero}
    .fil1 {fill:#1A1A1A;fill-rule:nonzero}
    .fil4 {fill:url(#id14);fill-rule:nonzero}
    .fil2 {fill:url(#id15);fill-rule:nonzero}
    .fil3 {fill:url(#id16);fill-rule:nonzero}
    .fil5 {fill:url(#id17);fill-rule:nonzero}
   ]]>
  </style>
    <mask id="id0">
  <linearGradient id="id1" gradientUnits="userSpaceOnUse" x1="22.13" y1="12.56" x2="-0.4" y2="26.27">
   <stop offset="0" style="stop-opacity:0; stop-color:white"/>
   <stop offset="0.509804" style="stop-opacity:1; stop-color:white"/>
   <stop offset="1" style="stop-opacity:0; stop-color:white"/>
  </linearGradient>
     <rect style="fill:url(#id1)" x="-0.09" y="11.85" width="22.99" height="14.47"/>
    </mask>
    <mask id="id2">
  <linearGradient id="id3" gradientUnits="userSpaceOnUse" x1="31.77" y1="18.51" x2="51.55" y2="18.51">
   <stop offset="0" style="stop-opacity:0; stop-color:white"/>
   <stop offset="0.509804" style="stop-opacity:1; stop-color:white"/>
   <stop offset="1" style="stop-opacity:0; stop-color:white"/>
  </linearGradient>
     <rect style="fill:url(#id3)" x="31.68" y="11.85" width="19.96" height="13.33"/>
    </mask>
    <mask id="id4">
  <linearGradient id="id5" gradientUnits="userSpaceOnUse" x1="21.37" y1="31.38" x2="42.54" y2="31.38">
   <stop offset="0" style="stop-opacity:0; stop-color:white"/>
   <stop offset="0.509804" style="stop-opacity:1; stop-color:white"/>
   <stop offset="1" style="stop-opacity:0; stop-color:white"/>
  </linearGradient>
     <rect style="fill:url(#id5)" x="21.28" y="24.41" width="21.35" height="13.94"/>
    </mask>
     <mask id="id6">
  <radialGradient id="id7" gradientUnits="userSpaceOnUse" cx="18.09" cy="3.98" r="0" fx="18.09" fy="3.98">
   <stop offset="0" style="stop-opacity:0.666667; stop-color:white"/>
   <stop offset="1" style="stop-opacity:0; stop-color:white"/>
  </radialGradient>
      <rect style="fill:url(#id7)" x="18" y="3.89" width="14.1" height="14.2"/>
     </mask>
     <mask id="id8">
  <radialGradient id="id9" gradientUnits="userSpaceOnUse" cx="36.34" cy="15.51" r="0" fx="36.34" fy="15.51">
   <stop offset="0" style="stop-opacity:0.666667; stop-color:white"/>
   <stop offset="1" style="stop-opacity:0; stop-color:white"/>
  </radialGradient>
      <rect style="fill:url(#id9)" x="36.25" y="15.42" width="14.1" height="14.2"/>
     </mask>
     <mask id="id10">
  <radialGradient id="id11" gradientUnits="userSpaceOnUse" cx="18.98" cy="27.52" r="0" fx="18.98" fy="27.52">
   <stop offset="0" style="stop-opacity:0.666667; stop-color:white"/>
   <stop offset="1" style="stop-opacity:0; stop-color:white"/>
  </radialGradient>
      <rect style="fill:url(#id11)" x="18.89" y="27.43" width="14.1" height="14.2"/>
     </mask>
     <mask id="id12">
  <radialGradient id="id13" gradientUnits="userSpaceOnUse" cx="2.34" cy="16.45" r="0" fx="2.34" fy="16.45">
   <stop offset="0" style="stop-opacity:0.666667; stop-color:white"/>
   <stop offset="1" style="stop-opacity:0; stop-color:white"/>
  </radialGradient>
      <rect style="fill:url(#id13)" x="2.25" y="16.36" width="14.1" height="14.2"/>
     </mask>
  <radialGradient id="id14" gradientUnits="userSpaceOnUse" gradientTransform="matrix(3581.1 -0 -0 3581.1 -92861 -123618)" cx="25.94" cy="34.53" r="7.01" fx="25.94" fy="34.53">
   <stop offset="0" style="stop-opacity:1; stop-color:white"/>
   <stop offset="1" style="stop-opacity:1; stop-color:#B7C9FF"/>
  </radialGradient>
  <radialGradient id="id15" gradientUnits="userSpaceOnUse" gradientTransform="matrix(3581.1 -0 -0 3581.1 -89678 -39331)" xlink:href="#id14" cx="25.05" cy="10.99" r="7.01" fx="25.05" fy="10.99">
  </radialGradient>
  <radialGradient id="id16" gradientUnits="userSpaceOnUse" gradientTransform="matrix(3581.1 -0 -0 3581.1 -155032 -80624)" xlink:href="#id14" cx="43.3" cy="22.52" r="7.01" fx="43.3" fy="22.52">
  </radialGradient>
  <radialGradient id="id17" gradientUnits="userSpaceOnUse" gradientTransform="matrix(3581.1 -0 -0 3581.1 -33295 -83974)" xlink:href="#id14" cx="9.3" cy="23.46" r="7.01" fx="9.3" fy="23.46">
  </radialGradient>
 </defs>
 <g id="Layer_x0020_1">
  <metadata id="CorelCorpID_0Corel-Layer"/>
  <g id="_105553645133632">
   <polygon class="fil0" style="mask:url(#id0)" points="0.21,26.22 -0,25.86 22.61,11.94 22.81,12.3 "/>
   <polygon class="fil0" style="mask:url(#id2)" points="51.33,25.09 31.77,12.3 31.99,11.94 51.55,24.73 "/>
   <polygon class="fil0" style="mask:url(#id4)" points="21.59,38.26 21.37,37.9 42.33,24.5 42.54,24.86 "/>
   <g>
    <g>
     <polygon class="fil1" points="34.32,5.23 34.29,15.62 25.08,21.19 25,21.24 25.03,10.84 25.1,10.8 26.86,9.74 "/>
     <polygon class="fil1" points="26.85,9.74 25.1,10.8 25.02,10.75 26.78,9.68 "/>
     <polygon class="fil1" points="25.1,10.8 25.03,10.84 24.95,10.79 25.02,10.75 "/>
     <polygon class="fil1" points="24.95,10.79 25.03,10.84 25,21.24 16.28,16.01 16.31,5.61 "/>
     <polygon class="fil1" points="34.32,5.22 26.85,9.74 26.78,9.68 25.02,10.75 24.95,10.79 16.31,5.61 16.38,5.57 25.6,0 "/>
    </g>
    <path class="fil2" style="mask:url(#id6)" d="M32.01 10.99c0,3.87 -3.12,7.01 -6.96,7.01 -3.84,0 -6.96,-3.14 -6.96,-7.01 0,-3.87 3.12,-7.01 6.96,-7.01 3.84,0 6.96,3.14 6.96,7.01z"/>
   </g>
   <g>
    <g>
     <polygon class="fil1" points="43.23,22.52 43.2,32.92 34.48,27.69 34.51,17.29 43.15,22.47 "/>
     <g>
      <g>
       <g>
        <polygon class="fil1" points="52.52,16.91 52.49,27.3 43.28,32.88 43.3,22.48 45.05,21.42 "/>
        <polygon class="fil1" points="45.05,21.42 43.3,22.48 43.22,22.43 44.98,21.36 "/>
        <polygon class="fil1" points="43.3,22.48 43.3,22.48 43.28,32.88 43.2,32.92 43.23,22.52 "/>
        <polygon class="fil1" points="43.3,22.48 43.23,22.52 43.15,22.47 43.22,22.43 "/>
       </g>
      </g>
     </g>
     <polygon class="fil1" points="52.52,16.9 45.05,21.42 44.98,21.36 43.22,22.43 43.15,22.47 34.51,17.29 34.58,17.25 43.8,11.68 "/>
    </g>
    <path class="fil3" style="mask:url(#id8)" d="M50.26 22.52c0,3.87 -3.12,7.01 -6.96,7.01 -3.84,0 -6.96,-3.14 -6.96,-7.01 0,-3.87 3.12,-7.01 6.96,-7.01 3.84,0 6.96,3.14 6.96,7.01z"/>
   </g>
   <g>
    <g>
     <polygon class="fil1" points="35.16,28.92 35.13,39.32 25.91,44.89 25.94,34.49 27.69,33.43 "/>
     <polygon class="fil1" points="27.69,33.43 25.94,34.49 25.85,34.44 27.62,33.37 "/>
     <polygon class="fil1" points="25.94,34.49 25.91,44.89 25.84,44.93 25.87,34.53 25.94,34.49 "/>
     <polygon class="fil1" points="25.94,34.49 25.87,34.53 25.78,34.48 25.85,34.44 "/>
     <polygon class="fil1" points="26.43,23.69 35.16,28.92 27.69,33.43 27.62,33.37 25.85,34.44 25.78,34.48 17.14,29.31 17.21,29.26 "/>
     <polygon class="fil1" points="25.87,34.53 25.84,44.93 17.11,39.7 17.14,29.31 25.78,34.48 "/>
    </g>
    <path class="fil4" style="mask:url(#id10)" d="M32.9 34.53c0,3.87 -3.12,7.01 -6.96,7.01 -3.84,0 -6.96,-3.14 -6.96,-7.01 0,-3.87 3.12,-7.01 6.96,-7.01 3.84,0 6.96,3.14 6.96,7.01z"/>
   </g>
   <g>
    <g>
     <polygon class="fil1" points="18.5,17.84 18.48,28.24 9.26,33.81 9.19,33.86 9.22,23.46 9.29,23.41 9.29,23.41 11.04,22.36 "/>
     <polygon class="fil1" points="11.04,22.36 9.29,23.41 9.2,23.36 10.96,22.3 "/>
     <polygon class="fil1" points="9.29,23.41 9.22,23.46 9.13,23.4 9.2,23.36 "/>
     <polygon class="fil1" points="18.5,17.84 11.04,22.36 10.96,22.3 9.2,23.36 9.13,23.4 0.49,18.23 0.56,18.19 9.78,12.62 "/>
     <polygon class="fil1" points="9.22,23.46 9.19,33.86 0.46,28.63 0.49,18.23 9.13,23.4 "/>
    </g>
    <path class="fil5" style="mask:url(#id12)" d="M16.26 23.46c0,3.87 -3.12,7.01 -6.96,7.01 -3.84,0 -6.96,-3.14 -6.96,-7.01 0,-3.87 3.12,-7.01 6.96,-7.01 3.84,0 6.96,3.14 6.96,7.01z"/>
   </g>
  </g>
 </g>
</svg>
