<?xml version="1.0" encoding="UTF-8"?>
<!DOCTYPE svg PUBLIC "-//W3C//DTD SVG 1.1//EN" "http://www.w3.org/Graphics/SVG/1.1/DTD/svg11.dtd">
<!-- Creator: CorelDRAW -->
<svg xmlns="http://www.w3.org/2000/svg" xml:space="preserve" width="5.45604in" height="5.45604in" version="1.1" style="shape-rendering:geometricPrecision; text-rendering:geometricPrecision; image-rendering:optimizeQuality; fill-rule:evenodd; clip-rule:evenodd"
viewBox="0 0 4547 4547"
 xmlns:xlink="http://www.w3.org/1999/xlink"
 xmlns:xodm="http://www.corel.com/coreldraw/odm/2003">
 <defs>
  <style type="text/css">
   <![CDATA[
    .str0 {stroke:#399452;stroke-width:2.5;stroke-miterlimit:2.61313}
    .fil19 {fill:none}
    .fil9 {fill:#1A1A1A}
    .fil7 {fill:#399452}
    .fil10 {fill:#449665}
    .fil8 {fill:#55BC7E}
    .fil13 {fill:#6B6D71}
    .fil14 {fill:#6D6E71}
    .fil2 {fill:#A7D6B7}
    .fil17 {fill:#AFB0B5}
    .fil0 {fill:#C1E4CD}
    .fil3 {fill:#E6E6E6}
    .fil5 {fill:#E9EBF5}
    .fil6 {fill:#F5F6F7}
    .fil16 {fill:#F9F9F9}
    .fil15 {fill:#FAFAFA}
    .fil4 {fill:#FAFBFC}
    .fil12 {fill:#FCFCFC}
    .fil1 {fill:#FDFDFD}
    .fil11 {fill:#FEFEFE}
    .fil18 {fill:white;fill-rule:nonzero}
   ]]>
  </style>
   <clipPath id="id0">
    <path d="M-0 0l4547 0 0 4547 -4547 0 0 -4547z"/>
   </clipPath>
 </defs>
 <g id="Layer_x0020_1">
  <metadata id="CorelCorpID_0Corel-Layer"/>
  <g>
  </g>
  <g style="clip-path:url(#id0)">
   <g>
    <g id="_105553245023648">
     <path class="fil0" d="M1490.57 1724.33c59.27,-11.89 93.14,9.34 114.19,46 -60.56,-12.09 -32.37,1.99 -71,7.9 -19.02,2.91 -45.24,-5.42 -70.56,-11.59l43.51 -7.16c-7.05,-23.05 -5.1,-19.49 -16.15,-35.14zm-240.96 -61.9c36.9,-84.35 184.41,11.12 215.79,49.85l-67.43 1.11c-16.74,-55.3 -25.25,-8.78 -102.15,-72.9l-46.21 21.94zm2103.03 -522.67c32.14,12.69 26.35,17.81 36.08,48.69 -20.07,-9.63 -13.58,-1.21 -26.96,-16.55 -24.56,-28.16 -2.69,2.94 -9.12,-32.14zm-1290.7 -204.85c11.44,16.88 9.14,-11.07 3.27,12.66 -0.16,0.67 -10.74,21.37 -12.36,24.87 47.93,6.87 70.41,6.12 51.61,59.3l-113.58 -15.8c14.8,-32.54 41.88,-35.5 71.06,-81.03zm824.74 -67.28c45.51,-16.68 84.81,62.14 30.75,57.21 -24.85,-2.27 -10.77,1.9 -23.28,-13.84 -24.52,-30.81 -7.45,-43.03 -7.46,-43.37zm-7.35 -67.69c49.18,10.35 58.48,35.37 104.99,59.29 42.35,21.78 60.04,23.46 91.98,64.17 -20.09,22.57 -39.15,15.03 -73.66,25.61l11.36 -23.84c-75.63,-17.9 -4.52,-26.48 -62.88,-62.45 -54.92,-33.84 -37.35,10.13 -71.8,-62.78zm-325.67 -103.08c39.58,-2.42 87.95,-7.47 119.81,14.07 -45.75,30.01 -88.12,17.95 -119.81,-14.07zm-508.11 -108.02c62.03,-61.66 153.11,-34.37 248.5,-40.47 139.13,-8.9 127.8,-0.85 182.82,39.98 32.98,24.47 20.23,21.28 38.58,41.87 -15.91,10.08 -7.35,10.05 -47.71,9.07 27.6,12.69 19.22,-1.81 44.46,14.39 -253.45,91.62 -130.08,42.67 -204.36,131.57 -69.9,0.05 -100.11,-35.56 -118.46,-90.38l21.01 -41.94c0.75,-2.32 18.31,-15.42 -9.98,-47.22 -18.28,-20.55 -43.04,-11.91 -61.71,-28.56l65.76 -11.59c-56.21,-10.6 -84.77,23.08 -158.9,23.29zm-212.85 17.65c14.03,12.27 3,-10.73 15.75,15.09l-94.17 44.6c61.36,28.92 112.13,-49 151.66,-51.07 -18.32,5.1 -40.15,43.66 -51.42,60.22 25.31,-6.18 32.52,-7.92 49.24,-25.25l12.61 -16.42c0.95,-1.32 2.43,-4.02 3.31,-5.23l5.58 -8.48c0.52,-0.54 2.2,-2.51 2.73,-2.9l6.33 -2.51c27.6,-3.1 16.26,19.59 47.5,-2.64 28.76,-20.47 -24.45,-20.76 63.73,-23.07 -25.13,27.66 -3.87,1.54 -13.13,29.23 24.54,40.4 -6.29,-8.7 19.44,21.55 24.19,28.44 -7.73,14.71 30.32,47.91 1.61,1.41 4.8,3.91 6.19,5.08 1.43,1.21 4.58,3.15 6.42,5.19 -64.73,23.43 -23.2,4.59 -75.34,0.82l4.76 42.27c-25.97,-1.63 -18.41,-2.84 -30.11,1.35 -27.07,9.72 24.82,18.89 -24.98,8.11 -45.05,-9.75 0.26,-16.6 -74.67,-31.49 51.11,-15.48 86.88,-11.78 94.16,-62.39 -59.18,-32.1 -69.71,28.7 -145.69,36.36 -7.07,16.74 -2.85,15.03 -3.32,16.99 -5.07,21.1 3.35,6.81 -6.27,21.09 -22.05,1.14 -11.84,3.46 -30.68,-1.88 -23.34,-6.63 -6.32,-26.35 -88.39,9.42 -50.99,22.23 -81.74,49.56 -112.03,79.79l16.23 15.94c1.79,1.73 12.47,12.33 14.6,14.05l46.9 19.71 -19.41 69.03c52.11,-13.05 18.83,-6.79 52.37,-46.05 34.62,-40.52 48.92,-14.62 79.55,-64.91l17.48 -30.2c13.25,-17.55 35.57,-38.1 52.16,-51.53l61.36 18.71c12.46,38.16 -10.56,12.78 5.83,43.69 27.66,-4.08 48.75,-15.27 69.1,-24.46 14.9,94.7 30.92,64.77 82.24,123.79 -10.62,23.74 -0.39,8.62 -18.71,28.89 -69.67,10.48 -49.94,31.21 -142.41,28.86 -53.09,-1.35 -93.19,2.17 -130.48,54.37 39.04,-14.24 58.95,-39.58 106.24,-30.07l-36.5 25.94c34.59,13.96 10.25,16.04 28.36,44.79l48.8 -13.14c33.85,-14.66 14.93,-12.03 26.26,-2.24 -11.89,32.36 -78.23,42.97 -128.88,60.15 -16.98,-35.8 36.85,11.88 0,-33.62 -23.66,10.49 -62.61,18.98 -84.12,29.58 -56.3,27.74 -4.13,27.75 -61.39,54.52 -25.49,11.92 -10.83,0.71 -39.18,18.73l-92.77 68.05c-6.48,13.81 -3.62,10.42 -6.24,23.65 -6.96,35.11 3.62,24.36 -21.9,45.55 -71.58,59.44 -116.71,23.83 -146.5,143.21 -9.94,39.85 -8.68,79.71 -27.82,114.13 -25.42,-31.48 -12.43,-68.69 -22.23,-123.84l-111.73 -19.18 2.34 34.78c-47.8,-8.19 -56.71,-28.18 -103.68,-1.88 -42.46,23.77 -102.78,118.93 -109.65,160.1 -3.46,20.75 -4.71,45.22 -5.31,66.3l7.97 63.58c0.7,2.13 2.02,5.43 3.5,7.9 111.09,35.79 78.39,-79.95 175.62,-89.44 -1.87,63.93 -31.57,49.21 -67.36,175.91 50.33,-10.98 60.79,-7.02 107.26,4.82 -10.8,100.12 -55.09,107.73 8.61,200.41 44.92,-3.1 61.83,-37.47 109.67,6.22l14.59 15.6c22.06,-34.95 35.75,-91.4 141.47,-123.56 -6.46,54.64 -33.14,77.59 2.5,92.61 12.45,-30.23 -6.35,-15.79 4.49,-43.46 10.27,-26.24 10.23,-4.58 33.91,-37.81 158.87,115.22 155.3,-12.55 242.05,79.73l59.76 55.66c102.4,118.9 169.73,-43.71 257.12,184.3 18.28,47.7 40.69,63.06 84.2,69.31 20.67,2.97 40.72,-0.66 64.01,13.29 39.76,23.81 2.42,7.23 33.17,42.64 22.21,-11.81 125.2,-1.56 150.43,14.05 50.29,31.1 18.92,42.85 118.1,62.74 46.55,183.75 -107.46,144.22 -118.38,279.97 -7.73,96.19 10.37,98.11 -56.52,201.58 -31.9,49.35 -186.1,30.96 -207.17,136.97 -20.24,101.79 -85.9,142.1 -96.78,157.9 -8.84,12.83 -3.16,19.11 -24.13,47.33 -56.4,5.14 -54.92,6.21 -100.58,-13.31 20.03,63.12 46.51,27.66 50.97,82.03 -33.6,34.63 -60.53,24.86 -117.01,34.3 24.15,64.81 1.52,42.4 -48.31,45.04 13.31,28.49 24.55,27.68 23.56,56.47 -1.12,32.7 -14.71,16.79 -29.19,63.65l49.41 14.2c-9.1,26.44 -12.4,27.59 -22.78,61.15 183.91,53.93 524.92,-1.16 709.68,-56.98 214.06,-64.67 382.42,-171.11 522.82,-274.18 87.7,-64.38 224.38,-207.99 295.95,-299.08 253.59,-322.71 287.29,-646.64 311.3,-689.85 35.96,-73.4 25.42,-66.32 11.45,-152.27 -49.24,-40.58 -15.2,-16.4 -70.79,-15.95l-38.27 -59.23c-73.45,4.76 -83.22,49.62 -153.21,46.65 -144.63,-6.13 -76.4,68.67 -227.04,-52.19 -31.55,-25.32 -24.58,-20.51 -45.09,-59.72 -14.34,-27.4 -37.57,-45.49 -64.06,-71.47 -31.54,-30.94 -16.12,7.04 -33.68,-41.56 -30.04,-83.14 3.56,-111.9 -14.08,-177.91 -23.57,-88.23 -46.52,-71.83 -6.08,-160.5 17.13,-37.56 11.44,-69.82 48.78,-103.73 82,-74.48 10.6,-54.36 36.39,-125.35l35.68 -76.08c83.72,18.25 37.95,33.06 108.63,-11.76 28.31,-17.95 83.77,-30.17 121.39,-28.98 60.85,1.92 47.81,28.15 69.96,70.86 16.02,30.88 67.26,35.35 104.82,52.69 -7.5,-58.21 -39.42,-95.31 -60.53,-148.29 -17.37,15.71 -2.96,-14.33 -16.75,23.24l-50.76 -10.57c12.6,-20.68 -0.17,0.91 14.53,-14.56 18.18,-19.15 8.68,3.52 17.67,-25.01 -172.84,-107.95 -135.68,-122.68 -206.66,-97.57 -24.91,8.81 -9.37,6.9 -40.9,6.18 5.03,41.63 7,-7.68 7.57,29.27 0.57,37.27 0.88,-5.73 -11.26,31.68 -13.17,40.58 11.07,25.68 6.37,74.69 -42.41,37.71 -98.16,44.77 -143.47,6.49 -21.68,-18.32 -59.89,-105.35 -68.61,-145.9 39.37,3.51 70.78,12.57 106.67,5.87l15.45 -4.73c11.05,-42.58 -66.07,-86.02 -111.7,-98.22l58.41 -37.41c-2.75,-70.35 8.73,-94.01 119.85,-89.94 -13.06,-38.15 -20.44,-35.74 -73.69,-87.56l13.36 -5.51c-2.08,-27.84 -9.87,-41.33 -25.91,-15.34 -67.52,29.33 -56.08,-33.36 -158.17,-70.4 12.19,36.57 2.35,16.39 36.8,42.71 49.38,37.74 109.47,39.27 127.8,116.22 -40.44,-13.18 -30.95,-31.98 -71.47,-49.54 -72.04,-31.22 -1.48,31.21 -85.41,-8.35 -43.82,-20.65 -38.74,-26.13 -63.1,-71.76 -32.79,-61.42 -38.11,-30.7 -61.83,-80.31l65.12 2.2c-57.55,-34.73 -152.95,-52.71 -228.8,-68.33l-54.13 -11.6c-182.51,-37.33 -653.3,-35.91 -805.61,49.99z"/>
     <path class="fil1" d="M1511.16 1043.02c26.52,2.2 48.72,7.29 63.67,11.25 -11.43,26.81 -4.2,10.9 -23.66,28.35l-41.69 26.29 1.68 -65.89zm-103.69 97.95c21.89,-56.87 34.39,-79.07 97.84,-92.01l-67.49 75.13c-24.16,19.24 -3.7,5.34 -30.35,16.88zm15.38 -111.18c13.86,-12.72 32.84,-22.22 53.87,-30 42.9,-15.88 40.44,-13.12 53.87,21.42 -16.13,10.66 13.68,8.35 -33.3,11.28l-74.45 -2.7zm51.68 -144.75c-7.1,25.48 -14.93,31.99 -26.2,49.18l-18.7 -35.38 44.9 -13.8zm358.17 -278.55l-9.42 -1.41c-12.67,29.35 -22.09,32.69 -50.05,22.84 -40.69,18.64 -26.8,30.89 -64.68,43.6 -5.69,-13.61 5.88,12.04 -1.55,-8.87 -7.18,-20.21 5.65,3.01 -7.28,-13.36 -45.92,27.28 -190.16,99.56 -246.71,116.52 -43.12,33.03 -101.6,67 -147.43,102.08 -45.17,34.58 -96.98,85.38 -136.13,109.51 -19.24,36.87 -75.53,89.18 -102.42,121.83 -34.99,42.47 -66.4,81.78 -101.04,129.32 -41.08,56.38 -112.58,259.97 -113,352.56l46.93 -195.09c11.8,19.2 14.96,30.3 5.83,68.91 -5.9,24.96 -13.6,42.71 -16.21,68.73 -6.06,60.33 9.58,84.35 -8.3,149.04 -16.26,58.84 -6.31,76.61 31.65,115.48 77.79,79.65 37.36,23.11 112.25,41.21 41.4,69.77 13.66,55.73 99.72,79.12l30.8 69.54c21.06,60.51 -3.43,11.49 37.67,57.36 25.62,28.59 41.62,47.88 76.36,60.52 38.69,-145.81 118.81,57.87 40.62,158.38 -22.31,28.69 -54.48,62.23 -48.8,109.26 5.36,44.34 20.69,-9.42 9.07,51.49 -25.55,133.95 -35.35,16.93 62.88,181.68 50.55,84.76 13.9,84.5 98.19,169.75 52.89,53.49 124.75,64.29 149.97,139.15 13.76,40.87 14.98,231.36 42.52,321.05 27.64,90.02 -24.21,48.76 40.79,239.48l17.18 23.67c0.67,0.14 3.41,-0.2 4.1,-0.17l9.08 -1.05c0.65,-0.06 3.34,-1.29 4.82,-0.63 0.16,66.94 -26.85,15.26 8.89,92.99 6.88,14.96 7.1,17.2 11.62,39.49l16.48 10.53c40.98,1.02 94.18,12.05 117.86,21.06l2.36 -6.62c10.38,-33.56 13.69,-34.71 22.78,-61.15l-49.41 -14.2c14.48,-46.86 28.07,-30.95 29.19,-63.65 0.98,-28.79 -10.25,-27.98 -23.56,-56.47 49.83,-2.64 72.46,19.77 48.31,-45.04 56.47,-9.44 83.4,0.33 117.01,-34.3 -4.46,-54.37 -30.94,-18.91 -50.97,-82.03 45.66,19.52 44.18,18.45 100.58,13.31 20.97,-28.22 15.3,-34.5 24.13,-47.33 10.88,-15.8 76.55,-56.11 96.78,-157.9 21.08,-106.01 175.27,-87.62 207.17,-136.97 66.89,-103.47 48.78,-105.38 56.52,-201.58 10.91,-135.75 164.93,-96.22 118.38,-279.97 -99.19,-19.89 -67.82,-31.64 -118.1,-62.74 -25.23,-15.6 -128.22,-25.85 -150.43,-14.05 -30.75,-35.41 6.59,-18.82 -33.17,-42.64 -23.29,-13.95 -43.34,-10.32 -64.01,-13.29 -43.51,-6.25 -65.91,-21.61 -84.2,-69.31 -87.39,-228.01 -154.72,-65.4 -257.12,-184.3l-59.76 -55.66c-86.75,-92.28 -83.18,35.49 -242.05,-79.73 -23.68,33.23 -23.64,11.58 -33.91,37.81 -10.83,27.68 7.96,13.23 -4.49,43.46 -35.64,-15.02 -8.97,-37.97 -2.5,-92.61 -105.72,32.15 -119.41,88.61 -141.47,123.56l-14.59 -15.6c-47.84,-43.69 -64.75,-9.32 -109.67,-6.22 -63.7,-92.68 -19.41,-100.29 -8.61,-200.41 -46.47,-11.84 -56.93,-15.8 -107.26,-4.82 35.79,-126.7 65.49,-111.98 67.36,-175.91 -97.23,9.49 -64.53,125.23 -175.62,89.44 -1.48,-2.47 -2.8,-5.77 -3.5,-7.9l-7.97 -63.58c0.6,-21.08 1.85,-45.55 5.31,-66.3 6.87,-41.17 67.18,-136.32 109.65,-160.1 46.98,-26.3 55.89,-6.31 103.68,1.88l-2.34 -34.78 111.73 19.18c9.8,55.15 -3.2,92.36 22.23,123.84 19.14,-34.42 17.88,-74.28 27.82,-114.13 29.79,-119.39 74.91,-83.77 146.5,-143.21 25.52,-21.2 14.95,-10.44 21.9,-45.55 2.62,-13.23 -0.24,-9.84 6.24,-23.65l92.77 -68.05c28.35,-18.02 13.69,-6.81 39.18,-18.73 57.26,-26.77 5.09,-26.78 61.39,-54.52 21.5,-10.59 60.46,-19.09 84.12,-29.58 36.85,45.5 -16.98,-2.19 0,33.62 50.65,-17.18 116.99,-27.79 128.88,-60.15 -11.32,-9.79 7.6,-12.42 -26.26,2.24l-48.8 13.14c-18.11,-28.75 6.22,-30.83 -28.36,-44.79l36.5 -25.94c-47.29,-9.51 -67.2,15.83 -106.24,30.07 37.29,-52.2 77.39,-55.72 130.48,-54.37 92.47,2.35 72.74,-18.38 142.41,-28.86 18.32,-20.27 8.09,-5.15 18.71,-28.89 -51.32,-59.01 -67.34,-29.08 -82.24,-123.79 -20.36,9.19 -41.45,20.37 -69.1,24.46 -16.39,-30.91 6.62,-5.53 -5.83,-43.69l-61.36 -18.71c-16.59,13.43 -38.91,33.98 -52.16,51.53l-17.48 30.2c-30.63,50.29 -44.93,24.38 -79.55,64.91 -33.54,39.26 -0.26,33 -52.37,46.05l19.41 -69.03 -46.9 -19.71c-2.14,-1.72 -12.82,-12.32 -14.6,-14.05l-16.23 -15.94c30.28,-30.23 61.03,-57.57 112.03,-79.79 82.07,-35.77 65.05,-16.05 88.39,-9.42 18.84,5.35 8.63,3.03 30.68,1.88 9.62,-14.28 1.2,0.01 6.27,-21.09 0.47,-1.97 -3.75,-0.25 3.32,-16.99 75.99,-7.67 86.51,-68.46 145.69,-36.36 -7.28,50.61 -43.05,46.91 -94.16,62.39 74.93,14.9 29.63,21.74 74.67,31.49 49.8,10.78 -2.09,1.6 24.98,-8.11 11.69,-4.19 4.13,-2.98 30.11,-1.35l-4.76 -42.27c52.14,3.77 10.61,22.61 75.34,-0.82 -1.84,-2.05 -4.99,-3.99 -6.42,-5.19 -1.39,-1.17 -4.58,-3.67 -6.19,-5.08 -38.05,-33.19 -6.14,-19.47 -30.32,-47.91 -25.73,-30.24 5.1,18.85 -19.44,-21.55 9.26,-27.69 -12,-1.58 13.13,-29.23 -88.19,2.31 -34.97,2.6 -63.73,23.07 -31.24,22.23 -19.9,-0.46 -47.5,2.64l-6.33 2.51c-0.54,0.38 -2.21,2.36 -2.73,2.9l-5.58 8.48c-0.88,1.21 -2.36,3.91 -3.31,5.23l-12.61 16.42c-16.72,17.32 -23.93,19.07 -49.24,25.25 11.27,-16.56 33.1,-55.13 51.42,-60.22 -39.53,2.07 -90.3,79.99 -151.66,51.07l94.17 -44.6c-12.75,-25.82 -1.72,-2.82 -15.75,-15.09z"/>
     <path class="fil0" d="M795.45 1431.46c10.3,29.62 -52.61,123.65 -71.69,170.02 -51.5,125.13 -65.31,166.04 -75.15,197.98 -15.14,49.14 -29.92,110.6 -49.38,289.44 -50.78,466.51 85.35,670.46 99.48,806.55l85.58 160.55c80.83,62.91 48.52,84.38 188.1,189.24 23.73,17.83 21.77,19.74 45.41,40.81 143.27,127.69 517.47,330.28 702.83,334.41 -4.52,-22.29 -4.74,-24.54 -11.62,-39.49 -35.74,-77.73 -8.73,-26.05 -8.89,-92.99 -1.48,-0.66 -4.17,0.57 -4.82,0.63l-9.08 1.05c-0.69,-0.03 -3.44,0.31 -4.1,0.17l-17.18 -23.67c-65,-190.72 -13.16,-149.46 -40.79,-239.48 -27.53,-89.69 -28.76,-280.18 -42.52,-321.05 -25.22,-74.86 -97.07,-85.66 -149.97,-139.15 -84.29,-85.25 -47.64,-84.99 -98.19,-169.75 -98.24,-164.75 -88.43,-47.73 -62.88,-181.68 11.62,-60.91 -3.71,-7.15 -9.07,-51.49 -5.69,-47.03 26.48,-80.57 48.8,-109.26 78.19,-100.51 -1.93,-304.19 -40.62,-158.38 -34.73,-12.64 -50.74,-31.92 -76.36,-60.52 -41.1,-45.87 -16.61,3.15 -37.67,-57.36l-30.8 -69.54c-86.06,-23.39 -58.32,-9.35 -99.72,-79.12 -74.88,-18.1 -34.46,38.44 -112.25,-41.21 -37.96,-38.87 -47.91,-56.63 -31.65,-115.48 17.88,-64.7 2.25,-88.72 8.3,-149.04 2.61,-26.02 10.32,-43.78 16.21,-68.73 9.12,-38.61 5.96,-49.71 -5.83,-68.91l-46.93 195.09c0.42,-92.59 71.92,-296.18 113,-352.56 34.64,-47.54 66.05,-86.85 101.04,-129.32 26.9,-32.65 83.18,-84.95 102.42,-121.83 -304.2,312.73 -347.52,431.39 -374,454.06z"/>
     <path class="fil2" d="M3697.08 2325.33c-24.01,43.21 -57.71,367.14 -311.3,689.85 -71.57,91.08 -208.26,234.69 -295.95,299.08 -140.4,103.07 -308.76,209.52 -522.82,274.18 -184.76,55.82 -525.77,110.92 -709.68,56.98l-2.36 6.62c6.48,13.01 11.06,11.3 6.41,25.49l-13.81 16.07c40.11,-3.7 74.05,11.3 104.03,34.53 -81.04,4.91 -178.72,-15.52 -214.49,-97.15l-16.48 -10.53c-185.36,-4.13 -559.56,-206.72 -702.83,-334.41 -23.64,-21.07 -21.68,-22.98 -45.41,-40.81 -139.58,-104.86 -107.27,-126.33 -188.1,-189.24l93.11 193.09 23.5 19.19c1.46,1.62 3.04,3.94 4.4,5.63 68.74,85.59 57.86,90.71 152.09,183.47 80.83,79.56 106.36,117.56 192,182.58 142.23,107.99 280.75,192.94 482.69,269.45 27.72,3.95 1.67,-5.24 28.79,5.37 31.29,12.23 15.02,5.59 28.95,17.95l101.33 27.16 13.96 -3.03 163.63 -4.53c-2.29,-2.89 -6.02,-8.34 -7.3,-6.19l-35.6 -22.65 53.93 -3.66 -31.82 -24.03c36.66,-17.59 0.74,-33.4 108.68,-47.38 -2.49,2.25 -6.62,1.48 -8.05,6.03 -14.32,45.58 6.9,-9.62 -24.78,21.85 -1.06,1.05 -3.11,3.31 -4.37,5.19l72.77 73.14c84.95,79.78 389.71,-10.98 521.36,-38.39 7.29,-1.52 209.08,-7.75 212.83,-6.99 87.51,-20.55 224.58,-95.05 295.08,-136.69 150.26,-88.75 167.59,-122.65 252.2,-179.95 -6.89,-26.45 20.57,-52.26 46.33,-42.92 118.53,-157.7 334.1,-306.33 339.27,-431.57 0.29,-7.07 129.75,-297.57 157.12,-394 50.01,-176.13 39.19,-288.37 62.5,-455.09l-9.14 -63.43c-2.03,217.39 -39.99,452.94 -120.24,643.81 -71.97,171.17 -29.77,76.24 -96.76,191.27 -12.67,21.75 -21.2,43.89 -34.05,61.94 -90.44,127.09 -102.81,126.99 -212.02,169.37 7.24,-59.97 26.6,-71.28 37.27,-122.9 9.94,-48.07 8.16,-71.57 23.63,-121.1 28.05,-89.79 3.5,-176.26 30.27,-257.39 35,-106.06 64.23,-87.42 67.23,-223.41 2.77,-125.45 -47.34,-139.64 -67.98,-221.89z"/>
     <path class="fil3" d="M3589.86 1377.48c45.49,74.78 92.52,272.66 108.99,369.23 10.14,59.48 39.71,380.9 9.68,426.35 13.97,85.95 24.51,78.87 -11.45,152.27 20.64,82.26 70.75,96.44 67.98,221.89 -3,135.99 -32.23,117.35 -67.23,223.41 -26.77,81.13 -2.22,167.6 -30.27,257.39 -15.47,49.52 -13.69,73.03 -23.63,121.1 -10.67,51.62 -30.03,62.92 -37.27,122.9 109.21,-42.38 121.58,-42.29 212.02,-169.37 12.85,-18.05 21.38,-40.19 34.05,-61.94 66.99,-115.03 24.79,-20.1 96.76,-191.27 80.25,-190.87 118.21,-426.43 120.24,-643.81l-25.01 -261.25c-19.46,-59.75 -27.04,-102.74 -50.51,-155.19 -23.46,-52.44 -44.88,-92.42 -62.2,-147.22 23.11,21.45 23.48,39.29 44.24,61.36l-13.69 -53.7 -24.8 -55.75c-41.64,-124.96 -237.38,-432.07 -311.52,-485.63l-8.39 16.11c-30.22,-27.13 1.86,-9.71 -37.59,-19.09 -3.71,54.19 -0.31,24.97 -13.27,38.79 98.39,168.32 119.24,-3.51 204.23,213.11 -60.51,40.36 -73.08,-9.09 -128.31,-24.06 0.1,4.47 3.26,35.08 3.26,35.1 -2.64,35.56 6.53,10.09 -8.36,27.16 -19.21,-16.03 -16.48,-11.83 -47.95,-17.88z"/>
     <path class="fil1" d="M3708.53 2173.06c30.03,-45.45 0.46,-366.87 -9.68,-426.35 -16.47,-96.58 -63.5,-294.46 -108.99,-369.23l-7.97 -18.64c-37.56,-17.34 -88.81,-21.81 -104.82,-52.69 -22.15,-42.71 -9.1,-68.94 -69.96,-70.86 -37.62,-1.19 -93.08,11.04 -121.39,28.98 -70.68,44.82 -24.91,30.01 -108.63,11.76l-35.68 76.08c-25.79,70.99 45.61,50.87 -36.39,125.35 -37.34,33.92 -31.65,66.17 -48.78,103.73 -40.44,88.67 -17.49,72.28 6.08,160.5 17.64,66.01 -15.97,94.77 14.08,177.91 17.56,48.6 2.13,10.62 33.68,41.56 26.49,25.98 49.71,44.07 64.06,71.47 20.52,39.21 13.54,34.4 45.09,59.72 150.64,120.86 82.42,46.06 227.04,52.19 69.99,2.96 79.76,-41.89 153.21,-46.65l38.27 59.23c55.58,-0.45 21.55,-24.63 70.79,15.95z"/>
     <path class="fil1" d="M3486.04 1183.65c-50.03,-94.58 -8.22,-18.45 -124.54,-107.11 -26.2,-19.97 -25.52,-11.75 -29.87,-41.83 38.19,19.7 68.33,45 95.02,50.95 9.15,-18.26 5.98,-4.15 -12.23,-32.01 -10.44,-15.97 -21.91,-31.46 -32.91,-45.36 -11.04,-13.96 -23.59,-30 -34,-42.72l-190.09 -194.57 -13.36 5.51c53.25,51.82 60.63,49.42 73.69,87.56 -111.12,-4.07 -122.6,19.59 -119.85,89.94l-58.41 37.41c45.63,12.19 122.75,55.64 111.7,98.22l-15.45 4.73c-35.89,6.69 -67.3,-2.36 -106.67,-5.87 8.72,40.55 46.93,127.58 68.61,145.9 45.3,38.28 101.05,31.22 143.47,-6.49 4.7,-49.01 -19.55,-34.11 -6.37,-74.69 12.14,-37.41 11.84,5.59 11.26,-31.68 -0.57,-36.95 -2.54,12.36 -7.57,-29.27 31.53,0.72 16,2.63 40.9,-6.18 70.97,-25.11 33.82,-10.38 206.66,97.57z"/>
     <path class="fil1" d="M2045.54 588.85c74.13,-0.21 102.69,-33.89 158.9,-23.29l-65.76 11.59c18.67,16.65 43.43,8.02 61.71,28.56 28.29,31.8 10.73,44.9 9.98,47.22l-21.01 41.94c18.35,54.82 48.56,90.44 118.46,90.38 74.28,-88.91 -49.08,-39.96 204.36,-131.57 -25.24,-16.2 -16.86,-1.7 -44.46,-14.39 40.36,0.99 31.8,1.01 47.71,-9.07 -18.34,-20.59 -5.6,-17.4 -38.58,-41.87 -55.02,-40.83 -43.68,-48.88 -182.82,-39.98 -95.39,6.11 -186.47,-21.19 -248.5,40.47z"/>
     <path class="fil3" d="M1905.09 3956.88c25.68,2.13 242.68,46.9 268.57,56.22 151.12,-0.54 267.98,6.68 417.81,-15.96 93.92,-14.19 258.74,-52.93 334.89,-87.87 -3.75,-0.76 -205.54,5.47 -212.83,6.99 -131.65,27.42 -436.41,118.18 -521.36,38.39l-72.77 -73.14c1.26,-1.88 3.31,-4.14 4.37,-5.19 31.69,-31.47 10.46,23.73 24.78,-21.85 1.43,-4.55 5.56,-3.79 8.05,-6.03 -107.94,13.98 -72.02,29.79 -108.68,47.38l31.82 24.03 -53.93 3.66 35.6 22.65c1.28,-2.14 5.02,3.31 7.3,6.19l-163.63 4.53z"/>
     <path class="fil3" d="M3131.5 755.67c16.04,-25.99 23.83,-12.49 25.91,15.34l190.09 194.57c10.4,12.72 22.96,28.76 34,42.72 11,13.9 22.47,29.39 32.91,45.36 18.21,27.86 21.38,13.74 12.23,32.01l165.93 144.69c-10.62,-49.77 -26.39,-47.32 -60.03,-74.76 1.36,-1.78 4.15,-6.17 4.83,-4.67l27.27 -34.61c-56.38,-19.8 -45.06,-44.57 -89.16,-92.87l14.39 -15.95c3.09,-3.52 9.92,-11.32 10.45,-12.09 47.94,61.36 -42.24,-1.03 70.87,59.59 -15.8,-31 -11.59,-20.84 -37.95,-44.82 -19.24,-17.51 -19.36,-15.65 -33.47,-35.98 -19.16,-11.3 -58.72,-43.07 -67.84,-59.71 -53.58,-33.31 -98.02,-69.78 -156.68,-107.09 -48.82,-31.05 -110.91,-72 -171.37,-97.93 0.4,3.17 3.06,16.5 6.06,21.75 11.99,21.04 5.49,11.36 21.54,24.46z"/>
     <path class="fil2" d="M3426.65 1085.66c-26.69,-5.95 -56.83,-31.25 -95.02,-50.95 4.35,30.08 3.67,21.86 29.87,41.83 116.32,88.66 74.51,12.53 124.54,107.11l18.57 50.14c13.79,-37.57 -0.62,-7.53 16.75,-23.24 21.11,52.98 53.03,90.08 60.53,148.29l7.97 18.64c31.47,6.04 28.74,1.84 47.95,17.88 14.89,-17.07 5.72,8.4 8.36,-27.16 0,-0.02 -3.17,-30.63 -3.26,-35.1 55.23,14.97 67.8,64.42 128.31,24.06 -84.99,-216.63 -105.84,-44.8 -204.23,-213.11 12.96,-13.82 9.55,15.4 13.27,-38.79 39.45,9.38 7.38,-8.04 37.59,19.09l8.39 -16.11 -55.02 -53.24c-113.11,-60.62 -22.93,1.77 -70.87,-59.59 -0.54,0.78 -7.36,8.57 -10.45,12.09l-14.39 15.95c44.1,48.3 32.77,73.07 89.16,92.87l-27.27 34.61c-0.68,-1.5 -3.47,2.89 -4.83,4.67 33.63,27.44 49.4,24.99 60.03,74.76l-165.93 -144.69z"/>
     <path class="fil1" d="M3131.5 755.67c-16.05,-13.1 -9.55,-3.43 -21.54,-24.46 -2.99,-5.25 -5.65,-18.57 -6.06,-21.75 -80.79,-20.71 -108.32,-52.21 -182.67,-73.02l-65.12 -2.2c23.73,49.61 29.04,18.89 61.83,80.31 24.36,45.62 19.28,51.11 63.1,71.76 83.93,39.56 13.38,-22.86 85.41,8.35 40.52,17.56 31.03,36.36 71.47,49.54 -18.33,-76.95 -78.43,-78.48 -127.8,-116.22 -34.45,-26.32 -24.61,-6.14 -36.8,-42.71 102.09,37.05 90.65,99.73 158.17,70.4z"/>
     <path class="fil3" d="M1854.96 3652.04c-23.67,-9.01 -76.88,-20.03 -117.86,-21.06 35.76,81.63 133.45,102.05 214.49,97.15 -29.98,-23.22 -63.92,-38.23 -104.03,-34.53l13.81 -16.07c4.65,-14.19 0.07,-12.48 -6.41,-25.49z"/>
     <path class="fil1" d="M2879.33 799.95c34.45,72.91 16.89,28.94 71.8,62.78 58.36,35.96 -12.75,44.54 62.88,62.45l-11.36 23.84c34.51,-10.58 53.57,-3.04 73.66,-25.61 -31.95,-40.71 -49.64,-42.39 -91.98,-64.17 -46.51,-23.92 -55.81,-48.94 -104.99,-59.29z"/>
     <path class="fil4" d="M1295.81 1640.5c76.9,64.12 85.41,17.6 102.15,72.9l67.43 -1.11c-31.38,-38.73 -178.89,-134.2 -215.79,-49.85l46.21 -21.94z"/>
     <path class="fil4" d="M2061.93 934.92c-29.18,45.53 -56.25,48.49 -71.06,81.03l113.58 15.8c18.8,-53.18 -3.68,-52.43 -51.61,-59.3 1.61,-3.5 12.19,-24.2 12.36,-24.87 5.88,-23.73 8.17,4.22 -3.27,-12.66z"/>
     <path class="fil4" d="M1490.57 1724.33c11.05,15.66 9.09,12.09 16.15,35.14l-43.51 7.16c25.32,6.17 51.53,14.5 70.56,11.59 38.62,-5.91 10.44,-19.99 71,-7.9 -21.04,-36.66 -54.92,-57.89 -114.19,-46z"/>
     <path class="fil2" d="M1422.85 1029.79l74.45 2.7c46.97,-2.94 17.17,-0.63 33.3,-11.28 -13.44,-34.54 -10.97,-37.3 -53.87,-21.42 -21.03,7.78 -40.01,17.28 -53.87,30z"/>
     <path class="fil1" d="M2917.42 924.85c54.06,4.93 14.77,-73.89 -30.75,-57.21 0.01,0.34 -17.05,12.56 7.46,43.37 12.51,15.73 -1.57,11.57 23.28,13.84z"/>
     <path class="fil4" d="M2553.65 696.87c31.69,32.02 74.06,44.07 119.81,14.07 -31.86,-21.54 -80.23,-16.49 -119.81,-14.07z"/>
     <path class="fil2" d="M1407.46 1140.97c26.66,-11.54 6.19,2.35 30.35,-16.88l67.49 -75.13c-63.46,12.95 -75.95,35.14 -97.84,92.01z"/>
     <path class="fil2" d="M1509.48 1108.91l41.69 -26.29c19.46,-17.45 12.22,-1.53 23.66,-28.35 -14.95,-3.96 -37.15,-9.05 -63.67,-11.25l-1.68 65.89z"/>
     <path class="fil5" d="M3504.61 1233.79l-18.57 -50.14c-8.99,28.54 0.52,5.86 -17.67,25.01 -14.69,15.47 -1.93,-6.12 -14.53,14.56l50.76 10.57z"/>
     <path class="fil2" d="M1429.62 898.84l18.7 35.38c11.27,-17.19 19.1,-23.7 26.2,-49.18l-44.9 13.8z"/>
     <path class="fil6" d="M3352.63 1139.77c6.42,35.08 -15.44,3.98 9.12,32.14 13.37,15.34 6.89,6.92 26.96,16.55 -9.73,-30.87 -3.93,-36 -36.08,-48.69z"/>
     <path class="fil7" d="M1046.36 3204.37c-34.12,-2.65 -49.3,-3.87 -58.48,-30.83 -19.48,-57.18 61.04,-77.66 78.61,-29.08 14.49,40.02 -10.3,39.66 -20.13,59.91zm6.05 -130.89c66.53,-60.92 111.19,52.47 37.24,76.86 -7.2,-3.72 -82.18,-63.78 -73.23,-82.51 10.58,-22.15 18.18,-2.61 35.99,5.65zm93.52 -18.86c23.37,1.73 19.84,-10.36 39.08,-19.14 25.84,45.6 -76.04,70.5 -78.62,4.65 -1.04,-26.36 19.24,-51.68 51.58,-36.99 36.05,16.37 -1.89,43.04 -12.04,51.49zm956.05 -104.28c0.55,1.71 0.94,3.09 1.38,4.78 0.87,3.38 1.1,14.12 1.3,18.19 21.13,9.64 33.23,3.77 51.49,14.11 -13.25,19.4 -14.56,17.7 -48.36,14.73 7.41,16.51 11.31,13.1 10.17,22.73 -3.51,29.6 -40.68,-8.79 -45.89,-14.49 -11.13,-12.18 -19.36,-20.57 -28.88,-29.59 -16.32,-15.47 -20.64,-13.62 -11.91,-30.91 16.52,-17.83 30.25,16.03 51.5,32.19 1.82,-28.02 -8.71,-29.36 12.34,-46.04l6.85 14.29zm-931.38 15.08c-7.32,-38.92 13.08,-87.77 45.4,-57.8 -9.25,20.24 -20.58,10.68 -24.52,36.99 38.08,-2.57 30.86,-16.97 71.8,-2.92 10.98,64.29 -28.89,72.29 -51.75,62.01 8.74,-30.04 19.74,-4.68 31.67,-37.56 -22.31,-12.09 -30.91,13.53 -72.6,-0.72zm-855.59 -35.55c1.95,-29.47 -7.74,-34.5 13.87,-48.17 17.18,21.63 -2.88,30.7 14.95,41.61l45.07 10.9c-15.93,23.05 -24.81,20.36 -52.86,14.99 25.55,23.51 12.44,43.48 -9.62,30.25 -1.23,-0.73 -62.82,-53.04 -65.14,-71.77 -3.72,-30.04 45.99,0.92 53.72,22.18zm3277.86 -451.18c-32.95,19.72 -24.55,-9.57 -50.29,8.83 -19.28,13.79 1.72,21.96 -9.51,50.38 -25.94,-7.91 -15.17,-8.94 -37.64,-52.38 -8.78,-16.97 -29.02,-41.8 -12.45,-57.15 17.47,-16.17 101.06,28.66 109.88,50.32zm-664.54 -341.62c25.22,23.55 37.66,94.64 55.73,129.24l15.51 48 7.16 21.13 -432.83 146.32c11.68,21.21 31.55,11.41 28.76,58.78 -13.43,20.41 -32.36,40.38 -64.57,20.54 -32.83,-20.23 -13.97,-52.13 -13.97,-52.14 6.11,-20.69 16.9,11.72 0.99,-9.62l-31.99 4.52 -6.83 17.06 65.41 61.63c-9.34,29.16 -33.73,63.47 -73.58,38.6 -41.06,-25.63 -0.4,-67.96 -4.49,-77.01 -15.26,9.47 -18.62,17.64 -32.63,28.23 -10.08,7.62 -23.9,13.86 -38.47,19.94l27.01 12.13c10.54,4.37 16.34,8.01 25.23,12.54 44.48,22.66 37.02,6.99 46.51,32.39 -45.88,26.87 -15.12,-24.45 -62.61,22.38 6.37,21.37 13.61,12.06 3.94,35.4 -22.18,-1.7 -12.53,11.84 -39.37,-49.24 -9.24,-21.03 -20.74,-34 -17.87,-59.77 -85,12.9 -77.43,-8.2 -134.58,-24.15 -115.99,26.34 -232.16,58.93 -351.45,83.89 -120.64,25.24 -238,46.76 -359.77,69.24l-36.72 6c-14.15,12.54 -8.07,11.07 -17.29,22.36 -6.23,7.64 -15.52,16.39 -21.03,21.7 -16.96,16.39 -28.64,16.58 -45.08,30.08l-0.61 11.83c-4.31,35.02 -33.31,37.39 -67.02,26.08 31.1,63.12 -37.16,82.62 -64.01,55.94 -30.56,-30.37 -8.74,-88.2 52.35,-67.47l-0.18 -19.36c-54.4,-8.42 -61.61,-26.89 -94.87,-46.59 -162.5,20.08 -357.48,34.16 -521.01,28.81l-51.13 -0.99c-144.68,-8.72 -293.24,-18.15 -423.28,-62.72 -41.64,-13.74 -81.17,-31.62 -116.81,-54.69 -27.65,-17.89 -69.93,-53.77 -80.67,-90.9 -7.12,9.25 -7.85,-12.92 -5.88,15.11 4.64,78.28 29.01,200.46 48.1,273.86 27.28,104.85 36.21,160.46 104.96,206.23 1.47,-36.3 2.16,-3.88 -7.17,-19.15 -7.91,-12.93 -9.35,6.53 -9.6,-22.74 -0.56,-67.17 113.52,-43.93 79.84,23.67 -10.46,20.99 7.58,-7.03 -4.46,6.72 -6.61,7.55 -0.71,2.72 -9.31,6.96 -29.91,14.72 -27.49,-7.77 -36.92,10.6 11.2,21.16 95.92,55.2 130.41,66.63 160.85,53.28 365.42,68.06 530.35,65.02l57.59 -1.45c80.6,6.56 234.16,-9.14 319.07,-17.99 51.5,-5.37 102.51,-10.64 154.06,-17.05 48.04,-5.98 111.86,-18.55 157.42,-19.11l67.32 -12.68c35.04,-6.57 105.05,-24.41 136.14,-19.42l356.36 -77.3 190.41 -47.73 46.34 -10.84c38.03,-13.83 90.06,-25.14 130.79,-36.69 45.43,-12.88 89.75,-25.88 136.03,-39.45 42.16,-12.36 243.82,-80.99 267.85,-80.36 6.59,-5.49 -3.1,0.29 10.74,-7.17l75.61 -27.5 136.22 -48.77 18.27 -3.38 10.4 32.09c16.96,9.04 19.4,13.34 34.9,25.28 -3.82,-30.92 -8.49,-35.52 14.6,-48.91l6.22 41.85c8.15,1.86 24.04,2.64 27.57,3.65 33.76,9.69 11.72,-6.79 20.46,17.5 -27.03,16.96 -21.5,4.18 -51.38,7.37 38.64,3.91 -4.44,72.89 -27.99,1.38 -6.08,13.13 -8.14,-15.36 -6.59,19.95l6.67 48.57 22.15 116.94 86.05 -85.2c6.1,-12.07 -1.04,-0.41 8.88,-12.23 0.13,-0.15 7.11,-7.67 7.63,-8.22 7.54,-8.08 8.46,-9.88 15.52,-15.96 8.33,-17.2 5.08,-10.05 18.95,-24.22 62.58,-63.97 291.61,-368 298.38,-417.89 -15.12,-13.85 -7.54,1.33 -34.68,0.46 -12.74,-0.41 -20.97,-4.16 -28.87,-14.71 -19.48,-26.03 -5.14,-46.52 4.64,-65.29 -32.41,-46.87 -1.29,-44.74 30.11,-11.76 5.09,5.34 8.87,8.99 16.19,15.81 51.66,48.11 10.89,30.06 32.18,49.66l12.45 -32.82 -8.03 -0.32c-54.74,-5.64 -49.85,-87.15 4.26,-84.6 23.49,1.11 33.07,18.39 39.19,23.87l1.48 -14.24 -13.6 -9.74c-31.96,-25.51 -44.38,-33.13 -35.26,-56.24 21.43,-2.01 10.33,0.5 29.95,12.19 23.71,-10.87 23.2,-25.42 54.83,-11.39 6.23,-20.21 14.48,-39.28 22.47,-58.6 3.67,-8.88 8.7,-19.13 11.39,-26.83 6.45,-18.48 10.71,-16.56 -1.34,-22.41l-564.3 -76.68 -60.67 -9.28 -248.41 -33.05c9.21,30 38.57,78.84 39.19,107.89z"/>
     <path class="fil8" d="M1907.87 1815.35c53.66,-30.74 113.6,79.03 65.45,103.73 -54.55,27.98 -109.4,-78.55 -65.45,-103.73zm-64.8 87.58c18.2,17.26 59.55,103.06 145.84,58.06 23.15,-12.07 24.03,-24.79 45.79,-34.62 20.43,-9.44 -1.65,32.97 0.88,48.05 7.11,42.36 -2.54,5.62 11.67,23.46 19.31,-6.89 12.56,-5.47 35.83,-22.21 0.93,-0.67 2.31,-1.73 3.18,-2.37l23.49 -1.99c0.17,-32.65 1.11,-17.47 13.19,-21.32l-66.58 -312.06 -1027.24 217.91 137.62 652.86c22.39,6.31 200.67,-37.38 221.17,-41.96 54.37,-12.17 174.65,-30.84 217.81,-47.94 1.24,-1.26 5.87,-5.85 7.03,-7.04l9.04 -9.41c1.71,-1.78 3.43,-3.61 5.15,-5.4 -6.29,7.71 3.89,2.79 -5.27,-5.32 17.27,17.64 24.46,10.05 24.66,10.03 34.33,-3.1 -9.7,-0.61 17.88,-10.08 4.39,-13.29 -1.95,-12.94 -2.07,-12.98l-3.25 2.34c37.88,-5.33 10.42,-18.39 39.52,-32.9 12.83,-6.4 27.53,-7.2 46.22,-36.76l4.06 -7.2c4.76,-8.27 3.29,-5.74 7.67,-13.37l32.69 -33.08c57.17,-26.69 30.69,-13.82 58.07,-62.29 8.59,-15.22 1.1,-9.65 16,-17.95 0.45,-0.25 9.23,-4.26 10.75,-4.9l27.44 -9.73c44.72,-16.82 27.67,-16.64 44.03,-38.86l34.46 -24.3c0.29,0.79 1.27,-3.42 1.66,-4.56 0.42,-1.25 2.43,-7.08 2.97,-8.74 4.9,-15.06 10.36,-45.08 25.33,-55.74 17.82,-12.69 20.07,-2.54 32.17,-43.25 -21.4,1.4 -26.41,-1.87 -43.76,-0.46 -11.6,0.94 -22.28,5.63 -35.97,4.06 -25.77,-2.96 -8.78,-12.59 -42.68,-2.37 -10.14,3.06 -14.12,2.58 -9.33,14.05l3.99 7.2c0.48,0.9 1.74,2.64 2.31,4.1 -9.96,8.94 -14.96,16.64 -31.07,19.79 -24,4.7 -8.91,0.84 -13.23,-0.87 5.82,-12.4 6.39,-10.54 11,-24.24l-54.54 -90.41c6.9,-7.2 6.4,-5.04 14.45,-15.2z"/>
     <path class="fil9" d="M1496.47 2689.51c-15.7,65.35 -82.14,123.04 -164.84,103.32 -177.41,-42.29 -116.05,-310.47 65.05,-266.55 61.11,14.82 119.07,83 99.8,163.23zm983.93 -212.8c-47.05,186.22 -313.19,104.62 -266.35,-67.07 47.61,-174.52 308.81,-100.94 266.35,67.07zm-967.59 -6.85c9.77,-20.98 32.23,-19.79 73.51,-28.55 139.55,-29.62 451.67,-104.66 550.07,-117.47 -13.6,29.32 -108.11,38.24 -143.36,45.43l-315.96 67.73c-44.61,10.14 -118.99,29.02 -164.26,32.87zm804.41 -397.47c1.57,-5.76 -1.9,-20.56 39.24,-20.38 8,0.04 10.43,2.27 12.51,3 3.27,18.8 4.18,14.44 -15.45,20.01 -39.74,11.29 -32.38,0.36 -36.31,-2.63zm123.46 -248.02l142.41 168.43c-16.65,12.74 -147.49,40.01 -165.63,33.93 -30.36,-10.18 -23.72,-33.49 -67.68,-24.47 -27.17,5.58 -56.13,11.25 -83.74,18.78l21.8 111.38c-0.78,-1.26 -1.57,-3 -1.99,-3.97l-32.1 -124.46c-6.52,-24.35 -26.19,-112.38 -25.84,-134.59l212.76 -45.02zm-317.77 125.62l62.94 288.06c7.21,34.91 -19.1,61.66 -57.74,69.72 -19.28,4.02 -37.34,7.81 -57.24,12.26 -101.65,22.71 -377.13,84.94 -465.18,98.77 -43.16,17.1 -163.44,35.78 -217.81,47.94 -20.5,4.58 -198.78,48.28 -221.17,41.96l-137.62 -652.86 1027.24 -217.91 66.58 312.06zm-460.64 -247.05l-16.83 2.99 -138.21 30.34 -499.89 107.88 86.67 415.61 12.5 53.51 1.26 9.13 46.89 211.03 292.22 -62.3c11.86,-0.46 -3.53,-1.66 9.66,0.39 15.58,2.43 4.38,-1.71 14.25,5.18 -30.65,18.43 -132.4,25.24 -171.88,38.95 -46.37,16.1 -118.08,26.44 -169.3,38.35l14.77 82.13 64.4 -10.56c-10.98,96.3 20.47,100.39 36.33,142.12 33.26,19.69 40.47,38.17 94.87,46.59l79.46 -7.01c16.44,-13.49 28.12,-13.69 45.08,-30.08 5.5,-5.32 14.79,-14.07 21.03,-21.7 9.21,-11.29 3.14,-9.83 17.29,-22.36 22.97,-73.63 23.2,-104.81 -11.81,-165.97 9.57,-5.5 25.58,-8.99 33.42,-11.56l667.15 -134.46c-7.87,100.47 35.82,118.3 59.18,152.86 57.15,15.95 49.58,37.05 134.58,24.15l17.15 -5.84c14.58,-6.08 28.39,-12.32 38.47,-19.94 14.02,-10.59 17.38,-18.77 32.63,-28.23 4.23,-11.78 12.06,-22.49 12.66,-23.22l6.83 -17.06 12.19 -70.13c42.11,-6.39 91.24,-19.01 135.38,-28.4 36,-7.65 33.3,-3.23 49.85,-30.24 17.02,-27.78 20.4,-24.05 10.46,-61.41l-8.49 -48.45 -12.96 -54.49 -25.92 -11.9c11.99,-16.84 10.47,-5.42 2,-59.46 -16.72,-106.67 -37.9,-151.92 -110.55,-235.06l-65.69 -71.59 -54.25 -53.94c-20.4,-17.95 -37.9,-19.39 -66.65,-31.67l-104.67 -4.63c-35.6,-0.91 -86.79,11.14 -116.52,23.16 -7.93,23.18 -0.69,33.2 2.21,58.05 17.55,51.23 62.2,284.31 82.56,373.09 6.46,28.15 5.77,26.09 -21.83,30.73l-83.01 -396.07 -16.77 -56.27c2.54,-21.61 -24.61,-135.71 -32.72,-158.87l-405.47 86.63z"/>
     <path class="fil10" d="M337.89 2154.39c-82.62,51.97 -120.91,97.18 -187.85,159.48 -15.8,14.7 -32.7,49.3 -52.59,60.63 -2.38,14.22 -1.84,10.69 -10.54,25.24 -35.21,58.95 -65.27,132.69 -40.56,202.57 -1.97,-28.02 -1.24,-5.85 5.88,-15.11 10.74,37.13 53.03,73 80.67,90.9 35.65,23.08 75.18,40.95 116.81,54.69 14.47,-21 53.48,-52.81 77.27,-71.67 27.87,-22.11 57.93,-43.89 88.77,-65.48 36.6,-25.62 148.05,-98.65 190.15,-113.62 11.67,-24.7 -1.84,-87.73 -2.81,-122.8 -2.42,-87.22 -0.63,-171.69 8.72,-258.66 3.32,-30.86 18.52,-99.8 9.8,-113.76 -47.78,20.44 -105.37,54.57 -148.72,80.52 -42.96,25.71 -98.55,57.14 -135.01,87.07z"/>
     <path class="fil10" d="M3987.1 1768.58c140.04,13.87 345.3,82.9 442.12,182.91 59.9,61.87 52.06,77.47 80.47,126.56 -1.37,-82.45 -55.1,-248.45 -51.03,-307.78 -4.05,-5.21 -1.13,1.31 -6.9,-11.29 -4.57,-9.98 -2.77,-6.37 -5.56,-16.18l-25.23 -91.28c-15.16,-49.77 -41.13,-72.26 -57.46,-104.19 -25.5,-11.86 -58.89,-46.73 -95.4,-68 -32.41,-18.88 -70.97,-36.46 -108.52,-51.07 -76.23,-29.66 -171.33,-53.07 -259.06,-65.71l-112.64 -13.49 111.86 200.99c40.54,77.31 64.36,171.98 87.35,218.53z"/>
     <path class="fil8" d="M1828.62 1918.13l54.54 90.41c-4.6,13.7 -5.18,11.84 -11,24.24 4.31,1.71 -10.78,5.56 13.23,0.87 16.11,-3.15 21.1,-10.85 31.07,-19.79 -0.57,-1.46 -1.83,-3.21 -2.31,-4.1l-3.99 -7.2c-4.79,-11.47 -0.81,-10.99 9.33,-14.05 33.9,-10.22 16.91,-0.59 42.68,2.37 13.69,1.57 24.37,-3.11 35.97,-4.06 17.35,-1.4 22.36,1.86 43.76,0.46 -12.1,40.71 -14.35,30.56 -32.17,43.25 -14.97,10.66 -20.43,40.68 -25.33,55.74 -0.54,1.66 -2.55,7.49 -2.97,8.74 -0.39,1.14 -1.37,5.35 -1.66,4.56l-34.46 24.3c-16.36,22.22 0.7,22.04 -44.03,38.86l-27.44 9.73c-1.51,0.64 -10.29,4.64 -10.75,4.9 -14.91,8.3 -7.41,2.73 -16,17.95 -27.37,48.46 -0.9,35.6 -58.07,62.29l-32.69 33.08c-4.38,7.64 -2.91,5.1 -7.67,13.37l-4.06 7.2c-18.69,29.57 -33.39,30.37 -46.22,36.76 -29.1,14.51 -1.64,27.57 -39.52,32.9l3.25 -2.34c0.12,0.04 6.46,-0.31 2.07,12.98 -27.58,9.47 16.45,6.98 -17.88,10.08 -0.2,0.02 -7.39,7.61 -24.66,-10.03 9.15,8.11 -1.02,13.04 5.27,5.32 -1.73,1.79 -3.44,3.62 -5.15,5.4l-9.04 9.41c-1.16,1.19 -5.79,5.78 -7.03,7.04 88.05,-13.82 363.53,-76.06 465.18,-98.77 19.91,-4.45 37.96,-8.24 57.24,-12.26 38.64,-8.05 64.94,-34.81 57.74,-69.72l-62.94 -288.06c-12.07,3.85 -13.02,-11.33 -13.19,21.32l-23.49 1.99c-0.87,0.64 -2.25,1.71 -3.18,2.37 -23.27,16.74 -16.52,15.32 -35.83,22.21 -14.21,-17.84 -4.56,18.9 -11.67,-23.46 -2.53,-15.08 19.55,-57.48 -0.88,-48.05 -21.76,9.83 -22.64,22.54 -45.79,34.62 -86.29,45.01 -127.64,-40.8 -145.84,-58.06 -8.05,10.16 -7.55,8 -14.45,15.2z"/>
     <path class="fil11" d="M2227.93 1869.39c-0.35,22.21 19.32,110.25 25.84,134.59l32.1 124.46c0.42,0.97 1.22,2.71 1.99,3.97l-21.8 -111.38c27.61,-7.54 56.57,-13.21 83.74,-18.78 43.96,-9.02 37.31,14.29 67.68,24.47 18.14,6.08 148.99,-21.19 165.63,-33.93l-142.41 -168.43 -212.76 45.02z"/>
     <path class="fil11" d="M2318.3 2362.91c111.71,-36.53 166.73,127.65 57.56,166.21 -109.54,38.69 -169.6,-129.57 -57.56,-166.21zm162.11 113.8c42.45,-168.01 -218.74,-241.6 -266.35,-67.07 -46.84,171.7 219.3,253.29 266.35,67.07z"/>
     <path class="fil12" d="M1335.11 2575.98c111.22,-36.46 163.64,130.6 57.11,166.49 -111.4,37.54 -170.17,-129.42 -57.11,-166.49zm161.36 113.53c19.27,-80.24 -38.69,-148.42 -99.8,-163.23 -181.1,-43.91 -242.46,224.26 -65.05,266.55 82.71,19.72 149.14,-37.97 164.84,-103.32z"/>
     <path class="fil13" d="M2376.63 2460.74c-19.52,38.82 -82.74,11.71 -58.59,-32.2 18.23,-33.15 78.62,-7.65 58.59,32.2zm-58.33 -97.84c-112.04,36.64 -51.99,204.9 57.56,166.21 109.17,-38.56 54.16,-202.74 -57.56,-166.21z"/>
     <path class="fil14" d="M1390 2686.73c-59.32,21.19 -78.47,-28.24 -53.34,-53.45 25.32,-25.41 73.78,-5.29 53.34,53.45zm-54.89 -110.76c-113.06,37.07 -54.29,204.03 57.11,166.49 106.53,-35.89 54.11,-202.95 -57.11,-166.49z"/>
     <path class="fil15" d="M2117.24 1831.44l83.01 396.07c27.61,-4.65 28.29,-2.58 21.83,-30.73 -20.36,-88.78 -65,-321.86 -82.56,-373.09l-19.89 -1.23 -2.4 8.98z"/>
     <path class="fil16" d="M1512.82 2469.85c45.27,-3.84 119.65,-22.72 164.26,-32.87l315.96 -67.73c35.25,-7.18 129.76,-16.1 143.36,-45.43 -98.4,12.81 -410.52,87.85 -550.07,117.47 -41.28,8.76 -63.74,7.57 -73.51,28.55z"/>
     <path class="fil7" d="M1339.99 2814.27l0.18 19.36c-61.09,-20.73 -82.92,37.11 -52.35,67.47 26.85,26.68 95.11,7.18 64.01,-55.94 33.7,11.32 62.7,8.94 67.02,-26.08l0.61 -11.83 -79.46 7.01z"/>
     <path class="fil8" d="M1907.87 1815.35c-43.94,25.18 10.9,131.71 65.45,103.73 48.15,-24.69 -11.8,-134.47 -65.45,-103.73z"/>
     <path class="fil7" d="M3625.18 2455.17c14.02,-10.33 11.41,-9.49 19.57,-25.84 -21.28,-19.59 19.48,-1.55 -32.18,-49.66 -7.32,-6.82 -11.1,-10.47 -16.19,-15.81 -31.4,-32.98 -62.52,-35.1 -30.11,11.76 -9.78,18.77 -24.12,39.26 -4.64,65.29 7.9,10.55 16.13,14.3 28.87,14.71 27.14,0.87 19.56,-14.31 34.68,-0.46z"/>
     <path class="fil7" d="M1052.4 3073.49c-17.82,-8.26 -25.41,-27.8 -35.99,-5.65 -8.95,18.73 66.03,78.79 73.23,82.51 73.95,-24.39 29.29,-137.78 -37.24,-76.86z"/>
     <path class="fil7 str0" d="M2385.37 2598.14c-2.87,25.77 8.63,38.74 17.87,59.77 26.84,61.08 17.19,47.54 39.37,49.24 9.67,-23.34 2.43,-14.04 -3.94,-35.4 47.49,-46.83 16.73,4.49 62.61,-22.38 -9.49,-25.4 -2.03,-9.73 -46.51,-32.39 -8.89,-4.53 -14.7,-8.17 -25.23,-12.54l-27.01 -12.13 -17.15 5.84z"/>
     <path class="fil7" d="M2473.63 2544.13c4.09,9.04 -36.57,51.37 4.49,77.01 39.86,24.88 64.25,-9.44 73.58,-38.6l-65.41 -61.63c-0.6,0.73 -8.43,11.44 -12.66,23.22z"/>
     <path class="fil7" d="M3533.08 2537.92c11.22,-28.42 -9.77,-36.59 9.51,-50.38 25.74,-18.41 17.33,10.89 50.29,-8.83 -8.83,-21.66 -92.41,-66.49 -109.88,-50.32 -16.58,15.34 3.67,40.18 12.45,57.15 22.47,43.44 11.7,44.47 37.64,52.38z"/>
     <path class="fil7" d="M1046.36 3204.37c9.83,-20.25 34.62,-19.89 20.13,-59.91 -17.58,-48.58 -98.1,-28.1 -78.61,29.08 9.19,26.96 24.37,28.17 58.48,30.83z"/>
     <path class="fil7" d="M199.42 3082.4l12.39 6.05c9.43,-18.37 7.01,4.12 36.92,-10.6 8.6,-4.24 2.7,0.6 9.31,-6.96 12.04,-13.75 -6,14.27 4.46,-6.72 33.67,-67.6 -80.41,-90.85 -79.84,-23.67 0.25,29.27 1.69,9.82 9.6,22.74 9.33,15.27 8.64,-17.14 7.17,19.15z"/>
     <path class="fil7" d="M2525.11 2499.32c15.91,21.34 5.12,-11.06 -0.99,9.62 -0,0.01 -18.86,31.91 13.97,52.14 32.21,19.84 51.15,-0.13 64.57,-20.54 2.79,-47.37 -17.07,-37.57 -28.76,-58.78 -9.97,2.12 -20.62,3.9 -30.2,7.38l-15.03 7.75c-0.61,-1.09 -2.44,1.53 -3.57,2.42z"/>
     <path class="fil7" d="M315.01 2929.88c-7.73,-21.27 -57.44,-52.22 -53.72,-22.18 2.32,18.73 63.91,71.03 65.14,71.77 22.05,13.23 35.17,-6.74 9.62,-30.25 28.05,5.37 36.93,8.06 52.86,-14.99l-45.07 -10.9c-17.83,-10.92 2.23,-19.98 -14.95,-41.61 -21.61,13.66 -11.92,18.69 -13.87,48.17z"/>
     <path class="fil7" d="M2082.78 2982.1c-21.25,-16.16 -34.98,-50.02 -51.5,-32.19 -8.73,17.28 -4.41,15.44 11.91,30.91 9.52,9.02 17.75,17.41 28.88,29.59 5.21,5.7 42.38,44.09 45.89,14.49 1.14,-9.63 -2.76,-6.22 -10.17,-22.73 33.8,2.97 35.11,4.67 48.36,-14.73 -18.26,-10.34 -30.36,-4.47 -51.49,-14.11 -0.21,-4.07 -0.43,-14.81 -1.3,-18.19 -0.44,-1.7 -0.83,-3.07 -1.38,-4.78l-6.85 -14.29c-21.05,16.68 -10.52,18.02 -12.34,46.04z"/>
     <path class="fil7" d="M1170.6 2965.42c41.69,14.26 50.29,-11.37 72.6,0.72 -11.92,32.88 -22.92,7.53 -31.67,37.56 22.85,10.28 62.72,2.28 51.75,-62.01 -40.94,-14.05 -33.72,0.35 -71.8,2.92 3.94,-26.31 15.27,-16.75 24.52,-36.99 -32.32,-29.98 -52.72,18.87 -45.4,57.8z"/>
     <path class="fil7" d="M3657.2 2396.51c15.92,-13.69 25,-40.32 35.42,-61.04 -6.12,-5.48 -15.7,-22.76 -39.19,-23.87 -54.11,-2.56 -59,78.95 -4.26,84.6l8.03 0.32z"/>
     <path class="fil7" d="M1145.92 3054.63c10.15,-8.46 48.09,-35.12 12.04,-51.49 -32.34,-14.69 -52.62,10.63 -51.58,36.99 2.59,65.86 104.46,40.95 78.62,-4.65 -19.24,8.79 -15.71,20.87 -39.08,19.14z"/>
     <path class="fil7" d="M3143.17 2785.29c2.88,21.71 7.18,53.93 17.78,68.08 -1.55,-35.31 0.51,-6.82 6.59,-19.95 23.55,71.5 66.64,2.53 27.99,-1.38 29.88,-3.19 24.36,9.59 51.38,-7.37 -8.74,-24.29 13.3,-7.82 -20.46,-17.5 -3.53,-1.01 -19.42,-1.79 -27.57,-3.65l-6.22 -41.85c-23.1,13.38 -18.42,17.98 -14.6,48.91 -15.5,-11.94 -17.94,-16.24 -34.9,-25.28z"/>
     <path class="fil11" d="M1390 2686.73c20.44,-58.73 -28.02,-78.85 -53.34,-53.45 -25.13,25.21 -5.98,74.64 53.34,53.45z"/>
     <path class="fil12" d="M2376.63 2460.74c20.03,-39.85 -40.36,-65.35 -58.59,-32.2 -24.15,43.9 39.07,71.02 58.59,32.2z"/>
     <path class="fil7" d="M3694.09 2321.22l10.31 -9.1 18.3 -45.56 7.3 -10.52c-31.63,-14.03 -31.12,0.52 -54.83,11.39 -19.62,-11.69 -8.51,-14.2 -29.95,-12.19 -9.11,23.12 3.3,30.73 35.26,56.24l13.6 9.74z"/>
     <path class="fil8" d="M1556.82 2068.59c4.35,7.1 7.84,12.08 11.56,18.9 29.67,-11.86 35.28,-24.7 23.28,-53.53 -21.9,-2.88 -30.23,2.77 -46.61,9.4 5.27,10.36 2.98,10.89 11.78,25.23z"/>
     <path class="fil17" d="M2100.47 1775.17l16.77 56.27 2.4 -8.98 19.89 1.23c-2.9,-24.85 -10.14,-34.87 -2.21,-58.05 -1.35,0.96 -3.36,2.05 -4.2,2.65l-32.64 6.88z"/>
     <path class="fil8" d="M1418.03 2217.05l29.32 -15.85c-6.85,-19.04 -33.31,-39.19 -52.45,-52.62l23.13 68.47z"/>
     <path class="fil15" d="M2317.23 2072.38c3.93,2.99 -3.44,13.91 36.31,2.63 19.63,-5.57 18.72,-1.21 15.45,-20.01 -2.08,-0.73 -4.51,-2.97 -12.51,-3 -41.14,-0.18 -37.67,14.62 -39.24,20.38z"/>
     <path class="fil18" d="M1267.01 2194.16c4.98,-1.04 9.07,-2.38 12.24,-4.19 5.28,-3.24 9.21,-8 11.58,-14.57 2.07,-5.03 2.69,-11.41 2.42,-18.76 -0.22,-4.39 -0.83,-8.38 -1.68,-11.98 -3.29,-13.95 -8.49,-24.22 -15.91,-30.73 -7.26,-6.55 -17.06,-8.63 -29.2,-6.1l-26.93 5.59 20.39 86.37 27.09 -5.63zm-65.64 -90.63l45.13 -9.38c15.41,-3.2 28.54,-0.17 39.68,9.02 9.81,8.32 16.54,20.25 20.17,35.61 2.85,12.07 3.19,23.18 0.97,33.84 -3.75,18.7 -15.29,29.98 -34.43,33.96l-44.98 9.34 -26.54 -112.4z"/>
     <polygon id="_1" class="fil18" points="1314.4,2080.05 1395.8,2063.14 1399.06,2076.94 1332.44,2090.78 1340.47,2124.79 1402.1,2111.99 1405.18,2125 1343.54,2137.81 1352.57,2176.05 1420.44,2161.96 1423.58,2175.28 1340.93,2192.45 "/>
     <polygon id="_2" class="fil18" points="1416.81,2058.78 1431.91,2055.64 1455.3,2154.71 1511.96,2142.94 1515.1,2156.27 1443.35,2171.17 "/>
     <polygon id="_3" class="fil18" points="1506.8,2040.08 1522.06,2036.91 1548.59,2149.31 1533.34,2152.48 "/>
     <polygon id="_4" class="fil18" points="1555.49,2029.96 1610.17,2119.08 1619.15,2016.74 1636.12,2013.21 1622.03,2134.05 1606,2137.38 1538.68,2033.46 "/>
     <polygon id="_5" class="fil18" points="1651.84,2009.95 1733.25,1993.04 1736.5,2006.83 1669.88,2020.67 1677.91,2054.69 1739.55,2041.88 1742.62,2054.9 1680.99,2067.7 1690.02,2105.95 1757.88,2091.85 1761.03,2105.18 1678.38,2122.35 "/>
     <path id="_6" class="fil18" d="M1818.39 2029.29c7,-1.46 12.27,-4.03 15.81,-7.73 3.38,-3.66 4.34,-9.29 2.56,-16.81 -1.89,-8 -6.14,-12.87 -12.57,-14.49 -3.48,-0.93 -7.71,-0.86 -13.01,0.24l-36.89 7.66 9.07 38.4 35.02 -7.27zm-62.26 -41.01l51.67 -10.74c8.56,-1.78 15.86,-1.98 21.9,-0.6 11.69,2.5 18.94,10.37 21.97,23.22 1.59,6.74 1.49,12.52 -0.12,17.46 -1.8,4.81 -4.88,9.07 -9.27,12.62 4.8,0.97 8.63,2.65 11.47,5.02 3.04,2.49 5.24,6.97 7.11,13.49l4.17 14.92c1,4.23 2.24,7.43 3.19,9.37 1.78,3.42 4.01,5.25 6.61,5.87l0.59 2.51 -18.68 3.88c-0.69,-0.85 -1.3,-2.03 -1.98,-3.54 -0.68,-1.5 -1.69,-4.42 -2.89,-8.77l-5.34 -18.46c-2.05,-7.3 -6,-11.58 -11.58,-13.06 -3.29,-0.8 -7.99,-0.64 -14.21,0.65l-34.4 7.15 11.4 48.28 -15.1 3.14 -26.53 -112.4z"/>
     <polygon id="_7" class="fil18" points="1855.38,1967.67 1872.97,1964.01 1917.76,2011.28 1937.09,1950.69 1954.83,1947 1928.49,2022.86 1939.19,2068.17 1924.09,2071.3 1913.4,2026 "/>
    </g>
   </g>
  </g>
  <polygon class="fil19" points="-0,0 4547,0 4547,4547 -0,4547 "/>
 </g>
</svg>
