<?xml version="1.0" encoding="UTF-8"?>
<!DOCTYPE svg PUBLIC "-//W3C//DTD SVG 1.1//EN" "http://www.w3.org/Graphics/SVG/1.1/DTD/svg11.dtd">
<!-- Creator: CorelDRAW -->
<svg xmlns="http://www.w3.org/2000/svg" xml:space="preserve" width="5.45604in" height="5.45604in" version="1.1" style="shape-rendering:geometricPrecision; text-rendering:geometricPrecision; image-rendering:optimizeQuality; fill-rule:evenodd; clip-rule:evenodd"
viewBox="0 0 1926.8 1926.8"
 xmlns:xlink="http://www.w3.org/1999/xlink"
 xmlns:xodm="http://www.corel.com/coreldraw/odm/2003">
 <defs>
  <style type="text/css">
   <![CDATA[
    .fil19 {fill:none}
    .fil9 {fill:#1A1A1A}
    .fil7 {fill:#399452}
    .fil10 {fill:#449665}
    .fil8 {fill:#55BC7E}
    .fil13 {fill:#6B6D71}
    .fil14 {fill:#6D6E71}
    .fil2 {fill:#A7D6B7}
    .fil17 {fill:#AFB0B5}
    .fil0 {fill:#C1E4CD}
    .fil3 {fill:#E6E6E6}
    .fil5 {fill:#E9EBF5}
    .fil6 {fill:#F5F6F7}
    .fil16 {fill:#F9F9F9}
    .fil15 {fill:#FAFAFA}
    .fil4 {fill:#FAFBFC}
    .fil12 {fill:#FCFCFC}
    .fil1 {fill:#FDFDFD}
    .fil11 {fill:#FEFEFE}
    .fil18 {fill:white;fill-rule:nonzero}
   ]]>
  </style>
   <clipPath id="id0">
    <path d="M-0 0l1926.8 0 0 1926.8 -1926.8 0 0 -1926.8z"/>
   </clipPath>
 </defs>
 <g id="Layer_x0020_1">
  <metadata id="CorelCorpID_0Corel-Layer"/>
  <g>
  </g>
  <g style="clip-path:url(#id0)">
   <g>
    <path class="fil0" d="M631.63 730.69c25.12,-5.04 39.47,3.96 48.39,19.49 -25.66,-5.12 -13.72,0.84 -30.09,3.35 -8.06,1.23 -19.17,-2.3 -29.9,-4.91l18.44 -3.03c-2.99,-9.77 -2.16,-8.26 -6.84,-14.89l0 -0.01zm-102.11 -26.23c15.64,-35.74 78.14,4.71 91.44,21.12l-28.57 0.47c-7.09,-23.43 -10.7,-3.72 -43.29,-30.89l-19.58 9.3zm891.16 -221.48c13.62,5.38 11.17,7.55 15.29,20.63 -8.5,-4.08 -5.75,-0.51 -11.42,-7.01 -10.41,-11.93 -1.14,1.25 -3.87,-13.62l0 0zm-546.94 -86.81c4.85,7.15 3.87,-4.69 1.39,5.37 -0.07,0.28 -4.55,9.06 -5.24,10.54 20.31,2.91 29.84,2.59 21.87,25.13l-48.13 -6.7c6.27,-13.79 17.75,-15.04 30.11,-34.34l-0 0zm349.49 -28.51c19.29,-7.07 35.94,26.33 13.03,24.24 -10.53,-0.96 -4.56,0.81 -9.86,-5.86 -10.39,-13.06 -3.16,-18.23 -3.16,-18.38l-0 0zm-3.11 -28.68c20.84,4.39 24.78,14.99 44.49,25.12 17.95,9.23 25.44,9.94 38.98,27.19 -8.51,9.56 -16.59,6.37 -31.21,10.85l4.81 -10.1c-32.05,-7.59 -1.92,-11.22 -26.65,-26.46 -23.27,-14.34 -15.83,4.29 -30.43,-26.6l0 0zm-138 -43.68c16.77,-1.03 37.27,-3.17 50.77,5.96 -19.39,12.72 -37.34,7.61 -50.77,-5.96zm-215.31 -45.77c26.28,-26.13 64.88,-14.56 105.3,-17.15 58.96,-3.77 54.16,-0.36 77.47,16.94 13.98,10.37 8.57,9.02 16.35,17.74 -6.74,4.27 -3.11,4.26 -20.22,3.84 11.7,5.38 8.14,-0.77 18.84,6.1 -107.4,38.82 -55.12,18.08 -86.6,55.75 -29.62,0.02 -42.42,-15.07 -50.2,-38.3l8.9 -17.77c0.32,-0.98 7.76,-6.53 -4.23,-20.01 -7.75,-8.71 -18.24,-5.05 -26.15,-12.1l27.87 -4.91c-23.82,-4.49 -35.92,9.78 -67.33,9.87l-0 -0zm-90.2 7.48c5.95,5.2 1.27,-4.55 6.67,6.39l-39.9 18.9c26,12.25 47.52,-20.76 64.27,-21.64 -7.76,2.16 -17.01,18.5 -21.79,25.52 10.73,-2.62 13.78,-3.36 20.87,-10.7l5.34 -6.96c0.4,-0.56 1.03,-1.7 1.4,-2.22l2.36 -3.59c0.22,-0.23 0.93,-1.06 1.16,-1.23l2.68 -1.06c11.7,-1.31 6.89,8.3 20.13,-1.12 12.19,-8.67 -10.36,-8.8 27.01,-9.78 -10.65,11.72 -1.64,0.65 -5.56,12.39 10.4,17.12 -2.67,-3.69 8.24,9.13 10.25,12.05 -3.28,6.23 12.85,20.3 0.68,0.6 2.03,1.66 2.62,2.15 0.61,0.51 1.94,1.33 2.72,2.2 -27.43,9.93 -9.83,1.95 -31.93,0.35l2.02 17.91c-11,-0.69 -7.8,-1.2 -12.76,0.57 -11.47,4.12 10.52,8 -10.58,3.44 -19.09,-4.13 0.11,-7.03 -31.64,-13.34 21.66,-6.56 36.82,-4.99 39.9,-26.44 -25.08,-13.6 -29.54,12.16 -61.74,15.41 -3,7.09 -1.21,6.37 -1.41,7.2 -2.15,8.94 1.42,2.89 -2.66,8.94 -9.34,0.48 -5.02,1.47 -13,-0.8 -9.89,-2.81 -2.68,-11.17 -37.45,3.99 -21.61,9.42 -34.64,21 -47.47,33.81l6.88 6.75c0.76,0.73 5.28,5.22 6.19,5.95l19.87 8.35 -8.23 29.25c22.08,-5.53 7.98,-2.88 22.19,-19.51 14.67,-17.17 20.73,-6.2 33.71,-27.51l7.41 -12.8c5.61,-7.44 15.07,-16.14 22.1,-21.84l26 7.93c5.28,16.17 -4.47,5.42 2.47,18.51 11.72,-1.73 20.66,-6.47 29.28,-10.37 6.31,40.13 13.1,27.45 34.85,52.46 -4.5,10.06 -0.17,3.65 -7.93,12.24 -29.52,4.44 -21.16,13.23 -60.35,12.23 -22.5,-0.57 -39.49,0.92 -55.29,23.04 16.54,-6.03 24.98,-16.77 45.02,-12.74l-15.47 10.99c14.66,5.92 4.34,6.8 12.02,18.98l20.68 -5.57c14.34,-6.21 6.33,-5.1 11.13,-0.95 -5.04,13.71 -33.15,18.21 -54.61,25.49 -7.2,-15.17 15.62,5.03 0,-14.25 -10.03,4.44 -26.53,8.04 -35.65,12.53 -23.86,11.76 -1.75,11.76 -26.01,23.1 -10.8,5.05 -4.59,0.3 -16.6,7.94l-39.31 28.84c-2.75,5.85 -1.53,4.42 -2.64,10.02 -2.95,14.88 1.53,10.32 -9.28,19.3 -30.33,25.19 -49.46,10.1 -62.08,60.69 -4.21,16.89 -3.68,33.78 -11.79,48.36 -10.77,-13.34 -5.27,-29.11 -9.42,-52.48l-47.35 -8.13 0.99 14.74c-20.25,-3.47 -24.03,-11.94 -43.94,-0.8 -17.99,10.07 -43.55,50.4 -46.46,67.84 -1.47,8.79 -2,19.16 -2.25,28.09l3.38 26.94c0.3,0.9 0.86,2.3 1.48,3.35 47.07,15.17 33.22,-33.88 74.42,-37.9 -0.79,27.09 -13.38,20.85 -28.54,74.54 21.33,-4.65 25.76,-2.98 45.45,2.04 -4.58,42.43 -23.34,45.65 3.65,84.92 19.04,-1.31 26.2,-15.88 46.47,2.64l6.18 6.61c9.35,-14.81 15.15,-38.73 59.95,-52.36 -2.74,23.15 -14.04,32.88 1.06,39.24 5.28,-12.81 -2.69,-6.69 1.9,-18.42 4.35,-11.12 4.34,-1.94 14.37,-16.02 67.32,48.83 65.81,-5.32 102.57,33.79l25.32 23.59c43.39,50.38 71.92,-18.52 108.96,78.1 7.75,20.21 17.24,26.72 35.68,29.37 8.76,1.26 17.26,-0.28 27.12,5.63 16.85,10.09 1.03,3.06 14.06,18.07 9.41,-5 53.05,-0.66 63.75,5.95 21.31,13.18 8.02,18.16 50.05,26.59 19.73,77.86 -45.54,61.11 -50.16,118.64 -3.28,40.76 4.39,41.57 -23.95,85.42 -13.52,20.91 -78.86,13.12 -87.79,58.04 -8.58,43.13 -36.4,60.21 -41.01,66.91 -3.75,5.44 -1.34,8.1 -10.22,20.06 -23.9,2.18 -23.27,2.63 -42.62,-5.64 8.49,26.75 19.71,11.72 21.6,34.76 -14.24,14.68 -25.65,10.53 -49.58,14.53 10.23,27.46 0.64,17.97 -20.47,19.09 5.64,12.07 10.4,11.73 9.98,23.93 -0.47,13.86 -6.23,7.11 -12.37,26.97l20.94 6.02c-3.86,11.2 -5.25,11.69 -9.65,25.91 77.93,22.85 222.44,-0.49 300.73,-24.14 90.71,-27.4 162.05,-72.51 221.55,-116.19 37.16,-27.28 95.08,-88.14 125.41,-126.74 107.46,-136.75 121.74,-274.02 131.91,-292.33 15.24,-31.1 10.77,-28.1 4.85,-64.53 -20.87,-17.2 -6.44,-6.95 -30,-6.76l-16.22 -25.1c-31.12,2.02 -35.26,21.03 -64.92,19.77 -61.29,-2.6 -32.37,29.1 -96.21,-22.11 -13.37,-10.73 -10.42,-8.69 -19.11,-25.31 -6.08,-11.61 -15.92,-19.28 -27.15,-30.29 -13.37,-13.11 -6.83,2.98 -14.27,-17.61 -12.73,-35.23 1.51,-47.42 -5.97,-75.39 -9.99,-37.39 -19.71,-30.44 -2.58,-68.01 7.26,-15.92 4.85,-29.59 20.67,-43.96 34.75,-31.56 4.49,-23.04 15.42,-53.12l15.12 -32.24c35.48,7.73 16.08,14.01 46.03,-4.98 12,-7.61 35.5,-12.78 51.44,-12.28 25.79,0.81 20.26,11.93 29.65,30.03 6.79,13.09 28.5,14.98 44.42,22.33 -3.18,-24.67 -16.7,-40.39 -25.65,-62.84 -7.36,6.66 -1.25,-6.07 -7.1,9.85l-21.51 -4.48c5.34,-8.76 -0.07,0.39 6.16,-6.17 7.7,-8.12 3.68,1.49 7.49,-10.6 -73.24,-45.74 -57.5,-51.99 -87.57,-41.35 -10.56,3.73 -3.97,2.92 -17.33,2.62 2.13,17.64 2.97,-3.25 3.21,12.4 0.24,15.79 0.37,-2.43 -4.77,13.42 -5.58,17.2 4.69,10.88 2.7,31.65 -17.97,15.98 -41.6,18.97 -60.8,2.75 -9.19,-7.76 -25.38,-44.64 -29.07,-61.82 16.68,1.49 29.99,5.33 45.2,2.49l6.55 -2c4.68,-18.04 -28,-36.45 -47.33,-41.62l24.75 -15.85c-1.17,-29.81 3.7,-39.84 50.79,-38.11 -5.53,-16.17 -8.66,-15.15 -31.23,-37.1l5.66 -2.33c-0.88,-11.8 -4.18,-17.51 -10.98,-6.5 -28.61,12.43 -23.76,-14.14 -67.02,-29.83 5.17,15.5 1,6.94 15.59,18.1 20.92,15.99 46.39,16.64 54.16,49.25 -17.14,-5.59 -13.12,-13.55 -30.29,-20.99 -30.53,-13.23 -0.63,13.23 -36.19,-3.54 -18.57,-8.75 -16.42,-11.07 -26.74,-30.41 -13.9,-26.03 -16.15,-13.01 -26.2,-34.03l27.59 0.93c-24.39,-14.72 -64.81,-22.34 -96.96,-28.96l-22.94 -4.91c-77.34,-15.82 -276.84,-15.22 -341.38,21.18l0 0.01z"/>
    <path class="fil1" d="M640.36 441.98c11.24,0.93 20.65,3.09 26.98,4.77 -4.84,11.36 -1.78,4.62 -10.03,12.01l-17.67 11.14 0.71 -27.92 0 -0zm-43.94 41.51c9.28,-24.1 14.57,-33.51 41.46,-38.99l-28.6 31.84c-10.24,8.15 -1.57,2.26 -12.86,7.15zm6.52 -47.11c5.87,-5.39 13.92,-9.42 22.83,-12.71 18.18,-6.73 17.14,-5.56 22.83,9.08 -6.83,4.52 5.8,3.54 -14.11,4.78l-31.55 -1.14 0.01 0zm21.9 -61.34c-3.01,10.8 -6.33,13.56 -11.1,20.84l-7.92 -14.99 19.03 -5.85 -0 0zm-172.68 90.76c-14.83,18 -28.14,34.65 -42.82,54.8 -17.41,23.89 -47.71,110.16 -47.88,149.4l19.89 -82.67c5,8.14 6.34,12.84 2.47,29.2 -2.5,10.58 -5.76,18.1 -6.87,29.13 -2.57,25.56 4.06,35.74 -3.52,63.16 -6.89,24.93 -2.67,32.46 13.41,48.93 32.96,33.75 15.83,9.79 47.57,17.46 17.54,29.56 5.79,23.62 42.26,33.53l13.05 29.47c8.92,25.64 -1.45,4.87 15.96,24.31 10.86,12.12 17.64,20.29 32.36,25.65 16.4,-61.79 50.35,24.52 17.21,67.11 -9.45,12.16 -23.09,26.37 -20.68,46.3 2.27,18.79 8.77,-3.99 3.84,21.82 -10.83,56.76 -14.98,7.17 26.65,76.99 21.42,35.92 5.89,35.81 41.61,71.93 22.41,22.67 52.86,27.24 63.55,58.96 5.83,17.32 6.35,98.04 18.02,136.05 11.71,38.15 -10.26,20.66 17.28,101.48l7.28 10.03c0.28,0.06 1.44,-0.08 1.74,-0.07l3.85 -0.44c0.28,-0.03 1.42,-0.55 2.04,-0.27 0.07,28.37 -11.38,6.47 3.77,39.4 2.92,6.34 3.01,7.29 4.92,16.73l6.98 4.46c17.37,0.43 39.91,5.11 49.94,8.92l1 -2.81c4.4,-14.22 5.8,-14.71 9.65,-25.91l-20.94 -6.02c6.14,-19.86 11.89,-13.12 12.37,-26.97 0.42,-12.2 -4.34,-11.86 -9.98,-23.93 21.12,-1.12 30.7,8.38 20.47,-19.09 23.93,-4 35.34,0.14 49.58,-14.53 -1.89,-23.04 -13.11,-8.01 -21.6,-34.76 19.35,8.27 18.72,7.82 42.62,5.64 8.89,-11.96 6.48,-14.62 10.22,-20.06 4.61,-6.7 32.44,-23.78 41.01,-66.91 8.93,-44.92 74.27,-37.13 87.79,-58.04 28.35,-43.85 20.67,-44.66 23.95,-85.42 4.62,-57.52 69.89,-40.77 50.16,-118.64 -42.03,-8.43 -28.74,-13.41 -50.05,-26.59 -10.69,-6.61 -54.33,-10.95 -63.75,-5.95 -13.03,-15 2.79,-7.98 -14.06,-18.07 -9.87,-5.91 -18.37,-4.37 -27.12,-5.63 -18.44,-2.65 -27.93,-9.16 -35.68,-29.37 -37.03,-96.62 -65.56,-27.71 -108.96,-78.1l-25.32 -23.59c-36.76,-39.1 -35.25,15.04 -102.57,-33.79 -10.03,14.08 -10.02,4.91 -14.37,16.02 -4.59,11.73 3.37,5.61 -1.9,18.42 -15.1,-6.37 -3.8,-16.09 -1.06,-39.24 -44.8,13.62 -50.6,37.55 -59.95,52.36l-6.18 -6.61c-20.27,-18.51 -27.44,-3.95 -46.47,-2.64 -26.99,-39.27 -8.23,-42.5 -3.65,-84.92 -19.69,-5.02 -24.12,-6.7 -45.45,-2.04 15.17,-53.69 27.75,-47.45 28.54,-74.54 -41.2,4.02 -27.34,53.07 -74.42,37.9 -0.63,-1.05 -1.19,-2.45 -1.48,-3.35l-3.38 -26.94c0.25,-8.93 0.78,-19.3 2.25,-28.09 2.91,-17.45 28.47,-57.77 46.46,-67.84 19.91,-11.15 23.68,-2.67 43.94,0.8l-0.99 -14.74 47.35 8.13c4.15,23.37 -1.36,39.14 9.42,52.48 8.11,-14.59 7.58,-31.48 11.79,-48.36 12.62,-50.59 31.74,-35.5 62.08,-60.69 10.81,-8.98 6.33,-4.42 9.28,-19.3 1.11,-5.61 -0.1,-4.17 2.64,-10.02l39.31 -28.84c12.01,-7.64 5.8,-2.89 16.6,-7.94 24.26,-11.34 2.16,-11.35 26.01,-23.1 9.11,-4.49 25.62,-8.09 35.65,-12.53 15.62,19.28 -7.2,-0.93 0,14.25 21.46,-7.28 49.57,-11.78 54.61,-25.49 -4.8,-4.15 3.22,-5.26 -11.13,0.95l-20.68 5.57c-7.67,-12.18 2.64,-13.06 -12.02,-18.98l15.47 -10.99c-20.04,-4.03 -28.48,6.71 -45.02,12.74 15.8,-22.12 32.79,-23.61 55.29,-23.04 39.18,1 30.82,-7.79 60.35,-12.23 7.76,-8.59 3.43,-2.18 7.93,-12.24 -21.75,-25.01 -28.54,-12.32 -34.85,-52.46 -8.63,3.89 -17.56,8.63 -29.28,10.37 -6.94,-13.1 2.81,-2.34 -2.47,-18.51l-26 -7.93c-7.03,5.69 -16.49,14.4 -22.1,21.84l-7.41 12.8c-12.98,21.31 -19.04,10.33 -33.71,27.51 -14.21,16.64 -0.11,13.98 -22.19,19.51l8.23 -29.25 -19.87 -8.35c-0.91,-0.73 -5.43,-5.22 -6.19,-5.95l-6.88 -6.75c12.83,-12.81 25.86,-24.4 47.47,-33.81 34.78,-15.16 27.57,-6.8 37.45,-3.99 7.98,2.27 3.66,1.28 13,0.8 4.08,-6.05 0.51,0 2.66,-8.94 0.2,-0.83 -1.59,-0.11 1.41,-7.2 32.2,-3.25 36.66,-29.01 61.74,-15.41 -3.09,21.45 -18.24,19.88 -39.9,26.44 31.75,6.31 12.56,9.21 31.64,13.34 21.1,4.57 -0.89,0.68 10.58,-3.44 4.95,-1.78 1.75,-1.26 12.76,-0.57l-2.02 -17.91c22.09,1.6 4.5,9.58 31.93,-0.35 -0.78,-0.87 -2.11,-1.69 -2.72,-2.2 -0.59,-0.5 -1.94,-1.56 -2.62,-2.15 -16.12,-14.06 -2.6,-8.25 -12.85,-20.3 -10.9,-12.81 2.16,7.99 -8.24,-9.13 3.92,-11.73 -5.08,-0.67 5.56,-12.39 -37.37,0.98 -14.82,1.1 -27.01,9.78 -13.24,9.42 -8.43,-0.19 -20.13,1.12l-2.68 1.06c-0.23,0.16 -0.94,1 -1.16,1.23l-2.36 3.59c-0.37,0.51 -1,1.66 -1.4,2.22l-5.34 6.96c-7.09,7.34 -10.14,8.08 -20.87,10.7 4.78,-7.02 14.03,-23.36 21.79,-25.52 -2.91,0.15 -118.24,47.2 -24.36,2.74 27.36,-30.76 -221.91,50.17 -331.13,202.4z"/>
    <path class="fil0" d="M337.07 606.58c4.36,12.55 -22.29,52.4 -30.38,72.05 -21.82,53.02 -27.68,70.36 -31.84,83.89 -6.42,20.82 -12.68,46.87 -20.92,122.65 -21.52,197.68 36.17,284.11 42.16,341.78l36.26 68.03c34.25,26.66 20.56,35.76 79.71,80.19 10.06,7.56 9.23,8.36 19.24,17.29 60.71,54.11 219.28,139.96 297.83,141.71 -1.92,-9.45 -2.01,-10.4 -4.92,-16.73 -15.15,-32.94 -3.7,-11.04 -3.77,-39.4 -0.63,-0.28 -1.77,0.24 -2.04,0.27l-3.85 0.44c-0.29,-0.01 -1.46,0.13 -1.74,0.07l-7.28 -10.03c-27.54,-80.82 -5.58,-63.33 -17.28,-101.48 -11.67,-38.01 -12.19,-118.73 -18.02,-136.05 -10.69,-31.72 -41.13,-36.3 -63.55,-58.96 -35.72,-36.12 -20.19,-36.01 -41.61,-71.93 -41.63,-69.81 -37.47,-20.23 -26.65,-76.99 4.92,-25.81 -1.57,-3.03 -3.84,-21.82 -2.41,-19.93 11.22,-34.14 20.68,-46.3 33.13,-42.59 -0.82,-128.9 -17.21,-67.11 -14.72,-5.36 -21.5,-13.53 -32.36,-25.65 -17.42,-19.44 -7.04,1.33 -15.96,-24.31l-13.05 -29.47c-36.47,-9.91 -24.71,-3.96 -42.26,-33.53 -31.73,-7.67 -14.6,16.29 -47.57,-17.46 -16.09,-16.47 -20.3,-24 -13.41,-48.93 7.58,-27.42 0.95,-37.6 3.52,-63.16 1.11,-11.03 4.37,-18.55 6.87,-29.13 3.87,-16.36 2.52,-21.07 -2.47,-29.2l-19.89 82.67c0.18,-39.24 30.48,-125.51 47.88,-149.4 14.68,-20.14 27.99,-36.8 42.82,-54.8 11.4,-13.84 35.25,-36 43.4,-51.63 -128.91,132.52 -147.26,182.8 -158.48,192.41l-0 0z"/>
    <path class="fil2" d="M1566.65 985.36c-10.17,18.31 -24.45,155.58 -131.91,292.33 -30.33,38.59 -88.25,99.45 -125.41,126.74 -59.49,43.68 -130.84,88.78 -221.55,116.19 -78.29,23.65 -222.8,47 -300.73,24.14l-1 2.81c2.75,5.51 4.69,4.79 2.72,10.8l-5.85 6.81c17,-1.57 31.38,4.79 44.08,14.63 -34.34,2.08 -75.73,-6.58 -90.89,-41.17l-6.98 -4.46c-78.55,-1.75 -237.12,-87.6 -297.83,-141.71 -10.02,-8.93 -9.19,-9.74 -19.24,-17.29 -59.15,-44.43 -45.46,-53.53 -79.71,-80.19 34.99,72.56 56.89,112.16 115.73,170.09 132.3,132.58 246.33,230.01 428.56,209.74 -0.97,-1.22 -2.55,-3.53 -3.09,-2.62l-15.09 -9.6 22.85 -1.55 -13.48 -10.18c15.53,-7.45 0.31,-14.15 46.05,-20.08 -1.06,0.95 -2.81,0.63 -3.41,2.56 -6.07,19.31 2.92,-4.08 -10.5,9.26 -0.45,0.44 -1.32,1.4 -1.85,2.2l30.84 30.99c36,33.81 165.14,-4.65 220.93,-16.27 3.09,-0.64 88.6,-3.28 90.19,-2.96 37.08,-8.71 95.17,-40.28 125.04,-57.92 172.62,-101.95 283.14,-255.07 336.85,-444.28 21.19,-74.64 16.61,-122.2 26.48,-192.85l-3.87 -26.88c-0.86,92.12 -16.95,191.93 -50.95,272.82 -30.5,72.53 -12.61,32.31 -41,81.05 -5.37,9.22 -8.98,18.6 -14.43,26.25 -38.32,53.85 -43.57,53.81 -89.84,71.77 3.07,-25.41 11.27,-30.21 15.79,-52.08 4.21,-20.37 3.46,-30.33 10.01,-51.32 11.89,-38.05 1.48,-74.69 12.83,-109.07 14.83,-44.94 27.22,-37.04 28.49,-94.67 1.17,-53.16 -20.06,-59.17 -28.81,-94.03l-0.01 0.01z"/>
    <path class="fil3" d="M1521.21 583.71c19.28,31.69 39.21,115.54 46.18,156.46 4.3,25.2 16.83,161.41 4.1,180.67 5.92,36.42 10.39,33.42 -4.85,64.53 8.75,34.86 29.98,40.87 28.81,94.03 -1.27,57.63 -13.66,49.73 -28.49,94.67 -11.34,34.38 -0.94,71.02 -12.83,109.07 -6.56,20.98 -5.8,30.95 -10.01,51.32 -4.52,21.87 -12.73,26.66 -15.79,52.08 46.28,-17.96 51.52,-17.92 89.84,-71.77 5.44,-7.65 9.06,-17.03 14.43,-26.25 28.39,-48.74 10.5,-8.52 41,-81.05 34.01,-80.88 50.09,-180.7 50.95,-272.82l-10.6 -110.71c-8.25,-25.32 -11.46,-43.54 -21.4,-65.76 -9.94,-22.22 -19.02,-39.16 -26.36,-62.39 9.79,9.09 9.95,16.65 18.75,26l-5.8 -22.76 -10.51 -23.62c-17.65,-52.95 -100.59,-183.09 -132.01,-205.79l-3.56 6.83c-12.81,-11.5 0.79,-4.11 -15.93,-8.09 -1.57,22.96 -0.13,10.58 -5.62,16.44 41.69,71.33 50.53,-1.49 86.54,90.31 -25.64,17.1 -30.97,-3.85 -54.37,-10.2 0.04,1.89 1.38,14.87 1.38,14.87 -1.12,15.07 2.77,4.28 -3.54,11.51 -8.14,-6.79 -6.98,-5.01 -20.32,-7.58l-0 -0.01z"/>
    <path class="fil1" d="M1571.5 920.84c12.73,-19.26 0.19,-155.46 -4.1,-180.67 -6.98,-40.93 -26.91,-124.78 -46.18,-156.46l-3.38 -7.9c-15.92,-7.35 -37.63,-9.24 -44.42,-22.33 -9.39,-18.1 -3.86,-29.21 -29.65,-30.03 -15.94,-0.5 -39.44,4.68 -51.44,12.28 -29.95,18.99 -10.56,12.72 -46.03,4.98l-15.12 32.24c-10.93,30.08 19.33,21.56 -15.42,53.12 -15.82,14.37 -13.41,28.04 -20.67,43.96 -17.14,37.57 -7.41,30.63 2.58,68.01 7.47,27.97 -6.77,40.16 5.97,75.39 7.44,20.59 0.9,4.5 14.27,17.61 11.23,11.01 21.07,18.68 27.15,30.29 8.7,16.61 5.74,14.58 19.11,25.31 63.83,51.22 34.93,19.52 96.21,22.11 29.66,1.25 33.8,-17.75 64.92,-19.77l16.22 25.1c23.55,-0.19 9.13,-10.44 30,6.76l-0 -0z"/>
    <path class="fil1" d="M1477.22 501.57c-21.2,-40.08 -3.48,-7.82 -52.77,-45.39 -11.1,-8.46 -10.81,-4.98 -12.66,-17.73 16.18,8.35 28.96,19.07 40.26,21.59 3.88,-7.74 2.53,-1.76 -5.18,-13.56 -4.42,-6.77 -9.28,-13.33 -13.95,-19.22 -4.68,-5.92 -10,-12.71 -14.41,-18.1l-80.55 -82.45 -5.66 2.33c22.57,21.96 25.69,20.94 31.23,37.1 -47.09,-1.72 -51.95,8.3 -50.79,38.11l-24.75 15.85c19.34,5.17 52.02,23.58 47.33,41.62l-6.55 2c-15.21,2.83 -28.52,-1 -45.2,-2.49 3.7,17.18 19.89,54.06 29.07,61.82 19.2,16.22 42.82,13.23 60.8,-2.75 1.99,-20.77 -8.28,-14.45 -2.7,-31.65 5.14,-15.85 5.02,2.37 4.77,-13.42 -0.24,-15.66 -1.08,5.24 -3.21,-12.4 13.36,0.3 6.78,1.12 17.33,-2.62 30.07,-10.64 14.33,-4.4 87.57,41.35l0 -0z"/>
    <path class="fil1" d="M866.8 249.53c31.41,-0.09 43.52,-14.36 67.33,-9.87l-27.87 4.91c7.91,7.06 18.4,3.4 26.15,12.1 11.99,13.48 4.55,19.03 4.23,20.01l-8.9 17.77c7.78,23.23 20.58,38.32 50.2,38.3 31.48,-37.68 -20.8,-16.93 86.6,-55.75 -10.7,-6.86 -7.15,-0.72 -18.84,-6.1 17.1,0.42 13.48,0.43 20.22,-3.84 -7.77,-8.72 -2.37,-7.37 -16.35,-17.74 -23.31,-17.3 -18.51,-20.71 -77.47,-16.94 -40.42,2.59 -79.02,-8.98 -105.3,17.15l0 0z"/>
    <path class="fil3" d="M807.29 1676.74c10.88,0.9 102.84,19.87 113.81,23.82 64.04,-0.23 113.56,2.83 177.05,-6.76 39.8,-6.01 109.64,-22.43 141.91,-37.24 -1.59,-0.32 -87.1,2.32 -90.19,2.96 -55.79,11.62 -184.93,50.08 -220.93,16.27l-30.84 -30.99c0.53,-0.8 1.4,-1.75 1.85,-2.2 13.43,-13.33 4.43,10.06 10.5,-9.26 0.61,-1.93 2.36,-1.61 3.41,-2.56 -45.74,5.92 -30.52,12.62 -46.05,20.08l13.48 10.18 -22.85 1.55 15.09 9.6c0.54,-0.91 2.13,1.4 3.09,2.62l-69.34 1.92 0 0z"/>
    <path class="fil3" d="M1326.98 320.22c6.8,-11.01 10.1,-5.29 10.98,6.5l80.55 82.45c4.41,5.39 9.73,12.19 14.41,18.1 4.66,5.89 9.52,12.45 13.95,19.22 7.72,11.81 9.06,5.82 5.18,13.56l70.31 61.31c-4.5,-21.09 -11.18,-20.05 -25.44,-31.68 0.58,-0.75 1.76,-2.61 2.05,-1.98l11.56 -14.67c-23.89,-8.39 -19.09,-18.89 -37.78,-39.35l6.1 -6.76c1.31,-1.49 4.2,-4.8 4.43,-5.12 20.31,26 -17.9,-0.44 30.03,25.25 -6.7,-13.14 -4.91,-8.83 -16.08,-18.99 -8.15,-7.42 -8.2,-6.63 -14.18,-15.25 -8.12,-4.79 -24.88,-18.25 -28.75,-25.3 -22.7,-14.11 -41.54,-29.57 -66.39,-45.38 -20.69,-13.16 -47,-30.51 -72.62,-41.5 0.17,1.34 1.3,6.99 2.57,9.22 5.08,8.92 2.33,4.81 9.13,10.37l0.01 -0.01z"/>
    <path class="fil2" d="M1452.05 460.05c-11.31,-2.52 -24.08,-13.24 -40.26,-21.59 1.84,12.75 1.56,9.26 12.66,17.73 49.29,37.57 31.57,5.31 52.77,45.39l7.87 21.25c5.84,-15.92 -0.26,-3.19 7.1,-9.85 8.95,22.45 22.47,38.17 25.65,62.84l3.38 7.9c13.33,2.56 12.18,0.78 20.32,7.58 6.31,-7.23 2.42,3.56 3.54,-11.51 0,-0.01 -1.34,-12.98 -1.38,-14.87 23.4,6.34 28.73,27.3 54.37,10.2 -36.01,-91.8 -44.85,-18.98 -86.54,-90.31 5.49,-5.86 4.05,6.53 5.62,-16.44 16.72,3.98 3.13,-3.41 15.93,8.09l3.56 -6.83 -23.31 -22.56c-47.93,-25.69 -9.72,0.75 -30.03,-25.25 -0.23,0.33 -3.12,3.63 -4.43,5.12l-6.1 6.76c18.69,20.47 13.89,30.96 37.78,39.35l-11.56 14.67c-0.29,-0.64 -1.47,1.22 -2.05,1.98 14.25,11.63 20.93,10.59 25.44,31.68l-70.31 -61.31 -0.01 -0z"/>
    <path class="fil1" d="M1326.98 320.22c-6.8,-5.55 -4.05,-1.45 -9.13,-10.37 -1.27,-2.22 -2.39,-7.87 -2.57,-9.22 -34.23,-8.78 -45.9,-22.12 -77.41,-30.94l-27.59 -0.93c10.06,21.02 12.31,8 26.2,34.03 10.32,19.33 8.17,21.66 26.74,30.41 35.57,16.76 5.67,-9.69 36.19,3.54 17.17,7.44 13.15,15.41 30.29,20.99 -7.77,-32.61 -33.24,-33.26 -54.16,-49.25 -14.6,-11.15 -10.43,-2.6 -15.59,-18.1 43.26,15.7 38.41,42.26 67.02,29.83l0 0z"/>
    <path class="fil3" d="M786.04 1547.56c-10.03,-3.82 -32.58,-8.49 -49.94,-8.92 15.15,34.59 56.55,43.24 90.89,41.17 -12.7,-9.84 -27.09,-16.2 -44.08,-14.63l5.85 -6.81c1.97,-6.01 0.03,-5.29 -2.72,-10.8l0 0z"/>
    <path class="fil1" d="M1220.12 338.98c14.6,30.9 7.16,12.26 30.43,26.6 24.73,15.24 -5.4,18.87 26.65,26.46l-4.81 10.1c14.62,-4.48 22.7,-1.29 31.21,-10.85 -13.54,-17.25 -21.03,-17.96 -38.98,-27.19 -19.71,-10.14 -23.65,-20.74 -44.49,-25.12l-0 -0z"/>
    <path class="fil4" d="M549.1 695.17c32.59,27.17 36.19,7.46 43.29,30.89l28.57 -0.47c-13.3,-16.41 -75.8,-56.87 -91.44,-21.12l19.58 -9.3z"/>
    <path class="fil4" d="M873.75 396.17c-12.36,19.29 -23.84,20.55 -30.11,34.34l48.13 6.7c7.97,-22.53 -1.56,-22.22 -21.87,-25.13 0.68,-1.48 5.17,-10.26 5.24,-10.54 2.49,-10.06 3.46,1.79 -1.39,-5.37l0 0z"/>
    <path class="fil4" d="M631.63 730.69c4.68,6.64 3.85,5.12 6.84,14.89l-18.44 3.03c10.73,2.61 21.84,6.14 29.9,4.91 16.37,-2.5 4.42,-8.47 30.09,-3.35 -8.92,-15.53 -23.27,-24.53 -48.39,-19.49l-0 0.01z"/>
    <path class="fil2" d="M602.94 436.38l31.55 1.14c19.9,-1.25 7.28,-0.27 14.11,-4.78 -5.69,-14.64 -4.65,-15.81 -22.83,-9.08 -8.91,3.3 -16.95,7.32 -22.83,12.71l-0.01 0z"/>
    <path class="fil1" d="M1236.26 391.91c22.91,2.09 6.26,-31.31 -13.03,-24.24 0,0.14 -7.22,5.32 3.16,18.38 5.3,6.67 -0.67,4.9 9.86,5.86l0 0z"/>
    <path class="fil4" d="M1082.12 295.3c13.43,13.57 31.38,18.68 50.77,5.96 -13.5,-9.13 -34,-6.99 -50.77,-5.96z"/>
    <path class="fil2" d="M596.41 483.49c11.3,-4.89 2.62,1 12.86,-7.15l28.6 -31.84c-26.89,5.49 -32.18,14.89 -41.46,38.99z"/>
    <path class="fil2" d="M639.65 469.9l17.67 -11.14c8.25,-7.39 5.18,-0.65 10.03,-12.01 -6.33,-1.68 -15.74,-3.83 -26.98,-4.77l-0.71 27.92 0 0z"/>
    <path class="fil5" d="M1485.09 522.82l-7.87 -21.25c-3.81,12.09 0.22,2.48 -7.49,10.6 -6.22,6.56 -0.82,-2.59 -6.16,6.17l21.51 4.48 0 -0z"/>
    <path class="fil2" d="M605.8 380.89l7.92 14.99c4.78,-7.28 8.09,-10.04 11.1,-20.84l-19.03 5.85 0 0z"/>
    <path class="fil6" d="M1420.68 482.98c2.72,14.87 -6.54,1.69 3.87,13.62 5.67,6.5 2.92,2.93 11.42,7.01 -4.12,-13.08 -1.67,-15.25 -15.29,-20.63l-0 0z"/>
    <path class="fil7" d="M1590.12 931.17c1.56,-3.76 3.69,-8.11 4.83,-11.37 2.73,-7.83 4.54,-7.02 -0.57,-9.5l-239.12 -32.49 -25.71 -3.93 -105.26 -14.01c5.65,18.4 32.55,85.79 40.22,100.48l6.57 20.34 3.03 8.95 -183.41 62c-4.22,0.9 -8.74,1.65 -12.79,3.13l-6.37 3.28c-0.26,-0.46 -1.03,0.65 -1.51,1.03l0 0c0.38,0.51 0.72,0.94 1.03,1.31 -0.5,0.4 -1,1.25 -1.45,2.76 0,0 -7.02,11.88 3.56,20.43 -10.58,-8.55 -3.56,-20.43 -3.56,-20.43 0.45,-1.51 0.95,-2.35 1.45,-2.76 -0.31,-0.37 -0.65,-0.81 -1.03,-1.32l-13.56 1.92 -2.89 7.23 0 0c-0.25,0.31 -3.57,4.85 -5.37,9.84l0 0c15.09,33.32 7,15.5 -0,-0 -6.47,4.01 -7.89,7.47 -13.83,11.96 -4.21,3.19 -9.97,5.8 -16.05,8.34l-1.4 -0.91 -7.48 3.69c-34.57,5.03 -31.76,-3.76 -55.67,-10.43 -49.15,11.16 -98.38,24.97 -148.93,35.55 -51.12,10.7 -100.85,19.82 -152.45,29.34l-15.56 2.54c-6,5.31 -3.42,4.69 -7.33,9.48 -2.64,3.24 -6.58,6.94 -8.91,9.2 -7.19,6.94 -12.14,7.03 -19.1,12.75l-33.66 2.97 -0 0 0.08 8.2 -0.01 -0 -0.08 -8.2c-23.05,-3.57 -26.11,-11.4 -40.2,-19.74 -68.86,8.51 -151.48,14.47 -220.78,12.21l-21.67 -0.42c-61.31,-3.7 -124.26,-7.69 -179.37,-26.58 -17.65,-5.82 -34.4,-13.4 -49.5,-23.17 -11.72,-7.58 -29.63,-22.79 -34.18,-38.52 -3.02,3.92 -3.33,-5.48 -2.49,6.4 1.97,33.17 12.29,84.95 20.38,116.05 11.56,44.43 15.34,68 44.48,87.39 0.24,-5.96 0.43,-7.55 0.35,-7.63 0.12,-0.07 -0.08,1.35 -0.33,7.63l-0 0 5.24 2.56 -0 0.01c4.75,8.97 40.65,23.39 55.26,28.23 68.16,22.58 154.85,28.84 224.74,27.55l24.4 -0.61c34.15,2.78 99.23,-3.87 135.21,-7.62 21.82,-2.28 43.44,-4.51 65.28,-7.22 20.36,-2.53 47.4,-7.86 66.71,-8.1l28.53 -5.37c14.85,-2.78 44.52,-10.34 57.69,-8.23l151.01 -32.76 80.69 -20.23 19.64 -4.59c16.12,-5.86 38.16,-10.65 55.42,-15.55 19.25,-5.46 38.03,-10.97 57.64,-16.72 17.87,-5.24 103.32,-34.32 113.5,-34.05 2.79,-2.33 -1.31,0.12 4.55,-3.04l32.04 -11.65 57.72 -20.67 7.74 -1.43c11.9,36.71 16.93,74.43 24.16,112.58 102.82,-101.8 180.9,-208.93 238.45,-348.09zm-1456.63 310.37l-0 -0.01 0 0c0.83,-12.49 -3.28,-14.62 5.88,-20.41l0.01 0.01c-9.16,5.79 -5.05,7.92 -5.88,20.41l-0.01 -0zm-10.1 -11.01c-1.03,-0.69 -2.08,-1.31 -3.11,-1.84 1.03,0.53 2.07,1.15 3.11,1.84zm-3.62 -2.1c-5.26,-2.56 -9.81,-2.46 -9.05,3.71 0.11,0.87 0.52,1.91 1.16,3.07 -0.65,-1.17 -1.06,-2.2 -1.16,-3.07 -0.76,-6.17 3.79,-6.27 9.06,-3.7zm23.12 21.76l-0.49 -0.46 0 0 0.49 0.46zm21.9 -6.81l-19.09 -4.62c-0.35,-0.22 -0.67,-0.43 -0.96,-0.65 0.29,0.21 0.6,0.42 0.95,0.64l19.1 4.62 -0 0zm-81.41 56.53c-0.49,-0.05 -1.12,-0.53 -1.93,-1.86 -0.94,-1.54 -1.67,-2 -2.23,-2.13 0.56,0.13 1.29,0.58 2.24,2.13 0.8,1.31 1.43,1.79 1.91,1.86zm-5.11 -4.06c-0.64,-0.12 -0.83,-0.98 -0.89,-7.43 -0.08,-9.79 5.58,-15.05 12.47,-16.57 -6.88,1.52 -12.54,6.78 -12.46,16.57 0.05,6.4 0.24,7.3 0.87,7.43zm32.12 4.31c-0.6,1.31 -0.7,1.74 -0.57,1.72 -0.11,-0.02 0.02,-0.48 0.61,-1.78 0.35,-0.34 0.55,-0.48 0.65,-0.49 -0.11,0.03 -0.33,0.19 -0.69,0.55zm-13.71 6.3c-0.18,-0.02 -0.35,-0.04 -0.51,-0.06 0.16,0.03 0.34,0.05 0.51,0.06zm-0.75 -0.11c-1.42,-0.26 -2.32,-0.79 -3.09,-0.85 0.78,0.05 1.67,0.59 3.09,0.85zm977.39 -244.03c0.38,-0.05 0.23,-0.81 -0.22,-1.43 0.44,0.62 0.6,1.38 0.22,1.43zm-0.16 21.28c0.71,0.57 1.49,1.12 2.36,1.66l0.64 0.38 -0.64 -0.38c-0.87,-0.54 -1.65,-1.09 -2.36,-1.66zm-517.11 115.35c-16.56,1.11 -21.06,19.75 -10.33,30.4 2.31,2.3 5.35,3.79 8.6,4.48 -3.26,-0.69 -6.3,-2.18 -8.61,-4.48 -10.72,-10.66 -6.23,-29.29 10.34,-30.4zm0.56 35.22c0.77,0.08 1.54,0.11 2.31,0.1 -0.77,0.01 -1.55,-0.02 -2.31,-0.1zm16.24 -28.53l-0 -0c0.89,0.3 1.77,0.58 2.65,0.83 -0.87,-0.25 -1.75,-0.53 -2.64,-0.83zm2.65 0.83c0.44,0.13 0.87,0.24 1.3,0.36 -0.43,-0.11 -0.87,-0.23 -1.3,-0.36z"/>
    <path class="fil8" d="M877.54 983.11c8.44,-1.89 16.09,-3.49 24.26,-5.2 16.37,-3.41 27.52,-14.75 24.47,-29.54l-26.67 -122.05 0 -0 -28.21 -132.24 -435.3 92.34 58.32 276.65c9.49,2.67 85.03,-15.84 93.72,-17.78 96.23,-21.54 192.99,-40.64 289.41,-62.18z"/>
    <path class="fil9" d="M634.13 1139.69c-6.65,27.69 -34.81,52.14 -69.85,43.78 -75.18,-17.92 -49.18,-131.56 27.57,-112.95 25.9,6.28 50.46,35.17 42.29,69.17l-0 0zm416.94 -90.17c-19.94,78.91 -132.72,44.33 -112.87,-28.42 20.18,-73.95 130.86,-42.77 112.87,28.42zm-410.02 -2.9c4.14,-8.89 13.66,-8.39 31.15,-12.1 59.13,-12.55 191.4,-44.35 233.09,-49.78 -5.76,12.42 -45.81,16.2 -60.75,19.25l-133.89 28.7c-18.9,4.3 -50.42,12.3 -69.61,13.93l0 -0.01zm340.87 -168.43c0.67,-2.44 -0.81,-8.71 16.63,-8.64 3.39,0.02 4.42,0.96 5.3,1.27 1.39,7.97 1.77,6.12 -6.55,8.48 -16.84,4.78 -13.72,0.15 -15.39,-1.12l0 0zm52.32 -105.1l60.35 71.37c-7.06,5.4 -62.5,16.95 -70.19,14.38 -12.86,-4.31 -10.05,-14.19 -28.68,-10.37 -11.51,2.36 -23.78,4.77 -35.48,7.96l9.24 47.2c-0.33,-0.53 -0.67,-1.27 -0.84,-1.68l-13.6 -52.74c-2.76,-10.32 -11.1,-47.62 -10.95,-57.03l90.16 -19.08 0.01 -0zm-134.66 53.23l26.67 122.07c3.05,14.79 -8.09,26.13 -24.47,29.54 -8.17,1.7 -15.82,3.31 -24.26,5.2 -43.07,9.62 -159.81,35.99 -197.12,41.85 -18.29,7.25 -69.26,15.16 -92.3,20.31 -8.69,1.94 -84.23,20.46 -93.72,17.78l-58.32 -276.65 435.3 -92.34 28.21 132.24 0 0zm-195.2 -104.69l-7.13 1.27 -58.57 12.86 -211.83 45.71 36.73 176.12 5.3 22.68 0.53 3.87 19.87 89.42 123.83 -26.4c5.03,-0.19 -1.5,-0.7 4.09,0.17 6.6,1.03 1.86,-0.72 6.04,2.2 -12.99,7.81 -56.11,10.7 -72.84,16.5 -19.65,6.82 -50.04,11.2 -71.74,16.25l6.26 34.8 27.29 -4.47c-4.65,40.81 8.67,42.54 15.4,60.22 14.09,8.34 17.15,16.17 40.2,19.74l33.67 -2.97c6.97,-5.72 11.92,-5.8 19.1,-12.75 2.33,-2.25 6.27,-5.96 8.91,-9.2 3.9,-4.78 1.33,-4.17 7.33,-9.48 9.73,-31.2 9.83,-44.41 -5,-70.33 4.06,-2.33 10.84,-3.81 14.16,-4.9l282.71 -56.98c-3.34,42.57 15.18,50.13 25.08,64.78 24.22,6.76 21.01,15.7 57.03,10.23l7.27 -2.47c6.18,-2.58 12.03,-5.22 16.3,-8.45 5.94,-4.49 7.36,-7.95 13.83,-11.96 1.79,-4.99 5.11,-9.53 5.37,-9.84l2.89 -7.23 5.17 -29.72c17.84,-2.71 38.66,-8.06 57.37,-12.03 15.25,-3.24 14.11,-1.37 21.12,-12.81 7.21,-11.77 8.65,-10.19 4.43,-26.02l-3.6 -20.53 -5.49 -23.09 -10.98 -5.04c5.08,-7.14 4.44,-2.3 0.85,-25.2 -7.09,-45.2 -16.06,-64.38 -46.85,-99.61l-27.84 -30.34 -22.99 -22.86c-8.65,-7.61 -16.06,-8.22 -28.24,-13.42l-44.35 -1.96c-15.09,-0.39 -36.78,4.72 -49.38,9.81 -3.36,9.82 -0.29,14.07 0.94,24.6 7.44,21.71 26.36,120.48 34.99,158.1 2.74,11.93 2.45,11.06 -9.25,13.02l-35.18 -167.84 -7.11 -23.84c1.08,-9.16 -10.43,-57.51 -13.86,-67.32l-171.82 36.71 0 0z"/>
    <path class="fil10" d="M143.18 912.93c-35.01,22.02 -51.24,41.18 -79.6,67.58 -6.7,6.23 -13.86,20.89 -22.28,25.69 -1.01,6.03 -0.78,4.53 -4.47,10.7 -14.92,24.98 -27.66,56.23 -17.19,85.84 -0.83,-11.87 -0.53,-2.48 2.49,-6.4 4.55,15.73 22.47,30.93 34.18,38.52 15.11,9.78 31.86,17.35 49.5,23.17 6.13,-8.9 22.66,-22.38 32.74,-30.37 11.81,-9.37 24.55,-18.6 37.62,-27.75 15.51,-10.86 62.74,-41.8 80.58,-48.15 4.95,-10.47 -0.78,-37.18 -1.19,-52.04 -1.03,-36.96 -0.27,-72.75 3.7,-109.61 1.41,-13.08 7.85,-42.29 4.15,-48.21 -20.25,8.66 -44.65,23.12 -63.02,34.12 -18.2,10.89 -41.76,24.21 -57.21,36.9l0 0z"/>
    <path class="fil10" d="M1689.54 749.44c59.34,5.88 146.32,35.13 187.35,77.51 25.38,26.22 22.06,32.83 34.1,53.63 -0.58,-34.94 -23.35,-105.28 -21.62,-130.42 -1.72,-2.21 -0.48,0.55 -2.92,-4.78 -1.94,-4.23 -1.17,-2.7 -2.36,-6.86l-10.69 -38.68c-6.42,-21.09 -17.43,-30.62 -24.35,-44.15 -10.81,-5.03 -24.95,-19.8 -40.43,-28.82 -13.73,-8 -30.07,-15.45 -45.99,-21.64 -32.3,-12.57 -72.6,-22.49 -109.78,-27.84l-47.73 -5.72 47.4 85.17c17.18,32.76 27.27,72.88 37.02,92.6l0 -0z"/>
    <path class="fil11" d="M944.09 792.16c-0.15,9.41 8.19,46.72 10.95,57.03l13.6 52.74c0.18,0.41 0.52,1.15 0.84,1.68l-9.24 -47.2c11.7,-3.2 23.97,-5.6 35.48,-7.96 18.63,-3.82 15.81,6.05 28.68,10.37 7.69,2.58 63.13,-8.98 70.19,-14.38l-60.35 -71.37 -90.16 19.08 -0.01 0z"/>
    <path class="fil11" d="M982.39 1001.29c47.34,-15.48 70.65,54.09 24.39,70.43 -46.42,16.4 -71.87,-54.91 -24.39,-70.43zm68.69 48.22c17.99,-71.19 -92.69,-102.38 -112.87,-28.42 -19.85,72.76 92.93,107.33 112.87,28.42z"/>
    <path class="fil12" d="M565.76 1091.58c47.13,-15.45 69.34,55.34 24.2,70.55 -47.21,15.91 -72.11,-54.84 -24.2,-70.55zm68.38 48.11c8.17,-34 -16.4,-62.89 -42.29,-69.17 -76.74,-18.61 -102.74,95.03 -27.57,112.95 35.05,8.36 63.2,-16.09 69.85,-43.78l0 0z"/>
    <path class="fil13" d="M1007.1 1042.74c-8.27,16.45 -35.06,4.96 -24.83,-13.64 7.72,-14.05 33.32,-3.24 24.83,13.64zm-24.72 -41.46c-47.48,15.53 -22.03,86.83 24.39,70.43 46.26,-16.34 22.95,-85.91 -24.39,-70.43z"/>
    <path class="fil14" d="M589.02 1138.51c-25.14,8.98 -33.25,-11.97 -22.6,-22.65 10.73,-10.77 31.26,-2.24 22.6,22.65zm-23.26 -46.93c-47.91,15.71 -23,86.46 24.2,70.55 45.14,-15.21 22.93,-86 -24.2,-70.55z"/>
    <path class="fil15" d="M897.19 776.08l35.18 167.84c11.7,-1.97 11.99,-1.09 9.25,-13.02 -8.63,-37.62 -27.54,-136.39 -34.99,-158.1l-8.43 -0.52 -1.02 3.81 0 0z"/>
    <path class="fil16" d="M641.06 1046.61c19.18,-1.63 50.7,-9.63 69.61,-13.93l133.89 -28.7c14.94,-3.04 54.99,-6.82 60.75,-19.25 -41.7,5.43 -173.96,37.23 -233.09,49.78 -17.49,3.71 -27.01,3.21 -31.15,12.1l0 0.01z"/>
    <path class="fil11" d="M589.02 1138.51c8.66,-24.89 -11.87,-33.41 -22.6,-22.65 -10.65,10.68 -2.53,31.63 22.6,22.65z"/>
    <path class="fil12" d="M1007.1 1042.74c8.49,-16.89 -17.1,-27.69 -24.83,-13.64 -10.23,18.6 16.56,30.09 24.83,13.64z"/>
    <path class="fil8" d="M659.71 876.57c1.84,3.01 3.32,5.12 4.9,8.01 12.57,-5.03 14.95,-10.47 9.86,-22.68 -9.28,-1.22 -12.81,1.17 -19.75,3.98 2.23,4.39 1.26,4.61 4.99,10.69l-0 0z"/>
    <path class="fil17" d="M890.08 752.23l7.11 23.84 1.02 -3.81 8.43 0.52c-1.23,-10.53 -4.3,-14.78 -0.94,-24.6 -0.57,0.41 -1.42,0.87 -1.78,1.12l-13.83 2.92 -0 -0z"/>
    <path class="fil8" d="M600.89 939.48l12.42 -6.72c-2.9,-8.07 -14.11,-16.61 -22.23,-22.3l9.8 29.01 0 0z"/>
    <path class="fil15" d="M981.93 878.18c1.67,1.27 -1.46,5.89 15.39,1.12 8.32,-2.36 7.93,-0.51 6.55,-8.48 -0.88,-0.31 -1.91,-1.26 -5.3,-1.27 -17.43,-0.08 -15.96,6.2 -16.63,8.64l-0 0z"/>
    <path class="fil18" d="M536.9 929.78c2.11,-0.44 3.84,-1.01 5.19,-1.78 2.24,-1.37 3.9,-3.39 4.91,-6.17 0.88,-2.13 1.14,-4.84 1.03,-7.95 -0.09,-1.86 -0.35,-3.55 -0.71,-5.08 -1.39,-5.91 -3.6,-10.26 -6.74,-13.02 -3.08,-2.78 -7.23,-3.66 -12.37,-2.58l-11.41 2.37 8.64 36.6 11.48 -2.39 0 0zm-27.82 -38.4l19.12 -3.98c6.53,-1.36 12.09,-0.07 16.81,3.82 4.16,3.53 7.01,8.58 8.55,15.09 1.21,5.12 1.35,9.82 0.41,14.34 -1.59,7.92 -6.48,12.7 -14.59,14.39l-19.06 3.96 -11.25 -47.63 0 0z"/>
    <polygon id="_1" class="fil18" points="556.98,881.43 591.47,874.26 592.85,880.11 564.62,885.97 568.03,900.38 594.14,894.96 595.45,900.47 569.33,905.9 573.15,922.11 601.91,916.14 603.24,921.78 568.22,929.06 "/>
    <polygon id="_2" class="fil18" points="600.38,872.41 606.77,871.08 616.69,913.06 640.7,908.08 642.03,913.73 611.62,920.04 "/>
    <polygon id="_3" class="fil18" points="638.51,864.49 644.98,863.15 656.22,910.77 649.76,912.12 "/>
    <polygon id="_4" class="fil18" points="659.14,860.2 682.31,897.97 686.12,854.6 693.31,853.1 687.34,904.31 680.55,905.72 652.02,861.68 "/>
    <polygon id="_5" class="fil18" points="699.97,851.72 734.47,844.55 735.85,850.4 707.62,856.26 711.02,870.68 737.14,865.25 738.44,870.77 712.32,876.19 716.15,892.4 744.91,886.43 746.24,892.07 711.22,899.35 "/>
    <path id="_6" class="fil18" d="M770.55 859.92c2.97,-0.62 5.2,-1.71 6.7,-3.28 1.43,-1.55 1.84,-3.94 1.08,-7.12 -0.8,-3.39 -2.6,-5.45 -5.33,-6.14 -1.48,-0.39 -3.27,-0.36 -5.51,0.1l-15.63 3.25 3.84 16.27 14.84 -3.08 0 -0zm-26.38 -17.38l21.9 -4.55c3.63,-0.75 6.72,-0.84 9.28,-0.25 4.95,1.06 8.03,4.39 9.31,9.84 0.67,2.86 0.63,5.31 -0.05,7.4 -0.76,2.04 -2.07,3.84 -3.93,5.35 2.03,0.41 3.66,1.12 4.86,2.13 1.29,1.06 2.22,2.95 3.01,5.72l1.77 6.32c0.42,1.79 0.95,3.15 1.35,3.97 0.75,1.45 1.7,2.22 2.8,2.49l0.25 1.06 -7.92 1.64c-0.29,-0.36 -0.55,-0.86 -0.84,-1.5 -0.29,-0.64 -0.72,-1.87 -1.22,-3.72l-2.26 -7.82c-0.87,-3.09 -2.54,-4.91 -4.91,-5.53 -1.39,-0.34 -3.39,-0.27 -6.02,0.28l-14.58 3.03 4.83 20.46 -6.4 1.33 -11.24 -47.63 0.01 -0z"/>
    <polygon id="_7" class="fil18" points="786.22,833.8 793.68,832.25 812.66,852.29 820.85,826.61 828.36,825.05 817.2,857.19 821.74,876.39 815.34,877.72 810.81,858.52 "/>
   </g>
  </g>
  <polygon class="fil19" points="-0,0 1926.8,0 1926.8,1926.8 -0,1926.8 "/>
 </g>
</svg>
