<?xml version="1.0" encoding="UTF-8"?>
<!DOCTYPE svg PUBLIC "-//W3C//DTD SVG 1.1//EN" "http://www.w3.org/Graphics/SVG/1.1/DTD/svg11.dtd">
<!-- Creator: CorelDRAW -->
<svg xmlns="http://www.w3.org/2000/svg" xml:space="preserve" width="5.70488in" height="4.6675in" version="1.1" style="shape-rendering:geometricPrecision; text-rendering:geometricPrecision; image-rendering:optimizeQuality; fill-rule:evenodd; clip-rule:evenodd"
viewBox="0 0 568.57 465.18"
 xmlns:xlink="http://www.w3.org/1999/xlink"
 xmlns:xodm="http://www.corel.com/coreldraw/odm/2003">
 <defs>
  <style type="text/css">
   <![CDATA[
    .str0 {stroke:#AEE3C7;stroke-width:1.38;stroke-miterlimit:10}
    .fil5 {fill:none}
    .fil4 {fill:none;fill-rule:nonzero}
    .fil3 {fill:white;fill-rule:nonzero}
    .fil2 {fill:#2CBD70;fill-rule:nonzero}
    .fil1 {fill:#73D4A0;fill-rule:nonzero}
    .fil0 {fill:#AEE3C7;fill-rule:nonzero}
   ]]>
  </style>
   <clipPath id="id0">
    <path d="M-0 0l568.57 0 0 465.18 -568.57 0 0 -465.18z"/>
   </clipPath>
 </defs>
 <g id="Layer_x0020_1">
  <metadata id="CorelCorpID_0Corel-Layer"/>
  <g>
  </g>
  <g style="clip-path:url(#id0)">
   <g>
    <g id="_105553465835104">
     <path class="fil0" d="M480.98 301.58c7.09,-16.52 11.05,-35.53 11.05,-57.27 0,-121.03 -40.46,-186.19 -98.23,-206.22 6.01,-1.63 12.41,-2.96 19.26,-3.89 4.54,-0.62 9.37,-0.94 14.35,-0.94 28.37,0 61.66,10.53 74.32,36.86 18.89,39.29 -6.17,84.44 22.17,121.72 10.59,13.93 79.19,72.59 9.17,95.69 -17.14,5.65 -34.58,9.95 -52.08,14.06zm-392.16 -74.09c-13.69,-6.19 -26.37,-13.7 -33.88,-21.49 -28.19,-29.27 -26.49,-93.17 16.1,-113.59 16.37,-7.85 34.15,-10.65 52.54,-10.65 26.3,0 53.87,5.74 80.39,10.67 -37.37,29.6 -73.47,69.19 -104.78,117.16 -4,6.12 -7.44,12.09 -10.37,17.9z"/>
     <path class="fil1" d="M278.19 398.56c-97.25,0 -248.36,-54.05 -189.38,-171.07 16.08,7.27 33.54,12.71 45.64,14.64 24.05,3.82 51.12,4.46 72.61,15.41 39.91,20.34 39.07,78.34 82.82,100.01 7.97,3.95 15.86,5.6 23.65,5.6 25.43,0 49.77,-17.61 72.39,-30.4 22.13,-12.52 46.1,-19.57 70.75,-25.46 8.1,-1.94 16.21,-3.8 24.3,-5.7 -30.88,71.95 -121.15,96.98 -202.78,96.98zm-25.95 -299.9c-5.64,0 -11.62,-0.39 -17.98,-1.22 -9.85,-1.29 -19.99,-3.09 -30.29,-5.01 49.83,-39.46 101.9,-61.13 147.85,-61.13 14.71,0 28.79,2.22 41.97,6.79 -58.31,15.82 -80.95,60.57 -141.55,60.57z"/>
     <path class="fil2" d="M313.54 363.14c-7.79,0 -15.68,-1.65 -23.65,-5.6 -43.76,-21.67 -42.91,-79.67 -82.82,-100.01 -21.48,-10.95 -48.55,-11.58 -72.61,-15.41 -12.1,-1.92 -29.57,-7.37 -45.64,-14.64 2.93,-5.81 6.37,-11.78 10.37,-17.9 31.31,-47.97 67.41,-87.56 104.78,-117.16 10.3,1.92 20.44,3.71 30.29,5.01 6.36,0.84 12.34,1.22 17.98,1.22 60.61,0 83.24,-44.75 141.55,-60.57 57.78,20.03 98.23,85.19 98.23,206.22 0,21.74 -3.96,40.74 -11.05,57.27 -8.1,1.9 -16.21,3.76 -24.3,5.7 -24.65,5.89 -48.62,12.94 -70.75,25.46 -22.61,12.79 -46.96,30.4 -72.39,30.4z"/>
     <path class="fil3" d="M75.55 366.48c-0.49,0 -0.99,-0.19 -1.36,-0.57 -0.76,-0.75 -0.76,-1.98 0,-2.73l76.62 -76.63c0.75,-0.75 1.98,-0.75 2.73,0 0.75,0.75 0.75,1.98 0,2.73l-76.62 76.63c-0.38,0.38 -0.87,0.57 -1.37,0.57z"/>
     <path class="fil3" d="M426.57 133.77c-0.49,0 -0.97,-0.18 -1.35,-0.55 -0.76,-0.74 -0.78,-1.97 -0.04,-2.73 3.25,-3.33 79.58,-81.75 86.24,-86.19 0.88,-0.59 2.09,-0.35 2.68,0.54 0.59,0.89 0.35,2.09 -0.54,2.68 -5.25,3.5 -63.58,63.03 -85.62,85.67 -0.38,0.39 -0.88,0.58 -1.38,0.58z"/>
     <path class="fil2" d="M209.85 62.35c0,8.4 -8.94,15.22 -19.97,15.22 -11.03,0 -19.97,-6.81 -19.97,-15.22 0,-8.4 8.94,-15.22 19.97,-15.22 11.03,0 19.97,6.81 19.97,15.22z"/>
     <path class="fil2" d="M234.58 32.87c0,4.2 -3.83,7.61 -8.56,7.61 -4.73,0 -8.56,-3.4 -8.56,-7.61 0,-4.2 3.83,-7.61 8.56,-7.61 4.73,0 8.56,3.41 8.56,7.61z"/>
     <path class="fil2" d="M390.55 423.27c0,9.19 -7.45,16.64 -16.64,16.64 -9.19,0 -16.64,-7.45 -16.64,-16.64 0,-9.19 7.45,-16.64 16.64,-16.64 9.19,0 16.64,7.45 16.64,16.64z"/>
     <path class="fil2" d="M510.38 339.11c0,7.09 -6.39,12.84 -14.27,12.84 -7.88,0 -14.26,-5.75 -14.26,-12.84 0,-7.09 6.39,-12.84 14.26,-12.84 7.88,0 14.27,5.75 14.27,12.84z"/>
     <path class="fil2" d="M475.19 357.18c0,2.62 -2.77,4.76 -6.18,4.76 -3.41,0 -6.18,-2.13 -6.18,-4.76 0,-2.63 2.77,-4.76 6.18,-4.76 3.41,0 6.18,2.13 6.18,4.76z"/>
     <path class="fil4 str0" d="M24.57 62.04c0,5.57 -4.51,10.08 -10.08,10.08 -5.57,0 -10.08,-4.51 -10.08,-10.08 0,-5.57 4.51,-10.08 10.08,-10.08 5.57,0 10.08,4.51 10.08,10.08z"/>
    </g>
   </g>
  </g>
  <polygon class="fil5" points="-0,0 568.57,0 568.57,465.18 -0,465.18 "/>
 </g>
</svg>
