<?xml version="1.0" encoding="UTF-8"?>
<!DOCTYPE svg PUBLIC "-//W3C//DTD SVG 1.1//EN" "http://www.w3.org/Graphics/SVG/1.1/DTD/svg11.dtd">
<!-- Creator: CorelDRAW -->
<svg xmlns="http://www.w3.org/2000/svg" xml:space="preserve" width="4.6675in" height="4.6675in" version="1.1" style="shape-rendering:geometricPrecision; text-rendering:geometricPrecision; image-rendering:optimizeQuality; fill-rule:evenodd; clip-rule:evenodd"
viewBox="0 0 280.43 280.43"
 xmlns:xlink="http://www.w3.org/1999/xlink"
 xmlns:xodm="http://www.corel.com/coreldraw/odm/2003">
 <defs>
  <style type="text/css">
   <![CDATA[
    .str0 {stroke:white;stroke-width:2.53;stroke-miterlimit:10}
    .fil2 {fill:none}
    .fil1 {fill:#2CBD70;fill-rule:nonzero}
    .fil0 {fill:#AEE3C7;fill-rule:nonzero}
   ]]>
  </style>
   <clipPath id="id0">
    <path d="M-0 0l280.43 0 0 280.43 -280.43 0 0 -280.43z"/>
   </clipPath>
 </defs>
 <g id="Layer_x0020_1">
  <metadata id="CorelCorpID_0Corel-Layer"/>
  <g>
  </g>
  <g style="clip-path:url(#id0)">
   <g>
    <g id="_105553464058880">
     <path class="fil0" d="M89.13 74.21c-12.58,21.56 -53.16,28.12 -67.29,39.18 -12.94,10.13 -19.82,33.54 -19.12,52.2 0.7,18.66 14.87,37.22 33.48,38.78 8.1,0.68 16.2,-1.72 24.31,-1.16 25.94,1.77 40.4,30.87 63.21,43.35 26.29,14.39 59.81,4.21 84.14,-13.29 15.47,-11.13 29.39,-25.9 34.32,-44.31 4.93,-18.41 -1.46,-40.71 -18.24,-49.75 -15.12,-8.15 -38.14,-6.95 -44.03,-23.08 -4.12,-11.28 3.91,-23.07 5.72,-34.94 2.83,-18.6 -11.32,-37.11 -29.26,-42.8 -17.93,-5.68 -34.36,-6.67 -47.58,6.73 -6.16,6.25 -15.24,21.51 -19.66,29.1z"/>
     <path class="fil1" d="M95.31 101.82c2.13,-1.03 5.52,0.09 6.54,2.15l-6.54 -2.15z"/>
     <path class="fil1" d="M192.09 210.37c2.26,-1.13 5.66,-0.05 6.73,2.14 1.05,2.15 -0.02,5.53 -2.09,6.56l-4.64 -8.71z"/>
     <path class="fil1" d="M104.17 106.58c-1.12,-2.06 0.05,-5.6 2.21,-6.7 2.01,-1.02 5.42,0.1 6.54,2.15 1.12,2.06 -0.05,5.6 -2.21,6.7l-6.54 -2.15z"/>
     <path class="fil1" d="M139.17 108.26c0.64,-0.92 1.34,-2.17 2.27,-2.45 1.13,-0.35 2.54,-0.63 3.83,0 1.14,0.56 1.81,1.61 2.72,2.41 -0.22,1.28 0.58,2.66 -0.24,3.86 -0.64,0.93 -1.46,1.74 -2.17,2.57l-6.41 -6.4z"/>
     <path class="fil1" d="M196.16 181.47c-1.21,-2.61 -0.42,-4.47 2.5,-5.81 2.52,-1.16 4.39,-0.38 5.67,2.36 1.26,2.69 0.53,4.53 -2.34,5.87 -2.64,1.23 -4.5,0.46 -5.84,-2.42z"/>
     <path class="fil1" d="M202.37 166.92c1.28,2.72 0.56,4.56 -2.28,5.89 -2.67,1.25 -4.52,0.5 -5.86,-2.37 -1.19,-2.55 -0.44,-4.47 2.22,-5.73 2.74,-1.29 4.61,-0.59 5.92,2.2z"/>
     <path class="fil1" d="M115.81 104.7c-1.26,-2.66 -0.61,-4.62 1.93,-5.83 2.85,-1.36 4.76,-0.76 6.03,1.9 1.35,2.84 0.73,4.71 -1.99,6l-5.97 -2.07z"/>
     <path class="fil1" d="M205.77 189.13c1.31,2.76 0.64,4.67 -2.09,5.96 -2.73,1.29 -4.62,0.59 -5.93,-2.17 -1.26,-2.67 -0.59,-4.55 2.03,-5.8 2.83,-1.34 4.69,-0.72 5.99,2.01z"/>
     <path class="fil1" d="M194.85 154.13c0.97,-1.25 2.34,-0.6 3.32,-0.33 1.09,0.31 1.96,1.31 2.58,2.54 0.63,1.24 0.48,2.45 0.13,3.41 -0.38,1.07 -1.28,2 -2.59,2.56 -1.24,0.52 -2.43,0.42 -3.4,0.08 -0.99,-0.34 -1.83,-1.24 -2.42,-2.4 -0.64,-1.23 -0.55,-2.44 -0.21,-3.41 0.37,-1.06 1,-2.41 2.6,-2.46z"/>
     <path class="fil1" d="M202.01 198.16c0.97,-1.25 2.34,-0.6 3.32,-0.32 1.08,0.31 1.97,1.3 2.58,2.54 0.62,1.24 0.48,2.44 0.13,3.41 -0.39,1.07 -1.28,2 -2.59,2.56 -1.23,0.52 -2.43,0.42 -3.4,0.08 -0.99,-0.34 -1.83,-1.25 -2.42,-2.4 -0.64,-1.23 -0.55,-2.44 -0.21,-3.41 0.37,-1.06 1.01,-2.41 2.61,-2.46z"/>
     <path class="fil1" d="M69.5 97.35c0.37,-1.06 1,-2.41 2.6,-2.46 0.97,-1.25 2.34,-0.6 3.32,-0.32 1.08,0.31 1.97,1.3 2.58,2.54 0.62,1.24 0.48,2.44 0.13,3.41l-8.63 -3.17z"/>
     <path class="fil1" d="M126.74 102.53c-0.89,-1.25 -0.13,-2.28 0.11,-3.43 0.27,-1.28 1.15,-1.76 2.17,-2.34 1.23,-0.71 2.26,-0.48 3.42,-0 1.7,0.69 1.72,0.64 2.58,2.49 0.96,0.96 0.22,2.06 -0.07,3.22 -0.33,1.34 -1.27,1.85 -2.32,2.52l-5.9 -2.45z"/>
     <path class="fil1" d="M198.68 145.24c1,2.17 -0.06,4.88 -2.29,5.89 -2.13,0.97 -4.85,-0.14 -5.86,-2.37 -0.9,-2.02 0.17,-4.76 2.24,-5.72 2.18,-1.02 4.9,-0 5.91,2.21z"/>
     <path class="fil1" d="M88.87 94.94c1.06,2.19 0.13,4.95 -2.03,5.98 -2.07,0.99 -4.86,0.09 -5.85,-1.89 -1.09,-2.19 -0.22,-5.01 1.87,-6.04 2.21,-1.09 4.97,-0.19 6.01,1.95z"/>
     <path class="fil1" d="M158.55 106.35c1.02,2.18 0,4.9 -2.22,5.91 -2.17,0.99 -4.87,-0.06 -5.89,-2.3 -0.92,-2.03 0.11,-4.78 2.16,-5.75 2.17,-1.03 4.93,-0.04 5.94,2.14z"/>
     <path class="fil1" d="M97.86 98.98c-2.18,1.02 -4.92,0.02 -5.93,-2.17 -1,-2.16 0.04,-4.89 2.26,-5.9 2.07,-0.94 4.77,0.05 5.77,2.11 1.05,2.18 0.09,4.93 -2.09,5.96z"/>
     <path class="fil1" d="M145.54 97.26c1,2.16 -0.04,4.89 -2.26,5.9 -2.17,0.99 -4.86,-0.08 -5.87,-2.34 -0.91,-2.02 0.14,-4.77 2.19,-5.74 2.17,-1.02 4.92,-0.02 5.93,2.17z"/>
     <path class="fil1" d="M108.69 97.69c-2.17,1.02 -4.91,0.02 -5.93,-2.17 -1,-2.16 0.04,-4.89 2.25,-5.9 2.07,-0.94 4.78,0.05 5.77,2.11 1.05,2.18 0.08,4.93 -2.09,5.96z"/>
     <path class="fil1" d="M209.5 210.91c1.01,2.18 -0.01,4.9 -2.22,5.91 -2.17,0.99 -4.87,-0.07 -5.88,-2.3 -0.92,-2.03 0.11,-4.78 2.16,-5.75 2.17,-1.03 4.93,-0.04 5.94,2.14z"/>
     <path class="fil1" d="M203.2 222.63c0.35,-1.35 1.44,-1.96 2.28,-2.88 1.17,-0.06 2.27,-0.59 3.44,-0.02 0.77,0.37 2.23,1.57 2.54,2.26 0.92,2.07 -0.01,4.74 -2.02,5.8l-6.24 -5.16z"/>
     <path class="fil1" d="M212.73 182.1c-1.82,0.79 -5.17,-0.49 -5.89,-2.26 -0.75,-1.83 0.59,-5.18 2.34,-5.87 1.76,-0.69 4.95,0.54 5.73,2.21 0.84,1.78 -0.4,5.15 -2.18,5.93z"/>
     <path class="fil1" d="M213.35 164.79c0.91,1.7 -0.24,5.09 -2.02,5.99 -1.62,0.82 -4.88,-0.22 -5.85,-1.88 -0.95,-1.61 0.11,-5.08 1.85,-6.04 1.65,-0.92 5.08,0.19 6.01,1.94z"/>
     <path class="fil1" d="M121.85 89.77c0.88,1.72 -0.3,5.11 -2.07,5.96 -1.67,0.8 -4.9,-0.27 -5.83,-1.93 -0.93,-1.65 0.16,-5.08 1.91,-6.02 1.68,-0.9 5.09,0.23 5.99,1.99z"/>
     <path class="fil1" d="M167.42 110.31c-1.82,0.79 -5.17,-0.49 -5.89,-2.26 -0.75,-1.83 0.58,-5.18 2.34,-5.87 1.76,-0.69 4.95,0.54 5.73,2.21 0.84,1.78 -0.4,5.15 -2.18,5.93z"/>
     <path class="fil1" d="M210.88 185.11c1.09,-0.03 2.33,-0.37 3.32,-0.02 1,0.35 2.09,1.21 2.54,2.14 0.46,0.93 0.48,2.32 0.13,3.32 -0.35,0.99 -1.24,2.02 -2.18,2.51 -0.85,0.45 -2.17,0.49 -3.09,0.16 -1.01,-0.35 -2.12,-1.16 -2.6,-2.08 -0.48,-0.91 -0.54,-2.31 -0.21,-3.31 0.32,-1 1.34,-1.79 2.09,-2.72z"/>
     <path class="fil1" d="M209.57 160.24c-1.16,0.01 -2.4,0.31 -3.39,-0.07 -0.99,-0.37 -2.05,-1.27 -2.48,-2.21 -0.43,-0.94 -0.42,-2.34 -0.04,-3.32 0.38,-0.98 1.3,-1.99 2.24,-2.45 0.86,-0.42 2.18,-0.42 3.09,-0.07 1,0.38 2.09,1.22 2.54,2.15 0.45,0.93 0.47,2.32 0.13,3.32 -0.34,1 -1.36,1.77 -2.1,2.66z"/>
     <path class="fil1" d="M156.65 95.27c0,1.15 0.3,2.39 -0.08,3.38 -0.38,0.99 -1.28,2.04 -2.23,2.46 -0.95,0.42 -2.34,0.4 -3.32,0.01 -0.98,-0.38 -1.98,-1.31 -2.44,-2.26 -0.42,-0.86 -0.4,-2.18 -0.05,-3.1 0.39,-1 1.24,-2.13 2.17,-2.51 0.94,-0.38 2.29,-0.73 3.32,-0.16 0.97,0.53 1.75,1.42 2.62,2.17z"/>
     <path class="fil1" d="M130.41 93.4c-0.85,0.81 -1.8,0.43 -2.87,0.19 -1.36,-0.31 -1.69,-1.31 -2.27,-2.29 -0.61,-1.03 -0.37,-1.91 -0.13,-2.98 0.31,-1.41 1.38,-1.65 2.33,-2.24 1.03,-0.64 1.93,-0.39 2.99,-0.07 1.17,0.35 1.61,1.16 2.11,2.12 0.52,1.01 0.56,1.87 0.22,2.98 -0.4,1.27 -1.15,1.88 -2.37,2.28z"/>
     <path class="fil1" d="M180.04 103.5c0.82,0.85 0.44,1.8 0.19,2.87 -0.31,1.36 -1.31,1.7 -2.28,2.28 -1.03,0.61 -1.91,0.37 -2.99,0.13 -1.41,-0.31 -1.65,-1.38 -2.24,-2.33 -0.64,-1.03 -0.39,-1.93 -0.07,-2.98 0.36,-1.18 1.16,-1.61 2.12,-2.11 1.01,-0.52 1.87,-0.57 2.99,-0.22 1.26,0.39 1.88,1.15 2.28,2.37z"/>
     <path class="fil1" d="M205.22 137.66c-0.85,0.81 -1.8,0.43 -2.87,0.19 -1.36,-0.31 -1.69,-1.31 -2.27,-2.29 -0.62,-1.03 -0.37,-1.91 -0.13,-2.98 0.31,-1.41 1.38,-1.65 2.33,-2.24 1.03,-0.64 1.93,-0.38 2.99,-0.07 1.17,0.35 1.61,1.16 2.11,2.12 0.52,1.01 0.56,1.87 0.21,2.98 -0.39,1.27 -1.15,1.88 -2.36,2.28z"/>
     <path class="fil1" d="M204 141.59c0.93,-0.7 1.85,-0.72 2.97,-0.36 1.21,0.4 1.84,1.09 2.35,2.2 0.47,1.02 0.58,1.86 0.23,2.99 -0.39,1.26 -1.2,1.77 -2.24,2.31 -1.03,0.53 -1.89,0.56 -2.99,0.17 -1.11,-0.39 -1.71,-1 -2.18,-2.05 -0.48,-1.09 -0.76,-2.01 -0.23,-3.21 0.46,-1.05 0.95,-1.85 2.09,-2.06z"/>
     <path class="fil1" d="M213.1 196.69c0.94,-0.7 1.85,-0.72 2.97,-0.36 1.21,0.4 1.85,1.09 2.36,2.2 0.46,1.02 0.58,1.86 0.23,2.99 -0.39,1.26 -1.2,1.77 -2.24,2.31 -1.03,0.53 -1.89,0.56 -2.99,0.18 -1.11,-0.39 -1.72,-1 -2.18,-2.05 -0.49,-1.09 -0.76,-2.01 -0.23,-3.21 0.46,-1.05 0.95,-1.85 2.09,-2.06z"/>
     <path class="fil1" d="M48.46 87.96c2.13,-1.03 4.3,-0.27 5.3,1.86l-5.3 -1.86z"/>
     <path class="fil1" d="M218.21 214.39c-2.13,0.99 -4.28,0.19 -5.26,-1.97 -0.98,-2.14 -0.16,-4.23 2.05,-5.23 2.02,-0.92 4.12,-0.13 5.1,1.91 1.02,2.13 0.25,4.29 -1.89,5.29z"/>
     <path class="fil1" d="M165.62 99.17c-2.15,1.05 -4.2,0.26 -5.36,-1.78 -0.94,-1.67 -0.09,-4.43 1.68,-5.23 2.22,-1 4.38,-0.4 5.4,1.66 1.07,2.19 0.38,4.33 -1.73,5.35z"/>
     <path class="fil1" d="M108.89 80.78c0.99,2.15 0.18,4.24 -2.02,5.24 -2.11,0.96 -4.22,0.12 -5.22,-2.1 -0.9,-2 -0.08,-4.12 1.96,-5.08 2.13,-1 4.28,-0.21 5.28,1.94z"/>
     <path class="fil1" d="M95.85 87.95c-2.14,0.99 -4.24,0.18 -5.24,-2.02 -0.96,-2.11 -0.11,-4.21 2.11,-5.22 1.99,-0.9 4.11,-0.08 5.07,1.96 1.01,2.13 0.21,4.28 -1.94,5.27z"/>
     <path class="fil1" d="M203.93 126.32c-2.13,1 -4.28,0.21 -5.28,-1.94 -0.99,-2.15 -0.18,-4.24 2.02,-5.25 2.03,-0.93 4.13,-0.16 5.11,1.88 1.03,2.13 0.28,4.3 -1.85,5.3z"/>
     <path class="fil1" d="M86.51 84.18c1.01,2.13 0.21,4.28 -1.93,5.27 -2.15,0.99 -4.24,0.18 -5.25,-2.02 -0.93,-2.03 -0.15,-4.13 1.88,-5.11 2.13,-1.03 4.3,-0.27 5.3,1.86z"/>
     <path class="fil1" d="M143.61 86.24c0.97,2.13 0.14,4.22 -2.07,5.22 -2.09,0.94 -4.14,0.04 -5.22,-2.15 -0.87,-1.74 0.23,-4.42 2.02,-5.11 2.19,-0.84 4.27,-0.15 5.27,2.03z"/>
     <path class="fil1" d="M73.64 91.34c-2.13,1.04 -4.3,0.29 -5.31,-1.83 -0.97,-2.04 -0.26,-4.21 1.69,-5.18 2.18,-1.08 4.36,-0.41 5.37,1.67 1.07,2.18 0.36,4.32 -1.75,5.34z"/>
     <path class="fil1" d="M57.67 91.18c-0.99,-2.15 -0.18,-4.24 2.02,-5.24 2.03,-0.93 4.13,-0.15 5.11,1.88 1.03,2.13 0.27,4.3 -1.86,5.3l-5.28 -1.94z"/>
     <path class="fil1" d="M216.64 167.13c-0.88,-1.97 0.23,-4.48 2.18,-5.34 1.62,-0.71 4.1,0.47 5.07,2.1 0.65,1.09 0.25,2.18 -0.02,2.94 -0.32,0.86 -0.91,1.87 -2.09,2.38 -1.11,0.48 -2.01,-0.29 -2.99,0.02 -0.62,-0.88 -2.21,-0.81 -2.15,-2.1z"/>
     <path class="fil1" d="M221.57 220.32c0.9,1.86 0.02,4.45 -1.81,5.32 -1.77,0.84 -4.24,-0.06 -5.23,-1.64 -0.68,-1.11 -0.49,-2.3 -0.17,-3.15 0.3,-0.78 0.67,-1.85 1.83,-2.3 1.9,-0.73 4.52,0 5.37,1.77z"/>
     <path class="fil1" d="M154.58 84.87c-0.02,1.08 0.23,2.24 -0.13,3.16 -0.33,0.84 -1.22,1.67 -2.05,2.04 -0.85,0.37 -2.13,0.54 -2.87,0.14 -0.85,-0.46 -2.06,-0.97 -2.29,-2.15 -0.19,-0.96 -0.46,-2.16 -0.05,-2.9 0.43,-0.78 0.96,-1.74 1.94,-2.21 1.07,-0.51 2.21,-0.25 3.17,-0.05 0.83,0.18 1.48,1.22 2.29,1.96z"/>
     <path class="fil1" d="M225.66 174.4c0.03,1.07 0.4,2.23 -0.01,2.99 -0.46,0.87 -0.99,2.04 -2.13,2.31 -0.95,0.22 -2.16,0.49 -2.89,0.08 -0.85,-0.47 -2.05,-0.99 -2.28,-2.16 -0.19,-0.96 -0.44,-2.14 -0.03,-2.9 0.42,-0.79 0.97,-1.73 1.95,-2.19 1.07,-0.49 2.21,-0.26 3.17,-0.04 0.83,0.19 1.48,1.23 2.22,1.91z"/>
     <path class="fil1" d="M222.47 152.55c-0.02,1.08 0.23,2.24 -0.13,3.16 -0.33,0.84 -1.21,1.67 -2.06,2.04 -0.84,0.37 -2.13,0.54 -2.87,0.14 -0.86,-0.46 -2.06,-0.97 -2.3,-2.15 -0.19,-0.95 -0.46,-2.16 -0.05,-2.9 0.43,-0.78 0.97,-1.74 1.95,-2.2 1.07,-0.51 2.21,-0.25 3.16,-0.05 0.83,0.18 1.48,1.22 2.3,1.96z"/>
     <path class="fil1" d="M117.69 84.38c-1.13,0 -2.4,0.36 -3.19,-0.1 -0.76,-0.44 -1.93,-0.89 -2.14,-1.98 -0.19,-0.96 -0.44,-2.06 -0.15,-2.92 0.3,-0.86 1.16,-1.59 1.91,-2.2 0.93,-0.76 2.18,-0.37 3.13,-0.18 0.83,0.16 1.71,1.11 2.12,1.94 0.41,0.83 0.57,2.03 0.29,2.89 -0.32,0.94 -1.26,1.67 -1.97,2.56z"/>
     <path class="fil1" d="M171.33 95.35c-0.71,-1.58 0.42,-4.6 1.98,-5.26 1.6,-0.68 4.66,0.49 5.22,2.07 0.6,1.72 -0.43,4.28 -1.91,5.09 -1.4,0.77 -4.71,-0.4 -5.29,-1.9z"/>
     <path class="fil1" d="M220.3 141.4c0.78,1.2 -0.22,4.57 -1.84,5.31 -1.44,0.66 -4.38,-0.29 -5.18,-1.71 -0.82,-1.46 0.15,-4.54 1.68,-5.37 1.47,-0.79 4.55,0.22 5.34,1.76z"/>
     <path class="fil1" d="M220.32 188.8c-0.69,-1.58 0.48,-4.61 2.03,-5.24 1.61,-0.66 4.61,0.54 5.22,2.1 0.59,1.51 -0.54,4.38 -1.97,5.09 -1.55,0.77 -4.81,-0.55 -5.28,-1.95z"/>
     <path class="fil1" d="M189.2 106.57c-1.34,0.78 -4.64,-0.36 -5.3,-1.88 -0.6,-1.38 0.13,-4.16 1.76,-5.15 1.43,-0.87 4.54,0.17 5.34,1.71 0.79,1.49 -0.25,4.56 -1.81,5.32z"/>
     <path class="fil1" d="M204.07 110.58c-0.04,0.96 0.29,1.99 -0.17,3.09 -0.4,0.94 -1.34,1.26 -1.79,2.07 -1.13,-0.14 -2.36,0.45 -3.4,-0.37 -0.64,-0.51 -1.67,-1.07 -1.73,-1.69 -0.09,-0.93 -0.38,-1.91 0.07,-2.97 0.4,-0.96 1.26,-1.34 1.8,-2.07 0.23,-0.31 1.16,-0.19 1.75,-0.26 0.72,-0.09 1.58,0.35 2.27,0.76 0.49,0.29 0.78,0.91 1.21,1.44z"/>
     <path class="fil1" d="M128.69 82.31c-1.21,-0.16 -2.44,0.46 -3.48,-0.37 -0.65,-0.51 -1.63,-1.04 -1.75,-1.69 -0.2,-1.08 -0.48,-2.36 0.32,-3.39 0.5,-0.65 1.07,-1.63 1.71,-1.71 1,-0.13 2.09,-0.36 3.2,0.2 0.83,0.42 1,1.4 1.87,1.67 -0.08,1.06 0.27,2.09 -0.16,3.2 -0.38,0.98 -1.46,1.17 -1.7,2.08z"/>
     <path class="fil1" d="M216.55 135.66c-0.78,0.02 -1.61,0.07 -2.44,0.04 -1.32,-0.05 -2.05,-1.12 -2.78,-1.96 -0.4,-0.45 -0.24,-1.46 -0.19,-2.2 0.09,-1.26 1,-2.14 1.84,-2.88 0.47,-0.41 1.45,-0.35 2.19,-0.33 1.36,0.05 2.32,1.03 3.07,1.96 0.43,0.53 0.24,1.6 0.22,2.43 -0.03,1.32 -1.27,1.9 -1.91,2.94z"/>
     <path class="fil1" d="M224.8 194.93c0.99,-1 2.21,-0.34 3.2,0.26 0.59,0.36 0.78,1.35 1.21,2.02 0.48,0.76 0.44,1.45 0.13,2.28 -0.3,0.83 -0.7,1.41 -1.56,1.67 -0.39,0.12 -0.79,0.28 -1.11,0.52 -0.7,0.53 -1.36,0.25 -2.05,0 -0.69,-0.25 -1.37,-0.45 -1.58,-1.31 -0.09,-0.39 -0.3,-0.77 -0.52,-1.11 -0.5,-0.75 -0.44,-1.45 -0.14,-2.28 0.3,-0.83 0.7,-1.42 1.56,-1.67 0.24,-0.07 0.44,-0.2 0.85,-0.39z"/>
     <path class="fil1" d="M160.49 81.43c2.21,-1.04 3.48,-0.55 4.55,1.74 1.04,2.21 0.56,3.48 -1.74,4.56 -2.21,1.04 -3.48,0.55 -4.56,-1.74 -1.04,-2.21 -0.55,-3.48 1.75,-4.56z"/>
     <path class="fil1" d="M216.21 120.02c0.96,2.07 0.4,3.6 -1.7,4.58 -2.07,0.97 -3.6,0.4 -4.57,-1.69 -0.97,-2.07 -0.4,-3.6 1.69,-4.58 2.07,-0.97 3.6,-0.4 4.58,1.69z"/>
     <path class="fil1" d="M230.49 208.05c1.09,1.61 0.06,3.86 -1.62,4.65 -1.73,0.82 -3.89,0 -4.68,-1.68 -0.82,-1.73 0,-3.88 1.68,-4.68 1.73,-0.82 4.1,-0.1 4.62,1.71z"/>
     <path class="fil1" d="M139.74 80.32c-2.1,0.99 -3.61,0.45 -4.6,-1.64 -0.99,-2.09 -0.45,-3.61 1.64,-4.59 2.09,-0.99 3.6,-0.45 4.59,1.64 0.99,2.1 0.45,3.61 -1.64,4.59z"/>
     <path class="fil1" d="M188.64 90.45c1,2.09 0.46,3.62 -1.6,4.61 -2.09,1 -3.62,0.46 -4.61,-1.6 -0.99,-2.09 -0.46,-3.62 1.6,-4.61 2.09,-1 3.62,-0.46 4.61,1.6z"/>
     <path class="fil1" d="M197.3 97.84c1.75,-0.88 3.72,0 4.5,1.96 0.73,1.81 -0.03,3.73 -1.99,4.52 -1.81,0.73 -3.73,-0.04 -4.52,-2 -0.73,-1.81 -0.01,-3.84 2.01,-4.49z"/>
     <path class="fil1" d="M150.69 78.43c-0.64,0.65 -1.48,0.36 -2.34,0 -0.89,-0.37 -1.81,-0.52 -2.2,-1.69 -0.27,-0.82 -0.48,-1.49 -0.07,-2.29 0.42,-0.84 0.43,-1.86 1.59,-2.27 0.87,-0.31 1.6,-0.64 2.52,-0.15 0.83,0.44 1.79,0.52 2.23,1.63 0.68,1.71 0.03,3.92 -1.74,4.77z"/>
     <path class="fil1" d="M232.51 151.11c0.65,0.65 0.36,1.48 0.01,2.34 -0.37,0.89 -0.53,1.8 -1.69,2.19 -0.82,0.27 -1.48,0.48 -2.3,0.07 -0.83,-0.42 -1.86,-0.43 -2.27,-1.59 -0.31,-0.87 -0.64,-1.6 -0.15,-2.52 0.44,-0.83 0.52,-1.79 1.64,-2.23 1.7,-0.68 3.92,-0.03 4.77,1.74z"/>
     <path class="fil1" d="M171.29 79.6c1.88,-0.87 3.99,0.03 4.88,1.65 0.58,1.05 0.03,1.84 -0.15,2.76 -0.21,1.02 -0.93,1.37 -1.73,1.85 -1.05,0.63 -1.85,-0.01 -2.77,-0.22 -0.88,-0.2 -1.26,-0.78 -1.72,-1.51 -0.65,-1.04 -0.22,-1.85 0.09,-2.76 0.3,-0.86 0.48,-1.8 1.39,-1.76z"/>
     <path class="fil1" d="M209.45 107.37c1.88,-0.87 3.99,0.03 4.88,1.65 0.58,1.05 0.03,1.84 -0.15,2.76 -0.21,1.02 -0.93,1.37 -1.72,1.85 -1.06,0.63 -1.86,-0.01 -2.77,-0.22 -0.89,-0.2 -1.27,-0.78 -1.73,-1.51 -0.65,-1.04 -0.21,-1.85 0.09,-2.76 0.3,-0.86 0.48,-1.8 1.39,-1.76z"/>
     <path class="fil1" d="M229.91 160.43c0.95,-0.88 1.82,-0.12 2.74,0.06 1.01,0.2 1.39,0.9 1.87,1.7 0.64,1.06 -0.05,1.85 -0.19,2.77 -0.17,1.07 -0.99,1.34 -1.75,1.82 -1.05,0.66 -1.85,-0.06 -2.77,-0.25 -0.89,-0.19 -1.25,-0.81 -1.7,-1.53 -0.65,-1.04 -0.13,-1.85 0.11,-2.77 0.25,-0.93 0.66,-1.66 1.68,-1.8z"/>
     <path class="fil1" d="M84.27 73.75c0.72,0.75 0.5,1.58 0.12,2.45 -0.38,0.87 -0.5,1.82 -1.68,2.2 -0.81,0.27 -1.48,0.49 -2.29,0.09 -0.84,-0.42 -1.87,-0.42 -2.28,-1.58 -0.3,-0.86 -0.69,-1.59 -0.17,-2.52 0.46,-0.81 0.47,-1.82 1.62,-2.25 0.89,-0.33 1.62,-0.56 2.52,-0.11 0.85,0.42 1.95,0.45 2.15,1.72z"/>
     <path class="fil1" d="M51.39 79.02c0.68,1.56 -0.25,3.96 -1.79,4.59 -1.58,0.65 -3.95,-0.32 -4.56,-1.87 -0.58,-1.48 0.3,-3.77 1.73,-4.42 1.73,-0.79 4.11,0.41 4.62,1.7z"/>
     <path class="fil1" d="M231.83 171.46c1.56,-0.68 3.95,0.25 4.58,1.78 0.65,1.58 -0.32,3.95 -1.87,4.56 -1.47,0.58 -3.77,-0.31 -4.42,-1.73 -0.79,-1.71 0.4,-4.1 1.7,-4.62z"/>
     <path class="fil1" d="M57.93 75.32c1.58,-0.66 3.95,0.3 4.57,1.84 0.62,1.56 -0.39,3.96 -1.92,4.54 -1.49,0.56 -3.78,-0.36 -4.41,-1.78 -0.68,-1.55 0.23,-3.96 1.76,-4.6z"/>
     <path class="fil1" d="M224.56 127.48c1.23,-0.68 3.83,-0.07 4.65,1.62 0.68,1.41 -0.09,3.74 -1.48,4.51 -1.46,0.81 -3.9,0.05 -4.71,-1.46 -0.79,-1.46 0.02,-3.9 1.54,-4.68z"/>
     <path class="fil1" d="M90.86 70.14c1.56,-0.68 3.95,0.25 4.58,1.78 0.65,1.58 -0.32,3.95 -1.87,4.56 -1.47,0.58 -3.77,-0.3 -4.42,-1.73 -0.78,-1.71 0.4,-4.1 1.7,-4.62z"/>
     <path class="fil1" d="M232.28 218.76c0.66,1.57 -0.3,3.95 -1.84,4.57 -1.56,0.63 -3.96,-0.39 -4.54,-1.92 -0.56,-1.49 0.36,-3.77 1.78,-4.41 1.55,-0.69 3.96,0.23 4.6,1.76z"/>
     <path class="fil1" d="M101.87 68.22c1.72,-0.77 4.08,0.41 4.62,1.7 0.66,1.57 -0.26,3.96 -1.79,4.59 -1.48,0.61 -3.71,-0.23 -4.46,-1.64 -0.65,-1.23 -0.07,-3.81 1.62,-4.65z"/>
     <path class="fil1" d="M117.48 67.8c0.78,1.46 -0.02,3.9 -1.54,4.68 -1.38,0.7 -3.73,-0.02 -4.54,-1.4 -0.83,-1.41 -0.11,-3.91 1.38,-4.74 1.45,-0.8 3.9,-0.05 4.71,1.46z"/>
     <path class="fil1" d="M236.4 188.37c-1.56,0.68 -3.96,-0.25 -4.58,-1.79 -0.65,-1.58 0.32,-3.95 1.87,-4.56 1.48,-0.58 3.77,0.3 4.42,1.73 0.79,1.72 -0.42,4.11 -1.7,4.62z"/>
     <path class="fil1" d="M226.26 138.13c1.46,-0.78 3.9,0.02 4.67,1.54 0.7,1.38 -0.02,3.73 -1.4,4.54 -1.42,0.83 -3.92,0.1 -4.74,-1.38 -0.81,-1.45 -0.05,-3.9 1.46,-4.71z"/>
     <path class="fil1" d="M73.49 75.04c0.64,1.19 0.06,3.82 -1.68,4.62 -1.44,0.66 -3.74,-0.14 -4.49,-1.53 -0.79,-1.46 0,-3.9 1.51,-4.69 1.47,-0.76 3.92,0.08 4.66,1.59z"/>
     <path class="fil1" d="M198.15 93.18c-1.02,-0.32 -1.98,0.55 -2.85,-0.14 -0.65,-0.51 -1.66,-1.04 -1.76,-1.68 -0.13,-0.84 -0.64,-1.86 0.04,-2.72 0.52,-0.65 1.12,-1.23 1.69,-1.84 0.82,0.52 1.6,-0.42 2.54,0.04 0.85,0.41 1.01,1.42 1.9,1.66 -0.32,0.91 0.42,1.76 0.01,2.76 -0.37,0.9 -1.49,0.94 -1.58,1.91z"/>
     <path class="fil1" d="M163.08 71.88c0.02,0.88 0.08,1.72 0.05,2.55 -0.04,1.09 -1.26,1.33 -1.65,2.18 -0.84,-0.22 -1.61,0.32 -2.51,0.12 -1.09,-0.24 -1.21,-1.43 -2.13,-1.74 0.36,-0.84 -0.32,-1.6 -0.09,-2.52 0.25,-1 1.43,-1.05 1.57,-1.99 0.83,-0.06 1.66,-0.14 2.5,-0.16 1.14,-0.03 1.25,1.39 2.28,1.57z"/>
     <path class="fil1" d="M123.79 64.9c0.97,0.35 1.95,-0.51 2.8,0.17 0.65,0.52 1.71,1.12 1.73,1.7 0.01,0.88 0.73,1.88 -0.07,2.74 -0.57,0.61 -1.14,1.67 -1.74,1.69 -0.87,0.03 -1.89,0.69 -2.75,-0.12 -0.55,-0.52 -1.5,-0.99 -1.56,-1.56 -0.09,-0.87 -0.67,-1.85 0,-2.72 0.51,-0.66 1.07,-1.28 1.6,-1.89z"/>
     <path class="fil1" d="M227.3 118.12c-0.05,0.9 0.09,1.87 -0.21,2.68 -0.28,0.73 -0.95,1.57 -1.63,1.81 -0.77,0.27 -1.83,0.11 -2.62,-0.21 -0.73,-0.29 -1.54,-0.94 -1.83,-1.63 -0.29,-0.7 -0.18,-1.72 0.11,-2.46 0.29,-0.73 0.91,-1.58 1.6,-1.85 0.79,-0.31 1.87,-0.24 2.68,0.06 0.73,0.26 1.27,1.05 1.89,1.6z"/>
     <path class="fil1" d="M237.85 199.13c-2.01,0.98 -3.04,0.67 -3.97,-1.2 -0.95,-1.93 -0.56,-3.04 1.11,-4.02 1.84,-1.07 3.52,-0.3 4.17,1.27 0.79,1.93 0.49,3.06 -1.32,3.95z"/>
     <path class="fil1" d="M210.86 101.8c-1.47,1.01 -3.32,0.17 -3.93,-1.38 -0.82,-2.05 -0.46,-3.02 1.54,-4.07 1.57,-0.82 3.28,-0.03 3.89,1.57 0.72,1.89 0.38,3 -1.5,3.88z"/>
     <path class="fil1" d="M185.3 83.35c-1.87,0.88 -3.03,0.49 -3.91,-1.35 -0.99,-2.06 -0.61,-3.09 1.49,-4.05 1.83,-0.83 2.97,-0.39 3.85,1.51 0.87,1.86 0.44,3 -1.43,3.88z"/>
     <path class="fil1" d="M169.75 68.89c1.62,-0.77 3.17,-0.21 3.93,1.41 0.77,1.63 0.21,3.17 -1.4,3.94 -1.63,0.77 -3.18,0.21 -3.94,-1.41 -0.77,-1.63 -0.21,-3.17 1.41,-3.94z"/>
     <path class="fil1" d="M224.99 107.46c0.64,0.73 0.06,1.45 -0.07,2.22 -0.18,1 -1.03,1.12 -1.68,1.56 -0.83,0.58 -1.52,0.07 -2.29,-0.07 -1,-0.18 -1.11,-1.03 -1.56,-1.68 -0.58,-0.83 -0.07,-1.52 0.07,-2.29 0.19,-1 1.03,-1.12 1.68,-1.56 0.83,-0.58 1.54,-0.18 2.28,0.1 0.97,0.35 0.97,0.36 1.57,1.72z"/>
     <path class="fil1" d="M139.01 64.94c0.74,1.59 0.14,3.14 -1.51,3.9 -1.59,0.74 -3.13,0.14 -3.9,-1.51 -0.74,-1.59 -0.14,-3.14 1.51,-3.9 1.59,-0.74 3.13,-0.14 3.9,1.51z"/>
     <path class="fil1" d="M243.11 149.32c0.46,1.34 0.26,3.07 -1.52,3.88 -1.28,0.58 -3.06,0.29 -3.87,-1.49 -0.58,-1.28 -0.29,-3.06 1.49,-3.87 1.29,-0.58 2.99,-0.26 3.89,1.48z"/>
     <path class="fil1" d="M243.52 164.31c-1.58,0.5 -3.19,0.04 -3.85,-1.57 -0.63,-1.53 -0.07,-3.19 1.54,-3.84 1.53,-0.63 3.19,-0.07 3.85,1.54 0.62,1.53 0.03,3.09 -1.53,3.87z"/>
     <path class="fil1" d="M222.93 96.14c0.65,1.44 -0.03,3.28 -1.46,3.92 -1.43,0.65 -3.28,-0.04 -3.92,-1.46 -0.64,-1.44 0.04,-3.28 1.46,-3.92 1.44,-0.65 3.28,0.04 3.92,1.46z"/>
     <path class="fil1" d="M241.34 138.64c0.68,1.52 -0.08,3.32 -1.41,3.93 -1.51,0.7 -3.32,-0.08 -3.93,-1.41 -0.7,-1.51 0.08,-3.31 1.41,-3.93 1.5,-0.7 3.3,0.08 3.93,1.4z"/>
     <path class="fil1" d="M246.94 171.3c0.7,1.6 0.17,3.18 -1.28,3.96 -1.53,0.82 -3.16,0.2 -3.95,-1.26 -0.83,-1.53 -0.2,-3.16 1.26,-3.95 1.53,-0.82 3.06,-0.15 3.97,1.24z"/>
     <path class="fil1" d="M146.11 61.51c1.52,-0.68 3.32,0.08 3.93,1.41 0.7,1.51 -0.07,3.31 -1.4,3.93 -1.51,0.7 -3.32,-0.08 -3.93,-1.41 -0.7,-1.51 0.09,-3.3 1.4,-3.94z"/>
     <path class="fil1" d="M195.91 81.61c-1.46,0.66 -3.28,-0.03 -3.93,-1.41 -0.68,-1.45 0.02,-3.28 1.41,-3.93 1.44,-0.68 3.28,0.02 3.93,1.41 0.68,1.45 -0.03,3.26 -1.4,3.93z"/>
     <path class="fil1" d="M241.08 206.24c0.77,1.8 -0.07,3.32 -1.33,3.95 -1.75,0.86 -3.31,-0.04 -3.93,-1.31 -0.86,-1.75 0.04,-3.31 1.3,-3.93 1.76,-0.86 3.22,0.09 3.96,1.29z"/>
     <path class="fil1" d="M208.9 90.74c-1.44,0.65 -3.28,-0.04 -3.92,-1.46 -0.65,-1.44 0.03,-3.28 1.45,-3.92 1.44,-0.65 3.28,0.04 3.92,1.46 0.65,1.44 -0.03,3.28 -1.45,3.92z"/>
     <path class="fil1" d="M239.88 127.46c0.5,1.59 0.04,3.2 -1.57,3.86 -1.53,0.63 -3.18,0.07 -3.84,-1.54 -0.63,-1.53 -0.07,-3.19 1.54,-3.84 1.53,-0.63 3.09,-0.03 3.87,1.53z"/>
     <path class="fil1" d="M183.57 72.72c-0.89,0.45 -3.61,-0.54 -3.97,-1.44 -0.35,-0.87 0.48,-3.32 1.3,-3.84 0.8,-0.51 3.48,0.35 4.03,1.28 0.48,0.83 -0.43,3.53 -1.36,4z"/>
     <path class="fil1" d="M236.53 120.21c-0.85,0.48 -3.56,-0.47 -3.99,-1.39 -0.38,-0.8 0.43,-3.3 1.25,-3.86 0.77,-0.52 3.48,0.3 4.05,1.22 0.5,0.81 -0.37,3.49 -1.3,4.02z"/>
     <path class="fil1" d="M157.04 59.61c1.1,-0.41 3.65,0.42 3.99,1.29 0.21,0.52 0.13,1.22 0,1.8 -0.45,2.06 -1.9,2.74 -3.81,1.87 -1.32,-0.6 -1.8,-1.53 -1.32,-2.91 0.27,-0.78 0.81,-1.48 1.13,-2.05z"/>
     <path class="fil1" d="M232.26 104.24c1.57,-0.73 2.47,-0.39 3.22,1.21 0.81,1.7 0.46,2.53 -1.34,3.36 -1.5,0.68 -2.41,0.29 -3.17,-1.37 -0.7,-1.55 -0.35,-2.43 1.29,-3.19z"/>
     <path class="fil1" d="M242.61 217.58c0.76,1.6 0.44,2.51 -1.11,3.26 -1.71,0.82 -2.59,0.49 -3.39,-1.25 -0.71,-1.55 -0.36,-2.44 1.27,-3.2 1.57,-0.73 2.48,-0.4 3.23,1.19z"/>
     <path class="fil1" d="M246.88 186.15c-1.6,0.76 -2.51,0.45 -3.26,-1.11 -0.82,-1.71 -0.49,-2.59 1.25,-3.39 1.55,-0.71 2.44,-0.36 3.2,1.27 0.73,1.57 0.4,2.48 -1.19,3.23z"/>
     <path class="fil1" d="M89.27 59.99c1.6,-0.75 2.51,-0.44 3.26,1.12 0.82,1.71 0.49,2.59 -1.26,3.39 -1.55,0.71 -2.44,0.35 -3.2,-1.28 -0.73,-1.57 -0.39,-2.48 1.2,-3.23z"/>
     <path class="fil1" d="M208.19 76.44c0.73,1.57 0.39,2.47 -1.21,3.22 -1.7,0.8 -2.54,0.46 -3.36,-1.35 -0.68,-1.5 -0.29,-2.4 1.37,-3.16 1.54,-0.71 2.43,-0.35 3.2,1.29z"/>
     <path class="fil1" d="M70.83 64.79c0.79,1.64 0.5,2.55 -1.01,3.29 -1.64,0.8 -2.6,0.54 -3.32,-0.93 -0.88,-1.78 -0.6,-2.66 1.07,-3.46 1.6,-0.76 2.52,-0.46 3.26,1.09z"/>
     <path class="fil1" d="M81.91 62.87c0.77,1.62 0.47,2.53 -1.07,3.27 -1.72,0.83 -2.61,0.51 -3.41,-1.21 -0.72,-1.56 -0.38,-2.46 1.23,-3.21 1.58,-0.74 2.5,-0.42 3.24,1.15z"/>
     <path class="fil1" d="M103.65 59.28c0.73,1.57 0.39,2.47 -1.21,3.22 -1.7,0.8 -2.54,0.46 -3.36,-1.35 -0.68,-1.5 -0.29,-2.4 1.37,-3.16 1.54,-0.71 2.43,-0.35 3.2,1.29z"/>
     <path class="fil1" d="M114.94 57.8c0.71,1.55 0.36,2.45 -1.26,3.21 -1.66,0.78 -2.52,0.42 -3.34,-1.39 -0.69,-1.55 -0.33,-2.35 1.42,-3.15 1.52,-0.69 2.41,-0.32 3.17,1.34z"/>
     <path class="fil1" d="M124.74 59.06c-1.24,0.55 -2.65,0.03 -3.23,-1.19 -0.62,-1.32 -0.05,-2.88 1.34,-3.35 1.36,-0.46 2.53,-0.06 3.15,1.34 0.53,1.19 -0.07,2.67 -1.26,3.2z"/>
     <path class="fil1" d="M195.59 67.05c0.58,1.23 0.09,2.64 -1.12,3.26 -1.33,0.67 -2.82,0.12 -3.39,-1.26 -0.5,-1.19 0.1,-2.68 1.28,-3.2 1.24,-0.55 2.64,-0.02 3.23,1.2z"/>
     <path class="fil1" d="M249.76 193.45c0.58,1.16 0.11,2.69 -1.05,3.27 -1.36,0.68 -2.53,0.26 -3.3,-0.97 -0.77,-1.24 -0.22,-2.81 1.1,-3.43 1.21,-0.57 2.64,-0.08 3.25,1.13z"/>
     <path class="fil1" d="M171.51 59.91c0.63,1.25 -0.05,2.73 -1.15,3.25 -1.32,0.62 -2.83,0.05 -3.38,-1.3 -0.48,-1.17 0.15,-2.68 1.31,-3.19 1.23,-0.53 2.66,0.02 3.22,1.23z"/>
     <path class="fil1" d="M59.58 66.34c0.58,1.18 0.09,2.66 -1.07,3.27 -1.13,0.59 -2.69,0.12 -3.3,-1 -0.7,-1.28 -0.17,-2.81 1.13,-3.44 1.21,-0.58 2.73,0 3.24,1.16z"/>
     <path class="fil1" d="M221.21 85.58c0.52,1.22 -0.05,2.65 -1.25,3.21 -1.5,0.71 -2.98,-0.33 -3.35,-1.39 -0.42,-1.22 0.2,-2.66 1.42,-3.15 1.18,-0.47 2.69,0.16 3.18,1.33z"/>
     <path class="fil1" d="M45.34 67.09c0.98,-0.41 2.81,0.34 3.22,1.32 0.42,0.98 -0.34,2.82 -1.32,3.23 -0.99,0.41 -2.82,-0.34 -3.23,-1.32 -0.42,-0.98 0.34,-2.81 1.32,-3.23z"/>
     <path class="fil1" d="M136.57 53.99c0.47,0.96 -0.17,2.83 -1.13,3.3 -0.96,0.47 -2.83,-0.17 -3.3,-1.13 -0.46,-0.96 0.17,-2.83 1.13,-3.3 0.97,-0.47 2.83,0.17 3.3,1.13z"/>
     <path class="fil1" d="M232.57 98.1c-0.96,0.45 -2.83,-0.21 -3.28,-1.18 -0.46,-0.96 0.21,-2.82 1.17,-3.28 0.97,-0.45 2.83,0.22 3.28,1.18 0.46,0.96 -0.21,2.82 -1.18,3.28z"/>
     <path class="fil1" d="M249.98 125.77c0.39,0.68 -0.33,2.89 -1.08,3.31 -0.68,0.39 -2.89,-0.33 -3.32,-1.08 -0.39,-0.68 0.34,-2.88 1.09,-3.31 0.68,-0.39 2.88,0.33 3.31,1.08z"/>
     <path class="fil1" d="M250.78 140.18c-0.7,0.33 -2.95,-0.47 -3.28,-1.18 -0.34,-0.7 0.47,-2.95 1.17,-3.28 0.7,-0.33 2.95,0.47 3.28,1.17 0.34,0.7 -0.47,2.95 -1.17,3.28z"/>
     <path class="fil1" d="M252.34 157.42c0.68,-0.36 2.91,0.41 3.3,1.13 0.36,0.68 -0.4,2.91 -1.13,3.3 -0.67,0.36 -2.91,-0.41 -3.29,-1.13 -0.36,-0.68 0.4,-2.91 1.13,-3.3z"/>
     <path class="fil1" d="M147.66 52.1c0.32,0.76 -0.52,2.97 -1.22,3.26 -0.77,0.31 -2.97,-0.52 -3.26,-1.23 -0.32,-0.76 0.52,-2.97 1.22,-3.26 0.77,-0.31 2.97,0.52 3.26,1.23z"/>
     <path class="fil1" d="M182.56 57.94c0.34,0.7 -0.47,2.95 -1.17,3.28 -0.7,0.33 -2.95,-0.47 -3.28,-1.18 -0.34,-0.7 0.47,-2.95 1.17,-3.28 0.7,-0.33 2.95,0.47 3.28,1.18z"/>
     <path class="fil1" d="M253.86 147.87c0.4,0.66 -0.3,2.88 -1.03,3.33 -0.66,0.4 -2.89,-0.3 -3.33,-1.04 -0.4,-0.66 0.3,-2.89 1.03,-3.33 0.66,-0.4 2.89,0.3 3.33,1.04z"/>
     <path class="fil1" d="M244.44 116.34c-0.7,-1.54 -0.61,-1.77 1.05,-2.54 1.6,-0.74 1.86,-0.62 2.68,1.19 0.62,1.39 0.47,1.71 -1.22,2.48 -1.5,0.68 -1.72,0.58 -2.51,-1.13z"/>
     <path class="fil1" d="M37.51 70.38c0.7,1.54 0.61,1.77 -1.05,2.54 -1.59,0.74 -1.86,0.62 -2.67,-1.19 -0.62,-1.39 -0.47,-1.71 1.21,-2.48 1.5,-0.68 1.73,-0.58 2.51,1.13z"/>
     <path class="fil1" d="M250.23 207.45c-1.54,0.71 -1.77,0.61 -2.54,-1.05 -0.74,-1.59 -0.62,-1.86 1.19,-2.67 1.39,-0.63 1.71,-0.47 2.48,1.21 0.68,1.5 0.58,1.73 -1.13,2.51z"/>
     <path class="fil1" d="M258.64 181.09c0.47,0.94 0.09,2.15 -0.81,2.63 -1.05,0.55 -2.28,0.13 -2.76,-0.95 -0.42,-0.93 0.03,-2.13 0.97,-2.57 0.93,-0.44 2.14,-0.02 2.59,0.89z"/>
     <path class="fil1" d="M205.71 65.42c0.49,0.92 0.15,2.15 -0.73,2.65 -0.99,0.57 -2.3,0.16 -2.79,-0.87 -0.44,-0.93 -0.02,-2.14 0.89,-2.6 0.93,-0.47 2.15,-0.09 2.62,0.81z"/>
     <path class="fil1" d="M243.63 103.23c0.94,-0.47 2.15,-0.1 2.63,0.8 0.56,1.04 0.13,2.28 -0.94,2.76 -0.93,0.42 -2.13,-0.04 -2.57,-0.96 -0.44,-0.93 -0.03,-2.14 0.88,-2.6z"/>
     <path class="fil1" d="M217.88 77.24c-0.93,0.46 -2.15,0.09 -2.62,-0.81 -0.55,-1.04 -0.13,-2.28 0.95,-2.76 0.93,-0.41 2.12,0.04 2.56,0.97 0.44,0.93 0.02,2.14 -0.89,2.6z"/>
     <path class="fil1" d="M193.18 56.19c0.44,0.93 0.03,2.15 -0.88,2.6 -1.05,0.53 -2.28,0.07 -2.73,-1.02 -0.39,-0.94 0.09,-2.11 1.04,-2.54 0.93,-0.42 2.13,0.03 2.57,0.96z"/>
     <path class="fil1" d="M158.43 50.67c0.49,0.92 0.15,2.15 -0.73,2.65 -1,0.57 -2.3,0.16 -2.79,-0.87 -0.44,-0.93 -0.02,-2.14 0.89,-2.6 0.94,-0.46 2.15,-0.09 2.62,0.81z"/>
     <path class="fil1" d="M230.48 86.55c-0.95,0.48 -2.15,0.13 -2.64,-0.78 -0.56,-1.02 -0.14,-2.29 0.91,-2.77 0.92,-0.42 2.14,0.02 2.58,0.94 0.45,0.93 0.05,2.15 -0.85,2.61z"/>
     <path class="fil1" d="M255.82 172.67c-0.94,0.47 -2.15,0.09 -2.62,-0.81 -0.56,-1.04 -0.13,-2.28 0.95,-2.76 0.93,-0.41 2.13,0.04 2.56,0.97 0.44,0.93 0.03,2.14 -0.89,2.6z"/>
     <path class="fil1" d="M253.23 215.66c0.01,0.34 0.07,0.5 0.02,0.64 -0.2,0.62 -0.39,1.25 -0.68,1.83 -0.09,0.2 -0.47,0.32 -0.73,0.34 -0.22,0.02 -0.46,-0.14 -0.68,-0.23 -1.93,-0.7 -1.76,-0.38 -1.1,-2.32 0.39,-1.15 0.4,-1.34 1.7,-0.8 0.5,0.21 1.03,0.37 1.47,0.53z"/>
     <path class="fil1" d="M168.82 51.39c-0.3,0.05 -0.47,0.13 -0.6,0.09 -0.62,-0.2 -1.23,-0.43 -1.85,-0.65 -0.49,-0.17 -0.54,-0.51 -0.36,-0.95 0.2,-0.53 0.34,-1.09 0.6,-1.6 0.11,-0.21 0.5,-0.47 0.68,-0.43 0.71,0.17 1.4,0.45 2.07,0.73 0.11,0.05 0.26,0.28 0.24,0.39 -0.25,0.84 -0.54,1.66 -0.79,2.42z"/>
     <path class="fil1" d="M229.34 72.79c0.49,0.92 0.34,1.54 -0.48,2 -0.92,0.51 -1.57,0.38 -2.03,-0.4 -0.58,-1.01 -0.42,-1.68 0.55,-2.16 0.93,-0.47 1.51,-0.3 1.97,0.57z"/>
     <path class="fil1" d="M243.9 93.23c0.46,0.93 0.3,1.51 -0.57,1.97 -0.93,0.49 -1.54,0.34 -2,-0.49 -0.58,-1.03 -0.4,-1.65 0.63,-2.13 0.93,-0.44 1.48,-0.25 1.94,0.65z"/>
     <path class="fil1" d="M121.14 44.42c0.93,-0.45 1.49,-0.27 1.95,0.62 0.54,1.07 0.35,1.61 -0.76,2.09 -0.91,0.39 -1.47,0.16 -1.89,-0.79 -0.42,-0.93 -0.22,-1.48 0.7,-1.92z"/>
     <path class="fil1" d="M216.33 63.69c0.48,0.93 0.33,1.53 -0.51,1.99 -0.92,0.5 -1.56,0.37 -2.02,-0.43 -0.58,-1.01 -0.4,-1.68 0.57,-2.15 0.93,-0.46 1.5,-0.28 1.96,0.6z"/>
     <path class="fil1" d="M110.16 46.33c0.92,-0.4 1.46,-0.18 1.9,0.76 0.46,1 0.19,1.62 -0.9,2.04 -0.87,0.33 -1.45,0.05 -1.84,-0.92 -0.38,-0.93 -0.15,-1.44 0.84,-1.87z"/>
     <path class="fil1" d="M101.03 49.09c0.4,0.92 0.18,1.47 -0.77,1.9 -0.99,0.46 -1.62,0.18 -2.03,-0.9 -0.34,-0.87 -0.05,-1.45 0.93,-1.84 0.93,-0.38 1.44,-0.15 1.87,0.84z"/>
     <path class="fil1" d="M89.45 52.28c-0.93,0.44 -1.49,0.25 -1.95,-0.65 -0.52,-1.05 -0.31,-1.62 0.79,-2.08 0.91,-0.38 1.46,-0.14 1.89,0.81 0.41,0.92 0.19,1.47 -0.73,1.91z"/>
     <path class="fil1" d="M78.38 54.23c-0.93,0.44 -1.49,0.25 -1.94,-0.65 -0.53,-1.05 -0.32,-1.62 0.79,-2.08 0.91,-0.38 1.46,-0.14 1.88,0.81 0.41,0.92 0.2,1.47 -0.73,1.91z"/>
     <path class="fil1" d="M258.15 191.74c0.93,-0.47 1.51,-0.3 1.97,0.57 0.49,0.92 0.34,1.54 -0.48,2 -1.03,0.58 -1.65,0.39 -2.13,-0.63 -0.44,-0.93 -0.25,-1.49 0.65,-1.94z"/>
     <path class="fil1" d="M259.54 126.24c-0.93,0.47 -1.52,0.3 -1.97,-0.57 -0.49,-0.92 -0.34,-1.54 0.49,-2 1.03,-0.58 1.65,-0.39 2.13,0.63 0.44,0.93 0.25,1.49 -0.65,1.94z"/>
     <path class="fil1" d="M260.11 134.69c0.93,-0.47 1.51,-0.3 1.97,0.57 0.49,0.92 0.34,1.54 -0.48,2 -1.03,0.58 -1.65,0.39 -2.13,-0.63 -0.44,-0.93 -0.26,-1.49 0.65,-1.94z"/>
     <path class="fil1" d="M256.3 112.77c0.81,0.31 1.49,0.49 2.07,0.82 0.33,0.19 -0.3,2.1 -0.68,2.04 -0.66,-0.11 -1.59,-0.28 -1.83,-0.73 -0.24,-0.45 0.23,-1.28 0.44,-2.13z"/>
     <path class="fil1" d="M265.01 159.93c-0.82,-0.36 -1.49,-0.55 -2.05,-0.93 -0.34,-0.22 0.39,-2.1 0.75,-2.02 0.66,0.15 1.58,0.35 1.81,0.82 0.22,0.45 -0.28,1.27 -0.52,2.12z"/>
     <path class="fil1" d="M57.22 56.1c-0.38,0.8 -0.53,1.74 -1,1.94 -0.47,0.2 -1.31,-0.25 -1.89,-0.58 -0.34,-0.19 0.37,-2.08 0.75,-2.02 0.66,0.11 1.3,0.39 2.13,0.66z"/>
     <path class="fil1" d="M177.71 46.32c0.79,0.39 1.73,0.55 1.93,1.02 0.19,0.48 -0.27,1.31 -0.6,1.88 -0.19,0.33 -2.08,-0.41 -2.01,-0.78 0.13,-0.66 0.42,-1.3 0.69,-2.12z"/>
     <path class="fil1" d="M134.37 42.95c-0.28,0.81 -0.33,1.77 -0.77,2.01 -0.46,0.25 -1.32,-0.13 -1.97,-0.35 -0.33,-0.11 0.13,-2.08 0.55,-2.09 0.66,-0.02 1.33,0.24 2.2,0.43z"/>
     <path class="fil1" d="M201.79 53.48c0.79,0.39 1.73,0.55 1.93,1.02 0.19,0.48 -0.27,1.31 -0.6,1.88 -0.2,0.33 -2.08,-0.41 -2.01,-0.78 0.12,-0.66 0.41,-1.3 0.69,-2.12z"/>
     <path class="fil1" d="M264.28 146.24c-0.3,0.82 -0.48,1.49 -0.79,2.08 -0.17,0.33 -2.11,-0.29 -2.05,-0.66 0.09,-0.66 0.26,-1.6 0.71,-1.84 0.44,-0.24 1.28,0.22 2.13,0.42z"/>
     <path class="fil1" d="M65.84 53.33c0.81,0.28 1.77,0.33 2.01,0.77 0.26,0.46 -0.13,1.32 -0.35,1.97 -0.11,0.33 -2.08,-0.13 -2.09,-0.55 -0.01,-0.66 0.25,-1.33 0.43,-2.2z"/>
     <path class="fil1" d="M242.21 82.1c-0.35,0.82 -0.54,1.49 -0.91,2.05 -0.22,0.33 -2.1,-0.38 -2.02,-0.75 0.15,-0.66 0.35,-1.58 0.81,-1.81 0.46,-0.23 1.27,0.27 2.12,0.51z"/>
     <path class="fil1" d="M261.4 203.11c0.5,1.02 0.48,0.98 -0.41,1.46 -0.6,0.32 -0.97,0.38 -1.28,-0.38 -0.42,-1.01 -0.46,-0.96 0.44,-1.44 0.6,-0.32 1.05,-0.44 1.25,0.35z"/>
     <path class="fil1" d="M265.62 168.05c0.54,-0.38 0.93,-0.37 1.24,0.38 0.42,1.01 0.45,0.96 -0.44,1.44 -0.6,0.32 -0.97,0.38 -1.28,-0.38 -0.42,-1.01 -0.47,-0.99 0.48,-1.44z"/>
     <path class="fil1" d="M144.68 42.3c0.56,0.86 -0.24,0.92 -0.69,1.13 -0.82,0.4 -0.79,0.33 -1.32,-0.73 -0.45,-0.9 0.26,-0.93 0.71,-1.14 0.82,-0.39 0.85,-0.36 1.3,0.74z"/>
     <path class="fil1" d="M256.11 102.97c0.48,0.66 0.08,0.92 -0.53,1.18 -0.93,0.39 -0.87,0.39 -1.39,-0.58 -0.39,-0.73 -0.08,-0.97 0.54,-1.22 0.93,-0.39 0.92,-0.42 1.38,0.62z"/>
     <path class="fil1" d="M190.62 45.46c-0.32,0.6 -0.44,1.21 -0.76,1.33 -0.32,0.13 -0.84,-0.2 -1.27,-0.33 0.17,-0.48 0.24,-1.07 0.57,-1.38 0.17,-0.16 0.82,0.2 1.46,0.38z"/>
     <path class="fil1" d="M155.8 39.92c-0.19,0.58 -0.25,1.06 -0.49,1.43 -0.21,0.33 -1.4,0.03 -1.42,-0.38 -0.03,-0.42 0.12,-1.05 0.41,-1.23 0.3,-0.18 0.86,0.08 1.5,0.18z"/>
     <path class="fil1" d="M45.9 57.5c-0.24,0.6 -0.34,1.07 -0.6,1.41 -0.25,0.33 -1.4,-0.04 -1.39,-0.46 0,-0.42 0.19,-1.03 0.49,-1.2 0.3,-0.17 0.85,0.12 1.5,0.25z"/>
     <path class="fil1" d="M34.9 59.49c-0.31,0.62 -0.43,1.09 -0.73,1.4 -0.29,0.31 -1.4,-0.13 -1.36,-0.53 0.04,-0.42 0.25,-1.01 0.57,-1.18 0.31,-0.15 0.85,0.15 1.52,0.31z"/>
     <path class="fil1" d="M212.52 52.19c0.62,0.29 1.34,0.44 1.36,0.67 0.05,0.45 -0.29,0.95 -0.46,1.42 -0.42,-0.18 -1.02,-0.27 -1.18,-0.58 -0.16,-0.3 0.13,-0.84 0.28,-1.51z"/>
     <path class="fil1" d="M225.48 61.41c0.58,0.19 1.05,0.25 1.42,0.48 0.34,0.21 0.03,1.4 -0.38,1.42 -0.42,0.02 -1.05,-0.12 -1.23,-0.41 -0.17,-0.29 0.09,-0.86 0.19,-1.49z"/>
     <path class="fil1" d="M254.76 91.38c-0.24,0.6 -0.34,1.07 -0.6,1.41 -0.25,0.32 -1.4,-0.04 -1.39,-0.46 0,-0.42 0.19,-1.03 0.49,-1.2 0.3,-0.17 0.85,0.12 1.5,0.25z"/>
     <path class="fil1" d="M239.28 71.79c-0.03,0.22 -0.09,0.54 -0.15,0.87 -0.46,-0.18 -0.93,-0.36 -1.39,-0.54 0.17,-0.41 0.23,-1 0.53,-1.18 0.67,-0.4 0.62,0.42 1.01,0.86z"/>
     <path class="fil1" d="M277.5 168.18c-0.34,-0.29 -0.6,-0.42 -0.69,-0.63 -0.06,-0.11 0.19,-0.52 0.24,-0.51 0.25,0.05 0.52,0.16 0.7,0.33 0.06,0.06 -0.1,0.36 -0.25,0.81z"/>
     <path class="fil1" d="M270.35 124.15c-0.34,-0.29 -0.6,-0.42 -0.69,-0.63 -0.06,-0.11 0.19,-0.52 0.24,-0.51 0.25,0.04 0.52,0.16 0.7,0.33 0.06,0.06 -0.1,0.36 -0.25,0.81z"/>
     <path class="fil1" d="M120.47 34.26c-0.17,0.44 -0.24,0.78 -0.33,0.78 -0.25,0.02 -0.52,-0.07 -0.75,-0.19 -0.05,-0.03 0.02,-0.5 0.13,-0.55 0.21,-0.1 0.49,-0.04 0.94,-0.05z"/>
     <path class="fil1" d="M271.61 133.34c0.36,0.26 0.68,0.39 0.66,0.49 -0.02,0.24 -0.19,0.48 -0.3,0.71 -0.19,-0.09 -0.5,-0.16 -0.52,-0.28 -0.05,-0.23 0.07,-0.49 0.16,-0.92z"/>
     <path class="fil1" d="M108.99 37.36c-0.34,-0.29 -0.6,-0.42 -0.7,-0.63 -0.05,-0.11 0.19,-0.52 0.25,-0.51 0.25,0.04 0.52,0.16 0.7,0.33 0.06,0.06 -0.11,0.36 -0.25,0.81z"/>
     <path class="fil1" d="M262.47 215.59c-0.39,-0.2 -0.67,-0.28 -0.82,-0.46 -0.08,-0.1 0.07,-0.38 0.11,-0.58 0.26,0.06 0.54,0.08 0.75,0.22 0.09,0.06 -0.01,0.38 -0.04,0.83z"/>
     <path class="fil1" d="M267.7 179.32c0.36,0.26 0.67,0.39 0.66,0.49 -0.03,0.25 -0.19,0.48 -0.31,0.71 -0.18,-0.09 -0.5,-0.16 -0.52,-0.28 -0.05,-0.23 0.07,-0.49 0.17,-0.92z"/>
     <path class="fil1" d="M131.5 33.82c-0.39,-0.2 -0.67,-0.28 -0.82,-0.46 -0.08,-0.1 0.07,-0.38 0.11,-0.58 0.26,0.06 0.54,0.08 0.75,0.22 0.09,0.06 -0.01,0.38 -0.04,0.83z"/>
     <path class="fil1" d="M98.78 37.95c-0.17,0.44 -0.23,0.78 -0.33,0.78 -0.25,0.02 -0.52,-0.07 -0.75,-0.19 -0.05,-0.03 0.02,-0.5 0.13,-0.55 0.21,-0.1 0.5,-0.04 0.94,-0.05z"/>
     <path class="fil1" d="M211.55 41.8c0.36,0.26 0.67,0.39 0.66,0.49 -0.03,0.25 -0.19,0.48 -0.31,0.71 -0.18,-0.09 -0.5,-0.16 -0.52,-0.28 -0.05,-0.23 0.07,-0.49 0.17,-0.92z"/>
     <path class="fil1" d="M275.71 157.04c-0.39,-0.2 -0.67,-0.28 -0.82,-0.46 -0.08,-0.1 0.07,-0.38 0.11,-0.58 0.26,0.06 0.54,0.08 0.75,0.22 0.09,0.06 -0.01,0.38 -0.04,0.83z"/>
     <path class="fil1" d="M272.05 201.98c-0.2,0.39 -0.28,0.67 -0.46,0.82 -0.1,0.08 -0.38,-0.07 -0.58,-0.11 0.06,-0.25 0.07,-0.54 0.21,-0.75 0.06,-0.08 0.38,0.01 0.83,0.04z"/>
     <path class="fil1" d="M86.83 39.61c0.36,0.26 0.67,0.39 0.66,0.49 -0.02,0.24 -0.19,0.48 -0.31,0.71 -0.18,-0.09 -0.5,-0.16 -0.52,-0.28 -0.05,-0.23 0.08,-0.49 0.17,-0.92z"/>
     <path class="fil1" d="M201.24 43.79c-0.29,0.34 -0.42,0.59 -0.63,0.7 -0.11,0.05 -0.52,-0.19 -0.51,-0.25 0.05,-0.25 0.16,-0.52 0.33,-0.69 0.06,-0.06 0.36,0.1 0.81,0.25z"/>
     <path class="fil1" d="M76.53 41.6c-0.3,0.34 -0.42,0.59 -0.64,0.69 -0.11,0.05 -0.52,-0.19 -0.5,-0.25 0.04,-0.25 0.15,-0.52 0.33,-0.7 0.06,-0.06 0.36,0.1 0.81,0.25z"/>
     <path class="fil1" d="M269.65 190.38c0.36,0.26 0.68,0.39 0.66,0.49 -0.02,0.24 -0.19,0.48 -0.3,0.71 -0.19,-0.09 -0.5,-0.16 -0.52,-0.28 -0.05,-0.23 0.07,-0.49 0.16,-0.92z"/>
     <path class="fil1" d="M274.02 144.93c-0.2,0.39 -0.28,0.67 -0.46,0.82 -0.1,0.08 -0.38,-0.07 -0.58,-0.11 0.06,-0.25 0.07,-0.54 0.21,-0.74 0.06,-0.08 0.38,0.01 0.83,0.04z"/>
     <path class="fil1" d="M65.13 44.43c-0.39,-0.2 -0.67,-0.28 -0.82,-0.46 -0.08,-0.1 0.07,-0.38 0.11,-0.58 0.25,0.06 0.54,0.08 0.75,0.22 0.09,0.06 -0.01,0.38 -0.04,0.83z"/>
     <path class="fil1" d="M187.25 34.19c0.36,0.26 0.68,0.39 0.66,0.49 -0.02,0.25 -0.19,0.48 -0.3,0.71 -0.19,-0.09 -0.5,-0.16 -0.52,-0.28 -0.05,-0.23 0.07,-0.49 0.16,-0.92z"/>
     <path class="fil1" d="M176.63 35.93c0.36,0.26 0.68,0.39 0.66,0.49 -0.02,0.25 -0.19,0.48 -0.31,0.71 -0.18,-0.09 -0.5,-0.16 -0.52,-0.28 -0.05,-0.23 0.07,-0.49 0.16,-0.92z"/>
     <path class="fil1" d="M165.4 37.96c0.44,0.17 0.78,0.24 0.79,0.33 0.02,0.25 -0.07,0.52 -0.19,0.75 -0.03,0.05 -0.5,-0.02 -0.55,-0.13 -0.1,-0.21 -0.04,-0.5 -0.05,-0.94z"/>
     <path class="fil1" d="M268.81 111.94c-0.17,0.44 -0.24,0.78 -0.33,0.78 -0.25,0.02 -0.52,-0.06 -0.75,-0.19 -0.05,-0.03 0.02,-0.5 0.13,-0.55 0.21,-0.1 0.49,-0.04 0.94,-0.05z"/>
     <path class="fil1" d="M153.52 29.26c-0.29,0.34 -0.42,0.59 -0.63,0.69 -0.11,0.05 -0.52,-0.19 -0.51,-0.25 0.05,-0.25 0.15,-0.52 0.33,-0.7 0.06,-0.06 0.36,0.1 0.81,0.25z"/>
     <path class="fil1" d="M142.91 31c-0.3,0.34 -0.43,0.59 -0.64,0.7 -0.11,0.05 -0.52,-0.19 -0.5,-0.25 0.04,-0.25 0.15,-0.52 0.32,-0.69 0.07,-0.06 0.37,0.1 0.82,0.25z"/>
     <path class="fil1" d="M22.73 186.52c-10.38,-16.11 -4.89,-55.04 -3.11,-90.39 0.5,-9.78 4.56,-19.19 11.79,-25.78 15.79,-14.38 33.62,-4.78 49.08,3.12 12.26,6.27 27.76,11.48 39.08,3.64 8.26,-5.72 11.11,-16.34 15.21,-25.51 5.28,-11.81 14.56,-22.96 27.23,-25.57 15.92,-3.28 31.69,8.2 39.79,22.29 8.1,14.1 10.68,30.57 15.36,46.13 6.69,22.26 17.84,43.08 23.28,65.67 5.44,22.59 4.12,48.76 -11.49,65.98 -12.28,13.55 -31.6,19.19 -49.87,18.22 -18.27,-0.98 -35.72,-7.83 -52.1,-16 -13.1,-6.53 -26.39,-14.13 -41.02,-14.48 -9.72,-0.23 -29.47,0.32 -38.26,-3.84 -9.67,-4.58 -19.19,-14.49 -24.98,-23.48z"/>
     <path class="fil1 str0" d="M197.54 192.99c0.74,-15.94 6.96,-31.44 17.6,-44.55 27.82,-34.27 16.26,-71.5 5.4,-82.95 -12.63,-13.29 -32.44,-20.14 -52.25,-20.72 -19.81,-0.58 -39.61,4.61 -57.79,12.3 -14.2,6.01 -27.92,13.79 -37.7,24.84 -9.55,10.8 -14.77,24.01 -19.52,37.01 -6.12,16.72 -11.81,33.86 -11.95,51.28 -0.11,14.2 5.32,30.25 19.96,35.33 12.49,4.33 27.6,-0.82 39.99,3.7 17.35,6.34 20.52,27.57 34.99,38.1 16.87,12.29 40.64,8.55 48.93,-2.92 8.65,-11.96 11.54,-33.76 12.35,-51.42z"/>
     <path class="fil1" d="M127 228.32c-13.1,-6.53 -26.39,-14.13 -41.02,-14.48 -9.72,-0.23 -29.47,0.32 -38.26,-3.84 -9.67,-4.58 -19.19,-14.49 -24.98,-23.48 -10.38,-16.11 -4.89,-55.04 -3.11,-90.39 0.5,-9.78 4.56,-19.19 11.79,-25.78 15.79,-14.38 33.62,-4.78 49.08,3.12l46.5 154.84z"/>
    </g>
   </g>
  </g>
  <polygon class="fil2" points="-0,0 280.43,0 280.43,280.43 -0,280.43 "/>
 </g>
</svg>
