<?xml version="1.0" encoding="UTF-8"?>
<!DOCTYPE svg PUBLIC "-//W3C//DTD SVG 1.1//EN" "http://www.w3.org/Graphics/SVG/1.1/DTD/svg11.dtd">
<!-- Creator: CorelDRAW -->
<svg xmlns="http://www.w3.org/2000/svg" xml:space="preserve" width="251.89mm" height="251.89mm" version="1.1" style="shape-rendering:geometricPrecision; text-rendering:geometricPrecision; image-rendering:optimizeQuality; fill-rule:evenodd; clip-rule:evenodd"
viewBox="0 0 26884.81 26884.81"
 xmlns:xlink="http://www.w3.org/1999/xlink"
 xmlns:xodm="http://www.corel.com/coreldraw/odm/2003">
 <defs>
  <style type="text/css">
   <![CDATA[
    .fil0 {fill:#32AB62;fill-rule:nonzero;fill-opacity:0.101961}
   ]]>
  </style>
 </defs>
 <g id="Layer_x0020_1">
  <metadata id="CorelCorpID_0Corel-Layer"/>
  <g id="_105553514486368">
   <path class="fil0" d="M13442.41 0c3711.99,0 7072.6,1504.61 9505.2,3937.2 2432.59,2432.59 3937.2,5793.2 3937.2,9505.2 0,3712.01 -1504.61,7072.61 -3937.2,9505.2 -2432.6,2432.59 -5793.22,3937.2 -9505.2,3937.2 -3712,0 -7072.61,-1504.61 -9505.2,-3937.2 -2432.59,-2432.59 -3937.2,-5793.2 -3937.2,-9505.2 0,-3712.01 1504.61,-7072.61 3937.2,-9505.2 2432.59,-2432.59 5793.21,-3937.2 9505.2,-3937.2zm9398.73 4043.68c-2405.33,-2405.32 -5728.29,-3893.06 -9398.73,-3893.06 -3670.45,0 -6993.41,1487.74 -9398.73,3893.06 -2405.31,2405.31 -3893.06,5728.28 -3893.06,9398.73 0,3670.45 1487.74,6993.41 3893.06,9398.73 2405.31,2405.31 5728.28,3893.06 9398.73,3893.06 3670.44,0 6993.39,-1487.73 9398.73,-3893.06 2405.31,-2405.31 3893.06,-5728.28 3893.06,-9398.73 0,-3670.45 -1487.74,-6993.41 -3893.06,-9398.73z"/>
   <path class="fil0" d="M13442.41 1516.11c3293.33,0 6274.91,1334.91 8433.15,3493.14 2158.23,2158.23 3493.14,5139.8 3493.14,8433.15 0,3293.35 -1334.91,6274.92 -3493.14,8433.15 -2158.24,2158.23 -5139.82,3493.14 -8433.15,3493.14 -3293.34,0 -6274.92,-1334.91 -8433.15,-3493.14 -2158.23,-2158.23 -3493.14,-5139.8 -3493.14,-8433.15 0,-3293.35 1334.91,-6274.92 3493.14,-8433.15 2158.23,-2158.23 5139.81,-3493.14 8433.15,-3493.14zm8338.68 3587.61c-2134.04,-2134.04 -5082.22,-3453.98 -8338.68,-3453.98 -3256.47,0 -6204.66,1319.95 -8338.68,3453.98 -2134.03,2134.02 -3453.98,5082.21 -3453.98,8338.68 0,3256.47 1319.95,6204.66 3453.98,8338.68 2134.02,2134.03 5082.21,3453.98 8338.68,3453.98 3256.46,0 6204.64,-1319.94 8338.68,-3453.98 2134.03,-2134.02 3453.98,-5082.21 3453.98,-8338.68 0,-3256.47 -1319.95,-6204.66 -3453.98,-8338.68z"/>
   <path class="fil0" d="M13442.41 2861.23c2921.89,0 5567.19,1184.35 7482.01,3099.16 1914.81,1914.81 3099.16,4560.11 3099.16,7482.01 0,2921.9 -1184.35,5567.2 -3099.16,7482.01 -1914.82,1914.81 -4560.13,3099.16 -7482.01,3099.16 -2921.9,0 -5567.2,-1184.35 -7482.01,-3099.16 -1914.81,-1914.81 -3099.16,-4560.11 -3099.16,-7482.01 0,-2921.9 1184.35,-5567.2 3099.16,-7482.01 1914.81,-1914.81 4560.11,-3099.16 7482.01,-3099.16zm7398.2 3182.98c-1893.36,-1893.35 -4509.02,-3064.42 -7398.2,-3064.42 -2889.19,0 -5504.86,1171.08 -7398.2,3064.42 -1893.34,1893.34 -3064.42,4509.01 -3064.42,7398.2 0,2889.19 1171.08,5504.86 3064.42,7398.2 1893.34,1893.34 4509.01,3064.42 7398.2,3064.42 2889.17,0 5504.84,-1171.07 7398.2,-3064.42 1893.34,-1893.34 3064.42,-4509.01 3064.42,-7398.2 0,-2889.19 -1171.08,-5504.86 -3064.42,-7398.2z"/>
   <path class="fil0" d="M13442.41 4054.64c2592.34,0 4939.28,1050.77 6638.14,2749.62 1698.85,1698.85 2749.62,4045.79 2749.62,6638.14 0,2592.35 -1050.77,4939.29 -2749.62,6638.14 -1698.86,1698.85 -4045.8,2749.62 -6638.14,2749.62 -2592.34,0 -4939.29,-1050.77 -6638.14,-2749.62 -1698.85,-1698.85 -2749.62,-4045.79 -2749.62,-6638.14 0,-2592.35 1050.77,-4939.29 2749.62,-6638.14 1698.85,-1698.85 4045.8,-2749.62 6638.14,-2749.62zm6563.78 2823.98c-1679.81,-1679.81 -4000.46,-2718.8 -6563.78,-2718.8 -2563.33,0 -4883.98,1039 -6563.78,2718.8 -1679.8,1679.8 -2718.8,4000.45 -2718.8,6563.78 0,2563.33 1039,4883.98 2718.8,6563.78 1679.8,1679.8 4000.45,2718.8 6563.78,2718.8 2563.32,0 4883.97,-1038.99 6563.78,-2718.8 1679.8,-1679.8 2718.8,-4000.45 2718.8,-6563.78 0,-2563.33 -1039,-4883.98 -2718.8,-6563.78z"/>
   <path class="fil0" d="M13442.41 5113.45c2299.96,0 4382.2,932.26 5889.46,2439.5 1507.24,1507.24 2439.5,3589.49 2439.5,5889.46 0,2299.97 -932.26,4382.21 -2439.5,5889.46 -1507.26,1507.24 -3589.5,2439.5 -5889.46,2439.5 -2299.97,0 -4382.21,-932.26 -5889.46,-2439.5 -1507.24,-1507.24 -2439.5,-3589.49 -2439.5,-5889.46 0,-2299.97 932.26,-4382.21 2439.5,-5889.46 1507.24,-1507.24 3589.49,-2439.5 5889.46,-2439.5zm5823.49 2505.47c-1490.36,-1490.34 -3549.27,-2412.14 -5823.49,-2412.14 -2274.22,0 -4333.14,921.81 -5823.49,2412.14 -1490.34,1490.35 -2412.14,3549.26 -2412.14,5823.49 0,2274.22 921.81,4333.14 2412.14,5823.49 1490.35,1490.34 3549.26,2412.14 5823.49,2412.14 2274.21,0 4333.13,-921.81 5823.49,-2412.14 1490.34,-1490.35 2412.14,-3549.26 2412.14,-5823.49 0,-2274.22 -921.81,-4333.14 -2412.14,-5823.49z"/>
   <path class="fil0" d="M13442.41 6052.83c2040.56,0 3887.96,827.11 5225.21,2164.36 1337.25,1337.25 2164.36,3184.64 2164.36,5225.21 0,2040.57 -827.11,3887.96 -2164.36,5225.21 -1337.25,1337.25 -3184.65,2164.36 -5225.21,2164.36 -2040.57,0 -3887.96,-827.11 -5225.21,-2164.36 -1337.25,-1337.25 -2164.36,-3184.64 -2164.36,-5225.21 0,-2040.57 827.11,-3887.96 2164.36,-5225.21 1337.25,-1337.25 3184.64,-2164.36 5225.21,-2164.36zm5166.68 2222.9c-1322.27,-1322.26 -3148.96,-2140.09 -5166.68,-2140.09 -2017.72,0 -3844.42,817.85 -5166.68,2140.09 -1322.25,1322.26 -2140.09,3148.95 -2140.09,5166.68 0,2017.72 817.85,3844.42 2140.09,5166.68 1322.26,1322.25 3148.95,2140.09 5166.68,2140.09 2017.71,0 3844.41,-817.84 5166.68,-2140.09 1322.25,-1322.26 2140.09,-3148.95 2140.09,-5166.68 0,-2017.72 -817.85,-3844.42 -2140.09,-5166.68z"/>
   <path class="fil0" d="M13442.41 6886.28c1810.41,0 3449.45,733.83 4635.87,1920.26 1186.43,1186.42 1920.26,2825.46 1920.26,4635.87 0,1810.42 -733.83,3449.46 -1920.26,4635.87 -1186.43,1186.43 -2825.47,1920.26 -4635.87,1920.26 -1810.42,0 -3449.46,-733.83 -4635.87,-1920.26 -1186.43,-1186.42 -1920.26,-2825.46 -1920.26,-4635.87 0,-1810.42 733.83,-3449.46 1920.26,-4635.87 1186.42,-1186.43 2825.46,-1920.26 4635.87,-1920.26zm4583.95 1972.18c-1173.13,-1173.12 -2793.8,-1898.72 -4583.95,-1898.72 -1790.15,0 -3410.83,725.6 -4583.95,1898.72 -1173.12,1173.12 -1898.72,2793.8 -1898.72,4583.95 0,1790.15 725.6,3410.83 1898.72,4583.95 1173.12,1173.12 2793.8,1898.72 4583.95,1898.72 1790.15,0 3410.82,-725.6 4583.95,-1898.72 1173.12,-1173.12 1898.72,-2793.8 1898.72,-4583.95 0,-1790.15 -725.6,-3410.83 -1898.72,-4583.95z"/>
   <path class="fil0" d="M13442.41 7625.72c1606.22,0 3060.39,651.06 4113.01,1703.68 1052.62,1052.61 1703.68,2506.78 1703.68,4113.01 0,1606.23 -651.06,3060.41 -1703.68,4113.01 -1052.62,1052.62 -2506.79,1703.68 -4113.01,1703.68 -1606.23,0 -3060.41,-651.06 -4113.01,-1703.68 -1052.62,-1052.61 -1703.68,-2506.78 -1703.68,-4113.01 0,-1606.23 651.06,-3060.41 1703.68,-4113.01 1052.61,-1052.62 2506.78,-1703.68 4113.01,-1703.68zm4066.95 1749.74c-1040.82,-1040.81 -2478.7,-1684.57 -4066.95,-1684.57 -1588.24,0 -3026.13,643.77 -4066.95,1684.57 -1040.8,1040.81 -1684.57,2478.7 -1684.57,4066.95 0,1588.24 643.77,3026.13 1684.57,4066.95 1040.81,1040.8 2478.7,1684.57 4066.95,1684.57 1588.24,0 3026.12,-643.76 4066.95,-1684.57 1040.8,-1040.81 1684.57,-2478.7 1684.57,-4066.95 0,-1588.24 -643.77,-3026.13 -1684.57,-4066.95z"/>
  </g>
 </g>
</svg>
