<?xml version="1.0" encoding="UTF-8"?>
<!DOCTYPE svg PUBLIC "-//W3C//DTD SVG 1.1//EN" "http://www.w3.org/Graphics/SVG/1.1/DTD/svg11.dtd">
<!-- Creator: CorelDRAW -->
<svg xmlns="http://www.w3.org/2000/svg" xml:space="preserve" width="5.45604in" height="5.45604in" version="1.1" style="shape-rendering:geometricPrecision; text-rendering:geometricPrecision; image-rendering:optimizeQuality; fill-rule:evenodd; clip-rule:evenodd"
viewBox="0 0 6821.32 6821.32"
 xmlns:xlink="http://www.w3.org/1999/xlink"
 xmlns:xodm="http://www.corel.com/coreldraw/odm/2003">
 <defs>
  <style type="text/css">
   <![CDATA[
    .fil37 {fill:none}
    .fil1 {fill:black}
    .fil4 {fill:#00B367}
    .fil18 {fill:#00BAD4}
    .fil25 {fill:#00BDDC}
    .fil7 {fill:#00C2DB}
    .fil15 {fill:#00C4D5}
    .fil14 {fill:#00C5CB}
    .fil30 {fill:#01B6C7}
    .fil19 {fill:#08AEC9}
    .fil33 {fill:#0D233B}
    .fil5 {fill:#10223A}
    .fil20 {fill:#12243A}
    .fil27 {fill:#141A30}
    .fil31 {fill:#18283A}
    .fil10 {fill:#194569}
    .fil11 {fill:#1A3959}
    .fil3 {fill:#1C3E64}
    .fil17 {fill:#244468}
    .fil6 {fill:#253A5A}
    .fil28 {fill:#273C65}
    .fil36 {fill:#2E324E}
    .fil29 {fill:#2FADB6}
    .fil12 {fill:#333333}
    .fil0 {fill:#399452}
    .fil13 {fill:#576F8C}
    .fil32 {fill:#5C3061}
    .fil2 {fill:#666666}
    .fil26 {fill:#949FAA}
    .fil21 {fill:#D1340F}
    .fil34 {fill:#E6F4F7}
    .fil35 {fill:#ECFEFE}
    .fil24 {fill:#EDC02E}
    .fil22 {fill:#F3FDFD}
    .fil23 {fill:#F6F6F6}
    .fil9 {fill:#FBFBFB}
    .fil8 {fill:#FDFCF5}
    .fil16 {fill:white}
   ]]>
  </style>
   <clipPath id="id0">
    <path d="M-0 0l6821.32 0 0 6821.32 -6821.32 0 0 -6821.32z"/>
   </clipPath>
 </defs>
 <g id="Layer_x0020_1">
  <metadata id="CorelCorpID_0Corel-Layer"/>
  <g>
  </g>
  <g style="clip-path:url(#id0)">
   <g>
    <g id="_105553144907744">
     <path class="fil0" d="M4412.68 3929.64c25.99,27.14 79.47,232.45 92.28,285.93l-351.11 93.12c-26.3,-60.93 -63.39,-157.69 -81.11,-225.34l-78.15 -210.24 379.99 -95.06c13.71,37.2 38.88,106.89 38.13,151.59l-0.02 0zm-524.05 460.16c-46.15,-1.22 -47.67,5.77 -92.26,17.65 -37.39,9.96 -43.16,18.54 -65.18,-1.25l-104.07 -267.11c-22.18,-22.37 -63.23,-129.7 -71.64,-167.22l94.57 -10.65c44.57,-37.58 142.44,-38.05 200.65,-59.94l82.7 -16.55c17.44,45.05 38.52,84.35 40.29,130.11 32.07,30.72 102.58,247.67 118.57,304.68 -48.52,30.73 -157.93,34.01 -203.54,70.31l-0.07 -0.02 0 0zm-206.22 54.87l-0.01 0c-61.42,-0.13 -274.78,69.06 -345.69,87.21l-32.62 -50.84 -0 0.01 -72.59 -170.9 -17.93 -23.14 -97.59 -200.65 275.01 -74.13 96.25 -19.77c31.31,33.98 88.4,168.19 90.44,216.4 28.3,24.89 95.52,189.11 104.73,235.81zm-388.97 66.31c-0.08,-0.77 0,-2.61 -0.19,-4.66 0.19,2.02 0.12,3.85 0.19,4.66zm-26.26 0.61l1.72 40.3 -182.99 46.45 -125.41 34.39 -93.53 31.11 -0.08 0.06 -40.68 1.73 -230.68 -459.72 207.73 -49.65 44.08 -2.88c42.47,-32.32 144.26,-44.97 201.48,-55.43 67.36,78.54 154.71,355.25 218.36,413.64zm-464.44 318.97c-3.71,-23.47 -4.83,-7.11 9.83,-23.94 10.01,-11.49 13.97,-12.22 18.32,-15.81l14.75 -10.65c11.93,7.74 16.08,10.37 16.55,10.98 -0.66,-0.72 -4.91,-3.4 -16.51,-10.92l-14.75 10.65c-4.35,3.6 -8.31,4.32 -18.32,15.81 -14.78,16.96 -13.53,0.22 -9.75,24.46l-0.13 -0.59zm61.71 -1.15c0.72,0.82 8.4,1.12 36.36,4.44 24.41,2.9 60.19,-10.04 93.94,-10.65 -3.24,-9.23 -5.42,-13.9 -7.16,-16.29 1.74,2.38 3.94,7.05 7.21,16.35 -33.76,0.62 -69.54,13.54 -93.94,10.65 -28.64,-3.4 -36,-3.64 -36.4,-4.5zm111.36 -30.57c-2.09,-2.98 -4.71,-7.65 -8.1,-15.05 31.41,-15.41 160.97,-11.11 166.12,-9.59 23.42,6.94 30.54,9.7 33.14,12.39 -2.64,-2.68 -9.82,-5.44 -33.1,-12.33 -5.15,-1.52 -134.72,-5.81 -166.12,9.59 3.37,7.34 5.97,12.01 8.05,14.99zm1245.59 -282.51c37.11,-37.82 18.87,-69.35 -8.97,-100.63l1338 -362.2 139.1 -43.96c112.99,-19.21 92.59,-24.25 101.31,-133.25 -30.34,-37.2 -63.15,-488.17 -74.69,-577.91 -12.59,-97.93 -69.4,-508.96 -66.02,-577.72 181.06,-1.87 336.02,-41.31 428.01,-223.78 156.41,-310.25 -98.09,-648.22 -431.81,-603.35 -148.5,19.97 -247.67,96.36 -315.96,228.32 -59.54,115.09 -23.77,147.47 -44.03,257.33l-257 44.61 3.93 -78.82c-18.05,20.09 -13.31,54.14 -15.38,87.27 -57.69,-6.09 -59.57,-0.04 -86.7,14.46l-1240.97 219.7c-33.25,21.89 43.34,18.57 -42.66,18.57 8.33,-40.39 52.29,-14.47 -140.65,15.32l-159 20.2 -109.55 22.96 -107.87 20.46 -316.89 57.22c-26.76,-47.04 -4.4,-57.3 -88.57,-84.25l-18.35 28.04c-44.48,51.69 -18.98,63.29 -32.12,83.24 -18.03,14.52 -3.21,6.86 -31.71,13.7 -52.42,12.59 17.5,-3.29 -70.58,1.21 -25.76,1.32 -57.95,9.66 -80.66,13.51l-522.59 94.07c-41.43,-42.25 -162.91,-313.01 -201.78,-383.49 -120.69,-218.84 -301.38,-180.42 -366.71,-225.76l-57.76 -0.36 -21.81 116.89c179.35,29.78 274.63,39.79 347.08,177 34,64.38 57.95,115.56 89.06,177.99 29.56,59.33 65.44,115.75 89.52,175.72 29.92,50.15 58.12,113.32 84.55,163.19 28.33,53.45 61.49,109.16 79.15,165.27l377.55 734.69c42.34,33.78 299.74,618.91 378.78,719.34 -63.34,41.58 -23.72,-20.2 -100.06,162.88 -158.31,379.63 -69.65,168.24 -17.27,635.54 -80.3,30.96 -109.86,9.32 -79.45,116.42l7.91 56.12c35.59,56.01 18.02,210.83 82.31,242.74 110.48,54.85 95.3,-139.87 108.79,-213.15l5.59 -74.01 9.46 -68.33 144.97 -33.22 -9.22 -96.63 91.84 -15.49c32.96,-17.19 1240.72,-283.05 1293.92,-280.29 23.6,-21.67 826.29,-201.4 902.67,-203.97 -39.71,25.68 -24.72,43.28 -14.03,99.73l8.64 73.67c30.42,27.56 27.15,160 78.34,226.92 74.24,10.41 91.77,-11.98 98.59,-83.49 4.35,-45.57 0.16,-134.49 24.13,-171.63l1.47 -64.14 5.33 -40.06 133.02 -30.06c22.87,-26.78 5.53,-44.36 2.41,-93.14 69.33,-7.11 139.61,-38.75 208.13,-35.22 22.97,-30.88 47.77,-67.27 1.58,-104.35 -54.53,-23.14 -678.87,134.11 -788.39,157.92 -307.19,66.75 -615.02,133.04 -920.37,204.1 -42.97,10.01 -96.22,21.51 -142.83,28.59l-566.72 130.08 -594.04 127.98c-14.31,-62.3 -28.44,-122.95 -41.71,-181.38 -23.39,-103.03 28.23,-183.47 88.64,-326.07 17.17,-40.54 13.47,-38.16 56.05,-51.14 358.75,-109.42 1118.16,-275.69 1375.04,-371.71zm-192.94 27.16l-0.03 0c4.62,-48.08 12.82,-36.93 11.84,-72.86l156.93 -6.45c-2.24,-29.55 -7.9,-75.82 -6.07,-91.47 1.96,-16.96 8.96,-23.39 6.34,-33.3l0.01 0.01c2.66,9.95 -4.37,16.35 -6.33,33.35 -1.82,15.65 3.83,61.93 6.07,91.47l-156.93 6.45c0.99,35.92 -7.2,24.8 -11.84,72.8zm623.93 -830.12l63.53 -16.01 100.31 -25.37 19.31 68.41 31.56 143.82 14.89 62.37 30.24 124.91 -2.01 32.85 -89.02 16.91 -258.29 71.92 -2.27 -36.34c-26.7,-26.96 -117.69,-335.45 -122.8,-392.06l214.54 -51.43 0 0.01zm293.85 -71.2l49.58 -8.77c71.81,-46.93 63.3,1.06 91.2,17l67.9 16.22c27.95,-24.08 14.16,-8.73 28.06,-41.61 17.39,18.61 0.53,1.71 12.94,24.19 22.63,40.98 0.59,15.81 23.24,25.9l12.51 4.01c1.8,0.52 5.08,1.59 6.96,2.04l41.76 -0.69 24.55 167.81 9.33 36.91 12.35 78.34 -0.26 30.6 -77.29 15.49 -168.44 46.43 -104.85 26.75 -10.98 -58.28 -14.3 -60.29c-14.73,-25.84 -70.05,-282.6 -66.58,-310.41l62.31 -11.65 0.01 0zm410.69 -101.68l32.88 -1.87 119.08 -33.2 108.37 -23.68 49.78 413.74 -212.63 55.64 -66.76 22.63 -31.97 -240.92 -19.51 -74.13 -11.32 -109.94 32.09 -8.3 0 0.01zm-2584.13 2.73l30.54 57.23 216.64 429.95 -140.63 33.97 -105.07 21.75 -48.08 21.68c-17.03,5.36 -34.5,8.89 -51.6,12.91 -43.4,10.18 -74.37,21.05 -119.24,21.74 -56.39,-133.45 -268.45,-500.48 -280.93,-575.31 84.22,-16.9 174.88,-35.81 257.11,-50.55 87.9,-15.75 224.94,-54.6 241.25,26.63l0.01 0zm501.17 -51.74l65.92 147.28 120.62 288.56 -375.35 89.89c-19.18,-29.29 -58.22,-98.82 -63.25,-138.62 -38.9,-29.45 -116.77,-205.07 -134.76,-259.92l-45.54 -89.06c23.79,-17.39 164.21,-51.56 198.94,-61.75 61.67,-18.09 142.47,-45.24 204.45,-56.83l28.96 80.44 0.01 0zm1934.03 16.11l-190.55 43.37 -36.66 8.93 -123.75 25.5c-0.47,-140.96 66.39,-375.31 84.21,-527.02l231.26 -38.45 40.07 246.75 33.8 225.64 -38.36 15.29 -0.01 -0.01zm-1474.06 -164.24l106.4 291.36c22.87,31.85 66.42,153.75 58.03,188.7l-56.17 3.53c-10.82,7.65 -1.21,3.33 -23.2,12.64 -5.97,2.53 -18.62,6.5 -25.29,8.31l-150.15 36.44 -121.68 22.53 -102.72 -247.25 -84.34 -191.44 -30.96 -78.45c139.51,-27.97 261.77,-81.9 418.16,-96.87l11.9 50.48 -0 0.02zm535.31 84.65l84.52 285.01c-96.88,16.54 -306.12,87.39 -387.22,85.01l-89.49 -255.26 -98.64 -265.6 426.19 -78.22 64.64 229.07 -0 -0.01zm184.24 -275.78c57.22,-14.76 180.27,-43.11 236.93,-38.45l38.61 159.31 12.81 51.5c1.82,11.44 2.87,26.93 6.39,46.12 5.99,32.6 11.5,46.83 17.93,78.39 7.03,34.53 32.4,127.97 30.24,155.36 -51.5,5.52 -264.37,62.72 -316.99,76.02l-62.12 12.12c-18.97,-38.29 -49.53,-132.41 -48.51,-178.62 -30.27,-30.68 -92.97,-271.27 -104.19,-328.63l188.92 -33.09 -0 -0.03zm430.61 -81.33l-17.54 236.73 -71.39 -8.2 -44.55 -204.72 133.48 -23.8 -0 0zm-2399.75 -70.79c57.55,17.88 39.28,41.13 70.32,92.2l36.5 73.86c0.8,1.25 3.02,3.62 3.88,4.97l107.28 230.17c-15.39,15.81 7.75,2.71 -24.67,15.59l-87.12 15.19c-43.63,7.71 -75.33,16.35 -123.03,20.6 2.97,-20.9 5.37,-40.69 3.43,-62.34l-12.37 -42.94 4.94 112.19 -227.18 38.36c-35.2,-48.54 -84.42,-154.74 -112.3,-209.06 -30.35,-59.1 -75.77,-142.29 -99.71,-205.93l460.05 -82.9 -0 0.03zm3120.66 412.01l-60.53 7.81c-30.99,20.79 10.44,1.48 -45.17,15.44 -14.85,3.73 -26.7,6.22 -44.25,10.75 -35.39,9.15 -61.54,15.33 -98.38,20.06l-41.38 8.36c-23.68,-43.16 -31.74,-135.01 -34.26,-189.48l-50.27 -282.24 320.4 -55.95c20.57,158.17 38.25,306.81 53.83,465.25zm-2887.82 -453.51c30.66,-0.09 9.55,0.44 41.02,-7.88 14.47,-3.83 29.43,-8.66 43.69,-13.12l148.47 -16.16 77.7 -13.17 23.43 67.49c26.25,37.93 15.2,28.28 9.91,72.75 53.47,43.06 26.84,22.03 58.64,64.2 27.52,31.66 28.07,66.47 42.54,110.31 11.67,35.36 29.26,56.09 32.13,92.76 -39.24,19.09 -373.97,76.51 -424.6,73.54 -16.83,-39.41 -38.21,-78.37 -56.05,-113.25 -32.57,-63.65 -20.73,-76.41 -63.51,-95.89 3.12,-3.23 5.41,-9.36 6.75,-11.63l12.78 -21.45c-39.38,-11.04 -36.25,-33.84 -54.41,-72.14 -14.33,-30.22 -29.43,-51.39 -33.65,-89.68l135.19 -26.66 -0.03 -0.01zm834.23 -149.95c9.74,33.81 -0.11,8.08 16.87,44.35 0.27,38.15 99.92,309.02 120.7,350.24 61.18,32.51 -43.2,33.98 -65.37,35.56 -41.64,2.97 -79.18,15.32 -118.49,21.84 -82.85,13.71 -167.53,35.52 -246.16,44.09 -28.72,-116.47 -43,-80.7 -55.25,-125.66 -4.32,-41.95 -18.15,-46.85 -29.13,-85.76 -14.96,-52.98 8.14,-30.19 15.75,-87.55 -52.65,-48.31 -75.62,-19.38 -94.96,-106.9 73.56,-38.45 354.4,-41.88 456.04,-90.21zm510.84 -88.5l119.21 412.67 -428.16 79.75 -146.52 -412.43 455.48 -79.99 -0.01 0zm317.36 -55.77l165.99 -33.09c57.76,10.4 30.06,-16.13 55.28,95.45 7.84,34.69 15.53,67.52 23.44,103.92 7.41,34.14 62.08,179.41 33.67,205.11 -40.85,26.88 -338.62,68.38 -409.42,83.81 -25.68,-44.47 -110.38,-340.23 -126.16,-411.57l257.21 -43.63 -0 0zm540.53 -102.37c34.24,4.9 61.65,-6.1 99.59,-12.22l72.94 -13.37 43.36 266.6 8.86 45.54 8.82 60.02 1.68 39.27 -194.76 41.51c-3.78,-0.03 -22.93,-1.61 -23.06,-1.59l-51.44 17.92 -148.11 19.93c-23.46,-32.95 -96.07,-361.08 -93.71,-409.91l275.88 -53.7 -0.02 0zm618.32 310.83c-42.99,10.34 -94.56,27.39 -153.04,20.96 -16.28,15.38 6.31,6.01 -35.65,17.17l-130.97 22.2 -8.94 -70.64 -2.14 -11.82 -55.28 -327.47 181.14 -27.97c128.67,249.49 208.34,52.45 204.88,377.55l0 0.01zm118.91 -615.54c1.58,-61.67 -19.8,-180.6 34.2,-194.06 86.4,-21.53 58.28,108.76 61.31,194 37.53,0.4 162.07,-6.14 182.87,12.39 21.78,19.4 22.78,51.37 -0.33,71.6 -22.01,19.26 -145.83,11.08 -182.91,10.96 -0.85,104.25 17.8,191.4 -42.38,196.31 -70.18,5.73 -51.89,-89.15 -52.78,-196.33 -116.84,-0.26 -201.98,19.26 -196.37,-51.63 4.71,-59.63 98.67,-42.4 196.39,-43.25l0 0z"/>
     <path class="fil1" d="M3690.2 2666.39l1240.97 -219.7 16.68 -344.37 -295.37 -15.38c-23.77,24.13 -326.13,173.38 -389.98,207.55 -69.96,37.44 -133.83,66.14 -205.13,105.07 -68.31,37.29 -152.22,111.52 -184.82,23.29l-213.01 -414.2 -82.05 -0.96 -918.08 -59.5 -12.43 145.08c39.8,-25.3 41.52,-35.97 83.19,-20.83l846.84 490.79c99.67,58.03 65.47,37.19 93.8,78.97l12.42 16.07c1.19,-1.94 4.18,5.92 6.98,8.16l-0 -0.03z"/>
     <path class="fil2" d="M2561.82 1904.62c-0.94,87.54 -10.67,178.21 -17.98,263.53 -10.54,122.92 6.01,115.55 -54.1,214.04 -37.19,60.95 -178.65,281.88 -174.17,343.19 21.65,28.37 141.54,95.8 177.63,109.89l-1.61 41.31c22.7,-3.85 54.9,-12.2 80.66,-13.51 88.08,-4.49 18.16,11.39 70.58,-1.21 28.5,-6.85 13.68,0.82 31.71,-13.7 -76.46,5.71 -187.06,-72 -242.41,-109.71 6.78,-27.87 80.22,-151.39 91.2,-162.96 36.12,-78.79 88.79,-161.61 129.1,-232.88 24.42,-43.17 44.42,-73.66 67.64,-114.72 37.86,-66.95 28.61,-74.62 104.13,-44.68 14,29.23 329.08,188.66 374.63,223.59l24.6 24.13c37.76,1.45 139.97,66.5 169.36,92.12l151.03 83.76c-6.52,49.4 -21.65,51.34 -36.94,93.42 192.93,-29.79 148.97,-55.71 140.65,-15.32 86,0 9.41,3.33 42.66,-18.57 -2.8,-2.24 -5.79,-10.1 -6.98,-8.16l-12.42 -16.07c-28.33,-41.78 5.87,-20.93 -93.8,-78.97l-846.84 -490.79c-41.65,-15.13 -43.37,-4.46 -83.19,20.83l12.43 -145.08 918.08 59.5 48.57 4.38 11.03 -78.18c25.64,-11.04 19.71,-13.06 50.01,-28.11l-77.83 -8.58 78.35 1.06c-29.43,-19.43 -771.73,-66.56 -905.95,-74.27 -209.15,-12.02 -197.76,-26.88 -219.84,80.64l0 0.03z"/>
     <path class="fil3" d="M5251.88 1295.18c28.28,-80.37 111.82,-67.39 115.22,-0.26 1.94,38.35 -21.56,60.2 -53.04,62.27 -50.6,3.32 -49.55,-30.54 -62.18,-62.01zm186.42 -53.45c-11.87,-69.95 41.25,-128.84 103.44,-138.45 73.24,-11.3 138.77,45.73 146.03,109.16 18.81,164.22 -223.13,184.52 -249.48,29.3l0 -0.01zm-394.88 -36.11c-21.89,-100.59 51.61,-128.98 89.81,-81.52 20.09,24.96 16.48,62.8 -3.68,82.24 -29.33,28.28 -61.94,6.7 -86.13,-0.72l0 0zm102.33 -156.32c21.22,-54.89 28.53,-1.74 69.07,-132.03 42.23,12.32 228.32,128.98 267.2,157.86 -61.36,61.67 -52.53,38.69 -72.89,129.78l-263.36 -155.61 -0.01 0zm-147.54 -243.78c158.16,-81.24 247.75,152.33 117.4,216.41 -154.49,75.94 -264.04,-141.1 -117.4,-216.41zm-245 229.65c-36.33,60.74 -128.7,121.04 -104.68,199.99 49.58,162.93 263.25,-36.97 344.31,-87.92 31.54,48.12 4.91,47.62 55.13,92.4 54.2,14.11 71.73,-4.05 111.29,8.9 20.31,6.65 56.38,34.89 64.38,51.97 49.56,106.04 1.94,69.95 155.03,80.04 -3.99,87.02 -62.84,253.4 -13.34,312.72 27.25,32.66 95.44,47.98 137.17,13.42 30.41,-25.17 157.4,-327.89 180.29,-375.91 123.89,-259.9 -133.71,-261.31 -186.22,-292.05l-224.2 -139.3c-146.85,-92.12 -180.95,-287.08 -405.73,-0.47l-113.45 136.21 0.01 -0.01z"/>
     <path class="fil4" d="M6430.48 2978.56c5.45,-45.14 -16.55,-152.53 39.3,-152.42 56.78,0.11 35.62,105.76 40.49,151.23 53.3,6.2 105.11,-8.27 143.52,17.66 29.85,76.55 -81.21,58.44 -138.72,58.36 -19.34,65.3 21.25,178.35 -66.56,147.06 -25.89,-40.1 -10.52,-91.67 -17.36,-145.7 -54.35,-2.66 -112.3,4.19 -151.01,-19.59 -0.14,-83.35 69.88,-52.05 150.34,-56.61l0.01 0zm85.77 -287.27c-170.02,-5.23 -305.44,61.84 -358.28,225.77 -112.88,350.18 362.89,593.32 582.24,284.11 140.92,-198.66 7.08,-452.97 -223.96,-509.88z"/>
     <g>
      <path class="fil5" d="M536.43 1740.21c33.91,21.39 48.95,43.06 58.62,78.82 -19.62,30.57 -42.33,48.98 -80,57.01 -38.91,-27.95 -51.49,-49.37 -56.97,-93.14 25.63,-15.8 41.19,-33.91 78.35,-42.71l-0 0.01zm-151.2 -599.23c37.11,-19.74 38.71,-25.46 76.35,-37.63 21.61,21.28 46.99,51.53 53.7,84.94 -21.51,18.74 -47.21,45.34 -85.76,52.53 -26.43,-31.83 -49.25,-58.45 -50.95,-99.93l-0 0 -0.01 -0.02 6.67 0.1c0.17,-3.56 0.88,-21.42 0.97,-26.92l47.74 -17.17 0.01 0 -47.74 17.17c-0.1,5.5 -0.8,23.36 -0.97,26.92l-0.01 0.01zm-26.97 4.03l-0.29 -0.23 0.3 0.26 -0 0 -0.01 -0.03zm-0.44 -0.39c-0.19,-0.22 -0.3,-0.42 -0.34,-0.58 0.04,0.16 0.15,0.36 0.34,0.58zm40.69 103.81c-0.14,0.17 -0.3,0.31 -0.47,0.42 0.17,-0.11 0.33,-0.25 0.47,-0.42zm84.66 2.72l0.03 -0.01c23.35,-5.87 7.98,-0.56 29.85,-11.56 14,-7.03 17.98,-11.21 34.07,-17.73l19.86 21.37 -0 0.01 37.8 65.3 -90.12 58.41c-16.22,-25.92 -37.53,-52.56 -55.95,-82.44 9.62,-15.97 3.57,-7.11 13.71,-21.32l10.75 -12.02zm-10.84 -164.16c-16.54,-5.49 -27.17,5.86 -37.48,9.57 10.31,-3.73 20.93,-15.08 37.48,-9.57zm191.91 563.65c20.04,28.57 46.49,55.09 56.97,97.27 -41.59,15.19 -47.6,35.48 -91.71,49.28 -18.18,-28.54 -38.49,-52.23 -52.23,-85.06l86.99 -61.49 -0.01 0zm118.08 -80.67l36.58 41.92c8.1,11.4 14.13,21.58 24.98,35.39 -22.36,29.29 -50.54,48.33 -82.96,64.59 -27.51,-19.65 -47.64,-53.81 -63.57,-88.24l84.95 -53.67 0.02 0zm-391.21 -61.67c16.47,34.43 28.25,49.59 51.43,86.23l-23.59 21.45c-6.04,4.9 -12.04,9.17 -18.38,13.67 -14.89,10.54 -29.02,19.65 -47.58,27.83 -14.27,-30.74 -36.25,-53.13 -54.92,-84.32l93.04 -64.85zm31.67 -20.69c20.82,-25.96 58.29,-50.29 85.83,-58.52 25.57,25.8 38.51,45.85 53.37,79.9 -21.61,29.19 -54.08,44.19 -79.01,59.08 -20.6,-17.49 -49.61,-54.24 -60.2,-80.47l0.02 0.01zm-200.5 -42.75c20.03,-29.69 39.96,-41.71 78.95,-51.58 33.28,30.71 46.13,40.5 54.71,83.66 -25.34,27.83 -44.92,46.99 -91.27,56.67 -22.89,-38.61 -38,-40.3 -42.38,-88.74l-0.01 -0zm408.05 -103c23.55,30.52 39.38,47.15 56.93,81.62 -18.22,25.89 -57.2,51.93 -86.7,61.35 -24.02,-25.13 -41.28,-51.73 -57.87,-82.73l87.64 -60.24 0.01 -0zm-292 19.84c31.11,-21.52 45.52,-40.5 89.55,-54.63l52.2 84.34c-24.29,23.58 -52.59,44.57 -82.64,57.95l-37.22 -43.03c-8.28,-14.34 -15.86,-30.11 -21.91,-44.61l0.01 -0.01zm-205.67 -34.45c23.43,-26 46.27,-46.36 83.04,-56.31l57.96 80.72c-30.61,29.36 -42.23,36.05 -79.34,58.16 -27.62,-17.07 -45.44,-47.46 -61.67,-82.57zm261.86 -74c-3.79,34.36 -26.53,50.62 -82.58,73.96 -21.55,-23.11 -46.68,-55.4 -59.71,-84.13 19.04,-21.23 55.26,-48.62 92.18,-55.15l42.9 56.48 0.03 0 0.06 0.02 0 0 0.09 0.06 0 0 0.12 0.08 0 0 0.15 0.11 0 0 0.18 0.13 0 0 0.21 0.15 0 0 0.23 0.17 0 0 0.26 0.19 0 0 0.28 0.2 0 0 0.3 0.21 0 0 0.32 0.22 0 0 0.33 0.23 0 0 0.35 0.23 0 0 0.36 0.24 0 0 0.37 0.24 0 0 0.38 0.24 0 0 0.39 0.24 0 0 0.39 0.23 0 0 0.4 0.22 0 0 0.4 0.22 0 0 0.4 0.2 0 0 0.4 0.19 0 0 0.4 0.17 0 0 0.39 0.15 0 0 0.39 0.13 0 0 0.38 0.11 0 0 0.37 0.08 0 0 0.36 0.06 0 0 0.35 0.03 0.34 0 0.32 -0.03 0 0 0.31 -0.07 0 0 0.28 -0.11 0 0 0.26 -0.15 -3.54 4.4zm-342.72 52.61l306.08 436.33c46.35,69.58 92.69,153.25 146.47,217.56l322.67 -224.47c33.34,-29.43 52.41,-24.6 87.14,-65.93l-220.42 -329.03c-1.24,-1.87 -2.94,-4.49 -4.18,-6.33l-170.01 -237.82c-27.78,-42.56 -22.15,-68.66 -73.21,-65.89l-82.31 61.35c-31.31,20.4 -72.86,49.19 -108.69,72.72 -36.48,23.95 -62.31,44.16 -99.32,71.11 -32.15,23.4 -62.65,42.48 -104.25,70.41l0.02 -0.01z"/>
     </g>
     <path class="fil4" d="M3659.56 2008.64l213.01 414.2c25.11,-43.64 442.06,-213.02 497.55,-272.38 -66.49,-30.34 -123.97,-15.15 -196.9,-119.35 -55.36,-79.11 -43.83,-176.76 -8.63,-265.51 -19.21,-26.09 7.58,-7.9 -35.95,-11.73 -29.98,32.38 -191.1,104.25 -236.5,128.41 -78.12,41.56 -165.67,81.32 -232.58,126.36l0 -0z"/>
     <polygon class="fil1" points="3606.77,2800.11 3753.29,3212.56 4181.44,3132.8 4062.23,2720.13 "/>
     <path class="fil6" d="M51.8 1305.88c41.61,-27.92 72.11,-47.01 104.25,-70.41 37.01,-26.95 62.84,-47.16 99.32,-71.11 35.82,-23.53 77.37,-52.32 108.69,-72.72l82.31 -61.35c51.06,-2.77 45.43,23.35 73.21,65.89l170.01 237.82c1.24,1.85 2.93,4.46 4.18,6.33l220.42 329.03c-34.73,41.34 -53.8,36.5 -87.14,65.93l-322.67 224.47c-53.77,-64.31 -100.12,-147.99 -146.47,-217.56l-306.08 -436.33 -0.02 0.01zm397.16 620.13c18.98,51.92 68.73,115.68 96.8,148.6 103.8,6.41 364.25,-253.46 459.4,-282.89 7.94,-88.14 -66.09,-146.3 -106.68,-206.96l-368.84 -533.31 -36.89 -58.81c-47.94,-60.77 -46.99,-80.99 -130.35,-21.35l-372.35 256.1c-2.28,76.31 66.88,144.23 104.46,199.08 27.61,40.26 331.2,492.13 354.45,499.53l0 0.01z"/>
     <path class="fil7" d="M2713.28 2476.32c-1.55,-39.49 28.15,-69.16 46.86,-98.52 35.26,13.28 63.73,26.26 84.57,50.64 -5.4,39.93 -21.08,62.71 -52.49,84.26 -23.49,-6.52 -60.76,-25.34 -78.94,-36.38l-0 0zm-189.92 99.18c48.46,27.14 -6.06,-11.77 18.59,22.58 16.94,23.62 -16.76,-7.68 15.29,21.25 18.95,17.1 51.5,19.47 85.26,26.12 0,59.93 4.11,4.16 -22.17,24.55l62.08 38.65c-0.43,19.5 -1.08,29.3 -2.24,40.68l26.51 15.61 18.35 -28.04c84.16,26.93 61.81,37.22 88.57,84.25l316.89 -57.22c1.61,-3 3.85,-7.05 4.78,-9.07 0.85,-1.84 3.15,-6.42 4.02,-8.38l5.8 -18.68c-16.48,-14.64 -31.5,-17.33 -48.83,-34.7 2.71,-38.57 26.49,-61.21 41.32,-92.37l46.71 6.52 33.34 -7.72c-1.21,-36.89 18.97,-5.21 -14.97,-38.63 -28.18,-27.73 -70.58,-0.75 -102.08,1.61 -4.19,43.89 -22.87,75.35 -53.04,101.64l-86.12 -43.47 13.01 -48.14 -21.02 -9.66 -35.08 25.07 -81.55 -42.51 8.97 -51.5c11.08,-63.51 4.13,-49.68 72.92,-51.64 64.61,-1.85 -44.61,33.41 27.12,-1.69l-36.66 -20.23c8.6,-43.7 10.6,-23.09 27.25,-63.27 1.22,-34.95 4.88,-35.82 11.57,-67.52 -31.44,-3.33 -49.17,-18.09 -70.45,-31.6l-56.17 -32.76 2.9 -41.88c-75.54,-29.94 -66.29,-22.27 -104.13,44.68 -23.22,41.06 -43.22,71.53 -67.64,114.72 -40.32,71.26 -92.97,154.08 -129.1,232.88l-0 -0.07z"/>
     <path class="fil3" d="M3334.82 3468.17l84.34 191.44c84.32,44.09 196.44,96.61 224.39,224.73l150.15 -36.44c6.67,-1.81 19.32,-5.8 25.29,-8.31 22,-9.3 12.37,-4.98 23.2,-12.64 -30.91,-21.38 -15.62,7.77 -25.74,-31.76 -3.23,-12.59 -1.47,-48.65 -0.34,-62.67 2.43,-30.15 6.64,-82.69 24.22,-97.82l-106.4 -291.36c-50.92,30.74 -268.89,76.6 -350.07,105.27 -18.59,6.56 -3.21,1.03 -24.08,9.27 -6.04,2.38 -14.87,9.63 -16.55,6.76 -1.44,-2.46 -5.59,2.35 -8.4,3.52l-0 -0z"/>
     <path class="fil3" d="M3650.02 3961.15c24.98,11.89 15.82,3.42 14.78,30.04 -0.78,19.67 -5.74,40.6 -9.96,59.27 -5.38,23.85 -12.92,74.13 -27.74,88.57l104.09 267.17c22.03,19.79 27.8,11.21 65.18,1.25 44.59,-11.87 46.1,-18.87 92.26,-17.65 45.58,-36.34 155.05,-39.61 203.59,-70.35 -15.99,-57.01 -86.5,-273.96 -118.57,-304.68l-100.99 -77.95c-0.88,-1.05 -2.94,-3.15 -3.78,-4.21l-18.22 -31.4c-58.2,21.88 -156.08,22.36 -200.65,59.94l-0 0zm-280.48 519.88l-0.01 0 -18.61 -8.44c-1.77,-0.91 -3.55,-1.78 -5.31,-2.64 1.76,0.86 3.54,1.73 5.32,2.64l18.61 8.44zm-28.46 -13.29c-2.24,-1.11 -4.48,-2.24 -6.68,-3.44 2.21,1.2 4.44,2.33 6.68,3.44zm-7.43 -3.84c-5.38,-2.97 -10.61,-6.39 -15.56,-10.97 4.95,4.58 10.17,8 15.56,10.97zm-16.91 -12.25c-3.79,-3.72 -7.41,-8.17 -10.81,-13.7 -0.56,-0.91 -1.09,-1.83 -1.62,-2.77 0.53,0.94 1.07,1.86 1.63,2.77 3.4,5.53 7.01,9.99 10.79,13.7zm-14.11 -19.61l-0.88 -1.75c-1.41,-2.87 -2.43,-5.3 -3.65,-8.49l-14.07 -68.96 0.01 0 14.07 68.96c1.24,3.19 2.25,5.6 3.65,8.49l0.87 1.75zm40.62 -78.65c40.47,0.12 60.33,-3.81 97.35,-35.91 1.91,-1.66 4.09,-4.01 6.16,-5.6l125.82 -44.55 0 0 -125.81 44.55c-2.08,1.61 -4.25,3.95 -6.16,5.6 -37.03,32.12 -56.89,36.04 -97.36,35.91zm219.9 66.81c0.72,1.64 1.3,2.17 1.75,2.03 -0.45,0.12 -1.03,-0.43 -1.76,-2.08 0.83,-3.4 1.49,-4.86 1.96,-5.15 -0.48,0.32 -1.13,1.81 -1.96,5.2zm-331.7 -110.11l72.61 170.94 32.62 50.84c70.91,-18.15 284.27,-87.34 345.69,-87.21 -9.16,-46.65 -76.43,-210.98 -104.74,-235.87 -9.32,9.13 -4.08,2.67 -13.05,9.42 -1.11,0.83 -3.78,2.74 -4.98,3.69l-28.9 23.69c-97.66,76.76 -175.47,69.25 -248.2,61.51l-51.04 2.99 0 -0zm-384.16 -156.76l32.78 2.99 15.05 60.23c7.42,23.96 13.62,43.42 19.93,67.41 11.99,45.58 22.55,86.73 36.58,132.11 15.53,50.22 22.48,95.29 37.77,136.47 23.36,62.9 14.13,29.39 70.76,35.08 37.69,3.79 2.38,-20.33 25.74,10.74l182.99 -46.45 -1.72 -40.35c-63.66,-58.36 -151.03,-335.11 -218.38,-413.66 -57.23,10.46 -159.01,23.11 -201.48,55.43l-0.01 0z"/>
     <path class="fil8" d="M4508.94 1741.23c195.12,196.39 -29.2,409.19 -203.69,328.63 -198.8,-91.79 -111.38,-403.33 101.35,-370.83l-10.74 -15.68c-67.87,27.59 -142.41,-19.97 -149.72,65.25 -29.58,-12.02 -42.81,-22.64 -65.23,-22.34 -40.4,0.56 -5.36,-2.46 -26.75,7.48l-25.51 20.12c43.53,3.83 16.74,-14.36 35.95,11.73 -35.2,88.76 -46.74,186.4 8.63,265.51 72.94,104.21 130.41,89.02 196.9,119.35 -55.49,59.37 -472.45,228.74 -497.55,272.38 32.62,88.24 116.51,14 184.82,-23.29 71.3,-38.91 135.16,-67.63 205.13,-105.07 63.84,-34.16 366.21,-183.42 389.98,-207.55l29.98 -17.57c3.16,-1.57 5.73,-2.6 8.8,-3.99 192.28,-87.18 47.11,-33.41 118.22,-73.11 38.58,-21.53 22.41,1.97 62.71,-15.05 -43.55,-2.73 -48.48,9.23 -58.91,-26.15l-14.57 -16.08c-41.94,22.01 -153.64,88.23 -193.97,92.16 11.71,-33.02 27.77,-51.37 34.79,-103.39 15.91,-117.83 -59.55,-241.68 -164.52,-265.43l21.82 49.09c33.62,50.75 43.42,6.32 12.07,33.83l0 -0.01z"/>
     <path class="fil9" d="M4051.75 1658.69c8.66,-25.6 1.94,-22.94 36.6,-40.43 24.35,-12.29 33.51,-13.45 62.64,-13.95 -3.21,34.01 3.06,30.74 -36.42,51.94 -61.91,33.26 -62.81,2.44 -62.83,2.44l0.01 0zm167.16 -96.22c25.7,-28.34 126.13,-79.28 170.19,-92.68l27.38 62.23c-39.74,22.73 -134.1,79.41 -179.35,75.54l-18.22 -45.08zm-174.14 28.92l-49.55 32.19 13.78 118.91 -117.85 62.14c-43.36,-71.92 -22.51,-31.52 -112.27,-5.2l-54.7 30.36c0.55,58.86 34.31,52.83 -36.57,68.47l-78.35 -1.06 77.83 8.58c-30.28,15.05 -24.36,17.07 -50.01,28.11l-11.03 78.18 -48.57 -4.38 82.05 0.96c66.92,-45.04 154.47,-84.79 232.58,-126.36 45.4,-24.16 206.52,-96.02 236.5,-128.41l25.51 -20.12c21.39,-9.94 -13.65,-6.92 26.75,-7.48 22.41,-0.3 35.64,10.32 65.23,22.34 7.31,-85.23 81.87,-37.66 149.72,-65.25l10.74 15.68c53.64,7.9 62.94,9.95 102.33,42.2 31.34,-27.51 21.55,16.93 -12.07,-33.83l-21.82 -49.09c-19.41,-17.5 -60.85,-21.52 -94.09,-26.76 67.88,-45.57 180.16,-76.63 197.66,-116.48l-19.65 -44.58 -77.56 21.75c-48.53,-32.02 -48.33,-57.2 -104.72,-71.97l-39.68 30.36c-55.73,31.59 -260.3,138.69 -292.21,140.72l0.02 0.02z"/>
     <path class="fil0" d="M1456.35 1321.59l24.29 3.53c40.01,-44.72 66.8,-115.56 109.68,-163.07 129.07,-142.97 263.33,-205.85 462.07,-142.33 530.21,169.41 289.65,627.9 282.09,715.77l24.05 6.85c52.95,-13.02 90.18,-165.34 100.67,-213.74 24.31,-112.09 19.04,-179.11 -14.28,-285.52 -65.34,-134.03 -137.5,-201.11 -273.74,-267.77 -157.57,-69.08 -315.9,-103.7 -474.94,-6.79 -87.98,53.63 -151.31,127.68 -199.99,217.72 -12.84,23.73 -27.25,46.83 -37.55,70.51 -14.96,34.37 -16.57,47.71 -2.35,64.83l0 0.01z"/>
     <path class="fil10" d="M5281.02 3285.03c51.6,10.01 59.71,8.66 94.93,32.88 10.16,55.25 -0.13,101.89 -19.28,148.24 36.84,-4.73 62.98,-10.91 98.38,-20.06 17.54,-4.54 29.39,-7.02 44.25,-10.75 55.61,-13.95 14.19,5.36 45.17,-15.44 1.87,-58.08 15.53,-178.95 39.76,-219l-33.05 -254.07 -320.4 55.95 50.27 282.24 -0.02 0z"/>
     <path class="fil1" d="M3877.03 3542.74l89.49 255.26c81.11,2.38 290.34,-68.47 387.22,-85.01l-84.52 -285.01c-27.32,17.11 -59.14,5.93 -59.15,5.93 -224.65,-23.38 -248.93,68.79 -333.04,108.81l0 0.01z"/>
     <path class="fil1" d="M2774.43 5717.66l-5.59 74.01c150.95,48.79 132.99,308.03 -51.23,328.73 -200.21,22.51 -259.38,-227.63 -132.23,-309.16l-7.64 -49.16 -7.91 -56.12c-103.94,41.29 -184.08,173.06 -141.96,313.61 91,303.59 501.83,241.02 537.09,-19.98 31.23,-231.03 -126.53,-278.6 -169.92,-312.61 -13.35,13.65 -7.77,-8.67 -20.63,30.66l0.02 0.02z"/>
     <path class="fil1" d="M5403.77 5164.91l-1.29 48.03c160.42,83.6 93.67,322.33 -76.91,326.72 -147.63,3.79 -218.11,-140.3 -166.13,-253.21 26.88,-58.39 49.65,-33.58 43.28,-93.32l-8.64 -73.67c-120.42,45.73 -186.18,203.29 -131.03,350.61 96.75,258.44 517.08,210.16 531.25,-90.77 6.94,-147.18 -77.36,-237.53 -189.05,-278.54l-1.47 64.14 0 0.02z"/>
     <path class="fil1" d="M4379.59 2664.38l-257.21 43.63c15.78,71.34 100.48,367.1 126.16,411.57 70.8,-15.44 368.57,-56.94 409.42,-83.81 28.42,-25.7 -26.25,-170.97 -33.67,-205.11 -7.91,-36.39 -15.61,-69.23 -23.44,-103.92 -25.2,-111.57 2.49,-85.06 -55.28,-95.45 5.51,80.56 21.42,17.16 22,105.51 0.42,63.95 23.72,116.87 10.75,158.89 -20.09,65.17 -40.04,9.75 -39.9,142.13 -38.32,0.17 -50.08,9.49 -88.14,15.95 -66.36,11.29 2.22,-0.62 -65.18,-5.27 -22.7,-45.33 -12.65,-120.57 -12.61,-192.43 0.04,-63.95 7.61,-137.72 7.09,-191.69l0 -0z"/>
     <path class="fil2" d="M2717.16 2958.58c32.69,45.05 128.34,81.68 180.34,113.11 59.27,35.81 112.26,64.18 168.3,104.31l-395.77 -28.93 -12.78 21.45c-1.33,2.27 -3.63,8.41 -6.75,11.63 42.77,19.48 30.94,32.25 63.51,95.89 17.85,34.89 39.22,73.84 56.05,113.25 50.64,2.97 385.36,-54.43 424.6,-73.54 -2.87,-36.67 -20.46,-57.4 -32.13,-92.76 -14.46,-43.83 -15.02,-78.65 -42.54,-110.31 -8.08,14.66 9.91,31.71 -41.49,5.12l-202.81 -120.49c-35.62,-20.2 -58.92,-24.88 -73.84,-59.74 -14.24,4.46 -29.22,9.29 -43.69,13.12 -31.47,8.33 -10.37,7.78 -41.02,7.88l0.03 0z"/>
     <path class="fil10" d="M4980.78 3559.87c11.44,-80.63 8.63,-116.67 91.01,-129.23 1.13,-24.24 14.46,-96.21 21.92,-122.44 18.92,-66.52 56.48,-48.14 118.85,-41.55l-40.07 -246.75 -231.26 38.45c-17.82,151.7 -84.67,386.06 -84.21,527.02l123.75 -25.5 0 0z"/>
     <path class="fil3" d="M4368.72 3513.94l4.7 -14.34c20.2,41.23 33.25,42.92 57.22,81.9 24.68,40.13 16.94,60.47 48.71,98.97 51.92,-13.11 134.03,-18.49 170.25,-48.03l-38.13 -0.03c-7.83,-80.76 -45.9,-166.2 -67.74,-251.56l-54.98 -190.61c-23.2,-54.52 -20.14,1.51 -29.22,-34.14 -0.79,-3.06 -4.28,-2.3 -6.09,-3.88l-188.92 33.09c11.21,57.36 73.91,297.96 104.19,328.63l0 0z"/>
     <path class="fil1" d="M3021.89 3878.57c5.03,39.8 44.06,109.35 63.25,138.62l375.35 -89.89 -120.62 -288.56c-33.58,33.65 8.2,10.57 -51.66,22.43 -159.37,31.57 -198.84,81.62 -266.32,217.4zm191.65 408.37l0 -0 17.93 23.13 51.04 -2.99c72.74,7.74 150.54,15.25 248.2,-61.51l28.9 -23.69c1.22,-0.94 3.88,-2.85 4.98,-3.69 8.97,-6.75 3.73,-0.3 13.05,-9.42 -2.05,-48.21 -59.13,-182.41 -90.44,-216.4l-96.25 19.77 0.01 0.01 0 0.01 -275.01 74.13 97.59 200.65 -0 -0.01zm183.91 -260.79c0.21,0.05 0.35,0.19 0.38,0.26 -0.01,-0.07 -0.16,-0.23 -0.41,-0.29 -0.16,-0.19 -0.37,-0.48 -0.64,-0.91 0.29,0.45 0.51,0.74 0.68,0.94z"/>
     <path class="fil11" d="M3877.03 3542.74c84.11,-40.04 108.39,-132.19 333.04,-108.81 0.01,0 31.83,11.18 59.15,-5.93l-64.64 -229.07 -426.19 78.22 98.64 265.6z"/>
     <path class="fil1" d="M4886.08 3005.68l34.04 -443.68 -275.88 53.7c-2.34,48.84 70.26,376.97 93.71,409.91l148.11 -19.93 0.01 0z"/>
     <path class="fil11" d="M4072.72 4083.35c17.73,67.65 54.82,164.41 81.11,225.34l351.11 -93.12c-12.81,-53.48 -66.29,-258.79 -92.28,-285.93 -13.58,43.52 -16.64,47.74 -56.37,74.11 -17.52,11.63 -58.69,40.65 -78.12,49.49 -82.24,37.44 -165.46,16.37 -205.46,30.09l0 0.01z"/>
     <path class="fil1" d="M4072.72 4083.35c40.01,-13.73 123.22,7.35 205.46,-30.09 19.43,-8.85 60.6,-37.88 78.12,-49.49 39.73,-26.37 42.78,-30.6 56.37,-74.11 0.75,-44.69 -24.42,-114.37 -38.13,-151.59l-379.99 95.06 78.15 210.24 0.02 -0.01z"/>
     <path class="fil3" d="M2887.13 3618.65c17.99,54.85 95.86,230.47 134.76,259.92 67.47,-135.79 106.95,-185.85 266.32,-217.4 59.86,-11.86 18.07,11.23 51.66,-22.43l-65.92 -147.28c-73.54,-12.45 -273.43,85.01 -377.09,91.26 -0.27,1.72 -5.01,26.26 -5.12,26.72l-4.59 9.22 -0.01 0z"/>
     <path class="fil3" d="M4560.64 4156.84c45.43,-13.65 135.36,-31.4 178.22,-57.66 17.65,-87.92 -111.49,-320 -86.48,-385.83l-214.54 51.43c5.12,56.6 96.1,365.08 122.8,392.06z"/>
     <path class="fil2" d="M3348.2 2844.31l65.89 -2.35c-19.37,54.08 -109.3,199.51 -148.53,263.65 -50.51,82.6 -19.56,58.64 -61.88,73.44 12.25,44.97 26.55,9.2 55.25,125.66 78.64,-8.57 163.32,-30.36 246.16,-44.09 39.3,-6.52 76.85,-18.87 118.49,-21.84 22.18,-1.58 126.56,-3.06 65.37,-35.56 -20.13,26.1 8.57,11.92 -41.32,16.14l-289.48 -21.23 172.37 -308.6c29.68,-44.94 8.17,-19.57 37.73,-36.54 -16.99,-36.27 -7.12,-10.55 -16.87,-44.35 -138.14,42.71 -151.07,-10.19 -203.19,35.68l0 0.01z"/>
     <path class="fil1" d="M894.33 2277.47c-43.43,68.96 -14.76,117.23 33.28,159.73 82.63,41.38 102.97,-8.85 197.04,12.59 59.25,13.51 142.6,48.18 196.28,28.14l21.81 -116.89 -3.37 -27.83c-42.15,-6.5 -225.2,-46.36 -249.49,-62.44 -4.87,-3.23 -111.08,-116.53 -195.55,6.69l-0 0z"/>
     <path class="fil12" d="M1982.82 1772.8c-23.29,33.37 -57.9,52.98 -86.39,80.55 -112.59,109.03 -104.78,86 -35.92,202.4l45.27 0.86 332.31 -292.71c1.69,-71.89 -43.2,-127.22 -124.91,-99.73 -23.75,8 -95.13,81.78 -130.35,108.63z"/>
     <path class="fil12" d="M1515.99 1421.69l-8.46 444.33 9.43 31.7 113.51 -3.75c35.06,-50.83 33.28,-33.76 33.8,-117.42 1.03,-169.46 39.61,-257.02 -24.46,-373.28 -68.86,-5.53 -79.23,-13.51 -123.81,18.42l-0.01 0z"/>
     <path class="fil1" d="M4379.59 2664.38c0.52,53.97 -7.05,127.74 -7.09,191.69 -0.04,71.86 -10.1,147.11 12.61,192.43 67.41,4.65 -1.18,16.55 65.18,5.27 38.06,-6.48 49.82,-15.78 88.14,-15.95 -0.14,-132.38 19.81,-76.96 39.9,-142.13 12.95,-42.03 -10.34,-94.95 -10.75,-158.89 -0.58,-88.34 -16.47,-24.94 -22,-105.51l-165.99 33.09z"/>
     <path class="fil3" d="M4261.22 1872.53l-3.59 -56.32 52.63 1.24c-0.03,-0.17 -35.17,-39.02 63.86,-47.37 60.11,-5.07 100.52,17.44 124.67,64.59 6.59,12.88 9.56,19.28 11.71,39.38 11.93,111.79 -98.97,171.89 -180.42,130.83 -34.5,-17.4 -58.92,-67.22 -68.38,-105.79 -8.89,-36.25 -16.73,-5.14 -0.49,-26.56zm247.71 -131.3c-39.4,-32.25 -48.69,-34.31 -102.33,-42.2 -212.74,-32.49 -300.16,279.04 -101.35,370.83 174.49,80.56 398.81,-132.23 203.69,-328.63l-0.01 0z"/>
     <path class="fil2" d="M4652.5 2086.95l295.37 15.38 -16.68 344.37c27.14,-14.5 29.02,-20.55 86.7,-14.46 2.07,-33.12 -2.67,-67.18 15.38,-87.27 8.83,-50.09 16.78,-197.14 20.59,-264.11 6.92,-122.2 -77.48,-98.12 -181.64,-103.62 -40.32,17.02 -24.15,-6.48 -62.71,15.05 -71.13,39.68 74.05,-14.07 -118.22,73.11 -3.09,1.39 -5.64,2.44 -8.8,3.99l-29.98 17.57 0 -0.01z"/>
     <path class="fil13" d="M5202.69 5193.11c6.37,59.74 -16.41,34.93 -43.28,93.32 -51.97,112.91 18.51,257 166.13,253.21 170.58,-4.38 237.33,-243.12 76.91,-326.72l1.29 -48.03c-23.99,37.14 -19.79,126.07 -24.13,171.63 -6.82,71.53 -24.35,93.9 -98.59,83.49 -51.19,-66.92 -47.91,-199.35 -78.34,-226.92l-0 0.01z"/>
     <path class="fil14" d="M3080.86 2407.76c39.77,0.64 61.25,16.74 87.78,28.54 -1.48,49.86 -13.62,66.22 -45.02,98.79 -34.39,-8.01 -64.45,-33.74 -87.39,-55.55l44.62 -71.79 0.01 0zm-144.5 -50.74l29.25 -31.83 85.24 51.77 -56.51 88.33 -48.57 -24.75c-71.73,35.12 37.49,-0.16 -27.12,1.69 -68.79,1.97 -61.85,-11.86 -72.92,51.64 32.38,-25.23 17.06,-5.63 34.78,-39.96 48.53,10.34 56.9,12.32 89.18,49.34l-16.3 59.55 21.02 9.66 22.22 -24.91c10.97,-12.73 8.57,-11.46 20.1,-21.97l83.82 36.86c31.5,-2.35 73.91,-29.35 102.08,-1.61 33.94,33.41 13.77,1.74 14.97,38.63l-33.34 7.72 29.78 30.91c19.43,22.3 6.83,-6.61 15.81,29.76 7.88,29.26 -4.62,17.35 32.82,6.49 22.96,2.68 24.1,3.29 40.73,11.92 2.46,1.28 16.88,10.1 20,12.33 23.35,16.8 11.27,7.97 24.49,21.86l159 -20.2c15.3,-42.08 30.42,-44.02 36.94,-93.42l-151.03 -83.76c-22.14,19.7 -7.47,16.21 -42.37,23.62 29.69,14.59 61.15,28.89 80.5,52.77 -12.28,40.21 -22.08,56.95 -50.72,83.71 -41.76,-11.7 -73.96,-25.1 -87.31,-58.72 -38.13,34.03 32.82,-34.5 -12.1,14.97l-23.36 24.13c-0.75,-54.06 1.24,-60.98 -23.83,-88.47 -1.24,-1.36 -3.49,-3.72 -4.76,-5.07l-72.62 -45.38c36.51,-48.21 17.98,-30.72 38.84,-85.53l28.39 -8.16 -24.6 -24.13c-45.55,-34.95 -360.63,-194.37 -374.63,-223.59l-2.9 41.88 56.17 32.76c21.28,13.51 39.01,28.27 70.45,31.6 -6.7,31.7 -10.35,32.57 -11.57,67.52l0 0.01z"/>
     <path class="fil13" d="M2768.84 5791.69c-13.47,73.28 1.69,268 -108.79,213.15 -64.29,-31.92 -46.72,-186.75 -82.31,-242.74l7.64 49.16c-127.16,81.55 -67.99,331.68 132.23,309.16 184.22,-20.7 202.18,-279.94 51.23,-328.73l-0 0z"/>
     <path class="fil1" d="M4453.46 3152.2c1.82,1.58 5.31,0.82 6.09,3.88 9.09,35.65 6.03,-20.37 29.22,34.14l54.98 190.61c21.84,85.36 59.91,170.8 67.74,251.56l38.13 0.03 30.06 8.83c13.02,-28.99 12.82,21.88 4.09,-44 -5.41,-40.92 -79.3,-239.86 -83.88,-309.4l94.8 6.56c44.47,-10.87 8.08,20.69 34.29,-21.35l-38.61 -159.31c-56.65,-4.67 -179.71,23.68 -236.93,38.45l0.02 0.01z"/>
     <path class="fil4" d="M4475.02 1658.33c104.96,23.75 180.43,147.6 164.52,265.43 -7.03,52.02 -23.07,70.37 -34.79,103.39 40.33,-3.95 152.05,-70.15 193.97,-92.16 -31.82,-65.28 -73.14,-148.29 -110.72,-215.59 -37.59,-67.32 -68.16,-146.43 -109.41,-204.31 -17.5,39.85 -129.78,70.91 -197.66,116.48 33.24,5.24 74.67,9.26 94.09,26.76z"/>
     <path class="fil2" d="M2458.53 3347.41l12.37 42.94c1.94,21.65 -0.46,41.43 -3.43,62.34 47.7,-4.26 79.4,-12.91 123.03,-20.6l87.12 -15.19c32.42,-12.88 9.27,0.22 24.67,-15.59l-107.28 -230.17c-0.86,-1.35 -3.09,-3.72 -3.88,-4.97l-36.5 -73.86c-31.04,-51.07 -12.78,-74.33 -70.32,-92.2l-25.79 347.32 0 -0.02z"/>
     <path class="fil1" d="M3688.95 3203.22c-20.78,-41.22 -120.43,-312.09 -120.7,-350.24 -29.56,16.96 -8.05,-8.4 -37.73,36.54l-172.37 308.6 289.48 21.23c49.89,-4.22 21.19,9.96 41.32,-16.14l0.01 0z"/>
     <path class="fil3" d="M2879.32 4064.36l140.63 -33.97 -216.64 -429.95c-35.22,36.54 -21.36,9.58 -61.45,36.06 -10.8,73.19 85.06,311.33 98.64,411.36l38.82 16.5z"/>
     <path class="fil1" d="M2595.1 3736.16l31.46 99.84 79.74 -8.67 67.97 258.78 105.07 -21.75 -38.82 -16.5c-13.58,-100.03 -109.43,-338.16 -98.64,-411.36 40.09,-26.49 26.23,0.47 61.45,-36.06l-30.54 -57.23c-74.37,31.14 -113.8,24.91 -111.38,134.24l-70.02 17.06 3.73 41.67 -0.02 -0.01z"/>
     <path class="fil1" d="M2670.04 3147.06l395.77 28.93c-56.04,-40.13 -109.03,-68.5 -168.3,-104.31 -52,-31.43 -147.66,-68.07 -180.34,-113.11l-135.19 26.66c4.22,38.29 19.32,59.46 33.65,89.68 18.16,38.32 15.03,61.12 54.41,72.14l0 -0z"/>
     <path class="fil15" d="M3203.67 3179.04c42.33,-14.79 11.37,9.16 61.88,-73.44 39.22,-64.14 129.16,-209.56 148.53,-263.65l-65.89 2.35c-56.81,15.39 -220.85,31.38 -252.87,54.52 19.34,87.53 42.31,58.59 94.96,106.9 -7.61,57.36 -30.69,34.57 -15.75,87.55 10.98,38.91 24.81,43.79 29.13,85.76l0.01 0z"/>
     <path class="fil16" d="M4950.51 3964.23l14.3 60.29 115.82 31.54 168.44 -46.43 9.63 -64.22 3.06 -41.58c-12.4,-18.46 20.48,-3.19 -25.62,-16.58l-108.39 -20.78c-51.97,-11.82 -86.4,-24.16 -144.45,-26.4l-32.79 124.16 -0.01 0z"/>
     <path class="fil1" d="M2960.52 4632.72l125.41 -34.39c-23.36,-31.05 11.95,-6.95 -25.74,-10.74 -56.62,-5.69 -47.4,27.81 -70.76,-35.08 -15.29,-41.16 -22.25,-86.25 -37.77,-136.47 -14.03,-45.38 -24.6,-86.52 -36.58,-132.11 -6.31,-23.99 -12.51,-43.45 -19.93,-67.41l-15.05 -60.23 -32.78 -2.99 -44.08 2.88 76.47 292.81 -67.04 32.95 40.92 131.86c48.77,-0.34 47.6,-7.51 86.61,8.76 63.79,26.62 -37.27,-3.36 20.33,10.13l-0.01 0z"/>
     <path class="fil17" d="M5389.79 3538.62c18.66,38.41 6.07,60.29 -2.9,100.36 -3.92,17.49 -7.18,43.1 -11.79,59.04 -8.41,29.02 -6.23,18.82 -19.45,34.84l31.97 240.92 66.76 -22.63c-2.53,-88.07 57.45,-320.86 62.98,-390.27 3.63,-45.57 -0.62,-43.43 -8.52,-55.43l-119.08 33.2 0.01 -0.02z"/>
     <path class="fil1" d="M4310.27 1817.44c0.13,1.06 1.57,23.65 1.55,23.77 -6.28,35.62 -12.94,20.48 -16.05,27.61 -1.32,3 -6.14,2.34 -7.9,2.58 -9.69,1.35 -17.29,1.41 -26.65,1.12 -16.24,21.44 -8.41,-9.69 0.49,26.56 9.46,38.57 33.88,88.39 68.38,105.79 81.45,41.06 192.35,-19.04 180.42,-130.83 -2.14,-20.1 -5.11,-26.51 -11.71,-39.38 -24.15,-47.15 -64.55,-69.65 -124.67,-64.59 -99.04,8.34 -63.89,47.19 -63.86,47.37z"/>
     <path class="fil5" d="M5144.22 3767.08c-27.02,-21.94 -51.11,-51.52 -69.18,-93.97 71.26,-7.41 55.64,33.05 110.64,-7.18l4.4 53.22c33.38,-16.91 17.33,-39.28 57.69,-7.83 -29.09,31.53 -54.82,46.15 -103.55,55.75zm-148.42 -133.68c-12.87,171.18 -80.1,152.71 144.91,197.43 65.72,13.06 100.6,31.26 164.19,17.46l-24.55 -167.81 -41.76 0.69c-1.88,-0.44 -5.17,-1.52 -6.96,-2.04l-12.51 -4.01c-22.64,-10.1 -0.62,15.06 -23.24,-25.9 -12.4,-22.47 4.45,-5.57 -12.94,-24.19 -13.9,32.88 -0.1,17.53 -28.06,41.61l-67.9 -16.22c-27.9,-15.94 -19.38,-63.93 -91.2,-17l0.01 -0.01z"/>
     <path class="fil1" d="M5145.77 1049.3l263.36 155.61c20.36,-91.1 11.53,-68.11 72.89,-129.78 -38.88,-28.87 -224.97,-145.53 -267.2,-157.86 -40.54,130.3 -47.85,77.15 -69.07,132.03l0.01 -0z"/>
     <path class="fil0" d="M2255.12 1786.1l-333.04 286.41c-9.48,35.78 5.26,39.93 36.24,65.23 90.15,-24.55 231.96,-162.13 282.43,-214.39 31.14,-34.62 70.77,-58.58 71.06,-115.49l-13.04 -13.31c-30.08,-23.33 -12.15,-21.09 -43.64,-8.44l0 -0z"/>
     <path class="fil0" d="M1476.66 1865.92l12.52 -441.94c-7.57,-36.91 14.44,-14.53 -23.79,-24.16l-30.09 0.36c-26.4,20.13 -17.71,3.04 -29.11,48.74l-22.08 188.04c-1.19,74.44 -6.81,185.02 28.99,244.57 66.42,10.27 59.84,-0.58 63.57,-15.59l-0 -0.01z"/>
     <path class="fil2" d="M4679.68 3641.25c41.34,-12.68 42.78,-28.9 116.67,-36.83 2.17,-27.38 -23.2,-120.83 -30.24,-155.36 -6.43,-31.56 -11.95,-45.79 -17.93,-78.39 -3.52,-19.18 -4.57,-34.67 -6.39,-46.12l-12.81 -51.5c-26.22,42.04 10.18,10.48 -34.29,21.35l-94.8 -6.56c4.58,69.55 78.45,268.49 83.88,309.4 8.73,65.89 8.94,15.02 -4.09,44l-0 0z"/>
     <path class="fil1" d="M5554.48 1249.91c15.82,72.19 -57.4,74.97 -42.64,3.73l42.64 -3.73zm44.18 30.01c-19.04,-38.99 -12.52,-10.58 -2.5,-46.57 64.81,-6.64 58.94,51.63 2.5,46.57zm-63.88 -74.97c-0.01,-1.58 -2.38,5.01 -3.4,12.23l-42.7 -3.59 4.62 -39.02c15.74,-6.62 -17.27,-3.52 22.97,-5.83 21.28,-1.22 20,18.29 20.67,28.61 0.1,1.49 -2.14,9.09 -2.16,7.59l-0.01 0zm34.09 -52.85c53.07,-26.75 85.03,56.83 3.39,43.32l-3.39 -43.32zm-130.54 89.63c26.33,155.22 268.28,134.93 249.48,-29.3 -7.27,-63.43 -72.79,-120.46 -146.03,-109.16 -62.2,9.6 -115.32,68.5 -103.44,138.45l0 0.01z"/>
     <path class="fil1" d="M4652.39 3713.37c-25.01,65.83 104.12,297.91 86.48,385.83 -42.86,26.26 -132.8,44 -178.22,57.66l2.27 36.34 258.29 -71.92 -2.25 -42.96 -103.02 -380.95 -63.53 16.01 -0.01 -0.01z"/>
     <path class="fil2" d="M4920.12 2562.01l-34.04 443.68 51.44 -17.92c0.13,-0.01 19.29,1.57 23.06,1.59l11.37 -107.77 19.86 -58.56 10.58 -22.67 17.3 -250.57c-37.93,6.12 -65.34,17.1 -99.59,12.22l0.01 0z"/>
     <path class="fil1" d="M5049.44 876.87c14.93,-38.36 6.64,-31.73 51.08,-29.41 1.94,31.77 -2.97,25.54 -3.29,37.22l4.93 26.29c14.57,29.06 26.13,4.19 12.92,44.64 -23.44,7.77 -24.19,9.91 -50.91,-7.98 -69.75,86.12 -53.19,-17.54 -53.21,-17.76 -2.85,-43.09 -20.14,-13.67 -23.17,-58.05 27.75,-13.98 28.46,-4.82 61.65,5.04l0 0.01zm-51.2 -71.36c-146.63,75.3 -37.08,292.35 117.4,216.41 130.34,-64.08 40.76,-297.63 -117.4,-216.41z"/>
     <path class="fil1" d="M2887.13 3618.65l4.59 -9.22c0.11,-0.44 4.87,-24.99 5.12,-26.72 103.66,-6.23 303.56,-103.71 377.09,-91.26l-28.96 -80.44c-61.98,11.59 -142.79,38.74 -204.45,56.83 -34.73,10.19 -175.15,44.36 -198.94,61.75l45.54 89.06 0 -0z"/>
     <path class="fil1" d="M3334.82 3468.17c2.8,-1.18 6.95,-5.97 8.4,-3.52 1.68,2.87 10.51,-4.38 16.55,-6.76 20.87,-8.24 5.48,-2.71 24.08,-9.27 81.19,-28.67 299.16,-74.53 350.07,-105.27l-11.9 -50.48c-156.4,14.97 -278.65,68.9 -418.16,96.87l30.96 78.45 0.01 -0.01z"/>
     <path class="fil18" d="M2674.55 2848.17c13.14,-19.94 -12.37,-31.56 32.12,-83.24l-26.51 -15.61 -29.17 30.85c-7.83,8.7 -10.45,11.47 -21.08,22.6l-73.86 -42.92c-1.44,-42.45 18.87,-65.06 34.24,-95.26l30.04 5.41c26.27,-20.37 22.17,35.39 22.17,-24.55 -33.76,-6.65 -66.3,-9.02 -85.26,-26.12 -32.05,-28.93 1.65,2.37 -15.29,-21.25 -24.65,-34.36 29.86,4.57 -18.59,-22.58 -11,11.57 -84.42,135.09 -91.2,162.96 55.35,37.7 165.96,115.43 242.41,109.71l-0.02 0z"/>
     <path class="fil16" d="M5071.8 3430.66l170.48 37.07 4.09 24.57 -33.8 -225.64c-62.37,-6.59 -99.93,-24.96 -118.85,41.55 -7.47,26.23 -20.79,98.21 -21.92,122.44l0 0.01z"/>
     <path class="fil7" d="M3292.89 2624.46c11.56,-17.56 16.08,-26.37 26.93,-43.11 2.25,-3.48 9.53,-14.9 13.08,-19.01 10.98,-12.69 5.74,-6.92 17.52,-15.64 34.92,-7.41 20.23,-3.92 42.37,-23.62 -29.39,-25.63 -131.6,-90.67 -169.36,-92.12l-28.39 8.16c-20.86,54.8 -2.33,37.32 -38.84,85.53l72.62 45.38c1.28,1.35 3.53,3.71 4.76,5.07 25.07,27.5 23.07,34.42 23.83,88.47l23.36 -24.13c44.92,-49.48 -26.03,19.05 12.1,-14.97l0 -0z"/>
     <path class="fil1" d="M3643.55 3884.32c-27.95,-128.11 -140.09,-180.63 -224.39,-224.73l102.72 247.25 121.68 -22.53 -0 0z"/>
     <polygon class="fil1" points="4750.57,3094.67 4795.13,3299.4 4866.51,3307.61 4884.07,3070.88 "/>
     <path class="fil19" d="M2801.87 2937.59c14.92,34.87 38.22,39.55 73.84,59.74l202.81 120.49c51.4,26.59 33.41,9.55 41.49,-5.12 -31.8,-42.18 -5.17,-21.15 -58.64,-64.2 5.3,-44.47 16.34,-34.8 -9.91,-72.75l-32.22 45.14c-37.55,-10.87 -54.36,-24.05 -79.54,-47.22 1.72,-37.47 0.91,-23.38 10.64,-52.25l-148.47 16.16 -0 0.01z"/>
     <path class="fil1" d="M4983.3 3840.06c58.05,2.24 92.48,14.59 144.45,26.4l108.39 20.78c46.09,13.39 13.21,-1.87 25.62,16.58 21.58,-20.78 21.03,-13.15 52.52,-18.64l-9.33 -36.91c-63.6,13.8 -98.48,-4.4 -164.19,-17.46 -225.01,-44.74 -157.78,-26.25 -144.91,-197.43l-49.58 8.77c41.42,46.27 -66.08,95.12 37.06,197.89l-0.02 0.01z"/>
     <path class="fil10" d="M4950.51 3964.23l32.79 -124.16c-103.14,-102.77 4.35,-151.63 -37.06,-197.89l-62.31 11.65c-3.49,27.8 51.83,284.57 66.58,310.41l0 -0z"/>
     <path class="fil16" d="M5356.65 3466.14c19.17,-46.35 29.45,-92.99 19.28,-148.24 -35.22,-24.22 -43.33,-22.87 -94.93,-32.88 2.51,54.46 10.58,146.32 34.26,189.48l41.38 -8.36 0.01 0z"/>
     <path class="fil3" d="M4218.91 1562.46l18.22 45.08c45.25,3.88 139.61,-52.81 179.35,-75.54l-27.38 -62.23c-44.06,13.39 -144.5,64.32 -170.19,92.68z"/>
     <polygon class="fil10" points="4960.6,2989.36 5155.34,2947.85 5153.68,2908.58 4971.95,2881.59 "/>
     <polygon class="fil1" points="1476.66,1865.92 1507.53,1866.02 1515.99,1421.69 1489.2,1423.98 "/>
     <path class="fil20" d="M5207.71 2850.71l2.14 11.82 175.56 31.27c58.48,6.43 110.05,-10.64 153.04,-20.96l-338.54 -57.4 7.8 35.28z"/>
     <path class="fil21" d="M222.27 1444.86c4.38,48.44 19.5,50.14 42.38,88.74 46.35,-9.68 65.93,-28.84 91.27,-56.67 -8.58,-43.16 -21.42,-52.95 -54.71,-83.66 -38.99,9.88 -58.92,21.91 -78.95,51.58l0.01 0z"/>
     <path class="fil21" d="M458.08 1782.92c5.48,43.76 18.05,65.18 56.97,93.14 37.69,-8.04 60.39,-26.45 80,-57.01 -9.68,-35.76 -24.71,-57.45 -58.62,-78.82 -37.16,8.79 -52.71,26.92 -78.35,42.71l0 -0.01z"/>
     <path class="fil22" d="M2974.4 2572.49l-13.01 48.14 86.12 43.47c30.15,-26.29 48.84,-57.75 53.04,-101.64l-83.82 -36.86c-11.53,10.51 -9.13,9.23 -20.1,21.97l-22.22 24.91 0 0z"/>
     <path class="fil23" d="M394.5 1253.26l-7.22 -8.86 -42.9 -56.48c-36.91,6.53 -73.15,33.93 -92.18,55.15 13.04,28.73 38.18,61.02 59.71,84.13 56.07,-23.33 78.79,-39.6 82.58,-73.96l0 0.01z"/>
     <path class="fil23" d="M483.19 1251.13l-10.77 12.04c-10.15,14.22 -4.09,5.34 -13.71,21.32 18.43,29.88 39.73,56.51 55.95,82.44l90.12 -58.41 -37.8 -65.3 -19.87 -21.38c-16.1,6.52 -20.07,10.7 -34.07,17.73 -21.86,10.98 -6.5,5.69 -29.85,11.56l0 -0.01z"/>
     <path class="fil1" d="M4980.78 3559.87l36.66 -8.93c11.59,-48.6 8.79,-84.98 69.26,-79.31 33.83,3.17 96.93,15.58 121.29,35.94l38.36 -15.29 -4.09 -24.57 -170.48 -37.07c-82.38,12.56 -79.56,48.59 -91.01,129.23l0.01 0z"/>
     <path class="fil21" d="M385.23 1140.98l-6.67 -0.1c1.71,41.48 24.52,68.1 50.95,99.93 38.55,-7.19 64.26,-33.8 85.76,-52.53 -6.69,-33.4 -32.09,-63.66 -53.7,-84.94 -37.64,12.18 -39.25,17.88 -76.35,37.63l0.01 0.01z"/>
     <path class="fil21" d="M2845.73 2493.88l-8.97 51.5 81.55 42.51 35.08 -25.07 16.3 -59.55c-32.27,-37.01 -40.66,-39.01 -89.18,-49.34 -17.71,34.34 -2.38,14.73 -34.78,39.96l0 -0z"/>
     <path class="fil9" d="M577.26 1712.14c13.74,32.82 34.06,56.51 52.23,85.06 44.12,-13.8 50.12,-34.09 91.71,-49.28 -10.48,-42.18 -36.91,-68.71 -56.97,-97.27l-86.99 61.49 0.01 0z"/>
     <path class="fil1" d="M3627.1 4139.03c14.82,-14.44 22.36,-64.72 27.74,-88.57 4.21,-18.66 9.19,-39.6 9.96,-59.27 1.05,-26.62 10.21,-18.15 -14.78,-30.04l-94.57 10.65c8.41,37.52 49.45,144.85 71.64,167.22l0.01 0z"/>
     <path class="fil22" d="M3292.89 2624.46c13.35,33.61 45.54,47.02 87.31,58.72 28.64,-26.76 38.44,-43.49 50.72,-83.71 -19.35,-23.88 -50.83,-38.18 -80.5,-52.77 -11.77,8.72 -6.53,2.93 -17.52,15.64 -3.53,4.11 -10.82,15.53 -13.08,19.01 -10.85,16.74 -15.38,25.56 -26.93,43.11l0 -0.01z"/>
     <path class="fil24" d="M3145.07 2727.76l45.43 2.93c4.95,-14 3.8,-15.52 12.36,-29.85 1.18,-1.97 2.85,-4.64 4.18,-6.62 1.39,-2.07 3.26,-4.62 4.75,-6.61 22.9,-30.34 1.25,-1.27 18.06,-19.74 -8.97,-36.37 3.62,-7.47 -15.81,-29.76l-29.78 -30.91 -46.71 -6.52c-14.82,31.17 -38.59,53.81 -41.32,92.37 17.32,17.37 32.33,20.06 48.83,34.7l0.01 0z"/>
     <path class="fil18" d="M697.36 1623.63c15.94,34.43 36.06,68.59 63.57,88.24 32.42,-16.27 60.6,-35.31 82.96,-64.59 -10.87,-13.81 -16.88,-24.01 -24.98,-35.39l-36.58 -41.92 -84.95 53.67 -0.02 0z"/>
     <path class="fil24" d="M2680.17 2749.32c1.16,-11.37 1.81,-21.18 2.24,-40.68l-62.08 -38.65 -30.04 -5.41c-15.39,30.21 -35.68,52.81 -34.24,95.26l73.86 42.92c10.63,-11.11 13.25,-13.9 21.08,-22.6l29.17 -30.85 0.01 0.01z"/>
     <path class="fil23" d="M542.7 1402.1c16.6,31 33.85,57.6 57.87,82.73 29.49,-9.42 68.47,-35.46 86.7,-61.35 -17.56,-34.46 -33.38,-51.1 -56.93,-81.62l-87.64 60.24 -0.01 0z"/>
     <path class="fil24" d="M2713.28 2476.32c18.19,11.04 55.46,29.86 78.94,36.38 31.41,-21.55 47.08,-44.33 52.49,-84.26 -20.83,-24.38 -49.29,-37.34 -84.57,-50.64 -18.71,29.36 -48.41,59.04 -46.86,98.52l0 0z"/>
     <path class="fil25" d="M338.32 1361.7c6.04,14.5 13.61,30.27 21.91,44.61l37.22 43.03c30.05,-13.38 58.35,-34.37 82.64,-57.95l-52.2 -84.34c-44.02,14.13 -58.42,33.12 -89.55,54.63l-0.01 0.01z"/>
     <path class="fil26" d="M422.77 1487.62c10.6,26.23 39.6,62.98 60.2,80.47 24.93,-14.89 57.4,-29.89 79.01,-59.08 -14.86,-34.06 -27.8,-54.1 -53.37,-79.9 -27.54,8.22 -65.01,32.57 -85.83,58.52l-0.02 -0.01z"/>
     <path class="fil9" d="M298.06 1573.16c18.66,31.19 40.65,53.58 54.92,84.32 18.57,-8.19 32.69,-17.29 47.58,-27.83 6.34,-4.49 12.33,-8.77 18.38,-13.67l23.59 -21.45c-23.17,-36.63 -34.96,-51.79 -51.43,-86.23l-93.04 64.85z"/>
     <path class="fil25" d="M132.65 1327.26c16.22,35.1 34.04,65.5 61.67,82.57 37.11,-22.11 48.73,-28.8 79.34,-58.16l-57.96 -80.72c-36.77,9.95 -59.61,30.31 -83.04,56.31z"/>
     <path class="fil22" d="M2936.37 2357.03c-16.66,40.18 -18.65,19.57 -27.25,63.27l36.66 20.23 48.57 24.75 56.51 -88.33 -85.24 -51.77 -29.25 31.83 0 0.01z"/>
     <polygon class="fil1" points="1905.79,2056.6 1922.08,2072.5 2255.12,1786.1 2238.1,1763.9 "/>
     <path class="fil24" d="M3036.24 2479.54c22.94,21.81 53.01,47.54 87.39,55.55 31.4,-32.57 43.55,-48.93 45.02,-98.79 -26.53,-11.82 -48.01,-27.91 -87.78,-28.54l-44.62 71.79 -0.01 -0z"/>
     <path class="fil1" d="M3842.18 3826.94l56.17 -3.53c8.38,-34.95 -35.16,-156.86 -58.03,-188.7 -17.59,15.13 -21.81,67.67 -24.22,97.82 -1.12,14.03 -2.88,50.08 0.34,62.67 10.12,39.53 -5.17,10.38 25.74,31.76l0 -0.01z"/>
     <path class="fil23" d="M5049.44 876.87c-33.2,-9.86 -33.9,-19.02 -61.65,-5.04 3.02,44.38 20.31,14.96 23.17,58.05 0.01,0.22 -16.54,103.86 53.21,17.76 26.72,17.89 27.47,15.75 50.91,7.98 13.21,-40.45 1.66,-15.58 -12.92,-44.64l-4.93 -26.29c0.32,-11.67 5.23,-5.43 3.29,-37.22 -44.44,-2.34 -36.15,-8.96 -51.08,29.41l0 -0.01z"/>
     <path class="fil1" d="M5251.88 1295.18c12.64,31.47 11.59,65.33 62.18,62.01 31.47,-2.07 54.98,-23.92 53.04,-62.27 -3.4,-67.13 -86.94,-80.11 -115.22,0.26z"/>
     <path class="fil1" d="M5043.44 1205.62c24.18,7.42 56.8,29 86.13,0.72 20.16,-19.44 23.75,-57.27 3.68,-82.24 -38.19,-47.46 -111.7,-19.07 -89.81,81.52l-0 0z"/>
     <polygon class="fil18" points="4971.95,2881.59 5153.68,2908.58 5144.86,2848.57 4991.81,2823.03 "/>
     <path class="fil23" d="M5144.22 3767.08c48.71,-9.59 74.44,-24.22 103.55,-55.75 -40.36,-31.46 -24.31,-9.09 -57.69,7.83l-4.4 -53.22c-55.01,40.23 -39.37,-0.23 -110.64,7.18 18.07,42.45 42.15,72.03 69.18,93.97z"/>
     <path class="fil24" d="M2950.33 2921.42c-9.74,28.87 -8.91,14.79 -10.64,52.25 25.2,23.17 42,36.36 79.54,47.22l32.22 -45.14 -23.43 -67.49 -77.7 13.17 0 -0z"/>
     <path class="fil1" d="M4368.72 3513.94c-1.02,46.23 29.55,140.33 48.51,178.62l62.12 -12.12c-31.77,-38.48 -24.04,-58.82 -48.71,-98.97 -23.98,-38.99 -37.01,-40.66 -57.22,-81.9l-4.7 14.34 -0.01 0.01z"/>
     <path class="fil5" d="M5017.44 3550.94l190.55 -43.37c-24.36,-20.36 -87.47,-32.76 -121.29,-35.94 -60.47,-5.67 -57.67,30.71 -69.26,79.31z"/>
     <path class="fil1" d="M3850.67 3901.23l18.22 31.4c0.83,1.06 2.9,3.15 3.78,4.21l100.99 77.95c-1.77,-45.76 -22.84,-85.06 -40.29,-130.11l-82.7 16.55 -0 0z"/>
     <path class="fil19" d="M5385.41 2893.8l-175.56 -31.27 8.94 70.64 130.97 -22.2c41.95,-11.15 19.37,-1.8 35.65,-17.17l0 0z"/>
     <path class="fil1" d="M5336.15 3658.73l19.51 74.13c13.22,-16.02 11.04,-5.83 19.45,-34.84 4.62,-15.92 7.87,-41.54 11.79,-59.04 8.97,-40.07 21.56,-61.95 2.9,-100.36l-32.88 1.87c4.64,40.99 -1.97,90.65 -20.78,118.24l0 0.01z"/>
     <path class="fil27" d="M4881.98 3946.59l-14.89 -62.37 -65.63 -4.4 2.35 47.29c8.44,8.37 22.38,25.5 30.99,30.38 61.05,34.66 42.73,-3.35 47.18,-10.91l0 0z"/>
     <path class="fil28" d="M4801.46 3879.82l65.63 4.4 -31.56 -143.82c-1.69,2.47 -4.08,5.6 -5.04,7.47 -17.43,33.84 -21.95,77.93 -29.03,131.96z"/>
     <path class="fil29" d="M3145.07 2727.76l-5.8 18.68c-0.86,1.97 -3.17,6.55 -4.02,8.38 -0.94,2.02 -3.16,6.06 -4.78,9.07l107.87 -20.46 24.34 -69.07c-37.44,10.85 -24.94,22.77 -32.82,-6.49 -16.81,18.48 4.84,-10.6 -18.06,19.74 -1.49,1.97 -3.36,4.54 -4.75,6.61 -1.33,1.98 -3,4.65 -4.18,6.62 -8.55,14.33 -7.41,15.85 -12.36,29.85l-45.43 -2.93 -0.01 0z"/>
     <polygon class="fil5" points="5002.41,2800.36 4991.81,2823.03 5144.86,2848.57 5136,2803.03 "/>
     <path class="fil30" d="M4051.75 1658.69c0.01,0 0.92,30.83 62.83,-2.44 39.49,-21.2 33.21,-17.93 36.42,-51.94 -29.13,0.5 -38.3,1.66 -62.64,13.95 -34.66,17.49 -27.95,14.83 -36.6,40.43l-0.01 0z"/>
     <path class="fil21" d="M3238.35 2743.45l109.55 -22.96c-13.21,-13.9 -1.15,-5.07 -24.49,-21.86 -3.12,-2.24 -17.54,-11.06 -20,-12.33 -16.63,-8.63 -17.77,-9.23 -40.73,-11.92l-24.34 69.07 0.01 0z"/>
     <path class="fil17" d="M5261.75 3903.83l-3.06 41.58c25.93,17.65 26.73,10.71 67.91,18.13l-12.35 -78.34c-31.49,5.48 -30.94,-2.14 -52.52,18.64l0.01 -0.01z"/>
     <path class="fil31" d="M5249.06 4009.61l77.29 -15.49 0.26 -30.6c-41.18,-7.41 -41.98,-0.49 -67.91,-18.13l-9.63 64.22 -0 0z"/>
     <path class="fil22" d="M4261.22 1872.53c9.35,0.29 16.94,0.22 26.65,-1.12 1.75,-0.25 6.59,0.42 7.9,-2.58 3.12,-7.14 9.78,8.01 16.05,-27.61 0.01,-0.11 -1.42,-22.7 -1.55,-23.77l-52.63 -1.24 3.59 56.32z"/>
     <path class="fil32" d="M1435.3 1400.16l30.09 -0.36 15.23 -74.69 -24.29 -3.53c-10.27,14.55 -5.38,-12.49 -17.32,31.97 -4.08,15.22 -3.24,31.23 -3.75,46.6l0.02 0z"/>
     <path class="fil33" d="M5336.15 3658.73c18.81,-27.58 25.41,-77.24 20.78,-118.24l-32.09 8.3 11.32 109.94 -0 0z"/>
     <path class="fil23" d="M5568.86 1152.1l3.39 43.32c81.62,13.51 49.68,-70.05 -3.39,-43.32z"/>
     <path class="fil22" d="M5554.48 1249.91l-42.64 3.73c-14.76,71.24 58.47,68.46 42.64,-3.73z"/>
     <path class="fil34" d="M5598.65 1279.92c56.44,5.06 62.31,-53.21 -2.5,-46.57 -10.01,36 -16.52,7.58 2.5,46.57z"/>
     <path class="fil35" d="M5493.28 1174.56l-4.62 39.02 42.7 3.59c1.02,-7.24 3.39,-13.81 3.4,-12.23 0.01,1.49 2.25,-6.1 2.16,-7.59 -0.66,-10.32 0.62,-29.83 -20.67,-28.61 -40.24,2.31 -7.24,-0.79 -22.97,5.83l0.01 0z"/>
     <path class="fil36" d="M2298.76 1794.55l13.04 13.31 46.74 -65.51 -24.05 -6.85c-20.99,40.43 -26.66,21.42 -35.72,59.07l-0 -0.01z"/>
    </g>
   </g>
  </g>
  <polygon class="fil37" points="-0,0 6821.32,0 6821.32,6821.32 -0,6821.32 "/>
 </g>
</svg>
