<?xml version="1.0" encoding="UTF-8"?>
<!DOCTYPE svg PUBLIC "-//W3C//DTD SVG 1.1//EN" "http://www.w3.org/Graphics/SVG/1.1/DTD/svg11.dtd">
<!-- Creator: CorelDRAW -->
<svg xmlns="http://www.w3.org/2000/svg" xml:space="preserve" width="5.45604in" height="5.45604in" version="1.1" style="shape-rendering:geometricPrecision; text-rendering:geometricPrecision; image-rendering:optimizeQuality; fill-rule:evenodd; clip-rule:evenodd"
viewBox="0 0 4751.03 4751.03"
 xmlns:xlink="http://www.w3.org/1999/xlink"
 xmlns:xodm="http://www.corel.com/coreldraw/odm/2003">
 <defs>
  <style type="text/css">
   <![CDATA[
    .fil38 {fill:none}
    .fil1 {fill:black}
    .fil4 {fill:#00B367}
    .fil18 {fill:#00BAD4}
    .fil26 {fill:#00BDDC}
    .fil7 {fill:#00C2DB}
    .fil15 {fill:#00C4D5}
    .fil14 {fill:#00C5CB}
    .fil31 {fill:#01B6C7}
    .fil19 {fill:#08AEC9}
    .fil34 {fill:#0D233B}
    .fil5 {fill:#10223A}
    .fil20 {fill:#12243A}
    .fil28 {fill:#141A30}
    .fil32 {fill:#18283A}
    .fil10 {fill:#194569}
    .fil11 {fill:#1A3959}
    .fil3 {fill:#1C3E64}
    .fil17 {fill:#244468}
    .fil6 {fill:#253A5A}
    .fil29 {fill:#273C65}
    .fil22 {fill:#291727}
    .fil37 {fill:#2E324E}
    .fil30 {fill:#2FADB6}
    .fil12 {fill:#333333}
    .fil0 {fill:#399452}
    .fil13 {fill:#576F8C}
    .fil33 {fill:#5C3061}
    .fil2 {fill:#666666}
    .fil27 {fill:#949FAA}
    .fil21 {fill:#D1340F}
    .fil35 {fill:#E6F4F7}
    .fil36 {fill:#ECFEFE}
    .fil25 {fill:#EDC02E}
    .fil23 {fill:#F3FDFD}
    .fil24 {fill:#F6F6F6}
    .fil9 {fill:#FBFBFB}
    .fil8 {fill:#FDFCF5}
    .fil16 {fill:white}
   ]]>
  </style>
   <clipPath id="id0">
    <path d="M-0 0l4751.03 0 0 4751.03 -4751.03 0 0 -4751.03z"/>
   </clipPath>
 </defs>
 <g id="Layer_x0020_1">
  <metadata id="CorelCorpID_0Corel-Layer"/>
  <g>
  </g>
  <g style="clip-path:url(#id0)">
   <g>
    <g id="_105553225148288">
     <path class="fil0" d="M3073.42 2736.98c18.1,18.9 55.35,161.9 64.27,199.15l-244.55 64.86c-18.32,-42.44 -44.15,-109.83 -56.49,-156.95l-54.43 -146.43 264.66 -66.21c9.55,25.91 27.08,74.45 26.56,105.58zm166.95 -150.63l44.25 -11.15 69.87 -17.67 13.45 47.65 21.98 100.17 10.37 43.44 21.06 87 -1.4 22.88 -62 11.78 -179.9 50.09 -1.58 -25.31c-18.6,-18.78 -81.97,-233.64 -85.53,-273.07l149.43 -35.82zm204.67 -49.59l34.53 -6.11c50.02,-32.69 44.09,0.74 63.52,11.84l47.29 11.3c19.47,-16.77 9.86,-6.08 19.54,-28.98 12.11,12.96 0.37,1.19 9.01,16.85 15.76,28.54 0.41,11.01 16.19,18.04l8.71 2.79c1.25,0.36 3.54,1.11 4.85,1.42l29.09 -0.48 17.1 116.88 6.5 25.71 8.6 54.56 -0.18 21.31 -53.83 10.79 -117.32 32.34 -73.03 18.63 -7.65 -40.59 -9.96 -41.99c-10.26,-18 -48.79,-196.83 -46.37,-216.2l43.4 -8.11zm286.04 -70.82l22.9 -1.3 82.94 -23.12 75.48 -16.49 34.67 288.17 -148.1 38.75 -46.5 15.76 -22.27 -167.8 -13.59 -51.63 -7.88 -76.57 22.35 -5.78zm-1799.84 1.9l21.27 39.86 150.89 299.46 -97.95 23.66 -73.18 15.15 -33.49 15.1c-11.86,3.73 -24.03,6.19 -35.94,8.99 -30.23,7.09 -51.8,14.66 -83.05,15.14 -13.79,-32.63 -60.56,-122.64 -62.69,-144.94 -25.8,-22.44 -130.18,-238.97 -132.98,-255.76 58.66,-11.77 121.8,-24.94 179.08,-35.21 61.22,-10.97 156.67,-38.03 168.03,18.55zm349.06 -36.04l45.91 102.58 84.01 200.98 -261.43 62.61c-13.36,-20.4 -40.55,-68.83 -44.05,-96.55 -27.09,-20.51 -81.33,-142.83 -93.86,-181.03l-31.72 -62.03c16.57,-12.11 114.37,-35.91 138.56,-43.01 42.95,-12.6 99.23,-31.51 142.4,-39.58l20.17 56.03zm1347.05 11.22l-132.72 30.21 -25.53 6.22 -86.19 17.76c-0.33,-98.18 46.24,-261.4 58.65,-367.07l161.07 -26.78 27.91 171.86 23.54 157.16 -26.72 10.65zm-1026.68 -114.39l74.11 202.93c15.93,22.18 46.26,107.09 40.42,131.43l-39.12 2.46c-7.54,5.33 -0.84,2.32 -16.16,8.8 -4.16,1.76 -12.97,4.53 -17.61,5.79l-104.58 25.38 -84.75 15.69 -71.54 -172.21 -58.74 -133.34 -21.56 -54.64c97.17,-19.48 182.32,-57.04 291.25,-67.47l8.29 35.16zm372.84 58.96l58.87 198.51c-67.48,11.52 -213.21,60.87 -269.7,59.21l-62.33 -177.79 -68.7 -184.99 296.84 -54.48 45.02 159.55zm128.32 -192.08c39.85,-10.28 125.56,-30.03 165.02,-26.78l26.89 110.96 8.92 35.87c1.27,7.97 2,18.76 4.45,32.12 4.17,22.71 8.01,32.62 12.49,54.6 4.9,24.05 22.57,89.13 21.06,108.21 -51.47,5.52 -52.47,16.82 -81.26,25.65l-20.94 -6.15c-25.23,20.57 -82.42,24.31 -118.58,33.45l-43.27 8.44c-13.21,-26.67 -34.5,-92.22 -33.79,-124.41 -21.08,-21.37 -64.75,-188.94 -72.57,-228.89l131.58 -23.05zm299.92 -56.65l-12.22 164.88 -49.72 -5.71 -31.03 -142.59 92.97 -16.58zm-1671.42 -49.3c40.08,12.45 27.36,28.65 48.98,64.22l25.42 51.44c0.56,0.87 2.1,2.52 2.7,3.46l74.72 160.31c-10.72,11.01 5.4,1.89 -17.18,10.86l-60.68 10.58c-30.39,5.37 -52.47,11.39 -85.69,14.35 2.07,-14.56 3.74,-28.34 2.39,-43.42l-8.62 -29.91 3.44 78.14 -158.23 26.72c-24.52,-33.81 -58.8,-107.78 -78.22,-145.61 -21.14,-41.16 -52.77,-99.1 -69.45,-143.43l320.42 -57.74zm2159.06 139.87l14.47 147.09 -42.16 5.44c-21.58,14.48 7.27,1.03 -31.46,10.75 -10.34,2.6 -18.6,4.33 -30.82,7.49 -24.65,6.37 -42.86,10.68 -68.52,13.97l-28.82 5.82c-16.49,-30.06 -22.11,-94.03 -23.86,-131.97l-35.01 -196.58 223.16 -38.97 23.02 176.96zm-1996.89 -168.78c21.35,-0.06 6.65,0.31 28.57,-5.49 10.08,-2.67 20.5,-6.03 30.43,-9.14l103.41 -11.26 54.12 -9.17 16.32 47.01c18.28,26.42 10.59,19.7 6.9,50.67 37.24,29.99 18.69,15.34 40.84,44.72 19.17,22.05 19.55,46.3 29.63,76.83 8.13,24.63 20.38,39.07 22.38,64.61 -27.33,13.3 -260.47,53.29 -295.73,51.22 -11.72,-27.45 -26.61,-54.58 -39.04,-78.88 -22.68,-44.33 -14.44,-53.22 -44.23,-66.79 2.17,-2.25 3.77,-6.52 4.7,-8.1l8.9 -14.94c-27.43,-7.69 -25.25,-23.57 -37.9,-50.25 -9.98,-21.05 -20.5,-35.79 -23.44,-62.46l94.16 -18.57zm439.52 -79.59c36.3,-31.96 45.31,4.9 141.52,-24.85 6.78,23.55 -0.08,5.63 11.75,30.89 0.19,26.57 69.59,215.23 84.07,243.94 42.61,22.64 -30.09,23.67 -45.53,24.77 -29,2.07 -55.15,10.67 -82.53,15.21 -57.7,9.55 -116.68,24.74 -171.45,30.71 -20,-81.12 -29.95,-56.21 -38.48,-87.52 -3.01,-29.22 -12.64,-32.63 -20.29,-59.73 -10.42,-36.9 5.67,-21.03 10.97,-60.98 -36.67,-33.65 -52.67,-13.5 -66.14,-74.46 22.3,-16.11 136.55,-27.24 176.12,-37.97zm497.32 -86.49l83.03 287.42 -298.21 55.55 -102.05 -287.26 317.24 -55.71zm221.04 -38.84l115.61 -23.05c40.23,7.24 20.94,-11.23 38.5,66.48 5.46,24.16 10.82,47.03 16.33,72.38 5.16,23.78 43.24,124.96 23.45,142.86 -28.45,18.72 -235.85,47.63 -285.16,58.37 -17.89,-30.97 -76.88,-236.97 -87.87,-286.66l179.15 -30.39zm376.48 -71.3c23.85,3.41 42.94,-4.25 69.36,-8.51l50.8 -9.31 30.2 185.69 6.17 31.72 6.14 41.8 1.17 27.35 -135.65 28.91c-2.63,-0.02 -15.97,-1.12 -16.06,-1.11l-35.83 12.48 -103.16 13.88c-16.34,-22.95 -66.91,-251.49 -65.27,-285.5l192.15 -37.4zm430.66 216.49c-29.94,7.2 -65.86,19.08 -106.59,14.6 -11.34,10.71 4.39,4.19 -24.83,11.96l-91.22 15.46 -6.23 -49.2 -1.49 -8.23 -38.5 -228.08 126.16 -19.48c89.62,173.77 145.11,36.53 142.7,262.96zm82.82 -428.72c1.1,-42.95 -13.79,-125.79 23.82,-135.16 60.18,-15 40.59,75.75 42.7,135.12 26.14,0.28 112.88,-4.28 127.37,8.63 15.17,13.51 15.87,35.78 -0.23,49.87 -15.33,13.41 -101.57,7.72 -127.4,7.63 -0.59,72.61 12.4,133.31 -29.52,136.73 -48.88,3.99 -36.14,-62.09 -36.76,-136.74 -81.38,-0.18 -140.68,13.41 -136.77,-35.96 3.28,-41.53 68.72,-29.53 136.79,-30.12zm-132.96 -211.95l-15.11 19.15c-4.69,5.07 -8.36,7.94 -11.78,11.1 -33.57,31 -46.32,45.64 -67.91,87.36 -41.47,80.16 -16.56,102.71 -30.67,179.23l-179 31.07 2.74 -54.9c-12.57,13.99 -9.27,37.71 -10.71,60.78 -40.18,-4.24 -41.49,-0.03 -60.39,10.07l-864.33 153.02c-23.16,15.25 30.19,12.93 -29.71,12.93 5.8,-28.13 36.42,-10.08 -97.96,10.67l-110.74 14.07 -76.3 15.99 -75.13 14.25 -220.71 39.85c-18.64,-32.76 -3.06,-39.91 -61.69,-58.68l-12.78 19.53c-30.98,36 -13.22,44.08 -22.37,57.98 -12.56,10.11 -2.24,4.78 -22.09,9.54 -36.51,8.77 12.19,-2.29 -49.16,0.84 -17.94,0.92 -40.36,6.73 -56.18,9.41l-363.98 65.52c-28.86,-29.43 -113.47,-218.01 -140.54,-267.1 -84.06,-152.42 -209.91,-125.66 -255.41,-157.24l-40.23 -0.25 -15.19 81.41c124.92,20.74 191.28,27.71 241.74,123.28 23.68,44.84 40.36,80.49 62.03,123.97 20.59,41.32 45.58,80.62 62.35,122.39 20.84,34.93 40.48,78.93 58.89,113.66 19.73,37.23 42.83,76.03 55.13,115.11l262.96 511.71c29.49,23.53 208.77,431.07 263.82,501.02 -44.12,28.96 -16.52,-14.07 -69.69,113.45 -110.26,264.41 -48.51,117.18 -12.03,442.65 -55.93,21.56 -76.52,6.49 -55.34,81.09l5.51 39.09c24.79,39.01 12.55,146.84 57.33,169.07 76.95,38.2 66.38,-97.42 75.77,-148.46l3.89 -51.55 6.59 -47.59 100.97 -23.14 -6.42 -67.3 63.97 -10.79c22.96,-11.97 864.16,-197.14 901.21,-195.22 16.44,-15.09 575.51,-140.27 628.71,-142.06 -27.66,17.89 -17.22,30.14 -9.77,69.46l6.02 51.31c21.19,19.2 18.91,111.44 54.56,158.05 51.71,7.25 63.92,-8.34 68.67,-58.15 3.03,-31.74 0.11,-93.67 16.81,-119.54l1.02 -44.67 3.71 -27.9 92.65 -20.94c15.93,-18.65 3.85,-30.9 1.68,-64.87 48.29,-4.95 97.24,-26.99 144.96,-24.53 16,-21.51 33.27,-46.85 1.1,-72.68 -37.98,-16.12 -472.83,93.41 -549.11,109.99 -83.3,18.1 -508.65,122.7 -550.2,115.01l-41.69 16.46c-17.52,3.92 -30.92,6.45 -49.14,10.69 -29.93,6.97 -67.02,14.98 -99.48,19.91l-394.72 90.6 -413.75 89.14c-9.97,-43.39 -19.81,-85.63 -29.05,-126.33 -16.29,-71.76 19.66,-127.79 61.74,-227.11 11.96,-28.24 9.38,-26.58 39.04,-35.62 22.49,-6.86 47.21,-12.84 69.35,-11.9 22.37,-20.92 125.17,-41.2 160.97,-47.35 -13.13,-12.8 5.71,-9.41 -30.07,-20 -3.59,-1.06 -93.83,-4.05 -115.7,6.68 12.52,27.28 9.74,1.53 18.83,27.45 -23.51,0.43 -48.43,9.43 -65.43,7.42 -46.94,-5.57 -11.81,1.05 -24.63,-14.52 -25.87,-31.42 16.74,-3.07 -13.8,-22.88l-10.27 7.42c-3.03,2.51 -5.79,3.01 -12.76,11.01 -10.29,11.81 -9.42,0.15 -6.79,17.04 -10.63,-48 0.5,-34.91 27.06,-51.77 -8.26,-44.2 -14.41,-17.57 -12.75,-50.53 44.02,-3.81 15.23,-2.12 30.37,-14.19l-28.42 1.21 -160.67 -320.19 144.68 -34.58 30.7 -2.01c29.58,-22.51 100.48,-31.32 140.33,-38.61 46.92,54.71 107.76,247.46 152.1,288.11 31.53,-30.56 8.4,29.16 25.71,-21.25l-50.57 -119.06 -12.49 -16.12 -67.97 -139.75 191.54 -51.63 67.04 -13.77c21.81,23.67 61.57,117.14 62.99,150.72 19.72,17.34 66.57,131.8 72.95,164.28 30,-7.7 22.46,7.24 33.98,-26.8l-72.5 -186.08c-15.45,-15.58 -44.04,-90.34 -49.9,-116.47l65.87 -7.42c31.04,-26.17 99.21,-26.5 139.75,-41.75l57.6 -11.53c12.15,31.38 26.83,58.75 28.06,90.62 22.34,21.4 71.45,172.5 82.58,212.21 -33.81,21.41 -110.05,23.69 -141.8,49 5.8,1.93 14.6,5.62 21.15,6.74 39.78,6.79 48.36,-15.9 117.53,-6.1 22.34,3.17 20.99,-0.25 47.67,0.25 -0.55,-33.13 1.51,-31.31 12.55,-54.46l16.2 18.44c1.85,6.93 -3.04,11.39 -4.41,23.23 -1.27,10.9 2.67,43.13 4.23,63.71l-109.3 4.49c0.69,25.03 -5.02,17.26 -8.25,50.75 43.77,-2.31 25.82,-9.24 57.5,-14.53 12.5,-2.08 45.45,-1.83 56.96,3.02l19.93 -7.45c25.85,-26.34 13.14,-48.3 -6.25,-70.09l931.91 -252.27 96.88 -30.62c78.7,-13.38 64.49,-16.89 70.56,-92.81 -21.13,-25.91 -43.98,-340.01 -52.02,-402.51 -8.77,-68.21 -48.34,-354.49 -45.98,-402.38 126.11,-1.3 234.04,-28.77 298.11,-155.86 94.47,-187.39 -35.19,-306.95 -55.21,-348.49 -22.26,-5.95 -17.52,-10.8 -43.25,-27.49l-47.95 -31.67c-43.5,1.9 -82.42,-22.25 -154.34,-12.58 -57.7,7.76 -95.87,38.33 -125.26,41.47z"/>
     <path class="fil1" d="M2570.21 1857.13l864.33 -153.02 11.62 -239.85 -205.72 -10.71c-16.56,16.81 -227.15,120.76 -271.62,144.56 -48.73,26.08 -93.21,46.07 -142.87,73.18 -47.58,25.97 -106.02,77.67 -128.73,16.22l-148.36 -288.49 -57.15 -0.67 -639.44 -41.44 -8.66 101.05c27.72,-17.62 28.92,-25.05 57.94,-14.51l589.82 341.83c69.42,40.42 45.6,25.9 65.33,55l8.65 11.19c0.83,-1.35 2.91,4.12 4.86,5.68z"/>
     <path class="fil2" d="M1784.3 1326.56c-0.65,60.97 -7.43,124.12 -12.52,183.55 -7.34,85.61 4.19,80.48 -37.68,149.08 -25.9,42.45 -124.43,196.33 -121.31,239.03 15.08,19.76 98.58,66.72 123.72,76.54l-1.12 28.77c15.81,-2.68 38.24,-8.5 56.18,-9.41 61.35,-3.13 12.65,7.93 49.16,-0.84 19.85,-4.77 9.53,0.57 22.09,-9.54 -53.25,3.98 -130.29,-50.15 -168.84,-76.41 4.72,-19.41 55.87,-105.44 63.52,-113.5 25.16,-54.88 61.84,-112.56 89.92,-162.2 17.01,-30.07 30.94,-51.3 47.11,-79.9 26.37,-46.63 19.93,-51.97 72.53,-31.12 9.75,20.36 229.2,131.4 260.93,155.73l17.13 16.81c26.3,1.01 97.49,46.32 117.96,64.16l105.19 58.34c-4.54,34.41 -15.08,35.76 -25.73,65.07 134.38,-20.75 103.76,-38.8 97.96,-10.67 59.9,0 6.55,2.32 29.71,-12.93 -1.95,-1.56 -4.03,-7.03 -4.86,-5.68l-8.65 -11.19c-19.73,-29.1 4.09,-14.58 -65.33,-55l-589.82 -341.83c-29.01,-10.54 -30.21,-3.11 -57.94,14.51l8.66 -101.05 639.44 41.44 33.83 3.05 7.68 -54.45c17.86,-7.69 13.73,-9.1 34.83,-19.58l-54.21 -5.98 54.57 0.74c-20.5,-13.53 -537.51,-46.36 -630.99,-51.73 -145.67,-8.37 -137.74,-18.72 -153.12,56.17z"/>
     <path class="fil3" d="M3657.92 902.09c19.7,-55.98 77.88,-46.94 80.25,-0.18 1.35,26.71 -15.02,41.93 -36.94,43.37 -35.24,2.31 -34.51,-21.27 -43.31,-43.19zm129.84 -37.23c-8.27,-48.72 28.73,-89.74 72.05,-96.43 51.01,-7.87 96.65,31.85 101.71,76.03 13.1,114.38 -155.41,128.52 -173.76,20.41zm-275.03 -25.15c-15.25,-70.06 35.95,-89.83 62.55,-56.78 13.99,17.38 11.48,43.74 -2.56,57.28 -20.43,19.7 -43.14,4.67 -59.99,-0.5zm71.27 -108.88c14.78,-38.23 19.87,-1.21 48.11,-91.96 29.41,8.58 159.02,89.83 186.1,109.95 -42.74,42.95 -36.59,26.95 -50.77,90.39l-183.43 -108.38zm-102.76 -169.79c110.16,-56.58 172.56,106.1 81.77,150.73 -107.6,52.89 -183.9,-98.28 -81.77,-150.73zm-170.64 159.95c-25.3,42.31 -89.64,84.3 -72.91,139.29 19.41,63.79 117.23,51.62 136.77,3.54l103.04 -64.78c21.97,33.52 3.42,33.17 38.4,64.36 37.75,9.83 49.96,-2.82 77.51,6.2 14.15,4.63 39.27,24.3 44.84,36.2 34.52,73.86 1.35,48.72 107.98,55.75 -2.78,60.61 -43.77,176.49 -9.29,217.81 18.98,22.75 66.47,33.42 95.54,9.35 21.18,-17.53 109.63,-228.37 125.57,-261.82 86.29,-181.02 -93.13,-182 -129.7,-203.41l-156.15 -97.02c-102.28,-64.16 -126.03,-199.95 -282.59,-0.33l-79.02 94.87z"/>
     <path class="fil4" d="M4478.81 2074.56c3.8,-31.44 -11.53,-106.24 27.37,-106.16 39.55,0.08 24.81,73.66 28.2,105.33 37.12,4.32 73.21,-5.76 99.96,12.3 20.79,53.32 -56.56,40.7 -96.62,40.65 -13.47,45.48 14.8,124.22 -46.36,102.43 -18.03,-27.93 -7.33,-63.85 -12.09,-101.48 -37.85,-1.85 -78.22,2.92 -105.18,-13.64 -0.1,-58.05 48.67,-36.25 104.71,-39.43zm183.82 -140.82c-50.56,-37.89 -67.19,-45.25 -124.08,-59.26 -118.42,-3.64 -212.74,43.07 -249.54,157.25 -78.62,243.9 252.75,413.25 405.53,197.88 74.73,-105.35 39.13,-209.42 -31.91,-295.87z"/>
     <path class="fil0" d="M2708.42 3057.48c-32.14,-0.85 -33.2,4.02 -64.26,12.29 -26.04,6.94 -30.06,12.91 -45.4,-0.87 -11.53,34.04 -3.98,19.1 -33.98,26.8 -42.78,-0.09 -191.38,48.1 -240.77,60.74l-22.72 -35.41c-17.31,50.41 5.83,-9.31 -25.71,21.25l1.2 28.1 -127.45 32.35 -87.35 23.95 -65.14 21.67c-15.14,12.07 13.65,10.39 -30.37,14.19 -1.66,32.96 4.49,6.32 12.75,50.53 -26.56,16.86 -37.69,3.77 -27.06,51.77 -2.63,-16.89 -3.5,-5.23 6.79,-17.04 6.97,-8 9.73,-8.51 12.76,-11.01l10.27 -7.42c30.54,19.82 -12.07,-8.54 13.8,22.88 12.82,15.57 -22.31,8.94 24.63,14.52 17,2.02 41.92,-6.99 65.43,-7.42 -9.09,-25.91 -6.31,-0.16 -18.83,-27.45 21.88,-10.73 112.12,-7.74 115.7,-6.68 35.78,10.59 16.94,7.21 30.07,20 52.16,-19.16 424.16,-121.39 460.42,-118.04l10.6 -6.38c7.36,-3.47 8.39,-4.31 16.84,-7.22 37.61,-12.97 207.06,-49.48 219.61,-60.56 -11.51,-4.85 -44.46,-5.1 -56.96,-3.02 -31.68,5.29 -13.73,12.22 -57.5,14.53 3.22,-33.49 8.93,-25.72 8.25,-50.75l109.3 -4.49c-1.56,-20.58 -5.5,-52.81 -4.23,-63.71 1.37,-11.83 6.26,-16.3 4.41,-23.23l-16.2 -18.44c-11.04,23.15 -13.11,21.33 -12.55,54.46 -26.67,-0.5 -25.32,2.92 -47.67,-0.25 -69.17,-9.81 -77.75,12.89 -117.53,6.1 -6.54,-1.11 -15.35,-4.8 -21.15,-6.74z"/>
     <path class="fil5" d="M373.62 1212.05c23.62,14.9 34.09,29.99 40.83,54.9 -13.67,21.29 -29.48,34.11 -55.72,39.71 -27.1,-19.47 -35.86,-34.39 -39.68,-64.87 17.85,-11 28.69,-23.62 54.57,-29.75zm89.02 -62.38c13.96,19.9 32.38,38.37 39.68,67.75 -28.97,10.58 -33.15,24.71 -63.88,34.32 -12.66,-19.88 -26.81,-36.38 -36.38,-59.24l60.59 -42.83zm82.24 -56.19l25.48 29.2c5.64,7.94 9.84,15.03 17.4,24.65 -15.57,20.4 -35.2,33.66 -57.78,44.99 -19.16,-13.69 -33.18,-37.48 -44.28,-61.46l59.17 -37.38zm-272.48 -42.95c11.47,23.98 19.68,34.54 35.82,60.06l-16.43 14.94c-4.21,3.41 -8.39,6.39 -12.8,9.52 -10.37,7.34 -20.21,13.69 -33.14,19.38 -9.94,-21.41 -25.25,-37.01 -38.25,-58.73l64.8 -45.17zm22.06 -14.41c14.5,-18.08 40.6,-35.03 59.78,-40.76 17.81,17.97 26.82,31.93 37.17,55.65 -15.05,20.33 -37.67,30.78 -55.03,41.15 -14.35,-12.18 -34.55,-37.78 -41.93,-56.05zm-139.65 -29.78c13.95,-20.68 27.83,-29.05 54.99,-35.93 23.18,21.39 32.13,28.21 38.11,58.27 -17.65,19.38 -31.29,32.73 -63.57,39.47 -15.94,-26.89 -26.47,-28.07 -29.52,-61.81zm284.21 -71.74c16.4,21.26 27.43,32.84 39.65,56.85 -12.69,18.03 -39.84,36.17 -60.39,42.73 -16.73,-17.5 -28.75,-36.03 -40.31,-57.62l61.04 -41.96zm-203.38 13.82c21.67,-14.99 31.7,-28.21 62.37,-38.05l36.36 58.74c-16.92,16.42 -36.63,31.04 -57.56,40.36l-25.92 -29.97c-5.77,-9.99 -11.05,-20.97 -15.26,-31.07zm-143.25 -23.99c16.32,-18.11 32.23,-32.29 57.84,-39.22l40.37 56.22c-21.32,20.45 -29.41,25.11 -55.26,40.51 -19.24,-11.89 -31.65,-33.06 -42.95,-57.51zm171.27 -129.82l4.65 0.07c0.12,-2.48 0.61,-14.92 0.68,-18.75l33.25 -11.96c13.5,-4.24 27.35,-29.16 67.62,39.1 24.63,41.76 -17.84,31.65 31.57,49.68l-6.53 13.16 26.33 45.48 -62.77 40.68c-11.3,-18.05 -26.14,-36.61 -38.97,-57.42 6.7,-11.12 2.49,-4.95 9.55,-14.85l7.5 -8.39c-35.18,11.65 -25.8,11.2 -61.77,1.48 -2.64,23.93 -18.48,35.26 -57.52,51.51 -15.01,-16.1 -32.51,-38.59 -41.59,-58.6 13.26,-14.79 38.49,-33.86 64.2,-38.41l29.88 39.34c0.12,-0.28 17.93,15.39 0.99,-18.75 -11.39,-22.97 -26.6,3.78 -21.51,-34.95 4.05,-30.79 -9.57,-6.49 14.44,-18.4zm-227.59 114.92l213.18 303.9c32.28,48.46 64.56,106.74 102.02,151.53l224.74 -156.34c23.22,-20.5 36.5,-17.13 60.69,-45.92l-153.52 -229.17c-0.86,-1.3 -2.05,-3.13 -2.91,-4.41l-118.41 -165.64c-19.35,-29.64 -15.43,-47.82 -50.99,-45.89l-57.33 42.73c-21.81,14.21 -50.75,34.26 -75.7,50.65 -25.41,16.68 -43.4,30.76 -69.18,49.53 -22.39,16.3 -43.64,29.59 -72.61,49.04z"/>
     <path class="fil4" d="M2548.87 1399.01l148.36 288.49c17.49,-30.4 307.89,-148.37 346.54,-189.71 -46.31,-21.13 -86.34,-10.55 -137.14,-83.13 -38.56,-55.1 -30.53,-123.11 -6.01,-184.93 -13.38,-18.17 5.28,-5.5 -25.04,-8.17 -20.88,22.55 -133.1,72.61 -164.72,89.44 -54.41,28.95 -115.39,56.64 -161.99,88.01z"/>
     <polygon class="fil1" points="2512.1,1950.27 2614.15,2237.54 2912.36,2181.99 2829.33,1894.56 "/>
     <path class="fil6" d="M36.08 909.54c28.98,-19.45 50.22,-32.74 72.61,-49.04 25.78,-18.77 43.77,-32.85 69.18,-49.53 24.95,-16.39 53.89,-36.44 75.7,-50.65l57.33 -42.73c35.56,-1.93 31.64,16.26 50.99,45.89l118.41 165.64c0.86,1.29 2.04,3.11 2.91,4.41l153.52 229.17c-24.19,28.79 -37.47,25.42 -60.69,45.92l-224.74 156.34c-37.45,-44.79 -69.73,-103.07 -102.02,-151.53l-213.18 -303.9zm276.62 431.92c13.22,36.16 47.87,80.57 67.42,103.5 49.96,3.09 71.21,-35.73 112.6,-51.41 10.22,-16.4 152.04,-113.13 190.31,-137.12 19.67,-12.33 4,-4.46 17.06,-8.5 5.53,-61.39 -46.03,-101.9 -74.3,-144.15l-256.9 -371.45 -25.69 -40.96c-33.39,-42.33 -32.73,-56.41 -90.79,-14.87l-259.34 178.37c-1.59,53.15 46.58,100.46 72.76,138.66 19.23,28.04 230.68,342.77 246.87,347.92z"/>
     <path class="fil7" d="M1889.79 1724.75c-1.08,-27.5 19.61,-48.17 32.64,-68.62 24.56,9.25 44.39,18.29 58.9,35.27 -3.76,27.81 -14.68,43.68 -36.56,58.69 -16.36,-4.54 -42.32,-17.65 -54.98,-25.34zm-132.28 69.08c33.75,18.9 -4.22,-8.2 12.95,15.73 11.8,16.45 -11.67,-5.35 10.65,14.8 13.2,11.91 35.87,13.56 59.38,18.19 0,41.74 2.86,2.9 -15.44,17.1l43.24 26.92c-0.3,13.58 -0.75,20.41 -1.56,28.33l18.46 10.87 12.78 -19.53c58.62,18.76 43.05,25.92 61.69,58.68l220.71 -39.85c1.12,-2.09 2.68,-4.91 3.33,-6.32 0.59,-1.28 2.19,-4.47 2.8,-5.84l4.04 -13.01c-11.48,-10.2 -21.94,-12.07 -34.01,-24.17 1.89,-26.86 18.45,-42.63 28.78,-64.34l32.53 4.54 23.22 -5.38c-0.84,-25.69 13.21,-3.63 -10.43,-26.91 -19.63,-19.31 -49.16,-0.52 -71.1,1.12 -2.92,30.57 -15.93,52.48 -36.94,70.79l-59.98 -30.28 9.06 -33.53 -14.64 -6.73 -24.43 17.46 -56.8 -29.61 6.25 -35.87c7.72,-44.23 2.88,-34.6 50.79,-35.97 45,-1.29 -31.07,23.27 18.89,-1.18l-25.53 -14.09c5.99,-30.44 7.38,-16.08 18.98,-44.07 0.85,-24.34 3.4,-24.95 8.06,-47.03 -21.9,-2.32 -34.25,-12.6 -49.07,-22.01l-39.12 -22.82 2.02 -29.17c-52.61,-20.85 -46.17,-15.51 -72.53,31.12 -16.17,28.6 -30.1,49.82 -47.11,79.9 -28.08,49.63 -64.75,107.32 -89.92,162.2z"/>
     <path class="fil3" d="M2322.69 2415.57l58.74 133.34c58.73,30.71 136.82,67.29 156.29,156.52l104.58 -25.38c4.65,-1.26 13.46,-4.04 17.61,-5.79 15.32,-6.48 8.62,-3.47 16.16,-8.8 -21.53,-14.89 -10.88,5.41 -17.93,-22.12 -2.25,-8.77 -1.02,-33.88 -0.24,-43.65 1.69,-21 4.62,-57.59 16.87,-68.13l-74.11 -202.93c-35.47,21.41 -187.28,53.35 -243.82,73.32 -12.95,4.57 -2.24,0.72 -16.77,6.46 -4.21,1.66 -10.36,6.71 -11.53,4.71 -1,-1.71 -3.89,1.64 -5.85,2.45z"/>
     <path class="fil3" d="M2542.23 2758.93c17.4,8.28 11.02,2.38 10.29,20.92 -0.54,13.7 -4,28.28 -6.94,41.28 -3.75,16.61 -9,51.63 -19.32,61.69l72.5 186.08c15.34,13.78 19.36,7.81 45.4,0.87 31.06,-8.27 32.11,-13.14 64.26,-12.29 31.75,-25.31 107.99,-27.59 141.8,-49 -11.14,-39.71 -60.25,-190.81 -82.58,-212.21l-70.34 -54.29c-0.61,-0.73 -2.05,-2.19 -2.63,-2.93l-12.69 -21.87c-40.54,15.24 -108.71,15.57 -139.75,41.75z"/>
     <path class="fil8" d="M3140.46 1212.76c135.9,136.79 -20.34,285 -141.87,228.89 -138.46,-63.93 -77.58,-280.92 70.59,-258.28l-7.48 -10.92c-47.27,19.22 -99.19,-13.91 -104.28,45.45 -20.6,-8.37 -29.82,-15.77 -45.43,-15.56 -28.14,0.39 -3.73,-1.71 -18.63,5.21l-17.77 14.01c30.32,2.67 11.66,-10 25.04,8.17 -24.52,61.82 -32.55,129.83 6.01,184.93 50.8,72.58 90.83,62 137.14,83.13 -38.65,41.35 -329.06,159.32 -346.54,189.71 22.72,61.46 81.15,9.75 128.73,-16.22 49.66,-27.1 94.14,-47.1 142.87,-73.18 44.46,-23.79 255.06,-127.75 271.62,-144.56l20.88 -12.24c2.2,-1.09 3.99,-1.81 6.13,-2.78 133.92,-60.72 32.81,-23.27 82.34,-50.92 26.87,-15 15.61,1.37 43.68,-10.48 -30.33,-1.9 -33.77,6.43 -41.03,-18.21l-10.15 -11.2c-29.21,15.33 -107.01,61.45 -135.1,64.19 8.16,-23 19.34,-35.78 24.23,-72.01 11.08,-82.07 -41.48,-168.33 -114.59,-184.87l15.2 34.19c23.42,35.35 30.24,4.4 8.41,23.56z"/>
     <path class="fil9" d="M2822.03 1155.27c6.03,-17.83 1.35,-15.98 25.49,-28.16 16.96,-8.56 23.34,-9.37 43.63,-9.72 -2.24,23.69 2.13,21.41 -25.37,36.18 -43.12,23.17 -43.75,1.7 -43.76,1.7zm116.43 -67.02c17.9,-19.74 87.85,-55.22 118.54,-64.55l19.07 43.34c-27.68,15.83 -93.4,55.31 -124.92,52.61l-12.69 -31.4zm-121.29 20.14l-34.51 22.42 9.6 82.82 -82.08 43.28c-30.2,-50.09 -15.68,-21.95 -78.2,-3.62l-38.1 21.15c0.38,41 23.9,36.8 -25.47,47.69l-54.57 -0.74 54.21 5.98c-21.09,10.48 -16.97,11.89 -34.83,19.58l-7.68 54.45 -33.83 -3.05 57.15 0.67c46.61,-31.37 107.59,-59.06 161.99,-88.01 31.62,-16.83 143.84,-66.88 164.72,-89.44l17.77 -14.01c14.9,-6.92 -9.51,-4.82 18.63,-5.21 15.61,-0.21 24.82,7.19 45.43,15.56 5.09,-59.36 57.02,-26.23 104.28,-45.45l7.48 10.92c37.36,5.5 43.84,6.93 71.27,29.39 21.83,-19.16 15.01,11.79 -8.41,-23.56l-15.2 -34.19c-13.52,-12.19 -42.38,-14.99 -65.53,-18.64 47.28,-31.74 125.48,-53.37 137.67,-81.13l-13.69 -31.05 -54.02 15.15c-33.8,-22.3 -33.66,-39.84 -72.94,-50.13l-27.64 21.15c-38.82,22 -181.3,96.6 -203.52,98.01z"/>
     <path class="fil0" d="M1014.34 920.48l16.92 2.46c27.87,-31.15 46.53,-80.49 76.39,-113.58 24.95,-27.64 66.54,-79.5 106.16,-83.33l18.79 -14.79c50.68,-29.19 146.88,-16.99 196.88,-1.01 369.29,117.99 201.74,437.33 196.47,498.53l16.75 4.77c36.88,-9.07 62.81,-115.16 70.12,-148.87 16.93,-78.07 13.26,-124.75 -9.95,-198.86 -45.51,-93.35 -95.77,-140.07 -190.66,-186.5l-90.65 -39.74 -132.01 -7.95c-28.31,17.48 -75.7,23.2 -108.13,42.96 -61.28,37.35 -105.39,88.93 -139.29,151.64 -8.94,16.53 -18.98,32.62 -26.15,49.11 -10.42,23.94 -11.54,33.23 -1.64,45.15z"/>
     <path class="fil10" d="M3678.21 2288.01c35.94,6.97 41.59,6.03 66.12,22.9 7.08,38.48 -0.09,70.97 -13.43,103.25 25.66,-3.29 43.87,-7.6 68.52,-13.97 12.22,-3.16 20.47,-4.89 30.82,-7.49 38.73,-9.72 9.88,3.73 31.46,-10.75 1.3,-40.45 10.82,-124.64 27.69,-152.53l-23.02 -176.96 -223.16 38.97 35.01 196.58z"/>
     <path class="fil1" d="M2700.34 2467.51l62.33 177.79c56.49,1.66 202.22,-47.69 269.7,-59.21l-58.87 -198.51c-19.03,11.92 -41.19,4.13 -41.2,4.13 -156.47,-16.28 -173.38,47.91 -231.96,75.79z"/>
     <path class="fil1" d="M1932.38 3982.33l-3.89 51.55c105.14,33.98 92.63,214.54 -35.68,228.96 -139.45,15.68 -180.66,-158.54 -92.1,-215.33l-5.32 -34.24 -5.51 -39.09c-72.39,28.76 -128.21,120.54 -98.87,218.43 63.38,211.45 349.52,167.87 374.08,-13.92 21.75,-160.91 -88.13,-194.04 -118.35,-217.73 -9.3,9.51 -5.41,-6.04 -14.37,21.35z"/>
     <path class="fil1" d="M3763.71 3597.34l-0.9 33.45c111.73,58.23 65.24,224.5 -53.57,227.56 -102.82,2.64 -151.91,-97.72 -115.71,-176.36 18.72,-40.67 34.58,-23.39 30.14,-65l-6.02 -51.31c-83.87,31.85 -129.67,141.59 -91.26,244.2 35.28,94.24 112.19,123.68 238.34,112.86 8.06,-7.32 125.63,-47.77 131.67,-176.08 4.83,-102.51 -53.88,-165.44 -131.67,-194l-1.02 44.67z"/>
     <path class="fil1" d="M3050.37 1855.73l-179.15 30.39c10.99,49.69 69.98,255.68 87.87,286.66 49.31,-10.75 256.71,-39.66 285.16,-58.37 19.79,-17.9 -18.28,-119.08 -23.45,-142.86 -5.51,-25.35 -10.87,-48.22 -16.33,-72.38 -17.55,-77.71 1.73,-59.24 -38.5,-66.48 3.84,56.11 14.92,11.95 15.32,73.49 0.29,44.54 16.52,81.4 7.49,110.67 -13.99,45.39 -27.89,6.79 -27.79,98.99 -26.69,0.12 -34.88,6.61 -61.39,11.11 -46.22,7.86 1.55,-0.43 -45.4,-3.67 -15.81,-31.57 -8.81,-83.98 -8.78,-134.03 0.03,-44.54 5.3,-95.92 4.94,-133.51z"/>
     <path class="fil2" d="M1892.49 2060.64c22.77,31.38 89.39,56.89 125.61,78.78 41.28,24.94 78.19,44.7 117.22,72.65l-275.65 -20.15 -8.9 14.94c-0.93,1.58 -2.53,5.86 -4.7,8.1 29.79,13.57 21.55,22.46 44.23,66.79 12.43,24.3 27.32,51.43 39.04,78.88 35.27,2.07 268.4,-37.91 295.73,-51.22 -2,-25.54 -14.25,-39.98 -22.38,-64.61 -10.07,-30.53 -10.46,-54.78 -29.63,-76.83 -5.63,10.21 6.9,22.09 -28.9,3.57l-141.26 -83.92c-24.81,-14.07 -41.04,-17.33 -51.43,-41.61 -9.92,3.11 -20.35,6.47 -30.43,9.14 -21.92,5.8 -7.22,5.42 -28.57,5.49z"/>
     <path class="fil3" d="M1983.14 2892.78l22.83 2.08 10.48 41.95c5.17,16.69 9.49,30.24 13.88,46.95 8.35,31.75 15.71,60.41 25.48,92.01 10.82,34.98 15.66,66.37 26.31,95.05 16.27,43.81 9.84,20.47 49.28,24.43 26.25,2.64 1.66,-14.16 17.93,7.48l127.45 -32.35 -1.2 -28.1c-44.34,-40.65 -105.19,-233.4 -152.1,-288.11 -39.86,7.29 -110.75,16.1 -140.33,38.61z"/>
     <path class="fil10" d="M3469.1 2479.44c7.97,-56.16 6.01,-81.26 63.39,-90.01 0.79,-16.88 10.07,-67.01 15.27,-85.28 13.18,-46.33 39.34,-33.53 82.78,-28.94l-27.91 -171.86 -161.07 26.78c-12.41,105.66 -58.97,268.89 -58.65,367.07l86.19 -17.76z"/>
     <path class="fil3" d="M3042.8 2447.45l3.27 -9.99c14.07,28.72 23.16,29.89 39.85,57.04 17.19,27.95 11.8,42.12 33.93,68.93 36.16,-9.13 93.35,-12.88 118.58,-33.45l-26.56 -0.02c-5.45,-56.25 -31.97,-115.76 -47.18,-175.21l-38.29 -132.76c-16.16,-37.97 -14.03,1.05 -20.35,-23.78 -0.55,-2.13 -2.98,-1.6 -4.24,-2.7l-131.58 23.05c7.81,39.95 51.48,207.53 72.57,228.89z"/>
     <path class="fil1" d="M2104.74 2701.41c3.5,27.72 30.69,76.16 44.05,96.55l261.43 -62.61 -84.01 -200.98c-23.39,23.44 5.71,7.36 -35.98,15.62 -111,21.99 -138.49,56.85 -185.49,151.42z"/>
     <path class="fil11" d="M2700.34 2467.51c58.58,-27.89 75.49,-92.07 231.96,-75.79 0.01,0 22.17,7.79 41.2,-4.13l-45.02 -159.55 -296.84 54.48 68.7 184.99z"/>
     <path class="fil1" d="M3403.14 2093.45l23.71 -309.02 -192.15 37.4c-1.63,34.02 48.94,262.56 65.27,285.5l103.16 -13.88z"/>
     <path class="fil11" d="M2836.64 2844.04c12.35,47.12 38.18,114.51 56.49,156.95l244.55 -64.86c-8.92,-37.25 -46.17,-180.25 -64.27,-199.15 -9.46,30.31 -11.59,33.25 -39.26,51.62 -12.2,8.1 -40.88,28.31 -54.41,34.47 -57.28,26.08 -115.24,11.4 -143.1,20.96z"/>
     <path class="fil1" d="M2836.64 2844.04c27.87,-9.56 85.82,5.12 143.1,-20.96 13.53,-6.16 42.21,-26.38 54.41,-34.47 27.67,-18.37 29.8,-21.31 39.26,-51.62 0.52,-31.13 -17.01,-79.66 -26.56,-105.58l-264.66 66.21 54.43 146.43z"/>
     <path class="fil3" d="M2010.88 2520.38c12.53,38.2 66.77,160.52 93.86,181.03 46.99,-94.58 74.49,-129.44 185.49,-151.42 41.69,-8.26 12.59,7.82 35.98,-15.62l-45.91 -102.58c-51.22,-8.67 -190.44,59.21 -262.64,63.56 -0.19,1.2 -3.49,18.29 -3.57,18.61l-3.2 6.42z"/>
     <path class="fil3" d="M3176.47 2895.23c31.64,-9.51 94.28,-21.87 124.13,-40.16 12.29,-61.24 -77.65,-222.88 -60.23,-268.73l-149.43 35.82c3.57,39.42 66.93,254.28 85.53,273.07z"/>
     <path class="fil2" d="M2332.01 1981.05l45.89 -1.64c-13.49,37.67 -76.13,138.96 -103.45,183.63 -35.18,57.53 -13.62,40.84 -43.1,51.15 8.53,31.32 18.49,6.41 38.48,87.52 54.77,-5.97 113.75,-21.15 171.45,-30.71 27.37,-4.54 53.53,-13.14 82.53,-15.21 15.45,-1.1 88.15,-2.13 45.53,-24.77 -14.02,18.18 5.97,8.3 -28.78,11.24l-201.62 -14.79 120.06 -214.94c20.67,-31.3 5.69,-13.63 26.28,-25.45 -11.83,-25.26 -4.96,-7.35 -11.75,-30.89 -96.21,29.75 -105.22,-7.1 -141.52,24.85z"/>
     <path class="fil1" d="M622.9 1586.25c-30.25,48.03 -10.28,81.65 23.18,111.25 57.55,28.82 71.72,-6.16 137.24,8.77 41.27,9.41 99.32,33.56 136.71,19.6l15.19 -81.41 -2.35 -19.38c-29.36,-4.53 -156.85,-32.29 -173.77,-43.49 -3.39,-2.25 -77.37,-81.16 -136.2,4.66z"/>
     <path class="fil12" d="M1381.03 1234.75c-16.22,23.24 -40.33,36.9 -60.17,56.1 -78.42,75.94 -72.98,59.9 -25.02,140.97l31.53 0.6 231.45 -203.87c1.18,-50.07 -30.09,-88.61 -87,-69.46 -16.54,5.57 -66.26,56.96 -90.79,75.66z"/>
     <path class="fil12" d="M1055.88 990.2l-5.89 309.47 6.57 22.08 79.06 -2.61c24.42,-35.4 23.18,-23.51 23.54,-81.78 0.72,-118.03 27.59,-179.01 -17.04,-259.99 -47.96,-3.85 -55.18,-9.41 -86.23,12.83z"/>
     <path class="fil1" d="M3050.37 1855.73c0.36,37.59 -4.91,88.97 -4.94,133.51 -0.03,50.05 -7.03,102.46 8.78,134.03 46.95,3.24 -0.82,11.53 45.4,3.67 26.51,-4.51 34.7,-10.99 61.39,-11.11 -0.1,-92.2 13.8,-53.6 27.79,-98.99 9.02,-29.27 -7.2,-66.13 -7.49,-110.67 -0.4,-61.53 -11.47,-17.37 -15.32,-73.49l-115.61 23.05z"/>
     <path class="fil3" d="M2967.93 1304.21l-2.5 -39.23 36.66 0.86c-0.02,-0.12 -24.5,-27.18 44.48,-32.99 41.87,-3.53 70.01,12.15 86.83,44.99 4.59,8.97 6.66,13.43 8.16,27.43 8.31,77.86 -68.93,119.72 -125.66,91.12 -24.03,-12.12 -41.04,-46.82 -47.63,-73.68 -6.19,-25.25 -11.65,-3.58 -0.34,-18.5zm172.53 -91.45c-27.44,-22.46 -33.91,-23.9 -71.27,-29.39 -148.17,-22.63 -209.06,194.35 -70.59,258.28 121.53,56.11 277.77,-92.1 141.87,-228.89z"/>
     <path class="fil2" d="M3240.45 1453.55l205.72 10.71 -11.62 239.85c18.9,-10.1 20.21,-14.31 60.39,-10.07 1.44,-23.07 -1.86,-46.79 10.71,-60.78 6.15,-34.89 11.69,-137.31 14.34,-183.95 4.82,-85.11 -53.96,-68.34 -126.51,-72.17 -28.08,11.85 -16.82,-4.51 -43.68,10.48 -49.54,27.64 51.58,-9.8 -82.34,50.92 -2.15,0.97 -3.93,1.7 -6.13,2.78l-20.88 12.24z"/>
     <path class="fil13" d="M3623.66 3616.98c4.44,41.61 -11.43,24.33 -30.14,65 -36.2,78.64 12.89,179 115.71,176.36 118.81,-3.05 165.3,-169.33 53.57,-227.56l0.9 -33.45c-16.71,25.87 -13.78,87.81 -16.81,119.54 -4.75,49.82 -16.96,65.4 -68.67,58.15 -35.65,-46.61 -33.37,-138.85 -54.56,-158.05z"/>
     <path class="fil14" d="M2145.81 1677c27.7,0.45 42.66,11.66 61.14,19.88 -1.03,34.73 -9.49,46.12 -31.36,68.81 -23.95,-5.58 -44.89,-23.5 -60.87,-38.69l31.08 -50zm-100.64 -35.34l20.37 -22.17 59.37 36.06 -39.36 61.52 -33.83 -17.24c-49.96,24.46 26.11,-0.11 -18.89,1.18 -47.91,1.37 -43.08,-8.26 -50.79,35.97 22.55,-17.57 11.88,-3.92 24.22,-27.83 33.8,7.2 39.63,8.58 62.11,34.37l-11.35 41.48 14.64 6.73 15.48 -17.35c7.64,-8.87 5.97,-7.98 14,-15.3l58.38 25.67c21.94,-1.64 51.48,-20.44 71.1,-1.12 23.64,23.27 9.59,1.21 10.43,26.91l-23.22 5.38 20.74 21.53c13.53,15.53 4.76,-4.6 11.01,20.73 5.49,20.38 -3.22,12.08 22.86,4.52 15.99,1.87 16.79,2.29 28.37,8.3 1.71,0.89 11.76,7.03 13.93,8.59 16.26,11.7 7.85,5.55 17.06,15.23l110.74 -14.07c10.66,-29.31 21.19,-30.66 25.73,-65.07l-105.19 -58.34c-15.42,13.72 -5.2,11.29 -29.51,16.45 20.68,10.16 42.59,20.12 56.07,36.75 -8.55,28.01 -15.38,39.67 -35.33,58.3 -29.09,-8.15 -51.51,-17.48 -60.81,-40.9 -26.56,23.7 22.86,-24.03 -8.43,10.43l-16.27 16.81c-0.52,-37.65 0.86,-42.47 -16.6,-61.62 -0.86,-0.95 -2.43,-2.59 -3.32,-3.53l-50.58 -31.61c25.43,-33.58 12.52,-21.4 27.05,-59.57l19.77 -5.68 -17.13 -16.81c-31.73,-24.34 -251.18,-135.38 -260.93,-155.73l-2.02 29.17 39.12 22.82c14.82,9.41 27.17,19.69 49.07,22.01 -4.67,22.08 -7.21,22.69 -8.06,47.03z"/>
     <path class="fil13" d="M1928.49 4033.89c-9.38,51.04 1.18,186.66 -75.77,148.46 -44.78,-22.23 -32.54,-130.07 -57.33,-169.07l5.32 34.24c-88.57,56.8 -47.35,231.01 92.1,215.33 128.31,-14.42 140.82,-194.98 35.68,-228.96z"/>
     <path class="fil1" d="M3101.82 2195.5c1.27,1.1 3.7,0.57 4.24,2.7 6.33,24.83 4.2,-14.19 20.35,23.78l38.29 132.76c15.21,59.45 41.73,118.96 47.18,175.21l26.56 0.02 20.94 6.15c9.07,-20.19 8.93,15.24 2.85,-30.65 -3.77,-28.5 -55.23,-167.06 -58.42,-215.5l66.03 4.57c30.97,-7.57 5.63,14.41 23.88,-14.87l-26.89 -110.96c-39.46,-3.25 -125.17,16.49 -165.02,26.78z"/>
     <path class="fil4" d="M3116.84 1155.02c73.1,16.54 125.67,102.8 114.59,184.87 -4.9,36.23 -16.07,49.01 -24.23,72.01 28.09,-2.75 105.9,-48.86 135.1,-64.19 -22.16,-45.47 -50.94,-103.28 -77.12,-150.16 -26.18,-46.89 -47.47,-101.99 -76.2,-142.3 -12.19,27.76 -90.39,49.39 -137.67,81.13 23.15,3.65 52.01,6.45 65.53,18.64z"/>
     <path class="fil2" d="M1712.36 2331.46l8.62 29.91c1.35,15.08 -0.32,28.86 -2.39,43.42 33.22,-2.97 55.3,-8.99 85.69,-14.35l60.68 -10.58c22.58,-8.97 6.46,0.15 17.18,-10.86l-74.72 -160.31c-0.6,-0.94 -2.15,-2.59 -2.7,-3.46l-25.42 -51.44c-21.62,-35.57 -8.9,-51.77 -48.98,-64.22l-17.96 241.91z"/>
     <path class="fil1" d="M2361.79 2794.46c7.22,19.21 5.08,2.17 1.36,15.16 -4.83,16.86 2.8,3.48 -22.43,21.23 -24.29,17.09 -0.11,40.95 -11.55,87.38 -3.78,15.33 -3.12,7.53 -6.34,14.21l-14.56 32.23c-0.79,1.98 -2.39,8.46 -2.98,7.31 -0.61,-1.19 -1.64,5.27 -3.11,7.56 -16.78,-3.36 -14.23,-0.3 -22.34,-9.23 -23.01,2.46 -1.56,4.29 -22.38,-27.93l-19.25 43.45 12.49 16.12 35.55 -2.08c50.66,5.39 104.85,10.62 172.87,-42.84l20.13 -16.5c0.85,-0.65 2.7,-1.99 3.47,-2.57 6.25,-4.7 2.6,-0.21 9.09,-6.56 -1.43,-33.58 -41.18,-127.05 -62.99,-150.72l-67.04 13.77z"/>
     <path class="fil1" d="M2569.34 2231.03c-14.47,-28.71 -83.88,-217.37 -84.07,-243.94 -20.59,11.81 -5.61,-5.85 -26.28,25.45l-120.06 214.94 201.62 14.79c34.75,-2.94 14.76,6.94 28.78,-11.24z"/>
     <path class="fil3" d="M2005.44 2830.81l97.95 -23.66 -150.89 -299.46c-24.53,25.45 -14.88,6.67 -42.8,25.12 -7.52,50.98 59.24,216.84 68.7,286.51l27.04 11.49z"/>
     <path class="fil1" d="M1807.48 2602.22l21.91 69.54 55.54 -6.04 47.34 180.24 73.18 -15.15 -27.04 -11.49c-9.46,-69.67 -76.22,-235.53 -68.7,-286.51 27.92,-18.45 18.27,0.33 42.8,-25.12l-21.27 -39.86c-51.8,21.69 -79.26,17.35 -77.58,93.5l-48.77 11.88 2.6 29.02z"/>
     <path class="fil1" d="M1859.67 2191.92l275.65 20.15c-39.03,-27.95 -75.94,-47.71 -117.22,-72.65 -36.22,-21.89 -102.84,-47.41 -125.61,-78.78l-94.16 18.57c2.94,26.67 13.46,41.41 23.44,62.46 12.65,26.69 10.47,42.57 37.9,50.25z"/>
     <path class="fil15" d="M2231.35 2214.19c29.48,-10.3 7.92,6.38 43.1,-51.15 27.32,-44.67 89.96,-145.96 103.45,-183.63l-45.89 1.64c-39.57,10.72 -153.82,21.86 -176.12,37.97 13.47,60.96 29.47,40.81 66.14,74.46 -5.3,39.95 -21.38,24.08 -10.97,60.98 7.65,27.1 17.28,30.5 20.29,59.73z"/>
     <path class="fil16" d="M3448.01 2761.07l9.96 41.99 80.67 21.97 117.32 -32.34 6.71 -44.73 2.13 -28.96c-8.64,-12.86 14.26,-2.22 -17.84,-11.55l-75.49 -14.47c-36.2,-8.23 -60.18,-16.83 -100.61,-18.39l-22.84 86.48z"/>
     <path class="fil1" d="M2061.99 3226.67l87.35 -23.95c-16.27,-21.63 8.32,-4.84 -17.93,-7.48 -39.44,-3.96 -33.01,19.37 -49.28,-24.43 -10.65,-28.67 -15.5,-60.07 -26.31,-95.05 -9.77,-31.61 -17.13,-60.26 -25.48,-92.01 -4.39,-16.71 -8.71,-30.26 -13.88,-46.95l-10.48 -41.95 -22.83 -2.08 -30.7 2.01 53.26 203.94 -46.69 22.95 28.5 91.84c33.97,-0.24 33.15,-5.23 60.32,6.1 44.43,18.54 -25.96,-2.34 14.16,7.06z"/>
     <path class="fil17" d="M3753.97 2464.64c13,26.75 4.23,41.99 -2.02,69.9 -2.73,12.18 -5,30.02 -8.21,41.12 -5.86,20.21 -4.34,13.11 -13.55,24.27l22.27 167.8 46.5 -15.76c-1.76,-61.34 40.01,-223.48 43.87,-271.82 2.53,-31.74 -0.43,-30.25 -5.93,-38.61l-82.94 23.12z"/>
     <path class="fil1" d="M3002.09 1265.84c0.09,0.74 1.09,16.47 1.08,16.56 -4.37,24.81 -9.01,14.26 -11.18,19.23 -0.92,2.09 -4.28,1.63 -5.5,1.8 -6.75,0.94 -12.04,0.98 -18.56,0.78 -11.31,14.93 -5.86,-6.75 0.34,18.5 6.59,26.86 23.6,61.56 47.63,73.68 56.73,28.6 133.97,-13.26 125.66,-91.12 -1.49,-14 -3.56,-18.46 -8.16,-27.43 -16.82,-32.84 -44.96,-48.51 -86.83,-44.99 -68.98,5.81 -44.5,32.87 -44.48,32.99z"/>
     <path class="fil5" d="M3582.93 2623.76c-18.82,-15.28 -35.6,-35.88 -48.18,-65.45 49.63,-5.16 38.75,23.02 77.06,-5l3.06 37.07c23.25,-11.78 12.07,-27.36 40.18,-5.45 -20.26,21.96 -38.18,32.14 -72.12,38.83zm-103.37 -93.11c-8.96,119.23 -55.79,106.36 100.93,137.51 45.77,9.1 70.07,21.77 114.36,12.16l-17.1 -116.88 -29.09 0.48c-1.31,-0.31 -3.6,-1.06 -4.85,-1.42l-8.71 -2.79c-15.77,-7.03 -0.43,10.49 -16.19,-18.04 -8.64,-15.65 3.1,-3.88 -9.01,-16.85 -9.68,22.9 -0.07,12.21 -19.54,28.98l-47.29 -11.3c-19.43,-11.1 -13.5,-44.53 -63.52,-11.84z"/>
     <path class="fil1" d="M3584.01 730.83l183.43 108.38c14.18,-63.45 8.03,-47.44 50.77,-90.39 -27.08,-20.11 -156.69,-101.36 -186.1,-109.95 -28.24,90.75 -33.33,53.73 -48.11,91.96z"/>
     <path class="fil0" d="M1570.68 1244.01l-231.96 199.48c-6.6,24.92 3.66,27.81 25.24,45.43 62.79,-17.1 161.56,-112.92 196.71,-149.32 21.69,-24.11 49.29,-40.8 49.49,-80.44l-9.08 -9.27c-20.95,-16.25 -8.46,-14.69 -30.4,-5.88z"/>
     <path class="fil11" d="M2480.86 3082.85c-111.39,10.33 -108.33,38.27 -133.99,38.17l-12.96 -5.88c-11.32,-5.76 -22.42,-9.62 -31.33,-24.13 -1.04,-1.69 -1.98,-3.44 -2.91,-5.33 -0.98,-2 -1.69,-3.69 -2.54,-5.91l-9.8 -48.03c60.43,-0.4 73.19,6.49 109.05,-24.63 1.33,-1.16 2.85,-2.79 4.29,-3.9l87.63 -31.03c22.58,36.81 14.72,34.11 -4.43,62.03 -6.41,9.34 -8.31,9.68 -8.25,16.99 0.01,0.8 0.62,2.82 0.72,3.7 0.12,1.04 0.89,3.18 1.08,4.33 7.34,45.44 8.04,-1.39 3.43,23.62zm-230.15 -80.89l50.57 119.06 22.72 35.41c49.39,-12.64 197.99,-60.83 240.77,-60.74 -6.38,-32.49 -53.23,-146.95 -72.95,-164.28 -6.49,6.36 -2.84,1.86 -9.09,6.56 -0.77,0.58 -2.63,1.91 -3.47,2.57l-20.13 16.5c-68.02,53.46 -122.21,48.23 -172.87,42.84l-35.55 2.08z"/>
     <path class="fil0" d="M1028.49 1299.61l8.72 -307.81c-5.27,-25.71 10.06,-10.12 -16.57,-16.83l-20.96 0.25c-18.39,14.02 -12.33,2.12 -20.28,33.95l-15.38 130.97c-0.83,51.85 -4.74,128.87 20.19,170.34 46.26,7.15 41.68,-0.4 44.28,-10.86z"/>
     <path class="fil1" d="M2238.22 2985.84l19.25 -43.45c20.82,32.22 -0.63,30.38 22.38,27.93 8.11,8.93 5.56,5.87 22.34,9.23 1.47,-2.29 2.5,-8.75 3.11,-7.56 0.59,1.15 2.19,-5.33 2.98,-7.31l14.56 -32.23c3.22,-6.68 2.56,1.13 6.34,-14.21 11.44,-46.43 -12.75,-70.29 11.55,-87.38 25.23,-17.76 17.59,-4.38 22.43,-21.23 3.72,-12.98 5.86,4.05 -1.36,-15.16l-191.54 51.63 67.97 139.75z"/>
     <path class="fil2" d="M3259.38 2536.12c28.79,-8.83 29.8,-20.13 81.26,-25.65 1.51,-19.07 -16.16,-84.16 -21.06,-108.21 -4.48,-21.98 -8.32,-31.89 -12.49,-54.6 -2.45,-13.36 -3.18,-24.15 -4.45,-32.12l-8.92 -35.87c-18.26,29.28 7.09,7.3 -23.88,14.87l-66.03 -4.57c3.19,48.44 54.64,187 58.42,215.5 6.08,45.89 6.23,10.46 -2.85,30.65z"/>
     <path class="fil1" d="M3868.68 870.56c11.02,50.28 -39.98,52.22 -29.7,2.6l29.7 -2.6zm30.77 20.9c-13.26,-27.16 -8.72,-7.37 -1.74,-32.44 45.14,-4.62 41.05,35.96 1.74,32.44zm-44.49 -52.22c-0.01,-1.1 -1.66,3.49 -2.37,8.52l-29.74 -2.5 3.22 -27.18c10.96,-4.61 -12.03,-2.45 16,-4.06 14.82,-0.85 13.93,12.74 14.4,19.93 0.07,1.04 -1.49,6.33 -1.5,5.29zm23.74 -36.81c36.96,-18.63 59.22,39.58 2.36,30.17l-2.36 -30.17zm-90.92 62.43c18.34,108.11 186.86,93.98 173.76,-20.41 -5.06,-44.18 -50.7,-83.9 -101.71,-76.03 -43.32,6.69 -80.32,47.71 -72.05,96.43z"/>
     <path class="fil1" d="M3240.37 2586.35c-17.42,45.85 72.52,207.49 60.23,268.73 -29.85,18.29 -92.49,30.65 -124.13,40.16l1.58 25.31 179.9 -50.09 -1.57 -29.92 -71.75 -265.33 -44.25 11.15z"/>
     <path class="fil2" d="M3426.85 1784.43l-23.71 309.02 35.83 -12.48c0.09,-0.01 13.44,1.09 16.06,1.11l7.92 -75.06 13.83 -40.79 7.37 -15.79 12.05 -174.52c-26.42,4.26 -45.51,11.91 -69.36,8.51z"/>
     <path class="fil1" d="M3516.92 610.74c10.4,-26.72 4.62,-22.1 35.58,-20.48 1.35,22.13 -2.07,17.79 -2.29,25.92l3.43 18.31c10.15,20.24 18.2,2.92 9,31.09 -16.33,5.41 -16.85,6.9 -35.46,-5.56 -48.58,59.98 -37.05,-12.22 -37.06,-12.37 -1.99,-30.01 -14.03,-9.52 -16.14,-40.43 19.33,-9.74 19.82,-3.36 42.94,3.51zm-35.66 -49.7c-102.13,52.45 -25.83,203.62 81.77,150.73 90.78,-44.63 28.39,-207.3 -81.77,-150.73z"/>
     <path class="fil3" d="M2480.86 3082.85c4.61,-25.02 3.91,21.81 -3.43,-23.62 -0.19,-1.15 -0.95,-3.29 -1.08,-4.33 -0.1,-0.88 -0.72,-2.91 -0.72,-3.7 -0.07,-7.32 1.84,-7.66 8.25,-16.99 19.15,-27.92 27.01,-25.22 4.43,-62.03l-87.63 31.03c-1.45,1.12 -2.96,2.75 -4.29,3.9 -35.86,31.13 -48.62,24.23 -109.05,24.63l9.8 48.03c0.86,2.22 1.57,3.9 2.54,5.91 0.92,1.89 1.87,3.64 2.91,5.33 8.9,14.51 20.01,18.37 31.33,24.13l12.96 5.88c25.66,0.1 22.61,-27.84 133.99,-38.17z"/>
     <path class="fil1" d="M2010.88 2520.38l3.2 -6.42c0.08,-0.31 3.39,-17.41 3.57,-18.61 72.2,-4.34 211.43,-72.23 262.64,-63.56l-20.17 -56.03c-43.17,8.07 -99.45,26.98 -142.4,39.58 -24.19,7.1 -121.99,30.9 -138.56,43.01l31.72 62.03z"/>
     <path class="fil1" d="M2322.69 2415.57c1.95,-0.82 4.84,-4.16 5.85,-2.45 1.17,2 7.32,-3.05 11.53,-4.71 14.54,-5.74 3.82,-1.89 16.77,-6.46 56.55,-19.97 208.36,-51.91 243.82,-73.32l-8.29 -35.16c-108.93,10.43 -194.08,47.99 -291.25,67.47l21.56 54.64z"/>
     <path class="fil18" d="M1862.82 1983.74c9.15,-13.89 -8.62,-21.98 22.37,-57.98l-18.46 -10.87 -20.32 21.49c-5.45,6.06 -7.28,7.99 -14.68,15.74l-51.44 -29.89c-1,-29.57 13.14,-45.31 23.85,-66.35l20.92 3.77c18.3,-14.19 15.44,24.65 15.44,-17.1 -23.51,-4.63 -46.18,-6.28 -59.38,-18.19 -22.32,-20.15 1.15,1.65 -10.65,-14.8 -17.17,-23.93 20.8,3.18 -12.95,-15.73 -7.66,8.06 -58.8,94.09 -63.52,113.5 38.55,26.26 115.59,80.4 168.84,76.41z"/>
     <path class="fil16" d="M3532.49 2389.44l118.74 25.82 2.85 17.11 -23.54 -157.16c-43.44,-4.59 -69.6,-17.38 -82.78,28.94 -5.2,18.27 -14.48,68.4 -15.27,85.28z"/>
     <path class="fil7" d="M2293.49 1827.93c8.05,-12.23 11.2,-18.37 18.76,-30.03 1.57,-2.42 6.64,-10.38 9.11,-13.24 7.65,-8.84 4,-4.82 12.2,-10.89 24.32,-5.16 14.09,-2.73 29.51,-16.45 -20.47,-17.85 -91.66,-63.15 -117.96,-64.16l-19.77 5.68c-14.53,38.17 -1.62,25.99 -27.05,59.57l50.58 31.61c0.89,0.94 2.46,2.58 3.32,3.53 17.46,19.15 16.07,23.97 16.6,61.62l16.27 -16.81c31.29,-34.46 -18.13,13.27 8.43,-10.43z"/>
     <path class="fil1" d="M2537.72 2705.42c-19.47,-89.23 -97.57,-125.81 -156.29,-156.52l71.54 172.21 84.75 -15.69z"/>
     <polygon class="fil1" points="3308.76,2155.43 3339.79,2298.02 3389.51,2303.74 3401.74,2138.86 "/>
     <path class="fil19" d="M1951.49 2046.02c10.39,24.29 26.62,27.55 51.43,41.61l141.26 83.92c35.8,18.52 23.27,6.65 28.9,-3.57 -22.15,-29.38 -3.6,-14.73 -40.84,-44.72 3.69,-30.97 11.38,-24.24 -6.9,-50.67l-22.44 31.44c-26.15,-7.57 -37.86,-16.75 -55.4,-32.89 1.2,-26.1 0.63,-16.28 7.41,-36.39l-103.41 11.26z"/>
     <path class="fil1" d="M3470.85 2674.59c40.43,1.56 64.41,10.16 100.61,18.39l75.49 14.47c32.1,9.33 9.2,-1.3 17.84,11.55 15.03,-14.47 14.65,-9.16 36.58,-12.98l-6.5 -25.71c-44.3,9.61 -68.59,-3.06 -114.36,-12.16 -156.72,-31.16 -109.89,-18.28 -100.93,-137.51l-34.53 6.11c28.85,32.23 -46.02,66.25 25.81,137.83z"/>
     <path class="fil10" d="M3448.01 2761.07l22.84 -86.48c-71.84,-71.58 3.03,-105.61 -25.81,-137.83l-43.4 8.11c-2.43,19.36 36.1,198.2 46.37,216.2z"/>
     <path class="fil16" d="M3730.89 2414.16c13.35,-32.28 20.51,-64.77 13.43,-103.25 -24.53,-16.87 -30.18,-15.93 -66.12,-22.9 1.75,37.93 7.37,101.91 23.86,131.97l28.82 -5.82z"/>
     <path class="fil3" d="M2938.46 1088.25l12.69 31.4c31.52,2.7 97.24,-36.78 124.92,-52.61l-19.07 -43.34c-30.69,9.33 -100.64,44.8 -118.54,64.55z"/>
     <polygon class="fil10" points="3455.04,2082.08 3590.68,2053.17 3589.52,2025.82 3462.95,2007.02 "/>
     <polygon class="fil1" points="1028.49,1299.61 1049.99,1299.68 1055.88,990.2 1037.22,991.8 "/>
     <path class="fil20" d="M3627.15 1985.51l1.49 8.23 122.28 21.78c40.73,4.48 76.65,-7.41 106.59,-14.6l-235.79 -39.98 5.43 24.57z"/>
     <path class="fil21" d="M154.81 1006.34c3.05,33.74 13.58,34.92 29.52,61.81 32.28,-6.74 45.92,-20.09 63.57,-39.47 -5.98,-30.06 -14.92,-36.88 -38.11,-58.27 -27.16,6.88 -41.04,15.26 -54.99,35.93z"/>
     <path class="fil21" d="M319.05 1241.8c3.82,30.48 12.57,45.4 39.68,64.87 26.25,-5.6 42.06,-18.42 55.72,-39.71 -6.74,-24.91 -17.21,-40.01 -40.83,-54.9 -25.88,6.12 -36.71,18.75 -54.57,29.75z"/>
     <path class="fil22" d="M268.31 794.69c25.85,-13.75 26.96,-17.73 53.18,-26.21 15.05,14.82 32.73,35.89 37.4,59.16 -14.98,13.05 -32.88,31.58 -59.73,36.59 -18.41,-22.17 -34.3,-40.71 -35.49,-69.6 -24.01,11.9 -10.39,-12.39 -14.44,18.4 -5.1,38.74 10.11,11.99 21.51,34.95 16.94,34.14 -0.87,18.47 -0.99,18.75l5.03 6.17c35.97,9.73 26.59,10.17 61.77,-1.48 16.26,-4.09 5.56,-0.39 20.79,-8.05 9.75,-4.9 12.52,-7.81 23.73,-12.35l13.84 14.89 6.53 -13.16c-49.42,-18.03 -6.94,-7.92 -31.57,-49.68 -40.27,-68.25 -54.12,-43.33 -67.62,-39.1l-33.25 11.96c-0.07,3.83 -0.56,16.27 -0.68,18.75z"/>
     <path class="fil23" d="M2071.66 1791.73l-9.06 33.53 59.98 30.28c21,-18.31 34.02,-40.22 36.94,-70.79l-58.38 -25.67c-8.03,7.32 -6.36,6.43 -14,15.3l-15.48 17.35z"/>
     <path class="fil24" d="M274.77 872.89l-5.03 -6.17 -29.88 -39.34c-25.71,4.55 -50.95,23.63 -64.2,38.41 9.08,20.01 26.59,42.5 41.59,58.6 39.05,-16.25 54.88,-27.58 57.52,-51.51z"/>
     <path class="fil24" d="M336.54 871.41l-7.5 8.39c-7.07,9.9 -2.85,3.72 -9.55,14.85 12.84,20.81 27.67,39.36 38.97,57.42l62.77 -40.68 -26.33 -45.48 -13.84 -14.89c-11.21,4.54 -13.98,7.45 -23.73,12.35 -15.23,7.65 -4.53,3.96 -20.79,8.05z"/>
     <path class="fil1" d="M3469.1 2479.44l25.53 -6.22c8.07,-33.85 6.12,-59.19 48.24,-55.24 23.56,2.21 67.51,10.85 84.48,25.03l26.72 -10.65 -2.85 -17.11 -118.74 -25.82c-57.38,8.75 -55.41,33.84 -63.39,90.01z"/>
     <path class="fil21" d="M268.31 794.69l-4.65 -0.07c1.19,28.89 17.08,47.43 35.49,69.6 26.85,-5.01 44.76,-23.54 59.73,-36.59 -4.66,-23.26 -22.35,-44.34 -37.4,-59.16 -26.22,8.48 -27.34,12.45 -53.18,26.21z"/>
     <path class="fil21" d="M1982.04 1736.98l-6.25 35.87 56.8 29.61 24.43 -17.46 11.35 -41.48c-22.48,-25.78 -28.32,-27.17 -62.11,-34.37 -12.34,23.92 -1.66,10.26 -24.22,27.83z"/>
     <path class="fil9" d="M402.06 1192.5c9.57,22.86 23.72,39.36 36.38,59.24 30.73,-9.61 34.91,-23.74 63.88,-34.32 -7.3,-29.38 -25.71,-47.86 -39.68,-67.75l-60.59 42.83z"/>
     <path class="fil1" d="M2526.26 2882.82c10.32,-10.06 15.57,-45.08 19.32,-61.69 2.93,-13 6.4,-27.58 6.94,-41.28 0.73,-18.54 7.11,-12.64 -10.29,-20.92l-65.87 7.42c5.86,26.13 34.44,100.89 49.9,116.47z"/>
     <path class="fil23" d="M2293.49 1827.93c9.3,23.41 31.72,32.75 60.81,40.9 19.95,-18.64 26.77,-30.29 35.33,-58.3 -13.48,-16.63 -35.4,-26.59 -56.07,-36.75 -8.2,6.07 -4.55,2.04 -12.2,10.89 -2.46,2.86 -7.54,10.82 -9.11,13.24 -7.56,11.66 -10.71,17.8 -18.76,30.03z"/>
     <path class="fil25" d="M2190.53 1899.88l31.64 2.04c3.45,-9.75 2.65,-10.81 8.61,-20.79 0.82,-1.37 1.98,-3.23 2.91,-4.61 0.97,-1.44 2.27,-3.22 3.31,-4.6 15.95,-21.13 0.87,-0.88 12.58,-13.75 -6.25,-25.33 2.52,-5.2 -11.01,-20.73l-20.74 -21.53 -32.53 -4.54c-10.32,21.71 -26.88,37.48 -28.78,64.34 12.06,12.1 22.52,13.97 34.01,24.17z"/>
     <path class="fil18" d="M485.71 1130.85c11.1,23.98 25.12,47.77 44.28,61.46 22.58,-11.33 42.21,-24.59 57.78,-44.99 -7.57,-9.62 -11.76,-16.72 -17.4,-24.65l-25.48 -29.2 -59.17 37.38z"/>
     <path class="fil25" d="M1866.73 1914.89c0.81,-7.92 1.26,-14.75 1.56,-28.33l-43.24 -26.92 -20.92 -3.77c-10.72,21.04 -24.85,36.78 -23.85,66.35l51.44 29.89c7.4,-7.74 9.23,-9.68 14.68,-15.74l20.32 -21.49z"/>
     <path class="fil24" d="M377.99 976.56c11.56,21.59 23.58,40.12 40.31,57.62 20.54,-6.56 47.69,-24.7 60.39,-42.73 -12.23,-24 -23.25,-35.59 -39.65,-56.85l-61.04 41.96z"/>
     <path class="fil25" d="M1889.79 1724.75c12.67,7.69 38.63,20.8 54.98,25.34 21.88,-15.01 32.79,-30.88 36.56,-58.69 -14.51,-16.98 -34.33,-26.01 -58.9,-35.27 -13.03,20.45 -33.72,41.12 -32.64,68.62z"/>
     <path class="fil26" d="M235.64 948.42c4.21,10.1 9.48,21.08 15.26,31.07l25.92 29.97c20.93,-9.32 40.64,-23.94 57.56,-40.36l-36.36 -58.74c-30.66,9.84 -40.69,23.07 -62.37,38.05z"/>
     <path class="fil27" d="M294.46 1036.12c7.38,18.27 27.58,43.87 41.93,56.05 17.36,-10.37 39.98,-20.82 55.03,-41.15 -10.35,-23.72 -19.36,-37.68 -37.17,-55.65 -19.18,5.73 -45.28,22.68 -59.78,40.76z"/>
     <path class="fil9" d="M207.6 1095.7c13,21.72 28.31,37.32 38.25,58.73 12.93,-5.7 22.77,-12.04 33.14,-19.38 4.42,-3.13 8.59,-6.11 12.8,-9.52l16.43 -14.94c-16.14,-25.51 -24.35,-36.07 -35.82,-60.06l-64.8 45.17z"/>
     <path class="fil26" d="M92.39 924.43c11.3,24.45 23.71,45.62 42.95,57.51 25.85,-15.4 33.94,-20.06 55.26,-40.51l-40.37 -56.22c-25.61,6.93 -41.52,21.11 -57.84,39.22z"/>
     <path class="fil23" d="M2045.17 1641.66c-11.6,27.99 -12.99,13.63 -18.98,44.07l25.53 14.09 33.83 17.24 39.36 -61.52 -59.37 -36.06 -20.37 22.17z"/>
     <polygon class="fil1" points="1327.38,1432.42 1338.72,1443.49 1570.68,1244.01 1558.83,1228.55 "/>
     <path class="fil25" d="M2114.73 1726.99c15.98,15.19 36.92,33.11 60.87,38.69 21.87,-22.69 30.33,-34.08 31.36,-68.81 -18.48,-8.23 -33.44,-19.44 -61.14,-19.88l-31.08 50z"/>
     <path class="fil1" d="M2676.07 2665.45l39.12 -2.46c5.84,-24.34 -24.49,-109.25 -40.42,-131.43 -12.25,10.54 -15.19,47.13 -16.87,68.13 -0.78,9.77 -2.01,34.88 0.24,43.65 7.05,27.53 -3.6,7.23 17.93,22.12z"/>
     <path class="fil24" d="M3516.92 610.74c-23.12,-6.87 -23.61,-13.25 -42.94,-3.51 2.1,30.91 14.15,10.42 16.14,40.43 0.01,0.15 -11.52,72.34 37.06,12.37 18.61,12.46 19.13,10.97 35.46,5.56 9.2,-28.17 1.16,-10.85 -9,-31.09l-3.43 -18.31c0.22,-8.13 3.64,-3.78 2.29,-25.92 -30.95,-1.63 -25.18,-6.24 -35.58,20.48z"/>
     <path class="fil1" d="M3657.92 902.09c8.8,21.92 8.07,45.5 43.31,43.19 21.92,-1.44 38.29,-16.66 36.94,-43.37 -2.37,-46.76 -60.55,-55.8 -80.25,0.18z"/>
     <path class="fil1" d="M3512.74 839.71c16.84,5.17 39.56,20.2 59.99,0.5 14.04,-13.54 16.54,-39.89 2.56,-57.28 -26.6,-33.06 -77.8,-13.28 -62.55,56.78z"/>
     <polygon class="fil18" points="3462.95,2007.02 3589.52,2025.82 3583.38,1984.02 3476.78,1966.23 "/>
     <path class="fil24" d="M3582.93 2623.76c33.93,-6.68 51.85,-16.87 72.12,-38.83 -28.11,-21.91 -16.93,-6.33 -40.18,5.45l-3.06 -37.07c-38.31,28.02 -27.42,-0.16 -77.06,5 12.59,29.57 29.36,50.17 48.18,65.45z"/>
     <path class="fil25" d="M2054.89 2034.76c-6.78,20.11 -6.21,10.3 -7.41,36.39 17.55,16.14 29.25,25.32 55.4,32.89l22.44 -31.44 -16.32 -47.01 -54.12 9.17z"/>
     <path class="fil1" d="M3042.8 2447.45c-0.71,32.2 20.58,97.74 33.79,124.41l43.27 -8.44c-22.13,-26.8 -16.74,-40.97 -33.93,-68.93 -16.7,-27.16 -25.78,-28.32 -39.85,-57.04l-3.27 9.99z"/>
     <path class="fil5" d="M3494.63 2473.22l132.72 -30.21c-16.97,-14.18 -60.92,-22.82 -84.48,-25.03 -42.12,-3.95 -40.17,21.39 -48.24,55.24z"/>
     <path class="fil1" d="M2681.98 2717.19l12.69 21.87c0.58,0.74 2.02,2.19 2.63,2.93l70.34 54.29c-1.23,-31.87 -15.91,-59.24 -28.06,-90.62l-57.6 11.53z"/>
     <path class="fil19" d="M3750.92 2015.52l-122.28 -21.78 6.23 49.2 91.22 -15.46c29.22,-7.77 13.49,-1.25 24.83,-11.96z"/>
     <path class="fil1" d="M3716.61 2548.29l13.59 51.63c9.21,-11.16 7.69,-4.06 13.55,-24.27 3.22,-11.09 5.48,-28.93 8.21,-41.12 6.25,-27.91 15.02,-43.15 2.02,-69.9l-22.9 1.3c3.23,28.55 -1.37,63.14 -14.47,82.35z"/>
     <path class="fil28" d="M3400.28 2748.79l-10.37 -43.44 -45.71 -3.06 1.64 32.94c5.88,5.83 15.59,17.76 21.58,21.16 42.52,24.14 29.76,-2.33 32.86,-7.6z"/>
     <path class="fil29" d="M3344.2 2702.28l45.71 3.06 -21.98 -100.17c-1.18,1.72 -2.84,3.9 -3.51,5.2 -12.14,23.57 -15.29,54.28 -20.22,91.91z"/>
     <path class="fil30" d="M2190.53 1899.88l-4.04 13.01c-0.6,1.37 -2.21,4.56 -2.8,5.84 -0.65,1.41 -2.2,4.22 -3.33,6.32l75.13 -14.25 16.95 -48.11c-26.08,7.56 -17.37,15.86 -22.86,-4.52 -11.71,12.87 3.37,-7.38 -12.58,13.75 -1.04,1.37 -2.34,3.16 -3.31,4.6 -0.93,1.38 -2.09,3.24 -2.91,4.61 -5.96,9.98 -5.16,11.04 -8.61,20.79l-31.64 -2.04z"/>
     <polygon class="fil5" points="3484.16,1950.44 3476.78,1966.23 3583.38,1984.02 3577.21,1952.3 "/>
     <path class="fil31" d="M2822.03 1155.27c0.01,0 0.64,21.47 43.76,-1.7 27.5,-14.77 23.13,-12.49 25.37,-36.18 -20.29,0.35 -26.68,1.16 -43.63,9.72 -24.14,12.18 -19.47,10.33 -25.49,28.16z"/>
     <path class="fil21" d="M2255.5 1910.8l76.3 -15.99c-9.2,-9.68 -0.8,-3.53 -17.06,-15.23 -2.17,-1.56 -12.22,-7.7 -13.93,-8.59 -11.58,-6.01 -12.38,-6.43 -28.37,-8.3l-16.95 48.11z"/>
     <path class="fil17" d="M3664.79 2719l-2.13 28.96c18.06,12.29 18.62,7.46 47.3,12.63l-8.6 -54.56c-21.93,3.82 -21.55,-1.49 -36.58,12.98z"/>
     <path class="fil32" d="M3655.95 2792.68l53.83 -10.79 0.18 -21.31c-28.68,-5.16 -29.24,-0.34 -47.3,-12.63l-6.71 44.73z"/>
     <path class="fil23" d="M2967.93 1304.21c6.51,0.2 11.8,0.15 18.56,-0.78 1.22,-0.17 4.59,0.29 5.5,-1.8 2.17,-4.97 6.81,5.58 11.18,-19.23 0.01,-0.08 -0.99,-15.81 -1.08,-16.56l-36.66 -0.86 2.5 39.23z"/>
     <path class="fil33" d="M999.68 975.21l20.96 -0.25 10.61 -52.02 -16.92 -2.46c-7.15,10.13 -3.75,-8.7 -12.06,22.27 -2.84,10.6 -2.26,21.75 -2.61,32.46z"/>
     <path class="fil34" d="M3716.61 2548.29c13.1,-19.21 17.7,-53.8 14.47,-82.35l-22.35 5.78 7.88 76.57z"/>
     <path class="fil24" d="M3878.69 802.43l2.36 30.17c56.85,9.41 34.6,-48.79 -2.36,-30.17z"/>
     <path class="fil23" d="M3868.68 870.56l-29.7 2.6c-10.28,49.62 40.72,47.68 29.7,-2.6z"/>
     <path class="fil35" d="M3899.44 891.46c39.31,3.52 43.4,-37.06 -1.74,-32.44 -6.97,25.07 -11.51,5.28 1.74,32.44z"/>
     <path class="fil36" d="M3826.05 818.08l-3.22 27.18 29.74 2.5c0.71,-5.04 2.36,-9.62 2.37,-8.52 0.01,1.04 1.57,-4.25 1.5,-5.29 -0.46,-7.19 0.43,-20.78 -14.4,-19.93 -28.03,1.61 -5.04,-0.55 -16,4.06z"/>
     <path class="fil37" d="M1601.08 1249.9l9.08 9.27 32.55 -45.63 -16.75 -4.77c-14.62,28.16 -18.57,14.92 -24.88,41.14z"/>
    </g>
   </g>
  </g>
  <polygon class="fil38" points="-0,0 4751.03,0 4751.03,4751.03 -0,4751.03 "/>
 </g>
</svg>
