<?xml version="1.0" encoding="UTF-8"?>
<!DOCTYPE svg PUBLIC "-//W3C//DTD SVG 1.1//EN" "http://www.w3.org/Graphics/SVG/1.1/DTD/svg11.dtd">
<!-- Creator: CorelDRAW -->
<svg xmlns="http://www.w3.org/2000/svg" xml:space="preserve" width="1.62525in" height="6.54657in" version="1.1" style="shape-rendering:geometricPrecision; text-rendering:geometricPrecision; image-rendering:optimizeQuality; fill-rule:evenodd; clip-rule:evenodd"
viewBox="0 0 547.52 2205.43"
 xmlns:xlink="http://www.w3.org/1999/xlink"
 xmlns:xodm="http://www.corel.com/coreldraw/odm/2003">
 <defs>
  <style type="text/css">
   <![CDATA[
    .fil4 {fill:url(#id0)}
    .fil1 {fill:url(#id1)}
    .fil19 {fill:url(#id2)}
    .fil3 {fill:url(#id3)}
    .fil17 {fill:url(#id4)}
    .fil14 {fill:url(#id5)}
    .fil13 {fill:url(#id6)}
    .fil16 {fill:url(#id7)}
    .fil9 {fill:url(#id8)}
    .fil6 {fill:url(#id9)}
    .fil8 {fill:url(#id10)}
    .fil15 {fill:url(#id11)}
    .fil7 {fill:url(#id12)}
    .fil2 {fill:url(#id13)}
    .fil0 {fill:url(#id14)}
    .fil10 {fill:url(#id15)}
    .fil12 {fill:url(#id16)}
    .fil18 {fill:url(#id17)}
    .fil11 {fill:url(#id18)}
    .fil5 {fill:url(#id19)}
   ]]>
  </style>
  <linearGradient id="id0" gradientUnits="userSpaceOnUse" x1="-1776.25" y1="455.45" x2="-1769.91" y2="468.14">
   <stop offset="0" style="stop-opacity:1; stop-color:#EBFFF2"/>
   <stop offset="1" style="stop-opacity:1; stop-color:#F4FFF7"/>
  </linearGradient>
  <linearGradient id="id1" gradientUnits="userSpaceOnUse" xlink:href="#id0" x1="-1776.25" y1="455.45" x2="-1769.91" y2="468.14">
  </linearGradient>
  <linearGradient id="id2" gradientUnits="userSpaceOnUse" xlink:href="#id0" x1="-1776.25" y1="455.45" x2="-1769.91" y2="468.14">
  </linearGradient>
  <linearGradient id="id3" gradientUnits="userSpaceOnUse" xlink:href="#id0" x1="-1776.25" y1="455.45" x2="-1769.91" y2="468.14">
  </linearGradient>
  <linearGradient id="id4" gradientUnits="userSpaceOnUse" xlink:href="#id0" x1="-1776.25" y1="455.45" x2="-1769.91" y2="468.14">
  </linearGradient>
  <linearGradient id="id5" gradientUnits="userSpaceOnUse" xlink:href="#id0" x1="-1776.25" y1="455.45" x2="-1769.91" y2="468.14">
  </linearGradient>
  <linearGradient id="id6" gradientUnits="userSpaceOnUse" xlink:href="#id0" x1="-1776.25" y1="455.45" x2="-1769.91" y2="468.14">
  </linearGradient>
  <linearGradient id="id7" gradientUnits="userSpaceOnUse" xlink:href="#id0" x1="-1776.25" y1="455.45" x2="-1769.91" y2="468.14">
  </linearGradient>
  <linearGradient id="id8" gradientUnits="userSpaceOnUse" xlink:href="#id0" x1="-1776.25" y1="455.45" x2="-1769.91" y2="468.14">
  </linearGradient>
  <linearGradient id="id9" gradientUnits="userSpaceOnUse" xlink:href="#id0" x1="-1776.25" y1="455.45" x2="-1769.91" y2="468.14">
  </linearGradient>
  <linearGradient id="id10" gradientUnits="userSpaceOnUse" xlink:href="#id0" x1="-1776.25" y1="455.45" x2="-1769.91" y2="468.14">
  </linearGradient>
  <linearGradient id="id11" gradientUnits="userSpaceOnUse" xlink:href="#id0" x1="-1776.25" y1="455.45" x2="-1769.91" y2="468.14">
  </linearGradient>
  <linearGradient id="id12" gradientUnits="userSpaceOnUse" xlink:href="#id0" x1="-1776.25" y1="455.45" x2="-1769.91" y2="468.14">
  </linearGradient>
  <linearGradient id="id13" gradientUnits="userSpaceOnUse" xlink:href="#id0" x1="-1776.25" y1="455.45" x2="-1769.91" y2="468.14">
  </linearGradient>
  <linearGradient id="id14" gradientUnits="userSpaceOnUse" xlink:href="#id0" x1="-1776.25" y1="455.45" x2="-1769.91" y2="468.14">
  </linearGradient>
  <linearGradient id="id15" gradientUnits="userSpaceOnUse" xlink:href="#id0" x1="-1776.25" y1="455.45" x2="-1769.91" y2="468.14">
  </linearGradient>
  <linearGradient id="id16" gradientUnits="userSpaceOnUse" xlink:href="#id0" x1="-1776.25" y1="455.45" x2="-1769.91" y2="468.14">
  </linearGradient>
  <linearGradient id="id17" gradientUnits="userSpaceOnUse" xlink:href="#id0" x1="-1776.25" y1="455.45" x2="-1769.91" y2="468.14">
  </linearGradient>
  <linearGradient id="id18" gradientUnits="userSpaceOnUse" xlink:href="#id0" x1="-1776.25" y1="455.45" x2="-1769.91" y2="468.14">
  </linearGradient>
  <linearGradient id="id19" gradientUnits="userSpaceOnUse" xlink:href="#id0" x1="-1776.25" y1="455.45" x2="-1769.91" y2="468.14">
  </linearGradient>
 </defs>
 <g id="Layer_x0020_1">
  <metadata id="CorelCorpID_0Corel-Layer"/>
  <g id="_105553156790592">
   <path class="fil0" d="M-0 0c332.67,252.81 547.52,652.65 547.52,1102.72 0,450.07 -214.85,849.9 -547.52,1102.72l0 -8.77c328.6,-251.71 540.56,-648.05 540.56,-1093.95 0,-445.9 -211.97,-842.24 -540.56,-1093.95l0 -8.77z"/>
   <path class="fil1" d="M-0 44.14c312.24,247.14 512.6,629.45 512.6,1058.58 0,429.13 -200.36,811.44 -512.6,1058.58l0 -8.71c308.25,-245.99 505.82,-624.84 505.82,-1049.87 0,-425.04 -197.57,-803.88 -505.82,-1049.87l0 -8.71z"/>
   <path class="fil2" d="M-0 87.84c292.28,241.24 478.57,606.31 478.57,1014.88 0,408.57 -186.29,773.64 -478.57,1014.88l0 -8.66c288.37,-240.06 471.96,-601.68 471.96,-1006.22 0,-404.54 -183.59,-766.17 -471.96,-1006.22l0 -8.66z"/>
   <path class="fil3" d="M-0 131.28c272.72,235.12 445.39,583.1 445.39,971.43 0,388.33 -172.67,736.32 -445.39,971.43l0 -8.52c268.92,-233.88 438.95,-578.53 438.95,-962.92 0,-384.38 -170.03,-729.04 -438.95,-962.92l0 -8.52z"/>
   <path class="fil4" d="M-0 174.42c253.61,228.74 413.05,559.88 413.05,928.3 0,368.42 -159.44,699.56 -413.05,928.3l0 -8.42c249.91,-227.45 406.77,-555.34 406.77,-919.88 0,-364.54 -156.87,-692.43 -406.77,-919.88l0 -8.42z"/>
   <path class="fil5" d="M-0 217.33c234.92,222.08 381.53,536.6 381.53,885.39 0,348.79 -146.61,663.31 -381.53,885.39l0 -8.38c231.3,-220.74 375.41,-532.04 375.41,-877.01 0,-344.97 -144.11,-656.27 -375.41,-877.01l0 -8.38z"/>
   <path class="fil6" d="M-0 260.1c216.64,215.13 350.8,513.19 350.8,842.62 0,329.43 -134.17,627.49 -350.8,842.62l0 -8.4c213.09,-213.72 344.84,-508.58 344.84,-834.22 0,-325.64 -131.75,-620.5 -344.84,-834.22l0 -8.4z"/>
   <path class="fil7" d="M-0 302.83c198.75,207.84 320.85,489.6 320.85,799.89 0,310.29 -122.1,592.05 -320.85,799.89l0 -8.48c195.26,-206.36 315.03,-484.89 315.03,-791.41 0,-306.52 -119.77,-585.05 -315.03,-791.41l0 -8.48z"/>
   <path class="fil8" d="M-0 345.69c181.24,200.19 291.65,465.71 291.65,757.02 0,291.32 -110.41,556.83 -291.65,757.02l0 -8.54c177.81,-198.63 285.98,-460.91 285.98,-748.48 0,-287.57 -108.17,-549.85 -285.98,-748.48l0 -8.54z"/>
   <path class="fil9" d="M-0 388.85c164.08,192.13 263.19,441.41 263.19,713.87 0,272.46 -99.11,521.74 -263.19,713.87l0 -8.56c160.73,-190.48 257.66,-436.56 257.66,-705.31 0,-268.75 -96.93,-514.82 -257.66,-705.31l0 -8.56z"/>
   <path class="fil10" d="M-0 432.37c147.28,183.6 235.45,416.66 235.45,670.34 0,253.69 -88.16,486.75 -235.45,670.34l0 -8.59c144.03,-181.86 230.06,-411.75 230.06,-661.76 0,-250 -86.03,-479.9 -230.06,-661.76l0 -8.59z"/>
   <path class="fil11" d="M-0 476.39c130.86,174.55 208.4,391.38 208.4,626.32 0,234.95 -77.54,451.78 -208.4,626.32l0 -8.86c127.64,-172.68 203.15,-386.24 203.15,-617.46 0,-231.22 -75.51,-444.78 -203.15,-617.46l0 -8.86z"/>
   <path class="fil12" d="M-0 521.5c114.72,164.85 182.04,365.15 182.04,581.22 0,216.06 -67.32,416.37 -182.04,581.22l0 -8.99c111.59,-162.85 176.92,-359.9 176.92,-572.23 0,-212.33 -65.33,-409.37 -176.92,-572.23l0 -8.99z"/>
   <path class="fil13" d="M-0 567.63c98.96,154.43 156.34,338.05 156.34,535.08 0,197.03 -57.38,380.66 -156.34,535.08l0 -9.42c95.85,-152.25 151.35,-332.46 151.35,-525.66 0,-193.2 -55.5,-373.41 -151.35,-525.66l0 -9.42z"/>
   <path class="fil14" d="M-0 615.73c83.44,143.06 131.3,309.43 131.3,486.99 0,177.56 -47.85,343.93 -131.3,486.99l0 -9.68c80.44,-140.7 126.43,-303.63 126.43,-477.31 0,-173.68 -45.99,-336.61 -126.43,-477.31l0 -9.68z"/>
   <path class="fil15" d="M-0 666.22c68.24,130.54 106.88,278.99 106.88,436.5 0,157.5 -38.64,305.96 -106.88,436.5l0 -10.23c65.3,-127.92 102.14,-272.79 102.14,-426.26 0,-153.48 -36.84,-298.34 -102.14,-426.26l0 -10.23z"/>
   <path class="fil16" d="M-0 720.27c53.32,116.47 83.08,245.97 83.08,382.44 0,136.47 -29.76,265.98 -83.08,382.44l0 -11.27c50.4,-113.45 78.46,-239.03 78.46,-371.17 0,-132.14 -28.05,-257.72 -78.46,-371.17l0 -11.27z"/>
   <path class="fil17" d="M-0 780.04c38.64,100.13 59.88,208.92 59.88,322.68 0,113.76 -21.24,222.55 -59.88,322.68l0 -12.68c35.79,-96.56 55.37,-200.98 55.37,-309.99 0,-109.01 -19.58,-213.43 -55.37,-309.99l0 -12.68z"/>
   <path class="fil18" d="M-0 849.64c24.2,80.12 37.26,165.07 37.26,253.08 0,88.01 -13.06,172.96 -37.26,253.08l0 -15.45c21.41,-75.53 32.87,-155.24 32.87,-237.63 0,-82.39 -11.46,-162.1 -32.87,-237.63l0 -15.45z"/>
   <path class="fil19" d="M-0 941.93c9.95,52.08 15.22,105.81 15.22,160.79 0,54.98 -5.27,108.71 -15.22,160.79l0 -24.64c7.16,-44.33 10.94,-89.8 10.94,-136.15 0,-46.35 -3.78,-91.82 -10.94,-136.15l0 -24.64z"/>
  </g>
 </g>
</svg>
