<?xml version="1.0" encoding="UTF-8"?>
<!DOCTYPE svg PUBLIC "-//W3C//DTD SVG 1.1//EN" "http://www.w3.org/Graphics/SVG/1.1/DTD/svg11.dtd">
<!-- Creator: CorelDRAW -->
<svg xmlns="http://www.w3.org/2000/svg" xml:space="preserve" width="364.692mm" height="289.366mm" version="1.1" style="shape-rendering:geometricPrecision; text-rendering:geometricPrecision; image-rendering:optimizeQuality; fill-rule:evenodd; clip-rule:evenodd"
viewBox="0 0 80350.59 63754.33"
 xmlns:xlink="http://www.w3.org/1999/xlink"
 xmlns:xodm="http://www.corel.com/coreldraw/odm/2003">
 <defs>
  <style type="text/css">
   <![CDATA[
    .str1 {stroke:#263138;stroke-width:155.46;stroke-miterlimit:2.61313}
    .str3 {stroke:#C76146;stroke-width:77.73;stroke-miterlimit:2.61313}
    .str2 {stroke:black;stroke-width:38.87;stroke-miterlimit:2.61313}
    .str0 {stroke:black;stroke-width:38.87;stroke-miterlimit:2.61313}
    .str4 {stroke:#263138;stroke-width:77.73;stroke-linejoin:round;stroke-miterlimit:2.61313}
    .fil4 {fill:none}
    .fil7 {fill:#263138}
    .fil16 {fill:#32AB62}
    .fil3 {fill:#445964}
    .fil8 {fill:#B0533C}
    .fil6 {fill:#C76146}
    .fil12 {fill:#CA6448}
    .fil13 {fill:#D16344}
    .fil5 {fill:#EB8A73}
    .fil11 {fill:#ED8A74}
    .fil9 {fill:#F8E9E4}
    .fil10 {fill:#FEFEFE}
    .fil2 {fill:white}
    .fil17 {fill:#185530;fill-rule:nonzero}
    .fil14 {fill:#32AB62;fill-rule:nonzero}
    .fil0 {fill:#91E2A8;fill-rule:nonzero}
    .fil15 {fill:black;fill-rule:nonzero;fill-opacity:0.501961}
    .fil1 {fill:white;fill-rule:nonzero;fill-opacity:0.701961}
   ]]>
  </style>
    <clipPath id="id0">
     <path d="M52199.22 9322.43c143.17,-51.18 276.42,-155.95 723.92,-203.51 447.48,-47.61 1209.18,-38.12 1908.98,128.49 699.77,166.63 1337.7,490.33 1885.18,1028.28 547.42,537.94 1004.44,1290.09 1290.07,1994.66 285.63,704.55 399.89,1361.52 466.56,2061.31 66.63,699.79 85.64,1442.4 28.55,2047.01 -57.15,604.59 -190.43,1071.08 -361.79,1609.03 -171.39,537.94 -380.85,1147.29 -442.72,1561.46 -61.91,414.17 23.77,633.12 114.24,1123.46 90.47,490.33 185.65,1252.04 133.3,1956.61 -52.37,704.51 -252.32,1351.93 -476.03,1885.12 -223.76,533.18 -471.32,952.07 -709.33,1294.85 -238.02,342.74 -466.54,609.35 -768.38,768.67 -301.82,159.29 -676.99,211.29 -959.82,278.71 -282.81,67.42 -473.21,150.22 -1152.12,17.74 -678.93,-132.48 -1846.25,-480.17 -3075.73,-604.37 -1229.5,-124.17 -2521.06,-24.85 -4506.62,1190.76 -1985.61,1215.62 -4665.21,3547.44 -6020.69,5023.28 -1355.46,1475.8 -1386.74,2095.61 -1546.41,2987.73 -159.67,892.12 -447.61,2056.6 -641.67,2789.09 -194.08,732.45 -294.29,1032.92 -472.66,1123.72 -178.44,90.77 -435.14,-28.18 -929.7,-262.94 -494.61,-234.78 -1227.05,-585.34 -1887.52,-998.51 -660.53,-413.22 -1248.97,-889.05 -1696.59,-1421.2 -447.65,-532.15 -754.41,-1120.59 -907.78,-1724.72 -153.41,-604.15 -153.41,-1223.99 -25.07,-1756.12 128.34,-532.15 385.04,-976.61 592.56,-1307.69 207.48,-331.13 365.76,-548.81 646.54,-938.45 280.74,-389.67 683.93,-951.25 989.96,-1415.63 305.96,-464.4 514.72,-831.57 503.95,-1375.15 -10.8,-543.58 -241.19,-1263.56 -367.17,-1907.92 -126,-644.38 -147.64,-1213.22 -79.23,-1636.17 68.41,-422.98 226.78,-700.21 424.83,-993.57 197.98,-293.38 435.54,-602.96 799.16,-930.54 363.58,-327.6 853.16,-673.18 1400.34,-946.76 547.2,-273.62 1151.92,-475.22 1919.11,-726.45 767.13,-251.24 1696.63,-552.15 2344.01,-941.84 647.33,-389.71 1012.52,-868.23 1402.92,-1478.99 390.37,-610.74 805.9,-1353.67 1152.25,-2178.5 346.28,-824.85 623.3,-1731.51 838.36,-2450.54 215.06,-719.03 368.1,-1250.38 643.83,-1795.95 275.67,-545.61 674.02,-1105.43 1142.34,-1541.43 468.3,-436.07 1006.62,-748.24 1480.34,-947.39 473.68,-199.2 882.73,-285.34 1308.02,-328.39 425.23,-43.05 866.67,-43.05 1275.77,-37.68 409.08,5.4 785.92,16.13 1050.84,22.72 264.9,6.54 417.98,8.9 561.14,-42.26z"/>
    </clipPath>
    <clipPath id="id1">
     <path d="M49683.36 16974.43c197.87,-218.12 523.53,-543.78 969.54,-943.74 445.94,-399.95 1012.24,-874.22 1564.39,-1252.92 552.15,-378.74 1090.14,-661.92 1567.96,-902.6 477.82,-240.66 895.46,-438.89 1210.48,-591.06 315,-152.2 527.37,-258.4 665.45,-336.26 138.03,-77.86 201.71,-127.41 329.14,-21.22 127.41,106.17 318.57,368.05 534.46,753.88 215.87,385.79 456.6,895.46 584.01,1341.44 127.41,445.96 141.56,828.22 150.64,1410.96 9.03,582.71 13,1365.88 14.98,1951.39 1.96,585.47 1.96,973.28 11.19,1502.7 9.25,529.35 27.69,1200.33 -139.93,1836.69 -167.67,636.34 -521.38,1238.07 -870.61,1674.35 -349.24,436.31 -694,707.18 -930.98,867.26 -237.02,160.02 -366.27,209.26 -652.51,172.34 -286.25,-36.93 -729.47,-160.09 -951.07,-187.76 -221.62,-27.72 -221.62,40.03 -233.92,332.45 -12.32,292.39 -36.97,809.45 -27.72,1148.04 9.23,338.55 52.33,498.62 261.64,686.38 209.29,187.74 584.81,403.19 760.25,541.71 175.44,138.52 150.79,200.05 86.19,329.34 -64.64,129.29 -169.32,326.23 -446.33,563.26 -277.01,236.98 -726.37,513.99 -1175.74,667.89 -449.4,153.9 -898.75,184.7 -1286.56,187.8 -387.86,3.06 -714.09,-21.59 -1120.39,-175.49 -406.3,-153.9 -892.62,-437.04 -1418.16,-743.11 -525.56,-306.1 -1090.32,-635.02 -1484.3,-936.64 -393.98,-301.67 -617.13,-575.99 -707.18,-713.15 -90.05,-137.17 -46.95,-137.17 162.36,-204.88 209.31,-67.71 584.81,-203.12 874.11,-335.47 289.33,-132.35 492.49,-261.61 664.87,-544.8 172.34,-283.18 313.94,-720.22 452.46,-1141.9 138.5,-421.7 273.91,-827.96 341.61,-1166.55 67.71,-338.57 67.71,-609.42 36.97,-929.53 -30.8,-320.11 -92.36,-689.48 -200.05,-871.05 -107.74,-181.64 -261.66,-175.47 -415.55,-197.01 -153.9,-21.55 -307.79,-70.81 -517.1,-276.99 -209.29,-206.25 -474.01,-569.41 -630.96,-852.59 -156.96,-283.18 -206.25,-486.32 -236.98,-744.85 -30.78,-258.57 -43.14,-572.53 -15.42,-815.68 27.69,-243.17 95.44,-415.51 215.48,-566.34 120.05,-150.83 292.39,-280.08 467.84,-323.17 175.44,-43.1 353.95,0 523.27,61.58 169.28,61.54 329.32,141.6 440.12,175.44 110.8,33.86 172.38,21.5 238.21,-39.94 65.85,-61.49 135.96,-172.1 333.86,-390.22z"/>
    </clipPath>
    <clipPath id="id2">
     <path d="M37742.9 38928.78c-19.48,589.9 -51.64,1753.05 -43.6,2948.38 8.04,1195.3 56.27,2422.82 206.36,3435.89 150.08,1013.05 401.98,1811.73 737.01,2379.92 335.03,568.15 753.09,905.86 1066.7,1106.89 313.57,200.98 522.61,265.31 745.09,310.9 222.44,45.54 458.25,72.31 822.78,75 364.48,2.71 857.59,-18.77 1224.78,-77.69 367.17,-58.96 608.38,-155.48 975.55,-546.78 367.19,-391.3 860.3,-1077.36 1742.04,-2371.84 881.76,-1294.52 2152.11,-3197.39 2851.64,-4253.34 699.51,-1055.95 828.13,-1264.97 1219.43,-1385.55 391.3,-120.63 1045.26,-152.82 1425.83,-209.09 380.54,-56.27 487.75,-136.71 576.21,-195.63 88.44,-58.98 158.08,-96.52 493.11,-115.25 335.03,-18.77 935.34,-18.77 1293.7,-43.87 358.34,-25.12 474.75,-75.37 660.6,-199.79 185.84,-124.42 441.22,-323.04 656.04,-576.35 214.82,-253.35 389.09,-561.41 476.23,-780.28 87.16,-218.87 87.16,-348.58 81.1,-468.12 -6.08,-119.57 -18.26,-229.03 -97.3,-350.6 -79.03,-121.62 -224.97,-255.38 -297.9,-366.84 -72.97,-111.46 -72.97,-200.61 56.73,-226.96 129.7,-26.35 389.09,10.16 563.39,-30.38 174.28,-40.56 263.46,-158.08 306.01,-352.63 42.57,-194.59 38.49,-466.12 -58.76,-695.12 -97.3,-229.01 -287.79,-415.49 -530.98,-512.74 -243.19,-97.3 -539.05,-105.38 -1175.41,-91.21 -636.36,14.19 -1613.17,50.7 -2249.49,131.73 -636.36,81.06 -932.26,206.73 -1528.06,547.2 -595.82,340.45 -1491.6,895.75 -2233.32,1418.62 -741.74,522.85 -1329.46,1013.27 -2111.96,1786.79 -782.5,773.47 -1759.77,1830.06 -2244.88,2353.04 -485.15,522.98 -478.1,512.41 -350.23,19.67 127.83,-492.78 376.45,-1467.69 517.19,-2036.37 140.68,-568.7 173.44,-731.08 141.78,-818.68 -31.68,-87.6 -127.79,-100.36 -347.98,-122.83 -220.24,-22.5 -564.63,-54.64 -863.78,-76.12 -299.18,-21.46 -553.1,-32.19 -784.02,-52 -230.99,-19.85 -438.91,-48.78 -757.89,-70.28 -319.01,-21.5 -748.99,-35.58 -1171.95,-44.37 -423,-8.84 -838.95,-12.38 -1164.24,-22.58 -325.29,-10.2 -559.95,-27.1 -680.65,-27.19 -120.72,-0.13 -127.46,16.52 -146.89,606.44z"/>
    </clipPath>
    <clipPath id="id3">
     <path d="M61673.32 38615.76c121.86,52 390.72,150.55 1059.1,502.96 668.35,352.39 1736.24,958.63 2454.41,1434.29 718.15,475.66 1086.53,820.71 1489.92,1049.25 403.39,228.48 841.73,340.4 1219.47,394.03 377.7,53.63 694.84,48.98 1009.59,-27.98 314.76,-76.94 627.2,-226.16 981.61,-475.61 354.41,-249.5 750.78,-599.28 1032.75,-930.28 281.99,-331.04 449.57,-643.33 675.27,-1049.36 225.68,-406.06 509.52,-905.8 860.59,-1651.75 351.04,-745.97 769.37,-1738.16 1284.6,-2999.34 515.23,-1261.25 1127.44,-2791.53 1564.94,-3905.29 437.45,-1113.76 700.21,-1810.96 853.07,-2264.16 152.86,-453.21 195.76,-662.34 233.3,-815.2 37.54,-152.86 69.73,-249.39 203.82,-394.2 134.05,-144.82 370.03,-337.89 616.51,-564.76 246.48,-226.91 503.42,-487.56 948.85,-944.31 445.36,-456.82 1079.24,-1109.71 1424.37,-1499.64 345.14,-389.93 401.52,-516.86 403.3,-622.64 1.78,-105.84 -51.14,-190.45 -100.49,-208.1 -49.4,-17.67 -95.22,31.73 -248.61,132.26 -153.46,100.49 -414.39,252.12 -569.52,290.94 -155.2,38.78 -204.59,-35.32 -49.4,-270.67 155.17,-235.42 514.85,-632.13 751.13,-915.12 236.28,-283.03 349.17,-452.28 387.95,-563.39 38.78,-111.09 3.53,-163.97 -31.75,-199.22 -35.25,-35.32 -70.53,-52.92 -162.22,-37.06 -91.7,15.86 -239.8,65.22 -349.1,105.8 -109.37,40.56 -179.89,72.31 -79.36,-64.36 100.49,-136.67 372.04,-441.68 536.05,-666.48 163.97,-224.84 220.35,-369.46 245.04,-484.03 24.7,-114.63 17.67,-199.28 -61.69,-236.28 -79.36,-37.06 -230.97,-26.44 -324.43,5.29 -93.48,31.7 -128.74,84.63 -285.65,264.46 -156.94,179.85 -435.56,486.65 -703.58,791.71 -268.02,305.02 -525.43,608.32 -703.52,796.98 -178.11,188.66 -276.82,262.76 -313.81,236.32 -37.06,-26.48 -12.4,-153.41 153.35,-435.52 165.75,-282.15 472.55,-719.45 673.58,-966.3 201.02,-246.87 296.25,-303.28 361.51,-384.36 65.22,-81.15 100.49,-186.97 103.99,-271.59 3.53,-84.65 -24.68,-148.1 -107.56,-185.09 -82.86,-37.06 -220.41,-47.66 -539.55,218.63 -319.16,266.22 -819.89,809.32 -1260.72,1345.34 -440.8,536.05 -821.7,1065 -1117.9,1375.35 -296.23,310.33 -507.85,402 -655.95,440.82 -148.15,38.78 -232.75,24.65 -218.67,-104.06 14.1,-128.69 126.97,-372.06 204.55,-539.55 77.55,-167.53 119.92,-259.19 128.74,-444.33 8.79,-185.16 -15.86,-463.78 -102.27,-663.02 -86.39,-199.22 -234.54,-319.14 -393.19,-301.49 -158.7,17.65 -327.97,172.8 -433.77,462 -105.78,289.15 -148.15,712.35 -225.7,1139.08 -77.58,426.68 -190.45,856.89 -296.25,1280.08 -105.78,423.18 -204.53,839.33 -361.46,1213.13 -156.91,373.82 -372.06,705.32 -1422.79,2267.03 -1050.79,1561.66 -2937.23,4353.56 -3903.73,5749.52 -966.54,1395.91 -1013.21,1395.91 -1078.47,1388.9 -65.3,-7.01 -149.25,-20.97 -394.12,-179.54 -244.85,-158.59 -650.64,-461.78 -861.18,-618.54 -210.59,-156.8 -226.01,-167.2 -298.56,-85.62 -72.55,81.54 -202.26,255.09 -679.7,736.19 -477.44,481.08 -1302.65,1269.73 -1859.32,1792.85 -556.72,523.05 -844.97,780.54 -1039.62,942.66 -194.68,162.07 -295.74,228.65 -396.69,304.31 -100.97,75.66 -201.84,160.37 -264.79,205.45 -62.99,45.08 -88.13,50.54 33.73,102.61z"/>
    </clipPath>
 </defs>
 <g id="Layer_x0020_1">
  <metadata id="CorelCorpID_0Corel-Layer"/>
  <g id="_105553780921088">
   <path class="fil0" d="M8735.13 5792.46c30.03,-27.32 60.13,-54.55 90.29,-81.74 8312.24,-7484.64 19352.81,-7822.06 27395.83,234.89 4192.02,4199.29 11635.53,3395.64 16961.16,4914.49 18362.16,5236.98 15187.4,30150.79 6117.11,42193.98 -8185.03,10867.81 -25919.97,13323.08 -37835.42,7975.92 -10470.47,-4698.79 -17843.12,-15195.9 -20466.88,-26171.73 -263.18,-1100.74 -479.56,-2212.56 -644.96,-3332.16 -1380.13,-9343.38 1270.79,-19266.5 8382.86,-25733.64z"/>
   <path class="fil1" d="M8735.13 5792.46c30.03,-27.32 60.13,-54.55 90.29,-81.74 8312.24,-7484.64 19352.81,-7822.06 27395.83,234.89 4192.02,4199.29 11635.53,3395.64 16961.16,4914.49 18362.16,5236.98 15187.4,30150.79 6117.11,42193.98 -8185.03,10867.81 -25919.97,13323.08 -37835.42,7975.92 -10470.47,-4698.79 -17843.12,-15195.9 -20466.88,-26171.73 -263.18,-1100.74 -479.56,-2212.56 -644.96,-3332.16 -1380.13,-9343.38 1270.79,-19266.5 8382.86,-25733.64z"/>
   <circle class="fil2 str0" cx="49685.52" cy="32096.01" r="19266.79"/>
   <path class="fil3" d="M52199.22 9322.43c143.17,-51.18 276.42,-155.95 723.92,-203.51 447.48,-47.61 1209.18,-38.12 1908.98,128.49 699.77,166.63 1337.7,490.33 1885.18,1028.28 547.42,537.94 1004.44,1290.09 1290.07,1994.66 285.63,704.55 399.89,1361.52 466.56,2061.31 66.63,699.79 85.64,1442.4 28.55,2047.01 -57.15,604.59 -190.43,1071.08 -361.79,1609.03 -171.39,537.94 -380.85,1147.29 -442.72,1561.46 -61.91,414.17 23.77,633.12 114.24,1123.46 90.47,490.33 185.65,1252.04 133.3,1956.61 -52.37,704.51 -252.32,1351.93 -476.03,1885.12 -223.76,533.18 -471.32,952.07 -709.33,1294.85 -238.02,342.74 -466.54,609.35 -768.38,768.67 -301.82,159.29 -676.99,211.29 -959.82,278.71 -282.81,67.42 -473.21,150.22 -1152.12,17.74 -678.93,-132.48 -1846.25,-480.17 -3075.73,-604.37 -1229.5,-124.17 -2521.06,-24.85 -4506.62,1190.76 -1985.61,1215.62 -4665.21,3547.44 -6020.69,5023.28 -1355.46,1475.8 -1386.74,2095.61 -1546.41,2987.73 -159.67,892.12 -447.61,2056.6 -641.67,2789.09 -194.08,732.45 -294.29,1032.92 -472.66,1123.72 -178.44,90.77 -435.14,-28.18 -929.7,-262.94 -494.61,-234.78 -1227.05,-585.34 -1887.52,-998.51 -660.53,-413.22 -1248.97,-889.05 -1696.59,-1421.2 -447.65,-532.15 -754.41,-1120.59 -907.78,-1724.72 -153.41,-604.15 -153.41,-1223.99 -25.07,-1756.12 128.34,-532.15 385.04,-976.61 592.56,-1307.69 207.48,-331.13 365.76,-548.81 646.54,-938.45 280.74,-389.67 683.93,-951.25 989.96,-1415.63 305.96,-464.4 514.72,-831.57 503.95,-1375.15 -10.8,-543.58 -241.19,-1263.56 -367.17,-1907.92 -126,-644.38 -147.64,-1213.22 -79.23,-1636.17 68.41,-422.98 226.78,-700.21 424.83,-993.57 197.98,-293.38 435.54,-602.96 799.16,-930.54 363.58,-327.6 853.16,-673.18 1400.34,-946.76 547.2,-273.62 1151.92,-475.22 1919.11,-726.45 767.13,-251.24 1696.63,-552.15 2344.01,-941.84 647.33,-389.71 1012.52,-868.23 1402.92,-1478.99 390.37,-610.74 805.9,-1353.67 1152.25,-2178.5 346.28,-824.85 623.3,-1731.51 838.36,-2450.54 215.06,-719.03 368.1,-1250.38 643.83,-1795.95 275.67,-545.61 674.02,-1105.43 1142.34,-1541.43 468.3,-436.07 1006.62,-748.24 1480.34,-947.39 473.68,-199.2 882.73,-285.34 1308.02,-328.39 425.23,-43.05 866.67,-43.05 1275.77,-37.68 409.08,5.4 785.92,16.13 1050.84,22.72 264.9,6.54 417.98,8.9 561.14,-42.26z"/>
   <g style="clip-path:url(#id0)">
    <g>
     <path id="_1" class="fil4 str1" d="M43792.33 21574.95c-412.67,525.28 -825.4,1050.51 -1093.36,1452.47 -267.98,401.98 -391.27,680.67 -487.73,978.15 -96.48,297.42 -166.17,613.69 -187.56,895.11 -21.46,281.35 5.33,527.85 62.66,760.93 57.37,233.06 145.28,452.59 189.28,562.4 43.91,109.77 43.91,109.77 43.91,109.77"/>
     <path class="fil4 str1" d="M46523.51 13942.72c307.62,-461.43 615.21,-922.85 890.24,-1318.99 274.99,-396.21 517.3,-727.11 806.25,-1044.03 288.98,-316.94 624.58,-619.93 957.82,-862.26 333.22,-242.4 664.19,-424.12 932.19,-540.65 267.96,-116.53 473.06,-167.78 708.41,-202.7 235.37,-34.99 501.08,-53.65 766.71,-72.27"/>
     <path class="fil4 str1" d="M52619.86 9720c480.04,102.56 960.11,205.06 1391.22,384.55 431.09,179.43 813.31,435.8 1102.28,692.13 288.96,256.35 484.74,512.69 603.56,727.07 118.86,214.4 160.79,386.8 181.77,570.93 21,184.13 21,379.86 21,498.68 0,118.86 0,160.86 0,202.76"/>
    </g>
   </g>
   <path class="fil4 str2" d="M52199.22 9322.43c143.17,-51.18 276.42,-155.95 723.92,-203.51 447.48,-47.61 1209.18,-38.12 1908.98,128.49 699.77,166.63 1337.7,490.33 1885.18,1028.28 547.42,537.94 1004.44,1290.09 1290.07,1994.66 285.63,704.55 399.89,1361.52 466.56,2061.31 66.63,699.79 85.64,1442.4 28.55,2047.01 -57.15,604.59 -190.43,1071.08 -361.79,1609.03 -171.39,537.94 -380.85,1147.29 -442.72,1561.46 -61.91,414.17 23.77,633.12 114.24,1123.46 90.47,490.33 185.65,1252.04 133.3,1956.61 -52.37,704.51 -252.32,1351.93 -476.03,1885.12 -223.76,533.18 -471.32,952.07 -709.33,1294.85 -238.02,342.74 -466.54,609.35 -768.38,768.67 -301.82,159.29 -676.99,211.29 -959.82,278.71 -282.81,67.42 -473.21,150.22 -1152.12,17.74 -678.93,-132.48 -1846.25,-480.17 -3075.73,-604.37 -1229.5,-124.17 -2521.06,-24.85 -4506.62,1190.76 -1985.61,1215.62 -4665.21,3547.44 -6020.69,5023.28 -1355.46,1475.8 -1386.74,2095.61 -1546.41,2987.73 -159.67,892.12 -447.61,2056.6 -641.67,2789.09 -194.08,732.45 -294.29,1032.92 -472.66,1123.72 -178.44,90.77 -435.14,-28.18 -929.7,-262.94 -494.61,-234.78 -1227.05,-585.34 -1887.52,-998.51 -660.53,-413.22 -1248.97,-889.05 -1696.59,-1421.2 -447.65,-532.15 -754.41,-1120.59 -907.78,-1724.72 -153.41,-604.15 -153.41,-1223.99 -25.07,-1756.12 128.34,-532.15 385.04,-976.61 592.56,-1307.69 207.48,-331.13 365.76,-548.81 646.54,-938.45 280.74,-389.67 683.93,-951.25 989.96,-1415.63 305.96,-464.4 514.72,-831.57 503.95,-1375.15 -10.8,-543.58 -241.19,-1263.56 -367.17,-1907.92 -126,-644.38 -147.64,-1213.22 -79.23,-1636.17 68.41,-422.98 226.78,-700.21 424.83,-993.57 197.98,-293.38 435.54,-602.96 799.16,-930.54 363.58,-327.6 853.16,-673.18 1400.34,-946.76 547.2,-273.62 1151.92,-475.22 1919.11,-726.45 767.13,-251.24 1696.63,-552.15 2344.01,-941.84 647.33,-389.71 1012.52,-868.23 1402.92,-1478.99 390.37,-610.74 805.9,-1353.67 1152.25,-2178.5 346.28,-824.85 623.3,-1731.51 838.36,-2450.54 215.06,-719.03 368.1,-1250.38 643.83,-1795.95 275.67,-545.61 674.02,-1105.43 1142.34,-1541.43 468.3,-436.07 1006.62,-748.24 1480.34,-947.39 473.68,-199.2 882.73,-285.34 1308.02,-328.39 425.23,-43.05 866.67,-43.05 1275.77,-37.68 409.08,5.4 785.92,16.13 1050.84,22.72 264.9,6.54 417.98,8.9 561.14,-42.26z"/>
   <path class="fil5" d="M49683.36 16974.43c197.87,-218.12 523.53,-543.78 969.54,-943.74 445.94,-399.95 1012.24,-874.22 1564.39,-1252.92 552.15,-378.74 1090.14,-661.92 1567.96,-902.6 477.82,-240.66 895.46,-438.89 1210.48,-591.06 315,-152.2 527.37,-258.4 665.45,-336.26 138.03,-77.86 201.71,-127.41 329.14,-21.22 127.41,106.17 318.57,368.05 534.46,753.88 215.87,385.79 456.6,895.46 584.01,1341.44 127.41,445.96 141.56,828.22 150.64,1410.96 9.03,582.71 13,1365.88 14.98,1951.39 1.96,585.47 1.96,973.28 11.19,1502.7 9.25,529.35 27.69,1200.33 -139.93,1836.69 -167.67,636.34 -521.38,1238.07 -870.61,1674.35 -349.24,436.31 -694,707.18 -930.98,867.26 -237.02,160.02 -366.27,209.26 -652.51,172.34 -286.25,-36.93 -729.47,-160.09 -951.07,-187.76 -221.62,-27.72 -221.62,40.03 -233.92,332.45 -12.32,292.39 -36.97,809.45 -27.72,1148.04 9.23,338.55 52.33,498.62 261.64,686.38 209.29,187.74 584.81,403.19 760.25,541.71 175.44,138.52 150.79,200.05 86.19,329.34 -64.64,129.29 -169.32,326.23 -446.33,563.26 -277.01,236.98 -726.37,513.99 -1175.74,667.89 -449.4,153.9 -898.75,184.7 -1286.56,187.8 -387.86,3.06 -714.09,-21.59 -1120.39,-175.49 -406.3,-153.9 -892.62,-437.04 -1418.16,-743.11 -525.56,-306.1 -1090.32,-635.02 -1484.3,-936.64 -393.98,-301.67 -617.13,-575.99 -707.18,-713.15 -90.05,-137.17 -46.95,-137.17 162.36,-204.88 209.31,-67.71 584.81,-203.12 874.11,-335.47 289.33,-132.35 492.49,-261.61 664.87,-544.8 172.34,-283.18 313.94,-720.22 452.46,-1141.9 138.5,-421.7 273.91,-827.96 341.61,-1166.55 67.71,-338.57 67.71,-609.42 36.97,-929.53 -30.8,-320.11 -92.36,-689.48 -200.05,-871.05 -107.74,-181.64 -261.66,-175.47 -415.55,-197.01 -153.9,-21.55 -307.79,-70.81 -517.1,-276.99 -209.29,-206.25 -474.01,-569.41 -630.96,-852.59 -156.96,-283.18 -206.25,-486.32 -236.98,-744.85 -30.78,-258.57 -43.14,-572.53 -15.42,-815.68 27.69,-243.17 95.44,-415.51 215.48,-566.34 120.05,-150.83 292.39,-280.08 467.84,-323.17 175.44,-43.1 353.95,0 523.27,61.58 169.28,61.54 329.32,141.6 440.12,175.44 110.8,33.86 172.38,21.5 238.21,-39.94 65.85,-61.49 135.96,-172.1 333.86,-390.22z"/>
   <g style="clip-path:url(#id1)">
    <g>
     <path id="_1_0" class="fil4 str3" d="M48399.26 25249.83c258.73,406.54 517.43,813.13 840.85,1158.09 323.44,344.94 711.47,628.3 1078.05,803.9 366.53,175.53 711.45,243.28 1114.91,243.28 403.48,0 865.54,-67.75 1247.45,-209.44 381.89,-141.67 683.75,-357.28 847.06,-507.74 163.3,-150.48 188.13,-235.84 200.52,-278.51 12.38,-42.65 12.38,-42.65 12.38,-42.65"/>
    </g>
   </g>
   <path class="fil4 str2" d="M49683.36 16974.43c197.87,-218.12 523.53,-543.78 969.54,-943.74 445.94,-399.95 1012.24,-874.22 1564.39,-1252.92 552.15,-378.74 1090.14,-661.92 1567.96,-902.6 477.82,-240.66 895.46,-438.89 1210.48,-591.06 315,-152.2 527.37,-258.4 665.45,-336.26 138.03,-77.86 201.71,-127.41 329.14,-21.22 127.41,106.17 318.57,368.05 534.46,753.88 215.87,385.79 456.6,895.46 584.01,1341.44 127.41,445.96 141.56,828.22 150.64,1410.96 9.03,582.71 13,1365.88 14.98,1951.39 1.96,585.47 1.96,973.28 11.19,1502.7 9.25,529.35 27.69,1200.33 -139.93,1836.69 -167.67,636.34 -521.38,1238.07 -870.61,1674.35 -349.24,436.31 -694,707.18 -930.98,867.26 -237.02,160.02 -366.27,209.26 -652.51,172.34 -286.25,-36.93 -729.47,-160.09 -951.07,-187.76 -221.62,-27.72 -221.62,40.03 -233.92,332.45 -12.32,292.39 -36.97,809.45 -27.72,1148.04 9.23,338.55 52.33,498.62 261.64,686.38 209.29,187.74 584.81,403.19 760.25,541.71 175.44,138.52 150.79,200.05 86.19,329.34 -64.64,129.29 -169.32,326.23 -446.33,563.26 -277.01,236.98 -726.37,513.99 -1175.74,667.89 -449.4,153.9 -898.75,184.7 -1286.56,187.8 -387.86,3.06 -714.09,-21.59 -1120.39,-175.49 -406.3,-153.9 -892.62,-437.04 -1418.16,-743.11 -525.56,-306.1 -1090.32,-635.02 -1484.3,-936.64 -393.98,-301.67 -617.13,-575.99 -707.18,-713.15 -90.05,-137.17 -46.95,-137.17 162.36,-204.88 209.31,-67.71 584.81,-203.12 874.11,-335.47 289.33,-132.35 492.49,-261.61 664.87,-544.8 172.34,-283.18 313.94,-720.22 452.46,-1141.9 138.5,-421.7 273.91,-827.96 341.61,-1166.55 67.71,-338.57 67.71,-609.42 36.97,-929.53 -30.8,-320.11 -92.36,-689.48 -200.05,-871.05 -107.74,-181.64 -261.66,-175.47 -415.55,-197.01 -153.9,-21.55 -307.79,-70.81 -517.1,-276.99 -209.29,-206.25 -474.01,-569.41 -630.96,-852.59 -156.96,-283.18 -206.25,-486.32 -236.98,-744.85 -30.78,-258.57 -43.14,-572.53 -15.42,-815.68 27.69,-243.17 95.44,-415.51 215.48,-566.34 120.05,-150.83 292.39,-280.08 467.84,-323.17 175.44,-43.1 353.95,0 523.27,61.58 169.28,61.54 329.32,141.6 440.12,175.44 110.8,33.86 172.38,21.5 238.21,-39.94 65.85,-61.49 135.96,-172.1 333.86,-390.22z"/>
   <path class="fil6" d="M48477.61 18735.7c-74.87,115.36 -50.59,321.81 105.25,526.22 155.81,204.39 443.23,406.78 607.15,449.31 163.92,42.46 204.42,-74.89 180.14,-214.53 -24.28,-139.64 -113.33,-301.58 -202.39,-459.42 -89.06,-157.88 -178.09,-311.69 -309.62,-376.47 -131.56,-64.75 -305.63,-40.47 -380.52,74.89z"/>
   <path class="fil7" d="M51580.77 16883.26c48.98,-113.25 119.33,-211.16 238.72,-296.84 119.37,-85.75 287.7,-159.16 501.96,-194.35 214.24,-35.23 474.42,-32.19 687.17,-16.88 212.7,15.29 377.94,42.85 465.21,120.91 87.23,78.04 96.39,206.62 76.5,306.12 -19.9,99.43 -68.83,169.8 -156.06,189.7 -87.27,19.9 -212.75,-10.69 -329.05,-56.6 -116.31,-45.92 -223.47,-107.17 -338.22,-134.68 -114.79,-27.56 -237.22,-21.42 -361.18,30.63 -123.98,52.04 -249.45,149.97 -397.88,228.04 -148.45,78.02 -319.89,136.2 -391.78,101.02 -71.94,-35.23 -44.4,-163.79 4.6,-277.06z"/>
   <path class="fil7" d="M55747.9 16332.73c136.2,-33.69 353.51,-27.56 549.42,-10.71 195.87,16.83 370.37,44.35 514.24,91.79 143.83,47.46 257.1,114.79 327.36,174.45 70.24,59.69 97.52,111.68 111.84,208.14 14.3,96.44 15.67,237.29 5.11,307.73 -10.58,70.39 -33.11,70.35 -85.66,42.81 -52.57,-27.61 -135.26,-82.67 -216.34,-134.73 -81.1,-52.04 -160.7,-100.97 -247.93,-128.54 -87.23,-27.56 -182.12,-33.69 -329.01,-30.63 -146.93,3.06 -345.93,15.29 -469.86,32.17 -123.98,16.81 -172.95,38.25 -215.81,39.77 -42.85,1.54 -79.6,-16.85 -110.18,-88.75 -30.63,-71.94 -55.06,-197.45 -39.77,-296.91 15.29,-99.5 70.39,-172.95 206.6,-206.6z"/>
   <path class="fil7" d="M52785.48 18079.04c55.59,-38.67 166.74,-50.78 280.32,-56.8 113.58,-6.04 229.53,-6.04 311.71,47.11 82.18,53.16 130.5,159.51 151.03,250.13 20.53,90.6 13.31,165.51 -21.72,247.69 -35.05,82.14 -97.87,171.54 -152.24,221.1 -54.4,49.53 -100.29,59.18 -177.63,31.42 -77.33,-27.8 -186.06,-93.04 -269.41,-132.92 -83.39,-39.88 -141.38,-54.4 -166.74,-123.25 -25.38,-68.87 -18.15,-192.12 -14.52,-286.33 3.64,-94.25 3.64,-159.51 59.2,-198.14z"/>
   <path class="fil7" d="M55964.85 18160.81c-37.19,31.33 -37.08,88.31 -6.3,163.81 30.76,75.48 92.18,169.47 143.63,230.72 51.42,61.25 92.91,89.74 115.21,132.46 22.25,42.72 25.29,99.7 54.35,133.89 29.04,34.17 84.12,45.59 154.38,38.47 70.22,-7.14 155.62,-32.76 221.29,-111.09 65.63,-78.37 111.53,-209.37 138.72,-301.95 27.14,-92.58 35.63,-146.74 32.85,-206.58 -2.8,-59.82 -16.81,-125.34 -53.98,-152.4 -37.19,-27.06 -97.49,-15.67 -203.67,-4.25 -106.17,11.39 -258.18,22.76 -371.42,31.31 -113.31,8.55 -187.85,14.25 -225.06,45.61z"/>
   <path class="fil8" d="M55273.41 18331.23c-12.27,110.67 -10.29,303.89 -9.25,538.43 0.99,234.51 0.99,510.32 20.14,672.36 19.1,162.03 57.35,210.34 129.84,282.83 72.46,72.46 179.12,169.05 244.56,254.63 65.44,85.53 89.58,160.02 92.6,249.63 3.04,89.54 -15.07,194.26 -43.25,269.74 -28.18,75.46 -66.43,121.8 -101.66,144.95 -35.21,23.13 -67.46,23.13 -244.6,26.15 -177.14,3.02 -499.19,9.03 -710.15,9.41 -210.96,0.37 -310.79,-4.94 -349.32,-3.19 -38.53,1.7 -15.75,10.44 55.15,21.83 70.9,11.37 189.92,25.36 356.24,35.89 166.3,10.49 379.82,17.49 540.01,21.02 160.15,3.48 266.94,3.48 354.5,-31.55 87.51,-35.01 155.77,-105.01 197.79,-189.9 42.02,-84.91 57.81,-184.7 49.93,-287.08 -7.91,-102.43 -39.39,-207.44 -89.3,-284.48 -49.88,-77.03 -118.18,-126.05 -183.82,-188.2 -65.63,-62.15 -128.67,-137.42 -161.89,-233.68 -33.27,-96.28 -36.79,-213.6 -35.01,-437.65 1.74,-224.05 8.75,-554.93 1.74,-745.71 -7.01,-190.82 -28.03,-241.59 -51.75,-252.89 -23.8,-11.37 -50.28,16.77 -62.48,127.46z"/>
   <path class="fil9 str2" d="M53809 21372.3c328.75,-27.76 974.69,-18.53 1339.33,-9.25 364.66,9.25 448.03,18.53 490.88,39.37 42.81,20.8 45.12,53.25 41.64,196.79 -3.48,143.54 -12.71,398.21 -40.47,596.15 -27.8,197.96 -74.14,339.21 -188.71,489.71 -114.63,150.46 -297.53,310.24 -410.99,392.46 -113.45,82.16 -157.42,86.76 -254.67,89.08 -97.25,2.34 -247.71,2.34 -368.1,-18.51 -120.41,-20.84 -210.74,-62.51 -305.63,-143.54 -94.94,-81.06 -194.5,-201.44 -306.76,-326.45 -112.3,-125.06 -237.36,-254.67 -299.86,-427.14 -62.53,-172.49 -62.53,-387.86 -60.19,-515.18 2.31,-127.35 6.92,-166.72 15.03,-218.8 8.13,-52.08 19.7,-116.93 348.51,-144.69z"/>
   <path class="fil4 str1" d="M48773.31 20242.23c-41.33,0.73 -82.8,49.66 -336.28,349.04 -253.53,299.4 -719.12,849.17 -940.81,1122.51 -221.73,273.31 -199.55,270.14 15.95,571.12 215.5,300.96 624.27,906.06 833.42,1207.05 209.15,300.94 218.67,297.77 472.2,12.67 253.48,-285.14 751.04,-852.21 991.88,-1161.11 240.81,-308.89 224.97,-359.55 30.1,-650.99 -194.9,-291.47 -568.83,-823.75 -776.4,-1113.61 -207.59,-289.88 -248.75,-337.38 -290.06,-336.68z"/>
   <path class="fil7" d="M46678.93 25841.36c-383.39,-74.98 -1111.89,-155.33 -1926.1,-91.02 -814.25,64.27 -1714.21,273.16 -2523.07,621.36 -808.9,348.2 -1526.69,835.69 -2099.85,1341.93 -573.22,506.2 -1001.73,1031.14 -1309.74,1625.75 -308.04,594.61 -495.51,1258.85 -766.6,2136.53 -271.07,877.66 -625.74,1968.75 -891.61,2794.15 -265.91,825.4 -443.05,1385.05 -567.03,2019.14 -123.98,634.07 -194.81,1342.48 -220.19,1705.35 -25.45,362.83 -5.4,380.1 1229.94,406.96 1235.34,26.86 3686,63.32 4903.25,132.19 1217.23,68.87 1201.01,170.09 1192.33,249.41 -8.75,79.32 -10.05,136.62 -141.51,625.08 -131.49,488.44 -393.26,1407.94 -598.91,3223.37 -205.65,1815.38 -355.21,4526.7 -381.76,5962.7 -26.57,1435.99 69.86,1596.69 292.22,1738.69 222.35,141.98 570.64,265.2 1169.66,388.28 598.97,123.07 1448.79,245.97 2670.82,346.42 1222.05,100.4 2816.36,178.35 4485.1,96.88 1668.69,-81.5 3411.85,-322.42 4609.36,-556.25 1197.51,-233.83 1849.4,-460.59 2189.52,-591.66 340.14,-131.09 368.47,-166.52 364.95,-1474.26 -3.53,-1307.78 -38.87,-3887.82 14.34,-5674.14 53.21,-1786.35 195.01,-2778.97 286.18,-3520.39 91.15,-741.39 131.64,-1231.66 184.3,-1456.5 52.68,-224.84 117.52,-184.35 315.55,-35.85 198.03,148.52 529.24,405.07 816.46,563.28 287.15,158.15 530.23,218.08 761,240.99 230.77,22.87 449.22,8.79 664.12,-49.35 214.88,-58.14 426.31,-160.29 1226.83,-878.98 800.5,-718.72 2190.11,-2053.93 2994.47,-2845.03 804.29,-791.12 1023.3,-1038.06 1116.49,-1203.48 93.2,-165.42 60.57,-249.32 -330.79,-545.19 -391.43,-295.9 -1141.61,-803.77 -2306.8,-1627.49 -1165.19,-823.79 -2745.42,-1963.44 -3738.11,-2688.29 -992.67,-724.87 -1397.89,-1034.89 -1840.08,-1302.67 -442.17,-267.8 -921.4,-493.31 -1442.86,-620.15 -521.49,-126.84 -1085.21,-155.06 -1579.35,-107.83 -494.14,47.19 -918.71,169.76 -1408.53,297.94 -489.85,128.16 -1044.98,261.88 -1881.75,314.54 -836.79,52.68 -1955.14,24.32 -2847.52,-213.89 -892.36,-238.26 -1558.62,-686.42 -1910.9,-945.24 -352.25,-258.81 -390.5,-328.39 -773.85,-403.3z"/>
   <path class="fil10" d="M57309.07 32060.03c49.97,-153.98 41.84,-454.33 -35.27,-610.58 -77.11,-156.28 -223.21,-168.46 -754.9,-146.12 -531.69,22.3 -1449.01,79.14 -2163.3,204.95 -714.36,125.81 -1225.77,320.66 -1617.4,681.86 -391.67,361.22 -663.62,888.88 -860.45,1475.36 -196.84,586.46 -318.61,1231.81 -458.1,1921.76 -139.47,689.88 -296.69,1424.46 -330.95,1770.7 -34.28,346.26 54.4,304.29 159.45,217.92 105.01,-86.35 226.32,-217.04 347.69,-599.77 121.38,-382.77 242.75,-1017.59 389.8,-1633.68 147.02,-616.14 319.69,-1213.63 455.08,-1624.36 135.32,-410.77 233.37,-634.82 368.76,-840.18 135.32,-205.41 308.04,-392.09 511.09,-511.09 203.05,-119.06 436.42,-170.4 793.5,-235.75 357.06,-65.35 837.87,-144.69 1283.61,-219.38 445.74,-74.71 856.51,-144.69 1131.92,-158.7 275.34,-14.01 415.4,28.03 478.43,109.72 62.99,81.67 48.98,203.01 41.97,270.71 -7.01,67.68 -7.01,81.67 47.04,84.91 54.02,3.19 162.07,-4.34 212.04,-158.28z"/>
   <path class="fil10" d="M54398.23 32788.29c288.82,-101.77 641.78,-257.07 1124.87,-367.39 483.08,-110.29 1096.27,-175.64 1445.72,-218.01 349.39,-42.35 435.01,-61.69 557.24,-55.48 122.21,6.17 281.05,37.92 401.03,133.23 120.01,95.29 201.18,254.1 176.48,559.4 -24.72,305.28 -155.31,757.06 -425.09,1643.29 -269.81,886.19 -678.75,2206.9 -982.54,3103.44 -303.83,896.5 -502.43,1368.9 -652.73,1672.22 -150.28,303.28 -252.32,437.45 -421.37,571.68 -169.12,134.2 -405.31,268.38 -939.44,397.27 -534.13,128.82 -1366.17,252.27 -1886.86,327.42 -520.71,75.17 -730.09,101.99 -931.36,67.09 -201.31,-34.88 -394.58,-131.51 -493.86,-316.69 -99.32,-185.23 -104.68,-458.98 161.04,-1371.52 265.69,-912.58 802.51,-2463.95 1127.31,-3438.25 324.74,-974.27 437.45,-1371.54 568.97,-1693.59 131.53,-322.09 281.86,-569.08 469.42,-716.63 187.5,-147.57 412.29,-195.76 701.16,-297.48z"/>
   <path class="fil11" d="M37742.9 38928.78c-19.48,589.9 -51.64,1753.05 -43.6,2948.38 8.04,1195.3 56.27,2422.82 206.36,3435.89 150.08,1013.05 401.98,1811.73 737.01,2379.92 335.03,568.15 753.09,905.86 1066.7,1106.89 313.57,200.98 522.61,265.31 745.09,310.9 222.44,45.54 458.25,72.31 822.78,75 364.48,2.71 857.59,-18.77 1224.78,-77.69 367.17,-58.96 608.38,-155.48 975.55,-546.78 367.19,-391.3 860.3,-1077.36 1742.04,-2371.84 881.76,-1294.52 2152.11,-3197.39 2851.64,-4253.34 699.51,-1055.95 828.13,-1264.97 1219.43,-1385.55 391.3,-120.63 1045.26,-152.82 1425.83,-209.09 380.54,-56.27 487.75,-136.71 576.21,-195.63 88.44,-58.98 158.08,-96.52 493.11,-115.25 335.03,-18.77 935.34,-18.77 1293.7,-43.87 358.34,-25.12 474.75,-75.37 660.6,-199.79 185.84,-124.42 441.22,-323.04 656.04,-576.35 214.82,-253.35 389.09,-561.41 476.23,-780.28 87.16,-218.87 87.16,-348.58 81.1,-468.12 -6.08,-119.57 -18.26,-229.03 -97.3,-350.6 -79.03,-121.62 -224.97,-255.38 -297.9,-366.84 -72.97,-111.46 -72.97,-200.61 56.73,-226.96 129.7,-26.35 389.09,10.16 563.39,-30.38 174.28,-40.56 263.46,-158.08 306.01,-352.63 42.57,-194.59 38.49,-466.12 -58.76,-695.12 -97.3,-229.01 -287.79,-415.49 -530.98,-512.74 -243.19,-97.3 -539.05,-105.38 -1175.41,-91.21 -636.36,14.19 -1613.17,50.7 -2249.49,131.73 -636.36,81.06 -932.26,206.73 -1528.06,547.2 -595.82,340.45 -1491.6,895.75 -2233.32,1418.62 -741.74,522.85 -1329.46,1013.27 -2111.96,1786.79 -782.5,773.47 -1759.77,1830.06 -2244.88,2353.04 -485.15,522.98 -478.1,512.41 -350.23,19.67 127.83,-492.78 376.45,-1467.69 517.19,-2036.37 140.68,-568.7 173.44,-731.08 141.78,-818.68 -31.68,-87.6 -127.79,-100.36 -347.98,-122.83 -220.24,-22.5 -564.63,-54.64 -863.78,-76.12 -299.18,-21.46 -553.1,-32.19 -784.02,-52 -230.99,-19.85 -438.91,-48.78 -757.89,-70.28 -319.01,-21.5 -748.99,-35.58 -1171.95,-44.37 -423,-8.84 -838.95,-12.38 -1164.24,-22.58 -325.29,-10.2 -559.95,-27.1 -680.65,-27.19 -120.72,-0.13 -127.46,16.52 -146.89,606.44z"/>
   <g style="clip-path:url(#id2)">
    <g>
     <path id="_1_1" class="fil12" d="M43319.14 40288.2c-132.26,299.62 -324.63,781.31 -628.78,1272.46 -304.18,491.1 -720.17,991.72 -1130.88,1462.36 -410.75,470.66 -816.17,911.31 -981.83,1103.43 -165.68,192.17 -91.7,135.79 169.19,-68.7 260.89,-204.46 708.63,-557.05 1152.85,-960.66 444.22,-403.68 884.84,-858.45 1126.25,-1120.94 241.39,-262.56 283.56,-332.8 272.96,-387.44 -10.6,-54.66 -73.87,-93.7 -33.2,-396.96 40.58,-303.34 185.18,-870.96 221.4,-1095.92 36.24,-224.97 -35.76,-107.32 -167.95,192.37z"/>
    </g>
   </g>
   <path class="fil4 str2" d="M37742.9 38928.78c-19.48,589.9 -51.64,1753.05 -43.6,2948.38 8.04,1195.3 56.27,2422.82 206.36,3435.89 150.08,1013.05 401.98,1811.73 737.01,2379.92 335.03,568.15 753.09,905.86 1066.7,1106.89 313.57,200.98 522.61,265.31 745.09,310.9 222.44,45.54 458.25,72.31 822.78,75 364.48,2.71 857.59,-18.77 1224.78,-77.69 367.17,-58.96 608.38,-155.48 975.55,-546.78 367.19,-391.3 860.3,-1077.36 1742.04,-2371.84 881.76,-1294.52 2152.11,-3197.39 2851.64,-4253.34 699.51,-1055.95 828.13,-1264.97 1219.43,-1385.55 391.3,-120.63 1045.26,-152.82 1425.83,-209.09 380.54,-56.27 487.75,-136.71 576.21,-195.63 88.44,-58.98 158.08,-96.52 493.11,-115.25 335.03,-18.77 935.34,-18.77 1293.7,-43.87 358.34,-25.12 474.75,-75.37 660.6,-199.79 185.84,-124.42 441.22,-323.04 656.04,-576.35 214.82,-253.35 389.09,-561.41 476.23,-780.28 87.16,-218.87 87.16,-348.58 81.1,-468.12 -6.08,-119.57 -18.26,-229.03 -97.3,-350.6 -79.03,-121.62 -224.97,-255.38 -297.9,-366.84 -72.97,-111.46 -72.97,-200.61 56.73,-226.96 129.7,-26.35 389.09,10.16 563.39,-30.38 174.28,-40.56 263.46,-158.08 306.01,-352.63 42.57,-194.59 38.49,-466.12 -58.76,-695.12 -97.3,-229.01 -287.79,-415.49 -530.98,-512.74 -243.19,-97.3 -539.05,-105.38 -1175.41,-91.21 -636.36,14.19 -1613.17,50.7 -2249.49,131.73 -636.36,81.06 -932.26,206.73 -1528.06,547.2 -595.82,340.45 -1491.6,895.75 -2233.32,1418.62 -741.74,522.85 -1329.46,1013.27 -2111.96,1786.79 -782.5,773.47 -1759.77,1830.06 -2244.88,2353.04 -485.15,522.98 -478.1,512.41 -350.23,19.67 127.83,-492.78 376.45,-1467.69 517.19,-2036.37 140.68,-568.7 173.44,-731.08 141.78,-818.68 -31.68,-87.6 -127.79,-100.36 -347.98,-122.83 -220.24,-22.5 -564.63,-54.64 -863.78,-76.12 -299.18,-21.46 -553.1,-32.19 -784.02,-52 -230.99,-19.85 -438.91,-48.78 -757.89,-70.28 -319.01,-21.5 -748.99,-35.58 -1171.95,-44.37 -423,-8.84 -838.95,-12.38 -1164.24,-22.58 -325.29,-10.2 -559.95,-27.1 -680.65,-27.19 -120.72,-0.13 -127.46,16.52 -146.89,606.44z"/>
   <path class="fil10 str2" d="M37960.23 35702.9c1248.97,52.04 3750.56,202.04 5001.36,301.38 1250.8,99.32 1250.8,148.01 1246.75,273.69 -4.08,125.67 -12.16,328.44 -81.06,433.86 -68.96,105.4 -198.69,113.49 -1115.02,70.92 -916.31,-42.59 -2619.15,-135.83 -3828,-163.3 -1208.9,-27.52 -1923.74,10.73 -2280.82,9.78 -357.1,-0.95 -356.35,-41.11 -337.96,-169.05 18.4,-127.96 54.49,-343.73 76.94,-469.11 22.43,-125.41 31.18,-160.51 41.58,-186.81 10.4,-26.35 22.41,-43.91 26.64,-75.66 4.19,-31.79 0.57,-77.73 1249.59,-25.69z"/>
   <path class="fil11" d="M61673.32 38615.76c121.86,52 390.72,150.55 1059.1,502.96 668.35,352.39 1736.24,958.63 2454.41,1434.29 718.15,475.66 1086.53,820.71 1489.92,1049.25 403.39,228.48 841.73,340.4 1219.47,394.03 377.7,53.63 694.84,48.98 1009.59,-27.98 314.76,-76.94 627.2,-226.16 981.61,-475.61 354.41,-249.5 750.78,-599.28 1032.75,-930.28 281.99,-331.04 449.57,-643.33 675.27,-1049.36 225.68,-406.06 509.52,-905.8 860.59,-1651.75 351.04,-745.97 769.37,-1738.16 1284.6,-2999.34 515.23,-1261.25 1127.44,-2791.53 1564.94,-3905.29 437.45,-1113.76 700.21,-1810.96 853.07,-2264.16 152.86,-453.21 195.76,-662.34 233.3,-815.2 37.54,-152.86 69.73,-249.39 203.82,-394.2 134.05,-144.82 370.03,-337.89 616.51,-564.76 246.48,-226.91 503.42,-487.56 948.85,-944.31 445.36,-456.82 1079.24,-1109.71 1424.37,-1499.64 345.14,-389.93 401.52,-516.86 403.3,-622.64 1.78,-105.84 -51.14,-190.45 -100.49,-208.1 -49.4,-17.67 -95.22,31.73 -248.61,132.26 -153.46,100.49 -414.39,252.12 -569.52,290.94 -155.2,38.78 -204.59,-35.32 -49.4,-270.67 155.17,-235.42 514.85,-632.13 751.13,-915.12 236.28,-283.03 349.17,-452.28 387.95,-563.39 38.78,-111.09 3.53,-163.97 -31.75,-199.22 -35.25,-35.32 -70.53,-52.92 -162.22,-37.06 -91.7,15.86 -239.8,65.22 -349.1,105.8 -109.37,40.56 -179.89,72.31 -79.36,-64.36 100.49,-136.67 372.04,-441.68 536.05,-666.48 163.97,-224.84 220.35,-369.46 245.04,-484.03 24.7,-114.63 17.67,-199.28 -61.69,-236.28 -79.36,-37.06 -230.97,-26.44 -324.43,5.29 -93.48,31.7 -128.74,84.63 -285.65,264.46 -156.94,179.85 -435.56,486.65 -703.58,791.71 -268.02,305.02 -525.43,608.32 -703.52,796.98 -178.11,188.66 -276.82,262.76 -313.81,236.32 -37.06,-26.48 -12.4,-153.41 153.35,-435.52 165.75,-282.15 472.55,-719.45 673.58,-966.3 201.02,-246.87 296.25,-303.28 361.51,-384.36 65.22,-81.15 100.49,-186.97 103.99,-271.59 3.53,-84.65 -24.68,-148.1 -107.56,-185.09 -82.86,-37.06 -220.41,-47.66 -539.55,218.63 -319.16,266.22 -819.89,809.32 -1260.72,1345.34 -440.8,536.05 -821.7,1065 -1117.9,1375.35 -296.23,310.33 -507.85,402 -655.95,440.82 -148.15,38.78 -232.75,24.65 -218.67,-104.06 14.1,-128.69 126.97,-372.06 204.55,-539.55 77.55,-167.53 119.92,-259.19 128.74,-444.33 8.79,-185.16 -15.86,-463.78 -102.27,-663.02 -86.39,-199.22 -234.54,-319.14 -393.19,-301.49 -158.7,17.65 -327.97,172.8 -433.77,462 -105.78,289.15 -148.15,712.35 -225.7,1139.08 -77.58,426.68 -190.45,856.89 -296.25,1280.08 -105.78,423.18 -204.53,839.33 -361.46,1213.13 -156.91,373.82 -372.06,705.32 -1422.79,2267.03 -1050.79,1561.66 -2937.23,4353.56 -3903.73,5749.52 -966.54,1395.91 -1013.21,1395.91 -1078.47,1388.9 -65.3,-7.01 -149.25,-20.97 -394.12,-179.54 -244.85,-158.59 -650.64,-461.78 -861.18,-618.54 -210.59,-156.8 -226.01,-167.2 -298.56,-85.62 -72.55,81.54 -202.26,255.09 -679.7,736.19 -477.44,481.08 -1302.65,1269.73 -1859.32,1792.85 -556.72,523.05 -844.97,780.54 -1039.62,942.66 -194.68,162.07 -295.74,228.65 -396.69,304.31 -100.97,75.66 -201.84,160.37 -264.79,205.45 -62.99,45.08 -88.13,50.54 33.73,102.61z"/>
   <g style="clip-path:url(#id3)">
    <g>
     <path id="_1_2" class="fil13" d="M63183.36 39104.27c250.42,-435.58 740.64,-1130.42 1250.27,-1871.08 509.65,-740.71 1038.76,-1527.18 1379.12,-2117.96 340.31,-590.76 491.98,-985.82 573.11,-1239.74 81.08,-253.97 91.68,-366.8 -155.2,-232.79 -246.94,134.02 -751.22,514.96 -1640.05,1377.31 -888.83,862.33 -2162.04,2206.13 -2830.4,2902.75 -668.4,696.56 -731.87,745.93 -469.11,992.8 262.76,246.9 851.77,691.31 1176.29,887.03 324.45,195.74 384.42,142.86 419.67,28.27 35.25,-114.68 45.87,-291 296.29,-726.59z"/>
    </g>
   </g>
   <path class="fil4 str2" d="M61673.32 38615.76c121.86,52 390.72,150.55 1059.1,502.96 668.35,352.39 1736.24,958.63 2454.41,1434.29 718.15,475.66 1086.53,820.71 1489.92,1049.25 403.39,228.48 841.73,340.4 1219.47,394.03 377.7,53.63 694.84,48.98 1009.59,-27.98 314.76,-76.94 627.2,-226.16 981.61,-475.61 354.41,-249.5 750.78,-599.28 1032.75,-930.28 281.99,-331.04 449.57,-643.33 675.27,-1049.36 225.68,-406.06 509.52,-905.8 860.59,-1651.75 351.04,-745.97 769.37,-1738.16 1284.6,-2999.34 515.23,-1261.25 1127.44,-2791.53 1564.94,-3905.29 437.45,-1113.76 700.21,-1810.96 853.07,-2264.16 152.86,-453.21 195.76,-662.34 233.3,-815.2 37.54,-152.86 69.73,-249.39 203.82,-394.2 134.05,-144.82 370.03,-337.89 616.51,-564.76 246.48,-226.91 503.42,-487.56 948.85,-944.31 445.36,-456.82 1079.24,-1109.71 1424.37,-1499.64 345.14,-389.93 401.52,-516.86 403.3,-622.64 1.78,-105.84 -51.14,-190.45 -100.49,-208.1 -49.4,-17.67 -95.22,31.73 -248.61,132.26 -153.46,100.49 -414.39,252.12 -569.52,290.94 -155.2,38.78 -204.59,-35.32 -49.4,-270.67 155.17,-235.42 514.85,-632.13 751.13,-915.12 236.28,-283.03 349.17,-452.28 387.95,-563.39 38.78,-111.09 3.53,-163.97 -31.75,-199.22 -35.25,-35.32 -70.53,-52.92 -162.22,-37.06 -91.7,15.86 -239.8,65.22 -349.1,105.8 -109.37,40.56 -179.89,72.31 -79.36,-64.36 100.49,-136.67 372.04,-441.68 536.05,-666.48 163.97,-224.84 220.35,-369.46 245.04,-484.03 24.7,-114.63 17.67,-199.28 -61.69,-236.28 -79.36,-37.06 -230.97,-26.44 -324.43,5.29 -93.48,31.7 -128.74,84.63 -285.65,264.46 -156.94,179.85 -435.56,486.65 -703.58,791.71 -268.02,305.02 -525.43,608.32 -703.52,796.98 -178.11,188.66 -276.82,262.76 -313.81,236.32 -37.06,-26.48 -12.4,-153.41 153.35,-435.52 165.75,-282.15 472.55,-719.45 673.58,-966.3 201.02,-246.87 296.25,-303.28 361.51,-384.36 65.22,-81.15 100.49,-186.97 103.99,-271.59 3.53,-84.65 -24.68,-148.1 -107.56,-185.09 -82.86,-37.06 -220.41,-47.66 -539.55,218.63 -319.16,266.22 -819.89,809.32 -1260.72,1345.34 -440.8,536.05 -821.7,1065 -1117.9,1375.35 -296.23,310.33 -507.85,402 -655.95,440.82 -148.15,38.78 -232.75,24.65 -218.67,-104.06 14.1,-128.69 126.97,-372.06 204.55,-539.55 77.55,-167.53 119.92,-259.19 128.74,-444.33 8.79,-185.16 -15.86,-463.78 -102.27,-663.02 -86.39,-199.22 -234.54,-319.14 -393.19,-301.49 -158.7,17.65 -327.97,172.8 -433.77,462 -105.78,289.15 -148.15,712.35 -225.7,1139.08 -77.58,426.68 -190.45,856.89 -296.25,1280.08 -105.78,423.18 -204.53,839.33 -361.46,1213.13 -156.91,373.82 -372.06,705.32 -1422.79,2267.03 -1050.79,1561.66 -2937.23,4353.56 -3903.73,5749.52 -966.54,1395.91 -1013.21,1395.91 -1078.47,1388.9 -65.3,-7.01 -149.25,-20.97 -394.12,-179.54 -244.85,-158.59 -650.64,-461.78 -861.18,-618.54 -210.59,-156.8 -226.01,-167.2 -298.56,-85.62 -72.55,81.54 -202.26,255.09 -679.7,736.19 -477.44,481.08 -1302.65,1269.73 -1859.32,1792.85 -556.72,523.05 -844.97,780.54 -1039.62,942.66 -194.68,162.07 -295.74,228.65 -396.69,304.31 -100.97,75.66 -201.84,160.37 -264.79,205.45 -62.99,45.08 -88.13,50.54 33.73,102.61z"/>
   <path class="fil10 str2" d="M64088.36 33213.28c-398.59,333.33 -1033.5,1035.19 -1589.02,1636.59 -555.5,601.38 -1031.71,1102.24 -1273.3,1386.17 -241.63,283.93 -248.7,350.98 -199.31,440.94 49.4,89.91 155.17,202.74 236.32,253.92 81.12,51.14 137.57,40.52 298.05,-112.87 160.48,-153.46 425.03,-449.73 860.65,-927.63 435.6,-477.93 1042.24,-1137.53 1465.53,-1611.91 423.24,-474.42 663.09,-763.62 800.66,-936.47 137.53,-172.82 172.84,-229.27 176.37,-275.1 3.5,-45.87 -24.7,-81.17 -119.92,-116.44 -95.27,-35.25 -257.49,-70.53 -656.04,262.8z"/>
   <g>
    <polygon class="fil0 str4" points="12084.04,60995.49 351.37,16849.99 22212.35,11039.92 33945.04,55185.41 "/>
    <polygon class="fil14 str4" points="12084.04,60995.49 351.37,16849.99 22212.35,11039.92 33945.04,55185.41 "/>
    <path class="fil15" d="M22212.37 11039.95l-21860.98 5810.08 11732.69 44145.48 21860.98 -5810.08 -11732.69 -44145.48zm-8873.25 47792.58l-10824.49 -40727.97 18443.22 -4901.62 10824.23 40727.95 -18442.95 4901.64z"/>
    <path class="fil15" d="M28172.32 52291.43l-1449.01 -5451.97c-162.16,-610.23 200.98,-1236.24 811.21,-1398.4 610.23,-162.38 1236.24,201 1398.38,811.23l1449.03 5451.95c162.14,610.23 -201,1236.26 -811.23,1398.4 -610.21,162.14 -1236.24,-201 -1398.38,-811.21z"/>
    <path class="fil15" d="M5363.53 25783.17l-1449.01 -5451.97c-162.14,-610.21 201,-1236.24 811.21,-1398.38 610.23,-162.14 1236.26,200.98 1398.4,811.21l1449.01 5451.97c162.14,610.23 -200.98,1236.24 -811.21,1398.38 -610.23,162.16 -1236.24,-200.98 -1398.4,-811.21z"/>
    <path class="fil15" d="M23996.69 34197.58c-1005.43,-3782.18 -4886.33,-6033.38 -8668.51,-5028.2 -3782.15,1005.19 -6033.63,4886.35 -5028.44,8668.51 1005.45,3782.18 4886.35,6033.38 8668.53,5028.2 3782.42,-1005.19 6033.6,-4886.35 5028.42,-8668.51z"/>
    <path class="fil16" d="M13816.25 34272.27l1679.18 -260.56 -163.77 -1055.31 947.88 -147.09 163.75 1055.31 1089.83 -169.12 -163.75 -1055.29 947.86 -147.09 163.77 1055.29 1180.98 -183.27 134.88 869.33 -1050.7 1022.68 283.73 1828.49 1180.98 -183.27 168.61 1086.64 -1180.98 183.27 163.77 1055.29 -947.88 147.09 -163.75 -1055.29 -1089.86 169.12 163.77 1055.29 -947.86 147.09 -163.77 -1055.29 -1679.16 260.56 -134.9 -869.31 1494.44 -1450.99 -229.27 -1477.5 -1679.16 260.58 -168.64 -1086.66zm2920.66 1484.52l969.93 -941.75 -5.09 -32.89 -1089.86 169.12 125.01 805.53zm196.29 1264.95l58.98 380.1 1089.83 -169.12 -179.19 -1154.74 -969.63 943.76z"/>
   </g>
   <g>
    <g>
     <g>
      <path class="fil14" d="M59604.23 28251.33c0,0 -1581.88,840.6 -3340.89,-409.03 -1088.62,-773.87 -3401.63,-1967.17 -4108.41,-1230.53l-860.94 2822.88c0,0 1751.34,308.01 3174.32,1421.58 1398.29,1094.68 4173.63,1019.42 4173.63,1019.42l962.29 -3624.31z"/>
     </g>
     <g>
      <g>
       <path class="fil17" d="M54786.29 30512.08c-833.71,-480.26 -893.86,-1527.68 -421.46,-2091.08 472.42,-563.44 1569.44,-421.11 2132.67,51.03 563.35,472.82 636.74,1312.45 164.41,1875.84 -472.46,563.39 -1238.4,531.29 -1875.62,164.21z"/>
      </g>
     </g>
     <g>
      <path class="fil17" d="M51647.95 29253.52l793.04 -2565.02 27.06 -5.55c1259.42,-262.16 2864.94,824.89 3927.57,1544.28 182.96,123.89 355.87,241.06 506.94,337.45 1011.6,647.14 2204.92,163.83 2271.35,75.79l86.5 35.01 -810.29 2781.2 -29.3 4.69c-1790.03,282.81 -3419.02,-474.12 -4270.02,-1208.19 -794.73,-685.32 -2434.21,-987.25 -2450.67,-990.14l-52.17 -9.52zm866.32 -2483.98l0 0 -745.34 2410.88c293.27,57.75 1700.84,361.24 2443.02,1001.57 831.42,716.85 2418.15,1456.01 4164.59,1191.12l756.68 -2597.14c-94.25,46.11 -211.42,83.13 -245.29,93.55 -267.41,81.7 -1204.29,306.54 -2036.08,-225.44 -151.98,-97.34 -325.42,-214.75 -509.08,-339.01 -1041.56,-705.15 -2611.83,-1768.35 -3828.51,-1535.53z"/>
     </g>
    </g>
   </g>
   <g>
    <g>
     <g>
      <path class="fil14" d="M75069.39 22275.63c0,0 -1581.88,840.6 -3340.89,-409.03 -1088.62,-773.87 -3401.63,-1967.17 -4108.41,-1230.53l-860.94 2822.88c0,0 1751.34,308.01 3174.32,1421.58 1398.29,1094.68 4173.63,1019.42 4173.63,1019.42l962.29 -3624.31z"/>
     </g>
     <g>
      <g>
       <path class="fil17" d="M70251.45 24536.38c-833.71,-480.26 -893.86,-1527.68 -421.46,-2091.08 472.42,-563.44 1569.44,-421.11 2132.67,51.03 563.35,472.82 636.74,1312.45 164.41,1875.84 -472.46,563.39 -1238.4,531.29 -1875.62,164.21z"/>
      </g>
     </g>
     <g>
      <path class="fil17" d="M67113.11 23277.82l793.04 -2565.02 27.06 -5.55c1259.42,-262.16 2864.94,824.89 3927.57,1544.28 182.96,123.89 355.87,241.06 506.94,337.45 1011.6,647.14 2204.92,163.83 2271.35,75.79l86.5 35.01 -810.29 2781.2 -29.3 4.69c-1790.03,282.81 -3419.02,-474.12 -4270.02,-1208.19 -794.73,-685.32 -2434.21,-987.25 -2450.67,-990.14l-52.17 -9.52zm866.32 -2483.98l0 0 -745.34 2410.88c293.27,57.75 1700.84,361.24 2443.02,1001.57 831.42,716.85 2418.15,1456.01 4164.59,1191.12l756.68 -2597.14c-94.25,46.11 -211.42,83.13 -245.29,93.55 -267.41,81.7 -1204.29,306.54 -2036.08,-225.44 -151.98,-97.34 -325.42,-214.75 -509.08,-339.01 -1041.56,-705.15 -2611.83,-1768.35 -3828.51,-1535.53z"/>
     </g>
    </g>
   </g>
   <g>
    <g>
     <g>
      <path class="fil14" d="M37383.27 13030.55c0,0 -1581.88,840.6 -3340.89,-409.03 -1088.62,-773.87 -3401.63,-1967.17 -4108.41,-1230.53l-860.94 2822.88c0,0 1751.34,308.01 3174.32,1421.58 1398.29,1094.68 4173.63,1019.42 4173.63,1019.42l962.29 -3624.31z"/>
     </g>
     <g>
      <g>
       <path class="fil17" d="M32565.33 15291.3c-833.71,-480.26 -893.86,-1527.68 -421.46,-2091.08 472.42,-563.44 1569.44,-421.11 2132.67,51.03 563.35,472.82 636.74,1312.45 164.41,1875.84 -472.46,563.39 -1238.4,531.29 -1875.62,164.21z"/>
      </g>
     </g>
     <g>
      <path class="fil17" d="M29426.98 14032.74l793.04 -2565.02 27.06 -5.55c1259.42,-262.16 2864.94,824.89 3927.57,1544.28 182.96,123.89 355.87,241.06 506.94,337.45 1011.6,647.14 2204.92,163.83 2271.35,75.79l86.5 35.01 -810.29 2781.2 -29.3 4.69c-1790.03,282.81 -3419.02,-474.12 -4270.02,-1208.19 -794.73,-685.32 -2434.21,-987.25 -2450.67,-990.14l-52.17 -9.52zm866.32 -2483.98l0 0 -745.34 2410.88c293.27,57.75 1700.84,361.24 2443.02,1001.57 831.42,716.85 2418.15,1456.01 4164.59,1191.12l756.68 -2597.14c-94.25,46.11 -211.42,83.13 -245.29,93.55 -267.41,81.7 -1204.29,306.54 -2036.08,-225.44 -151.98,-97.34 -325.42,-214.75 -509.08,-339.01 -1041.56,-705.15 -2611.83,-1768.35 -3828.51,-1535.53z"/>
     </g>
    </g>
   </g>
   <g>
    <g>
     <g>
      <path class="fil14" d="M51256.45 56145.12c0,0 -1581.88,840.6 -3340.89,-409.03 -1088.62,-773.87 -3401.63,-1967.17 -4108.41,-1230.53l-860.94 2822.88c0,0 1751.34,308.01 3174.32,1421.58 1398.29,1094.68 4173.63,1019.42 4173.63,1019.42l962.29 -3624.31z"/>
     </g>
     <g>
      <g>
       <path class="fil17" d="M46438.51 58405.87c-833.71,-480.26 -893.86,-1527.68 -421.46,-2091.08 472.42,-563.44 1569.44,-421.11 2132.67,51.03 563.35,472.82 636.74,1312.45 164.41,1875.84 -472.46,563.39 -1238.4,531.29 -1875.62,164.21z"/>
      </g>
     </g>
     <g>
      <path class="fil17" d="M43300.17 57147.31l793.04 -2565.02 27.06 -5.55c1259.42,-262.16 2864.94,824.89 3927.57,1544.28 182.96,123.89 355.87,241.06 506.94,337.45 1011.6,647.14 2204.92,163.83 2271.35,75.79l86.5 35.01 -810.29 2781.2 -29.3 4.69c-1790.03,282.81 -3419.02,-474.12 -4270.02,-1208.19 -794.73,-685.32 -2434.21,-987.25 -2450.67,-990.14l-52.17 -9.52zm866.32 -2483.98l0 0 -745.34 2410.88c293.27,57.75 1700.84,361.24 2443.02,1001.57 831.42,716.85 2418.15,1456.01 4164.59,1191.12l756.68 -2597.14c-94.25,46.11 -211.42,83.13 -245.29,93.55 -267.41,81.7 -1204.29,306.54 -2036.08,-225.44 -151.98,-97.34 -325.42,-214.75 -509.08,-339.01 -1041.56,-705.15 -2611.83,-1768.35 -3828.51,-1535.53z"/>
     </g>
    </g>
   </g>
  </g>
 </g>
</svg>
