<?xml version="1.0" encoding="UTF-8"?>
<!DOCTYPE svg PUBLIC "-//W3C//DTD SVG 1.1//EN" "http://www.w3.org/Graphics/SVG/1.1/DTD/svg11.dtd">
<!-- Creator: CorelDRAW -->
<svg xmlns="http://www.w3.org/2000/svg" xml:space="preserve" width="32.4044mm" height="31.3015mm" version="1.1" style="shape-rendering:geometricPrecision; text-rendering:geometricPrecision; image-rendering:optimizeQuality; fill-rule:evenodd; clip-rule:evenodd"
viewBox="0 0 53.15 51.34"
 xmlns:xlink="http://www.w3.org/1999/xlink"
 xmlns:xodm="http://www.corel.com/coreldraw/odm/2003">
 <defs>
  <style type="text/css">
   <![CDATA[
    .fil2 {fill:none;fill-rule:nonzero}
    .fil0 {fill:#C4C4C4;fill-rule:nonzero;fill-opacity:0.000000}
    .fil1 {fill:#E9B194}
   ]]>
  </style>
   <clipPath id="id0" style="clip-rule:nonzero">
    <path d="M90.63 259.29c0,-30.61 -25.16,-55.43 -56.2,-55.43 -31.03,0 -56.2,24.82 -56.2,55.43 0,30.61 25.16,55.43 56.2,55.43 31.03,0 56.2,-24.82 56.2,-55.43z"/>
   </clipPath>
   <clipPath id="id1" style="clip-rule:nonzero">
    <path d="M90.63 259.29c0,-30.61 -25.16,-55.43 -56.2,-55.43 -31.03,0 -56.2,24.82 -56.2,55.43 0,30.61 25.16,55.43 56.2,55.43 31.03,0 56.2,-24.82 56.2,-55.43z"/>
   </clipPath>
 </defs>
 <g id="Layer_x0020_1">
  <metadata id="CorelCorpID_0Corel-Layer"/>
  <g style="clip-path:url(#id0)">
   <polygon class="fil0" points="-21.76,203.86 90.63,203.86 90.63,314.72 -21.76,314.72 "/>
  </g>
  <g style="clip-path:url(#id1)">
   <g id="_105553582698272">
    <path id="_1" class="fil1" d="M-37.85 158.32l-1.31 0 0 1.29c0.72,0 1.31,-0.58 1.31,-1.29zm11.76 1.29c0.72,0 1.31,-0.58 1.31,-1.29l-2.61 0c0,0.71 0.59,1.29 1.31,1.29zm14.38 -1.29c0,0.71 -0.59,1.29 -1.31,1.29 -0.72,0 -1.31,-0.58 -1.31,-1.29l2.61 0zm11.76 1.29c0.72,0 1.31,-0.58 1.31,-1.29l-2.61 0c0,0.71 0.59,1.29 1.31,1.29zm14.38 -1.29c0,0.71 -0.59,1.29 -1.31,1.29 -0.72,0 -1.31,-0.58 -1.31,-1.29l2.61 0zm11.76 1.29c0.72,0 1.31,-0.58 1.31,-1.29l-2.61 0c0,0.71 0.59,1.29 1.31,1.29zm14.37 -1.29c0,0.71 -0.59,1.29 -1.31,1.29 -0.72,0 -1.31,-0.58 -1.31,-1.29l2.61 0zm11.76 1.29c0.72,0 1.31,-0.58 1.31,-1.29l-2.61 0c0,0.71 0.59,1.29 1.31,1.29zm14.37 -1.29c0,0.71 -0.59,1.29 -1.31,1.29 -0.72,0 -1.31,-0.58 -1.31,-1.29l2.61 0zm11.76 1.29c0.72,0 1.31,-0.58 1.31,-1.29l-2.61 0c0,0.71 0.59,1.29 1.31,1.29zm14.37 -1.29c0,0.71 -0.59,1.29 -1.31,1.29 -0.72,0 -1.31,-0.58 -1.31,-1.29l2.61 0zm11.76 1.29c0.72,0 1.31,-0.58 1.31,-1.29l-2.61 0c0,0.71 0.59,1.29 1.31,1.29zm13.07 -1.29l0 1.29c-0.72,0 -1.31,-0.58 -1.31,-1.29l1.31 0zm-155.51 12.89c0,-0.71 -0.59,-1.29 -1.31,-1.29l0 2.58c0.72,0 1.31,-0.58 1.31,-1.29zm13.07 0c0,0.71 -0.59,1.29 -1.31,1.29 -0.72,0 -1.31,-0.58 -1.31,-1.29 0,-0.71 0.59,-1.29 1.31,-1.29 0.72,0 1.31,0.58 1.31,1.29zm11.76 1.29c0.72,0 1.31,-0.58 1.31,-1.29 0,-0.71 -0.59,-1.29 -1.31,-1.29 -0.72,0 -1.31,0.58 -1.31,1.29 0,0.71 0.59,1.29 1.31,1.29zm14.38 -1.29c0,0.71 -0.59,1.29 -1.31,1.29 -0.72,0 -1.31,-0.58 -1.31,-1.29 0,-0.71 0.59,-1.29 1.31,-1.29 0.72,0 1.31,0.58 1.31,1.29zm11.76 1.29c0.72,0 1.31,-0.58 1.31,-1.29 0,-0.71 -0.59,-1.29 -1.31,-1.29 -0.72,0 -1.31,0.58 -1.31,1.29 0,0.71 0.59,1.29 1.31,1.29zm14.38 -1.29c0,0.71 -0.58,1.29 -1.31,1.29 -0.72,0 -1.31,-0.58 -1.31,-1.29 0,-0.71 0.58,-1.29 1.31,-1.29 0.72,0 1.31,0.58 1.31,1.29zm11.76 1.29c0.72,0 1.31,-0.58 1.31,-1.29 0,-0.71 -0.58,-1.29 -1.31,-1.29 -0.72,0 -1.31,0.58 -1.31,1.29 0,0.71 0.59,1.29 1.31,1.29zm14.38 -1.29c0,0.71 -0.59,1.29 -1.31,1.29 -0.72,0 -1.31,-0.58 -1.31,-1.29 0,-0.71 0.58,-1.29 1.31,-1.29 0.72,0 1.31,0.58 1.31,1.29zm11.76 1.29c0.72,0 1.31,-0.58 1.31,-1.29 0,-0.71 -0.58,-1.29 -1.31,-1.29 -0.72,0 -1.31,0.58 -1.31,1.29 0,0.71 0.59,1.29 1.31,1.29zm14.38 -1.29c0,0.71 -0.59,1.29 -1.31,1.29 -0.72,0 -1.31,-0.58 -1.31,-1.29 0,-0.71 0.58,-1.29 1.31,-1.29 0.72,0 1.31,0.58 1.31,1.29zm11.76 1.29c0.72,0 1.31,-0.58 1.31,-1.29 0,-0.71 -0.58,-1.29 -1.31,-1.29 -0.72,0 -1.31,0.58 -1.31,1.29 0,0.71 0.59,1.29 1.31,1.29zm14.38 -1.29c0,0.71 -0.59,1.29 -1.31,1.29 -0.72,0 -1.31,-0.58 -1.31,-1.29 0,-0.71 0.58,-1.29 1.31,-1.29 0.72,0 1.31,0.58 1.31,1.29zm10.45 0c0,0.71 0.59,1.29 1.31,1.29l0 -2.58c-0.72,0 -1.31,0.58 -1.31,1.29zm-155.51 11.6c0.72,0 1.31,0.58 1.31,1.29 0,0.71 -0.59,1.29 -1.31,1.29l0 -2.58zm13.07 2.58c0.72,0 1.31,-0.58 1.31,-1.29 0,-0.71 -0.59,-1.29 -1.31,-1.29 -0.72,0 -1.31,0.58 -1.31,1.29 0,0.71 0.59,1.29 1.31,1.29zm14.38 -1.29c0,0.71 -0.59,1.29 -1.31,1.29 -0.72,0 -1.31,-0.58 -1.31,-1.29 0,-0.71 0.59,-1.29 1.31,-1.29 0.72,0 1.31,0.58 1.31,1.29zm11.76 1.29c0.72,0 1.31,-0.58 1.31,-1.29 0,-0.71 -0.59,-1.29 -1.31,-1.29 -0.72,0 -1.31,0.58 -1.31,1.29 0,0.71 0.59,1.29 1.31,1.29zm14.38 -1.29c0,0.71 -0.59,1.29 -1.31,1.29 -0.72,0 -1.31,-0.58 -1.31,-1.29 0,-0.71 0.59,-1.29 1.31,-1.29 0.72,0 1.31,0.58 1.31,1.29zm11.76 1.29c0.72,0 1.31,-0.58 1.31,-1.29 0,-0.71 -0.58,-1.29 -1.31,-1.29 -0.72,0 -1.31,0.58 -1.31,1.29 0,0.71 0.58,1.29 1.31,1.29zm14.37 -1.29c0,0.71 -0.58,1.29 -1.31,1.29 -0.72,0 -1.31,-0.58 -1.31,-1.29 0,-0.71 0.59,-1.29 1.31,-1.29 0.72,0 1.31,0.58 1.31,1.29zm11.76 1.29c0.72,0 1.31,-0.58 1.31,-1.29 0,-0.71 -0.59,-1.29 -1.31,-1.29 -0.72,0 -1.31,0.58 -1.31,1.29 0,0.71 0.58,1.29 1.31,1.29zm14.37 -1.29c0,0.71 -0.58,1.29 -1.31,1.29 -0.72,0 -1.31,-0.58 -1.31,-1.29 0,-0.71 0.59,-1.29 1.31,-1.29 0.72,0 1.31,0.58 1.31,1.29zm11.76 1.29c0.72,0 1.31,-0.58 1.31,-1.29 0,-0.71 -0.59,-1.29 -1.31,-1.29 -0.72,0 -1.31,0.58 -1.31,1.29 0,0.71 0.58,1.29 1.31,1.29zm14.37 -1.29c0,0.71 -0.58,1.29 -1.31,1.29 -0.72,0 -1.31,-0.58 -1.31,-1.29 0,-0.71 0.59,-1.29 1.31,-1.29 0.72,0 1.31,0.58 1.31,1.29zm11.76 1.29c0.72,0 1.31,-0.58 1.31,-1.29 0,-0.71 -0.59,-1.29 -1.31,-1.29 -0.72,0 -1.31,0.58 -1.31,1.29 0,0.71 0.58,1.29 1.31,1.29zm13.07 0c-0.72,0 -1.31,-0.58 -1.31,-1.29 0,-0.71 0.59,-1.29 1.31,-1.29l0 2.58zm-155.51 11.6c0,-0.71 -0.59,-1.29 -1.31,-1.29l0 2.58c0.72,0 1.31,-0.58 1.31,-1.29zm13.07 0c0,0.71 -0.59,1.29 -1.31,1.29 -0.72,0 -1.31,-0.58 -1.31,-1.29 0,-0.71 0.59,-1.29 1.31,-1.29 0.72,0 1.31,0.58 1.31,1.29zm11.76 1.29c0.72,0 1.31,-0.58 1.31,-1.29 0,-0.71 -0.59,-1.29 -1.31,-1.29 -0.72,0 -1.31,0.58 -1.31,1.29 0,0.71 0.59,1.29 1.31,1.29zm14.38 -1.29c0,0.71 -0.59,1.29 -1.31,1.29 -0.72,0 -1.31,-0.58 -1.31,-1.29 0,-0.71 0.59,-1.29 1.31,-1.29 0.72,0 1.31,0.58 1.31,1.29zm11.76 1.29c0.72,0 1.31,-0.58 1.31,-1.29 0,-0.71 -0.59,-1.29 -1.31,-1.29 -0.72,0 -1.31,0.58 -1.31,1.29 0,0.71 0.59,1.29 1.31,1.29zm14.38 -1.29c0,0.71 -0.58,1.29 -1.31,1.29 -0.72,0 -1.31,-0.58 -1.31,-1.29 0,-0.71 0.58,-1.29 1.31,-1.29 0.72,0 1.31,0.58 1.31,1.29zm11.76 1.29c0.72,0 1.31,-0.58 1.31,-1.29 0,-0.71 -0.58,-1.29 -1.31,-1.29 -0.72,0 -1.31,0.58 -1.31,1.29 0,0.71 0.59,1.29 1.31,1.29zm14.38 -1.29c0,0.71 -0.59,1.29 -1.31,1.29 -0.72,0 -1.31,-0.58 -1.31,-1.29 0,-0.71 0.58,-1.29 1.31,-1.29 0.72,0 1.31,0.58 1.31,1.29zm11.76 1.29c0.72,0 1.31,-0.58 1.31,-1.29 0,-0.71 -0.58,-1.29 -1.31,-1.29 -0.72,0 -1.31,0.58 -1.31,1.29 0,0.71 0.59,1.29 1.31,1.29zm14.38 -1.29c0,0.71 -0.59,1.29 -1.31,1.29 -0.72,0 -1.31,-0.58 -1.31,-1.29 0,-0.71 0.58,-1.29 1.31,-1.29 0.72,0 1.31,0.58 1.31,1.29zm11.76 1.29c0.72,0 1.31,-0.58 1.31,-1.29 0,-0.71 -0.58,-1.29 -1.31,-1.29 -0.72,0 -1.31,0.58 -1.31,1.29 0,0.71 0.59,1.29 1.31,1.29zm14.38 -1.29c0,0.71 -0.59,1.29 -1.31,1.29 -0.72,0 -1.31,-0.58 -1.31,-1.29 0,-0.71 0.58,-1.29 1.31,-1.29 0.72,0 1.31,0.58 1.31,1.29zm10.45 0c0,0.71 0.59,1.29 1.31,1.29l0 -2.58c-0.72,0 -1.31,0.58 -1.31,1.29zm-155.51 11.6c0.72,0 1.31,0.58 1.31,1.29 0,0.71 -0.59,1.29 -1.31,1.29l0 -2.58zm13.07 2.58c0.72,0 1.31,-0.58 1.31,-1.29 0,-0.71 -0.59,-1.29 -1.31,-1.29 -0.72,0 -1.31,0.58 -1.31,1.29 0,0.71 0.59,1.29 1.31,1.29zm14.38 -1.29c0,0.71 -0.59,1.29 -1.31,1.29 -0.72,0 -1.31,-0.58 -1.31,-1.29 0,-0.71 0.59,-1.29 1.31,-1.29 0.72,0 1.31,0.58 1.31,1.29zm11.76 1.29c0.72,0 1.31,-0.58 1.31,-1.29 0,-0.71 -0.59,-1.29 -1.31,-1.29 -0.72,0 -1.31,0.58 -1.31,1.29 0,0.71 0.59,1.29 1.31,1.29zm14.38 -1.29c0,0.71 -0.59,1.29 -1.31,1.29 -0.72,0 -1.31,-0.58 -1.31,-1.29 0,-0.71 0.59,-1.29 1.31,-1.29 0.72,0 1.31,0.58 1.31,1.29zm11.76 1.29c0.72,0 1.31,-0.58 1.31,-1.29 0,-0.71 -0.58,-1.29 -1.31,-1.29 -0.72,0 -1.31,0.58 -1.31,1.29 0,0.71 0.58,1.29 1.31,1.29zm14.37 -1.29c0,0.71 -0.58,1.29 -1.31,1.29 -0.72,0 -1.31,-0.58 -1.31,-1.29 0,-0.71 0.59,-1.29 1.31,-1.29 0.72,0 1.31,0.58 1.31,1.29zm11.76 1.29c0.72,0 1.31,-0.58 1.31,-1.29 0,-0.71 -0.59,-1.29 -1.31,-1.29 -0.72,0 -1.31,0.58 -1.31,1.29 0,0.71 0.58,1.29 1.31,1.29zm14.37 -1.29c0,0.71 -0.58,1.29 -1.31,1.29 -0.72,0 -1.31,-0.58 -1.31,-1.29 0,-0.71 0.59,-1.29 1.31,-1.29 0.72,0 1.31,0.58 1.31,1.29zm11.76 1.29c0.72,0 1.31,-0.58 1.31,-1.29 0,-0.71 -0.59,-1.29 -1.31,-1.29 -0.72,0 -1.31,0.58 -1.31,1.29 0,0.71 0.58,1.29 1.31,1.29zm14.37 -1.29c0,0.71 -0.58,1.29 -1.31,1.29 -0.72,0 -1.31,-0.58 -1.31,-1.29 0,-0.71 0.59,-1.29 1.31,-1.29 0.72,0 1.31,0.58 1.31,1.29zm11.76 1.29c0.72,0 1.31,-0.58 1.31,-1.29 0,-0.71 -0.59,-1.29 -1.31,-1.29 -0.72,0 -1.31,0.58 -1.31,1.29 0,0.71 0.58,1.29 1.31,1.29zm13.07 0c-0.72,0 -1.31,-0.58 -1.31,-1.29 0,-0.71 0.59,-1.29 1.31,-1.29l0 2.58zm-155.51 11.6c0,-0.71 -0.59,-1.29 -1.31,-1.29l0 2.58c0.72,0 1.31,-0.58 1.31,-1.29zm13.07 0c0,0.71 -0.59,1.29 -1.31,1.29 -0.72,0 -1.31,-0.58 -1.31,-1.29 0,-0.71 0.59,-1.29 1.31,-1.29 0.72,0 1.31,0.58 1.31,1.29zm11.76 1.29c0.72,0 1.31,-0.58 1.31,-1.29 0,-0.71 -0.59,-1.29 -1.31,-1.29 -0.72,0 -1.31,0.58 -1.31,1.29 0,0.71 0.59,1.29 1.31,1.29zm14.38 -1.29c0,0.71 -0.59,1.29 -1.31,1.29 -0.72,0 -1.31,-0.58 -1.31,-1.29 0,-0.71 0.59,-1.29 1.31,-1.29 0.72,0 1.31,0.58 1.31,1.29zm11.76 1.29c0.72,0 1.31,-0.58 1.31,-1.29 0,-0.71 -0.59,-1.29 -1.31,-1.29 -0.72,0 -1.31,0.58 -1.31,1.29 0,0.71 0.59,1.29 1.31,1.29zm14.38 -1.29c0,0.71 -0.58,1.29 -1.31,1.29 -0.72,0 -1.31,-0.58 -1.31,-1.29 0,-0.71 0.58,-1.29 1.31,-1.29 0.72,0 1.31,0.58 1.31,1.29zm11.76 1.29c0.72,0 1.31,-0.58 1.31,-1.29 0,-0.71 -0.58,-1.29 -1.31,-1.29 -0.72,0 -1.31,0.58 -1.31,1.29 0,0.71 0.59,1.29 1.31,1.29zm14.38 -1.29c0,0.71 -0.59,1.29 -1.31,1.29 -0.72,0 -1.31,-0.58 -1.31,-1.29 0,-0.71 0.58,-1.29 1.31,-1.29 0.72,0 1.31,0.58 1.31,1.29zm11.76 1.29c0.72,0 1.31,-0.58 1.31,-1.29 0,-0.71 -0.58,-1.29 -1.31,-1.29 -0.72,0 -1.31,0.58 -1.31,1.29 0,0.71 0.59,1.29 1.31,1.29zm14.38 -1.29c0,0.71 -0.59,1.29 -1.31,1.29 -0.72,0 -1.31,-0.58 -1.31,-1.29 0,-0.71 0.58,-1.29 1.31,-1.29 0.72,0 1.31,0.58 1.31,1.29zm11.76 1.29c0.72,0 1.31,-0.58 1.31,-1.29 0,-0.71 -0.58,-1.29 -1.31,-1.29 -0.72,0 -1.31,0.58 -1.31,1.29 0,0.71 0.59,1.29 1.31,1.29zm14.38 -1.29c0,0.71 -0.59,1.29 -1.31,1.29 -0.72,0 -1.31,-0.58 -1.31,-1.29 0,-0.71 0.58,-1.29 1.31,-1.29 0.72,0 1.31,0.58 1.31,1.29zm10.45 0c0,0.71 0.59,1.29 1.31,1.29l0 -2.58c-0.72,0 -1.31,0.58 -1.31,1.29zm-155.51 11.6c0.72,0 1.31,0.58 1.31,1.29 0,0.71 -0.59,1.29 -1.31,1.29l0 -2.58zm13.07 2.58c0.72,0 1.31,-0.58 1.31,-1.29 0,-0.71 -0.59,-1.29 -1.31,-1.29 -0.72,0 -1.31,0.58 -1.31,1.29 0,0.71 0.59,1.29 1.31,1.29zm14.38 -1.29c0,0.71 -0.59,1.29 -1.31,1.29 -0.72,0 -1.31,-0.58 -1.31,-1.29 0,-0.71 0.59,-1.29 1.31,-1.29 0.72,0 1.31,0.58 1.31,1.29zm11.76 1.29c0.72,0 1.31,-0.58 1.31,-1.29 0,-0.71 -0.59,-1.29 -1.31,-1.29 -0.72,0 -1.31,0.58 -1.31,1.29 0,0.71 0.59,1.29 1.31,1.29zm14.38 -1.29c0,0.71 -0.59,1.29 -1.31,1.29 -0.72,0 -1.31,-0.58 -1.31,-1.29 0,-0.71 0.59,-1.29 1.31,-1.29 0.72,0 1.31,0.58 1.31,1.29zm11.76 1.29c0.72,0 1.31,-0.58 1.31,-1.29 0,-0.71 -0.58,-1.29 -1.31,-1.29 -0.72,0 -1.31,0.58 -1.31,1.29 0,0.71 0.58,1.29 1.31,1.29zm14.37 -1.29c0,0.71 -0.58,1.29 -1.31,1.29 -0.72,0 -1.31,-0.58 -1.31,-1.29 0,-0.71 0.59,-1.29 1.31,-1.29 0.72,0 1.31,0.58 1.31,1.29zm11.76 1.29c0.72,0 1.31,-0.58 1.31,-1.29 0,-0.71 -0.59,-1.29 -1.31,-1.29 -0.72,0 -1.31,0.58 -1.31,1.29 0,0.71 0.58,1.29 1.31,1.29zm14.37 -1.29c0,0.71 -0.58,1.29 -1.31,1.29 -0.72,0 -1.31,-0.58 -1.31,-1.29 0,-0.71 0.59,-1.29 1.31,-1.29 0.72,0 1.31,0.58 1.31,1.29zm11.76 1.29c0.72,0 1.31,-0.58 1.31,-1.29 0,-0.71 -0.59,-1.29 -1.31,-1.29 -0.72,0 -1.31,0.58 -1.31,1.29 0,0.71 0.58,1.29 1.31,1.29zm14.37 -1.29c0,0.71 -0.58,1.29 -1.31,1.29 -0.72,0 -1.31,-0.58 -1.31,-1.29 0,-0.71 0.59,-1.29 1.31,-1.29 0.72,0 1.31,0.58 1.31,1.29zm11.76 1.29c0.72,0 1.31,-0.58 1.31,-1.29 0,-0.71 -0.59,-1.29 -1.31,-1.29 -0.72,0 -1.31,0.58 -1.31,1.29 0,0.71 0.58,1.29 1.31,1.29zm13.07 0c-0.72,0 -1.31,-0.58 -1.31,-1.29 0,-0.71 0.59,-1.29 1.31,-1.29l0 2.58zm-155.51 11.6c0,-0.71 -0.59,-1.29 -1.31,-1.29l0 2.58c0.72,0 1.31,-0.58 1.31,-1.29zm13.07 0c0,0.71 -0.59,1.29 -1.31,1.29 -0.72,0 -1.31,-0.58 -1.31,-1.29 0,-0.71 0.59,-1.29 1.31,-1.29 0.72,0 1.31,0.58 1.31,1.29zm11.76 1.29c0.72,0 1.31,-0.58 1.31,-1.29 0,-0.71 -0.59,-1.29 -1.31,-1.29 -0.72,0 -1.31,0.58 -1.31,1.29 0,0.71 0.59,1.29 1.31,1.29zm14.38 -1.29c0,0.71 -0.59,1.29 -1.31,1.29 -0.72,0 -1.31,-0.58 -1.31,-1.29 0,-0.71 0.59,-1.29 1.31,-1.29 0.72,0 1.31,0.58 1.31,1.29zm11.76 1.29c0.72,0 1.31,-0.58 1.31,-1.29 0,-0.71 -0.59,-1.29 -1.31,-1.29 -0.72,0 -1.31,0.58 -1.31,1.29 0,0.71 0.59,1.29 1.31,1.29zm14.38 -1.29c0,0.71 -0.58,1.29 -1.31,1.29 -0.72,0 -1.31,-0.58 -1.31,-1.29 0,-0.71 0.58,-1.29 1.31,-1.29 0.72,0 1.31,0.58 1.31,1.29zm11.76 1.29c0.72,0 1.31,-0.58 1.31,-1.29 0,-0.71 -0.58,-1.29 -1.31,-1.29 -0.72,0 -1.31,0.58 -1.31,1.29 0,0.71 0.59,1.29 1.31,1.29zm14.38 -1.29c0,0.71 -0.59,1.29 -1.31,1.29 -0.72,0 -1.31,-0.58 -1.31,-1.29 0,-0.71 0.58,-1.29 1.31,-1.29 0.72,0 1.31,0.58 1.31,1.29zm11.76 1.29c0.72,0 1.31,-0.58 1.31,-1.29 0,-0.71 -0.58,-1.29 -1.31,-1.29 -0.72,0 -1.31,0.58 -1.31,1.29 0,0.71 0.59,1.29 1.31,1.29zm14.38 -1.29c0,0.71 -0.59,1.29 -1.31,1.29 -0.72,0 -1.31,-0.58 -1.31,-1.29 0,-0.71 0.58,-1.29 1.31,-1.29 0.72,0 1.31,0.58 1.31,1.29zm11.76 1.29c0.72,0 1.31,-0.58 1.31,-1.29 0,-0.71 -0.58,-1.29 -1.31,-1.29 -0.72,0 -1.31,0.58 -1.31,1.29 0,0.71 0.59,1.29 1.31,1.29zm14.38 -1.29c0,0.71 -0.59,1.29 -1.31,1.29 -0.72,0 -1.31,-0.58 -1.31,-1.29 0,-0.71 0.58,-1.29 1.31,-1.29 0.72,0 1.31,0.58 1.31,1.29zm10.45 0c0,0.71 0.59,1.29 1.31,1.29l0 -2.58c-0.72,0 -1.31,0.58 -1.31,1.29zm-155.51 11.6c0.72,0 1.31,0.58 1.31,1.29 0,0.71 -0.59,1.29 -1.31,1.29l0 -2.58zm13.07 2.58c0.72,0 1.31,-0.58 1.31,-1.29 0,-0.71 -0.59,-1.29 -1.31,-1.29 -0.72,0 -1.31,0.58 -1.31,1.29 0,0.71 0.59,1.29 1.31,1.29zm14.38 -1.29c0,0.71 -0.59,1.29 -1.31,1.29 -0.72,0 -1.31,-0.58 -1.31,-1.29 0,-0.71 0.59,-1.29 1.31,-1.29 0.72,0 1.31,0.58 1.31,1.29zm11.76 1.29c0.72,0 1.31,-0.58 1.31,-1.29 0,-0.71 -0.59,-1.29 -1.31,-1.29 -0.72,0 -1.31,0.58 -1.31,1.29 0,0.71 0.59,1.29 1.31,1.29zm14.38 -1.29c0,0.71 -0.59,1.29 -1.31,1.29 -0.72,0 -1.31,-0.58 -1.31,-1.29 0,-0.71 0.59,-1.29 1.31,-1.29 0.72,0 1.31,0.58 1.31,1.29zm11.76 1.29c0.72,0 1.31,-0.58 1.31,-1.29 0,-0.71 -0.58,-1.29 -1.31,-1.29 -0.72,0 -1.31,0.58 -1.31,1.29 0,0.71 0.58,1.29 1.31,1.29zm14.37 -1.29c0,0.71 -0.58,1.29 -1.31,1.29 -0.72,0 -1.31,-0.58 -1.31,-1.29 0,-0.71 0.59,-1.29 1.31,-1.29 0.72,0 1.31,0.58 1.31,1.29zm11.76 1.29c0.72,0 1.31,-0.58 1.31,-1.29 0,-0.71 -0.59,-1.29 -1.31,-1.29 -0.72,0 -1.31,0.58 -1.31,1.29 0,0.71 0.58,1.29 1.31,1.29zm14.37 -1.29c0,0.71 -0.58,1.29 -1.31,1.29 -0.72,0 -1.31,-0.58 -1.31,-1.29 0,-0.71 0.59,-1.29 1.31,-1.29 0.72,0 1.31,0.58 1.31,1.29zm11.76 1.29c0.72,0 1.31,-0.58 1.31,-1.29 0,-0.71 -0.59,-1.29 -1.31,-1.29 -0.72,0 -1.31,0.58 -1.31,1.29 0,0.71 0.58,1.29 1.31,1.29zm14.37 -1.29c0,0.71 -0.58,1.29 -1.31,1.29 -0.72,0 -1.31,-0.58 -1.31,-1.29 0,-0.71 0.59,-1.29 1.31,-1.29 0.72,0 1.31,0.58 1.31,1.29zm11.76 1.29c0.72,0 1.31,-0.58 1.31,-1.29 0,-0.71 -0.59,-1.29 -1.31,-1.29 -0.72,0 -1.31,0.58 -1.31,1.29 0,0.71 0.58,1.29 1.31,1.29zm13.07 0c-0.72,0 -1.31,-0.58 -1.31,-1.29 0,-0.71 0.59,-1.29 1.31,-1.29l0 2.58zm-155.51 11.6c0,-0.71 -0.59,-1.29 -1.31,-1.29l0 2.58c0.72,0 1.31,-0.58 1.31,-1.29zm13.07 0c0,0.71 -0.59,1.29 -1.31,1.29 -0.72,0 -1.31,-0.58 -1.31,-1.29 0,-0.71 0.59,-1.29 1.31,-1.29 0.72,0 1.31,0.58 1.31,1.29zm11.76 1.29c0.72,0 1.31,-0.58 1.31,-1.29 0,-0.71 -0.59,-1.29 -1.31,-1.29 -0.72,0 -1.31,0.58 -1.31,1.29 0,0.71 0.59,1.29 1.31,1.29zm14.38 -1.29c0,0.71 -0.59,1.29 -1.31,1.29 -0.72,0 -1.31,-0.58 -1.31,-1.29 0,-0.71 0.59,-1.29 1.31,-1.29 0.72,0 1.31,0.58 1.31,1.29zm11.76 1.29c0.72,0 1.31,-0.58 1.31,-1.29 0,-0.71 -0.59,-1.29 -1.31,-1.29 -0.72,0 -1.31,0.58 -1.31,1.29 0,0.71 0.59,1.29 1.31,1.29zm14.38 -1.29c0,0.71 -0.58,1.29 -1.31,1.29 -0.72,0 -1.31,-0.58 -1.31,-1.29 0,-0.71 0.58,-1.29 1.31,-1.29 0.72,0 1.31,0.58 1.31,1.29zm11.76 1.29c0.72,0 1.31,-0.58 1.31,-1.29 0,-0.71 -0.58,-1.29 -1.31,-1.29 -0.72,0 -1.31,0.58 -1.31,1.29 0,0.71 0.59,1.29 1.31,1.29zm14.38 -1.29c0,0.71 -0.59,1.29 -1.31,1.29 -0.72,0 -1.31,-0.58 -1.31,-1.29 0,-0.71 0.58,-1.29 1.31,-1.29 0.72,0 1.31,0.58 1.31,1.29zm11.76 1.29c0.72,0 1.31,-0.58 1.31,-1.29 0,-0.71 -0.58,-1.29 -1.31,-1.29 -0.72,0 -1.31,0.58 -1.31,1.29 0,0.71 0.59,1.29 1.31,1.29zm14.38 -1.29c0,0.71 -0.59,1.29 -1.31,1.29 -0.72,0 -1.31,-0.58 -1.31,-1.29 0,-0.71 0.58,-1.29 1.31,-1.29 0.72,0 1.31,0.58 1.31,1.29zm11.76 1.29c0.72,0 1.31,-0.58 1.31,-1.29 0,-0.71 -0.58,-1.29 -1.31,-1.29 -0.72,0 -1.31,0.58 -1.31,1.29 0,0.71 0.59,1.29 1.31,1.29zm14.38 -1.29c0,0.71 -0.59,1.29 -1.31,1.29 -0.72,0 -1.31,-0.58 -1.31,-1.29 0,-0.71 0.58,-1.29 1.31,-1.29 0.72,0 1.31,0.58 1.31,1.29zm10.45 0c0,0.71 0.59,1.29 1.31,1.29l0 -2.58c-0.72,0 -1.31,0.58 -1.31,1.29zm-155.51 11.6c0.72,0 1.31,0.58 1.31,1.29 0,0.71 -0.59,1.29 -1.31,1.29l0 -2.58zm13.07 2.58c0.72,0 1.31,-0.58 1.31,-1.29 0,-0.71 -0.59,-1.29 -1.31,-1.29 -0.72,0 -1.31,0.58 -1.31,1.29 0,0.71 0.59,1.29 1.31,1.29zm14.38 -1.29c0,0.71 -0.59,1.29 -1.31,1.29 -0.72,0 -1.31,-0.58 -1.31,-1.29 0,-0.71 0.59,-1.29 1.31,-1.29 0.72,0 1.31,0.58 1.31,1.29zm11.76 1.29c0.72,0 1.31,-0.58 1.31,-1.29 0,-0.71 -0.59,-1.29 -1.31,-1.29 -0.72,0 -1.31,0.58 -1.31,1.29 0,0.71 0.59,1.29 1.31,1.29zm14.38 -1.29c0,0.71 -0.59,1.29 -1.31,1.29 -0.72,0 -1.31,-0.58 -1.31,-1.29 0,-0.71 0.59,-1.29 1.31,-1.29 0.72,0 1.31,0.58 1.31,1.29zm11.76 1.29c0.72,0 1.31,-0.58 1.31,-1.29 0,-0.71 -0.58,-1.29 -1.31,-1.29 -0.72,0 -1.31,0.58 -1.31,1.29 0,0.71 0.58,1.29 1.31,1.29zm14.37 -1.29c0,0.71 -0.58,1.29 -1.31,1.29 -0.72,0 -1.31,-0.58 -1.31,-1.29 0,-0.71 0.59,-1.29 1.31,-1.29 0.72,0 1.31,0.58 1.31,1.29zm11.76 1.29c0.72,0 1.31,-0.58 1.31,-1.29 0,-0.71 -0.59,-1.29 -1.31,-1.29 -0.72,0 -1.31,0.58 -1.31,1.29 0,0.71 0.58,1.29 1.31,1.29zm14.37 -1.29c0,0.71 -0.58,1.29 -1.31,1.29 -0.72,0 -1.31,-0.58 -1.31,-1.29 0,-0.71 0.59,-1.29 1.31,-1.29 0.72,0 1.31,0.58 1.31,1.29zm11.76 1.29c0.72,0 1.31,-0.58 1.31,-1.29 0,-0.71 -0.59,-1.29 -1.31,-1.29 -0.72,0 -1.31,0.58 -1.31,1.29 0,0.71 0.58,1.29 1.31,1.29zm14.37 -1.29c0,0.71 -0.58,1.29 -1.31,1.29 -0.72,0 -1.31,-0.58 -1.31,-1.29 0,-0.71 0.59,-1.29 1.31,-1.29 0.72,0 1.31,0.58 1.31,1.29zm11.76 1.29c0.72,0 1.31,-0.58 1.31,-1.29 0,-0.71 -0.59,-1.29 -1.31,-1.29 -0.72,0 -1.31,0.58 -1.31,1.29 0,0.71 0.58,1.29 1.31,1.29zm13.07 0c-0.72,0 -1.31,-0.58 -1.31,-1.29 0,-0.71 0.59,-1.29 1.31,-1.29l0 2.58zm-155.51 11.6c0,-0.71 -0.59,-1.29 -1.31,-1.29l0 2.58c0.72,0 1.31,-0.58 1.31,-1.29zm13.07 0c0,0.71 -0.59,1.29 -1.31,1.29 -0.72,0 -1.31,-0.58 -1.31,-1.29 0,-0.71 0.59,-1.29 1.31,-1.29 0.72,0 1.31,0.58 1.31,1.29zm11.76 1.29c0.72,0 1.31,-0.58 1.31,-1.29 0,-0.71 -0.59,-1.29 -1.31,-1.29 -0.72,0 -1.31,0.58 -1.31,1.29 0,0.71 0.59,1.29 1.31,1.29zm14.38 -1.29c0,0.71 -0.59,1.29 -1.31,1.29 -0.72,0 -1.31,-0.58 -1.31,-1.29 0,-0.71 0.59,-1.29 1.31,-1.29 0.72,0 1.31,0.58 1.31,1.29zm11.76 1.29c0.72,0 1.31,-0.58 1.31,-1.29 0,-0.71 -0.59,-1.29 -1.31,-1.29 -0.72,0 -1.31,0.58 -1.31,1.29 0,0.71 0.59,1.29 1.31,1.29zm14.38 -1.29c0,0.71 -0.58,1.29 -1.31,1.29 -0.72,0 -1.31,-0.58 -1.31,-1.29 0,-0.71 0.58,-1.29 1.31,-1.29 0.72,0 1.31,0.58 1.31,1.29zm11.76 1.29c0.72,0 1.31,-0.58 1.31,-1.29 0,-0.71 -0.58,-1.29 -1.31,-1.29 -0.72,0 -1.31,0.58 -1.31,1.29 0,0.71 0.59,1.29 1.31,1.29zm14.38 -1.29c0,0.71 -0.59,1.29 -1.31,1.29 -0.72,0 -1.31,-0.58 -1.31,-1.29 0,-0.71 0.58,-1.29 1.31,-1.29 0.72,0 1.31,0.58 1.31,1.29zm11.76 1.29c0.72,0 1.31,-0.58 1.31,-1.29 0,-0.71 -0.58,-1.29 -1.31,-1.29 -0.72,0 -1.31,0.58 -1.31,1.29 0,0.71 0.59,1.29 1.31,1.29zm14.38 -1.29c0,0.71 -0.59,1.29 -1.31,1.29 -0.72,0 -1.31,-0.58 -1.31,-1.29 0,-0.71 0.58,-1.29 1.31,-1.29 0.72,0 1.31,0.58 1.31,1.29zm11.76 1.29c0.72,0 1.31,-0.58 1.31,-1.29 0,-0.71 -0.58,-1.29 -1.31,-1.29 -0.72,0 -1.31,0.58 -1.31,1.29 0,0.71 0.59,1.29 1.31,1.29zm14.38 -1.29c0,0.71 -0.59,1.29 -1.31,1.29 -0.72,0 -1.31,-0.58 -1.31,-1.29 0,-0.71 0.58,-1.29 1.31,-1.29 0.72,0 1.31,0.58 1.31,1.29zm10.45 0c0,0.71 0.59,1.29 1.31,1.29l0 -2.58c-0.72,0 -1.31,0.58 -1.31,1.29zm-155.51 12.89l0 -1.29c0.72,0 1.31,0.58 1.31,1.29l-1.31 0zm13.07 -1.29c-0.72,0 -1.31,0.58 -1.31,1.29l2.61 0c0,-0.71 -0.59,-1.29 -1.31,-1.29zm11.76 1.29c0,-0.71 0.59,-1.29 1.31,-1.29 0.72,0 1.31,0.58 1.31,1.29l-2.61 0zm14.38 -1.29c-0.72,0 -1.31,0.58 -1.31,1.29l2.61 0c0,-0.71 -0.59,-1.29 -1.31,-1.29zm11.76 1.29c0,-0.71 0.59,-1.29 1.31,-1.29 0.72,0 1.31,0.58 1.31,1.29l-2.61 0zm14.38 -1.29c-0.72,0 -1.31,0.58 -1.31,1.29l2.61 0c0,-0.71 -0.59,-1.29 -1.31,-1.29zm11.76 1.29c0,-0.71 0.59,-1.29 1.31,-1.29 0.72,0 1.31,0.58 1.31,1.29l-2.61 0zm14.38 -1.29c-0.72,0 -1.31,0.58 -1.31,1.29l2.61 0c0,-0.71 -0.59,-1.29 -1.31,-1.29zm11.76 1.29c0,-0.71 0.59,-1.29 1.31,-1.29 0.72,0 1.31,0.58 1.31,1.29l-2.61 0zm14.38 -1.29c-0.72,0 -1.31,0.58 -1.31,1.29l2.61 0c0,-0.71 -0.59,-1.29 -1.31,-1.29zm11.76 1.29c0,-0.71 0.59,-1.29 1.31,-1.29 0.72,0 1.31,0.58 1.31,1.29l-2.61 0zm14.38 -1.29c-0.72,0 -1.31,0.58 -1.31,1.29l2.61 0c0,-0.71 -0.59,-1.29 -1.31,-1.29zm11.76 1.29c0,-0.71 0.59,-1.29 1.31,-1.29l0 1.29 -1.31 0z"/>
   </g>
  </g>
  <path class="fil2" d="M90.63 259.29c0,-30.61 -25.16,-55.43 -56.2,-55.43 -31.03,0 -56.2,24.82 -56.2,55.43 0,30.61 25.16,55.43 56.2,55.43 31.03,0 56.2,-24.82 56.2,-55.43z"/>
 </g>
</svg>
