<?xml version="1.0" encoding="UTF-8"?>
<!DOCTYPE svg PUBLIC "-//W3C//DTD SVG 1.1//EN" "http://www.w3.org/Graphics/SVG/1.1/DTD/svg11.dtd">
<!-- Creator: CorelDRAW -->
<svg xmlns="http://www.w3.org/2000/svg" xml:space="preserve" width="98.1907mm" height="163.078mm" version="1.1" style="shape-rendering:geometricPrecision; text-rendering:geometricPrecision; image-rendering:optimizeQuality; fill-rule:evenodd; clip-rule:evenodd"
viewBox="0 0 464.12 770.82"
 xmlns:xlink="http://www.w3.org/1999/xlink"
 xmlns:xodm="http://www.corel.com/coreldraw/odm/2003">
 <defs>
  <style type="text/css">
   <![CDATA[
    .fil2 {fill:none;fill-rule:nonzero}
    .fil0 {fill:#C4C4C4;fill-rule:nonzero;fill-opacity:0.000000}
    .fil1 {fill:#E9B194}
   ]]>
  </style>
   <clipPath id="id0" style="clip-rule:nonzero">
    <path d="M464.12 385.41c0,-212.82 -174.96,-385.41 -390.7,-385.41 -25.1,0 -49.63,2.36 -73.42,6.83l0 757.17c23.78,4.46 48.32,6.83 73.42,6.83 215.74,0 390.7,-172.59 390.7,-385.41z"/>
   </clipPath>
   <clipPath id="id1" style="clip-rule:nonzero">
    <path d="M464.12 385.41c0,-212.82 -174.96,-385.41 -390.7,-385.41 -25.1,0 -49.63,2.36 -73.42,6.83l0 757.17c23.78,4.46 48.32,6.83 73.42,6.83 215.74,0 390.7,-172.59 390.7,-385.41z"/>
   </clipPath>
 </defs>
 <g id="Layer_x0020_1">
  <metadata id="CorelCorpID_0Corel-Layer"/>
  <g style="clip-path:url(#id0)">
   <polygon class="fil0" points="-0,0 464.12,0 464.12,770.82 -0,770.82 "/>
  </g>
  <g style="clip-path:url(#id1)">
   <g id="_105553716484832">
    <path id="_1" class="fil1" d="M-429.13 -316.58l-9.09 0 0 8.96c5,0 9.09,-4.03 9.09,-8.96zm81.77 8.96c5,0 9.09,-4.03 9.09,-8.96l-18.17 0c0,4.93 4.09,8.96 9.09,8.96zm99.94 -8.96c0,4.93 -4.09,8.96 -9.09,8.96 -5,0 -9.09,-4.03 -9.09,-8.96l18.17 0zm81.77 8.96c5,0 9.09,-4.03 9.09,-8.96l-18.17 0c0,4.93 4.09,8.96 9.09,8.96zm99.94 -8.96c0,4.93 -4.09,8.96 -9.09,8.96 -5,0 -9.09,-4.03 -9.09,-8.96l18.17 0zm81.77 8.96c5,0 9.09,-4.03 9.09,-8.96l-18.17 0c0,4.93 4.09,8.96 9.09,8.96zm99.94 -8.96c0,4.93 -4.09,8.96 -9.08,8.96 -5,0 -9.09,-4.03 -9.09,-8.96l18.17 0zm81.77 8.96c5,0 9.08,-4.03 9.08,-8.96l-18.17 0c0,4.93 4.09,8.96 9.09,8.96zm99.94 -8.96c0,4.93 -4.09,8.96 -9.09,8.96 -4.99,0 -9.08,-4.03 -9.08,-8.96l18.17 0zm81.77 8.96c5,0 9.08,-4.03 9.08,-8.96l-18.17 0c0,4.93 4.09,8.96 9.09,8.96zm99.94 -8.96c0,4.93 -4.09,8.96 -9.09,8.96 -4.99,0 -9.09,-4.03 -9.09,-8.96l18.17 0zm81.77 8.96c5,0 9.09,-4.03 9.09,-8.96l-18.17 0c0,4.93 4.09,8.96 9.08,8.96zm90.86 -8.96l0 8.96c-4.99,0 -9.09,-4.03 -9.09,-8.96l9.09 0zm-1081.21 89.63c0,-4.93 -4.09,-8.96 -9.09,-8.96l0 17.93c5,0 9.09,-4.03 9.09,-8.96zm90.86 0c0,4.95 -4.07,8.96 -9.09,8.96 -5.02,0 -9.09,-4.01 -9.09,-8.96 0,-4.95 4.07,-8.96 9.09,-8.96 5.02,0 9.09,4.01 9.09,8.96zm81.77 8.96c5.02,0 9.09,-4.01 9.09,-8.96 0,-4.95 -4.07,-8.96 -9.09,-8.96 -5.02,0 -9.09,4.01 -9.09,8.96 0,4.95 4.07,8.96 9.09,8.96zm99.94 -8.96c0,4.95 -4.07,8.96 -9.09,8.96 -5.02,0 -9.09,-4.01 -9.09,-8.96 0,-4.95 4.07,-8.96 9.09,-8.96 5.02,0 9.09,4.01 9.09,8.96zm81.77 8.96c5.02,0 9.09,-4.01 9.09,-8.96 0,-4.95 -4.07,-8.96 -9.09,-8.96 -5.02,0 -9.09,4.01 -9.09,8.96 0,4.95 4.07,8.96 9.09,8.96zm99.94 -8.96c0,4.95 -4.07,8.96 -9.09,8.96 -5.02,0 -9.09,-4.01 -9.09,-8.96 0,-4.95 4.07,-8.96 9.09,-8.96 5.02,0 9.09,4.01 9.09,8.96zm81.77 8.96c5.02,0 9.08,-4.01 9.08,-8.96 0,-4.95 -4.07,-8.96 -9.08,-8.96 -5.02,0 -9.09,4.01 -9.09,8.96 0,4.95 4.07,8.96 9.09,8.96zm99.94 -8.96c0,4.95 -4.07,8.96 -9.08,8.96 -5.02,0 -9.09,-4.01 -9.09,-8.96 0,-4.95 4.07,-8.96 9.09,-8.96 5.02,0 9.08,4.01 9.08,8.96zm81.77 8.96c5.02,0 9.09,-4.01 9.09,-8.96 0,-4.95 -4.07,-8.96 -9.09,-8.96 -5.02,0 -9.08,4.01 -9.08,8.96 0,4.95 4.07,8.96 9.08,8.96zm99.95 -8.96c0,4.95 -4.07,8.96 -9.08,8.96 -5.02,0 -9.09,-4.01 -9.09,-8.96 0,-4.95 4.07,-8.96 9.09,-8.96 5.02,0 9.08,4.01 9.08,8.96zm81.77 8.96c5.02,0 9.09,-4.01 9.09,-8.96 0,-4.95 -4.07,-8.96 -9.09,-8.96 -5.02,0 -9.09,4.01 -9.09,8.96 0,4.95 4.07,8.96 9.09,8.96zm99.95 -8.96c0,4.95 -4.07,8.96 -9.09,8.96 -5.02,0 -9.08,-4.01 -9.08,-8.96 0,-4.95 4.07,-8.96 9.08,-8.96 5.02,0 9.09,4.01 9.09,8.96zm72.69 0c0,4.93 4.09,8.96 9.09,8.96l0 -17.93c-4.99,0 -9.09,4.03 -9.09,8.96zm-1081.21 80.67c5,0 9.09,4.03 9.09,8.96 0,4.93 -4.09,8.96 -9.09,8.96l0 -17.93zm90.86 17.93c5.02,0 9.09,-4.01 9.09,-8.96 0,-4.95 -4.07,-8.96 -9.09,-8.96 -5.02,0 -9.09,4.01 -9.09,8.96 0,4.95 4.07,8.96 9.09,8.96zm99.94 -8.96c0,4.95 -4.07,8.96 -9.09,8.96 -5.02,0 -9.09,-4.01 -9.09,-8.96 0,-4.95 4.07,-8.96 9.09,-8.96 5.02,0 9.09,4.01 9.09,8.96zm81.77 8.96c5.02,0 9.09,-4.01 9.09,-8.96 0,-4.95 -4.07,-8.96 -9.09,-8.96 -5.02,0 -9.09,4.01 -9.09,8.96 0,4.95 4.07,8.96 9.09,8.96zm99.94 -8.96c0,4.95 -4.07,8.96 -9.09,8.96 -5.02,0 -9.09,-4.01 -9.09,-8.96 0,-4.95 4.07,-8.96 9.09,-8.96 5.02,0 9.09,4.01 9.09,8.96zm81.77 8.96c5.02,0 9.09,-4.01 9.09,-8.96 0,-4.95 -4.07,-8.96 -9.09,-8.96 -5.02,0 -9.09,4.01 -9.09,8.96 0,4.95 4.07,8.96 9.09,8.96zm99.94 -8.96c0,4.95 -4.07,8.96 -9.08,8.96 -5.02,0 -9.09,-4.01 -9.09,-8.96 0,-4.95 4.07,-8.96 9.09,-8.96 5.02,0 9.08,4.01 9.08,8.96zm81.77 8.96c5.02,0 9.08,-4.01 9.08,-8.96 0,-4.95 -4.07,-8.96 -9.08,-8.96 -5.02,0 -9.09,4.01 -9.09,8.96 0,4.95 4.07,8.96 9.09,8.96zm99.94 -8.96c0,4.95 -4.07,8.96 -9.09,8.96 -5.02,0 -9.08,-4.01 -9.08,-8.96 0,-4.95 4.07,-8.96 9.08,-8.96 5.02,0 9.09,4.01 9.09,8.96zm81.77 8.96c5.02,0 9.08,-4.01 9.08,-8.96 0,-4.95 -4.07,-8.96 -9.08,-8.96 -5.02,0 -9.09,4.01 -9.09,8.96 0,4.95 4.07,8.96 9.09,8.96zm99.94 -8.96c0,4.95 -4.07,8.96 -9.09,8.96 -5.02,0 -9.09,-4.01 -9.09,-8.96 0,-4.95 4.07,-8.96 9.09,-8.96 5.02,0 9.09,4.01 9.09,8.96zm81.77 8.96c5.02,0 9.09,-4.01 9.09,-8.96 0,-4.95 -4.07,-8.96 -9.09,-8.96 -5.02,0 -9.08,4.01 -9.08,8.96 0,4.95 4.07,8.96 9.08,8.96zm90.86 0c-4.99,0 -9.09,-4.03 -9.09,-8.96 0,-4.93 4.09,-8.96 9.09,-8.96l0 17.93zm-1081.21 80.66c0,-4.93 -4.09,-8.96 -9.09,-8.96l0 17.92c5,0 9.09,-4.03 9.09,-8.96zm90.86 0c0,4.95 -4.07,8.96 -9.09,8.96 -5.02,0 -9.09,-4.01 -9.09,-8.96 0,-4.95 4.07,-8.96 9.09,-8.96 5.02,0 9.09,4.01 9.09,8.96zm81.77 8.96c5.02,0 9.09,-4.01 9.09,-8.96 0,-4.95 -4.07,-8.96 -9.09,-8.96 -5.02,0 -9.09,4.01 -9.09,8.96 0,4.95 4.07,8.96 9.09,8.96zm99.94 -8.96c0,4.95 -4.07,8.96 -9.09,8.96 -5.02,0 -9.09,-4.01 -9.09,-8.96 0,-4.95 4.07,-8.96 9.09,-8.96 5.02,0 9.09,4.01 9.09,8.96zm81.77 8.96c5.02,0 9.09,-4.01 9.09,-8.96 0,-4.95 -4.07,-8.96 -9.09,-8.96 -5.02,0 -9.09,4.01 -9.09,8.96 0,4.95 4.07,8.96 9.09,8.96zm99.94 -8.96c0,4.95 -4.07,8.96 -9.09,8.96 -5.02,0 -9.09,-4.01 -9.09,-8.96 0,-4.95 4.07,-8.96 9.09,-8.96 5.02,0 9.09,4.01 9.09,8.96zm81.77 8.96c5.02,0 9.08,-4.01 9.08,-8.96 0,-4.95 -4.07,-8.96 -9.08,-8.96 -5.02,0 -9.09,4.01 -9.09,8.96 0,4.95 4.07,8.96 9.09,8.96zm99.94 -8.96c0,4.95 -4.07,8.96 -9.08,8.96 -5.02,0 -9.09,-4.01 -9.09,-8.96 0,-4.95 4.07,-8.96 9.09,-8.96 5.02,0 9.08,4.01 9.08,8.96zm81.77 8.96c5.02,0 9.09,-4.01 9.09,-8.96 0,-4.95 -4.07,-8.96 -9.09,-8.96 -5.02,0 -9.08,4.01 -9.08,8.96 0,4.95 4.07,8.96 9.08,8.96zm99.95 -8.96c0,4.95 -4.07,8.96 -9.08,8.96 -5.02,0 -9.09,-4.01 -9.09,-8.96 0,-4.95 4.07,-8.96 9.09,-8.96 5.02,0 9.08,4.01 9.08,8.96zm81.77 8.96c5.02,0 9.09,-4.01 9.09,-8.96 0,-4.95 -4.07,-8.96 -9.09,-8.96 -5.02,0 -9.09,4.01 -9.09,8.96 0,4.95 4.07,8.96 9.09,8.96zm99.95 -8.96c0,4.95 -4.07,8.96 -9.09,8.96 -5.02,0 -9.08,-4.01 -9.08,-8.96 0,-4.95 4.07,-8.96 9.08,-8.96 5.02,0 9.09,4.01 9.09,8.96zm72.69 0c0,4.93 4.09,8.96 9.09,8.96l0 -17.92c-4.99,0 -9.09,4.03 -9.09,8.96zm-1081.21 80.67c5,0 9.09,4.03 9.09,8.96 0,4.93 -4.09,8.96 -9.09,8.96l0 -17.93zm90.86 17.93c5.02,0 9.09,-4.01 9.09,-8.96 0,-4.95 -4.07,-8.96 -9.09,-8.96 -5.02,0 -9.09,4.01 -9.09,8.96 0,4.95 4.07,8.96 9.09,8.96zm99.94 -8.96c0,4.95 -4.07,8.96 -9.09,8.96 -5.02,0 -9.09,-4.01 -9.09,-8.96 0,-4.95 4.07,-8.96 9.09,-8.96 5.02,0 9.09,4.01 9.09,8.96zm81.77 8.96c5.02,0 9.09,-4.01 9.09,-8.96 0,-4.95 -4.07,-8.96 -9.09,-8.96 -5.02,0 -9.09,4.01 -9.09,8.96 0,4.95 4.07,8.96 9.09,8.96zm99.94 -8.96c0,4.95 -4.07,8.96 -9.09,8.96 -5.02,0 -9.09,-4.01 -9.09,-8.96 0,-4.95 4.07,-8.96 9.09,-8.96 5.02,0 9.09,4.01 9.09,8.96zm81.77 8.96c5.02,0 9.09,-4.01 9.09,-8.96 0,-4.95 -4.07,-8.96 -9.09,-8.96 -5.02,0 -9.09,4.01 -9.09,8.96 0,4.95 4.07,8.96 9.09,8.96zm99.94 -8.96c0,4.95 -4.07,8.96 -9.08,8.96 -5.02,0 -9.09,-4.01 -9.09,-8.96 0,-4.95 4.07,-8.96 9.09,-8.96 5.02,0 9.08,4.01 9.08,8.96zm81.77 8.96c5.02,0 9.08,-4.01 9.08,-8.96 0,-4.95 -4.07,-8.96 -9.08,-8.96 -5.02,0 -9.09,4.01 -9.09,8.96 0,4.95 4.07,8.96 9.09,8.96zm99.94 -8.96c0,4.95 -4.07,8.96 -9.09,8.96 -5.02,0 -9.08,-4.01 -9.08,-8.96 0,-4.95 4.07,-8.96 9.08,-8.96 5.02,0 9.09,4.01 9.09,8.96zm81.77 8.96c5.02,0 9.08,-4.01 9.08,-8.96 0,-4.95 -4.07,-8.96 -9.08,-8.96 -5.02,0 -9.09,4.01 -9.09,8.96 0,4.95 4.07,8.96 9.09,8.96zm99.94 -8.96c0,4.95 -4.07,8.96 -9.09,8.96 -5.02,0 -9.09,-4.01 -9.09,-8.96 0,-4.95 4.07,-8.96 9.09,-8.96 5.02,0 9.09,4.01 9.09,8.96zm81.77 8.96c5.02,0 9.09,-4.01 9.09,-8.96 0,-4.95 -4.07,-8.96 -9.09,-8.96 -5.02,0 -9.08,4.01 -9.08,8.96 0,4.95 4.07,8.96 9.08,8.96zm90.86 0c-4.99,0 -9.09,-4.03 -9.09,-8.96 0,-4.93 4.09,-8.96 9.09,-8.96l0 17.93zm-1081.21 80.67c0,-4.93 -4.09,-8.96 -9.09,-8.96l0 17.93c5,0 9.09,-4.03 9.09,-8.96zm90.86 0c0,4.95 -4.07,8.96 -9.09,8.96 -5.02,0 -9.09,-4.01 -9.09,-8.96 0,-4.95 4.07,-8.96 9.09,-8.96 5.02,0 9.09,4.01 9.09,8.96zm81.77 8.96c5.02,0 9.09,-4.01 9.09,-8.96 0,-4.95 -4.07,-8.96 -9.09,-8.96 -5.02,0 -9.09,4.01 -9.09,8.96 0,4.95 4.07,8.96 9.09,8.96zm99.94 -8.96c0,4.95 -4.07,8.96 -9.09,8.96 -5.02,0 -9.09,-4.01 -9.09,-8.96 0,-4.95 4.07,-8.96 9.09,-8.96 5.02,0 9.09,4.01 9.09,8.96zm81.77 8.96c5.02,0 9.09,-4.01 9.09,-8.96 0,-4.95 -4.07,-8.96 -9.09,-8.96 -5.02,0 -9.09,4.01 -9.09,8.96 0,4.95 4.07,8.96 9.09,8.96zm99.94 -8.96c0,4.95 -4.07,8.96 -9.09,8.96 -5.02,0 -9.09,-4.01 -9.09,-8.96 0,-4.95 4.07,-8.96 9.09,-8.96 5.02,0 9.09,4.01 9.09,8.96zm81.77 8.96c5.02,0 9.08,-4.01 9.08,-8.96 0,-4.95 -4.07,-8.96 -9.08,-8.96 -5.02,0 -9.09,4.01 -9.09,8.96 0,4.95 4.07,8.96 9.09,8.96zm99.94 -8.96c0,4.95 -4.07,8.96 -9.08,8.96 -5.02,0 -9.09,-4.01 -9.09,-8.96 0,-4.95 4.07,-8.96 9.09,-8.96 5.02,0 9.08,4.01 9.08,8.96zm81.77 8.96c5.02,0 9.09,-4.01 9.09,-8.96 0,-4.95 -4.07,-8.96 -9.09,-8.96 -5.02,0 -9.08,4.01 -9.08,8.96 0,4.95 4.07,8.96 9.08,8.96zm99.95 -8.96c0,4.95 -4.07,8.96 -9.08,8.96 -5.02,0 -9.09,-4.01 -9.09,-8.96 0,-4.95 4.07,-8.96 9.09,-8.96 5.02,0 9.08,4.01 9.08,8.96zm81.77 8.96c5.02,0 9.09,-4.01 9.09,-8.96 0,-4.95 -4.07,-8.96 -9.09,-8.96 -5.02,0 -9.09,4.01 -9.09,8.96 0,4.95 4.07,8.96 9.09,8.96zm99.95 -8.96c0,4.95 -4.07,8.96 -9.09,8.96 -5.02,0 -9.08,-4.01 -9.08,-8.96 0,-4.95 4.07,-8.96 9.08,-8.96 5.02,0 9.09,4.01 9.09,8.96zm72.69 0c0,4.93 4.09,8.96 9.09,8.96l0 -17.93c-4.99,0 -9.09,4.03 -9.09,8.96zm-1081.21 80.67c5,0 9.09,4.03 9.09,8.96 0,4.93 -4.09,8.96 -9.09,8.96l0 -17.93zm90.86 17.93c5.02,0 9.09,-4.01 9.09,-8.96 0,-4.95 -4.07,-8.96 -9.09,-8.96 -5.02,0 -9.09,4.01 -9.09,8.96 0,4.95 4.07,8.96 9.09,8.96zm99.94 -8.96c0,4.95 -4.07,8.96 -9.09,8.96 -5.02,0 -9.09,-4.01 -9.09,-8.96 0,-4.95 4.07,-8.96 9.09,-8.96 5.02,0 9.09,4.01 9.09,8.96zm81.77 8.96c5.02,0 9.09,-4.01 9.09,-8.96 0,-4.95 -4.07,-8.96 -9.09,-8.96 -5.02,0 -9.09,4.01 -9.09,8.96 0,4.95 4.07,8.96 9.09,8.96zm99.94 -8.96c0,4.95 -4.07,8.96 -9.09,8.96 -5.02,0 -9.09,-4.01 -9.09,-8.96 0,-4.95 4.07,-8.96 9.09,-8.96 5.02,0 9.09,4.01 9.09,8.96zm81.77 8.96c5.02,0 9.09,-4.01 9.09,-8.96 0,-4.95 -4.07,-8.96 -9.09,-8.96 -5.02,0 -9.09,4.01 -9.09,8.96 0,4.95 4.07,8.96 9.09,8.96zm99.94 -8.96c0,4.95 -4.07,8.96 -9.08,8.96 -5.02,0 -9.09,-4.01 -9.09,-8.96 0,-4.95 4.07,-8.96 9.09,-8.96 5.02,0 9.08,4.01 9.08,8.96zm81.77 8.96c5.02,0 9.08,-4.01 9.08,-8.96 0,-4.95 -4.07,-8.96 -9.08,-8.96 -5.02,0 -9.09,4.01 -9.09,8.96 0,4.95 4.07,8.96 9.09,8.96zm99.94 -8.96c0,4.95 -4.07,8.96 -9.09,8.96 -5.02,0 -9.08,-4.01 -9.08,-8.96 0,-4.95 4.07,-8.96 9.08,-8.96 5.02,0 9.09,4.01 9.09,8.96zm81.77 8.96c5.02,0 9.08,-4.01 9.08,-8.96 0,-4.95 -4.07,-8.96 -9.08,-8.96 -5.02,0 -9.09,4.01 -9.09,8.96 0,4.95 4.07,8.96 9.09,8.96zm99.94 -8.96c0,4.95 -4.07,8.96 -9.09,8.96 -5.02,0 -9.09,-4.01 -9.09,-8.96 0,-4.95 4.07,-8.96 9.09,-8.96 5.02,0 9.09,4.01 9.09,8.96zm81.77 8.96c5.02,0 9.09,-4.01 9.09,-8.96 0,-4.95 -4.07,-8.96 -9.09,-8.96 -5.02,0 -9.08,4.01 -9.08,8.96 0,4.95 4.07,8.96 9.08,8.96zm90.86 0c-4.99,0 -9.09,-4.03 -9.09,-8.96 0,-4.93 4.09,-8.96 9.09,-8.96l0 17.93zm-1081.21 80.67c0,-4.93 -4.09,-8.96 -9.09,-8.96l0 17.92c5,0 9.09,-4.03 9.09,-8.96zm90.86 0c0,4.95 -4.07,8.96 -9.09,8.96 -5.02,0 -9.09,-4.01 -9.09,-8.96 0,-4.95 4.07,-8.96 9.09,-8.96 5.02,0 9.09,4.01 9.09,8.96zm81.77 8.96c5.02,0 9.09,-4.01 9.09,-8.96 0,-4.95 -4.07,-8.96 -9.09,-8.96 -5.02,0 -9.09,4.01 -9.09,8.96 0,4.95 4.07,8.96 9.09,8.96zm99.94 -8.96c0,4.95 -4.07,8.96 -9.09,8.96 -5.02,0 -9.09,-4.01 -9.09,-8.96 0,-4.95 4.07,-8.96 9.09,-8.96 5.02,0 9.09,4.01 9.09,8.96zm81.77 8.96c5.02,0 9.09,-4.01 9.09,-8.96 0,-4.95 -4.07,-8.96 -9.09,-8.96 -5.02,0 -9.09,4.01 -9.09,8.96 0,4.95 4.07,8.96 9.09,8.96zm99.94 -8.96c0,4.95 -4.07,8.96 -9.09,8.96 -5.02,0 -9.09,-4.01 -9.09,-8.96 0,-4.95 4.07,-8.96 9.09,-8.96 5.02,0 9.09,4.01 9.09,8.96zm81.77 8.96c5.02,0 9.08,-4.01 9.08,-8.96 0,-4.95 -4.07,-8.96 -9.08,-8.96 -5.02,0 -9.09,4.01 -9.09,8.96 0,4.95 4.07,8.96 9.09,8.96zm99.94 -8.96c0,4.95 -4.07,8.96 -9.08,8.96 -5.02,0 -9.09,-4.01 -9.09,-8.96 0,-4.95 4.07,-8.96 9.09,-8.96 5.02,0 9.08,4.01 9.08,8.96zm81.77 8.96c5.02,0 9.09,-4.01 9.09,-8.96 0,-4.95 -4.07,-8.96 -9.09,-8.96 -5.02,0 -9.08,4.01 -9.08,8.96 0,4.95 4.07,8.96 9.08,8.96zm99.95 -8.96c0,4.95 -4.07,8.96 -9.08,8.96 -5.02,0 -9.09,-4.01 -9.09,-8.96 0,-4.95 4.07,-8.96 9.09,-8.96 5.02,0 9.08,4.01 9.08,8.96zm81.77 8.96c5.02,0 9.09,-4.01 9.09,-8.96 0,-4.95 -4.07,-8.96 -9.09,-8.96 -5.02,0 -9.09,4.01 -9.09,8.96 0,4.95 4.07,8.96 9.09,8.96zm99.95 -8.96c0,4.95 -4.07,8.96 -9.09,8.96 -5.02,0 -9.08,-4.01 -9.08,-8.96 0,-4.95 4.07,-8.96 9.08,-8.96 5.02,0 9.09,4.01 9.09,8.96zm72.69 0c0,4.93 4.09,8.96 9.09,8.96l0 -17.92c-4.99,0 -9.09,4.03 -9.09,8.96zm-1081.21 80.66c5,0 9.09,4.03 9.09,8.96 0,4.93 -4.09,8.96 -9.09,8.96l0 -17.93zm90.86 17.93c5.02,0 9.09,-4.01 9.09,-8.96 0,-4.95 -4.07,-8.96 -9.09,-8.96 -5.02,0 -9.09,4.01 -9.09,8.96 0,4.95 4.07,8.96 9.09,8.96zm99.94 -8.96c0,4.95 -4.07,8.96 -9.09,8.96 -5.02,0 -9.09,-4.01 -9.09,-8.96 0,-4.95 4.07,-8.96 9.09,-8.96 5.02,0 9.09,4.01 9.09,8.96zm81.77 8.96c5.02,0 9.09,-4.01 9.09,-8.96 0,-4.95 -4.07,-8.96 -9.09,-8.96 -5.02,0 -9.09,4.01 -9.09,8.96 0,4.95 4.07,8.96 9.09,8.96zm99.94 -8.96c0,4.95 -4.07,8.96 -9.09,8.96 -5.02,0 -9.09,-4.01 -9.09,-8.96 0,-4.95 4.07,-8.96 9.09,-8.96 5.02,0 9.09,4.01 9.09,8.96zm81.77 8.96c5.02,0 9.09,-4.01 9.09,-8.96 0,-4.95 -4.07,-8.96 -9.09,-8.96 -5.02,0 -9.09,4.01 -9.09,8.96 0,4.95 4.07,8.96 9.09,8.96zm99.94 -8.96c0,4.95 -4.07,8.96 -9.08,8.96 -5.02,0 -9.09,-4.01 -9.09,-8.96 0,-4.95 4.07,-8.96 9.09,-8.96 5.02,0 9.08,4.01 9.08,8.96zm81.77 8.96c5.02,0 9.08,-4.01 9.08,-8.96 0,-4.95 -4.07,-8.96 -9.08,-8.96 -5.02,0 -9.09,4.01 -9.09,8.96 0,4.95 4.07,8.96 9.09,8.96zm99.94 -8.96c0,4.95 -4.07,8.96 -9.09,8.96 -5.02,0 -9.08,-4.01 -9.08,-8.96 0,-4.95 4.07,-8.96 9.08,-8.96 5.02,0 9.09,4.01 9.09,8.96zm81.77 8.96c5.02,0 9.08,-4.01 9.08,-8.96 0,-4.95 -4.07,-8.96 -9.08,-8.96 -5.02,0 -9.09,4.01 -9.09,8.96 0,4.95 4.07,8.96 9.09,8.96zm99.94 -8.96c0,4.95 -4.07,8.96 -9.09,8.96 -5.02,0 -9.09,-4.01 -9.09,-8.96 0,-4.95 4.07,-8.96 9.09,-8.96 5.02,0 9.09,4.01 9.09,8.96zm81.77 8.96c5.02,0 9.09,-4.01 9.09,-8.96 0,-4.95 -4.07,-8.96 -9.09,-8.96 -5.02,0 -9.08,4.01 -9.08,8.96 0,4.95 4.07,8.96 9.08,8.96zm90.86 0c-4.99,0 -9.09,-4.03 -9.09,-8.96 0,-4.93 4.09,-8.96 9.09,-8.96l0 17.93zm-1081.21 80.67c0,-4.93 -4.09,-8.96 -9.09,-8.96l0 17.92c5,0 9.09,-4.03 9.09,-8.96zm90.86 0c0,4.95 -4.07,8.96 -9.09,8.96 -5.02,0 -9.09,-4.01 -9.09,-8.96 0,-4.95 4.07,-8.96 9.09,-8.96 5.02,0 9.09,4.01 9.09,8.96zm81.77 8.96c5.02,0 9.09,-4.01 9.09,-8.96 0,-4.95 -4.07,-8.96 -9.09,-8.96 -5.02,0 -9.09,4.01 -9.09,8.96 0,4.95 4.07,8.96 9.09,8.96zm99.94 -8.96c0,4.95 -4.07,8.96 -9.09,8.96 -5.02,0 -9.09,-4.01 -9.09,-8.96 0,-4.95 4.07,-8.96 9.09,-8.96 5.02,0 9.09,4.01 9.09,8.96zm81.77 8.96c5.02,0 9.09,-4.01 9.09,-8.96 0,-4.95 -4.07,-8.96 -9.09,-8.96 -5.02,0 -9.09,4.01 -9.09,8.96 0,4.95 4.07,8.96 9.09,8.96zm99.94 -8.96c0,4.95 -4.07,8.96 -9.09,8.96 -5.02,0 -9.09,-4.01 -9.09,-8.96 0,-4.95 4.07,-8.96 9.09,-8.96 5.02,0 9.09,4.01 9.09,8.96zm81.77 8.96c5.02,0 9.08,-4.01 9.08,-8.96 0,-4.95 -4.07,-8.96 -9.08,-8.96 -5.02,0 -9.09,4.01 -9.09,8.96 0,4.95 4.07,8.96 9.09,8.96zm99.94 -8.96c0,4.95 -4.07,8.96 -9.08,8.96 -5.02,0 -9.09,-4.01 -9.09,-8.96 0,-4.95 4.07,-8.96 9.09,-8.96 5.02,0 9.08,4.01 9.08,8.96zm81.77 8.96c5.02,0 9.09,-4.01 9.09,-8.96 0,-4.95 -4.07,-8.96 -9.09,-8.96 -5.02,0 -9.08,4.01 -9.08,8.96 0,4.95 4.07,8.96 9.08,8.96zm99.95 -8.96c0,4.95 -4.07,8.96 -9.08,8.96 -5.02,0 -9.09,-4.01 -9.09,-8.96 0,-4.95 4.07,-8.96 9.09,-8.96 5.02,0 9.08,4.01 9.08,8.96zm81.77 8.96c5.02,0 9.09,-4.01 9.09,-8.96 0,-4.95 -4.07,-8.96 -9.09,-8.96 -5.02,0 -9.09,4.01 -9.09,8.96 0,4.95 4.07,8.96 9.09,8.96zm99.95 -8.96c0,4.95 -4.07,8.96 -9.09,8.96 -5.02,0 -9.08,-4.01 -9.08,-8.96 0,-4.95 4.07,-8.96 9.08,-8.96 5.02,0 9.09,4.01 9.09,8.96zm72.69 0c0,4.93 4.09,8.96 9.09,8.96l0 -17.92c-4.99,0 -9.09,4.03 -9.09,8.96zm-1081.21 80.66c5,0 9.09,4.03 9.09,8.96 0,4.93 -4.09,8.96 -9.09,8.96l0 -17.93zm90.86 17.93c5.02,0 9.09,-4.01 9.09,-8.96 0,-4.95 -4.07,-8.96 -9.09,-8.96 -5.02,0 -9.09,4.01 -9.09,8.96 0,4.95 4.07,8.96 9.09,8.96zm99.94 -8.96c0,4.95 -4.07,8.96 -9.09,8.96 -5.02,0 -9.09,-4.01 -9.09,-8.96 0,-4.95 4.07,-8.96 9.09,-8.96 5.02,0 9.09,4.01 9.09,8.96zm81.77 8.96c5.02,0 9.09,-4.01 9.09,-8.96 0,-4.95 -4.07,-8.96 -9.09,-8.96 -5.02,0 -9.09,4.01 -9.09,8.96 0,4.95 4.07,8.96 9.09,8.96zm99.94 -8.96c0,4.95 -4.07,8.96 -9.09,8.96 -5.02,0 -9.09,-4.01 -9.09,-8.96 0,-4.95 4.07,-8.96 9.09,-8.96 5.02,0 9.09,4.01 9.09,8.96zm81.77 8.96c5.02,0 9.09,-4.01 9.09,-8.96 0,-4.95 -4.07,-8.96 -9.09,-8.96 -5.02,0 -9.09,4.01 -9.09,8.96 0,4.95 4.07,8.96 9.09,8.96zm99.94 -8.96c0,4.95 -4.07,8.96 -9.08,8.96 -5.02,0 -9.09,-4.01 -9.09,-8.96 0,-4.95 4.07,-8.96 9.09,-8.96 5.02,0 9.08,4.01 9.08,8.96zm81.77 8.96c5.02,0 9.08,-4.01 9.08,-8.96 0,-4.95 -4.07,-8.96 -9.08,-8.96 -5.02,0 -9.09,4.01 -9.09,8.96 0,4.95 4.07,8.96 9.09,8.96zm99.94 -8.96c0,4.95 -4.07,8.96 -9.09,8.96 -5.02,0 -9.08,-4.01 -9.08,-8.96 0,-4.95 4.07,-8.96 9.08,-8.96 5.02,0 9.09,4.01 9.09,8.96zm81.77 8.96c5.02,0 9.08,-4.01 9.08,-8.96 0,-4.95 -4.07,-8.96 -9.08,-8.96 -5.02,0 -9.09,4.01 -9.09,8.96 0,4.95 4.07,8.96 9.09,8.96zm99.94 -8.96c0,4.95 -4.07,8.96 -9.09,8.96 -5.02,0 -9.09,-4.01 -9.09,-8.96 0,-4.95 4.07,-8.96 9.09,-8.96 5.02,0 9.09,4.01 9.09,8.96zm81.77 8.96c5.02,0 9.09,-4.01 9.09,-8.96 0,-4.95 -4.07,-8.96 -9.09,-8.96 -5.02,0 -9.08,4.01 -9.08,8.96 0,4.95 4.07,8.96 9.08,8.96zm90.86 0c-4.99,0 -9.09,-4.03 -9.09,-8.96 0,-4.93 4.09,-8.96 9.09,-8.96l0 17.93zm-1081.21 80.67c0,-4.93 -4.09,-8.96 -9.09,-8.96l0 17.92c5,0 9.09,-4.03 9.09,-8.96zm90.86 0c0,4.95 -4.07,8.96 -9.09,8.96 -5.02,0 -9.09,-4.01 -9.09,-8.96 0,-4.95 4.07,-8.96 9.09,-8.96 5.02,0 9.09,4.01 9.09,8.96zm81.77 8.96c5.02,0 9.09,-4.01 9.09,-8.96 0,-4.95 -4.07,-8.96 -9.09,-8.96 -5.02,0 -9.09,4.01 -9.09,8.96 0,4.95 4.07,8.96 9.09,8.96zm99.94 -8.96c0,4.95 -4.07,8.96 -9.09,8.96 -5.02,0 -9.09,-4.01 -9.09,-8.96 0,-4.95 4.07,-8.96 9.09,-8.96 5.02,0 9.09,4.01 9.09,8.96zm81.77 8.96c5.02,0 9.09,-4.01 9.09,-8.96 0,-4.95 -4.07,-8.96 -9.09,-8.96 -5.02,0 -9.09,4.01 -9.09,8.96 0,4.95 4.07,8.96 9.09,8.96zm99.94 -8.96c0,4.95 -4.07,8.96 -9.09,8.96 -5.02,0 -9.09,-4.01 -9.09,-8.96 0,-4.95 4.07,-8.96 9.09,-8.96 5.02,0 9.09,4.01 9.09,8.96zm81.77 8.96c5.02,0 9.08,-4.01 9.08,-8.96 0,-4.95 -4.07,-8.96 -9.08,-8.96 -5.02,0 -9.09,4.01 -9.09,8.96 0,4.95 4.07,8.96 9.09,8.96zm99.94 -8.96c0,4.95 -4.07,8.96 -9.08,8.96 -5.02,0 -9.09,-4.01 -9.09,-8.96 0,-4.95 4.07,-8.96 9.09,-8.96 5.02,0 9.08,4.01 9.08,8.96zm81.77 8.96c5.02,0 9.09,-4.01 9.09,-8.96 0,-4.95 -4.07,-8.96 -9.09,-8.96 -5.02,0 -9.08,4.01 -9.08,8.96 0,4.95 4.07,8.96 9.08,8.96zm99.95 -8.96c0,4.95 -4.07,8.96 -9.08,8.96 -5.02,0 -9.09,-4.01 -9.09,-8.96 0,-4.95 4.07,-8.96 9.09,-8.96 5.02,0 9.08,4.01 9.08,8.96zm81.77 8.96c5.02,0 9.09,-4.01 9.09,-8.96 0,-4.95 -4.07,-8.96 -9.09,-8.96 -5.02,0 -9.09,4.01 -9.09,8.96 0,4.95 4.07,8.96 9.09,8.96zm99.95 -8.96c0,4.95 -4.07,8.96 -9.09,8.96 -5.02,0 -9.08,-4.01 -9.08,-8.96 0,-4.95 4.07,-8.96 9.08,-8.96 5.02,0 9.09,4.01 9.09,8.96zm72.69 0c0,4.93 4.09,8.96 9.09,8.96l0 -17.92c-4.99,0 -9.09,4.03 -9.09,8.96zm-1081.21 89.63l0 -8.96c5,0 9.09,4.03 9.09,8.96l-9.09 0zm90.86 -8.96c-5,0 -9.09,4.03 -9.09,8.96l18.17 0c0,-4.93 -4.09,-8.96 -9.09,-8.96zm81.77 8.96c0,-4.93 4.09,-8.96 9.09,-8.96 5,0 9.09,4.03 9.09,8.96l-18.17 0zm99.94 -8.96c-5,0 -9.09,4.03 -9.09,8.96l18.17 0c0,-4.93 -4.09,-8.96 -9.09,-8.96zm81.77 8.96c0,-4.93 4.09,-8.96 9.09,-8.96 5,0 9.09,4.03 9.09,8.96l-18.17 0zm99.95 -8.96c-5,0 -9.09,4.03 -9.09,8.96l18.17 0c0,-4.93 -4.09,-8.96 -9.09,-8.96zm81.77 8.96c0,-4.93 4.09,-8.96 9.09,-8.96 5,0 9.08,4.03 9.08,8.96l-18.17 0zm99.95 -8.96c-5,0 -9.09,4.03 -9.09,8.96l18.17 0c0,-4.93 -4.09,-8.96 -9.08,-8.96zm81.77 8.96c0,-4.93 4.09,-8.96 9.08,-8.96 5,0 9.09,4.03 9.09,8.96l-18.17 0zm99.95 -8.96c-5,0 -9.09,4.03 -9.09,8.96l18.17 0c0,-4.93 -4.09,-8.96 -9.08,-8.96zm81.77 8.96c0,-4.93 4.09,-8.96 9.09,-8.96 5,0 9.09,4.03 9.09,8.96l-18.17 0zm99.95 -8.96c-5,0 -9.08,4.03 -9.08,8.96l18.17 0c0,-4.93 -4.09,-8.96 -9.09,-8.96zm81.77 8.96c0,-4.93 4.09,-8.96 9.09,-8.96l0 8.96 -9.09 0z"/>
   </g>
  </g>
  <path class="fil2" d="M464.12 385.41c0,-212.82 -174.96,-385.41 -390.7,-385.41 -25.1,0 -49.63,2.36 -73.42,6.83l0 757.17c23.78,4.46 48.32,6.83 73.42,6.83 215.74,0 390.7,-172.59 390.7,-385.41z"/>
 </g>
</svg>
