<?xml version="1.0" encoding="UTF-8"?>
<!DOCTYPE svg PUBLIC "-//W3C//DTD SVG 1.1//EN" "http://www.w3.org/Graphics/SVG/1.1/DTD/svg11.dtd">
<!-- Creator: CorelDRAW -->
<svg xmlns="http://www.w3.org/2000/svg" xml:space="preserve" width="22.956mm" height="22.3674mm" version="1.1" style="shape-rendering:geometricPrecision; text-rendering:geometricPrecision; image-rendering:optimizeQuality; fill-rule:evenodd; clip-rule:evenodd"
viewBox="0 0 1941.36 1891.58"
 xmlns:xlink="http://www.w3.org/1999/xlink"
 xmlns:xodm="http://www.corel.com/coreldraw/odm/2003">
 <defs>
  <style type="text/css">
   <![CDATA[
    .str1 {stroke:black;stroke-width:7.16;stroke-miterlimit:2.61313}
    .str0 {stroke:black;stroke-width:7.16;stroke-miterlimit:2.61313;stroke-dasharray:35.814837 35.814837}
    .fil14 {fill:none}
    .fil3 {fill:#363636}
    .fil12 {fill:#373737}
    .fil8 {fill:#39342B}
    .fil9 {fill:#3A3526}
    .fil10 {fill:#3A3733}
    .fil5 {fill:#423A27}
    .fil1 {fill:#42A66C}
    .fil0 {fill:#84E0AA}
    .fil7 {fill:#EEB123}
    .fil13 {fill:#EEE3CA}
    .fil4 {fill:#F0B12B}
    .fil6 {fill:#F9B00B}
    .fil2 {fill:#FDFDFD}
    .fil11 {fill:#FFF8CC}
   ]]>
  </style>
 </defs>
 <g id="Layer_x0020_1">
  <metadata id="CorelCorpID_0Corel-Layer"/>
  <g id="_105553208541792">
   <path class="fil0" d="M836.56 1789.12c4.67,-7.86 29.44,-30.85 39.86,-38.91 41.31,-31.95 26.42,-31.57 44.19,-19.15 -8.63,11.75 -27.93,28.71 -40.97,38.55 -21.56,16.25 -22.13,33.26 -43.08,19.51zm-53.52 -0.78c7.02,-9.14 25.43,-27.15 36.47,-35.46l81.72 -70.01c29.41,-22.6 24.48,-33.95 43.41,-23.22 1.89,10.65 -6.96,15.74 -33.87,37.98l-84.7 72.48c-42.83,31.88 -22.2,33.82 -43.02,18.23zm-490.26 -162.37c53.39,13.82 116.59,41.11 168.81,61.02 74.9,28.57 479.96,183.51 500.8,182.93l-0.25 -678.16c-23.59,10.33 -47.39,44.91 -66.78,62.61 -24.95,22.79 -45.66,42.1 -70.48,65.06 -45.13,41.73 -89.19,94.49 -136.49,131.05l-395.49 -147.59 -0.12 323.07z"/>
   <path class="fil1" d="M1142.62 1693.89c-4.74,-0.75 -106.4,-112.65 -97.19,-121.6 11.62,-11.28 64.73,65.06 84.81,85.2 39.92,40.03 13.77,34.78 12.37,36.4zm-94.73 -210.87l166.52 187.88c12.82,13.22 15.49,20.12 27.28,32.48 17.01,17.82 26.88,17.31 14.37,36.17 -17.84,-8.69 -168.42,-194.54 -193.35,-220.5 -13.73,-14.31 -27.81,-21.08 -14.82,-36.03zm-70.35 390.58l669.36 -249.69 0.61 -320.14 -394.7 146.82 -233.53 -223.7c-20.47,-25.39 -16.94,-25.61 -41.53,-34.75l-0.21 681.46z"/>
   <path class="fil2" d="M1337.02 1387.42c-24.46,9.44 -50.53,19.94 -74.56,27.33l-64.35 -63.39c21.53,-6.21 22.25,0.45 35.75,12.99 12.64,11.75 18.09,13.32 26.6,31.63 27.35,-5.63 54.86,-17.64 79.82,-27.06 22.2,-8.37 48.14,-26.52 68.69,-13.45 -15,14.85 -30.93,16.12 -71.95,31.95zm-166.08 -63.13c19.05,-9.24 19.25,-2.11 27.09,10.87 -10.54,3.23 -9.58,6.1 -18.33,1.88 -11.92,-5.75 -6.89,-8.69 -8.76,-12.74zm-180.67 -152.54c34.12,47.62 92.48,92.88 132.83,130.14 36.89,34.06 77.09,84.76 134.58,128.57 52.28,-14.71 645.39,-239.92 652.79,-247l-225.28 -200.1c-53.77,-52.97 -36.35,-34.5 -181.1,13.18 -93.27,30.73 -459.75,164.49 -513.82,175.2z"/>
   <path class="fil2" d="M58.56 1183.51c15.14,-21.89 55.75,-64.4 81.68,-58.01 -12.08,14.15 -36.68,34.85 -50.67,49.86l125.98 49.62c-20.21,16.53 -52.36,-4.46 -79.36,-14.2 -26.05,-9.4 -50.51,-20.79 -77.63,-27.26zm83.52 -74.8c9.55,-13.08 15.01,-23.02 38.03,-21.56 -3.16,6.31 -11.13,17.29 -16.52,20.69 -12.45,7.84 -7.06,5.13 -21.51,0.87zm-111.06 74.74c1.16,0.91 3.04,0.63 3.68,2.47l648.83 244.56 101.06 -91.9c12.33,-12.38 17.89,-22.17 30.68,-34.12 42.8,-39.95 98.75,-82.41 136.03,-132.71 -50.97,-9.6 -421.78,-144.46 -510.08,-173.86 -39.56,-13.18 -85.18,-31.72 -125.15,-43.51 -28.91,-8.52 -39.43,7.76 -54.73,23.58 -16.84,17.39 -30.48,24.47 -46.32,40.4 -29.18,29.34 -167.31,142.88 -184,165.09z"/>
   <path class="fil3" d="M977.76 1192.14c24.59,9.14 21.06,9.36 41.53,34.75l233.53 223.7 394.7 -146.82 -0.61 320.14 -669.36 249.69 0.21 -681.46zm-684.85 110.76l395.49 147.59c47.29,-36.56 91.36,-89.31 136.49,-131.05 24.82,-22.96 45.53,-42.27 70.48,-65.06 19.39,-17.71 43.19,-52.29 66.78,-62.61l0.25 678.16c-20.84,0.58 -425.9,-154.36 -500.8,-182.93 -52.21,-19.92 -115.42,-47.21 -168.81,-61.02l0.12 -323.07zm697.36 -131.16c54.07,-10.71 420.55,-144.47 513.82,-175.2 144.75,-47.68 127.33,-66.16 181.1,-13.18l225.28 200.1c-7.4,7.08 -600.51,232.29 -652.79,247 -57.49,-43.81 -97.69,-94.51 -134.58,-128.57 -40.36,-37.26 -98.71,-82.52 -132.83,-130.14zm-959.25 11.71c16.69,-22.22 154.81,-135.76 184,-165.09 15.84,-15.92 29.48,-23.01 46.32,-40.4 15.31,-15.81 25.82,-32.1 54.73,-23.58 39.98,11.79 85.59,30.33 125.15,43.51 88.3,29.4 459.11,164.27 510.08,173.86 -37.28,50.29 -93.23,92.75 -136.03,132.71 -12.8,11.94 -18.35,21.73 -30.68,34.12l-101.06 91.9 -648.83 -244.56c-0.64,-1.84 -2.52,-1.56 -3.68,-2.47zm967.23 -34.32c-12.41,10.64 -16.63,15.24 -40.4,9.54 -11.39,-2.74 -28.85,-10.21 -40.33,-14.25 -74.11,-26.07 -539.27,-178.07 -557.83,-196.11l-9.09 -11c1.33,-0.53 2.77,-0.99 4.12,-1.48l58.45 -17.35c25.99,-7.42 52.69,-16.18 79.05,-23.72 81.33,-23.26 451.83,-139.56 478.39,-139.58 6.3,-0.01 614.51,174.99 635.56,190.19 -95.24,26.17 -573.31,204.18 -607.91,203.75zm-114.29 -389.19l-504.98 151.45c-49.5,14.99 -94.4,20.92 -120.43,47.42 -23.7,24.11 -61.31,51.27 -87.23,75.48 -30.66,28.62 -55.44,50.43 -86.16,76.32l-85.16 78.25 139.97 56.09c44.39,16.95 94.2,37.86 137.22,50.63l-0.03 332.02c11.65,20.37 15.46,8.03 32.64,21.98 53.43,14.35 117.56,42.43 170.65,62.27 57.9,21.63 111.97,42.13 169.37,63.55l251.97 94.71c32.68,12.43 56.21,29.07 90.22,17.61 176.88,-59.68 404.77,-152.5 591.03,-221.49 23.37,-8.65 69.56,-16.53 81.63,-38.62l0 -331.31c44,-16.49 90.5,-33.7 136.65,-51.27l140.02 -56.16 -223.18 -200.35c-44.09,-39.16 -45.95,-44.01 -89.17,-57.14l-584.7 -173.86c-98.51,-28.27 -66.14,-18.16 -160.35,2.43z"/>
   <path class="fil2" d="M359.69 948.32c35.14,7.91 397.82,-108.89 459.25,-127.19 -1.1,-12.87 -6.55,-1.96 0.03,-27.64l11.74 5.83c33.42,17.18 -1.51,18.22 76.05,-4.5 28.52,-8.35 55.9,-17.33 85.14,-24.87 -0.25,45.91 -8,362.58 6.34,379.19 34.61,0.43 512.67,-177.58 607.91,-203.75 -21.05,-15.21 -629.26,-190.2 -635.56,-190.19 -26.55,0.02 -397.06,116.32 -478.39,139.58 -26.35,7.54 -53.06,16.3 -79.05,23.72l-58.45 17.35c-1.35,0.49 -2.79,0.95 -4.12,1.48l9.09 11z"/>
   <path class="fil1" d="M916.01 896.01c-18.09,-5.67 -26.9,-15.14 -34.41,-34.25 18.81,8.37 29.51,16.26 34.41,34.25zm-556.33 52.31c18.56,18.04 483.72,170.03 557.83,196.11 11.48,4.04 28.94,11.51 40.33,14.25 23.77,5.7 27.98,1.1 40.4,-9.54 -14.34,-16.61 -6.59,-333.28 -6.34,-379.19 -29.24,7.54 -56.63,16.52 -85.14,24.87 -77.56,22.72 -42.63,21.68 -76.05,4.5l-11.74 -5.83c-6.58,25.68 -1.13,14.77 -0.03,27.64 -61.43,18.3 -424.11,135.1 -459.25,127.19z"/>
   <path class="fil3" d="M1241.7 1703.38c-11.79,-12.36 -14.46,-19.26 -27.28,-32.48l-166.52 -187.88c-12.99,14.94 1.08,21.72 14.82,36.03 24.93,25.96 175.51,211.82 193.35,220.5 12.52,-18.86 2.64,-18.35 -14.37,-36.17z"/>
   <path class="fil3" d="M1198.12 1351.36l64.35 63.39c24.03,-7.39 50.1,-17.89 74.56,-27.33 41.02,-15.83 56.95,-17.1 71.95,-31.95 -20.54,-13.07 -46.49,5.07 -68.69,13.45 -24.96,9.42 -52.47,21.43 -79.82,27.06 -8.51,-18.31 -13.95,-19.88 -26.6,-31.63 -13.5,-12.54 -14.22,-19.2 -35.75,-12.99z"/>
   <path class="fil3" d="M58.56 1183.51c27.12,6.48 51.59,17.87 77.63,27.26 27,9.74 59.15,30.73 79.36,14.2l-125.98 -49.62c13.99,-15.01 38.58,-35.71 50.67,-49.86 -25.93,-6.38 -66.54,36.13 -81.68,58.01z"/>
   <path class="fil3" d="M783.05 1788.34c20.82,15.59 0.19,13.65 43.02,-18.23l84.7 -72.48c26.91,-22.24 35.76,-27.33 33.87,-37.98 -18.93,-10.73 -14,0.63 -43.41,23.22l-81.72 70.01c-11.04,8.31 -29.45,26.32 -36.47,35.46z"/>
   <path class="fil4" d="M1450.93 142.24c-6.29,24.55 -51.48,93.19 2.39,95.81 50.77,2.46 18.76,-58 13.97,-69.51 -0.74,-1.76 -4.18,-11.5 -4.25,-11.64 -11.71,-21.66 -1.02,-4.85 -12.11,-14.66z"/>
   <path class="fil5" d="M1265.34 57.63c-14.53,-12.3 -13.85,-8.58 -11.97,-33.72 15.48,-14.09 17.24,-21.08 41.07,-10.55l49.77 22.99c-10.34,8.82 -65.08,41.72 -78.87,21.29zm106.66 -21.29c-30.21,-20.97 -130.46,-69.96 -129.99,-0.18 0.48,72.3 106.17,19.82 129.99,0.18z"/>
   <path class="fil5" d="M1450.93 142.24c11.09,9.82 0.4,-6.99 12.11,14.66 0.08,0.14 3.52,9.88 4.25,11.64 4.79,11.51 36.8,71.97 -13.97,69.51 -53.87,-2.61 -8.69,-71.26 -2.39,-95.81zm-5.22 -9.58l-8.49 16.43c-12.57,43.92 -43.65,68.26 5.07,100.12 42.72,1.55 54.32,-13.18 49.66,-55.76l-39.12 -76.59 -7.12 15.8z"/>
   <path class="fil6" d="M1265.34 57.63c13.78,20.43 68.53,-12.47 78.87,-21.29l-49.77 -22.99 -27.98 10.57 -1.12 33.7z"/>
   <path class="fil3" d="M1045.44 1572.29c-9.21,8.96 92.44,120.85 97.19,121.6 1.4,-1.62 27.54,3.63 -12.37,-36.4 -20.09,-20.14 -73.19,-96.48 -84.81,-85.2z"/>
   <path class="fil7" d="M1327.69 106.42c8.61,19.59 30.55,36.6 46.28,52.29l19.24 14.92c16.62,4.77 22.85,-0.88 22.21,-18.44 -19.48,-2.65 -10.82,0.47 -24.71,-13.13 -6.88,-6.73 -9.45,-9.59 -16.2,-16.3 -13.18,-13.11 -21.86,-24.38 -37.14,-33.35l-9.67 14.01z"/>
   <path class="fil8" d="M1337.36 92.41c15.28,8.97 23.96,20.25 37.14,33.35 6.75,6.71 9.33,9.56 16.2,16.3 13.89,13.6 5.23,10.48 24.71,13.13l5.45 -11.59 -64.82 -69.24c-12.08,-5.67 1.01,-6.71 -18.06,-1.51 -4.1,13.67 -4.09,4.7 -0.63,19.55z"/>
   <path class="fil4" d="M1356.05 74.36l64.82 69.24 16.35 5.49 8.49 -16.43 -12.11 -16.55c-12.77,-4.93 -4.98,0.62 -17.46,-10.37 -4.39,-3.87 -8.52,-8.96 -13.23,-13.76 -10.71,-10.94 -14.41,-15.18 -27.12,-24.35 -5.43,1.51 -6.54,1.82 -12.17,3.69 -0.8,0.27 -3.24,2.64 -3.84,1.47 -0.59,-1.14 -2.49,1.04 -3.72,1.57z"/>
   <path class="fil4" d="M1304.56 145.5l32.38 39.3c12.33,10.98 4.79,5.49 18.34,11.53l21.98 3.79c8.52,-7.09 7.28,8.56 6.44,-12.42 -27.37,-11.26 -42.89,-46 -72,-61l-7.15 18.81z"/>
   <path class="fil8" d="M1311.71 126.69c29.11,15 44.64,49.73 72,61l9.5 -14.06 -19.24 -14.92c-15.73,-15.69 -37.67,-32.7 -46.28,-52.29 -16.97,-8.66 -5.64,-7.32 -22.12,-1.03 -0.95,12.12 1.13,11.04 6.14,21.3z"/>
   <path class="fil3" d="M836.56 1789.12c20.95,13.75 21.52,-3.26 43.08,-19.51 13.03,-9.84 32.34,-26.8 40.97,-38.55 -17.77,-12.42 -2.88,-12.8 -44.19,19.15 -10.42,8.06 -35.19,31.05 -39.86,38.91z"/>
   <path class="fil9" d="M1375.78 67.63c12.71,9.17 16.41,13.4 27.12,24.35 4.71,4.8 8.85,9.89 13.23,13.76 12.48,10.99 4.69,5.44 17.46,10.37 -4.63,-36.86 -23.76,-56.02 -61.96,-57.11l4.14 8.63z"/>
   <path class="fil10" d="M1355.29 196.33c-13.56,-6.04 -6.01,-0.55 -18.34,-11.53l-32.38 -39.3 -12.04 -5.84c3,34.77 26.29,65.41 62.77,56.67z"/>
   <path class="fil8" d="M1416.55 22.05c19.2,6.56 21.37,19.43 -5.16,17.97 -2.19,-17.41 -1.89,-8.88 5.16,-17.97zm18.49 -5.51c-48.49,-15.2 -53.35,49.08 4.16,33 3.47,-18.66 5.84,-15.73 -4.16,-33z"/>
   <path class="fil10" d="M1448.4 74.25c6.18,-17.49 -0.9,-14.36 19.08,-9.4 -3.81,20.04 -2.67,19.9 -19.08,9.4zm-3.92 -19.49c-16.81,26.71 -2.64,42 28.12,33.46 13.43,-22.33 6.58,-44.79 -28.12,-33.46z"/>
   <path class="fil11" d="M1265.34 57.63l1.12 -33.7 27.98 -10.57c-23.83,-10.53 -25.59,-3.53 -41.07,10.55 -1.89,25.13 -2.56,21.41 11.97,33.72z"/>
   <path class="fil12" d="M142.08 1108.71c14.44,4.26 9.06,6.97 21.51,-0.87 5.4,-3.4 13.36,-14.38 16.52,-20.69 -23.02,-1.46 -28.48,8.47 -38.03,21.56z"/>
   <path class="fil12" d="M1170.94 1324.29c1.87,4.06 -3.15,6.99 8.76,12.74 8.74,4.22 7.79,1.35 18.33,-1.88 -7.84,-12.98 -8.03,-20.11 -27.09,-10.87z"/>
   <path class="fil13" d="M1411.39 40.02c26.53,1.45 24.36,-11.41 5.16,-17.97 -7.05,9.09 -7.35,0.56 -5.16,17.97z"/>
   <path class="fil13" d="M1467.48 64.85c-19.98,-4.96 -12.9,-8.08 -19.08,9.4 16.41,10.49 15.26,10.64 19.08,-9.4z"/>
   <g>
    <path class="fil14 str0" d="M1281.92 190.62c-35.99,6.64 -71.98,13.28 -104.4,22.59 -32.42,9.32 -61.25,21.32 -85.5,34.72 -24.25,13.4 -43.91,28.2 -60.49,43.91 -16.59,15.7 -30.12,32.28 -41.73,49.25 -11.62,16.98 -21.31,34.33 -30.25,56.03 -8.93,21.7 -17.1,47.73 -24.92,79.33 -7.82,31.59 -15.3,68.74 -20.31,96.97 -5.02,28.24 -7.58,47.57 -8.08,62.83 -0.51,15.26 1.03,26.46 4.22,37.37 3.18,10.9 8.01,21.52 14.87,29.92 6.85,8.4 15.73,14.57 25.38,19.21 9.65,4.63 20.08,7.72 30.98,8.78 10.91,1.07 22.29,0.1 32.72,-2.7 10.42,-2.8 19.88,-7.43 28.85,-12.93 8.98,-5.51 17.47,-11.87 24.52,-20.56 7.04,-8.69 12.64,-19.7 15.92,-31.37 3.28,-11.68 4.25,-24.03 1.64,-36.29 -2.6,-12.26 -8.78,-24.42 -16.02,-34.75 -7.24,-10.33 -15.54,-18.82 -26.35,-24.9 -10.81,-6.08 -24.13,-9.75 -37.83,-11.1 -13.71,-1.35 -27.8,-0.39 -43.05,3.48 -15.26,3.86 -31.66,10.61 -46.91,18.92 -15.25,8.3 -29.34,18.14 -41.78,28.71 -12.44,10.57 -23.23,21.87 -31.92,34.89 -8.69,13.02 -15.31,27.76 -20.23,43.94 -4.92,16.19 -8.17,33.81 -9.62,49.09 -1.45,15.27 -1.12,28.2 1.85,43.71 2.97,15.52 8.58,33.62 15.47,49.6 6.89,15.98 15.06,29.85 38.29,53.99 23.23,24.13 61.52,58.52 96.06,91.65 34.54,33.12 65.34,64.97 82.56,82.38 17.22,17.41 20.86,20.39 24.51,23.37"/>
    <path class="fil14 str1" d="M1377.38 459.62c-17.62,53.13 -35.25,106.26 -52.87,159.4"/>
    <path class="fil14 str1" d="M1575.55 592.9c-50.39,26.71 -100.77,53.41 -151.16,80.11"/>
    <path class="fil14 str1" d="M1592.34 863.21c-53.01,-17.34 -106.02,-34.68 -159.03,-52.02"/>
    <path class="fil14 str1" d="M449.71 874.74c53.51,-16.52 107,-33.04 160.5,-49.57"/>
    <path class="fil14 str1" d="M466.26 602.28c49.39,27.18 98.78,54.35 148.16,81.53"/>
    <path class="fil14 str1" d="M665.16 470.59c16.9,54.89 33.79,109.78 50.69,164.67"/>
   </g>
  </g>
 </g>
</svg>
