<?xml version="1.0" encoding="UTF-8"?>
<!DOCTYPE svg PUBLIC "-//W3C//DTD SVG 1.1//EN" "http://www.w3.org/Graphics/SVG/1.1/DTD/svg11.dtd">
<!-- Creator: CorelDRAW -->
<svg xmlns="http://www.w3.org/2000/svg" xml:space="preserve" width="2.44733in" height="2.44733in" version="1.1" style="shape-rendering:geometricPrecision; text-rendering:geometricPrecision; image-rendering:optimizeQuality; fill-rule:evenodd; clip-rule:evenodd"
viewBox="0 0 3981.29 3981.29"
 xmlns:xlink="http://www.w3.org/1999/xlink"
 xmlns:xodm="http://www.corel.com/coreldraw/odm/2003">
 <defs>
  <style type="text/css">
   <![CDATA[
    .fil10 {fill:none}
    .fil5 {fill:#A0A0A0}
    .fil9 {fill:#A1A1A1}
    .fil8 {fill:#AEAEAE}
    .fil7 {fill:#AFAFAF}
    .fil3 {fill:#DADADA}
    .fil2 {fill:url(#id0)}
    .fil0 {fill:url(#id1)}
    .fil4 {fill:url(#id2)}
    .fil1 {fill:url(#id3)}
    .fil6 {fill:url(#id4)}
   ]]>
  </style>
  <linearGradient id="id0" gradientUnits="userSpaceOnUse" x1="1122" y1="3030.98" x2="1593.97" y2="2352.26">
   <stop offset="0" style="stop-opacity:1; stop-color:#CCCCCC"/>
   <stop offset="0.0352941" style="stop-opacity:1; stop-color:#CDCDCD"/>
   <stop offset="0.109804" style="stop-opacity:1; stop-color:#CFCFCF"/>
   <stop offset="0.431373" style="stop-opacity:1; stop-color:#ECECEC"/>
   <stop offset="1" style="stop-opacity:1; stop-color:white"/>
  </linearGradient>
  <linearGradient id="id1" gradientUnits="userSpaceOnUse" x1="1313.73" y1="2499.95" x2="2293.24" y2="1852.28">
   <stop offset="0" style="stop-opacity:1; stop-color:#CCCCCC"/>
   <stop offset="0.0117647" style="stop-opacity:1; stop-color:#CDCDCD"/>
   <stop offset="0.0392157" style="stop-opacity:1; stop-color:#CFCFCF"/>
   <stop offset="0.431373" style="stop-opacity:1; stop-color:#ECECEC"/>
   <stop offset="1" style="stop-opacity:1; stop-color:white"/>
  </linearGradient>
  <linearGradient id="id2" gradientUnits="userSpaceOnUse" xlink:href="#id1" x1="2397.65" y1="1991.95" x2="2642.92" y2="1469.46">
  </linearGradient>
  <linearGradient id="id3" gradientUnits="userSpaceOnUse" xlink:href="#id1" x1="1371.84" y1="3581.04" x2="1570" y2="3164.52">
  </linearGradient>
  <linearGradient id="id4" gradientUnits="userSpaceOnUse" xlink:href="#id1" x1="1389.75" y1="3310.21" x2="1587.87" y2="3021.95">
  </linearGradient>
 </defs>
 <g id="Layer_x0020_1">
  <metadata id="CorelCorpID_0Corel-Layer"/>
  <g id="_105553203970240">
   <g>
    <path class="fil0" d="M1306.75 2534.49c21.3,18.8 42.14,57.37 59.92,80.94 37.92,50.26 100.36,115.39 151.03,154.78 28.12,21.86 65.31,40.52 85,65.83 34.84,9.41 69.5,32.8 105.23,49.82 251.47,119.78 614.72,100.76 823.81,-40.58 67,-45.29 -11.72,-141.33 -40.39,-195.23l-209.22 -378.16c-27.71,-53.59 -97.38,-156.56 -87.48,-183.51 -28.39,-15.9 -74.11,-108.41 -88.1,-136.07 -84.04,-162.23 -181.39,-326.83 -270.4,-490.08 -24.72,-45.33 -44.75,-77.19 -68.81,-124.24 -22.69,-44.35 -43.83,-92.12 -108.02,-66.12 -61.41,24.88 -179.79,121.2 -215.58,156.42 -244.09,240.31 -339.08,638.74 -197.1,977.21 16.99,40.5 49.16,94.63 60.11,128.97z"/>
    <path class="fil1" d="M1235.4 3325.02l-136.43 4.49c-21.13,34.12 -30.76,176.37 4.71,209.86 40.75,11.18 553.77,8.36 589.55,-3.11 11.82,-38.85 10.79,-162.22 2,-203.59 -38.33,-11.57 -94.79,-6.68 -141.22,-6.92l-4.69 -55.71 -6.05 54.95 -307.87 0.03z"/>
    <path class="fil2" d="M1313.33 3101.82l6.48 2.27 149.61 3.18 -2.3 -200.38c40.86,-4.46 92.3,-20.75 116,-54.75 -29.85,-22.46 -66.84,-37.49 -98.06,-57.09 -32.89,-20.65 -53.86,-38.81 -84.03,-60.94 -31.56,-23.17 -123.67,-117.11 -134.55,-156.22 -1.23,1.64 -2.68,3.99 -3.38,5.13l-9.25 15.73c-2.06,4.02 -6.53,14.37 -7.38,16.49 -5,12.35 -8.94,24.34 -11.54,37.01 -7.82,38.13 -2.02,66.12 -0.42,103.55 -182.76,98.11 -139.16,124.94 -105.84,169.9 71.62,96.63 74.62,5.03 190.37,-44.06 -0.96,51.42 8.96,183.1 -5.7,220.17z"/>
    <path class="fil3" d="M155.76 617.08c-34.09,28.52 -86.73,46.6 -121.93,78.46 27.82,20.44 99.09,39.15 119.85,56.35 32.96,27.32 22.03,103.07 45.01,139.86 30.95,-12.91 53.1,-64.04 85.24,-91.96 28.55,-24.81 106.64,2.44 152.75,0.13 -2.91,-44.15 -56.82,-82.72 -64.15,-120.66 -5.74,-29.79 45.05,-98.86 48.94,-138.63l-143.62 29.28c-18.5,-17.33 -26.91,-30.24 -47.79,-47.09 -20.08,-16.2 -32.13,-27.12 -55.52,-44.4 -18.73,34.37 -15.34,94.62 -18.77,138.67z"/>
    <path class="fil4" d="M2198.7 1902.56c28.1,8.07 8.68,-5.41 28.67,21.79 5.74,7.81 14.85,25.73 20.56,35.61 13.92,24.1 29.42,43.57 35.25,74.31 70.3,-53.05 476.62,-310.49 487.18,-331.35 10.69,-102.5 -66.59,-70.79 -124.07,-38.36l-447.6 238.01z"/>
    <path class="fil5" d="M3164.79 2338.62c8.72,36.6 47.23,84.14 43.84,111.29 -4.69,37.53 -47.19,58.47 -44.44,104.49 40.07,-4.09 97.32,-23.76 124.49,-2.34 22.64,17.84 43.31,55.55 77.56,70.45 5.05,-36.22 8.36,-100.49 32.57,-120.01 27.41,-22.09 70.54,-23.01 90.84,-50.06 -22.97,-22.4 -78.94,-40.96 -92.54,-56.67 -19.94,-23.05 -15.37,-88.16 -25.64,-118.04 -37.86,13.94 -56.29,47.06 -84.22,78.93l-122.48 -18.05z"/>
    <path class="fil6" d="M1233.86 3270.15l315.47 -0.12c1.02,-107.07 12.39,-86.74 -77.73,-100.84l-151.81 0.76 0.03 -65.87 -6.48 -2.27 -3.97 67.37 -70.67 10 -4.84 90.96z"/>
    <path class="fil3" d="M2343.28 566.88l71.43 32.87c11.5,8.43 17.98,60.52 21.64,76.52 27.06,-7.74 24.72,-5.05 56.13,-57.96l90.43 5.74c-8.54,-31.1 -34.35,-55.89 -35.26,-76.65 -0.73,-16.85 20.71,-53.97 25.79,-77.52l-88.49 13.62c-12.73,-20.57 -21.9,-28.06 -38.91,-39.97 -50.99,-35.67 -3.61,47.79 -52.06,82.63 -39.77,28.6 -33.41,2.94 -50.7,40.71z"/>
    <path class="fil7" d="M1266.47 2577.9c10.88,39.11 102.99,133.05 134.55,156.22 30.17,22.13 51.13,40.29 84.03,60.94 31.22,19.6 68.2,34.63 98.06,57.09l19.6 -16.11c-19.69,-25.31 -56.89,-43.97 -85,-65.83 -50.67,-39.39 -113.11,-104.52 -151.03,-154.78 -17.78,-23.56 -38.62,-62.13 -59.92,-80.94 -19.64,18.27 -26.22,16.23 -40.28,43.41z"/>
    <path class="fil3" d="M590.82 2584.17c-7.71,-32.15 -24.76,-43.6 -26.09,-65.29 -1.26,-20.49 13.31,-37.28 19.37,-65.88 -136.5,19.68 -55.44,-6.25 -125.75,-28.53l-8.64 69.2c-26.86,16.22 -41.45,14.08 -55.47,44.01 17,5.05 48.26,12.27 59.19,28.39 8.48,12.5 5.25,15.16 9.71,30.09 8.14,27.22 -0.74,10.38 12.73,29.92 22.24,-13.01 25.7,-21.22 38.15,-46.53l76.8 4.63z"/>
    <path class="fil8" d="M2106.55 1952.32c13.99,27.66 59.72,120.18 88.1,136.07 30.13,-18.12 57.15,-42.59 88.53,-54.13 -5.83,-30.74 -21.33,-50.21 -35.25,-74.31 -5.71,-9.88 -14.81,-27.8 -20.56,-35.61 -19.98,-27.19 -0.57,-13.72 -28.67,-21.79l-92.15 49.76z"/>
    <polygon class="fil7" points="1235.4,3325.02 1543.27,3324.99 1549.32,3270.04 1233.86,3270.15 "/>
    <path class="fil8" d="M3785.98 1168.05c20.97,19.98 29.67,11.45 44.4,29.56 12.29,15.11 6.2,28.03 21.37,48.65 58.6,-38.39 -6.24,-29.67 95.72,-35.57 -7.83,-27.98 -19.31,-30.26 -20.69,-51.1 -1.24,-18.73 9.66,-29.94 13.54,-55.2 -102.35,11.13 -38.06,0.94 -103.06,-23.04 -3.9,22.11 -1.52,37.34 -11.98,53.02 -11.1,16.64 -21.16,13.47 -39.29,33.68z"/>
    <path class="fil9" d="M666.86 1448.94c16.84,78.51 1.58,25.61 -11.37,86.61 21.44,7.1 25.76,0.78 44.19,11.04 26.14,14.54 -0.44,14.19 40.33,31.86 18.54,-79.53 22.61,-26.24 58.55,-67.2 -48.77,-44.4 -25.13,-1.39 -39.05,-78.05 -21.71,7.58 -22.49,15.58 -41.12,18.71 -26.59,4.46 -17.81,-6.25 -51.53,-2.96z"/>
    <polygon class="fil8" points="1471.59,3169.2 1469.41,3107.28 1319.81,3104.09 1319.78,3169.96 "/>
   </g>
   <rect class="fil10" width="3981.29" height="3981.29"/>
  </g>
 </g>
</svg>
