<?xml version="1.0" encoding="UTF-8"?>
<!DOCTYPE svg PUBLIC "-//W3C//DTD SVG 1.1//EN" "http://www.w3.org/Graphics/SVG/1.1/DTD/svg11.dtd">
<!-- Creator: CorelDRAW -->
<svg xmlns="http://www.w3.org/2000/svg" xml:space="preserve" width="276.518mm" height="164.749mm" version="1.1" style="shape-rendering:geometricPrecision; text-rendering:geometricPrecision; image-rendering:optimizeQuality; fill-rule:evenodd; clip-rule:evenodd"
viewBox="0 0 8921.51 5315.44"
 xmlns:xlink="http://www.w3.org/1999/xlink"
 xmlns:xodm="http://www.corel.com/coreldraw/odm/2003">
 <defs>
  <style type="text/css">
   <![CDATA[
    .fil0 {fill:#050505;fill-opacity:0.101961}
   ]]>
  </style>
 </defs>
 <g id="Layer_x0020_1">
  <metadata id="CorelCorpID_0Corel-Layer"/>
  <g id="_105553234674912">
   <g>
    <path class="fil0" d="M1755.27 2190.92c11.77,28.55 30.31,45.46 24.5,72.18 -5.71,26.26 -14.02,37.85 -17.79,70.47 -3.34,28.88 8.6,40.77 -12.48,71.35 -53.04,76.96 -63.69,46.48 0.46,129.46 28,36.22 20.02,20.11 57.61,12.52 34.7,43.64 53.08,72.52 93.41,116.32l-25.16 33.35 65.78 87c28.79,-0.18 56.2,-19.96 81.9,-29.77 40.43,-15.43 42.56,-0.12 76.9,2.56 47.89,3.74 106.62,-2.86 164.3,-40.51 30.69,38.77 45.68,59.44 86.12,49.86 50.25,-11.9 53.62,-48.87 17.43,-84.34 -17.25,-1.89 -49.83,-3.48 -55.09,26.38 -1.98,11.27 0.01,26.23 16.72,22.19 27.22,-6.58 -4.8,-10.98 15.63,-24.99 21.04,-14.43 40.82,31.13 0.61,38.29 -29.18,5.2 -44.6,-13.34 -61.29,-41.51 40.65,-52.51 59.87,-64.92 69.45,-127.13 7.32,-47.49 13.86,-78.07 1.61,-137.6 -16.54,-80.4 -61.38,-159.19 -123.28,-217.21 -32.91,-30.84 -37.62,-19 -40.8,-55.76 -3.52,-40.76 -35.42,-107.41 -65.02,-124.94 -29.66,-17.57 -3.28,14.98 -52.13,64.24 -26.98,27.21 -38.51,15.23 -67.71,14.16 -32.01,-1.17 -38.24,3.39 -69.89,6.48 -35.17,3.43 -33.77,-19.16 -64.54,-32.53 -25.47,-11.07 -39.57,10.83 -60.97,34.02 -20.12,21.8 -43.52,44.45 -56.28,65.45zm403.29 51.96c-5.62,-2.74 -7.95,-9.52 -5.21,-15.14 2.75,-5.62 9.53,-7.95 15.14,-5.21l0.22 0.11c6.23,3.04 12.46,6.08 18.63,9.3 3.27,1.7 6.57,3.47 10.06,5.57 3.72,2.22 7.43,4.64 11.16,7.42 4.05,3.01 8.36,6.56 12.73,10.59 3.98,3.67 8.05,7.76 12.05,12.21 3.96,4.4 8.01,9.41 12.2,14.98 4.14,5.5 8.09,11.13 11.96,16.94 4.32,6.49 8.65,13.32 12.59,19.99 3.61,6.12 6.99,12.25 9.87,18.09 3.15,6.38 5.71,12.39 7.79,18.16 2.05,5.69 3.69,11.38 5.01,17.16 2.5,10.96 3.53,21.33 4.56,31.69l0.01 0.02c0.71,6.22 -3.75,11.84 -9.97,12.55 -6.22,0.71 -11.84,-3.76 -12.55,-9.97l-0.01 -0.18c-0.96,-9.72 -1.93,-19.44 -4.12,-29.07 -1.04,-4.54 -2.43,-9.31 -4.29,-14.47 -1.83,-5.07 -4.06,-10.3 -6.78,-15.81 -2.63,-5.33 -5.73,-10.96 -9.05,-16.59 -3.88,-6.58 -7.96,-13.02 -11.91,-18.95 -3.93,-5.9 -7.66,-11.24 -11.21,-15.95 -3.5,-4.65 -7.14,-9.11 -11.01,-13.42 -3.49,-3.88 -7.05,-7.46 -10.55,-10.68 -3.78,-3.48 -7.47,-6.52 -10.91,-9.08 -3.46,-2.57 -6.47,-4.56 -9.23,-6.21 -2.98,-1.79 -5.93,-3.37 -8.88,-4.9 -6.12,-3.19 -12.11,-6.11 -18.1,-9.04l-0.21 -0.1zm-148.24 -54.41c7.71,10.09 5.79,24.51 -4.29,32.23 -10.08,7.71 -24.51,5.79 -32.22,-4.29 -7.71,-10.08 -5.79,-24.51 4.29,-32.22 10.08,-7.71 24.51,-5.79 32.22,4.29z"/>
    <path class="fil0" d="M2450.89 2121.87c-90.4,-77.02 -194.01,63.1 -101.21,130.17 75.29,54.41 184.32,-59.35 101.21,-130.17z"/>
   </g>
   <g>
    <path class="fil0" d="M8694.5 723.57c-29.52,-9.07 -48.08,-25.96 -74.14,-17.69 -25.61,8.13 -36.38,17.48 -68.51,24.26 -28.44,6 -41.39,-4.77 -69.88,19.05 -71.7,59.96 -40.36,67.73 -128.94,11.56 -38.66,-24.51 -21.88,-18.06 -17.82,-56.2 -46.68,-30.49 -77.14,-46.12 -124.49,-82.2l-30.87 28.15 -92.73 -57.41c-2.5,-28.68 14.65,-57.82 22.04,-84.32 11.61,-41.68 -3.84,-42.38 -9.69,-76.33 -8.17,-47.34 -7.06,-106.42 25.08,-167.35 -41.46,-26.96 -63.42,-39.97 -57.64,-81.12 7.18,-51.13 43.68,-57.92 82.36,-25.19 3.49,17 8.09,49.3 -21.15,57.3 -11.04,3.02 -26.11,2.42 -23.65,-14.58 4.02,-27.71 11.38,3.77 23.43,-17.88 12.41,-22.29 -34.78,-37.75 -38.19,2.94 -2.47,29.54 17.42,43.17 47.02,57.17 48.51,-45.35 59.08,-65.64 120.13,-80.96 46.61,-11.7 76.44,-21.05 136.86,-14.38 81.59,9.01 164.2,46.33 227.72,102.58 33.77,29.9 22.41,35.7 59.31,35.45 40.91,-0.28 110.23,25.29 130.45,53.14 20.25,27.9 -14.61,4.65 -59.13,57.87 -24.59,29.39 -11.59,39.76 -7.81,68.73 4.14,31.75 0.17,38.39 0.04,70.18 -0.15,35.34 22.21,31.85 38.38,61.24 13.39,24.33 -7.11,40.41 -28.21,63.86 -19.84,22.06 -40.22,47.46 -59.95,62.12zm-89.19 -396.72c3.25,5.34 10.22,7.03 15.56,3.78 5.34,-3.25 7.03,-10.22 3.78,-15.56l-0.13 -0.2c-3.6,-5.92 -7.21,-11.84 -10.99,-17.68 -2,-3.09 -4.07,-6.22 -6.48,-9.5 -2.56,-3.49 -5.31,-6.97 -8.42,-10.42 -3.37,-3.75 -7.31,-7.71 -11.72,-11.69 -4.02,-3.63 -8.47,-7.3 -13.28,-10.87 -4.75,-3.53 -10.11,-7.1 -16.04,-10.76 -5.86,-3.61 -11.83,-7.02 -17.98,-10.33 -6.86,-3.7 -14.06,-7.38 -21.07,-10.68 -6.43,-3.03 -12.84,-5.82 -18.93,-8.15 -6.64,-2.55 -12.86,-4.54 -18.81,-6.08 -5.86,-1.52 -11.67,-2.62 -17.55,-3.39 -11.14,-1.47 -21.56,-1.54 -31.98,-1.6l-0.02 -0.01c-6.26,-0.13 -11.44,4.84 -11.57,11.1 -0.13,6.26 4.84,11.44 11.1,11.57l0.18 -0c9.77,0.06 19.54,0.11 29.32,1.4 4.62,0.61 9.5,1.56 14.8,2.93 5.21,1.35 10.63,3.08 16.37,5.28 5.55,2.13 11.44,4.69 17.36,7.47 6.91,3.26 13.71,6.71 19.97,10.1 6.24,3.37 11.91,6.59 16.92,9.68 4.95,3.05 9.74,6.27 14.39,9.72 4.19,3.11 8.08,6.33 11.61,9.51 3.82,3.44 7.19,6.83 10.05,10.01 2.88,3.2 5.14,6.02 7.04,8.61 2.06,2.81 3.9,5.59 5.71,8.39 3.75,5.8 7.21,11.49 10.68,17.18l0.12 0.2zm67.94 142.55c-10.75,-6.74 -24.94,-3.49 -31.68,7.26 -6.75,10.76 -3.49,24.94 7.26,31.69 10.75,6.74 24.94,3.49 31.68,-7.26 6.75,-10.76 3.49,-24.94 -7.26,-31.69z"/>
    <path class="fil0" d="M8698.65 24.55c85.08,82.86 -44.82,199.03 -120.21,112.86 -61.17,-69.91 41.98,-189.04 120.21,-112.86z"/>
   </g>
   <g>
    <path class="fil0" d="M714.28 5074.84c-29.52,-9.07 -48.08,-25.96 -74.14,-17.69 -25.61,8.13 -36.38,17.48 -68.51,24.26 -28.44,6 -41.39,-4.77 -69.88,19.05 -71.7,59.96 -40.36,67.73 -128.94,11.56 -38.66,-24.51 -21.88,-18.06 -17.82,-56.2 -46.68,-30.49 -77.14,-46.12 -124.49,-82.2l-30.87 28.15 -92.73 -57.41c-2.5,-28.68 14.65,-57.82 22.04,-84.32 11.61,-41.68 -3.84,-42.38 -9.69,-76.33 -8.17,-47.34 -7.06,-106.42 25.08,-167.35 -41.46,-26.96 -63.42,-39.97 -57.64,-81.12 7.18,-51.13 43.68,-57.92 82.36,-25.19 3.49,17 8.09,49.3 -21.15,57.3 -11.04,3.02 -26.11,2.42 -23.65,-14.58 4.02,-27.71 11.38,3.77 23.43,-17.88 12.41,-22.29 -34.78,-37.75 -38.19,2.94 -2.47,29.54 17.42,43.17 47.02,57.17 48.51,-45.35 59.08,-65.64 120.13,-80.96 46.61,-11.7 76.44,-21.05 136.86,-14.38 81.59,9.01 164.2,46.33 227.72,102.58 33.77,29.9 22.41,35.7 59.31,35.45 40.91,-0.28 110.23,25.29 130.45,53.14 20.25,27.9 -14.61,4.65 -59.13,57.87 -24.59,29.39 -11.59,39.76 -7.81,68.73 4.14,31.75 0.17,38.39 0.04,70.18 -0.15,35.34 22.21,31.85 38.38,61.24 13.39,24.33 -7.11,40.41 -28.21,63.86 -19.84,22.06 -40.22,47.46 -59.95,62.12zm-89.19 -396.72c3.25,5.34 10.22,7.03 15.56,3.78 5.34,-3.25 7.03,-10.22 3.78,-15.56l-0.13 -0.2c-3.6,-5.92 -7.21,-11.84 -10.99,-17.68 -2,-3.09 -4.07,-6.22 -6.48,-9.5 -2.56,-3.49 -5.31,-6.97 -8.42,-10.42 -3.37,-3.75 -7.31,-7.71 -11.72,-11.69 -4.02,-3.63 -8.47,-7.3 -13.28,-10.87 -4.75,-3.53 -10.11,-7.1 -16.04,-10.76 -5.86,-3.61 -11.83,-7.02 -17.98,-10.33 -6.86,-3.7 -14.06,-7.38 -21.07,-10.68 -6.43,-3.03 -12.84,-5.82 -18.93,-8.15 -6.64,-2.55 -12.86,-4.54 -18.81,-6.08 -5.86,-1.52 -11.67,-2.62 -17.55,-3.39 -11.14,-1.47 -21.56,-1.54 -31.98,-1.6l-0.02 -0.01c-6.26,-0.13 -11.44,4.84 -11.57,11.1 -0.13,6.26 4.84,11.44 11.1,11.57l0.18 -0c9.77,0.06 19.54,0.11 29.32,1.4 4.62,0.61 9.5,1.56 14.8,2.93 5.21,1.35 10.63,3.08 16.37,5.28 5.55,2.13 11.44,4.69 17.36,7.47 6.91,3.26 13.71,6.71 19.97,10.1 6.24,3.37 11.91,6.59 16.92,9.68 4.95,3.05 9.74,6.27 14.39,9.72 4.19,3.11 8.08,6.33 11.61,9.51 3.82,3.44 7.19,6.83 10.05,10.01 2.88,3.2 5.14,6.02 7.04,8.61 2.06,2.81 3.9,5.59 5.71,8.39 3.75,5.8 7.21,11.49 10.68,17.18l0.12 0.2zm67.94 142.55c-10.75,-6.74 -24.94,-3.49 -31.68,7.26 -6.75,10.76 -3.49,24.94 7.26,31.69 10.75,6.74 24.94,3.49 31.68,-7.26 6.75,-10.76 3.49,-24.94 -7.26,-31.69z"/>
    <path class="fil0" d="M718.43 4375.82c85.08,82.86 -44.82,199.03 -120.21,112.86 -61.17,-69.91 41.98,-189.04 120.21,-112.86z"/>
   </g>
   <g>
    <path class="fil0" d="M6858.85 2425.1c11.77,28.55 30.31,45.46 24.5,72.18 -5.71,26.26 -14.02,37.85 -17.79,70.47 -3.34,28.88 8.6,40.77 -12.48,71.35 -53.04,76.96 -63.69,46.48 0.46,129.46 28,36.22 20.02,20.11 57.61,12.52 34.7,43.64 53.08,72.52 93.41,116.32l-25.16 33.35 65.78 87c28.79,-0.18 56.2,-19.96 81.9,-29.77 40.43,-15.43 42.56,-0.12 76.9,2.56 47.89,3.74 106.62,-2.86 164.3,-40.51 30.69,38.77 45.68,59.44 86.12,49.86 50.25,-11.9 53.62,-48.87 17.43,-84.34 -17.25,-1.89 -49.83,-3.48 -55.09,26.38 -1.98,11.27 0.01,26.23 16.72,22.19 27.22,-6.58 -4.8,-10.98 15.63,-24.99 21.04,-14.43 40.82,31.13 0.61,38.29 -29.18,5.2 -44.6,-13.34 -61.29,-41.51 40.65,-52.51 59.87,-64.92 69.45,-127.13 7.32,-47.49 13.86,-78.07 1.61,-137.6 -16.54,-80.4 -61.38,-159.19 -123.28,-217.21 -32.91,-30.84 -37.62,-19 -40.8,-55.76 -3.52,-40.76 -35.42,-107.41 -65.02,-124.94 -29.66,-17.57 -3.28,14.98 -52.13,64.24 -26.98,27.21 -38.51,15.23 -67.71,14.16 -32.01,-1.17 -38.24,3.39 -69.89,6.48 -35.17,3.43 -33.77,-19.16 -64.54,-32.53 -25.47,-11.07 -39.57,10.83 -60.97,34.02 -20.12,21.8 -43.52,44.45 -56.28,65.45zm403.29 51.96c-5.62,-2.74 -7.95,-9.52 -5.21,-15.14 2.75,-5.62 9.53,-7.95 15.14,-5.21l0.22 0.11c6.23,3.04 12.46,6.08 18.63,9.3 3.27,1.7 6.57,3.47 10.06,5.57 3.72,2.22 7.43,4.64 11.16,7.42 4.05,3.01 8.36,6.56 12.73,10.59 3.98,3.67 8.05,7.76 12.05,12.21 3.96,4.4 8.01,9.41 12.2,14.98 4.14,5.5 8.09,11.13 11.96,16.94 4.32,6.49 8.65,13.32 12.59,19.99 3.61,6.12 6.99,12.25 9.87,18.09 3.15,6.38 5.71,12.39 7.79,18.16 2.05,5.69 3.69,11.38 5.01,17.16 2.5,10.96 3.53,21.33 4.56,31.69l0.01 0.02c0.71,6.22 -3.75,11.84 -9.97,12.55 -6.22,0.71 -11.84,-3.76 -12.55,-9.97l-0.01 -0.18c-0.96,-9.72 -1.93,-19.44 -4.12,-29.07 -1.04,-4.54 -2.43,-9.31 -4.29,-14.47 -1.83,-5.07 -4.06,-10.3 -6.78,-15.81 -2.63,-5.33 -5.73,-10.96 -9.05,-16.59 -3.88,-6.58 -7.96,-13.02 -11.91,-18.95 -3.93,-5.9 -7.66,-11.24 -11.21,-15.95 -3.5,-4.65 -7.14,-9.11 -11.01,-13.42 -3.49,-3.88 -7.05,-7.46 -10.55,-10.68 -3.78,-3.48 -7.47,-6.52 -10.91,-9.08 -3.46,-2.57 -6.47,-4.56 -9.23,-6.21 -2.98,-1.79 -5.93,-3.37 -8.88,-4.9 -6.12,-3.19 -12.11,-6.11 -18.1,-9.04l-0.21 -0.1zm-148.24 -54.41c7.71,10.09 5.79,24.51 -4.29,32.23 -10.08,7.71 -24.51,5.79 -32.22,-4.29 -7.71,-10.08 -5.79,-24.51 4.29,-32.22 10.08,-7.71 24.51,-5.79 32.22,4.29z"/>
    <path class="fil0" d="M7554.47 2356.05c-90.4,-77.02 -194.01,63.1 -101.21,130.17 75.29,54.41 184.32,-59.35 101.21,-130.17z"/>
   </g>
   <g>
    <path class="fil0" d="M725.46 354.68c-11.77,28.55 -30.31,45.46 -24.5,72.18 5.71,26.26 14.02,37.85 17.79,70.47 3.34,28.88 -8.6,40.77 12.48,71.35 53.04,76.96 63.69,46.48 -0.46,129.46 -28,36.22 -20.02,20.11 -57.61,12.52 -34.7,43.64 -53.08,72.52 -93.41,116.32l25.16 33.35 -65.78 87c-28.79,-0.18 -56.2,-19.96 -81.9,-29.77 -40.43,-15.43 -42.56,-0.12 -76.9,2.56 -47.89,3.74 -106.62,-2.86 -164.3,-40.51 -30.69,38.77 -45.68,59.44 -86.12,49.86 -50.25,-11.9 -53.62,-48.87 -17.43,-84.34 17.25,-1.89 49.83,-3.48 55.09,26.38 1.98,11.27 -0.01,26.23 -16.72,22.19 -27.22,-6.58 4.8,-10.98 -15.63,-24.99 -21.04,-14.43 -40.82,31.13 -0.61,38.29 29.18,5.2 44.6,-13.34 61.29,-41.51 -40.65,-52.51 -59.87,-64.92 -69.45,-127.13 -7.32,-47.49 -13.86,-78.07 -1.61,-137.6 16.54,-80.4 61.38,-159.19 123.28,-217.21 32.91,-30.84 37.62,-19 40.8,-55.76 3.52,-40.76 35.42,-107.41 65.02,-124.94 29.66,-17.57 3.28,14.98 52.13,64.24 26.98,27.21 38.51,15.23 67.71,14.16 32.01,-1.17 38.24,3.39 69.89,6.48 35.17,3.43 33.77,-19.16 64.54,-32.53 25.47,-11.07 39.57,10.83 60.97,34.02 20.12,21.8 43.52,44.45 56.28,65.45zm-403.29 51.96c5.62,-2.74 7.95,-9.52 5.21,-15.14 -2.75,-5.62 -9.53,-7.95 -15.14,-5.21l-0.22 0.11c-6.23,3.04 -12.46,6.08 -18.63,9.3 -3.27,1.7 -6.57,3.47 -10.06,5.57 -3.72,2.22 -7.43,4.64 -11.16,7.42 -4.05,3.01 -8.36,6.56 -12.73,10.59 -3.98,3.67 -8.05,7.76 -12.05,12.21 -3.96,4.4 -8.01,9.41 -12.2,14.98 -4.14,5.5 -8.09,11.13 -11.96,16.94 -4.32,6.49 -8.65,13.32 -12.59,19.99 -3.61,6.12 -6.99,12.25 -9.87,18.09 -3.15,6.38 -5.71,12.39 -7.79,18.16 -2.05,5.69 -3.69,11.38 -5.01,17.16 -2.5,10.96 -3.53,21.33 -4.56,31.69l-0.01 0.02c-0.71,6.22 3.75,11.84 9.97,12.55 6.22,0.71 11.84,-3.76 12.55,-9.97l0.01 -0.18c0.96,-9.72 1.93,-19.44 4.12,-29.07 1.04,-4.54 2.43,-9.31 4.29,-14.47 1.83,-5.07 4.06,-10.3 6.78,-15.81 2.63,-5.33 5.73,-10.96 9.05,-16.59 3.88,-6.58 7.96,-13.02 11.91,-18.95 3.93,-5.9 7.66,-11.24 11.21,-15.95 3.5,-4.65 7.14,-9.11 11.01,-13.42 3.49,-3.88 7.05,-7.46 10.55,-10.68 3.78,-3.48 7.47,-6.52 10.91,-9.08 3.46,-2.57 6.47,-4.56 9.23,-6.21 2.98,-1.79 5.93,-3.37 8.88,-4.9 6.12,-3.19 12.11,-6.11 18.1,-9.04l0.21 -0.1zm148.24 -54.41c-7.71,10.09 -5.79,24.51 4.29,32.23 10.08,7.71 24.51,5.79 32.22,-4.29 7.71,-10.08 5.79,-24.51 -4.29,-32.22 -10.08,-7.71 -24.51,-5.79 -32.22,4.29z"/>
    <path class="fil0" d="M29.85 285.64c90.4,-77.02 194.01,63.1 101.21,130.17 -75.29,54.41 -184.32,-59.35 -101.21,-130.17z"/>
   </g>
   <g>
    <path class="fil0" d="M8798.93 5240.19c-29.52,-9.07 -48.08,-25.96 -74.14,-17.69 -25.61,8.13 -36.38,17.48 -68.51,24.26 -28.44,6 -41.39,-4.77 -69.88,19.05 -71.7,59.96 -40.36,67.73 -128.94,11.56 -38.66,-24.51 -21.88,-18.06 -17.82,-56.2 -46.68,-30.49 -77.14,-46.12 -124.49,-82.2l-30.87 28.15 -92.73 -57.41c-2.5,-28.68 14.65,-57.82 22.04,-84.32 11.61,-41.68 -3.84,-42.38 -9.69,-76.33 -8.17,-47.34 -7.06,-106.42 25.08,-167.35 -41.46,-26.96 -63.42,-39.97 -57.64,-81.12 7.18,-51.13 43.68,-57.92 82.36,-25.19 3.49,17 8.09,49.3 -21.15,57.3 -11.04,3.02 -26.11,2.42 -23.65,-14.58 4.02,-27.71 11.38,3.77 23.43,-17.88 12.41,-22.29 -34.78,-37.75 -38.19,2.94 -2.47,29.54 17.42,43.17 47.02,57.17 48.51,-45.35 59.08,-65.64 120.13,-80.96 46.61,-11.7 76.44,-21.05 136.86,-14.38 81.59,9.01 164.2,46.33 227.72,102.58 33.77,29.9 22.41,35.7 59.31,35.45 40.91,-0.28 110.23,25.29 130.45,53.14 20.25,27.9 -14.61,4.65 -59.13,57.87 -24.59,29.39 -11.59,39.76 -7.81,68.73 4.14,31.75 0.17,38.39 0.04,70.18 -0.15,35.34 22.21,31.85 38.38,61.24 13.39,24.33 -7.11,40.41 -28.21,63.86 -19.84,22.06 -40.22,47.46 -59.95,62.12zm-89.19 -396.72c3.25,5.34 10.22,7.03 15.56,3.78 5.34,-3.25 7.03,-10.22 3.78,-15.56l-0.13 -0.2c-3.6,-5.92 -7.21,-11.84 -10.99,-17.68 -2,-3.09 -4.07,-6.22 -6.48,-9.5 -2.56,-3.49 -5.31,-6.97 -8.42,-10.42 -3.37,-3.75 -7.31,-7.71 -11.72,-11.69 -4.02,-3.63 -8.47,-7.3 -13.28,-10.87 -4.75,-3.53 -10.11,-7.1 -16.04,-10.76 -5.86,-3.61 -11.83,-7.02 -17.98,-10.33 -6.86,-3.7 -14.06,-7.38 -21.07,-10.68 -6.43,-3.03 -12.84,-5.82 -18.93,-8.15 -6.64,-2.55 -12.86,-4.54 -18.81,-6.08 -5.86,-1.52 -11.67,-2.62 -17.55,-3.39 -11.14,-1.47 -21.56,-1.54 -31.98,-1.6l-0.02 -0.01c-6.26,-0.13 -11.44,4.84 -11.57,11.1 -0.13,6.26 4.84,11.44 11.1,11.57l0.18 -0c9.77,0.06 19.54,0.11 29.32,1.4 4.62,0.61 9.5,1.56 14.8,2.93 5.21,1.35 10.63,3.08 16.37,5.28 5.55,2.13 11.44,4.69 17.36,7.47 6.91,3.26 13.71,6.71 19.97,10.1 6.24,3.37 11.91,6.59 16.92,9.68 4.95,3.05 9.74,6.27 14.39,9.72 4.19,3.11 8.08,6.33 11.61,9.51 3.82,3.44 7.19,6.83 10.05,10.01 2.88,3.2 5.14,6.02 7.04,8.61 2.06,2.81 3.9,5.59 5.71,8.39 3.75,5.8 7.21,11.49 10.68,17.18l0.12 0.2zm67.94 142.55c-10.75,-6.74 -24.94,-3.49 -31.68,7.26 -6.75,10.76 -3.49,24.94 7.26,31.69 10.75,6.74 24.94,3.49 31.68,-7.26 6.75,-10.76 3.49,-24.94 -7.26,-31.69z"/>
    <path class="fil0" d="M8803.08 4541.16c85.08,82.86 -44.82,199.03 -120.21,112.86 -61.17,-69.91 41.98,-189.04 120.21,-112.86z"/>
   </g>
  </g>
 </g>
</svg>
