<?xml version="1.0" encoding="UTF-8"?>
<!DOCTYPE svg PUBLIC "-//W3C//DTD SVG 1.1//EN" "http://www.w3.org/Graphics/SVG/1.1/DTD/svg11.dtd">
<!-- Creator: CorelDRAW -->
<svg xmlns="http://www.w3.org/2000/svg" xml:space="preserve" width="1.62525in" height="6.54657in" version="1.1" style="shape-rendering:geometricPrecision; text-rendering:geometricPrecision; image-rendering:optimizeQuality; fill-rule:evenodd; clip-rule:evenodd"
viewBox="0 0 496.1 1998.32"
 xmlns:xlink="http://www.w3.org/1999/xlink"
 xmlns:xodm="http://www.corel.com/coreldraw/odm/2003">
 <defs>
  <style type="text/css">
   <![CDATA[
    .fil4 {fill:url(#id0)}
    .fil1 {fill:url(#id1)}
    .fil19 {fill:url(#id2)}
    .fil3 {fill:url(#id3)}
    .fil17 {fill:url(#id4)}
    .fil14 {fill:url(#id5)}
    .fil13 {fill:url(#id6)}
    .fil16 {fill:url(#id7)}
    .fil9 {fill:url(#id8)}
    .fil6 {fill:url(#id9)}
    .fil8 {fill:url(#id10)}
    .fil15 {fill:url(#id11)}
    .fil7 {fill:url(#id12)}
    .fil2 {fill:url(#id13)}
    .fil0 {fill:url(#id14)}
    .fil10 {fill:url(#id15)}
    .fil12 {fill:url(#id16)}
    .fil18 {fill:url(#id17)}
    .fil11 {fill:url(#id18)}
    .fil5 {fill:url(#id19)}
   ]]>
  </style>
  <linearGradient id="id0" gradientUnits="userSpaceOnUse" x1="-1487.61" y1="412.68" x2="-1481.86" y2="424.17">
   <stop offset="0" style="stop-opacity:1; stop-color:#EBFFF2"/>
   <stop offset="1" style="stop-opacity:1; stop-color:#F4FFF7"/>
  </linearGradient>
  <linearGradient id="id1" gradientUnits="userSpaceOnUse" xlink:href="#id0" x1="-1577.81" y1="412.68" x2="-1572.07" y2="424.17">
  </linearGradient>
  <linearGradient id="id2" gradientUnits="userSpaceOnUse" xlink:href="#id0" x1="-1127.13" y1="412.68" x2="-1121.39" y2="424.17">
  </linearGradient>
  <linearGradient id="id3" gradientUnits="userSpaceOnUse" xlink:href="#id0" x1="-1516.91" y1="412.68" x2="-1511.17" y2="424.17">
  </linearGradient>
  <linearGradient id="id4" gradientUnits="userSpaceOnUse" xlink:href="#id0" x1="-1167.6" y1="412.68" x2="-1161.85" y2="424.17">
  </linearGradient>
  <linearGradient id="id5" gradientUnits="userSpaceOnUse" xlink:href="#id0" x1="-1232.31" y1="412.68" x2="-1226.56" y2="424.17">
  </linearGradient>
  <linearGradient id="id6" gradientUnits="userSpaceOnUse" xlink:href="#id0" x1="-1255.01" y1="412.68" x2="-1249.26" y2="424.17">
  </linearGradient>
  <linearGradient id="id7" gradientUnits="userSpaceOnUse" xlink:href="#id0" x1="-1188.62" y1="412.68" x2="-1182.88" y2="424.17">
  </linearGradient>
  <linearGradient id="id8" gradientUnits="userSpaceOnUse" xlink:href="#id0" x1="-1351.82" y1="412.68" x2="-1346.07" y2="424.17">
  </linearGradient>
  <linearGradient id="id9" gradientUnits="userSpaceOnUse" xlink:href="#id0" x1="-1431.2" y1="412.68" x2="-1425.46" y2="424.17">
  </linearGradient>
  <linearGradient id="id10" gradientUnits="userSpaceOnUse" xlink:href="#id0" x1="-1377.61" y1="412.68" x2="-1371.86" y2="424.17">
  </linearGradient>
  <linearGradient id="id11" gradientUnits="userSpaceOnUse" xlink:href="#id0" x1="-1210.19" y1="412.68" x2="-1204.44" y2="424.17">
  </linearGradient>
  <linearGradient id="id12" gradientUnits="userSpaceOnUse" xlink:href="#id0" x1="-1404.06" y1="412.68" x2="-1398.32" y2="424.17">
  </linearGradient>
  <linearGradient id="id13" gradientUnits="userSpaceOnUse" xlink:href="#id0" x1="-1546.97" y1="412.68" x2="-1541.23" y2="424.17">
  </linearGradient>
  <linearGradient id="id14" gradientUnits="userSpaceOnUse" xlink:href="#id0" x1="-1609.45" y1="412.68" x2="-1603.7" y2="424.17">
  </linearGradient>
  <linearGradient id="id15" gradientUnits="userSpaceOnUse" xlink:href="#id0" x1="-1326.68" y1="412.68" x2="-1320.93" y2="424.17">
  </linearGradient>
  <linearGradient id="id16" gradientUnits="userSpaceOnUse" xlink:href="#id0" x1="-1278.29" y1="412.68" x2="-1272.54" y2="424.17">
  </linearGradient>
  <linearGradient id="id17" gradientUnits="userSpaceOnUse" xlink:href="#id0" x1="-1147.11" y1="412.68" x2="-1141.36" y2="424.17">
  </linearGradient>
  <linearGradient id="id18" gradientUnits="userSpaceOnUse" xlink:href="#id0" x1="-1302.18" y1="412.68" x2="-1296.43" y2="424.17">
  </linearGradient>
  <linearGradient id="id19" gradientUnits="userSpaceOnUse" xlink:href="#id0" x1="-1459.05" y1="412.68" x2="-1453.3" y2="424.17">
  </linearGradient>
 </defs>
 <g id="Layer_x0020_1">
  <metadata id="CorelCorpID_0Corel-Layer"/>
  <g id="_105553156840192">
   <path class="fil0" d="M496.1 0c-301.43,229.07 -496.1,591.36 -496.1,999.16 0,407.8 194.67,770.09 496.1,999.16l0 -7.94c-297.74,-228.07 -489.8,-587.19 -489.8,-991.22 0,-404.03 192.06,-763.15 489.8,-991.22l0 -7.94z"/>
   <path class="fil1" d="M496.1 39.99c-282.92,223.93 -464.47,570.33 -464.47,959.17 0,388.83 181.55,735.24 464.47,959.17l0 -7.89c-279.31,-222.89 -458.32,-566.16 -458.32,-951.28 0,-385.12 179.02,-728.39 458.32,-951.28l0 -7.89z"/>
   <path class="fil2" d="M496.1 79.59c-264.83,218.59 -433.63,549.37 -433.63,919.57 0,370.21 168.8,700.99 433.63,919.57l0 -7.85c-261.29,-217.51 -427.64,-545.18 -427.64,-911.73 0,-366.55 166.35,-694.22 427.64,-911.73l0 -7.85z"/>
   <path class="fil3" d="M496.1 118.95c-247.11,213.04 -403.57,528.34 -403.57,880.21 0,351.86 156.45,667.17 403.57,880.21l0 -7.72c-243.67,-211.92 -397.73,-524.2 -397.73,-872.49 0,-348.29 154.06,-660.58 397.73,-872.49l0 -7.72z"/>
   <path class="fil4" d="M496.1 158.04c-229.79,207.26 -374.26,507.3 -374.26,841.12 0,333.82 144.47,633.87 374.26,841.12l0 -7.63c-226.44,-206.09 -368.57,-503.19 -368.57,-833.49 0,-330.3 142.14,-627.4 368.57,-833.49l0 -7.63z"/>
   <path class="fil5" d="M496.1 196.92c-212.86,201.23 -345.7,486.21 -345.7,802.24 0,316.04 132.85,601.02 345.7,802.24l0 -7.6c-209.58,-200.01 -340.16,-482.08 -340.16,-794.65 0,-312.57 130.58,-594.64 340.16,-794.65l0 -7.6z"/>
   <path class="fil6" d="M496.1 235.67c-196.29,194.92 -317.86,465 -317.86,763.49 0,298.49 121.57,568.57 317.86,763.49l0 -7.61c-193.08,-193.65 -312.45,-460.82 -312.45,-755.88 0,-295.06 119.38,-562.23 312.45,-755.88l0 -7.61z"/>
   <path class="fil7" d="M496.1 274.39c-180.09,188.33 -290.72,443.63 -290.72,724.77 0,281.15 110.63,536.45 290.72,724.77l0 -7.68c-176.92,-186.98 -285.45,-439.35 -285.45,-717.09 0,-277.74 108.53,-530.11 285.45,-717.09l0 -7.68z"/>
   <path class="fil8" d="M496.1 313.23c-164.22,181.39 -264.26,421.97 -264.26,685.93 0,263.96 100.04,504.54 264.26,685.93l0 -7.74c-161.11,-179.98 -259.13,-417.62 -259.13,-678.19 0,-260.57 98.01,-498.21 259.13,-678.19l0 -7.74z"/>
   <path class="fil9" d="M496.1 352.33c-148.67,174.09 -238.47,399.95 -238.47,646.83 0,246.87 89.81,472.74 238.47,646.83l0 -7.76c-145.64,-172.6 -233.47,-395.56 -233.47,-639.07 0,-243.51 87.83,-466.47 233.47,-639.07l0 -7.76z"/>
   <path class="fil10" d="M496.1 391.77c-133.45,166.36 -213.34,377.53 -213.34,607.39 0,229.86 79.88,441.04 213.34,607.39l0 -7.78c-130.5,-164.78 -208.45,-373.09 -208.45,-599.61 0,-226.52 77.95,-434.83 208.45,-599.61l0 -7.78z"/>
   <path class="fil11" d="M496.1 431.66c-118.58,158.15 -188.83,354.62 -188.83,567.51 0,212.88 70.26,409.35 188.83,567.51l0 -8.03c-115.66,-156.46 -184.07,-349.97 -184.07,-559.48 0,-209.51 68.42,-403.01 184.07,-559.48l0 -8.03z"/>
   <path class="fil12" d="M496.1 472.53c-103.95,149.36 -164.95,330.86 -164.95,526.63 0,195.77 61,377.27 164.95,526.63l0 -8.14c-101.11,-147.56 -160.31,-326.1 -160.31,-518.49 0,-192.39 59.2,-370.93 160.31,-518.49l0 -8.14z"/>
   <path class="fil13" d="M496.1 514.33c-89.67,139.92 -141.66,306.31 -141.66,484.84 0,178.53 51.99,344.91 141.66,484.84l0 -8.54c-86.85,-137.95 -137.14,-301.24 -137.14,-476.3 0,-175.05 50.29,-338.34 137.14,-476.3l0 -8.54z"/>
   <path class="fil14" d="M496.1 557.91c-75.61,129.62 -118.97,280.37 -118.97,441.25 0,160.89 43.36,311.63 118.97,441.25l0 -8.77c-72.88,-127.49 -114.56,-275.12 -114.56,-432.49 0,-157.37 41.67,-305 114.56,-432.49l0 -8.77z"/>
   <path class="fil15" d="M496.1 603.66c-61.83,118.28 -96.84,252.79 -96.84,395.5 0,142.71 35.01,277.23 96.84,395.5l0 -9.27c-59.17,-115.91 -92.55,-247.17 -92.55,-386.23 0,-139.06 33.38,-270.33 92.55,-386.23l0 -9.27z"/>
   <path class="fil16" d="M496.1 652.63c-48.31,105.53 -75.28,222.88 -75.28,346.53 0,123.65 26.96,241 75.28,346.53l0 -10.21c-45.67,-102.8 -71.09,-216.58 -71.09,-336.31 0,-119.73 25.42,-233.52 71.09,-336.31l0 -10.21z"/>
   <path class="fil17" d="M496.1 706.79c-35.01,90.73 -54.26,189.3 -54.26,292.38 0,103.08 19.24,201.65 54.26,292.38l0 -11.49c-32.43,-87.49 -50.17,-182.11 -50.17,-280.88 0,-98.77 17.75,-193.39 50.17,-280.88l0 -11.49z"/>
   <path class="fil18" d="M496.1 769.85c-21.93,72.59 -33.76,149.56 -33.76,229.31 0,79.75 11.84,156.72 33.76,229.31l0 -14c-19.4,-68.44 -29.78,-140.66 -29.78,-215.31 0,-74.65 10.39,-146.88 29.78,-215.31l0 -14z"/>
   <path class="fil19" d="M496.1 853.47c-9.01,47.19 -13.79,95.88 -13.79,145.69 0,49.81 4.78,98.5 13.79,145.69l0 -22.33c-6.49,-40.17 -9.91,-81.36 -9.91,-123.36 0,-42 3.42,-83.19 9.91,-123.36l0 -22.33z"/>
  </g>
 </g>
</svg>
