<?xml version="1.0" encoding="UTF-8"?>
<!DOCTYPE svg PUBLIC "-//W3C//DTD SVG 1.1//EN" "http://www.w3.org/Graphics/SVG/1.1/DTD/svg11.dtd">
<!-- Creator: CorelDRAW -->
<svg xmlns="http://www.w3.org/2000/svg" xml:space="preserve" width="63.1953mm" height="40.3804mm" version="1.1" style="shape-rendering:geometricPrecision; text-rendering:geometricPrecision; image-rendering:optimizeQuality; fill-rule:evenodd; clip-rule:evenodd"
viewBox="0 0 211.57 135.19"
 xmlns:xlink="http://www.w3.org/1999/xlink"
 xmlns:xodm="http://www.corel.com/coreldraw/odm/2003">
 <defs>
  <style type="text/css">
   <![CDATA[
    .fil3 {fill:none}
    .fil8 {fill:#030000}
    .fil6 {fill:#33DC76}
    .fil7 {fill:#3A9960}
    .fil0 {fill:#96E0B5}
    .fil5 {fill:black;fill-rule:nonzero}
    .fil4 {fill:#33DC76;fill-opacity:0.200000}
    .fil2 {fill:#348758;fill-opacity:0.501961}
    .fil1 {fill:#4B996D;fill-opacity:0.501961}
   ]]>
  </style>
   <clipPath id="id0">
    <path d="M10.5 0l190.58 0c5.77,0 10.5,4.72 10.5,10.5l0 114.2c0,5.77 -4.72,10.5 -10.5,10.5l-190.58 0c-5.77,0 -10.5,-4.72 -10.5,-10.5l0 -114.2c0,-5.77 4.72,-10.5 10.5,-10.5z"/>
   </clipPath>
 </defs>
 <g id="Layer_x0020_1">
  <metadata id="CorelCorpID_0Corel-Layer"/>
  <path class="fil0" d="M10.5 0l190.58 0c5.77,0 10.5,4.72 10.5,10.5l0 114.2c0,5.77 -4.72,10.5 -10.5,10.5l-190.58 0c-5.77,0 -10.5,-4.72 -10.5,-10.5l0 -114.2c0,-5.77 4.72,-10.5 10.5,-10.5z"/>
  <g style="clip-path:url(#id0)">
   <g id="_105553314885984">
    <path id="_1" class="fil1" d="M35.99 -5.54c42.3,0 76.59,34.29 76.59,76.59 0,42.3 -34.29,76.59 -76.59,76.59 -42.3,0 -76.59,-34.29 -76.59,-76.59 0,-42.3 34.29,-76.59 76.59,-76.59z"/>
    <path class="fil2" d="M109.62 60.59c36.83,0 66.68,29.85 66.68,66.68 0,36.83 -29.85,66.68 -66.68,66.68 -36.83,0 -66.68,-29.85 -66.68,-66.68 0,-36.83 29.85,-66.68 66.68,-66.68z"/>
   </g>
  </g>
  <path class="fil3" d="M10.5 0l190.58 0c5.77,0 10.5,4.72 10.5,10.5l0 114.2c0,5.77 -4.72,10.5 -10.5,10.5l-190.58 0c-5.77,0 -10.5,-4.72 -10.5,-10.5l0 -114.2c0,-5.77 4.72,-10.5 10.5,-10.5z"/>
  <g id="_105553314888768">
   <path class="fil4" d="M13.83 8.5l14.84 0c2.38,0 4.33,1.95 4.33,4.33l0 14.84c0,2.38 -1.95,4.33 -4.33,4.33l-14.84 0c-2.38,0 -4.33,-1.95 -4.33,-4.33l0 -14.84c0,-2.38 1.95,-4.33 4.33,-4.33z"/>
   <g>
    <path class="fil5" d="M21.14 26.6c3.51,0 6.36,-2.8 6.36,-6.25 0,-3.45 -2.85,-6.25 -6.36,-6.25 -3.51,0 -6.36,2.8 -6.36,6.25 0,3.45 2.85,6.25 6.36,6.25z"/>
    <polygon class="fil6" points="19.6,14.01 19.7,14 19.8,13.99 19.9,13.98 20,13.98 20.1,13.98 20.2,13.98 20.3,13.98 20.4,13.99 20.51,14 20.61,14.01 20.71,14.02 20.82,14.03 20.92,14.05 21.02,14.07 21.13,14.09 21.23,14.11 21.33,14.13 21.43,14.16 21.53,14.18 21.63,14.21 21.72,14.24 21.82,14.27 21.91,14.3 22.01,14.34 22.1,14.37 22.19,14.41 22.27,14.44 22.36,14.48 22.44,14.52 22.52,14.56 22.6,14.6 22.68,14.64 22.72,14.66 22.76,14.68 22.8,14.7 22.83,14.73 22.87,14.75 22.91,14.77 22.95,14.79 22.98,14.82 23.02,14.84 23.06,14.86 23.09,14.89 23.13,14.91 23.16,14.93 23.2,14.96 23.23,14.98 23.27,15.01 23.3,15.03 23.34,15.05 23.37,15.08 23.4,15.1 23.43,15.13 23.47,15.15 23.5,15.18 23.53,15.2 23.56,15.23 23.59,15.25 23.62,15.28 23.65,15.31 23.68,15.33 23.71,15.36 23.74,15.38 23.77,15.41 23.8,15.44 23.83,15.47 23.86,15.5 23.89,15.52 23.91,15.55 23.94,15.58 23.97,15.6 23.99,15.63 24.02,15.65 24.04,15.67 24.06,15.7 24.08,15.72 24.11,15.75 24.13,15.77 24.15,15.79 24.17,15.82 24.19,15.84 24.21,15.86 24.23,15.89 24.25,15.91 24.27,15.93 24.29,15.96 24.31,15.99 24.33,16.01 24.35,16.04 24.38,16.07 24.4,16.09 24.42,16.12 24.44,16.15 24.46,16.18 24.49,16.21 24.51,16.25 24.52,16.26 24.52,16.26 24.53,16.27 24.54,16.28 24.54,16.29 24.55,16.3 24.55,16.31 24.56,16.32 24.6,16.39 24.69,16.5 24.78,16.6 24.87,16.71 24.96,16.83 25.04,16.94 25.12,17.05 25.2,17.17 25.28,17.29 25.35,17.41 25.42,17.53 25.49,17.66 25.55,17.78 25.61,17.91 25.67,18.04 25.72,18.17 25.77,18.31 25.82,18.44 25.86,18.58 25.9,18.71 25.94,18.85 25.97,18.99 26,19.14 26.03,19.28 26.05,19.42 26.07,19.57 26.08,19.72 26.09,19.87 26.09,20.02 26.1,20.17 26.09,20.32 26.08,20.47 26.07,20.63 26.05,20.82 26.03,21 25.99,21.19 25.95,21.37 25.91,21.55 25.86,21.73 25.8,21.91 25.74,22.08 25.68,22.25 25.61,22.42 25.53,22.59 25.45,22.75 25.36,22.91 25.27,23.07 25.17,23.22 25.07,23.37 24.96,23.52 24.85,23.66 24.74,23.8 24.62,23.93 24.5,24.07 24.37,24.19 24.24,24.32 24.11,24.44 23.97,24.55 23.83,24.66 23.68,24.77 23.53,24.87 23.38,24.96 23.23,25.05 23.07,25.14 22.91,25.22 22.88,25.23 22.84,25.25 22.81,25.26 22.78,25.28 22.75,25.29 22.72,25.31 22.69,25.32 22.65,25.33 22.62,25.35 22.59,25.36 22.56,25.37 22.53,25.39 22.5,25.4 22.46,25.41 22.43,25.42 22.4,25.43 22.37,25.45 22.33,25.46 22.3,25.47 22.27,25.48 22.24,25.49 22.2,25.5 22.17,25.51 22.13,25.53 22.1,25.54 22.07,25.55 22.03,25.56 22,25.57 21.96,25.58 21.92,25.59 21.89,25.6 21.85,25.61 21.78,25.63 21.7,25.65 21.63,25.67 21.55,25.68 21.47,25.7 21.39,25.71 21.31,25.73 21.23,25.74 21.15,25.75 21.07,25.76 20.99,25.77 20.91,25.77 20.82,25.78 20.74,25.79 20.66,25.79 20.57,25.79 20.49,25.79 20.4,25.79 20.32,25.79 20.23,25.79 20.15,25.79 20.07,25.78 19.98,25.78 19.9,25.77 19.81,25.76 19.73,25.75 19.65,25.74 19.56,25.73 19.48,25.71 19.4,25.7 19.32,25.68 19.24,25.67 19.14,25.64 19.04,25.62 18.95,25.6 18.86,25.57 18.77,25.54 18.68,25.52 18.59,25.49 18.5,25.45 18.41,25.42 18.33,25.39 18.24,25.35 18.16,25.32 18.08,25.28 18,25.24 17.92,25.2 17.84,25.16 17.77,25.12 17.69,25.08 17.61,25.03 17.54,24.99 17.47,24.94 17.39,24.89 17.32,24.84 17.25,24.79 17.18,24.74 17.11,24.69 17.04,24.64 16.97,24.58 16.9,24.53 16.84,24.47 16.77,24.41 16.7,24.35 16.69,24.34 16.68,24.33 16.67,24.32 16.65,24.31 16.64,24.3 16.63,24.29 16.62,24.27 16.61,24.26 16.59,24.25 16.58,24.24 16.57,24.23 16.56,24.22 16.55,24.2 16.53,24.19 16.52,24.18 16.51,24.17 16.49,24.15 16.48,24.13 16.46,24.11 16.44,24.09 16.42,24.07 16.4,24.05 16.37,24.02 16.35,24 16.33,23.97 16.31,23.95 16.29,23.92 16.26,23.89 16.24,23.87 16.22,23.84 16.19,23.81 16.17,23.78 16.15,23.75 16.13,23.73 16.1,23.7 16.08,23.67 16.06,23.64 16.04,23.61 16.02,23.59 16,23.56 15.98,23.53 15.96,23.51 15.94,23.48 15.92,23.46 15.91,23.44 15.89,23.41 15.87,23.39 15.86,23.37 15.85,23.36 15.84,23.34 15.84,23.33 15.83,23.32 15.82,23.31 15.81,23.29 15.8,23.28 15.8,23.27 15.79,23.25 15.78,23.24 15.77,23.23 15.76,23.22 15.75,23.2 15.74,23.19 15.73,23.18 15.72,23.17 15.65,23.1 15.62,23.06 15.6,23.03 15.57,23 15.55,22.97 15.53,22.94 15.51,22.92 15.49,22.89 15.47,22.86 15.45,22.83 15.43,22.81 15.4,22.78 15.38,22.75 15.36,22.71 15.34,22.68 15.31,22.64 15.29,22.61 14.92,21.99 15.13,22.63 15.14,22.67 15.16,22.71 15.18,22.74 15.19,22.78 15.2,22.81 15.22,22.85 15.23,22.88 15.25,22.91 15.26,22.94 15.27,22.97 15.28,23 15.3,23.03 15.31,23.06 15.32,23.09 15.34,23.12 15.35,23.15 15.36,23.18 15.38,23.21 15.39,23.24 15.41,23.27 15.42,23.3 15.44,23.33 15.45,23.36 15.47,23.39 15.49,23.42 15.51,23.46 15.53,23.49 15.55,23.52 15.57,23.56 15.59,23.6 15.61,23.64 15.64,23.68 15.65,23.69 15.65,23.7 15.66,23.71 15.67,23.73 15.68,23.74 15.69,23.76 15.7,23.77 15.71,23.79 15.72,23.8 15.72,23.82 15.73,23.83 15.74,23.85 15.75,23.86 15.76,23.87 15.77,23.88 15.78,23.89 15.78,23.89 15.8,23.9 15.82,23.91 15.84,23.93 15.86,23.96 15.89,23.99 15.92,24.02 15.95,24.05 15.98,24.08 16.01,24.11 16.04,24.14 16.07,24.17 16.09,24.19 16.11,24.21 16.13,24.23 16.14,24.24 16.17,24.26 16.19,24.29 16.22,24.31 16.24,24.33 16.26,24.36 16.29,24.38 16.32,24.4 16.34,24.42 16.37,24.45 16.39,24.47 16.42,24.49 16.44,24.51 16.47,24.53 16.5,24.56 16.53,24.58 16.55,24.6 16.64,24.67 16.74,24.74 16.83,24.81 16.92,24.87 17.02,24.94 17.11,25 17.21,25.06 17.31,25.12 17.41,25.17 17.51,25.23 17.61,25.28 17.71,25.33 17.81,25.38 17.91,25.43 18.02,25.48 18.12,25.52 18.23,25.56 18.34,25.6 18.45,25.64 18.56,25.68 18.67,25.71 18.78,25.75 18.89,25.78 19,25.81 19.12,25.83 19.24,25.86 19.35,25.88 19.47,25.9 19.59,25.92 19.71,25.94 19.84,25.95 19.96,25.97 20.08,25.98 20.19,25.98 20.31,25.99 20.43,25.99 20.55,25.99 20.67,25.99 20.78,25.99 20.9,25.98 21.02,25.98 21.14,25.97 21.26,25.95 21.38,25.94 21.5,25.93 21.62,25.91 21.74,25.89 21.85,25.87 21.97,25.84 22.09,25.82 22.2,25.79 22.32,25.76 22.43,25.73 22.55,25.69 22.66,25.66 22.77,25.62 22.88,25.58 22.99,25.54 23.1,25.5 23.2,25.45 23.31,25.4 23.41,25.36 23.51,25.31 23.61,25.25 23.65,25.23 23.69,25.21 23.73,25.19 23.77,25.17 23.8,25.14 23.84,25.12 23.88,25.1 23.92,25.08 23.96,25.06 23.99,25.03 24.03,25.01 24.07,24.99 24.1,24.97 24.14,24.94 24.17,24.92 24.21,24.9 24.25,24.88 24.28,24.85 24.32,24.83 24.35,24.81 24.39,24.78 24.42,24.76 24.45,24.73 24.49,24.71 24.52,24.68 24.56,24.66 24.59,24.63 24.63,24.61 24.66,24.58 24.69,24.55 24.73,24.53 24.76,24.5 24.8,24.46 24.85,24.43 24.89,24.39 24.94,24.35 24.98,24.31 25.03,24.27 25.07,24.23 25.12,24.19 25.16,24.14 25.21,24.1 25.25,24.06 25.3,24.01 25.34,23.97 25.38,23.92 25.43,23.88 25.47,23.83 25.51,23.79 25.56,23.74 25.6,23.69 25.64,23.64 25.68,23.6 25.72,23.55 25.76,23.5 25.8,23.45 25.84,23.4 25.87,23.35 25.91,23.31 25.95,23.26 25.98,23.21 26.01,23.16 26.05,23.11 26.08,23.06 26.12,23 26.16,22.93 26.2,22.87 26.24,22.8 26.28,22.74 26.32,22.68 26.35,22.61 26.39,22.55 26.43,22.48 26.46,22.41 26.5,22.35 26.53,22.28 26.56,22.21 26.6,22.15 26.63,22.08 26.66,22.01 26.69,21.94 26.72,21.87 26.75,21.8 26.78,21.73 26.8,21.65 26.83,21.58 26.86,21.51 26.88,21.43 26.91,21.36 26.93,21.28 26.95,21.2 26.98,21.12 27,21.04 27.02,20.96 27.04,20.87 27.06,20.79 27.08,20.7 27.09,20.61 27.11,20.52 27.13,20.43 27.14,20.35 27.15,20.26 27.16,20.17 27.17,20.08 27.18,20 27.19,19.91 27.2,19.82 27.2,19.73 27.21,19.65 27.21,19.56 27.21,19.47 27.21,19.39 27.21,19.3 27.21,19.22 27.21,19.13 27.2,19.04 27.2,18.96 27.19,18.87 27.18,18.79 27.17,18.7 27.17,18.62 27.15,18.54 27.14,18.45 27.13,18.37 27.12,18.29 27.1,18.2 27.09,18.12 27.07,18.04 27.06,17.97 27.04,17.91 27.03,17.85 27.01,17.78 26.99,17.72 26.98,17.66 26.96,17.6 26.94,17.54 26.92,17.48 26.91,17.42 26.89,17.36 26.87,17.3 26.85,17.25 26.82,17.19 26.8,17.13 26.78,17.08 26.76,17.02 26.74,16.96 26.71,16.91 26.69,16.85 26.66,16.8 26.64,16.74 26.61,16.69 26.59,16.63 26.56,16.58 26.53,16.52 26.5,16.47 26.47,16.41 26.45,16.36 26.42,16.3 26.39,16.25 26.35,16.19 26.35,16.18 26.34,16.17 26.33,16.15 26.32,16.13 26.31,16.12 26.3,16.1 26.29,16.08 26.28,16.07 26.27,16.05 26.26,16.03 26.25,16.02 26.24,16 26.23,15.99 26.23,15.98 26.23,15.97 26.23,15.96 25.68,15.39 25.67,15.38 25.66,15.37 25.64,15.35 25.63,15.34 25.61,15.32 25.59,15.31 25.57,15.29 25.55,15.28 25.53,15.26 25.51,15.24 25.49,15.22 25.47,15.2 25.44,15.19 25.42,15.17 25.4,15.15 25.37,15.13 25.35,15.11 25.33,15.09 25.3,15.08 25.28,15.06 25.26,15.04 25.24,15.02 25.21,15.01 25.19,14.99 25.17,14.98 25.15,14.96 25.13,14.95 25.11,14.93 25.09,14.92 25.08,14.91 25.06,14.9 25.05,14.89 25,14.86 24.96,14.83 24.91,14.8 24.87,14.77 24.82,14.74 24.78,14.72 24.73,14.69 24.68,14.66 24.64,14.63 24.59,14.6 24.54,14.58 24.5,14.55 24.45,14.52 24.4,14.5 24.35,14.47 24.31,14.45 24.26,14.42 24.21,14.4 24.16,14.37 24.11,14.35 24.06,14.33 24.01,14.3 23.97,14.28 23.92,14.26 23.87,14.24 23.82,14.22 23.77,14.2 23.71,14.18 23.66,14.16 23.61,14.14 23.56,14.12 23.51,14.11 23.46,14.09 23.41,14.08 23.37,14.06 23.32,14.05 23.27,14.03 23.23,14.02 23.18,14.01 23.13,13.99 23.09,13.98 23.04,13.97 22.99,13.96 22.95,13.94 22.9,13.93 22.85,13.92 22.81,13.91 22.76,13.9 22.72,13.89 22.67,13.88 22.62,13.87 22.58,13.86 22.53,13.85 22.49,13.84 22.44,13.84 22.39,13.83 22.35,13.82 22.3,13.81 22.25,13.81 22.21,13.8 22.16,13.79 22.12,13.79 22.07,13.78 22.02,13.78 21.73,13.76 21.7,13.75 21.68,13.75 21.66,13.75 21.64,13.75 21.61,13.75 21.59,13.75 21.57,13.75 21.55,13.75 21.52,13.75 21.5,13.75 21.48,13.75 21.45,13.75 21.43,13.75 21.41,13.75 21.39,13.75 21.36,13.75 21.34,13.75 21.32,13.75 21.29,13.75 21.27,13.75 21.25,13.75 21.22,13.75 21.2,13.75 21.17,13.75 21.15,13.75 21.13,13.75 21.1,13.75 21.08,13.75 21.06,13.76 21.03,13.76 21.01,13.76 20.98,13.76 20.95,13.76 20.92,13.76 20.89,13.77 20.86,13.77 20.84,13.77 20.81,13.77 20.78,13.78 20.74,13.78 20.71,13.78 20.68,13.78 20.65,13.79 20.62,13.79 20.59,13.79 20.56,13.8 20.53,13.8 20.5,13.8 20.47,13.81 20.44,13.81 20.41,13.81 20.38,13.82 20.35,13.82 20.32,13.83 20.29,13.83 20.26,13.84 20.23,13.84 20.2,13.85 20.17,13.85 20.14,13.86 20.12,13.86 20.09,13.87 20.06,13.88 20.03,13.88 20.02,13.88 20,13.89 19.97,13.89 19.94,13.9 19.91,13.91 19.88,13.91 19.85,13.92 19.81,13.93 19.78,13.94 19.74,13.95 19.71,13.96 19.68,13.96 19.65,13.98 19.63,13.99 19.61,14 "/>
    <polygon class="fil7" points="15.78,23.89 15.82,23.95 15.86,24 15.9,24.06 15.94,24.12 15.98,24.18 16.03,24.24 16.07,24.3 16.12,24.36 16.17,24.41 16.22,24.47 16.27,24.53 16.32,24.59 16.37,24.64 16.42,24.7 16.47,24.76 16.53,24.81 16.58,24.87 16.64,24.92 16.7,24.97 16.75,25.03 16.81,25.08 16.87,25.13 16.92,25.18 16.98,25.23 17.04,25.28 17.1,25.33 17.15,25.37 17.21,25.42 17.27,25.46 17.33,25.5 17.39,25.55 17.44,25.59 17.51,25.63 17.57,25.67 17.63,25.71 17.7,25.76 17.76,25.8 17.83,25.84 17.9,25.88 17.97,25.92 18.04,25.96 18.11,25.99 18.18,26.03 18.25,26.07 18.33,26.11 18.4,26.14 18.48,26.18 18.56,26.21 18.63,26.24 18.71,26.28 18.79,26.31 18.87,26.34 18.95,26.37 19.04,26.4 19.12,26.43 19.21,26.45 19.29,26.48 19.38,26.5 19.47,26.53 19.56,26.55 19.65,26.57 19.74,26.59 19.83,26.61 19.93,26.62 19.96,26.63 19.98,26.63 20.01,26.64 20.04,26.64 20.07,26.65 20.09,26.65 20.12,26.66 20.15,26.66 20.18,26.67 20.21,26.67 20.24,26.68 20.26,26.68 20.29,26.69 20.32,26.69 20.35,26.7 20.38,26.7 20.73,26.74 20.83,26.74 20.93,26.74 21.03,26.74 21.13,26.74 21.22,26.74 21.31,26.74 21.41,26.74 21.5,26.73 21.59,26.73 21.69,26.72 21.78,26.71 21.87,26.7 21.96,26.69 22.05,26.68 22.13,26.66 22.22,26.65 22.31,26.63 22.4,26.62 22.49,26.6 22.58,26.58 22.67,26.56 22.75,26.54 22.84,26.51 22.93,26.49 23.02,26.46 23.11,26.44 23.2,26.41 23.29,26.38 23.38,26.35 23.47,26.32 23.56,26.28 23.65,26.25 23.73,26.22 23.81,26.18 23.9,26.15 23.98,26.11 24.06,26.07 24.14,26.03 24.22,25.99 24.3,25.95 24.38,25.9 24.46,25.86 24.54,25.81 24.62,25.76 24.7,25.71 24.78,25.66 24.85,25.61 24.93,25.55 25.01,25.5 25.08,25.44 25.16,25.39 25.23,25.33 25.3,25.27 25.38,25.21 25.45,25.15 25.52,25.09 25.59,25.03 25.65,24.97 25.72,24.91 25.79,24.85 25.85,24.79 25.91,24.72 25.97,24.66 26.03,24.6 26.05,24.58 26.06,24.57 26.07,24.55 26.09,24.54 26.1,24.53 26.11,24.51 26.12,24.5 26.14,24.49 26.15,24.47 26.16,24.46 26.17,24.44 26.18,24.43 26.2,24.42 26.21,24.4 26.22,24.39 26.23,24.37 26.26,24.34 26.28,24.32 26.3,24.29 26.32,24.27 26.34,24.24 26.36,24.22 26.38,24.19 26.4,24.17 26.41,24.15 26.43,24.13 26.45,24.1 26.46,24.08 26.48,24.06 26.5,24.04 26.51,24.02 26.53,24 26.54,23.98 26.56,23.96 26.57,23.93 26.59,23.91 26.6,23.89 26.62,23.87 26.64,23.84 26.65,23.82 26.67,23.79 26.69,23.77 26.7,23.74 26.72,23.71 26.74,23.69 26.76,23.66 26.78,23.63 26.8,23.6 26.88,23.46 26.96,23.32 27.04,23.18 27.11,23.04 27.18,22.9 27.25,22.75 27.31,22.6 27.37,22.46 27.42,22.31 27.48,22.15 27.52,22 27.57,21.85 27.61,21.69 27.64,21.54 27.67,21.38 27.7,21.22 27.73,21.06 27.75,20.91 27.76,20.75 27.78,20.59 27.79,20.43 27.79,20.27 27.79,20.11 27.79,19.95 27.78,19.79 27.78,19.63 27.76,19.48 27.74,19.32 27.72,19.16 27.7,19.01 27.67,18.85 27.64,18.7 27.62,18.62 27.6,18.54 27.58,18.47 27.56,18.39 27.54,18.32 27.52,18.24 27.49,18.17 27.47,18.09 27.44,18.02 27.41,17.95 27.39,17.87 27.36,17.8 27.33,17.73 27.3,17.66 27.27,17.59 27.24,17.51 27.2,17.44 27.17,17.37 27.14,17.3 27.1,17.23 27.07,17.16 27.03,17.1 26.99,17.03 26.95,16.96 26.91,16.89 26.87,16.82 26.83,16.76 26.79,16.69 26.75,16.63 26.71,16.56 26.67,16.5 26.62,16.43 26.61,16.42 26.6,16.4 26.59,16.39 26.58,16.38 26.56,16.36 26.55,16.35 26.54,16.33 26.53,16.32 26.24,15.96 26.24,15.97 26.24,15.98 26.24,15.99 26.25,16 26.25,16.02 26.26,16.03 26.27,16.05 26.28,16.07 26.29,16.08 26.3,16.1 26.32,16.12 26.33,16.14 26.34,16.15 26.35,16.17 26.35,16.18 26.36,16.19 26.39,16.25 26.42,16.3 26.45,16.36 26.48,16.41 26.51,16.47 26.54,16.52 26.57,16.58 26.59,16.63 26.62,16.69 26.65,16.74 26.67,16.8 26.7,16.85 26.72,16.91 26.74,16.96 26.77,17.02 26.79,17.08 26.81,17.13 26.83,17.19 26.85,17.25 26.87,17.3 26.89,17.36 26.91,17.42 26.93,17.48 26.95,17.54 26.97,17.6 26.98,17.66 27,17.72 27.02,17.78 27.03,17.85 27.05,17.91 27.06,17.97 27.08,18.04 27.09,18.12 27.11,18.2 27.12,18.29 27.14,18.37 27.15,18.45 27.16,18.54 27.17,18.62 27.18,18.7 27.19,18.79 27.2,18.87 27.2,18.96 27.21,19.04 27.21,19.13 27.22,19.22 27.22,19.3 27.22,19.39 27.22,19.47 27.22,19.56 27.21,19.65 27.21,19.73 27.2,19.82 27.2,19.91 27.19,20 27.18,20.08 27.17,20.17 27.16,20.26 27.15,20.35 27.13,20.43 27.12,20.52 27.1,20.61 27.08,20.7 27.07,20.79 27.05,20.87 27.03,20.96 27.01,21.04 26.98,21.12 26.96,21.2 26.94,21.28 26.91,21.36 26.89,21.43 26.86,21.51 26.84,21.58 26.81,21.65 26.78,21.73 26.76,21.8 26.73,21.87 26.7,21.94 26.67,22.01 26.63,22.08 26.6,22.15 26.57,22.21 26.54,22.28 26.5,22.35 26.47,22.41 26.43,22.48 26.4,22.55 26.36,22.61 26.32,22.68 26.28,22.74 26.25,22.81 26.21,22.87 26.17,22.93 26.13,23 26.08,23.06 26.05,23.11 26.02,23.16 25.99,23.21 25.95,23.26 25.92,23.31 25.88,23.36 25.84,23.4 25.81,23.45 25.77,23.5 25.73,23.55 25.69,23.6 25.65,23.64 25.6,23.69 25.56,23.74 25.52,23.79 25.48,23.83 25.43,23.88 25.39,23.92 25.35,23.97 25.3,24.01 25.26,24.06 25.21,24.1 25.17,24.14 25.12,24.19 25.08,24.23 25.03,24.27 24.99,24.31 24.95,24.35 24.9,24.39 24.86,24.43 24.81,24.46 24.77,24.5 24.73,24.53 24.7,24.55 24.67,24.58 24.63,24.61 24.6,24.63 24.56,24.66 24.53,24.68 24.5,24.71 24.46,24.73 24.43,24.76 24.39,24.78 24.36,24.81 24.32,24.83 24.29,24.85 24.25,24.88 24.22,24.9 24.18,24.92 24.15,24.94 24.11,24.97 24.07,24.99 24.04,25.01 24,25.03 23.96,25.06 23.93,25.08 23.89,25.1 23.85,25.12 23.81,25.14 23.77,25.17 23.73,25.19 23.69,25.21 23.65,25.23 23.61,25.25 23.52,25.31 23.41,25.36 23.31,25.41 23.21,25.45 23.1,25.5 23,25.54 22.89,25.58 22.78,25.62 22.67,25.66 22.55,25.69 22.44,25.73 22.33,25.76 22.21,25.79 22.1,25.82 21.98,25.84 21.86,25.87 21.74,25.89 21.63,25.91 21.51,25.93 21.39,25.94 21.27,25.95 21.15,25.97 21.03,25.98 20.91,25.98 20.79,25.99 20.67,25.99 20.55,25.99 20.44,25.99 20.32,25.99 20.2,25.98 20.08,25.98 19.97,25.97 19.84,25.95 19.72,25.94 19.6,25.92 19.48,25.9 19.36,25.88 19.24,25.86 19.13,25.83 19.01,25.81 18.9,25.78 18.78,25.75 18.67,25.71 18.56,25.68 18.45,25.64 18.34,25.6 18.24,25.56 18.13,25.52 18.02,25.48 17.92,25.43 17.82,25.38 17.71,25.33 17.61,25.28 17.51,25.23 17.41,25.17 17.32,25.12 17.22,25.06 17.12,25 17.03,24.94 16.93,24.87 16.84,24.81 16.74,24.74 16.65,24.67 16.56,24.6 16.53,24.58 16.5,24.56 16.48,24.54 16.45,24.51 16.43,24.49 16.4,24.47 16.37,24.45 16.35,24.42 16.32,24.4 16.3,24.38 16.27,24.36 16.25,24.33 16.22,24.31 16.2,24.29 16.17,24.26 16.15,24.24 16.14,24.23 16.12,24.21 16.1,24.19 16.08,24.17 16.05,24.14 16.02,24.11 15.99,24.08 15.96,24.05 15.93,24.02 15.9,23.99 15.87,23.96 15.85,23.94 15.82,23.92 15.81,23.9 15.79,23.89 "/>
    <polygon class="fil7" points="19.6,14.01 19.59,14.01 19.57,14.01 19.55,14.01 19.52,14.01 19.49,14.02 19.46,14.03 19.42,14.04 19.38,14.05 19.34,14.06 19.3,14.08 19.26,14.09 19.21,14.11 19.17,14.13 19.12,14.14 19.07,14.16 19.02,14.18 18.97,14.2 18.93,14.22 18.88,14.24 18.83,14.26 18.79,14.28 18.75,14.29 18.7,14.31 18.66,14.33 18.63,14.35 18.59,14.36 18.56,14.38 18.53,14.39 18.5,14.4 18.48,14.41 18.46,14.42 18.45,14.43 18.42,14.44 18.39,14.46 18.36,14.47 18.33,14.49 18.3,14.51 18.26,14.52 18.23,14.54 18.2,14.56 18.16,14.58 18.13,14.6 18.1,14.61 18.06,14.63 18.03,14.65 17.99,14.67 17.96,14.69 17.93,14.71 17.89,14.73 17.86,14.75 17.83,14.78 17.79,14.8 17.76,14.82 17.73,14.84 17.7,14.86 17.66,14.88 17.63,14.9 17.6,14.92 17.57,14.94 17.54,14.96 17.52,14.98 17.49,15 17.46,15.02 17.44,15.04 16.67,15.7 16.6,15.76 16.53,15.83 16.47,15.9 16.4,15.97 16.33,16.05 16.27,16.12 16.2,16.2 16.14,16.29 16.07,16.37 16.01,16.46 15.95,16.54 15.89,16.63 15.83,16.72 15.77,16.81 15.71,16.91 15.66,17 15.6,17.09 15.55,17.19 15.5,17.28 15.45,17.38 15.4,17.47 15.35,17.57 15.31,17.66 15.26,17.75 15.22,17.85 15.18,17.94 15.15,18.03 15.11,18.12 15.08,18.21 15.05,18.3 15.02,18.39 15,18.47 14.82,19.18 14.82,19.19 14.82,19.2 14.82,19.21 14.82,19.23 14.81,19.24 14.81,19.25 14.81,19.26 14.81,19.27 14.81,19.28 14.81,19.29 14.81,19.3 14.81,19.31 14.8,19.33 14.8,19.34 14.8,19.35 14.8,19.36 14.8,19.37 14.79,19.37 14.79,19.38 14.79,19.39 14.79,19.4 14.79,19.41 14.78,19.42 14.78,19.43 14.78,19.44 14.78,19.46 14.78,19.47 14.77,19.48 14.77,19.49 14.77,19.5 14.77,19.52 14.77,19.53 14.73,19.87 14.73,19.88 14.73,19.89 14.73,19.9 14.73,19.91 14.73,19.92 14.73,19.93 14.73,19.94 14.73,19.95 14.73,19.97 14.73,19.99 14.73,20.02 14.73,20.04 14.73,20.07 14.73,20.09 14.73,20.11 14.73,20.14 14.72,20.16 14.72,20.19 14.72,20.21 14.72,20.24 14.72,20.26 14.72,20.29 14.72,20.31 14.71,20.33 14.71,20.35 14.71,20.37 14.71,20.39 14.71,20.42 14.71,20.44 14.71,20.46 14.71,20.49 14.72,20.51 14.72,20.53 14.72,20.56 14.72,20.58 14.72,20.6 14.72,20.63 14.72,20.65 14.72,20.67 14.73,20.69 14.73,20.72 14.73,20.76 14.73,20.79 14.73,20.83 14.73,20.86 14.74,20.9 14.74,20.94 14.75,20.99 14.75,21.03 14.76,21.07 14.76,21.12 14.77,21.16 14.77,21.21 14.78,21.25 14.78,21.3 14.79,21.34 14.8,21.39 14.81,21.44 14.81,21.48 14.82,21.53 14.83,21.57 14.84,21.62 14.85,21.66 14.85,21.7 14.86,21.74 14.87,21.78 14.88,21.82 14.89,21.86 14.9,21.9 14.91,21.93 14.92,21.96 14.93,21.99 15.29,22.61 15.32,22.64 15.34,22.68 15.36,22.71 15.39,22.75 15.41,22.78 15.43,22.81 15.45,22.83 15.47,22.86 15.49,22.89 15.51,22.92 15.53,22.94 15.55,22.97 15.58,23 15.6,23.03 15.62,23.06 15.65,23.1 15.73,23.17 15.72,23.15 15.71,23.14 15.7,23.12 15.7,23.1 15.69,23.08 15.68,23.06 15.67,23.04 15.66,23.02 15.64,23 15.63,22.97 15.62,22.95 15.61,22.93 15.6,22.9 15.58,22.88 15.57,22.85 15.56,22.83 15.54,22.8 15.53,22.77 15.51,22.75 15.5,22.72 15.48,22.69 15.47,22.66 15.46,22.63 15.44,22.6 15.43,22.57 15.41,22.54 15.4,22.51 15.38,22.47 15.37,22.44 15.36,22.41 15.34,22.38 15.33,22.34 15.26,22.16 15.2,21.97 15.14,21.78 15.1,21.59 15.06,21.4 15.02,21.21 15,21.02 14.98,20.82 14.96,20.63 14.96,20.43 14.96,20.24 14.97,20.04 14.98,19.85 15,19.66 15.03,19.46 15.07,19.27 15.11,19.08 15.15,18.89 15.21,18.7 15.27,18.52 15.34,18.33 15.41,18.15 15.49,17.97 15.57,17.8 15.67,17.62 15.77,17.45 15.87,17.29 15.98,17.12 16.1,16.96 16.22,16.81 16.35,16.66 16.49,16.51 16.51,16.49 16.53,16.47 16.55,16.45 16.57,16.43 16.59,16.41 16.61,16.39 16.63,16.37 16.65,16.35 16.67,16.33 16.69,16.31 16.71,16.29 16.73,16.27 16.75,16.25 16.77,16.23 16.79,16.21 16.81,16.19 16.83,16.17 16.85,16.16 16.87,16.14 16.89,16.12 16.92,16.1 16.94,16.08 16.96,16.06 16.98,16.04 17.01,16.03 17.03,16.01 17.05,15.99 17.07,15.98 17.09,15.96 17.11,15.94 17.13,15.92 17.16,15.9 17.18,15.88 17.2,15.87 17.22,15.85 17.24,15.84 17.26,15.82 17.28,15.81 17.3,15.79 17.33,15.77 17.35,15.76 17.38,15.74 17.4,15.72 17.43,15.7 17.45,15.69 17.48,15.67 17.51,15.65 17.54,15.63 17.56,15.62 17.59,15.6 17.62,15.58 17.64,15.57 17.67,15.55 17.7,15.53 17.72,15.52 17.75,15.5 17.77,15.49 17.8,15.47 17.82,15.46 17.84,15.45 17.87,15.43 17.89,15.42 17.91,15.41 17.92,15.4 18.01,15.36 18.1,15.31 18.18,15.27 18.27,15.23 18.36,15.19 18.45,15.15 18.53,15.11 18.62,15.08 18.71,15.05 18.81,15.01 18.9,14.98 18.99,14.95 19.08,14.93 19.17,14.9 19.27,14.88 19.36,14.85 19.46,14.83 19.55,14.81 19.65,14.8 19.75,14.78 19.84,14.77 19.94,14.75 20.04,14.74 20.14,14.73 20.24,14.72 20.33,14.72 20.43,14.72 20.53,14.71 20.64,14.71 20.74,14.71 20.84,14.72 20.94,14.72 21.07,14.73 21.19,14.74 21.31,14.75 21.44,14.77 21.56,14.79 21.68,14.81 21.8,14.84 21.92,14.86 22.04,14.89 22.15,14.93 22.27,14.96 22.39,15 22.5,15.04 22.61,15.08 22.73,15.12 22.84,15.17 22.95,15.22 23.05,15.27 23.16,15.32 23.27,15.38 23.37,15.44 23.48,15.5 23.58,15.56 23.68,15.63 23.78,15.69 23.87,15.76 23.97,15.84 24.06,15.91 24.16,15.99 24.25,16.06 24.34,16.14 24.43,16.23 24.44,16.24 24.45,16.25 24.46,16.26 24.47,16.27 24.48,16.28 24.49,16.29 24.5,16.3 24.51,16.31 24.52,16.32 24.53,16.33 24.54,16.34 24.55,16.35 24.56,16.36 24.57,16.37 24.59,16.38 24.6,16.39 24.56,16.32 24.56,16.31 24.55,16.3 24.55,16.29 24.54,16.28 24.53,16.27 24.53,16.26 24.52,16.26 24.52,16.25 24.49,16.21 24.47,16.18 24.44,16.15 24.42,16.12 24.4,16.09 24.38,16.07 24.36,16.04 24.34,16.01 24.32,15.99 24.3,15.96 24.28,15.94 24.26,15.91 24.24,15.89 24.21,15.86 24.19,15.84 24.17,15.82 24.15,15.79 24.13,15.77 24.11,15.75 24.09,15.72 24.07,15.7 24.04,15.67 24.02,15.65 23.99,15.63 23.97,15.6 23.94,15.58 23.92,15.55 23.89,15.52 23.86,15.5 23.83,15.47 23.8,15.44 23.77,15.41 23.74,15.38 23.71,15.36 23.68,15.33 23.65,15.31 23.62,15.28 23.59,15.25 23.56,15.23 23.53,15.2 23.5,15.18 23.47,15.15 23.44,15.13 23.4,15.1 23.37,15.08 23.34,15.05 23.31,15.03 23.27,15.01 23.24,14.98 23.2,14.96 23.17,14.93 23.13,14.91 23.1,14.89 23.06,14.86 23.02,14.84 22.99,14.82 22.95,14.79 22.91,14.77 22.87,14.75 22.84,14.73 22.8,14.7 22.76,14.68 22.72,14.66 22.68,14.64 22.61,14.6 22.53,14.56 22.45,14.52 22.36,14.48 22.28,14.44 22.19,14.41 22.1,14.37 22.01,14.34 21.92,14.3 21.82,14.27 21.73,14.24 21.63,14.21 21.53,14.18 21.43,14.16 21.33,14.13 21.23,14.11 21.13,14.09 21.03,14.07 20.92,14.05 20.82,14.03 20.72,14.02 20.61,14.01 20.51,14 20.41,13.99 20.3,13.98 20.2,13.98 20.1,13.98 20,13.98 19.9,13.98 19.8,13.99 19.7,14 "/>
    <polygon class="fil6" points="15.67,20.5 15.68,20.55 15.69,20.6 15.71,20.65 15.74,20.69 15.77,20.72 15.8,20.74 15.84,20.76 15.88,20.78 15.92,20.79 15.97,20.8 16.02,20.8 16.07,20.8 16.12,20.8 16.17,20.79 16.23,20.79 16.29,20.77 16.34,20.76 16.4,20.74 16.46,20.73 16.51,20.71 16.57,20.69 16.63,20.67 16.68,20.65 16.73,20.63 16.78,20.61 16.83,20.59 16.87,20.57 16.91,20.55 16.95,20.54 16.99,20.52 17.02,20.51 17.04,20.5 17.04,20.53 17.04,20.57 17.04,20.61 17.04,20.65 17.04,20.7 17.04,20.75 17.04,20.8 17.04,20.86 17.04,20.92 17.03,20.98 17.03,21.04 17.03,21.11 17.02,21.17 17.02,21.24 17.02,21.3 17.01,21.37 17.01,21.44 17,21.5 17,21.57 16.99,21.64 16.99,21.7 16.98,21.76 16.98,21.82 16.97,21.88 16.97,21.94 16.96,21.99 16.96,22.04 16.95,22.08 16.95,22.12 16.94,22.16 16.93,22.2 16.93,22.23 16.92,22.25 16.92,22.28 16.91,22.3 16.9,22.32 16.9,22.35 16.89,22.37 16.88,22.39 16.88,22.41 16.87,22.44 16.86,22.46 16.85,22.48 16.84,22.5 16.83,22.52 16.82,22.54 16.82,22.56 16.81,22.58 16.8,22.6 16.79,22.61 16.78,22.63 16.77,22.65 16.76,22.67 16.74,22.69 16.73,22.71 16.72,22.72 16.71,22.74 16.7,22.76 16.69,22.78 16.68,22.8 16.67,22.81 16.65,22.83 16.64,22.85 16.63,22.87 16.62,22.89 16.61,22.9 16.6,22.92 16.59,22.94 16.58,22.96 16.57,22.98 16.56,23 16.55,23.03 16.54,23.05 16.53,23.07 16.52,23.1 16.51,23.12 16.5,23.15 16.49,23.17 16.48,23.2 16.48,23.22 16.47,23.25 16.46,23.27 16.46,23.3 16.45,23.32 16.45,23.35 16.44,23.38 16.44,23.4 16.44,23.43 16.43,23.45 16.43,23.47 16.43,23.5 16.43,23.52 16.44,23.55 16.44,23.57 16.44,23.59 16.45,23.61 16.46,23.63 16.48,23.64 16.5,23.65 16.51,23.67 16.53,23.68 16.55,23.7 16.57,23.71 16.59,23.73 16.61,23.74 16.63,23.75 16.65,23.76 16.68,23.78 16.7,23.79 16.72,23.8 16.75,23.81 16.77,23.82 16.8,23.83 16.82,23.84 16.85,23.85 16.88,23.86 16.9,23.87 16.93,23.87 16.96,23.88 16.99,23.89 17.01,23.89 17.04,23.9 17.07,23.9 17.1,23.9 17.13,23.91 17.15,23.91 17.18,23.91 17.21,23.91 17.27,23.9 17.32,23.9 17.37,23.88 17.4,23.87 17.43,23.85 17.46,23.83 17.48,23.8 17.49,23.78 17.49,23.74 17.5,23.71 17.5,23.67 17.49,23.63 17.49,23.59 17.48,23.55 17.47,23.5 17.46,23.45 17.45,23.4 17.44,23.34 17.43,23.29 17.42,23.23 17.41,23.17 17.41,23.11 17.4,23.05 17.41,22.99 17.41,22.92 17.42,22.85 17.44,22.79 17.46,22.72 17.49,22.65 17.53,22.58 17.57,22.5 17.62,22.43 17.64,22.41 17.65,22.4 17.66,22.38 17.68,22.36 17.69,22.34 17.71,22.33 17.72,22.31 17.74,22.3 17.75,22.28 17.77,22.26 17.78,22.25 17.8,22.23 17.81,22.21 17.83,22.2 17.84,22.18 17.86,22.17 17.87,22.15 17.89,22.13 17.9,22.12 17.92,22.1 17.94,22.08 17.95,22.06 17.97,22.05 17.99,22.03 18,22.01 18.02,21.99 18.03,21.97 18.05,21.95 18.07,21.93 18.09,21.91 18.1,21.89 18.12,21.87 18.14,21.87 18.17,21.87 18.19,21.87 18.22,21.87 18.24,21.87 18.27,21.88 18.3,21.88 18.33,21.88 18.36,21.88 18.39,21.88 18.42,21.88 18.45,21.89 18.48,21.89 18.51,21.89 18.55,21.89 18.58,21.89 18.61,21.89 18.64,21.9 18.67,21.9 18.7,21.9 18.73,21.9 18.76,21.9 18.79,21.9 18.82,21.9 18.85,21.9 18.88,21.9 18.9,21.9 18.92,21.9 18.95,21.9 18.97,21.9 18.99,21.89 19.01,21.89 19.03,21.89 19.05,21.88 19.07,21.88 19.1,21.88 19.12,21.87 19.14,21.87 19.17,21.86 19.19,21.86 19.21,21.85 19.23,21.85 19.26,21.84 19.28,21.83 19.3,21.83 19.33,21.82 19.35,21.82 19.37,21.81 19.4,21.81 19.42,21.8 19.44,21.79 19.47,21.79 19.49,21.78 19.51,21.78 19.54,21.77 19.56,21.77 19.58,21.76 19.6,21.76 19.63,21.76 19.65,21.75 19.67,21.75 19.69,21.74 19.72,21.74 19.74,21.74 19.74,21.75 19.74,21.76 19.75,21.78 19.75,21.8 19.76,21.82 19.76,21.85 19.77,21.88 19.78,21.91 19.78,21.95 19.79,21.99 19.8,22.03 19.8,22.08 19.81,22.12 19.82,22.17 19.83,22.21 19.84,22.26 19.84,22.31 19.85,22.35 19.86,22.4 19.87,22.45 19.87,22.49 19.88,22.53 19.89,22.57 19.89,22.61 19.9,22.65 19.9,22.68 19.91,22.72 19.91,22.74 19.92,22.77 19.92,22.79 19.92,22.81 19.92,22.82 19.92,22.86 19.92,22.9 19.92,22.94 19.92,22.98 19.91,23.01 19.91,23.05 19.9,23.09 19.89,23.13 19.89,23.16 19.88,23.2 19.87,23.24 19.86,23.27 19.85,23.31 19.84,23.34 19.83,23.38 19.81,23.41 19.8,23.45 19.79,23.49 19.78,23.52 19.77,23.56 19.75,23.6 19.74,23.63 19.73,23.67 19.72,23.71 19.71,23.74 19.7,23.78 19.69,23.82 19.68,23.86 19.67,23.9 19.67,23.94 19.66,23.98 19.65,24.02 19.7,24.04 19.74,24.06 19.77,24.08 19.81,24.09 19.84,24.11 19.87,24.13 19.9,24.14 19.93,24.16 19.96,24.17 19.99,24.18 20.01,24.19 20.04,24.21 20.06,24.22 20.09,24.22 20.12,24.23 20.14,24.24 20.17,24.24 20.2,24.25 20.23,24.25 20.26,24.25 20.29,24.25 20.32,24.24 20.35,24.24 20.39,24.23 20.43,24.22 20.47,24.21 20.52,24.2 20.56,24.18 20.61,24.16 20.66,24.14 20.72,24.12 20.78,24.1 20.78,24.08 20.78,24.07 20.78,24.05 20.78,24.03 20.78,24.01 20.78,23.98 20.78,23.95 20.77,23.92 20.77,23.89 20.77,23.86 20.76,23.82 20.76,23.78 20.76,23.75 20.75,23.71 20.75,23.67 20.74,23.63 20.74,23.58 20.73,23.54 20.73,23.5 20.72,23.46 20.72,23.42 20.71,23.38 20.71,23.34 20.7,23.3 20.7,23.26 20.7,23.22 20.69,23.18 20.69,23.15 20.69,23.12 20.69,23.09 20.68,23.06 20.68,23.03 20.68,22.99 20.68,22.95 20.68,22.92 20.68,22.88 20.68,22.84 20.68,22.81 20.68,22.77 20.68,22.73 20.68,22.69 20.68,22.65 20.68,22.62 20.68,22.58 20.68,22.54 20.68,22.5 20.68,22.47 20.69,22.43 20.69,22.39 20.69,22.35 20.69,22.31 20.7,22.28 20.7,22.24 20.7,22.2 20.71,22.16 20.71,22.12 20.71,22.09 20.72,22.05 20.72,22.01 20.73,21.97 20.73,21.94 20.74,21.9 20.74,21.86 20.75,21.82 20.77,21.83 20.79,21.84 20.82,21.85 20.85,21.86 20.87,21.88 20.9,21.89 20.93,21.91 20.95,21.92 20.98,21.94 21.01,21.96 21.03,21.98 21.06,22 21.09,22.03 21.11,22.05 21.14,22.07 21.16,22.1 21.18,22.12 21.21,22.14 21.23,22.17 21.25,22.2 21.27,22.22 21.28,22.25 21.3,22.28 21.31,22.3 21.32,22.33 21.33,22.36 21.34,22.38 21.35,22.41 21.35,22.44 21.35,22.46 21.35,22.49 21.34,22.52 21.33,22.52 21.31,22.52 21.29,22.52 21.26,22.52 21.23,22.52 21.2,22.52 21.16,22.52 21.12,22.52 21.08,22.52 21.05,22.52 21.01,22.52 20.98,22.53 20.96,22.53 20.93,22.53 20.92,22.54 20.91,22.54 20.91,22.55 20.9,22.56 20.9,22.58 20.89,22.6 20.89,22.62 20.88,22.65 20.88,22.68 20.88,22.71 20.87,22.74 20.87,22.78 20.87,22.82 20.86,22.86 20.86,22.9 20.86,22.95 20.87,22.99 20.87,23.03 20.87,23.08 20.88,23.12 20.89,23.16 20.9,23.2 20.92,23.24 20.93,23.27 20.95,23.31 20.97,23.34 21,23.37 21.03,23.39 21.06,23.41 21.09,23.43 21.13,23.44 21.17,23.45 21.22,23.45 21.27,23.45 21.32,23.44 21.37,23.43 21.41,23.41 21.46,23.39 21.51,23.36 21.55,23.34 21.6,23.31 21.64,23.27 21.68,23.23 21.73,23.19 21.77,23.15 21.81,23.11 21.85,23.06 21.88,23.02 21.92,22.97 21.95,22.92 21.98,22.87 22.01,22.82 22.04,22.77 22.07,22.72 22.09,22.67 22.12,22.62 22.14,22.58 22.16,22.53 22.17,22.49 22.18,22.44 22.2,22.4 22.2,22.36 22.21,22.33 22.21,22.29 22.21,22.26 22.21,22.24 22.2,22.22 22.19,22.19 22.18,22.17 22.17,22.15 22.15,22.13 22.13,22.11 22.11,22.09 22.09,22.07 22.07,22.05 22.05,22.03 22.02,22 22,21.98 21.97,21.96 21.95,21.94 21.92,21.91 21.9,21.89 21.87,21.86 21.85,21.84 21.82,21.81 21.8,21.79 21.78,21.76 21.76,21.73 21.74,21.7 21.73,21.67 21.71,21.64 21.7,21.61 21.69,21.58 21.69,21.54 21.68,21.51 21.68,21.47 21.69,21.43 21.69,21.4 21.7,21.38 21.7,21.36 21.71,21.35 21.71,21.33 21.72,21.31 21.72,21.3 21.73,21.28 21.74,21.26 21.74,21.25 21.75,21.23 21.76,21.22 21.76,21.2 21.77,21.18 21.78,21.17 21.78,21.15 21.79,21.13 21.8,21.12 21.81,21.1 21.81,21.09 21.82,21.07 21.83,21.05 21.83,21.03 21.84,21.02 21.85,21 21.85,20.98 21.86,20.97 21.86,20.95 21.87,20.93 21.87,20.91 21.88,20.89 21.88,20.88 21.89,20.86 21.85,20.85 21.8,20.85 21.76,20.84 21.72,20.84 21.68,20.83 21.64,20.83 21.59,20.83 21.55,20.83 21.51,20.83 21.47,20.82 21.43,20.82 21.39,20.82 21.34,20.82 21.3,20.82 21.26,20.82 21.22,20.81 21.18,20.81 21.14,20.81 21.1,20.8 21.06,20.8 21.02,20.79 20.98,20.78 20.94,20.78 20.9,20.77 20.86,20.75 20.83,20.74 20.79,20.73 20.75,20.71 20.72,20.7 20.68,20.68 20.65,20.66 20.61,20.63 20.59,20.61 20.56,20.59 20.54,20.57 20.52,20.55 20.5,20.53 20.48,20.51 20.46,20.48 20.44,20.46 20.42,20.43 20.41,20.41 20.39,20.38 20.37,20.35 20.36,20.33 20.34,20.3 20.33,20.27 20.31,20.24 20.3,20.21 20.29,20.18 20.27,20.15 20.26,20.12 20.24,20.09 20.23,20.06 20.22,20.03 20.2,20 20.19,19.97 20.18,19.94 20.16,19.91 20.15,19.88 20.14,19.85 20.12,19.82 20.11,19.79 20.09,19.76 20.08,19.73 20.07,19.71 20.05,19.68 20.04,19.65 20.02,19.62 20,19.59 19.99,19.56 19.97,19.53 19.96,19.49 19.94,19.46 19.93,19.43 19.92,19.39 19.92,19.36 19.92,19.33 19.92,19.3 19.92,19.27 19.94,19.2 19.96,19.13 19.97,19.07 19.99,19.02 20.01,18.97 20.02,18.92 20.04,18.88 20.05,18.84 20.07,18.8 20.08,18.77 20.09,18.74 20.1,18.71 20.11,18.68 20.11,18.66 20.12,18.64 20.12,18.62 20.12,18.61 20.11,18.59 20.11,18.58 20.1,18.57 20.08,18.56 20.06,18.55 20.04,18.54 20.02,18.53 19.99,18.52 19.95,18.51 19.91,18.5 19.87,18.49 19.82,18.48 19.77,18.47 19.71,18.46 19.64,18.44 19.58,18.43 19.52,18.42 19.46,18.41 19.39,18.4 19.33,18.39 19.28,18.38 19.22,18.38 19.16,18.37 19.1,18.37 19.05,18.37 18.99,18.37 18.94,18.37 18.88,18.37 18.83,18.37 18.78,18.38 18.72,18.38 18.67,18.39 18.62,18.4 18.57,18.41 18.52,18.42 18.47,18.44 18.41,18.45 18.36,18.47 18.31,18.49 18.26,18.51 18.21,18.53 18.16,18.55 18.11,18.58 18.06,18.61 18.01,18.64 17.96,18.67 17.91,18.7 17.89,18.72 17.86,18.74 17.84,18.76 17.82,18.78 17.8,18.8 17.77,18.82 17.75,18.84 17.73,18.87 17.71,18.89 17.68,18.92 17.66,18.95 17.64,18.97 17.62,19 17.6,19.03 17.58,19.06 17.56,19.09 17.54,19.12 17.52,19.15 17.5,19.18 17.48,19.21 17.46,19.24 17.44,19.27 17.42,19.31 17.41,19.34 17.39,19.37 17.38,19.4 17.36,19.43 17.35,19.45 17.33,19.48 17.32,19.51 17.31,19.54 17.3,19.56 17.28,19.6 17.27,19.64 17.25,19.68 17.24,19.72 17.22,19.76 17.21,19.79 17.2,19.83 17.19,19.86 17.18,19.9 17.17,19.93 17.16,19.97 17.14,20 17.13,20.03 17.12,20.06 17.11,20.1 17.1,20.13 17.08,20.16 17.07,20.18 17.06,20.21 17.04,20.24 17.03,20.27 17.01,20.29 16.99,20.32 16.97,20.34 16.95,20.36 16.93,20.39 16.9,20.41 16.87,20.43 16.85,20.45 16.82,20.47 16.78,20.49 16.75,20.5 16.69,20.53 16.64,20.55 16.59,20.57 16.55,20.59 16.51,20.61 16.47,20.62 16.43,20.63 16.4,20.64 16.37,20.65 16.34,20.65 16.32,20.66 16.29,20.66 16.27,20.66 16.25,20.66 16.24,20.66 16.22,20.65 16.21,20.65 16.19,20.64 16.18,20.63 16.17,20.63 16.16,20.62 16.14,20.61 16.13,20.6 16.12,20.59 16.11,20.58 16.1,20.57 16.09,20.57 16.07,20.56 16.06,20.55 16.04,20.54 16.03,20.53 16.01,20.52 15.99,20.52 15.97,20.51 15.95,20.51 15.92,20.5 15.9,20.5 15.88,20.5 15.86,20.5 15.84,20.5 15.82,20.5 15.8,20.5 15.77,20.5 15.75,20.5 15.73,20.5 15.71,20.5 15.69,20.5 "/>
    <polygon class="fil6" points="22.63,16.9 22.61,16.89 22.58,16.88 22.56,16.86 22.53,16.85 22.51,16.84 22.48,16.83 22.46,16.81 22.44,16.8 22.41,16.79 22.39,16.77 22.37,16.76 22.35,16.75 22.32,16.74 22.3,16.72 22.28,16.71 22.25,16.7 22.23,16.68 22.21,16.67 22.18,16.66 22.16,16.65 22.13,16.64 22.11,16.63 22.08,16.62 22.06,16.61 22.03,16.6 22,16.59 21.97,16.58 21.94,16.58 21.91,16.57 21.88,16.57 21.85,16.56 21.81,16.56 21.83,16.57 21.85,16.58 21.87,16.58 21.89,16.59 21.92,16.6 21.95,16.61 21.98,16.62 22.01,16.63 22.04,16.64 22.07,16.65 22.11,16.66 22.14,16.67 22.17,16.69 22.21,16.71 22.24,16.73 22.28,16.75 22.28,16.76 22.28,16.76 22.29,16.76 22.29,16.75 22.29,16.74 22.29,16.74 22.28,16.75 22.27,16.76 22.26,16.77 22.25,16.78 22.24,16.78 22.24,16.77 22.24,16.77 22.24,16.76 22.25,16.77 22.26,16.78 22.27,16.78 22.29,16.79 22.31,16.79 22.32,16.8 22.34,16.8 22.36,16.81 22.38,16.81 22.4,16.82 22.42,16.83 22.43,16.84 22.45,16.85 22.47,16.86 22.49,16.86 22.51,16.87 22.53,16.88 22.55,16.89 22.57,16.9 22.59,16.91 22.61,16.92 22.62,16.93 22.64,16.95 22.66,16.96 22.67,16.97 22.69,16.98 22.7,16.99 22.72,17 22.73,17.01 22.74,17.02 22.75,17.03 22.76,17.03 22.77,17.04 22.78,17.05 23.12,17.23 23.11,17.3 23.12,17.36 23.13,17.42 23.14,17.47 23.16,17.51 23.18,17.55 23.21,17.58 23.23,17.61 23.26,17.64 23.3,17.66 23.34,17.67 23.38,17.69 23.42,17.7 23.46,17.71 23.51,17.71 23.56,17.72 23.61,17.72 23.66,17.72 23.71,17.73 23.76,17.73 23.82,17.73 23.87,17.73 23.93,17.73 23.98,17.73 24.03,17.74 24.09,17.74 24.14,17.75 24.2,17.76 24.25,17.77 24.3,17.79 24.35,17.81 24.4,17.83 24.41,17.84 24.43,17.85 24.45,17.86 24.46,17.88 24.48,17.89 24.49,17.9 24.51,17.92 24.52,17.93 24.54,17.95 24.55,17.97 24.56,17.98 24.58,18 24.59,18.02 24.6,18.04 24.61,18.06 24.62,18.08 24.63,18.1 24.64,18.12 24.64,18.14 24.65,18.16 24.65,18.18 24.66,18.21 24.66,18.23 24.66,18.25 24.67,18.28 24.67,18.3 24.67,18.33 24.66,18.35 24.66,18.38 24.66,18.4 24.65,18.43 24.64,18.46 24.63,18.5 24.61,18.54 24.59,18.58 24.57,18.62 24.55,18.66 24.52,18.69 24.49,18.72 24.46,18.75 24.42,18.78 24.39,18.81 24.35,18.83 24.32,18.86 24.28,18.88 24.24,18.89 24.21,18.91 24.17,18.92 24.14,18.93 24.11,18.93 24.08,18.94 24.05,18.94 24.03,18.95 24,18.95 23.98,18.95 23.95,18.95 23.93,18.94 23.9,18.94 23.88,18.94 23.86,18.93 23.84,18.93 23.82,18.92 23.8,18.91 23.78,18.9 23.76,18.9 23.74,18.89 23.72,18.88 23.7,18.86 23.68,18.85 23.67,18.84 23.65,18.83 23.63,18.82 23.62,18.8 23.6,18.79 23.58,18.77 23.57,18.76 23.55,18.75 23.53,18.73 23.52,18.72 23.5,18.7 23.49,18.69 23.48,18.68 23.46,18.66 23.45,18.65 23.44,18.64 23.42,18.62 23.41,18.61 23.39,18.6 23.37,18.58 23.36,18.57 23.34,18.56 23.33,18.54 23.31,18.53 23.29,18.51 23.27,18.5 23.26,18.48 23.24,18.47 23.22,18.46 23.21,18.44 23.19,18.43 23.17,18.41 23.15,18.4 23.14,18.39 23.12,18.37 23.1,18.36 23.08,18.35 23.07,18.34 23.05,18.33 23.03,18.32 23.02,18.31 23,18.3 22.99,18.29 22.94,18.26 22.89,18.23 22.84,18.21 22.8,18.19 22.75,18.17 22.7,18.15 22.66,18.14 22.61,18.12 22.57,18.11 22.52,18.1 22.48,18.09 22.43,18.08 22.39,18.08 22.34,18.07 22.3,18.07 22.25,18.07 22.21,18.07 22.16,18.07 22.12,18.08 22.07,18.08 22.03,18.09 21.98,18.1 21.94,18.11 21.89,18.12 21.85,18.13 21.8,18.14 21.76,18.16 21.71,18.17 21.66,18.19 21.62,18.21 21.57,18.23 21.52,18.25 21.48,18.27 21.44,18.29 21.41,18.3 21.37,18.32 21.34,18.34 21.31,18.35 21.29,18.37 21.27,18.38 21.25,18.39 21.23,18.41 21.21,18.42 21.19,18.43 21.18,18.44 21.17,18.45 21.15,18.46 21.14,18.46 21.13,18.47 21.12,18.48 21.11,18.48 21.1,18.49 21.09,18.49 21.08,18.49 21.06,18.49 21.05,18.49 21.04,18.49 21.02,18.49 21.01,18.49 20.99,18.49 20.97,18.49 20.95,18.48 20.93,18.47 20.9,18.47 20.83,18.45 20.77,18.44 20.7,18.43 20.64,18.43 20.59,18.44 20.53,18.44 20.48,18.45 20.44,18.47 20.39,18.48 20.35,18.51 20.31,18.53 20.27,18.56 20.24,18.59 20.21,18.62 20.18,18.65 20.15,18.69 20.13,18.73 20.11,18.77 20.09,18.81 20.07,18.85 20.05,18.9 20.04,18.94 20.03,18.99 20.02,19.03 20.02,19.08 20.01,19.12 20.01,19.17 20.01,19.21 20.01,19.26 20.01,19.3 20.01,19.35 20.02,19.39 20.02,19.41 20.02,19.43 20.03,19.45 20.03,19.47 20.04,19.49 20.05,19.51 20.05,19.53 20.06,19.55 20.07,19.57 20.08,19.59 20.08,19.61 20.09,19.63 20.1,19.65 20.11,19.67 20.12,19.69 20.13,19.71 20.14,19.73 20.15,19.75 20.16,19.77 20.16,19.79 20.17,19.8 20.18,19.82 20.19,19.84 20.2,19.86 20.21,19.88 20.22,19.9 20.23,19.92 20.24,19.94 20.25,19.95 20.26,19.97 20.27,19.99 20.27,20.01 20.29,20.06 20.31,20.1 20.33,20.14 20.35,20.18 20.37,20.22 20.38,20.25 20.4,20.28 20.42,20.32 20.44,20.35 20.46,20.38 20.49,20.4 20.51,20.43 20.54,20.46 20.57,20.48 20.61,20.51 20.65,20.54 20.67,20.55 20.68,20.56 20.7,20.58 20.72,20.59 20.74,20.6 20.76,20.61 20.78,20.62 20.8,20.63 20.82,20.65 20.84,20.66 20.86,20.67 20.88,20.68 20.9,20.68 20.92,20.69 20.94,20.7 20.97,20.71 20.99,20.72 21.01,20.73 21.03,20.74 21.05,20.74 21.08,20.75 21.1,20.76 21.12,20.76 21.15,20.77 21.17,20.77 21.19,20.78 21.22,20.78 21.24,20.79 21.27,20.79 21.29,20.8 21.32,20.8 21.34,20.8 21.39,20.81 21.44,20.81 21.49,20.81 21.54,20.81 21.59,20.81 21.63,20.8 21.68,20.79 21.73,20.78 21.77,20.77 21.82,20.76 21.86,20.75 21.9,20.73 21.94,20.71 21.99,20.69 22.03,20.67 22.06,20.65 22.1,20.63 22.14,20.6 22.17,20.58 22.21,20.55 22.24,20.52 22.27,20.49 22.3,20.46 22.33,20.43 22.36,20.4 22.39,20.36 22.41,20.33 22.43,20.3 22.45,20.26 22.47,20.22 22.49,20.19 22.51,20.15 22.48,20.13 22.45,20.12 22.43,20.1 22.4,20.09 22.38,20.08 22.36,20.07 22.34,20.06 22.32,20.05 22.3,20.03 22.29,20.02 22.27,20 22.26,19.99 22.24,19.96 22.23,19.94 22.22,19.91 22.2,19.88 22.22,19.89 22.24,19.9 22.25,19.9 22.27,19.91 22.29,19.92 22.3,19.93 22.32,19.94 22.34,19.95 22.35,19.96 22.37,19.97 22.38,19.98 22.4,19.99 22.41,19.99 22.43,20 22.44,20.01 22.46,20.02 22.48,20.03 22.49,20.04 22.51,20.05 22.52,20.06 22.54,20.07 22.56,20.08 22.58,20.08 22.59,20.09 22.61,20.1 22.63,20.11 22.65,20.12 22.67,20.12 22.69,20.13 22.71,20.14 22.73,20.14 22.75,20.15 22.77,20.15 22.79,20.16 22.81,20.16 22.83,20.16 22.85,20.17 22.87,20.17 22.89,20.17 22.91,20.17 22.94,20.17 22.96,20.17 22.99,20.18 23.01,20.18 23.03,20.18 23.06,20.17 23.08,20.17 23.11,20.17 23.13,20.17 23.16,20.17 23.18,20.17 23.21,20.16 23.23,20.16 23.25,20.16 23.27,20.15 23.29,20.15 23.32,20.14 23.34,20.14 23.35,20.13 23.37,20.13 23.39,20.12 23.4,20.11 23.42,20.11 23.43,20.1 23.42,20.09 23.41,20.08 23.4,20.07 23.39,20.06 23.38,20.05 23.37,20.04 23.36,20.03 23.35,20.02 23.34,20.01 23.34,20 23.33,19.99 23.33,19.97 23.32,19.96 23.32,19.94 23.32,19.92 23.32,19.9 23.32,19.88 23.32,19.86 23.33,19.85 23.33,19.83 23.34,19.81 23.35,19.8 23.35,19.78 23.36,19.77 23.37,19.75 23.38,19.74 23.4,19.73 23.41,19.72 23.42,19.71 23.43,19.71 23.45,19.7 23.46,19.7 23.48,19.7 23.51,19.7 23.53,19.71 23.56,19.72 23.59,19.73 23.62,19.75 23.65,19.76 23.68,19.78 23.72,19.8 23.75,19.81 23.78,19.83 23.81,19.85 23.83,19.86 23.86,19.88 23.88,19.89 23.91,19.9 23.94,19.91 23.97,19.91 24,19.92 24.04,19.93 24.07,19.94 24.11,19.94 24.15,19.94 24.18,19.95 24.22,19.95 24.26,19.95 24.3,19.95 24.33,19.95 24.37,19.95 24.41,19.94 24.45,19.94 24.49,19.93 24.53,19.93 24.56,19.92 24.6,19.92 24.64,19.91 24.67,19.9 24.71,19.89 24.74,19.88 24.77,19.87 24.81,19.86 24.84,19.85 24.87,19.84 24.9,19.83 24.92,19.82 24.95,19.8 24.97,19.79 24.99,19.78 24.96,19.78 24.93,19.78 24.9,19.78 24.87,19.79 24.84,19.79 24.81,19.8 24.78,19.8 24.75,19.8 24.72,19.81 24.68,19.81 24.65,19.81 24.62,19.81 24.58,19.81 24.55,19.81 24.51,19.81 24.47,19.81 24.49,19.77 24.51,19.74 24.52,19.71 24.54,19.68 24.55,19.66 24.56,19.64 24.58,19.62 24.59,19.61 24.61,19.59 24.62,19.58 24.64,19.56 24.66,19.55 24.68,19.53 24.71,19.52 24.74,19.5 24.77,19.48 24.79,19.46 24.81,19.45 24.84,19.43 24.86,19.41 24.88,19.4 24.91,19.38 24.93,19.36 24.95,19.34 24.98,19.33 25,19.31 25.02,19.29 25.04,19.27 25.06,19.25 25.08,19.23 25.1,19.21 25.12,19.19 25.17,19.14 25.21,19.08 25.24,19.02 25.27,18.96 25.3,18.9 25.32,18.84 25.33,18.78 25.34,18.72 25.35,18.66 25.35,18.6 25.35,18.54 25.34,18.48 25.33,18.42 25.32,18.36 25.3,18.3 25.28,18.24 25.26,18.18 25.24,18.13 25.21,18.07 25.18,18.02 25.15,17.97 25.12,17.92 25.08,17.87 25.05,17.83 25.01,17.79 24.97,17.75 24.94,17.71 24.9,17.67 24.86,17.64 24.82,17.61 24.78,17.59 24.75,17.56 24.71,17.54 24.67,17.53 24.64,17.51 24.6,17.5 24.57,17.48 24.53,17.47 24.5,17.46 24.46,17.45 24.43,17.44 24.39,17.44 24.36,17.43 24.33,17.43 24.29,17.42 24.26,17.42 24.22,17.42 24.19,17.42 24.16,17.41 24.12,17.41 24.09,17.41 24.05,17.41 24.02,17.41 23.98,17.41 23.95,17.41 23.91,17.41 23.87,17.41 23.84,17.41 23.8,17.41 23.76,17.41 23.73,17.41 23.69,17.4 23.65,17.4 23.61,17.4 23.59,17.39 23.57,17.38 23.56,17.36 23.55,17.35 23.54,17.33 23.54,17.31 23.53,17.29 23.52,17.27 23.51,17.25 23.5,17.23 23.49,17.21 23.47,17.19 23.44,17.17 23.41,17.15 23.37,17.13 23.33,17.12 23.32,17.11 23.3,17.11 23.3,17.11 23.29,17.1 23.28,17.1 23.27,17.1 23.26,17.1 23.25,17.1 23.24,17.1 23.23,17.1 23.22,17.1 23.22,17.1 23.22,17.1 23.22,17.11 23.21,17.11 23.2,17.11 23.19,17.11 23.19,17.11 23.19,17.11 23.19,17.11 23.19,17.12 23.19,17.12 23.17,17.12 23.15,17.12 23.15,17.09 23.16,17.06 23.17,17.04 23.17,17.02 23.18,17 23.19,16.98 23.2,16.96 23.21,16.94 23.22,16.92 23.22,16.9 23.23,16.87 23.23,16.85 23.22,16.82 23.22,16.78 23.2,16.74 23.19,16.7 23.18,16.68 23.17,16.66 23.16,16.65 23.14,16.63 23.13,16.61 23.12,16.59 23.1,16.57 23.09,16.56 23.07,16.54 23.05,16.53 23.03,16.52 23.01,16.5 22.99,16.49 22.96,16.48 22.94,16.48 22.91,16.47 22.91,16.51 22.92,16.54 22.92,16.57 22.92,16.61 22.92,16.64 22.92,16.66 22.92,16.69 22.92,16.72 22.92,16.74 22.92,16.77 22.93,16.79 22.93,16.81 22.93,16.84 22.93,16.86 22.93,16.87 22.94,16.89 22.94,16.91 22.95,16.93 22.95,16.94 22.96,16.96 22.97,16.97 22.97,16.98 22.98,16.99 23,17 23.01,17.01 23.02,17.02 23.04,17.03 23.06,17.04 23.08,17.05 23.1,17.06 23.12,17.06 23.15,17.07 23.14,17.18 23.13,17.17 23.1,17.16 23.08,17.16 23.06,17.15 23.04,17.14 23.02,17.13 22.99,17.11 22.97,17.1 22.95,17.09 22.93,17.08 22.91,17.07 22.88,17.05 22.86,17.04 22.84,17.03 22.83,17.02 22.81,17.01 22.78,16.99 22.75,16.97 22.73,16.96 22.71,16.94 22.69,16.92 22.67,16.9 22.66,16.88 22.65,16.86 22.64,16.85 22.63,16.83 22.63,16.81 22.63,16.79 22.62,16.77 22.62,16.75 22.62,16.73 22.62,16.71 22.63,16.69 22.63,16.67 22.63,16.64 22.63,16.62 22.63,16.6 22.64,16.58 22.64,16.55 22.64,16.53 22.64,16.51 22.63,16.48 22.63,16.46 22.63,16.43 22.62,16.41 22.61,16.38 22.6,16.35 22.59,16.32 22.58,16.3 22.57,16.28 22.56,16.27 22.54,16.25 22.53,16.23 22.51,16.21 22.5,16.2 22.48,16.18 22.46,16.17 22.44,16.16 22.42,16.15 22.4,16.13 22.37,16.13 22.35,16.12 22.32,16.11 22.29,16.11 22.3,16.18 22.3,16.25 22.31,16.31 22.32,16.37 22.34,16.42 22.35,16.46 22.36,16.5 22.38,16.54 22.39,16.57 22.4,16.59 22.42,16.62 22.44,16.64 22.45,16.66 22.47,16.67 22.48,16.68 22.5,16.69 22.51,16.7 22.53,16.71 22.54,16.72 22.56,16.73 22.57,16.73 22.58,16.74 22.59,16.75 22.6,16.76 22.61,16.77 22.62,16.78 22.63,16.79 22.63,16.81 22.63,16.82 22.64,16.85 22.64,16.87 "/>
    <polygon class="fil6" points="18.48,21.93 18.48,21.95 18.48,21.97 18.48,22 18.48,22.02 18.48,22.04 18.48,22.06 18.48,22.08 18.48,22.09 18.48,22.11 18.48,22.13 18.48,22.15 18.48,22.17 18.48,22.19 18.48,22.21 18.48,22.23 18.48,22.25 18.48,22.27 18.48,22.29 18.48,22.31 18.48,22.33 18.48,22.35 18.48,22.37 18.48,22.39 18.47,22.41 18.47,22.43 18.47,22.45 18.46,22.47 18.46,22.49 18.45,22.51 18.45,22.53 18.44,22.55 18.43,22.57 18.42,22.6 18.41,22.63 18.39,22.66 18.38,22.69 18.36,22.71 18.34,22.74 18.32,22.77 18.3,22.8 18.27,22.83 18.25,22.86 18.23,22.88 18.21,22.91 18.19,22.94 18.17,22.97 18.15,23 18.13,23.03 18.12,23.05 18.11,23.08 18.1,23.11 18.09,23.14 18.09,23.16 18.08,23.19 18.09,23.22 18.09,23.25 18.1,23.27 18.12,23.3 18.14,23.33 18.16,23.35 18.19,23.38 18.22,23.4 18.26,23.43 18.31,23.46 18.32,23.46 18.34,23.47 18.35,23.48 18.37,23.48 18.39,23.49 18.41,23.49 18.43,23.5 18.45,23.51 18.47,23.51 18.49,23.52 18.51,23.52 18.53,23.53 18.56,23.53 18.58,23.53 18.6,23.54 18.63,23.54 18.65,23.54 18.67,23.55 18.7,23.55 18.72,23.55 18.74,23.55 18.76,23.55 18.78,23.55 18.8,23.55 18.82,23.55 18.84,23.55 18.86,23.54 18.88,23.54 18.9,23.54 18.91,23.53 18.93,23.53 18.94,23.52 18.95,23.51 18.95,23.49 18.96,23.47 18.96,23.45 18.96,23.43 18.97,23.41 18.97,23.39 18.97,23.37 18.97,23.34 18.97,23.31 18.97,23.29 18.97,23.26 18.97,23.23 18.97,23.2 18.97,23.17 18.97,23.14 18.97,23.1 18.97,23.07 18.97,23.04 18.97,23 18.97,22.97 18.97,22.94 18.98,22.9 18.98,22.87 18.99,22.84 18.99,22.8 19,22.77 19.01,22.74 19.02,22.7 19.03,22.67 19.04,22.64 19.06,22.61 19.07,22.59 19.08,22.56 19.1,22.54 19.11,22.52 19.12,22.5 19.14,22.48 19.15,22.46 19.16,22.44 19.18,22.41 19.19,22.4 19.21,22.38 19.22,22.36 19.23,22.34 19.25,22.32 19.26,22.3 19.27,22.28 19.29,22.26 19.3,22.24 19.31,22.22 19.32,22.19 19.34,22.17 19.35,22.15 19.36,22.13 19.37,22.1 19.38,22.08 19.39,22.05 19.4,22.03 19.41,22 19.42,21.97 19.43,21.94 19.44,21.91 19.45,21.88 19.42,21.88 19.39,21.88 19.36,21.88 19.33,21.89 19.3,21.89 19.27,21.89 19.25,21.89 19.22,21.9 19.19,21.9 19.16,21.91 19.13,21.91 19.1,21.92 19.08,21.92 19.05,21.92 19.02,21.93 18.99,21.93 18.96,21.94 18.93,21.94 18.89,21.94 18.86,21.95 18.83,21.95 18.8,21.95 18.77,21.95 18.74,21.95 18.71,21.95 18.68,21.95 18.64,21.95 18.61,21.95 18.58,21.94 18.55,21.94 18.51,21.94 "/>
    <polygon class="fil6" points="25.08,20.01 25.03,20.01 24.99,20.01 24.94,20.02 24.9,20.02 24.86,20.02 24.82,20.03 24.77,20.03 24.73,20.03 24.69,20.04 24.65,20.04 24.61,20.04 24.57,20.05 24.53,20.05 24.49,20.05 24.45,20.05 24.41,20.05 24.37,20.04 24.33,20.04 24.28,20.04 24.24,20.03 24.2,20.02 24.16,20.01 24.11,20 24.07,19.99 24.02,19.97 23.98,19.96 23.93,19.94 23.88,19.92 23.84,19.89 23.78,19.87 23.73,19.84 23.68,19.81 23.65,19.79 23.63,19.78 23.6,19.77 23.57,19.76 23.55,19.75 23.52,19.74 23.49,19.74 23.47,19.75 23.45,19.75 23.43,19.76 23.41,19.78 23.39,19.8 23.38,19.82 23.37,19.85 23.37,19.89 23.36,19.93 23.37,19.95 23.37,19.97 23.38,19.99 23.39,20.02 23.4,20.03 23.42,20.05 23.44,20.07 23.46,20.09 23.49,20.1 23.51,20.11 23.54,20.13 23.57,20.14 23.6,20.15 23.63,20.16 23.66,20.17 23.69,20.17 23.73,20.18 23.76,20.19 23.8,20.19 23.84,20.2 23.87,20.2 23.91,20.21 23.94,20.21 23.98,20.21 24.01,20.21 24.05,20.22 24.08,20.22 24.11,20.22 24.14,20.22 24.17,20.22 24.2,20.22 24.23,20.22 24.25,20.21 24.28,20.21 24.31,20.21 24.34,20.21 24.37,20.21 24.39,20.2 24.42,20.2 24.45,20.2 24.48,20.19 24.51,20.19 24.54,20.18 24.57,20.18 24.6,20.17 24.63,20.17 24.66,20.16 24.69,20.16 24.72,20.15 24.75,20.14 24.78,20.14 24.81,20.13 24.83,20.12 24.86,20.11 24.89,20.1 24.91,20.09 24.94,20.08 24.96,20.07 24.98,20.06 25,20.05 25.03,20.04 25.04,20.03 25.06,20.02 "/>
    <polygon class="fil6" points="21.93,17.25 21.96,17.25 22,17.26 22.03,17.26 22.07,17.26 22.1,17.27 22.13,17.27 22.16,17.27 22.19,17.28 22.22,17.28 22.25,17.28 22.28,17.28 22.3,17.28 22.33,17.28 22.36,17.28 22.38,17.28 22.41,17.28 22.43,17.27 22.46,17.27 22.48,17.26 22.5,17.26 22.53,17.25 22.55,17.24 22.57,17.23 22.59,17.22 22.61,17.21 22.63,17.19 22.65,17.18 22.67,17.16 22.69,17.14 22.71,17.12 22.73,17.1 22.75,17.08 22.72,17.07 22.69,17.05 22.66,17.04 22.63,17.03 22.6,17.02 22.57,17.01 22.55,17 22.52,17 22.49,16.99 22.46,16.99 22.44,16.99 22.41,16.99 22.37,16.99 22.34,17 22.3,17.01 22.26,17.02 22.24,17.03 22.21,17.04 22.19,17.05 22.16,17.06 22.14,17.07 22.11,17.08 22.09,17.1 22.07,17.11 22.04,17.13 22.02,17.14 22,17.16 21.99,17.17 21.97,17.19 21.95,17.21 21.94,17.23 "/>
    <polygon class="fil6" points="21.39,16.93 21.4,16.95 21.42,16.96 21.43,16.97 21.45,16.99 21.47,17 21.48,17.01 21.5,17.02 21.52,17.02 21.54,17.03 21.56,17.03 21.58,17.04 21.6,17.04 21.62,17.04 21.64,17.04 21.67,17.04 21.69,17.04 21.71,17.04 21.73,17.03 21.75,17.03 21.78,17.02 21.8,17.02 21.82,17.01 21.84,17 21.86,16.99 21.89,16.99 21.91,16.98 21.93,16.97 21.95,16.96 21.97,16.95 21.99,16.93 22,16.92 22.02,16.91 22.18,16.78 22.18,16.78 22.18,16.78 22.19,16.78 22.19,16.77 22.19,16.77 22.19,16.77 22.19,16.77 22.19,16.77 22.16,16.76 22.12,16.75 22.09,16.74 22.07,16.74 22.04,16.73 22.02,16.73 22,16.72 21.97,16.72 21.95,16.72 21.93,16.72 21.9,16.73 21.88,16.73 21.85,16.74 21.82,16.75 21.79,16.76 21.75,16.77 21.73,16.77 21.71,16.78 21.69,16.79 21.67,16.8 21.64,16.81 21.61,16.82 21.58,16.83 21.56,16.84 21.53,16.85 21.5,16.87 21.48,16.88 21.45,16.89 21.43,16.9 21.42,16.91 21.4,16.92 "/>
    <polygon class="fil6" points="22.02,16.52 22.02,16.5 22.02,16.47 22.01,16.45 22.01,16.42 22,16.39 22,16.36 21.99,16.34 21.98,16.31 21.97,16.28 21.97,16.26 21.96,16.23 21.95,16.21 21.94,16.18 21.93,16.16 21.92,16.13 21.9,16.11 21.89,16.09 21.88,16.07 21.86,16.05 21.85,16.03 21.83,16.01 21.81,16 21.79,15.98 21.77,15.97 21.75,15.96 21.73,15.95 21.7,15.94 21.68,15.93 21.65,15.93 21.62,15.93 21.59,15.93 21.56,15.93 21.57,15.95 21.57,15.97 21.58,16 21.58,16.02 21.59,16.05 21.6,16.07 21.61,16.1 21.62,16.12 21.63,16.15 21.64,16.17 21.65,16.2 21.66,16.22 21.67,16.24 21.68,16.26 21.69,16.28 21.7,16.3 21.72,16.32 21.73,16.34 21.75,16.36 21.76,16.38 21.78,16.4 21.79,16.41 21.81,16.43 21.83,16.44 21.85,16.45 21.87,16.46 21.89,16.47 21.91,16.48 21.94,16.49 21.96,16.5 21.99,16.51 "/>
    <polygon class="fil6" points="20.96,16.6 20.97,16.61 20.98,16.63 20.99,16.64 21.01,16.65 21.02,16.66 21.04,16.67 21.06,16.68 21.07,16.69 21.09,16.69 21.11,16.7 21.13,16.7 21.15,16.71 21.17,16.71 21.2,16.71 21.22,16.71 21.24,16.71 21.27,16.71 21.29,16.7 21.31,16.7 21.34,16.7 21.36,16.69 21.39,16.68 21.41,16.68 21.44,16.67 21.46,16.66 21.49,16.65 21.51,16.64 21.54,16.63 21.57,16.61 21.59,16.6 21.61,16.59 21.64,16.57 21.64,16.57 21.64,16.57 21.64,16.57 21.65,16.57 21.65,16.56 21.65,16.56 21.65,16.56 21.65,16.56 21.68,16.54 21.65,16.53 21.63,16.52 21.61,16.51 21.58,16.5 21.56,16.49 21.54,16.48 21.52,16.47 21.5,16.46 21.48,16.46 21.46,16.45 21.43,16.44 21.41,16.44 21.38,16.44 21.35,16.44 21.31,16.44 21.28,16.45 21.26,16.45 21.23,16.46 21.21,16.46 21.19,16.47 21.17,16.48 21.14,16.49 21.12,16.5 21.1,16.51 21.08,16.52 21.06,16.53 21.04,16.54 21.02,16.55 21,16.56 20.99,16.57 20.97,16.59 "/>
    <polygon class="fil8" points="22.54,19.09 22.53,19.12 22.53,19.15 22.53,19.18 22.54,19.2 22.55,19.22 22.57,19.24 22.59,19.25 22.61,19.26 22.63,19.27 22.65,19.27 22.68,19.28 22.7,19.28 22.72,19.27 22.74,19.27 22.76,19.26 22.77,19.25 22.78,19.23 22.79,19.21 22.79,19.19 22.79,19.17 22.78,19.15 22.77,19.13 22.75,19.12 22.74,19.1 22.71,19.09 22.69,19.08 22.66,19.07 22.64,19.07 22.61,19.07 22.59,19.07 22.56,19.08 "/>
   </g>
  </g>
 </g>
</svg>
