<?xml version="1.0" encoding="UTF-8"?>
<!DOCTYPE svg PUBLIC "-//W3C//DTD SVG 1.1//EN" "http://www.w3.org/Graphics/SVG/1.1/DTD/svg11.dtd">
<!-- Creator: CorelDRAW -->
<svg xmlns="http://www.w3.org/2000/svg" xml:space="preserve" width="63.1953mm" height="40.3804mm" version="1.1" style="shape-rendering:geometricPrecision; text-rendering:geometricPrecision; image-rendering:optimizeQuality; fill-rule:evenodd; clip-rule:evenodd"
viewBox="0 0 197.23 126.03"
 xmlns:xlink="http://www.w3.org/1999/xlink"
 xmlns:xodm="http://www.corel.com/coreldraw/odm/2003">
 <defs>
  <style type="text/css">
   <![CDATA[
    .fil3 {fill:none}
    .fil8 {fill:#030000}
    .fil6 {fill:#33DC76}
    .fil7 {fill:#3A9960}
    .fil0 {fill:#E8B898}
    .fil5 {fill:black;fill-rule:nonzero}
    .fil4 {fill:#33DC76;fill-opacity:0.200000}
    .fil2 {fill:#C48C66;fill-opacity:0.501961}
    .fil1 {fill:#D19C79;fill-opacity:0.501961}
   ]]>
  </style>
   <clipPath id="id0">
    <path d="M9.78 0l177.66 0c5.38,0 9.78,4.4 9.78,9.78l0 106.46c0,5.38 -4.4,9.78 -9.78,9.78l-177.66 0c-5.38,0 -9.78,-4.4 -9.78,-9.78l0 -106.46c0,-5.38 4.4,-9.78 9.78,-9.78z"/>
   </clipPath>
 </defs>
 <g id="Layer_x0020_1">
  <metadata id="CorelCorpID_0Corel-Layer"/>
  <path class="fil0" d="M9.78 0l177.66 0c5.38,0 9.78,4.4 9.78,9.78l0 106.46c0,5.38 -4.4,9.78 -9.78,9.78l-177.66 0c-5.38,0 -9.78,-4.4 -9.78,-9.78l0 -106.46c0,-5.38 4.4,-9.78 9.78,-9.78z"/>
  <g style="clip-path:url(#id0)">
   <g id="_105553314685344">
    <path id="_1" class="fil1" d="M8.08 -5.16c39.43,0 71.4,31.97 71.4,71.4 0,39.43 -31.97,71.4 -71.4,71.4 -39.43,0 -71.4,-31.97 -71.4,-71.4 0,-39.43 31.97,-71.4 71.4,-71.4z"/>
    <path class="fil2" d="M76.71 56.49c34.33,0 62.16,27.83 62.16,62.16 0,34.33 -27.83,62.16 -62.16,62.16 -34.33,0 -62.16,-27.83 -62.16,-62.16 0,-34.33 27.83,-62.16 62.16,-62.16z"/>
   </g>
  </g>
  <path class="fil3" d="M9.78 0l177.66 0c5.38,0 9.78,4.4 9.78,9.78l0 106.46c0,5.38 -4.4,9.78 -9.78,9.78l-177.66 0c-5.38,0 -9.78,-4.4 -9.78,-9.78l0 -106.46c0,-5.38 4.4,-9.78 9.78,-9.78z"/>
  <g id="_105553314685856">
   <path class="fil4" d="M14.03 7.92l13.83 0c2.22,0 4.03,1.81 4.03,4.03l0 13.83c0,2.22 -1.81,4.03 -4.03,4.03l-13.83 0c-2.22,0 -4.03,-1.81 -4.03,-4.03l0 -13.83c0,-2.22 1.81,-4.03 4.03,-4.03z"/>
   <g>
    <path class="fil5" d="M20.85 24.8c3.28,0 5.93,-2.61 5.93,-5.83 0,-3.22 -2.66,-5.83 -5.93,-5.83 -3.28,0 -5.93,2.61 -5.93,5.83 0,3.22 2.66,5.83 5.93,5.83z"/>
    <polygon class="fil6" points="19.41,13.06 19.5,13.05 19.59,13.04 19.69,13.03 19.78,13.03 19.87,13.03 19.97,13.03 20.06,13.04 20.16,13.04 20.26,13.05 20.35,13.06 20.45,13.07 20.54,13.08 20.64,13.1 20.74,13.11 20.83,13.13 20.93,13.15 21.02,13.17 21.11,13.2 21.21,13.22 21.3,13.25 21.39,13.28 21.48,13.3 21.57,13.33 21.65,13.36 21.74,13.4 21.82,13.43 21.9,13.46 21.98,13.5 22.06,13.53 22.14,13.57 22.21,13.61 22.28,13.65 22.32,13.67 22.35,13.69 22.39,13.71 22.42,13.73 22.46,13.75 22.49,13.77 22.53,13.79 22.56,13.81 22.6,13.83 22.63,13.86 22.67,13.88 22.7,13.9 22.73,13.92 22.77,13.94 22.8,13.97 22.83,13.99 22.86,14.01 22.89,14.03 22.92,14.06 22.95,14.08 22.98,14.1 23.01,14.13 23.04,14.15 23.07,14.17 23.1,14.2 23.13,14.22 23.16,14.24 23.19,14.27 23.21,14.29 23.24,14.32 23.27,14.34 23.29,14.36 23.32,14.39 23.35,14.42 23.38,14.45 23.41,14.47 23.43,14.5 23.46,14.52 23.48,14.54 23.5,14.57 23.53,14.59 23.55,14.61 23.57,14.63 23.59,14.66 23.61,14.68 23.63,14.7 23.65,14.72 23.67,14.74 23.69,14.77 23.71,14.79 23.73,14.81 23.75,14.83 23.77,14.85 23.78,14.88 23.8,14.9 23.82,14.93 23.84,14.95 23.86,14.98 23.88,15 23.9,15.03 23.92,15.06 23.94,15.09 23.97,15.12 23.99,15.15 24,15.15 24,15.16 24.01,15.17 24.01,15.18 24.02,15.19 24.02,15.2 24.03,15.2 24.03,15.21 24.07,15.28 24.16,15.38 24.24,15.48 24.32,15.58 24.41,15.69 24.48,15.79 24.56,15.9 24.63,16.01 24.7,16.12 24.77,16.23 24.84,16.35 24.9,16.46 24.96,16.58 25.01,16.7 25.07,16.82 25.12,16.94 25.16,17.07 25.21,17.19 25.25,17.32 25.29,17.45 25.32,17.57 25.35,17.71 25.38,17.84 25.4,17.97 25.42,18.11 25.44,18.24 25.45,18.38 25.46,18.52 25.46,18.66 25.46,18.8 25.46,18.94 25.45,19.09 25.44,19.23 25.42,19.41 25.4,19.58 25.37,19.75 25.33,19.92 25.29,20.09 25.25,20.26 25.19,20.42 25.14,20.58 25.08,20.74 25.01,20.9 24.94,21.06 24.86,21.21 24.78,21.36 24.69,21.5 24.6,21.65 24.51,21.79 24.41,21.92 24.31,22.06 24.2,22.19 24.09,22.31 23.98,22.44 23.86,22.55 23.74,22.67 23.61,22.78 23.48,22.89 23.35,22.99 23.22,23.09 23.08,23.18 22.94,23.27 22.79,23.35 22.64,23.43 22.49,23.51 22.46,23.52 22.43,23.54 22.4,23.55 22.38,23.56 22.35,23.58 22.32,23.59 22.29,23.6 22.26,23.62 22.23,23.63 22.2,23.64 22.17,23.65 22.14,23.66 22.11,23.68 22.08,23.69 22.05,23.7 22.02,23.71 21.99,23.72 21.96,23.73 21.93,23.74 21.9,23.75 21.87,23.76 21.84,23.77 21.8,23.79 21.77,23.8 21.74,23.81 21.71,23.82 21.68,23.83 21.64,23.84 21.61,23.85 21.58,23.86 21.54,23.87 21.51,23.88 21.44,23.89 21.37,23.91 21.3,23.93 21.23,23.94 21.15,23.96 21.08,23.97 21.01,23.98 20.93,23.99 20.86,24 20.78,24.01 20.71,24.02 20.63,24.03 20.55,24.03 20.47,24.04 20.39,24.04 20.32,24.04 20.24,24.04 20.16,24.04 20.08,24.04 20,24.04 19.92,24.04 19.84,24.03 19.77,24.03 19.69,24.02 19.61,24.01 19.53,24 19.45,23.99 19.38,23.98 19.3,23.97 19.22,23.96 19.15,23.94 19.07,23.93 18.98,23.91 18.89,23.89 18.8,23.86 18.72,23.84 18.63,23.81 18.55,23.79 18.47,23.76 18.38,23.73 18.3,23.7 18.22,23.67 18.15,23.64 18.07,23.6 17.99,23.57 17.92,23.53 17.84,23.49 17.77,23.46 17.7,23.42 17.63,23.38 17.56,23.34 17.49,23.29 17.42,23.25 17.35,23.2 17.28,23.16 17.22,23.11 17.15,23.06 17.09,23.02 17.02,22.97 16.96,22.92 16.9,22.86 16.83,22.81 16.77,22.76 16.71,22.7 16.7,22.69 16.69,22.68 16.68,22.67 16.66,22.66 16.65,22.65 16.64,22.64 16.63,22.63 16.62,22.62 16.61,22.61 16.6,22.6 16.58,22.59 16.57,22.57 16.56,22.56 16.55,22.55 16.54,22.54 16.53,22.53 16.51,22.51 16.5,22.5 16.48,22.48 16.46,22.46 16.44,22.44 16.42,22.42 16.4,22.4 16.38,22.37 16.36,22.35 16.34,22.32 16.32,22.3 16.3,22.27 16.28,22.25 16.26,22.22 16.23,22.2 16.21,22.17 16.19,22.14 16.17,22.12 16.15,22.09 16.13,22.06 16.11,22.04 16.09,22.01 16.07,21.99 16.05,21.96 16.03,21.94 16.01,21.91 16,21.89 15.98,21.87 15.97,21.85 15.95,21.83 15.94,21.81 15.92,21.79 15.92,21.77 15.91,21.76 15.9,21.75 15.89,21.74 15.89,21.73 15.88,21.71 15.87,21.7 15.86,21.69 15.86,21.68 15.85,21.67 15.84,21.65 15.83,21.64 15.82,21.63 15.81,21.62 15.8,21.61 15.79,21.6 15.72,21.53 15.7,21.5 15.68,21.47 15.66,21.44 15.64,21.41 15.61,21.39 15.6,21.36 15.58,21.34 15.56,21.31 15.54,21.29 15.52,21.26 15.5,21.23 15.48,21.2 15.46,21.18 15.44,21.14 15.41,21.11 15.39,21.07 15.05,20.5 15.24,21.09 15.26,21.13 15.27,21.17 15.28,21.2 15.3,21.23 15.31,21.27 15.33,21.3 15.34,21.33 15.35,21.36 15.36,21.39 15.38,21.42 15.39,21.44 15.4,21.47 15.41,21.5 15.42,21.53 15.44,21.55 15.45,21.58 15.46,21.61 15.47,21.63 15.49,21.66 15.5,21.69 15.51,21.72 15.53,21.75 15.54,21.77 15.56,21.8 15.58,21.83 15.59,21.87 15.61,21.9 15.63,21.93 15.65,21.96 15.67,22 15.69,22.03 15.72,22.07 15.72,22.08 15.73,22.09 15.74,22.11 15.75,22.12 15.76,22.13 15.76,22.15 15.77,22.16 15.78,22.18 15.79,22.19 15.8,22.2 15.81,22.22 15.81,22.23 15.82,22.24 15.83,22.25 15.84,22.26 15.84,22.27 15.85,22.27 15.87,22.28 15.88,22.29 15.9,22.31 15.93,22.33 15.95,22.36 15.98,22.39 16.01,22.42 16.04,22.45 16.07,22.47 16.09,22.5 16.12,22.53 16.14,22.55 16.16,22.57 16.17,22.59 16.19,22.6 16.21,22.62 16.23,22.64 16.25,22.66 16.28,22.68 16.3,22.7 16.32,22.73 16.35,22.75 16.37,22.77 16.4,22.79 16.42,22.81 16.44,22.83 16.47,22.85 16.49,22.87 16.52,22.89 16.54,22.91 16.57,22.93 16.65,23 16.74,23.06 16.83,23.13 16.91,23.19 17,23.25 17.09,23.3 17.18,23.36 17.27,23.41 17.37,23.47 17.46,23.52 17.55,23.57 17.65,23.62 17.74,23.66 17.84,23.71 17.93,23.75 18.03,23.79 18.13,23.83 18.23,23.87 18.33,23.9 18.44,23.94 18.54,23.97 18.64,24 18.75,24.03 18.85,24.06 18.96,24.08 19.07,24.11 19.18,24.13 19.29,24.15 19.4,24.16 19.52,24.18 19.63,24.19 19.74,24.21 19.85,24.21 19.96,24.22 20.07,24.23 20.18,24.23 20.29,24.23 20.4,24.23 20.51,24.23 20.63,24.22 20.74,24.22 20.85,24.21 20.96,24.2 21.07,24.18 21.18,24.17 21.29,24.15 21.4,24.13 21.51,24.11 21.62,24.09 21.73,24.07 21.84,24.04 21.94,24.01 22.05,23.98 22.16,23.95 22.26,23.92 22.36,23.88 22.47,23.85 22.57,23.81 22.67,23.77 22.77,23.73 22.86,23.68 22.96,23.64 23.05,23.59 23.15,23.54 23.18,23.52 23.22,23.5 23.26,23.48 23.29,23.46 23.33,23.44 23.37,23.42 23.4,23.4 23.44,23.38 23.47,23.36 23.51,23.34 23.54,23.32 23.57,23.3 23.61,23.27 23.64,23.25 23.67,23.23 23.71,23.21 23.74,23.19 23.77,23.17 23.81,23.15 23.84,23.12 23.87,23.1 23.9,23.08 23.94,23.06 23.97,23.03 24,23.01 24.03,22.99 24.06,22.96 24.09,22.94 24.13,22.91 24.16,22.89 24.19,22.86 24.22,22.84 24.26,22.81 24.3,22.77 24.34,22.74 24.39,22.7 24.43,22.66 24.47,22.62 24.51,22.59 24.55,22.55 24.6,22.51 24.64,22.47 24.68,22.43 24.72,22.39 24.76,22.34 24.8,22.3 24.84,22.26 24.88,22.22 24.92,22.17 24.96,22.13 25,22.09 25.04,22.04 25.08,22 25.12,21.95 25.15,21.91 25.19,21.86 25.22,21.82 25.26,21.77 25.29,21.73 25.33,21.68 25.36,21.64 25.39,21.59 25.42,21.55 25.45,21.5 25.49,21.44 25.52,21.38 25.56,21.32 25.6,21.26 25.63,21.2 25.67,21.14 25.71,21.08 25.74,21.02 25.77,20.96 25.81,20.89 25.84,20.83 25.87,20.77 25.9,20.71 25.93,20.65 25.96,20.58 25.99,20.52 26.02,20.45 26.05,20.39 26.07,20.32 26.1,20.25 26.13,20.19 26.15,20.12 26.18,20.05 26.2,19.98 26.22,19.91 26.24,19.84 26.27,19.76 26.29,19.69 26.31,19.61 26.33,19.54 26.34,19.46 26.36,19.38 26.38,19.3 26.4,19.21 26.41,19.13 26.43,19.05 26.44,18.97 26.45,18.89 26.46,18.8 26.47,18.72 26.48,18.64 26.49,18.56 26.49,18.48 26.5,18.4 26.5,18.32 26.5,18.23 26.5,18.15 26.5,18.07 26.5,17.99 26.5,17.91 26.5,17.83 26.5,17.75 26.49,17.67 26.49,17.59 26.48,17.52 26.47,17.44 26.46,17.36 26.45,17.28 26.44,17.2 26.43,17.12 26.42,17.05 26.4,16.97 26.39,16.89 26.37,16.82 26.36,16.75 26.35,16.69 26.33,16.64 26.32,16.58 26.3,16.52 26.29,16.46 26.27,16.41 26.25,16.35 26.24,16.3 26.22,16.24 26.2,16.19 26.18,16.13 26.16,16.08 26.14,16.02 26.12,15.97 26.1,15.92 26.08,15.87 26.06,15.81 26.04,15.76 26.02,15.71 25.99,15.66 25.97,15.61 25.95,15.56 25.92,15.51 25.9,15.45 25.87,15.4 25.85,15.35 25.82,15.3 25.79,15.25 25.76,15.2 25.74,15.15 25.71,15.09 25.7,15.08 25.69,15.07 25.68,15.06 25.67,15.04 25.66,15.03 25.65,15.01 25.64,14.99 25.63,14.98 25.62,14.96 25.61,14.95 25.61,14.93 25.6,14.92 25.6,14.91 25.59,14.9 25.59,14.89 25.59,14.88 25.08,14.35 25.07,14.34 25.06,14.33 25.04,14.31 25.03,14.3 25.01,14.29 24.99,14.27 24.98,14.26 24.96,14.24 24.94,14.22 24.92,14.21 24.9,14.19 24.88,14.17 24.86,14.16 24.84,14.14 24.81,14.12 24.79,14.11 24.77,14.09 24.75,14.07 24.73,14.05 24.71,14.04 24.69,14.02 24.66,14.01 24.64,13.99 24.62,13.98 24.6,13.96 24.58,13.95 24.57,13.93 24.55,13.92 24.53,13.91 24.52,13.9 24.5,13.89 24.49,13.88 24.44,13.85 24.4,13.82 24.36,13.8 24.32,13.77 24.28,13.74 24.23,13.72 24.19,13.69 24.15,13.67 24.11,13.64 24.06,13.61 24.02,13.59 23.97,13.56 23.93,13.54 23.89,13.52 23.84,13.49 23.8,13.47 23.75,13.44 23.71,13.42 23.66,13.4 23.62,13.38 23.57,13.36 23.53,13.33 23.48,13.31 23.43,13.29 23.39,13.27 23.34,13.25 23.29,13.24 23.25,13.22 23.2,13.2 23.15,13.18 23.1,13.17 23.05,13.15 23.01,13.14 22.97,13.12 22.92,13.11 22.88,13.1 22.83,13.08 22.79,13.07 22.75,13.06 22.7,13.05 22.66,13.03 22.62,13.02 22.57,13.01 22.53,13 22.49,12.99 22.44,12.98 22.4,12.97 22.36,12.96 22.31,12.95 22.27,12.94 22.23,12.93 22.19,12.92 22.14,12.91 22.1,12.91 22.06,12.9 22.01,12.89 21.97,12.88 21.93,12.88 21.88,12.87 21.84,12.86 21.8,12.86 21.76,12.85 21.71,12.85 21.67,12.84 21.39,12.82 21.37,12.82 21.35,12.82 21.33,12.82 21.31,12.82 21.29,12.82 21.27,12.82 21.25,12.82 21.22,12.82 21.2,12.82 21.18,12.82 21.16,12.81 21.14,12.81 21.12,12.81 21.1,12.81 21.07,12.81 21.05,12.81 21.03,12.81 21.01,12.81 20.99,12.82 20.97,12.82 20.94,12.82 20.92,12.82 20.9,12.82 20.88,12.82 20.86,12.82 20.83,12.82 20.81,12.82 20.79,12.82 20.77,12.82 20.74,12.82 20.72,12.83 20.7,12.83 20.67,12.83 20.64,12.83 20.62,12.83 20.59,12.83 20.56,12.84 20.53,12.84 20.51,12.84 20.48,12.84 20.45,12.85 20.42,12.85 20.39,12.85 20.36,12.85 20.34,12.86 20.31,12.86 20.28,12.86 20.25,12.87 20.22,12.87 20.19,12.88 20.17,12.88 20.14,12.88 20.11,12.89 20.08,12.89 20.05,12.9 20.03,12.9 20,12.9 19.97,12.91 19.94,12.91 19.92,12.92 19.89,12.92 19.86,12.93 19.84,12.94 19.81,12.94 19.8,12.94 19.78,12.95 19.76,12.95 19.73,12.96 19.7,12.96 19.67,12.97 19.64,12.98 19.61,12.98 19.57,12.99 19.54,13 19.51,13.01 19.49,13.02 19.46,13.03 19.44,13.04 19.42,13.05 "/>
    <polygon class="fil7" points="15.85,22.27 15.89,22.32 15.92,22.38 15.96,22.43 16,22.49 16.04,22.54 16.08,22.6 16.12,22.65 16.17,22.71 16.21,22.76 16.26,22.81 16.3,22.87 16.35,22.92 16.4,22.97 16.45,23.03 16.5,23.08 16.55,23.13 16.6,23.18 16.65,23.23 16.7,23.28 16.75,23.33 16.81,23.38 16.86,23.43 16.91,23.47 16.97,23.52 17.02,23.56 17.08,23.61 17.13,23.65 17.18,23.69 17.24,23.74 17.29,23.78 17.35,23.81 17.4,23.85 17.46,23.89 17.52,23.93 17.58,23.97 17.64,24.01 17.7,24.05 17.76,24.09 17.83,24.12 17.89,24.16 17.95,24.2 18.02,24.23 18.09,24.27 18.16,24.3 18.22,24.34 18.29,24.37 18.36,24.4 18.44,24.43 18.51,24.47 18.58,24.5 18.66,24.53 18.73,24.55 18.81,24.58 18.89,24.61 18.96,24.63 19.04,24.66 19.12,24.68 19.21,24.71 19.29,24.73 19.37,24.75 19.46,24.77 19.54,24.79 19.63,24.8 19.72,24.82 19.74,24.82 19.77,24.83 19.79,24.83 19.82,24.84 19.84,24.84 19.87,24.85 19.9,24.85 19.92,24.86 19.95,24.86 19.98,24.87 20,24.87 20.03,24.88 20.06,24.88 20.08,24.88 20.11,24.89 20.14,24.89 20.47,24.92 20.56,24.93 20.65,24.93 20.74,24.93 20.83,24.93 20.92,24.93 21.01,24.93 21.1,24.92 21.18,24.92 21.27,24.91 21.35,24.91 21.44,24.9 21.52,24.89 21.61,24.88 21.69,24.87 21.77,24.86 21.86,24.84 21.94,24.83 22.02,24.81 22.1,24.8 22.19,24.78 22.27,24.76 22.35,24.74 22.43,24.72 22.51,24.69 22.6,24.67 22.68,24.65 22.76,24.62 22.85,24.59 22.93,24.56 23.02,24.53 23.1,24.5 23.19,24.47 23.26,24.44 23.34,24.41 23.41,24.38 23.49,24.34 23.57,24.31 23.64,24.27 23.72,24.23 23.79,24.19 23.87,24.15 23.94,24.1 24.01,24.06 24.09,24.01 24.16,23.97 24.23,23.92 24.31,23.87 24.38,23.82 24.45,23.77 24.52,23.72 24.59,23.67 24.66,23.61 24.73,23.56 24.79,23.51 24.86,23.45 24.92,23.39 24.99,23.34 25.05,23.28 25.11,23.22 25.18,23.16 25.24,23.11 25.29,23.05 25.35,22.99 25.41,22.93 25.42,22.92 25.43,22.9 25.44,22.89 25.46,22.88 25.47,22.86 25.48,22.85 25.49,22.84 25.5,22.83 25.51,22.81 25.53,22.8 25.54,22.79 25.55,22.77 25.56,22.76 25.57,22.75 25.58,22.73 25.59,22.72 25.62,22.69 25.64,22.67 25.66,22.64 25.68,22.62 25.69,22.6 25.71,22.58 25.73,22.55 25.75,22.53 25.76,22.51 25.78,22.49 25.79,22.47 25.81,22.45 25.82,22.43 25.84,22.41 25.85,22.39 25.87,22.37 25.88,22.35 25.9,22.33 25.91,22.31 25.93,22.29 25.94,22.27 25.95,22.25 25.97,22.23 25.98,22.2 26,22.18 26.02,22.16 26.03,22.13 26.05,22.11 26.07,22.08 26.08,22.05 26.1,22.03 26.12,22 26.2,21.87 26.27,21.74 26.35,21.61 26.41,21.48 26.48,21.35 26.54,21.21 26.6,21.07 26.65,20.93 26.7,20.79 26.75,20.65 26.8,20.51 26.84,20.37 26.87,20.22 26.91,20.08 26.94,19.93 26.96,19.78 26.99,19.64 27,19.49 27.02,19.34 27.03,19.19 27.04,19.04 27.05,18.9 27.05,18.75 27.05,18.6 27.04,18.45 27.03,18.3 27.02,18.16 27,18.01 26.98,17.86 26.96,17.72 26.93,17.57 26.9,17.43 26.88,17.36 26.87,17.29 26.85,17.22 26.83,17.15 26.81,17.08 26.79,17.01 26.77,16.94 26.74,16.87 26.72,16.8 26.7,16.73 26.67,16.66 26.64,16.59 26.62,16.53 26.59,16.46 26.56,16.39 26.53,16.33 26.5,16.26 26.47,16.2 26.44,16.13 26.4,16.07 26.37,16 26.34,15.94 26.3,15.87 26.27,15.81 26.23,15.75 26.19,15.68 26.15,15.62 26.12,15.56 26.08,15.5 26.04,15.44 26,15.38 25.96,15.32 25.94,15.3 25.93,15.29 25.92,15.28 25.91,15.27 25.9,15.25 25.89,15.24 25.88,15.23 25.87,15.21 25.6,14.88 25.6,14.89 25.6,14.9 25.6,14.91 25.61,14.92 25.61,14.93 25.62,14.95 25.63,14.96 25.64,14.98 25.65,14.99 25.66,15.01 25.67,15.03 25.68,15.04 25.69,15.06 25.7,15.07 25.71,15.08 25.71,15.09 25.74,15.15 25.77,15.2 25.8,15.25 25.83,15.3 25.85,15.35 25.88,15.4 25.9,15.45 25.93,15.51 25.95,15.56 25.98,15.61 26,15.66 26.02,15.71 26.05,15.76 26.07,15.81 26.09,15.87 26.11,15.92 26.13,15.97 26.15,16.02 26.17,16.08 26.19,16.13 26.21,16.19 26.23,16.24 26.24,16.3 26.26,16.35 26.28,16.41 26.29,16.46 26.31,16.52 26.32,16.58 26.34,16.64 26.35,16.7 26.37,16.75 26.38,16.82 26.39,16.89 26.41,16.97 26.42,17.05 26.44,17.12 26.45,17.2 26.46,17.28 26.47,17.36 26.48,17.44 26.49,17.52 26.49,17.6 26.5,17.67 26.5,17.75 26.51,17.83 26.51,17.91 26.51,17.99 26.51,18.07 26.51,18.15 26.51,18.24 26.51,18.32 26.5,18.4 26.5,18.48 26.49,18.56 26.48,18.64 26.48,18.72 26.47,18.8 26.46,18.89 26.44,18.97 26.43,19.05 26.42,19.13 26.4,19.21 26.39,19.3 26.37,19.38 26.35,19.46 26.33,19.54 26.31,19.61 26.29,19.69 26.27,19.76 26.25,19.84 26.23,19.91 26.21,19.98 26.18,20.05 26.16,20.12 26.13,20.19 26.11,20.26 26.08,20.32 26.05,20.39 26.03,20.45 26,20.52 25.97,20.58 25.94,20.65 25.91,20.71 25.88,20.77 25.85,20.83 25.81,20.89 25.78,20.96 25.75,21.02 25.71,21.08 25.68,21.14 25.64,21.2 25.61,21.26 25.57,21.32 25.53,21.38 25.49,21.44 25.45,21.5 25.43,21.55 25.4,21.59 25.36,21.64 25.33,21.68 25.3,21.73 25.26,21.77 25.23,21.82 25.19,21.86 25.16,21.91 25.12,21.95 25.08,22 25.05,22.04 25.01,22.09 24.97,22.13 24.93,22.17 24.89,22.22 24.85,22.26 24.81,22.3 24.77,22.34 24.73,22.39 24.68,22.43 24.64,22.47 24.6,22.51 24.56,22.55 24.52,22.59 24.48,22.62 24.43,22.66 24.39,22.7 24.35,22.74 24.31,22.77 24.27,22.81 24.23,22.84 24.2,22.86 24.16,22.89 24.13,22.91 24.1,22.94 24.07,22.96 24.04,22.99 24.01,23.01 23.97,23.03 23.94,23.06 23.91,23.08 23.88,23.1 23.85,23.12 23.81,23.15 23.78,23.17 23.75,23.19 23.71,23.21 23.68,23.23 23.65,23.25 23.61,23.28 23.58,23.3 23.55,23.32 23.51,23.34 23.48,23.36 23.44,23.38 23.41,23.4 23.37,23.42 23.34,23.44 23.3,23.46 23.26,23.48 23.23,23.5 23.19,23.52 23.15,23.54 23.06,23.59 22.97,23.64 22.87,23.68 22.77,23.73 22.67,23.77 22.57,23.81 22.47,23.85 22.37,23.88 22.27,23.92 22.16,23.95 22.06,23.98 21.95,24.01 21.84,24.04 21.74,24.07 21.63,24.09 21.52,24.11 21.41,24.13 21.3,24.15 21.19,24.17 21.08,24.18 20.97,24.2 20.85,24.21 20.74,24.22 20.63,24.22 20.52,24.23 20.41,24.23 20.3,24.23 20.19,24.23 20.08,24.23 19.97,24.22 19.86,24.22 19.75,24.21 19.64,24.19 19.52,24.18 19.41,24.16 19.3,24.15 19.19,24.13 19.08,24.11 18.97,24.08 18.86,24.06 18.76,24.03 18.65,24 18.55,23.97 18.44,23.94 18.34,23.9 18.24,23.87 18.14,23.83 18.04,23.79 17.94,23.75 17.84,23.71 17.75,23.66 17.65,23.62 17.56,23.57 17.46,23.52 17.37,23.47 17.28,23.41 17.19,23.36 17.1,23.3 17.01,23.25 16.92,23.19 16.83,23.13 16.75,23.06 16.66,23 16.58,22.93 16.55,22.91 16.52,22.89 16.5,22.87 16.47,22.85 16.45,22.83 16.43,22.81 16.4,22.79 16.38,22.77 16.35,22.75 16.33,22.73 16.31,22.7 16.28,22.68 16.26,22.66 16.24,22.64 16.21,22.62 16.19,22.6 16.18,22.59 16.17,22.57 16.15,22.55 16.12,22.53 16.1,22.5 16.07,22.47 16.04,22.45 16.02,22.42 15.99,22.39 15.96,22.36 15.93,22.34 15.91,22.31 15.89,22.29 15.87,22.28 15.86,22.27 "/>
    <polygon class="fil7" points="19.41,13.06 19.4,13.06 19.38,13.06 19.36,13.06 19.34,13.06 19.31,13.07 19.28,13.08 19.24,13.09 19.21,13.1 19.17,13.11 19.13,13.12 19.09,13.14 19.05,13.15 19,13.17 18.96,13.19 18.92,13.2 18.87,13.22 18.83,13.24 18.78,13.26 18.74,13.27 18.7,13.29 18.65,13.31 18.61,13.33 18.57,13.34 18.54,13.36 18.5,13.37 18.47,13.39 18.44,13.4 18.41,13.41 18.39,13.42 18.37,13.43 18.35,13.44 18.34,13.45 18.31,13.46 18.28,13.48 18.25,13.49 18.22,13.51 18.19,13.52 18.16,13.54 18.13,13.55 18.1,13.57 18.07,13.59 18.04,13.61 18.01,13.62 17.98,13.64 17.95,13.66 17.91,13.68 17.88,13.7 17.85,13.72 17.82,13.74 17.79,13.75 17.76,13.77 17.72,13.79 17.69,13.81 17.66,13.83 17.63,13.85 17.6,13.87 17.58,13.89 17.55,13.91 17.52,13.93 17.49,13.95 17.47,13.97 17.44,13.99 17.42,14.01 17.39,14.02 16.67,14.63 16.61,14.69 16.55,14.76 16.49,14.82 16.43,14.89 16.36,14.96 16.3,15.03 16.24,15.11 16.18,15.18 16.12,15.26 16.06,15.34 16.01,15.42 15.95,15.5 15.89,15.59 15.84,15.67 15.79,15.76 15.73,15.85 15.68,15.93 15.63,16.02 15.58,16.11 15.54,16.2 15.49,16.29 15.45,16.37 15.41,16.46 15.37,16.55 15.33,16.64 15.29,16.72 15.26,16.81 15.22,16.89 15.19,16.98 15.17,17.06 15.14,17.14 15.12,17.22 14.96,17.88 14.95,17.89 14.95,17.9 14.95,17.91 14.95,17.92 14.95,17.93 14.95,17.94 14.95,17.95 14.95,17.96 14.94,17.97 14.94,17.98 14.94,17.99 14.94,18.01 14.94,18.02 14.94,18.03 14.93,18.04 14.93,18.05 14.93,18.05 14.93,18.06 14.93,18.07 14.93,18.08 14.92,18.09 14.92,18.1 14.92,18.11 14.92,18.12 14.92,18.13 14.91,18.14 14.91,18.15 14.91,18.16 14.91,18.17 14.91,18.18 14.91,18.19 14.9,18.21 14.87,18.52 14.87,18.53 14.87,18.54 14.87,18.55 14.87,18.56 14.87,18.57 14.87,18.58 14.87,18.59 14.87,18.6 14.87,18.62 14.87,18.64 14.87,18.66 14.87,18.68 14.87,18.71 14.87,18.73 14.87,18.75 14.87,18.77 14.86,18.8 14.86,18.82 14.86,18.84 14.86,18.87 14.86,18.89 14.86,18.91 14.86,18.93 14.86,18.95 14.85,18.97 14.85,18.99 14.85,19.01 14.85,19.03 14.85,19.06 14.86,19.08 14.86,19.1 14.86,19.12 14.86,19.14 14.86,19.16 14.86,19.19 14.86,19.21 14.86,19.23 14.86,19.25 14.86,19.27 14.87,19.29 14.87,19.32 14.87,19.35 14.87,19.38 14.87,19.41 14.87,19.45 14.88,19.49 14.88,19.52 14.88,19.56 14.89,19.6 14.89,19.64 14.9,19.68 14.9,19.73 14.91,19.77 14.91,19.81 14.92,19.85 14.93,19.9 14.93,19.94 14.94,19.98 14.95,20.03 14.95,20.07 14.96,20.11 14.97,20.15 14.98,20.19 14.99,20.23 14.99,20.27 15,20.31 15.01,20.34 15.02,20.38 15.03,20.41 15.04,20.44 15.04,20.47 15.05,20.5 15.39,21.07 15.42,21.11 15.44,21.14 15.46,21.17 15.48,21.2 15.5,21.23 15.52,21.26 15.54,21.29 15.56,21.31 15.58,21.34 15.6,21.36 15.62,21.39 15.64,21.41 15.66,21.44 15.68,21.47 15.7,21.5 15.73,21.53 15.8,21.6 15.79,21.58 15.78,21.57 15.78,21.55 15.77,21.53 15.76,21.52 15.75,21.5 15.74,21.48 15.73,21.46 15.72,21.44 15.71,21.42 15.7,21.4 15.69,21.37 15.68,21.35 15.66,21.33 15.65,21.3 15.64,21.28 15.63,21.26 15.61,21.23 15.6,21.2 15.59,21.18 15.57,21.15 15.56,21.12 15.55,21.1 15.53,21.07 15.52,21.04 15.51,21.01 15.49,20.98 15.48,20.95 15.47,20.92 15.45,20.89 15.44,20.86 15.43,20.83 15.36,20.66 15.31,20.48 15.26,20.31 15.21,20.13 15.17,19.95 15.14,19.77 15.12,19.59 15.1,19.41 15.09,19.23 15.08,19.05 15.08,18.87 15.09,18.69 15.1,18.5 15.12,18.32 15.15,18.14 15.18,17.96 15.22,17.79 15.26,17.61 15.32,17.43 15.37,17.26 15.43,17.09 15.5,16.92 15.58,16.75 15.66,16.59 15.74,16.43 15.83,16.27 15.93,16.12 16.04,15.96 16.15,15.81 16.26,15.67 16.38,15.53 16.51,15.39 16.53,15.37 16.55,15.35 16.56,15.33 16.58,15.31 16.6,15.3 16.62,15.28 16.64,15.26 16.66,15.24 16.67,15.22 16.69,15.2 16.71,15.19 16.73,15.17 16.75,15.15 16.77,15.13 16.79,15.11 16.8,15.1 16.82,15.08 16.84,15.06 16.87,15.04 16.89,15.02 16.91,15.01 16.93,14.99 16.95,14.97 16.97,14.96 16.99,14.94 17.01,14.92 17.03,14.91 17.05,14.89 17.07,14.88 17.09,14.86 17.11,14.84 17.14,14.82 17.15,14.81 17.17,14.79 17.19,14.78 17.21,14.77 17.23,14.75 17.25,14.74 17.27,14.72 17.29,14.7 17.31,14.69 17.34,14.67 17.36,14.66 17.38,14.64 17.41,14.62 17.43,14.61 17.46,14.59 17.48,14.57 17.51,14.56 17.54,14.54 17.56,14.53 17.59,14.51 17.61,14.5 17.64,14.48 17.66,14.47 17.68,14.45 17.71,14.44 17.73,14.42 17.75,14.41 17.77,14.4 17.79,14.39 17.81,14.38 17.83,14.37 17.85,14.36 17.93,14.32 18.01,14.27 18.09,14.24 18.17,14.2 18.25,14.16 18.33,14.12 18.42,14.09 18.5,14.06 18.58,14.03 18.67,14 18.75,13.97 18.84,13.94 18.93,13.92 19.01,13.89 19.1,13.87 19.19,13.85 19.28,13.83 19.37,13.81 19.46,13.79 19.55,13.78 19.64,13.77 19.73,13.75 19.82,13.74 19.91,13.73 20,13.73 20.09,13.72 20.19,13.72 20.28,13.72 20.38,13.72 20.47,13.72 20.56,13.72 20.66,13.72 20.78,13.73 20.89,13.74 21.01,13.75 21.12,13.77 21.23,13.79 21.35,13.81 21.46,13.83 21.57,13.86 21.68,13.88 21.79,13.91 21.9,13.95 22.01,13.98 22.11,14.02 22.22,14.06 22.32,14.1 22.43,14.14 22.53,14.19 22.63,14.24 22.73,14.29 22.83,14.34 22.93,14.39 23.02,14.45 23.12,14.51 23.21,14.57 23.3,14.63 23.39,14.7 23.48,14.76 23.57,14.83 23.66,14.9 23.74,14.98 23.83,15.05 23.91,15.13 23.92,15.14 23.93,15.15 23.94,15.16 23.95,15.17 23.96,15.18 23.97,15.19 23.98,15.2 23.99,15.21 24,15.21 24.01,15.22 24.02,15.23 24.03,15.24 24.04,15.25 24.05,15.26 24.06,15.27 24.07,15.28 24.04,15.21 24.03,15.2 24.02,15.19 24.02,15.19 24.01,15.18 24.01,15.17 24,15.16 24,15.15 23.99,15.15 23.97,15.12 23.95,15.09 23.93,15.06 23.91,15.03 23.88,15 23.86,14.98 23.84,14.95 23.83,14.93 23.81,14.9 23.79,14.88 23.77,14.86 23.75,14.83 23.73,14.81 23.71,14.79 23.69,14.77 23.67,14.74 23.65,14.72 23.63,14.7 23.61,14.68 23.59,14.66 23.57,14.63 23.55,14.61 23.53,14.59 23.51,14.57 23.48,14.54 23.46,14.52 23.43,14.5 23.41,14.47 23.38,14.45 23.35,14.42 23.33,14.39 23.3,14.36 23.27,14.34 23.24,14.32 23.22,14.29 23.19,14.27 23.16,14.24 23.13,14.22 23.1,14.2 23.08,14.17 23.05,14.15 23.02,14.13 22.99,14.1 22.96,14.08 22.93,14.06 22.9,14.03 22.86,14.01 22.83,13.99 22.8,13.97 22.77,13.94 22.74,13.92 22.7,13.9 22.67,13.88 22.64,13.86 22.6,13.83 22.57,13.81 22.53,13.79 22.5,13.77 22.46,13.75 22.43,13.73 22.39,13.71 22.36,13.69 22.32,13.67 22.28,13.65 22.21,13.61 22.14,13.57 22.06,13.53 21.99,13.5 21.91,13.46 21.82,13.43 21.74,13.4 21.66,13.36 21.57,13.33 21.48,13.3 21.39,13.28 21.3,13.25 21.21,13.22 21.12,13.2 21.02,13.17 20.93,13.15 20.83,13.13 20.74,13.11 20.64,13.1 20.55,13.08 20.45,13.07 20.35,13.06 20.26,13.05 20.16,13.04 20.07,13.04 19.97,13.03 19.88,13.03 19.78,13.03 19.69,13.03 19.6,13.04 19.5,13.05 "/>
    <polygon class="fil6" points="15.74,19.11 15.75,19.16 15.77,19.21 15.79,19.25 15.81,19.28 15.84,19.31 15.87,19.34 15.9,19.36 15.94,19.37 15.98,19.38 16.02,19.39 16.07,19.39 16.12,19.39 16.17,19.39 16.22,19.38 16.27,19.38 16.32,19.37 16.37,19.35 16.43,19.34 16.48,19.32 16.53,19.31 16.59,19.29 16.64,19.27 16.69,19.25 16.74,19.23 16.78,19.21 16.83,19.2 16.87,19.18 16.91,19.16 16.94,19.15 16.97,19.13 17,19.12 17.03,19.11 17.03,19.14 17.03,19.17 17.03,19.21 17.03,19.25 17.03,19.3 17.02,19.34 17.02,19.39 17.02,19.44 17.02,19.5 17.02,19.56 17.01,19.62 17.01,19.67 17.01,19.74 17,19.8 17,19.86 17,19.92 16.99,19.99 16.99,20.05 16.98,20.11 16.98,20.17 16.98,20.23 16.97,20.29 16.97,20.34 16.96,20.4 16.96,20.45 16.95,20.5 16.95,20.54 16.94,20.59 16.94,20.63 16.93,20.66 16.92,20.69 16.92,20.72 16.91,20.74 16.91,20.77 16.9,20.79 16.9,20.81 16.89,20.83 16.88,20.85 16.88,20.88 16.87,20.9 16.86,20.92 16.86,20.94 16.85,20.95 16.84,20.97 16.83,20.99 16.82,21.01 16.81,21.03 16.81,21.05 16.8,21.06 16.79,21.08 16.78,21.1 16.77,21.12 16.76,21.13 16.75,21.15 16.74,21.17 16.73,21.18 16.72,21.2 16.71,21.22 16.7,21.23 16.69,21.25 16.68,21.27 16.66,21.29 16.65,21.3 16.64,21.32 16.63,21.34 16.62,21.35 16.61,21.37 16.6,21.39 16.59,21.41 16.58,21.43 16.57,21.45 16.57,21.47 16.56,21.49 16.55,21.51 16.54,21.53 16.53,21.55 16.52,21.58 16.51,21.6 16.5,21.62 16.5,21.65 16.49,21.67 16.48,21.7 16.48,21.72 16.47,21.74 16.47,21.77 16.47,21.79 16.46,21.81 16.46,21.84 16.46,21.86 16.46,21.88 16.46,21.91 16.46,21.93 16.46,21.95 16.46,21.97 16.47,21.99 16.47,22.01 16.49,22.02 16.5,22.04 16.52,22.05 16.53,22.07 16.55,22.08 16.57,22.09 16.58,22.1 16.6,22.12 16.62,22.13 16.64,22.14 16.66,22.15 16.68,22.17 16.71,22.18 16.73,22.19 16.75,22.2 16.77,22.21 16.8,22.22 16.82,22.23 16.85,22.23 16.87,22.24 16.9,22.25 16.92,22.26 16.95,22.26 16.97,22.27 17,22.27 17.02,22.28 17.05,22.28 17.08,22.28 17.1,22.29 17.13,22.29 17.15,22.29 17.18,22.29 17.24,22.28 17.29,22.28 17.33,22.27 17.36,22.25 17.39,22.23 17.41,22.21 17.43,22.19 17.44,22.16 17.45,22.14 17.45,22.1 17.45,22.07 17.45,22.03 17.44,21.99 17.43,21.95 17.42,21.91 17.41,21.86 17.4,21.81 17.39,21.76 17.38,21.71 17.37,21.66 17.37,21.6 17.36,21.55 17.36,21.49 17.36,21.43 17.37,21.37 17.38,21.3 17.4,21.24 17.42,21.18 17.44,21.11 17.48,21.05 17.52,20.98 17.57,20.91 17.58,20.89 17.59,20.88 17.6,20.86 17.62,20.85 17.63,20.83 17.64,20.81 17.66,20.8 17.67,20.78 17.69,20.77 17.7,20.75 17.71,20.74 17.73,20.72 17.74,20.71 17.76,20.69 17.77,20.68 17.78,20.66 17.8,20.65 17.81,20.63 17.83,20.62 17.84,20.6 17.86,20.59 17.87,20.57 17.89,20.55 17.9,20.54 17.92,20.52 17.94,20.5 17.95,20.48 17.97,20.47 17.98,20.45 18,20.43 18.02,20.41 18.03,20.39 18.05,20.39 18.07,20.39 18.1,20.39 18.12,20.39 18.14,20.39 18.17,20.39 18.2,20.39 18.22,20.4 18.25,20.4 18.28,20.4 18.31,20.4 18.34,20.4 18.37,20.4 18.4,20.41 18.43,20.41 18.46,20.41 18.49,20.41 18.52,20.41 18.55,20.41 18.58,20.41 18.6,20.41 18.63,20.42 18.66,20.42 18.68,20.42 18.71,20.42 18.73,20.42 18.76,20.42 18.78,20.41 18.8,20.41 18.82,20.41 18.84,20.41 18.86,20.41 18.88,20.4 18.9,20.4 18.92,20.4 18.94,20.39 18.96,20.39 18.98,20.38 19,20.38 19.03,20.37 19.05,20.37 19.07,20.36 19.09,20.36 19.11,20.35 19.13,20.35 19.16,20.34 19.18,20.34 19.2,20.33 19.22,20.33 19.24,20.32 19.26,20.32 19.29,20.31 19.31,20.31 19.33,20.3 19.35,20.3 19.37,20.29 19.39,20.29 19.41,20.28 19.43,20.28 19.46,20.28 19.48,20.27 19.5,20.27 19.52,20.27 19.54,20.27 19.54,20.27 19.54,20.28 19.55,20.3 19.55,20.32 19.56,20.34 19.56,20.37 19.57,20.4 19.57,20.43 19.58,20.46 19.59,20.5 19.59,20.54 19.6,20.58 19.61,20.62 19.62,20.66 19.62,20.71 19.63,20.75 19.64,20.79 19.65,20.84 19.65,20.88 19.66,20.92 19.67,20.97 19.67,21.01 19.68,21.04 19.68,21.08 19.69,21.11 19.69,21.15 19.7,21.18 19.7,21.2 19.7,21.23 19.71,21.25 19.71,21.26 19.71,21.27 19.71,21.31 19.71,21.35 19.71,21.38 19.71,21.42 19.7,21.45 19.7,21.49 19.69,21.52 19.68,21.56 19.68,21.59 19.67,21.63 19.66,21.66 19.65,21.69 19.64,21.73 19.63,21.76 19.62,21.79 19.61,21.83 19.6,21.86 19.59,21.9 19.57,21.93 19.56,21.96 19.55,22 19.54,22.03 19.53,22.06 19.52,22.1 19.51,22.13 19.5,22.17 19.49,22.21 19.49,22.24 19.48,22.28 19.47,22.32 19.47,22.35 19.46,22.39 19.5,22.41 19.54,22.43 19.57,22.44 19.6,22.46 19.63,22.48 19.66,22.49 19.69,22.51 19.72,22.52 19.74,22.53 19.77,22.54 19.79,22.56 19.82,22.57 19.84,22.57 19.87,22.58 19.89,22.59 19.92,22.6 19.94,22.6 19.97,22.6 19.99,22.6 20.02,22.6 20.05,22.6 20.08,22.6 20.11,22.59 20.15,22.59 20.18,22.58 20.22,22.57 20.26,22.56 20.31,22.54 20.35,22.53 20.4,22.51 20.45,22.49 20.51,22.46 20.51,22.45 20.51,22.44 20.51,22.42 20.51,22.4 20.51,22.38 20.51,22.36 20.51,22.33 20.5,22.3 20.5,22.27 20.5,22.24 20.49,22.21 20.49,22.17 20.49,22.14 20.48,22.1 20.48,22.06 20.47,22.02 20.47,21.99 20.46,21.95 20.46,21.91 20.46,21.87 20.45,21.83 20.45,21.79 20.44,21.76 20.44,21.72 20.44,21.68 20.43,21.65 20.43,21.61 20.43,21.58 20.42,21.55 20.42,21.52 20.42,21.49 20.42,21.47 20.42,21.43 20.42,21.4 20.41,21.36 20.41,21.33 20.41,21.29 20.41,21.26 20.41,21.22 20.41,21.19 20.41,21.15 20.41,21.12 20.42,21.08 20.42,21.05 20.42,21.01 20.42,20.98 20.42,20.94 20.42,20.91 20.42,20.87 20.43,20.84 20.43,20.8 20.43,20.77 20.44,20.73 20.44,20.7 20.44,20.66 20.44,20.62 20.45,20.59 20.45,20.55 20.46,20.52 20.46,20.48 20.46,20.45 20.47,20.41 20.47,20.38 20.48,20.34 20.5,20.35 20.52,20.36 20.55,20.37 20.57,20.38 20.6,20.39 20.62,20.41 20.65,20.42 20.67,20.44 20.7,20.46 20.72,20.47 20.75,20.49 20.77,20.51 20.8,20.53 20.82,20.55 20.84,20.58 20.87,20.6 20.89,20.62 20.91,20.64 20.93,20.67 20.95,20.69 20.96,20.72 20.98,20.74 20.99,20.77 21.01,20.79 21.02,20.82 21.02,20.84 21.03,20.87 21.04,20.89 21.04,20.92 21.04,20.94 21.04,20.97 21.03,20.99 21.02,20.99 21.01,20.99 20.99,20.99 20.96,20.99 20.93,20.99 20.9,20.99 20.86,20.99 20.83,20.99 20.79,20.99 20.76,20.99 20.73,21 20.7,21 20.67,21 20.65,21.01 20.64,21.01 20.63,21.02 20.63,21.02 20.62,21.03 20.62,21.05 20.62,21.06 20.61,21.09 20.61,21.11 20.6,21.14 20.6,21.17 20.6,21.2 20.59,21.24 20.59,21.27 20.59,21.31 20.59,21.35 20.59,21.39 20.59,21.43 20.59,21.47 20.6,21.51 20.6,21.55 20.61,21.59 20.62,21.63 20.64,21.66 20.65,21.7 20.67,21.73 20.69,21.76 20.71,21.78 20.74,21.81 20.77,21.83 20.8,21.84 20.84,21.85 20.88,21.86 20.92,21.86 20.97,21.86 21.01,21.85 21.06,21.84 21.1,21.82 21.14,21.8 21.19,21.78 21.23,21.75 21.27,21.73 21.31,21.69 21.35,21.66 21.39,21.62 21.43,21.58 21.47,21.54 21.5,21.5 21.54,21.46 21.57,21.41 21.6,21.37 21.63,21.32 21.66,21.27 21.69,21.23 21.71,21.18 21.74,21.14 21.76,21.09 21.78,21.05 21.79,21 21.81,20.96 21.82,20.92 21.83,20.88 21.84,20.85 21.84,20.81 21.84,20.78 21.84,20.76 21.84,20.73 21.83,20.71 21.83,20.69 21.82,20.67 21.8,20.65 21.79,20.63 21.77,20.61 21.75,20.59 21.73,20.57 21.71,20.55 21.69,20.53 21.67,20.51 21.65,20.49 21.62,20.47 21.6,20.45 21.57,20.43 21.55,20.4 21.53,20.38 21.51,20.36 21.48,20.33 21.46,20.31 21.44,20.28 21.43,20.26 21.41,20.23 21.39,20.2 21.38,20.17 21.37,20.15 21.36,20.11 21.36,20.08 21.35,20.05 21.35,20.02 21.36,19.98 21.36,19.95 21.37,19.93 21.37,19.91 21.37,19.9 21.38,19.88 21.38,19.87 21.39,19.85 21.4,19.84 21.4,19.82 21.41,19.81 21.41,19.79 21.42,19.78 21.43,19.76 21.43,19.75 21.44,19.73 21.45,19.72 21.45,19.7 21.46,19.69 21.47,19.67 21.47,19.66 21.48,19.64 21.49,19.62 21.49,19.61 21.5,19.59 21.5,19.58 21.51,19.56 21.52,19.55 21.52,19.53 21.53,19.51 21.53,19.5 21.53,19.48 21.54,19.46 21.54,19.44 21.5,19.44 21.46,19.43 21.43,19.43 21.39,19.43 21.35,19.42 21.31,19.42 21.27,19.42 21.23,19.42 21.19,19.41 21.15,19.41 21.11,19.41 21.07,19.41 21.03,19.41 21,19.41 20.96,19.41 20.92,19.4 20.88,19.4 20.84,19.4 20.81,19.39 20.77,19.39 20.73,19.38 20.69,19.38 20.66,19.37 20.62,19.36 20.59,19.35 20.55,19.34 20.52,19.32 20.48,19.31 20.45,19.29 20.42,19.28 20.38,19.26 20.35,19.23 20.33,19.22 20.31,19.2 20.29,19.18 20.27,19.16 20.25,19.14 20.23,19.12 20.21,19.1 20.19,19.07 20.18,19.05 20.16,19.03 20.15,19 20.13,18.97 20.12,18.95 20.1,18.92 20.09,18.9 20.07,18.87 20.06,18.84 20.05,18.81 20.04,18.79 20.02,18.76 20.01,18.73 20,18.7 19.99,18.67 19.97,18.64 19.96,18.61 19.95,18.59 19.94,18.56 19.92,18.53 19.91,18.5 19.9,18.47 19.88,18.44 19.87,18.42 19.86,18.4 19.84,18.37 19.83,18.35 19.82,18.32 19.8,18.29 19.78,18.26 19.77,18.23 19.76,18.2 19.74,18.17 19.73,18.14 19.72,18.11 19.71,18.08 19.71,18.05 19.7,18.02 19.71,17.99 19.71,17.96 19.73,17.9 19.74,17.84 19.76,17.78 19.77,17.73 19.79,17.68 19.8,17.64 19.82,17.6 19.83,17.56 19.85,17.53 19.86,17.49 19.87,17.47 19.88,17.44 19.88,17.42 19.89,17.4 19.89,17.38 19.89,17.36 19.89,17.35 19.89,17.33 19.88,17.32 19.87,17.31 19.86,17.3 19.84,17.29 19.82,17.28 19.8,17.27 19.77,17.26 19.74,17.25 19.7,17.25 19.66,17.24 19.62,17.23 19.57,17.22 19.51,17.21 19.45,17.19 19.39,17.18 19.33,17.17 19.28,17.16 19.22,17.15 19.16,17.14 19.11,17.14 19.05,17.13 19,17.13 18.95,17.12 18.89,17.12 18.84,17.12 18.79,17.12 18.74,17.12 18.69,17.13 18.64,17.13 18.59,17.14 18.54,17.14 18.5,17.15 18.45,17.16 18.4,17.17 18.35,17.19 18.31,17.2 18.26,17.22 18.21,17.23 18.16,17.25 18.12,17.27 18.07,17.3 18.02,17.32 17.98,17.35 17.93,17.37 17.88,17.4 17.83,17.44 17.81,17.45 17.79,17.47 17.77,17.48 17.75,17.5 17.73,17.52 17.71,17.54 17.69,17.57 17.66,17.59 17.64,17.61 17.62,17.64 17.6,17.66 17.58,17.69 17.56,17.71 17.54,17.74 17.52,17.77 17.5,17.8 17.49,17.83 17.47,17.85 17.45,17.88 17.43,17.91 17.41,17.94 17.4,17.97 17.38,18 17.37,18.03 17.35,18.05 17.34,18.08 17.32,18.11 17.31,18.14 17.3,18.16 17.28,18.19 17.27,18.21 17.26,18.24 17.25,18.27 17.23,18.31 17.22,18.35 17.21,18.38 17.19,18.42 17.18,18.45 17.17,18.49 17.16,18.52 17.15,18.55 17.14,18.58 17.13,18.61 17.12,18.65 17.11,18.68 17.1,18.7 17.09,18.73 17.08,18.76 17.07,18.79 17.05,18.82 17.04,18.84 17.03,18.87 17.01,18.89 16.99,18.92 16.98,18.94 16.96,18.96 16.94,18.98 16.92,19 16.89,19.02 16.87,19.04 16.84,19.06 16.82,19.08 16.79,19.1 16.75,19.11 16.7,19.14 16.65,19.16 16.61,19.18 16.56,19.2 16.53,19.21 16.49,19.22 16.46,19.23 16.43,19.24 16.4,19.25 16.37,19.25 16.35,19.26 16.33,19.26 16.31,19.26 16.29,19.26 16.27,19.26 16.26,19.25 16.25,19.25 16.23,19.24 16.22,19.24 16.21,19.23 16.2,19.22 16.19,19.21 16.18,19.21 16.17,19.2 16.16,19.19 16.15,19.18 16.13,19.17 16.12,19.16 16.11,19.15 16.09,19.15 16.08,19.14 16.06,19.13 16.04,19.13 16.02,19.12 16,19.12 15.98,19.11 15.96,19.11 15.94,19.11 15.92,19.11 15.9,19.11 15.88,19.11 15.86,19.11 15.84,19.11 15.82,19.11 15.8,19.11 15.78,19.11 15.76,19.11 "/>
    <polygon class="fil6" points="22.24,15.75 22.21,15.74 22.19,15.73 22.17,15.72 22.14,15.71 22.12,15.7 22.1,15.69 22.08,15.67 22.05,15.66 22.03,15.65 22.01,15.64 21.99,15.63 21.97,15.61 21.95,15.6 21.93,15.59 21.91,15.58 21.88,15.56 21.86,15.55 21.84,15.54 21.82,15.53 21.79,15.52 21.77,15.51 21.75,15.5 21.72,15.49 21.7,15.48 21.67,15.47 21.65,15.47 21.62,15.46 21.59,15.45 21.56,15.45 21.53,15.44 21.5,15.44 21.47,15.44 21.49,15.44 21.51,15.45 21.53,15.46 21.55,15.47 21.57,15.47 21.6,15.48 21.63,15.49 21.65,15.5 21.68,15.51 21.71,15.52 21.75,15.53 21.78,15.54 21.81,15.56 21.84,15.57 21.87,15.59 21.91,15.61 21.91,15.62 21.91,15.63 21.92,15.62 21.92,15.62 21.92,15.61 21.92,15.61 21.91,15.61 21.9,15.63 21.89,15.64 21.88,15.64 21.87,15.64 21.87,15.63 21.87,15.63 21.87,15.63 21.88,15.63 21.89,15.64 21.9,15.65 21.92,15.65 21.93,15.65 21.95,15.66 21.97,15.66 21.98,15.67 22,15.68 22.02,15.68 22.03,15.69 22.05,15.7 22.07,15.7 22.09,15.71 22.11,15.72 22.12,15.73 22.14,15.74 22.16,15.75 22.18,15.76 22.19,15.77 22.21,15.78 22.23,15.79 22.24,15.8 22.26,15.81 22.27,15.82 22.29,15.83 22.3,15.84 22.32,15.84 22.33,15.85 22.34,15.86 22.35,15.87 22.36,15.88 22.37,15.89 22.38,15.9 22.69,16.06 22.69,16.12 22.69,16.18 22.7,16.23 22.71,16.28 22.73,16.32 22.75,16.36 22.77,16.39 22.8,16.42 22.83,16.44 22.86,16.46 22.89,16.48 22.93,16.49 22.97,16.5 23.01,16.51 23.05,16.51 23.1,16.52 23.15,16.52 23.19,16.52 23.24,16.52 23.29,16.52 23.34,16.53 23.39,16.53 23.44,16.53 23.49,16.53 23.54,16.53 23.6,16.54 23.65,16.55 23.69,16.56 23.74,16.57 23.79,16.58 23.84,16.6 23.88,16.62 23.9,16.63 23.91,16.64 23.93,16.65 23.94,16.67 23.96,16.68 23.97,16.69 23.99,16.7 24,16.72 24.01,16.73 24.03,16.75 24.04,16.76 24.05,16.78 24.06,16.8 24.07,16.81 24.08,16.83 24.09,16.85 24.1,16.87 24.1,16.89 24.11,16.91 24.12,16.93 24.12,16.95 24.13,16.97 24.13,16.99 24.13,17.02 24.13,17.04 24.13,17.06 24.13,17.08 24.13,17.11 24.13,17.13 24.12,17.16 24.12,17.18 24.11,17.2 24.1,17.24 24.08,17.28 24.06,17.32 24.04,17.36 24.02,17.39 23.99,17.42 23.97,17.45 23.94,17.48 23.91,17.51 23.88,17.54 23.84,17.56 23.81,17.58 23.77,17.6 23.74,17.61 23.71,17.63 23.67,17.64 23.64,17.64 23.62,17.65 23.59,17.66 23.56,17.66 23.54,17.66 23.51,17.66 23.49,17.66 23.47,17.66 23.44,17.66 23.42,17.66 23.4,17.65 23.38,17.65 23.36,17.64 23.34,17.64 23.32,17.63 23.3,17.62 23.29,17.62 23.27,17.61 23.25,17.6 23.23,17.59 23.22,17.58 23.2,17.56 23.19,17.55 23.17,17.54 23.15,17.53 23.14,17.51 23.12,17.5 23.11,17.49 23.09,17.47 23.08,17.46 23.06,17.45 23.05,17.43 23.04,17.42 23.02,17.41 23.01,17.4 23,17.39 22.99,17.38 22.97,17.36 22.96,17.35 22.94,17.34 22.93,17.32 22.91,17.31 22.9,17.3 22.88,17.28 22.87,17.27 22.85,17.26 22.84,17.24 22.82,17.23 22.8,17.22 22.79,17.2 22.77,17.19 22.76,17.18 22.74,17.17 22.72,17.15 22.71,17.14 22.69,17.13 22.67,17.12 22.66,17.11 22.64,17.1 22.63,17.08 22.61,17.07 22.6,17.06 22.58,17.06 22.57,17.05 22.52,17.02 22.48,17 22.43,16.98 22.39,16.96 22.35,16.94 22.3,16.92 22.26,16.91 22.22,16.89 22.17,16.88 22.13,16.87 22.09,16.86 22.05,16.86 22.01,16.85 21.96,16.85 21.92,16.85 21.88,16.85 21.84,16.85 21.8,16.85 21.76,16.85 21.71,16.86 21.67,16.86 21.63,16.87 21.59,16.88 21.55,16.89 21.5,16.9 21.46,16.91 21.42,16.93 21.38,16.94 21.33,16.96 21.29,16.98 21.25,16.99 21.2,17.01 21.16,17.03 21.13,17.05 21.09,17.06 21.06,17.08 21.03,17.09 21.01,17.11 20.98,17.12 20.96,17.13 20.94,17.15 20.93,17.16 20.91,17.17 20.9,17.18 20.88,17.19 20.87,17.2 20.86,17.21 20.85,17.21 20.84,17.22 20.83,17.22 20.82,17.23 20.81,17.23 20.8,17.24 20.79,17.24 20.78,17.24 20.76,17.24 20.75,17.24 20.74,17.24 20.72,17.24 20.7,17.24 20.69,17.23 20.67,17.23 20.65,17.22 20.62,17.22 20.56,17.2 20.5,17.19 20.44,17.19 20.38,17.18 20.33,17.19 20.28,17.19 20.23,17.2 20.19,17.22 20.15,17.23 20.11,17.25 20.07,17.27 20.04,17.3 20.01,17.33 19.98,17.36 19.95,17.39 19.93,17.42 19.9,17.46 19.88,17.5 19.86,17.53 19.85,17.57 19.83,17.62 19.82,17.66 19.81,17.7 19.8,17.74 19.8,17.78 19.79,17.83 19.79,17.87 19.79,17.91 19.79,17.95 19.79,18 19.79,18.04 19.8,18.07 19.8,18.09 19.81,18.11 19.81,18.13 19.81,18.15 19.82,18.17 19.83,18.19 19.83,18.21 19.84,18.23 19.85,18.25 19.85,18.27 19.86,18.28 19.87,18.3 19.88,18.32 19.88,18.34 19.89,18.36 19.9,18.37 19.91,18.39 19.92,18.41 19.93,18.43 19.94,18.44 19.95,18.46 19.95,18.48 19.96,18.5 19.97,18.51 19.98,18.53 19.99,18.55 20,18.57 20.01,18.58 20.02,18.6 20.02,18.62 20.03,18.64 20.04,18.66 20.06,18.7 20.07,18.74 20.09,18.78 20.11,18.81 20.12,18.85 20.14,18.88 20.16,18.91 20.18,18.94 20.2,18.97 20.22,18.99 20.24,19.02 20.26,19.05 20.29,19.07 20.32,19.1 20.35,19.12 20.39,19.15 20.4,19.16 20.42,19.17 20.44,19.18 20.46,19.19 20.47,19.2 20.49,19.22 20.51,19.23 20.53,19.24 20.55,19.25 20.57,19.26 20.58,19.27 20.6,19.27 20.62,19.28 20.64,19.29 20.66,19.3 20.68,19.31 20.7,19.32 20.72,19.32 20.74,19.33 20.77,19.34 20.79,19.34 20.81,19.35 20.83,19.36 20.85,19.36 20.87,19.37 20.9,19.37 20.92,19.38 20.94,19.38 20.96,19.38 20.99,19.39 21.01,19.39 21.04,19.39 21.08,19.4 21.13,19.4 21.17,19.4 21.22,19.4 21.26,19.4 21.31,19.39 21.35,19.38 21.39,19.38 21.43,19.36 21.48,19.35 21.52,19.34 21.56,19.32 21.6,19.31 21.63,19.29 21.67,19.27 21.71,19.25 21.74,19.23 21.78,19.21 21.81,19.18 21.84,19.16 21.87,19.13 21.9,19.1 21.93,19.07 21.96,19.05 21.98,19.02 22.01,18.98 22.03,18.95 22.05,18.92 22.07,18.89 22.09,18.85 22.11,18.82 22.12,18.78 22.09,18.77 22.07,18.75 22.04,18.74 22.02,18.73 22,18.72 21.98,18.71 21.96,18.7 21.95,18.69 21.93,18.68 21.92,18.66 21.9,18.65 21.89,18.63 21.87,18.61 21.86,18.59 21.85,18.56 21.84,18.53 21.85,18.54 21.87,18.55 21.88,18.56 21.9,18.56 21.92,18.57 21.93,18.58 21.95,18.59 21.96,18.6 21.97,18.61 21.99,18.61 22,18.62 22.02,18.63 22.03,18.64 22.05,18.65 22.06,18.66 22.08,18.67 22.09,18.67 22.11,18.68 22.12,18.69 22.14,18.7 22.15,18.71 22.17,18.72 22.18,18.72 22.2,18.73 22.22,18.74 22.23,18.75 22.25,18.75 22.27,18.76 22.29,18.77 22.31,18.77 22.33,18.78 22.35,18.78 22.36,18.79 22.38,18.79 22.4,18.79 22.42,18.8 22.44,18.8 22.46,18.8 22.48,18.8 22.5,18.81 22.52,18.81 22.54,18.81 22.57,18.81 22.59,18.81 22.61,18.81 22.63,18.81 22.66,18.81 22.68,18.81 22.7,18.8 22.73,18.8 22.75,18.8 22.77,18.8 22.79,18.79 22.81,18.79 22.83,18.79 22.85,18.78 22.87,18.78 22.89,18.77 22.91,18.77 22.93,18.76 22.94,18.76 22.96,18.75 22.97,18.74 22.98,18.74 22.97,18.73 22.96,18.72 22.95,18.71 22.94,18.7 22.93,18.69 22.92,18.68 22.92,18.67 22.91,18.66 22.9,18.65 22.89,18.64 22.89,18.63 22.88,18.62 22.88,18.6 22.88,18.59 22.88,18.57 22.88,18.55 22.88,18.54 22.88,18.52 22.88,18.5 22.89,18.48 22.9,18.47 22.9,18.45 22.91,18.44 22.92,18.43 22.93,18.41 22.94,18.4 22.95,18.39 22.96,18.38 22.97,18.38 22.98,18.37 23,18.37 23.01,18.36 23.03,18.36 23.05,18.37 23.08,18.37 23.1,18.38 23.13,18.39 23.16,18.41 23.19,18.42 23.22,18.44 23.25,18.45 23.28,18.47 23.3,18.49 23.33,18.5 23.36,18.52 23.38,18.53 23.4,18.54 23.42,18.55 23.45,18.56 23.48,18.57 23.51,18.57 23.55,18.58 23.58,18.58 23.61,18.59 23.65,18.59 23.68,18.59 23.72,18.6 23.75,18.6 23.79,18.6 23.82,18.6 23.86,18.59 23.89,18.59 23.93,18.59 23.97,18.58 24,18.58 24.04,18.57 24.07,18.57 24.1,18.56 24.14,18.55 24.17,18.55 24.2,18.54 24.23,18.53 24.26,18.52 24.29,18.51 24.32,18.5 24.35,18.49 24.37,18.47 24.4,18.46 24.42,18.45 24.44,18.44 24.41,18.44 24.38,18.44 24.35,18.44 24.32,18.45 24.29,18.45 24.26,18.45 24.23,18.46 24.21,18.46 24.18,18.47 24.15,18.47 24.12,18.47 24.09,18.47 24.06,18.47 24.02,18.47 23.99,18.47 23.95,18.47 23.97,18.43 23.98,18.4 24,18.37 24.01,18.35 24.03,18.33 24.04,18.31 24.05,18.29 24.06,18.28 24.08,18.26 24.09,18.25 24.11,18.24 24.13,18.22 24.15,18.21 24.17,18.19 24.2,18.18 24.23,18.16 24.25,18.14 24.27,18.13 24.29,18.11 24.31,18.1 24.34,18.08 24.36,18.07 24.38,18.05 24.4,18.03 24.42,18.02 24.44,18 24.46,17.98 24.48,17.96 24.5,17.95 24.52,17.93 24.54,17.91 24.56,17.89 24.6,17.84 24.64,17.79 24.67,17.73 24.7,17.68 24.72,17.62 24.74,17.56 24.76,17.51 24.76,17.45 24.77,17.39 24.77,17.34 24.77,17.28 24.76,17.22 24.75,17.17 24.74,17.11 24.73,17.06 24.71,17 24.69,16.95 24.66,16.9 24.64,16.85 24.61,16.8 24.58,16.75 24.55,16.71 24.52,16.66 24.49,16.62 24.45,16.58 24.42,16.54 24.39,16.51 24.35,16.48 24.31,16.45 24.28,16.42 24.24,16.4 24.21,16.37 24.17,16.36 24.14,16.34 24.1,16.32 24.07,16.31 24.04,16.3 24.01,16.29 23.97,16.28 23.94,16.27 23.91,16.26 23.88,16.26 23.85,16.25 23.81,16.25 23.78,16.24 23.75,16.24 23.72,16.24 23.69,16.24 23.66,16.23 23.63,16.23 23.59,16.23 23.56,16.23 23.53,16.23 23.5,16.23 23.46,16.23 23.43,16.23 23.4,16.23 23.36,16.23 23.33,16.23 23.29,16.23 23.26,16.23 23.22,16.23 23.18,16.22 23.14,16.22 23.13,16.21 23.11,16.2 23.1,16.19 23.09,16.17 23.09,16.16 23.08,16.14 23.07,16.12 23.07,16.1 23.06,16.09 23.05,16.07 23.03,16.05 23.01,16.03 22.99,16.01 22.96,15.99 22.93,15.97 22.89,15.96 22.87,15.95 22.86,15.95 22.86,15.95 22.85,15.94 22.84,15.94 22.83,15.94 22.83,15.94 22.81,15.94 22.8,15.94 22.79,15.94 22.79,15.94 22.79,15.94 22.78,15.94 22.78,15.95 22.78,15.95 22.77,15.95 22.76,15.95 22.76,15.95 22.76,15.95 22.76,15.95 22.76,15.96 22.75,15.96 22.74,15.96 22.72,15.96 22.72,15.93 22.73,15.91 22.73,15.89 22.74,15.87 22.75,15.85 22.76,15.83 22.77,15.81 22.78,15.79 22.78,15.77 22.79,15.75 22.79,15.73 22.79,15.7 22.79,15.68 22.78,15.64 22.77,15.61 22.75,15.57 22.74,15.55 22.74,15.53 22.73,15.52 22.71,15.5 22.7,15.48 22.69,15.47 22.68,15.45 22.66,15.44 22.64,15.42 22.63,15.41 22.61,15.4 22.59,15.39 22.57,15.38 22.55,15.37 22.52,15.36 22.5,15.36 22.5,15.39 22.5,15.42 22.5,15.45 22.5,15.48 22.51,15.51 22.51,15.54 22.51,15.56 22.51,15.59 22.51,15.61 22.51,15.63 22.51,15.65 22.51,15.68 22.51,15.69 22.51,15.71 22.52,15.73 22.52,15.75 22.52,15.76 22.53,15.78 22.53,15.79 22.54,15.81 22.55,15.82 22.56,15.83 22.56,15.84 22.58,15.85 22.59,15.86 22.6,15.87 22.62,15.88 22.63,15.89 22.65,15.89 22.67,15.9 22.69,15.91 22.71,15.91 22.71,16.01 22.7,16.01 22.68,16 22.66,15.99 22.64,15.98 22.62,15.97 22.6,15.96 22.57,15.95 22.55,15.94 22.53,15.93 22.51,15.92 22.49,15.91 22.47,15.9 22.45,15.89 22.43,15.88 22.42,15.87 22.4,15.86 22.37,15.84 22.35,15.82 22.32,15.81 22.31,15.79 22.29,15.77 22.27,15.76 22.26,15.74 22.25,15.72 22.24,15.7 22.24,15.69 22.23,15.67 22.23,15.65 22.23,15.63 22.23,15.61 22.23,15.6 22.23,15.58 22.23,15.56 22.23,15.54 22.23,15.52 22.24,15.5 22.24,15.48 22.24,15.45 22.24,15.43 22.24,15.41 22.24,15.39 22.24,15.37 22.24,15.34 22.23,15.32 22.23,15.29 22.22,15.27 22.21,15.24 22.2,15.22 22.19,15.2 22.18,15.18 22.17,15.16 22.15,15.15 22.14,15.13 22.13,15.11 22.11,15.1 22.1,15.09 22.08,15.07 22.06,15.06 22.04,15.05 22.02,15.04 21.99,15.03 21.97,15.03 21.94,15.02 21.92,15.01 21.92,15.08 21.93,15.15 21.94,15.2 21.95,15.26 21.96,15.3 21.97,15.34 21.98,15.38 22,15.41 22.01,15.44 22.02,15.47 22.04,15.49 22.05,15.51 22.07,15.53 22.08,15.54 22.1,15.55 22.11,15.56 22.13,15.57 22.14,15.58 22.15,15.59 22.17,15.59 22.18,15.6 22.19,15.61 22.2,15.61 22.21,15.62 22.22,15.63 22.23,15.64 22.23,15.65 22.24,15.67 22.24,15.68 22.24,15.7 22.24,15.73 "/>
    <polygon class="fil6" points="18.37,20.45 18.36,20.47 18.36,20.49 18.36,20.5 18.36,20.52 18.36,20.54 18.36,20.56 18.37,20.58 18.37,20.6 18.37,20.62 18.37,20.63 18.37,20.65 18.37,20.67 18.37,20.69 18.37,20.71 18.37,20.73 18.37,20.74 18.37,20.76 18.37,20.78 18.37,20.8 18.37,20.82 18.36,20.83 18.36,20.85 18.36,20.87 18.36,20.89 18.36,20.91 18.35,20.93 18.35,20.95 18.35,20.97 18.34,20.98 18.34,21 18.33,21.02 18.32,21.04 18.31,21.07 18.3,21.1 18.29,21.12 18.27,21.15 18.25,21.18 18.23,21.2 18.21,21.23 18.19,21.25 18.17,21.28 18.15,21.31 18.13,21.33 18.11,21.36 18.09,21.39 18.08,21.41 18.06,21.44 18.04,21.47 18.03,21.49 18.02,21.52 18.01,21.54 18,21.57 18,21.59 18,21.62 18,21.64 18,21.67 18.01,21.69 18.03,21.72 18.05,21.74 18.07,21.77 18.09,21.79 18.13,21.82 18.16,21.84 18.21,21.87 18.22,21.87 18.23,21.88 18.25,21.88 18.26,21.89 18.28,21.9 18.3,21.9 18.32,21.91 18.34,21.91 18.36,21.92 18.38,21.92 18.4,21.93 18.42,21.93 18.44,21.94 18.46,21.94 18.48,21.94 18.5,21.95 18.52,21.95 18.55,21.95 18.57,21.95 18.59,21.95 18.61,21.95 18.63,21.96 18.65,21.95 18.67,21.95 18.69,21.95 18.71,21.95 18.72,21.95 18.74,21.95 18.75,21.94 18.77,21.94 18.78,21.93 18.79,21.93 18.8,21.91 18.81,21.9 18.81,21.88 18.82,21.87 18.82,21.85 18.82,21.83 18.82,21.8 18.82,21.78 18.82,21.76 18.82,21.73 18.82,21.71 18.82,21.68 18.82,21.65 18.82,21.63 18.82,21.6 18.82,21.57 18.82,21.54 18.82,21.51 18.82,21.48 18.82,21.44 18.82,21.41 18.83,21.38 18.83,21.35 18.83,21.32 18.84,21.29 18.84,21.26 18.85,21.23 18.86,21.2 18.87,21.17 18.88,21.14 18.89,21.11 18.9,21.08 18.92,21.06 18.93,21.03 18.94,21.01 18.95,20.99 18.97,20.97 18.98,20.95 18.99,20.93 19,20.91 19.02,20.9 19.03,20.88 19.04,20.86 19.05,20.84 19.07,20.82 19.08,20.8 19.09,20.79 19.1,20.77 19.12,20.75 19.13,20.73 19.14,20.71 19.15,20.69 19.16,20.67 19.17,20.65 19.19,20.63 19.2,20.61 19.21,20.58 19.22,20.56 19.23,20.54 19.24,20.51 19.25,20.48 19.25,20.46 19.26,20.43 19.27,20.4 19.24,20.4 19.21,20.4 19.19,20.4 19.16,20.4 19.13,20.41 19.11,20.41 19.08,20.41 19.05,20.41 19.03,20.42 19,20.42 18.97,20.43 18.95,20.43 18.92,20.43 18.9,20.44 18.87,20.44 18.84,20.45 18.81,20.45 18.78,20.45 18.75,20.46 18.72,20.46 18.69,20.46 18.66,20.46 18.63,20.46 18.61,20.46 18.58,20.46 18.55,20.46 18.52,20.46 18.49,20.46 18.46,20.46 18.43,20.45 18.4,20.45 "/>
    <polygon class="fil6" points="24.52,18.65 24.48,18.65 24.43,18.66 24.39,18.66 24.35,18.66 24.31,18.67 24.27,18.67 24.23,18.67 24.19,18.68 24.16,18.68 24.12,18.68 24.08,18.69 24.04,18.69 24.01,18.69 23.97,18.69 23.93,18.69 23.89,18.69 23.85,18.69 23.82,18.68 23.78,18.68 23.74,18.67 23.7,18.67 23.66,18.66 23.62,18.65 23.58,18.63 23.53,18.62 23.49,18.6 23.45,18.59 23.4,18.57 23.36,18.54 23.31,18.52 23.26,18.49 23.21,18.46 23.19,18.45 23.16,18.44 23.14,18.43 23.11,18.42 23.09,18.41 23.06,18.41 23.04,18.41 23.02,18.41 23,18.41 22.98,18.42 22.96,18.44 22.95,18.45 22.94,18.48 22.93,18.5 22.92,18.54 22.92,18.58 22.92,18.6 22.93,18.62 22.93,18.64 22.94,18.66 22.96,18.68 22.97,18.69 22.99,18.71 23.01,18.72 23.03,18.74 23.06,18.75 23.08,18.76 23.11,18.77 23.14,18.78 23.17,18.79 23.2,18.8 23.23,18.81 23.26,18.81 23.29,18.82 23.33,18.82 23.36,18.83 23.39,18.83 23.43,18.84 23.46,18.84 23.49,18.84 23.52,18.84 23.56,18.84 23.59,18.85 23.62,18.85 23.65,18.85 23.67,18.85 23.7,18.85 23.72,18.84 23.75,18.84 23.77,18.84 23.8,18.84 23.83,18.84 23.85,18.84 23.88,18.83 23.91,18.83 23.93,18.83 23.96,18.82 23.99,18.82 24.02,18.82 24.05,18.81 24.07,18.81 24.1,18.8 24.13,18.8 24.16,18.79 24.18,18.78 24.21,18.78 24.24,18.77 24.26,18.76 24.29,18.76 24.31,18.75 24.34,18.74 24.36,18.73 24.38,18.72 24.41,18.71 24.43,18.7 24.45,18.69 24.47,18.68 24.49,18.67 24.5,18.66 "/>
    <polygon class="fil6" points="21.58,16.08 21.61,16.08 21.65,16.09 21.68,16.09 21.71,16.09 21.74,16.1 21.77,16.1 21.8,16.1 21.82,16.11 21.85,16.11 21.88,16.11 21.91,16.11 21.93,16.11 21.96,16.11 21.98,16.11 22,16.11 22.03,16.1 22.05,16.1 22.07,16.1 22.1,16.09 22.12,16.09 22.14,16.08 22.16,16.07 22.18,16.06 22.2,16.05 22.22,16.04 22.24,16.03 22.26,16.01 22.27,16 22.29,15.98 22.31,15.96 22.33,15.94 22.34,15.92 22.31,15.91 22.29,15.9 22.26,15.89 22.23,15.88 22.21,15.87 22.18,15.86 22.16,15.85 22.13,15.84 22.11,15.84 22.08,15.84 22.05,15.84 22.02,15.84 21.99,15.84 21.96,15.84 21.93,15.85 21.89,15.86 21.87,15.87 21.85,15.88 21.82,15.89 21.8,15.9 21.77,15.91 21.75,15.93 21.73,15.94 21.71,15.95 21.69,15.97 21.67,15.98 21.65,15.99 21.63,16.01 21.62,16.03 21.6,16.04 21.59,16.06 "/>
    <polygon class="fil6" points="21.08,15.78 21.09,15.8 21.1,15.81 21.12,15.82 21.13,15.84 21.15,15.85 21.17,15.86 21.18,15.86 21.2,15.87 21.22,15.88 21.24,15.88 21.26,15.88 21.28,15.88 21.3,15.89 21.32,15.89 21.34,15.89 21.36,15.88 21.38,15.88 21.4,15.88 21.42,15.87 21.44,15.87 21.46,15.86 21.48,15.86 21.5,15.85 21.52,15.84 21.54,15.83 21.56,15.83 21.58,15.82 21.6,15.81 21.62,15.8 21.63,15.79 21.65,15.78 21.67,15.76 21.82,15.64 21.82,15.64 21.82,15.64 21.82,15.64 21.82,15.64 21.82,15.64 21.82,15.63 21.83,15.63 21.83,15.63 21.79,15.62 21.76,15.62 21.74,15.61 21.71,15.6 21.69,15.6 21.66,15.59 21.64,15.59 21.62,15.59 21.6,15.59 21.58,15.59 21.56,15.59 21.53,15.6 21.51,15.6 21.48,15.61 21.45,15.62 21.41,15.63 21.4,15.64 21.38,15.64 21.36,15.65 21.34,15.66 21.31,15.67 21.29,15.68 21.26,15.69 21.23,15.7 21.21,15.71 21.18,15.72 21.16,15.73 21.14,15.74 21.12,15.76 21.1,15.76 21.09,15.77 "/>
    <polygon class="fil6" points="21.67,15.4 21.67,15.38 21.66,15.36 21.66,15.33 21.65,15.31 21.65,15.28 21.64,15.26 21.64,15.23 21.63,15.21 21.62,15.18 21.62,15.16 21.61,15.13 21.6,15.11 21.59,15.09 21.58,15.06 21.57,15.04 21.56,15.02 21.55,15 21.53,14.98 21.52,14.96 21.5,14.94 21.49,14.93 21.47,14.91 21.45,14.9 21.43,14.89 21.41,14.88 21.39,14.87 21.37,14.86 21.35,14.85 21.32,14.85 21.3,14.85 21.27,14.85 21.24,14.85 21.24,14.87 21.25,14.89 21.25,14.91 21.26,14.94 21.27,14.96 21.28,14.98 21.28,15.01 21.29,15.03 21.3,15.05 21.31,15.08 21.32,15.1 21.33,15.12 21.34,15.14 21.35,15.16 21.36,15.18 21.37,15.19 21.38,15.22 21.4,15.24 21.41,15.25 21.43,15.27 21.44,15.29 21.46,15.3 21.47,15.31 21.49,15.33 21.5,15.34 21.52,15.35 21.54,15.36 21.56,15.37 21.59,15.38 21.61,15.39 21.64,15.39 "/>
    <polygon class="fil6" points="20.68,15.47 20.69,15.49 20.7,15.5 20.71,15.51 20.72,15.52 20.74,15.53 20.75,15.54 20.77,15.55 20.78,15.56 20.8,15.56 20.82,15.57 20.84,15.57 20.86,15.57 20.88,15.58 20.9,15.58 20.92,15.58 20.94,15.58 20.96,15.58 20.99,15.57 21.01,15.57 21.03,15.56 21.05,15.56 21.08,15.55 21.1,15.55 21.12,15.54 21.15,15.53 21.17,15.52 21.2,15.51 21.22,15.5 21.24,15.49 21.26,15.47 21.29,15.46 21.31,15.45 21.31,15.45 21.31,15.44 21.32,15.44 21.32,15.44 21.32,15.44 21.32,15.44 21.32,15.44 21.32,15.44 21.35,15.42 21.32,15.41 21.3,15.4 21.28,15.39 21.26,15.38 21.24,15.37 21.22,15.36 21.2,15.36 21.18,15.35 21.16,15.34 21.14,15.33 21.12,15.33 21.09,15.33 21.07,15.32 21.04,15.32 21.01,15.33 20.97,15.33 20.95,15.34 20.93,15.34 20.91,15.35 20.89,15.35 20.87,15.36 20.85,15.37 20.83,15.38 20.81,15.39 20.79,15.4 20.77,15.41 20.75,15.42 20.73,15.43 20.72,15.44 20.7,15.45 20.69,15.46 "/>
    <polygon class="fil8" points="22.15,17.8 22.14,17.83 22.14,17.85 22.14,17.88 22.15,17.9 22.16,17.92 22.18,17.93 22.2,17.95 22.22,17.96 22.24,17.96 22.26,17.97 22.28,17.97 22.3,17.97 22.32,17.97 22.34,17.96 22.35,17.95 22.37,17.94 22.38,17.92 22.39,17.9 22.39,17.89 22.38,17.87 22.38,17.85 22.37,17.84 22.35,17.82 22.33,17.81 22.31,17.8 22.29,17.79 22.27,17.78 22.24,17.78 22.22,17.78 22.19,17.78 22.17,17.79 "/>
   </g>
  </g>
 </g>
</svg>
