<?xml version="1.0" encoding="UTF-8"?>
<!DOCTYPE svg PUBLIC "-//W3C//DTD SVG 1.1//EN" "http://www.w3.org/Graphics/SVG/1.1/DTD/svg11.dtd">
<!-- Creator: CorelDRAW -->
<svg xmlns="http://www.w3.org/2000/svg" xml:space="preserve" width="63.1953mm" height="40.3804mm" version="1.1" style="shape-rendering:geometricPrecision; text-rendering:geometricPrecision; image-rendering:optimizeQuality; fill-rule:evenodd; clip-rule:evenodd"
viewBox="0 0 252.86 161.57"
 xmlns:xlink="http://www.w3.org/1999/xlink"
 xmlns:xodm="http://www.corel.com/coreldraw/odm/2003">
 <defs>
  <style type="text/css">
   <![CDATA[
    .fil3 {fill:none}
    .fil8 {fill:#030000}
    .fil0 {fill:#207845}
    .fil6 {fill:#33DC76}
    .fil7 {fill:#3A9960}
    .fil5 {fill:black;fill-rule:nonzero}
    .fil4 {fill:#33DC76;fill-opacity:0.200000}
    .fil2 {fill:#0A4021;fill-opacity:0.501961}
    .fil1 {fill:#0D4A27;fill-opacity:0.501961}
   ]]>
  </style>
   <clipPath id="id0">
    <path d="M12.54 0l227.77 0c6.9,0 12.54,5.64 12.54,12.54l0 136.48c0,6.9 -5.64,12.54 -12.54,12.54l-227.77 0c-6.9,0 -12.54,-5.64 -12.54,-12.54l0 -136.48c0,-6.9 5.64,-12.54 12.54,-12.54z"/>
   </clipPath>
 </defs>
 <g id="Layer_x0020_1">
  <metadata id="CorelCorpID_0Corel-Layer"/>
  <path class="fil0" d="M12.54 0l227.77 0c6.9,0 12.54,5.64 12.54,12.54l0 136.48c0,6.9 -5.64,12.54 -12.54,12.54l-227.77 0c-6.9,0 -12.54,-5.64 -12.54,-12.54l0 -136.48c0,-6.9 5.64,-12.54 12.54,-12.54z"/>
  <g style="clip-path:url(#id0)">
   <g id="_105553313764064">
    <path id="_1" class="fil1" d="M43.02 -6.62c50.55,0 91.54,40.98 91.54,91.54 0,50.55 -40.98,91.54 -91.54,91.54 -50.55,0 -91.54,-40.98 -91.54,-91.54 0,-50.55 40.98,-91.54 91.54,-91.54z"/>
    <path class="fil2" d="M131.02 72.42c44.01,0 79.7,35.68 79.7,79.7 0,44.02 -35.68,79.7 -79.7,79.7 -44.02,0 -79.7,-35.68 -79.7,-79.7 0,-44.01 35.68,-79.7 79.7,-79.7z"/>
   </g>
  </g>
  <path class="fil3" d="M12.54 0l227.77 0c6.9,0 12.54,5.64 12.54,12.54l0 136.48c0,6.9 -5.64,12.54 -12.54,12.54l-227.77 0c-6.9,0 -12.54,-5.64 -12.54,-12.54l0 -136.48c0,-6.9 5.64,-12.54 12.54,-12.54z"/>
  <g id="_105553313759552">
   <path class="fil4" d="M16.53 10.16l17.73 0c2.84,0 5.17,2.33 5.17,5.17l0 17.73c0,2.84 -2.33,5.17 -5.17,5.17l-17.73 0c-2.84,0 -5.17,-2.33 -5.17,-5.17l0 -17.73c0,-2.84 2.33,-5.17 5.17,-5.17z"/>
   <g>
    <path class="fil5" d="M25.27 31.8c4.2,0 7.61,-3.35 7.61,-7.47 0,-4.13 -3.41,-7.47 -7.61,-7.47 -4.2,0 -7.61,3.35 -7.61,7.47 0,4.13 3.4,7.47 7.61,7.47z"/>
    <polygon class="fil6" points="23.43,16.74 23.54,16.73 23.66,16.72 23.78,16.71 23.9,16.71 24.02,16.71 24.14,16.71 24.26,16.71 24.39,16.72 24.51,16.73 24.63,16.74 24.76,16.76 24.88,16.77 25,16.79 25.13,16.81 25.25,16.84 25.37,16.86 25.49,16.89 25.61,16.92 25.73,16.95 25.85,16.98 25.96,17.02 26.08,17.06 26.19,17.09 26.3,17.13 26.41,17.18 26.52,17.22 26.62,17.26 26.72,17.31 26.82,17.35 26.92,17.4 27.01,17.45 27.1,17.49 27.15,17.52 27.2,17.55 27.24,17.57 27.29,17.6 27.34,17.63 27.38,17.65 27.43,17.68 27.47,17.71 27.51,17.74 27.56,17.76 27.6,17.79 27.64,17.82 27.69,17.85 27.73,17.88 27.77,17.91 27.81,17.93 27.85,17.96 27.89,17.99 27.93,18.02 27.97,18.05 28.01,18.08 28.05,18.11 28.08,18.14 28.12,18.17 28.16,18.2 28.2,18.23 28.23,18.26 28.27,18.29 28.3,18.32 28.34,18.35 28.37,18.39 28.4,18.42 28.44,18.45 28.48,18.49 28.51,18.52 28.55,18.55 28.58,18.58 28.61,18.62 28.64,18.65 28.67,18.68 28.7,18.71 28.73,18.73 28.76,18.76 28.79,18.79 28.81,18.82 28.84,18.85 28.86,18.87 28.89,18.9 28.91,18.93 28.94,18.96 28.96,18.99 28.99,19.02 29.01,19.04 29.03,19.07 29.06,19.11 29.08,19.14 29.11,19.17 29.13,19.2 29.16,19.23 29.19,19.27 29.21,19.3 29.24,19.34 29.27,19.38 29.3,19.42 29.3,19.43 29.31,19.44 29.32,19.45 29.33,19.46 29.33,19.47 29.34,19.48 29.35,19.49 29.35,19.5 29.4,19.59 29.51,19.72 29.62,19.85 29.73,19.98 29.83,20.11 29.93,20.25 30.03,20.38 30.12,20.52 30.21,20.67 30.3,20.81 30.38,20.96 30.46,21.1 30.54,21.26 30.61,21.41 30.68,21.56 30.74,21.72 30.8,21.88 30.86,22.04 30.91,22.2 30.96,22.37 31,22.53 31.04,22.7 31.08,22.87 31.11,23.04 31.13,23.21 31.15,23.39 31.17,23.57 31.18,23.74 31.19,23.92 31.19,24.1 31.18,24.29 31.18,24.47 31.16,24.65 31.14,24.88 31.1,25.1 31.07,25.32 31.02,25.54 30.97,25.76 30.91,25.97 30.84,26.18 30.77,26.39 30.69,26.6 30.6,26.8 30.51,27 30.41,27.19 30.31,27.38 30.2,27.57 30.08,27.75 29.96,27.93 29.84,28.11 29.7,28.28 29.57,28.44 29.43,28.61 29.28,28.76 29.13,28.92 28.97,29.06 28.81,29.2 28.65,29.34 28.48,29.47 28.3,29.6 28.13,29.72 27.95,29.83 27.76,29.94 27.57,30.04 27.38,30.14 27.34,30.16 27.3,30.18 27.26,30.19 27.23,30.21 27.19,30.23 27.15,30.24 27.11,30.26 27.08,30.28 27.04,30.29 27,30.31 26.96,30.32 26.92,30.34 26.89,30.35 26.85,30.37 26.81,30.38 26.77,30.4 26.73,30.41 26.69,30.43 26.65,30.44 26.62,30.45 26.58,30.47 26.54,30.48 26.5,30.49 26.45,30.51 26.41,30.52 26.37,30.53 26.33,30.55 26.29,30.56 26.25,30.57 26.2,30.58 26.16,30.6 26.11,30.61 26.03,30.63 25.94,30.66 25.85,30.68 25.75,30.7 25.66,30.72 25.57,30.73 25.47,30.75 25.38,30.76 25.28,30.78 25.18,30.79 25.09,30.8 24.99,30.81 24.89,30.81 24.79,30.82 24.69,30.82 24.59,30.83 24.49,30.83 24.39,30.83 24.29,30.83 24.18,30.82 24.08,30.82 23.98,30.81 23.88,30.81 23.78,30.8 23.68,30.79 23.58,30.78 23.48,30.76 23.38,30.75 23.28,30.73 23.19,30.72 23.09,30.7 22.99,30.68 22.88,30.65 22.76,30.62 22.65,30.59 22.54,30.56 22.43,30.53 22.32,30.49 22.21,30.46 22.11,30.42 22.01,30.38 21.91,30.34 21.8,30.3 21.71,30.26 21.61,30.21 21.51,30.17 21.42,30.12 21.32,30.07 21.23,30.02 21.14,29.97 21.05,29.92 20.96,29.86 20.87,29.81 20.79,29.75 20.7,29.69 20.62,29.63 20.53,29.57 20.45,29.51 20.37,29.44 20.28,29.38 20.2,29.31 20.12,29.24 20.04,29.18 19.96,29.11 19.95,29.09 19.93,29.08 19.92,29.07 19.91,29.05 19.89,29.04 19.88,29.02 19.86,29.01 19.85,29 19.83,28.98 19.82,28.97 19.8,28.96 19.79,28.94 19.77,28.93 19.76,28.91 19.75,28.9 19.73,28.89 19.71,28.87 19.69,28.84 19.67,28.82 19.64,28.79 19.62,28.77 19.6,28.74 19.57,28.71 19.54,28.68 19.52,28.65 19.49,28.62 19.46,28.59 19.44,28.56 19.41,28.52 19.38,28.49 19.35,28.46 19.33,28.42 19.3,28.39 19.27,28.36 19.25,28.32 19.22,28.29 19.19,28.26 19.17,28.22 19.14,28.19 19.12,28.16 19.09,28.13 19.07,28.1 19.05,28.07 19.03,28.04 19.01,28.01 18.99,27.98 18.97,27.96 18.96,27.93 18.95,27.92 18.94,27.9 18.93,27.89 18.92,27.87 18.91,27.85 18.9,27.84 18.89,27.82 18.88,27.81 18.87,27.79 18.86,27.78 18.85,27.76 18.84,27.75 18.83,27.73 18.82,27.72 18.8,27.7 18.79,27.69 18.7,27.61 18.67,27.56 18.64,27.53 18.61,27.49 18.59,27.46 18.56,27.42 18.53,27.39 18.51,27.36 18.49,27.32 18.46,27.29 18.44,27.26 18.41,27.22 18.38,27.19 18.36,27.15 18.33,27.11 18.3,27.06 18.27,27.02 17.84,26.28 18.08,27.04 18.1,27.09 18.12,27.14 18.14,27.18 18.15,27.22 18.17,27.26 18.19,27.3 18.21,27.34 18.22,27.38 18.24,27.42 18.25,27.46 18.27,27.49 18.28,27.53 18.3,27.56 18.31,27.6 18.33,27.63 18.35,27.67 18.36,27.7 18.38,27.74 18.39,27.77 18.41,27.81 18.43,27.84 18.45,27.88 18.47,27.92 18.49,27.95 18.51,27.99 18.53,28.03 18.56,28.07 18.58,28.12 18.61,28.16 18.63,28.2 18.66,28.25 18.69,28.3 18.7,28.31 18.71,28.33 18.72,28.34 18.73,28.36 18.74,28.38 18.75,28.4 18.76,28.41 18.77,28.43 18.78,28.45 18.79,28.47 18.8,28.48 18.81,28.5 18.83,28.51 18.84,28.53 18.84,28.54 18.85,28.55 18.86,28.55 18.88,28.56 18.9,28.58 18.93,28.61 18.96,28.63 18.99,28.67 19.03,28.7 19.07,28.74 19.1,28.78 19.14,28.81 19.17,28.85 19.2,28.88 19.23,28.91 19.26,28.94 19.28,28.96 19.29,28.97 19.32,29 19.35,29.03 19.38,29.05 19.41,29.08 19.44,29.11 19.47,29.14 19.5,29.16 19.53,29.19 19.56,29.22 19.59,29.24 19.62,29.27 19.65,29.3 19.69,29.32 19.72,29.35 19.75,29.38 19.78,29.4 19.89,29.49 20,29.57 20.11,29.65 20.23,29.73 20.34,29.8 20.45,29.88 20.57,29.95 20.69,30.02 20.8,30.09 20.92,30.15 21.04,30.22 21.16,30.28 21.29,30.34 21.41,30.39 21.53,30.45 21.66,30.5 21.79,30.55 21.92,30.6 22.05,30.65 22.18,30.69 22.31,30.73 22.44,30.77 22.58,30.81 22.71,30.84 22.85,30.88 22.99,30.91 23.13,30.93 23.27,30.96 23.42,30.98 23.56,31 23.71,31.02 23.85,31.03 23.99,31.04 24.13,31.05 24.27,31.06 24.42,31.06 24.56,31.07 24.7,31.06 24.84,31.06 24.98,31.05 25.13,31.05 25.27,31.03 25.41,31.02 25.55,31 25.7,30.98 25.84,30.96 25.98,30.94 26.12,30.91 26.26,30.89 26.4,30.86 26.54,30.82 26.68,30.79 26.81,30.75 26.95,30.71 27.08,30.67 27.21,30.62 27.34,30.57 27.47,30.52 27.6,30.47 27.73,30.42 27.85,30.36 27.98,30.3 28.1,30.24 28.22,30.18 28.26,30.16 28.31,30.13 28.36,30.1 28.4,30.08 28.45,30.05 28.5,30.03 28.54,30 28.59,29.97 28.63,29.95 28.68,29.92 28.72,29.89 28.76,29.87 28.81,29.84 28.85,29.81 28.89,29.79 28.94,29.76 28.98,29.73 29.02,29.7 29.06,29.67 29.1,29.65 29.15,29.62 29.19,29.59 29.23,29.56 29.27,29.53 29.31,29.5 29.35,29.47 29.39,29.44 29.43,29.41 29.47,29.38 29.51,29.35 29.55,29.31 29.59,29.28 29.65,29.24 29.7,29.19 29.75,29.15 29.81,29.1 29.86,29.05 29.91,29.01 29.97,28.96 30.02,28.91 30.07,28.86 30.13,28.81 30.18,28.75 30.23,28.7 30.29,28.65 30.34,28.59 30.39,28.54 30.44,28.48 30.49,28.43 30.54,28.37 30.59,28.32 30.64,28.26 30.69,28.2 30.74,28.14 30.79,28.09 30.83,28.03 30.88,27.97 30.92,27.91 30.97,27.86 31.01,27.8 31.05,27.74 31.09,27.68 31.13,27.62 31.17,27.57 31.22,27.49 31.26,27.41 31.31,27.33 31.36,27.26 31.41,27.18 31.45,27.1 31.5,27.02 31.54,26.95 31.58,26.87 31.63,26.79 31.67,26.71 31.71,26.63 31.75,26.55 31.79,26.47 31.82,26.39 31.86,26.3 31.9,26.22 31.93,26.14 31.97,26.05 32,25.97 32.04,25.88 32.07,25.79 32.1,25.7 32.13,25.61 32.16,25.52 32.19,25.43 32.22,25.34 32.24,25.24 32.27,25.14 32.29,25.05 32.32,24.95 32.34,24.84 32.36,24.74 32.38,24.63 32.4,24.53 32.42,24.42 32.44,24.32 32.45,24.21 32.46,24.11 32.48,24 32.49,23.9 32.5,23.79 32.5,23.69 32.51,23.59 32.52,23.48 32.52,23.38 32.52,23.27 32.52,23.17 32.52,23.07 32.52,22.97 32.52,22.86 32.51,22.76 32.5,22.66 32.5,22.56 32.49,22.46 32.48,22.36 32.47,22.25 32.45,22.15 32.44,22.05 32.43,21.95 32.41,21.85 32.39,21.76 32.37,21.66 32.35,21.56 32.34,21.48 32.32,21.4 32.3,21.33 32.28,21.25 32.26,21.18 32.24,21.11 32.22,21.03 32.2,20.96 32.18,20.89 32.16,20.82 32.13,20.75 32.11,20.68 32.08,20.61 32.06,20.54 32.03,20.48 32.01,20.41 31.98,20.34 31.95,20.28 31.93,20.21 31.9,20.14 31.87,20.08 31.84,20.01 31.81,19.94 31.77,19.88 31.74,19.81 31.71,19.75 31.68,19.68 31.64,19.62 31.61,19.55 31.57,19.48 31.54,19.42 31.5,19.35 31.49,19.34 31.48,19.32 31.47,19.3 31.46,19.28 31.44,19.26 31.43,19.24 31.42,19.22 31.4,19.2 31.39,19.18 31.38,19.16 31.37,19.14 31.36,19.13 31.36,19.11 31.35,19.1 31.35,19.08 31.35,19.07 30.7,18.4 30.68,18.38 30.66,18.37 30.65,18.35 30.63,18.33 30.61,18.32 30.59,18.3 30.56,18.28 30.54,18.26 30.51,18.24 30.49,18.22 30.46,18.19 30.44,18.17 30.41,18.15 30.38,18.13 30.35,18.11 30.33,18.08 30.3,18.06 30.27,18.04 30.24,18.02 30.22,18 30.19,17.98 30.16,17.96 30.14,17.94 30.11,17.92 30.08,17.9 30.06,17.88 30.04,17.86 30.01,17.85 29.99,17.83 29.97,17.82 29.95,17.8 29.93,17.79 29.88,17.76 29.83,17.72 29.77,17.69 29.72,17.65 29.66,17.62 29.61,17.59 29.56,17.55 29.5,17.52 29.45,17.49 29.39,17.45 29.33,17.42 29.28,17.39 29.22,17.36 29.16,17.33 29.11,17.3 29.05,17.27 28.99,17.24 28.94,17.21 28.88,17.18 28.82,17.15 28.76,17.12 28.7,17.1 28.64,17.07 28.58,17.04 28.52,17.02 28.46,16.99 28.4,16.97 28.34,16.95 28.28,16.92 28.22,16.9 28.16,16.88 28.1,16.86 28.04,16.84 27.98,16.82 27.93,16.81 27.87,16.79 27.82,16.77 27.76,16.76 27.7,16.74 27.65,16.73 27.59,16.71 27.54,16.7 27.48,16.68 27.42,16.67 27.37,16.65 27.31,16.64 27.26,16.63 27.2,16.61 27.15,16.6 27.09,16.59 27.04,16.58 26.98,16.57 26.93,16.56 26.87,16.55 26.82,16.54 26.76,16.53 26.71,16.52 26.65,16.51 26.6,16.5 26.54,16.49 26.49,16.49 26.43,16.48 26.38,16.47 26.32,16.47 25.97,16.44 25.94,16.44 25.91,16.44 25.89,16.44 25.86,16.43 25.83,16.43 25.81,16.43 25.78,16.43 25.75,16.43 25.72,16.43 25.7,16.43 25.67,16.43 25.64,16.43 25.61,16.43 25.59,16.43 25.56,16.43 25.53,16.43 25.5,16.43 25.48,16.43 25.45,16.43 25.42,16.43 25.39,16.43 25.36,16.43 25.34,16.43 25.31,16.43 25.28,16.43 25.25,16.44 25.22,16.44 25.19,16.44 25.16,16.44 25.14,16.44 25.11,16.44 25.08,16.44 25.04,16.45 25.01,16.45 24.97,16.45 24.94,16.45 24.9,16.46 24.87,16.46 24.83,16.46 24.79,16.47 24.76,16.47 24.72,16.47 24.68,16.48 24.65,16.48 24.61,16.48 24.58,16.49 24.54,16.49 24.5,16.5 24.47,16.5 24.43,16.51 24.39,16.51 24.36,16.52 24.32,16.52 24.29,16.53 24.25,16.53 24.22,16.54 24.18,16.54 24.15,16.55 24.11,16.56 24.08,16.56 24.04,16.57 24.01,16.58 23.97,16.58 23.94,16.59 23.92,16.59 23.9,16.6 23.87,16.61 23.83,16.61 23.8,16.62 23.76,16.63 23.72,16.64 23.68,16.65 23.64,16.66 23.6,16.67 23.56,16.68 23.52,16.69 23.49,16.7 23.46,16.72 23.44,16.73 "/>
    <polygon class="fil7" points="18.86,28.55 18.91,28.62 18.95,28.69 19,28.76 19.05,28.83 19.1,28.9 19.15,28.97 19.21,29.04 19.27,29.11 19.32,29.18 19.38,29.25 19.44,29.32 19.5,29.39 19.56,29.45 19.63,29.52 19.69,29.59 19.76,29.65 19.82,29.72 19.89,29.78 19.95,29.85 20.02,29.91 20.09,29.97 20.16,30.03 20.23,30.09 20.29,30.15 20.36,30.21 20.43,30.27 20.5,30.32 20.57,30.38 20.64,30.43 20.71,30.48 20.78,30.53 20.85,30.58 20.92,30.63 21,30.68 21.07,30.73 21.15,30.78 21.23,30.83 21.31,30.88 21.39,30.93 21.48,30.98 21.56,31.02 21.64,31.07 21.73,31.11 21.82,31.16 21.91,31.2 21.99,31.24 22.09,31.29 22.18,31.33 22.27,31.37 22.36,31.41 22.46,31.44 22.56,31.48 22.65,31.52 22.75,31.55 22.85,31.58 22.96,31.61 23.06,31.65 23.16,31.67 23.27,31.7 23.38,31.73 23.48,31.75 23.59,31.78 23.71,31.8 23.82,31.82 23.85,31.83 23.88,31.83 23.92,31.84 23.95,31.84 23.98,31.85 24.01,31.86 24.05,31.86 24.08,31.87 24.12,31.87 24.15,31.88 24.19,31.89 24.22,31.89 24.25,31.9 24.29,31.9 24.33,31.91 24.36,31.91 24.78,31.95 24.9,31.96 25.02,31.96 25.13,31.96 25.25,31.96 25.36,31.96 25.47,31.96 25.59,31.95 25.7,31.95 25.81,31.94 25.92,31.93 26.03,31.92 26.13,31.91 26.24,31.9 26.35,31.88 26.45,31.87 26.56,31.85 26.67,31.83 26.77,31.81 26.88,31.79 26.98,31.77 27.09,31.74 27.19,31.72 27.3,31.69 27.41,31.66 27.51,31.63 27.62,31.6 27.73,31.56 27.83,31.53 27.94,31.49 28.05,31.45 28.16,31.41 28.27,31.37 28.36,31.33 28.46,31.29 28.56,31.25 28.66,31.21 28.75,31.16 28.85,31.11 28.95,31.06 29.04,31.01 29.14,30.96 29.23,30.9 29.33,30.85 29.42,30.79 29.52,30.73 29.61,30.67 29.7,30.6 29.8,30.54 29.89,30.48 29.98,30.41 30.07,30.34 30.15,30.27 30.24,30.21 30.33,30.14 30.41,30.06 30.5,29.99 30.58,29.92 30.66,29.85 30.74,29.77 30.82,29.7 30.89,29.62 30.97,29.55 31.04,29.47 31.11,29.4 31.13,29.38 31.15,29.36 31.16,29.35 31.18,29.33 31.19,29.31 31.21,29.3 31.22,29.28 31.24,29.26 31.25,29.25 31.27,29.23 31.28,29.21 31.29,29.2 31.31,29.18 31.32,29.16 31.34,29.15 31.35,29.13 31.38,29.09 31.41,29.06 31.43,29.03 31.46,29 31.48,28.97 31.51,28.94 31.53,28.92 31.55,28.89 31.57,28.86 31.59,28.83 31.61,28.81 31.63,28.78 31.65,28.76 31.67,28.73 31.69,28.71 31.71,28.68 31.72,28.66 31.74,28.63 31.76,28.61 31.78,28.58 31.8,28.55 31.82,28.52 31.83,28.5 31.85,28.47 31.87,28.44 31.89,28.41 31.91,28.38 31.94,28.34 31.96,28.31 31.98,28.27 32,28.24 32.03,28.2 32.13,28.04 32.23,27.87 32.32,27.71 32.41,27.54 32.49,27.37 32.57,27.19 32.64,27.02 32.71,26.84 32.78,26.66 32.84,26.48 32.89,26.29 32.95,26.11 32.99,25.93 33.04,25.74 33.07,25.55 33.11,25.36 33.14,25.18 33.16,24.99 33.18,24.8 33.2,24.61 33.21,24.42 33.22,24.22 33.22,24.03 33.21,23.84 33.21,23.65 33.2,23.46 33.18,23.28 33.16,23.09 33.13,22.9 33.1,22.71 33.07,22.53 33.03,22.34 33.01,22.25 32.99,22.16 32.96,22.07 32.94,21.98 32.91,21.89 32.89,21.8 32.86,21.71 32.83,21.63 32.8,21.54 32.77,21.45 32.73,21.36 32.7,21.28 32.66,21.19 32.63,21.1 32.59,21.02 32.55,20.93 32.51,20.85 32.47,20.76 32.43,20.68 32.39,20.6 32.35,20.51 32.3,20.43 32.26,20.35 32.21,20.27 32.17,20.19 32.12,20.11 32.07,20.03 32.02,19.95 31.97,19.87 31.92,19.79 31.87,19.72 31.82,19.64 31.8,19.62 31.79,19.6 31.78,19.59 31.76,19.57 31.75,19.56 31.74,19.54 31.72,19.52 31.71,19.5 31.36,19.08 31.36,19.09 31.36,19.1 31.36,19.11 31.37,19.13 31.38,19.14 31.39,19.16 31.4,19.18 31.41,19.2 31.43,19.22 31.44,19.24 31.45,19.26 31.46,19.28 31.48,19.3 31.49,19.32 31.5,19.34 31.51,19.35 31.54,19.42 31.58,19.48 31.62,19.55 31.65,19.62 31.68,19.68 31.72,19.75 31.75,19.81 31.78,19.88 31.81,19.94 31.85,20.01 31.88,20.08 31.91,20.14 31.93,20.21 31.96,20.28 31.99,20.34 32.02,20.41 32.04,20.48 32.07,20.54 32.09,20.61 32.12,20.68 32.14,20.75 32.16,20.82 32.19,20.89 32.21,20.96 32.23,21.03 32.25,21.11 32.27,21.18 32.29,21.25 32.31,21.33 32.33,21.4 32.34,21.48 32.36,21.56 32.38,21.66 32.4,21.76 32.42,21.85 32.43,21.95 32.45,22.05 32.46,22.15 32.48,22.25 32.49,22.36 32.5,22.46 32.51,22.56 32.51,22.66 32.52,22.76 32.52,22.86 32.53,22.97 32.53,23.07 32.53,23.17 32.53,23.28 32.53,23.38 32.52,23.48 32.52,23.59 32.51,23.69 32.5,23.79 32.5,23.9 32.49,24 32.47,24.11 32.46,24.21 32.44,24.32 32.43,24.42 32.41,24.53 32.39,24.63 32.37,24.74 32.35,24.85 32.32,24.95 32.3,25.05 32.28,25.14 32.25,25.24 32.22,25.34 32.2,25.43 32.17,25.52 32.14,25.61 32.11,25.7 32.08,25.79 32.04,25.88 32.01,25.97 31.98,26.05 31.94,26.14 31.91,26.22 31.87,26.31 31.83,26.39 31.8,26.47 31.76,26.55 31.72,26.63 31.68,26.71 31.63,26.79 31.59,26.87 31.55,26.95 31.5,27.02 31.46,27.1 31.41,27.18 31.37,27.26 31.32,27.33 31.27,27.41 31.22,27.49 31.18,27.57 31.14,27.62 31.1,27.68 31.06,27.74 31.02,27.8 30.97,27.86 30.93,27.91 30.89,27.97 30.84,28.03 30.8,28.09 30.75,28.14 30.7,28.2 30.65,28.26 30.6,28.32 30.55,28.37 30.5,28.43 30.45,28.48 30.4,28.54 30.35,28.59 30.29,28.65 30.24,28.7 30.19,28.75 30.14,28.81 30.08,28.86 30.03,28.91 29.97,28.96 29.92,29.01 29.87,29.05 29.81,29.1 29.76,29.15 29.71,29.19 29.65,29.24 29.6,29.28 29.56,29.31 29.52,29.35 29.48,29.38 29.44,29.41 29.4,29.44 29.36,29.47 29.32,29.5 29.28,29.53 29.24,29.56 29.19,29.59 29.15,29.62 29.11,29.65 29.07,29.67 29.03,29.7 28.99,29.73 28.94,29.76 28.9,29.79 28.86,29.81 28.82,29.84 28.77,29.87 28.73,29.89 28.68,29.92 28.64,29.95 28.59,29.97 28.55,30 28.5,30.03 28.46,30.05 28.41,30.08 28.37,30.1 28.32,30.13 28.27,30.16 28.22,30.18 28.11,30.24 27.98,30.31 27.86,30.36 27.74,30.42 27.61,30.47 27.48,30.53 27.35,30.57 27.22,30.62 27.09,30.67 26.96,30.71 26.82,30.75 26.68,30.79 26.55,30.82 26.41,30.86 26.27,30.89 26.13,30.91 25.99,30.94 25.85,30.96 25.7,30.99 25.56,31 25.42,31.02 25.28,31.03 25.13,31.05 24.99,31.05 24.85,31.06 24.71,31.06 24.57,31.07 24.42,31.06 24.28,31.06 24.14,31.05 24,31.05 23.86,31.03 23.72,31.02 23.57,31 23.42,30.98 23.28,30.96 23.14,30.93 23,30.91 22.86,30.88 22.72,30.84 22.59,30.81 22.45,30.77 22.32,30.73 22.18,30.69 22.05,30.65 21.92,30.6 21.8,30.55 21.67,30.5 21.54,30.45 21.42,30.39 21.29,30.34 21.17,30.28 21.05,30.22 20.93,30.15 20.81,30.09 20.69,30.02 20.58,29.95 20.46,29.88 20.35,29.8 20.23,29.73 20.12,29.65 20.01,29.57 19.9,29.49 19.79,29.4 19.76,29.38 19.73,29.35 19.69,29.32 19.66,29.3 19.63,29.27 19.6,29.24 19.57,29.22 19.54,29.19 19.51,29.16 19.48,29.14 19.45,29.11 19.42,29.08 19.39,29.05 19.36,29.03 19.33,29 19.3,28.97 19.29,28.96 19.27,28.94 19.24,28.91 19.21,28.88 19.18,28.85 19.15,28.81 19.11,28.78 19.07,28.74 19.04,28.7 19,28.67 18.97,28.64 18.94,28.61 18.91,28.58 18.89,28.56 18.87,28.55 "/>
    <polygon class="fil7" points="23.43,16.74 23.41,16.74 23.39,16.74 23.36,16.74 23.33,16.75 23.29,16.76 23.25,16.77 23.21,16.78 23.17,16.79 23.12,16.81 23.07,16.83 23.02,16.84 22.96,16.86 22.91,16.88 22.85,16.9 22.79,16.93 22.74,16.95 22.68,16.97 22.62,16.99 22.57,17.02 22.51,17.04 22.46,17.06 22.4,17.08 22.35,17.11 22.31,17.13 22.26,17.15 22.22,17.16 22.18,17.18 22.15,17.2 22.12,17.21 22.09,17.22 22.07,17.23 22.05,17.24 22.01,17.26 21.98,17.28 21.94,17.3 21.9,17.32 21.87,17.34 21.83,17.36 21.79,17.38 21.75,17.4 21.71,17.42 21.67,17.44 21.63,17.47 21.59,17.49 21.55,17.51 21.51,17.54 21.47,17.56 21.43,17.59 21.38,17.61 21.34,17.63 21.3,17.66 21.26,17.68 21.23,17.71 21.19,17.73 21.15,17.76 21.11,17.78 21.07,17.81 21.04,17.83 21,17.86 20.97,17.88 20.94,17.91 20.9,17.93 20.87,17.96 20.84,17.98 19.92,18.76 19.84,18.84 19.76,18.92 19.68,19 19.6,19.09 19.52,19.18 19.44,19.27 19.36,19.37 19.29,19.47 19.21,19.57 19.14,19.67 19.06,19.77 18.99,19.88 18.92,19.99 18.85,20.09 18.78,20.2 18.71,20.32 18.65,20.43 18.58,20.54 18.52,20.65 18.46,20.77 18.4,20.88 18.35,20.99 18.29,21.11 18.24,21.22 18.19,21.33 18.14,21.44 18.1,21.55 18.06,21.66 18.02,21.77 17.99,21.87 17.95,21.98 17.92,22.08 17.72,22.92 17.71,22.94 17.71,22.95 17.71,22.96 17.71,22.98 17.71,22.99 17.7,23 17.7,23.02 17.7,23.03 17.7,23.04 17.7,23.06 17.7,23.07 17.7,23.08 17.69,23.1 17.69,23.11 17.69,23.12 17.68,23.14 17.68,23.15 17.68,23.16 17.68,23.17 17.68,23.18 17.67,23.19 17.67,23.2 17.67,23.21 17.67,23.23 17.66,23.24 17.66,23.25 17.66,23.27 17.66,23.28 17.66,23.3 17.65,23.31 17.65,23.33 17.65,23.34 17.6,23.75 17.6,23.76 17.6,23.77 17.6,23.79 17.6,23.8 17.6,23.81 17.6,23.82 17.6,23.83 17.6,23.84 17.6,23.87 17.6,23.9 17.6,23.92 17.6,23.95 17.6,23.98 17.6,24.01 17.6,24.04 17.6,24.07 17.6,24.1 17.6,24.13 17.59,24.16 17.59,24.19 17.59,24.22 17.59,24.25 17.59,24.27 17.59,24.3 17.59,24.32 17.58,24.35 17.58,24.38 17.58,24.4 17.59,24.43 17.59,24.46 17.59,24.49 17.59,24.51 17.59,24.54 17.59,24.57 17.59,24.6 17.59,24.63 17.6,24.65 17.6,24.68 17.6,24.71 17.6,24.73 17.6,24.77 17.6,24.81 17.6,24.85 17.61,24.89 17.61,24.94 17.61,24.98 17.62,25.03 17.62,25.08 17.63,25.13 17.63,25.18 17.64,25.24 17.65,25.29 17.65,25.34 17.66,25.4 17.67,25.45 17.68,25.51 17.69,25.56 17.7,25.62 17.7,25.67 17.71,25.73 17.72,25.78 17.73,25.83 17.74,25.89 17.75,25.94 17.76,25.99 17.77,26.03 17.78,26.08 17.8,26.13 17.81,26.17 17.82,26.21 17.83,26.25 17.84,26.28 18.27,27.02 18.3,27.06 18.33,27.11 18.36,27.15 18.39,27.19 18.41,27.22 18.44,27.26 18.46,27.29 18.49,27.32 18.51,27.36 18.54,27.39 18.56,27.42 18.59,27.45 18.62,27.49 18.64,27.53 18.67,27.56 18.7,27.6 18.79,27.69 18.79,27.67 18.78,27.65 18.77,27.63 18.76,27.61 18.75,27.58 18.74,27.56 18.72,27.54 18.71,27.51 18.7,27.49 18.68,27.46 18.67,27.43 18.65,27.4 18.64,27.37 18.62,27.34 18.61,27.31 18.59,27.28 18.58,27.25 18.56,27.22 18.54,27.19 18.52,27.15 18.51,27.12 18.49,27.08 18.47,27.05 18.46,27.01 18.44,26.97 18.42,26.94 18.4,26.9 18.39,26.86 18.37,26.82 18.35,26.78 18.34,26.74 18.32,26.7 18.24,26.48 18.16,26.26 18.1,26.03 18.04,25.81 17.99,25.58 17.95,25.35 17.92,25.12 17.9,24.89 17.88,24.65 17.88,24.42 17.88,24.19 17.89,23.96 17.91,23.72 17.93,23.49 17.96,23.26 18.01,23.03 18.05,22.8 18.11,22.58 18.18,22.35 18.25,22.13 18.33,21.91 18.42,21.69 18.51,21.48 18.61,21.27 18.72,21.06 18.84,20.86 18.97,20.66 19.1,20.47 19.24,20.28 19.39,20.09 19.54,19.91 19.7,19.74 19.73,19.71 19.75,19.68 19.78,19.66 19.8,19.63 19.82,19.61 19.85,19.59 19.87,19.56 19.9,19.54 19.92,19.52 19.94,19.49 19.97,19.47 19.99,19.45 20.01,19.42 20.04,19.4 20.06,19.38 20.09,19.35 20.11,19.33 20.14,19.31 20.16,19.29 20.19,19.26 20.22,19.24 20.25,19.22 20.27,19.2 20.3,19.18 20.33,19.15 20.35,19.13 20.37,19.11 20.4,19.09 20.42,19.07 20.45,19.05 20.48,19.03 20.51,19 20.53,18.98 20.55,18.97 20.58,18.95 20.6,18.93 20.62,18.91 20.65,18.89 20.68,18.87 20.71,18.85 20.74,18.83 20.77,18.81 20.8,18.79 20.83,18.77 20.86,18.75 20.89,18.73 20.92,18.71 20.96,18.69 20.99,18.67 21.02,18.64 21.06,18.62 21.09,18.6 21.12,18.58 21.15,18.57 21.18,18.55 21.21,18.53 21.24,18.51 21.27,18.49 21.3,18.48 21.33,18.46 21.35,18.45 21.38,18.43 21.4,18.42 21.42,18.41 21.52,18.35 21.63,18.3 21.73,18.25 21.83,18.2 21.94,18.15 22.04,18.11 22.15,18.06 22.26,18.02 22.37,17.98 22.48,17.94 22.58,17.91 22.69,17.87 22.81,17.84 22.92,17.81 23.03,17.78 23.14,17.75 23.26,17.73 23.37,17.71 23.48,17.68 23.6,17.66 23.72,17.65 23.83,17.63 23.95,17.62 24.07,17.61 24.18,17.6 24.3,17.59 24.42,17.59 24.54,17.58 24.66,17.58 24.78,17.59 24.91,17.59 25.03,17.59 25.18,17.6 25.32,17.62 25.47,17.63 25.62,17.65 25.76,17.68 25.91,17.7 26.05,17.73 26.2,17.76 26.34,17.8 26.48,17.84 26.62,17.88 26.75,17.92 26.89,17.97 27.03,18.02 27.16,18.07 27.29,18.13 27.42,18.19 27.55,18.25 27.68,18.31 27.81,18.38 27.93,18.45 28.06,18.52 28.18,18.6 28.3,18.68 28.42,18.76 28.53,18.84 28.65,18.93 28.76,19.02 28.87,19.11 28.98,19.2 29.09,19.3 29.19,19.39 29.21,19.41 29.22,19.42 29.23,19.43 29.25,19.44 29.26,19.46 29.27,19.47 29.28,19.48 29.29,19.49 29.31,19.51 29.32,19.52 29.33,19.53 29.34,19.54 29.36,19.55 29.37,19.57 29.39,19.58 29.4,19.59 29.36,19.5 29.35,19.49 29.34,19.48 29.34,19.47 29.33,19.46 29.32,19.45 29.31,19.44 29.31,19.43 29.3,19.42 29.27,19.38 29.24,19.34 29.22,19.3 29.19,19.27 29.16,19.23 29.14,19.2 29.11,19.17 29.09,19.14 29.06,19.1 29.04,19.07 29.01,19.05 28.99,19.02 28.97,18.99 28.94,18.96 28.92,18.93 28.89,18.9 28.87,18.87 28.84,18.85 28.82,18.82 28.79,18.79 28.76,18.76 28.74,18.73 28.71,18.71 28.68,18.68 28.65,18.65 28.62,18.62 28.59,18.59 28.55,18.55 28.52,18.52 28.48,18.49 28.45,18.45 28.41,18.42 28.37,18.39 28.34,18.35 28.31,18.32 28.27,18.29 28.24,18.26 28.2,18.23 28.16,18.2 28.13,18.17 28.09,18.14 28.05,18.11 28.01,18.08 27.97,18.05 27.93,18.02 27.89,17.99 27.85,17.96 27.81,17.93 27.77,17.91 27.73,17.88 27.69,17.85 27.65,17.82 27.6,17.79 27.56,17.76 27.52,17.74 27.47,17.71 27.43,17.68 27.38,17.65 27.34,17.63 27.29,17.6 27.25,17.57 27.2,17.55 27.16,17.52 27.11,17.49 27.02,17.45 26.92,17.4 26.83,17.35 26.73,17.31 26.63,17.26 26.52,17.22 26.41,17.18 26.31,17.13 26.19,17.09 26.08,17.06 25.97,17.02 25.85,16.98 25.73,16.95 25.61,16.92 25.49,16.89 25.37,16.86 25.25,16.84 25.13,16.81 25.01,16.79 24.88,16.77 24.76,16.76 24.64,16.74 24.51,16.73 24.39,16.72 24.27,16.71 24.14,16.71 24.02,16.71 23.9,16.71 23.78,16.71 23.66,16.72 23.55,16.73 "/>
    <polygon class="fil6" points="18.73,24.5 18.74,24.57 18.75,24.63 18.78,24.68 18.81,24.72 18.84,24.76 18.88,24.79 18.93,24.82 18.97,24.84 19.03,24.85 19.08,24.86 19.14,24.86 19.2,24.86 19.27,24.86 19.33,24.85 19.4,24.84 19.47,24.83 19.53,24.81 19.6,24.79 19.67,24.77 19.74,24.75 19.81,24.73 19.87,24.7 19.93,24.68 20,24.66 20.06,24.63 20.11,24.61 20.17,24.59 20.22,24.57 20.26,24.55 20.3,24.53 20.34,24.52 20.37,24.5 20.37,24.54 20.37,24.58 20.37,24.63 20.37,24.68 20.37,24.74 20.37,24.8 20.37,24.86 20.36,24.93 20.36,25 20.36,25.07 20.35,25.15 20.35,25.22 20.35,25.3 20.34,25.38 20.34,25.46 20.33,25.54 20.33,25.62 20.32,25.7 20.32,25.78 20.31,25.86 20.3,25.93 20.3,26.01 20.29,26.08 20.29,26.15 20.28,26.22 20.27,26.28 20.27,26.34 20.26,26.39 20.25,26.44 20.25,26.49 20.24,26.53 20.23,26.56 20.23,26.59 20.22,26.62 20.21,26.65 20.2,26.68 20.2,26.71 20.19,26.74 20.18,26.76 20.17,26.79 20.16,26.82 20.15,26.84 20.14,26.86 20.13,26.89 20.12,26.91 20.11,26.94 20.1,26.96 20.09,26.98 20.07,27.01 20.06,27.03 20.05,27.05 20.04,27.07 20.03,27.09 20.01,27.12 20,27.14 19.99,27.16 19.97,27.18 19.96,27.2 19.95,27.22 19.93,27.25 19.92,27.27 19.91,27.29 19.89,27.31 19.88,27.33 19.86,27.35 19.85,27.38 19.84,27.4 19.83,27.42 19.82,27.44 19.8,27.47 19.79,27.49 19.78,27.52 19.77,27.55 19.75,27.58 19.74,27.6 19.73,27.63 19.72,27.66 19.71,27.69 19.7,27.72 19.69,27.75 19.68,27.78 19.68,27.81 19.67,27.85 19.66,27.88 19.66,27.91 19.65,27.94 19.65,27.97 19.64,28 19.64,28.03 19.64,28.06 19.64,28.09 19.64,28.11 19.64,28.14 19.65,28.17 19.65,28.19 19.66,28.22 19.68,28.24 19.7,28.25 19.71,28.27 19.74,28.29 19.76,28.31 19.78,28.32 19.8,28.34 19.83,28.36 19.85,28.37 19.88,28.39 19.9,28.4 19.93,28.42 19.96,28.43 19.99,28.45 20.02,28.46 20.05,28.47 20.08,28.48 20.11,28.49 20.14,28.51 20.17,28.52 20.2,28.53 20.24,28.53 20.27,28.54 20.3,28.55 20.33,28.56 20.37,28.56 20.4,28.57 20.43,28.57 20.47,28.57 20.5,28.57 20.53,28.57 20.57,28.57 20.64,28.57 20.7,28.56 20.76,28.55 20.8,28.53 20.84,28.51 20.87,28.48 20.89,28.45 20.9,28.42 20.91,28.38 20.91,28.34 20.91,28.29 20.91,28.25 20.9,28.2 20.89,28.14 20.88,28.09 20.86,28.03 20.85,27.97 20.84,27.9 20.83,27.83 20.82,27.77 20.81,27.7 20.8,27.62 20.8,27.55 20.8,27.47 20.81,27.39 20.82,27.31 20.84,27.23 20.87,27.15 20.9,27.07 20.95,26.98 21,26.9 21.06,26.81 21.08,26.79 21.09,26.77 21.11,26.75 21.13,26.73 21.15,26.71 21.16,26.69 21.18,26.67 21.2,26.65 21.22,26.63 21.23,26.61 21.25,26.59 21.27,26.57 21.29,26.55 21.31,26.53 21.32,26.51 21.34,26.49 21.36,26.47 21.38,26.45 21.4,26.43 21.42,26.41 21.44,26.39 21.46,26.37 21.48,26.35 21.5,26.33 21.51,26.31 21.54,26.28 21.55,26.26 21.58,26.24 21.6,26.21 21.62,26.19 21.64,26.16 21.66,26.14 21.68,26.14 21.71,26.14 21.74,26.14 21.77,26.14 21.8,26.14 21.84,26.15 21.87,26.15 21.91,26.15 21.94,26.15 21.98,26.15 22.01,26.16 22.05,26.16 22.09,26.16 22.13,26.16 22.17,26.16 22.2,26.17 22.24,26.17 22.28,26.17 22.32,26.17 22.36,26.17 22.39,26.17 22.43,26.17 22.46,26.17 22.5,26.18 22.53,26.18 22.56,26.17 22.59,26.17 22.62,26.17 22.64,26.17 22.67,26.17 22.69,26.17 22.71,26.16 22.74,26.16 22.77,26.16 22.8,26.15 22.82,26.15 22.85,26.14 22.88,26.13 22.91,26.13 22.93,26.12 22.96,26.12 22.99,26.11 23.02,26.1 23.04,26.1 23.07,26.09 23.1,26.08 23.13,26.08 23.16,26.07 23.18,26.06 23.21,26.05 23.24,26.05 23.27,26.04 23.29,26.03 23.32,26.03 23.35,26.02 23.38,26.02 23.4,26.01 23.43,26.01 23.46,26 23.48,26 23.51,25.99 23.54,25.99 23.56,25.98 23.59,25.98 23.59,25.99 23.6,26 23.6,26.02 23.61,26.05 23.61,26.08 23.62,26.11 23.63,26.15 23.64,26.19 23.64,26.24 23.65,26.28 23.66,26.33 23.67,26.38 23.68,26.44 23.69,26.49 23.7,26.55 23.71,26.6 23.72,26.66 23.73,26.72 23.74,26.77 23.75,26.83 23.75,26.88 23.76,26.93 23.77,26.98 23.78,27.03 23.78,27.07 23.79,27.11 23.8,27.15 23.8,27.18 23.8,27.21 23.81,27.24 23.81,27.26 23.81,27.27 23.81,27.32 23.81,27.37 23.81,27.41 23.81,27.46 23.8,27.51 23.79,27.55 23.79,27.6 23.78,27.64 23.77,27.68 23.76,27.73 23.75,27.77 23.73,27.81 23.72,27.86 23.71,27.9 23.69,27.94 23.68,27.98 23.67,28.03 23.65,28.07 23.64,28.11 23.62,28.16 23.61,28.2 23.59,28.24 23.58,28.29 23.57,28.33 23.56,28.38 23.54,28.42 23.53,28.47 23.52,28.52 23.51,28.56 23.5,28.61 23.5,28.66 23.49,28.71 23.54,28.73 23.59,28.75 23.63,28.77 23.67,28.8 23.71,28.82 23.75,28.83 23.79,28.85 23.82,28.87 23.85,28.89 23.89,28.9 23.92,28.92 23.95,28.93 23.98,28.94 24.01,28.95 24.04,28.96 24.07,28.97 24.11,28.97 24.14,28.98 24.17,28.98 24.21,28.98 24.25,28.98 24.29,28.97 24.33,28.97 24.37,28.96 24.42,28.95 24.47,28.93 24.52,28.92 24.58,28.9 24.63,28.88 24.7,28.86 24.76,28.83 24.84,28.8 24.84,28.78 24.84,28.77 24.84,28.75 24.84,28.72 24.84,28.69 24.83,28.66 24.83,28.63 24.83,28.59 24.82,28.55 24.82,28.51 24.82,28.47 24.81,28.43 24.81,28.38 24.8,28.33 24.8,28.29 24.79,28.24 24.78,28.19 24.78,28.14 24.77,28.09 24.77,28.04 24.76,27.99 24.76,27.94 24.75,27.89 24.74,27.84 24.74,27.8 24.74,27.75 24.73,27.71 24.73,27.67 24.72,27.63 24.72,27.59 24.72,27.56 24.72,27.52 24.72,27.48 24.72,27.44 24.71,27.39 24.71,27.35 24.71,27.3 24.71,27.26 24.71,27.21 24.71,27.17 24.71,27.12 24.71,27.08 24.71,27.03 24.72,26.99 24.72,26.94 24.72,26.9 24.72,26.85 24.72,26.8 24.73,26.76 24.73,26.71 24.73,26.67 24.74,26.62 24.74,26.58 24.74,26.53 24.75,26.49 24.75,26.44 24.76,26.4 24.76,26.35 24.77,26.31 24.77,26.26 24.78,26.22 24.78,26.17 24.79,26.13 24.8,26.08 24.82,26.09 24.85,26.1 24.88,26.12 24.91,26.13 24.95,26.15 24.98,26.16 25.01,26.18 25.04,26.2 25.08,26.23 25.11,26.25 25.14,26.27 25.17,26.3 25.2,26.32 25.23,26.35 25.26,26.38 25.29,26.41 25.32,26.44 25.35,26.47 25.37,26.5 25.39,26.53 25.42,26.56 25.44,26.59 25.45,26.62 25.47,26.66 25.48,26.69 25.5,26.72 25.5,26.75 25.51,26.78 25.51,26.82 25.51,26.85 25.51,26.88 25.51,26.91 25.49,26.91 25.47,26.91 25.45,26.91 25.41,26.91 25.37,26.91 25.33,26.91 25.29,26.91 25.24,26.91 25.2,26.91 25.16,26.92 25.12,26.92 25.08,26.92 25.05,26.93 25.02,26.93 25,26.94 24.99,26.94 24.99,26.95 24.98,26.96 24.98,26.98 24.97,27.01 24.97,27.03 24.96,27.07 24.95,27.1 24.95,27.14 24.95,27.18 24.94,27.23 24.94,27.28 24.94,27.32 24.94,27.38 24.94,27.43 24.94,27.48 24.94,27.53 24.95,27.58 24.96,27.63 24.97,27.68 24.98,27.73 25,27.77 25.02,27.82 25.04,27.86 25.07,27.9 25.1,27.93 25.13,27.96 25.17,27.98 25.21,28 25.26,28.02 25.31,28.03 25.36,28.03 25.42,28.02 25.48,28.01 25.54,28 25.59,27.98 25.65,27.95 25.7,27.92 25.76,27.89 25.81,27.85 25.86,27.81 25.92,27.77 25.97,27.72 26.02,27.67 26.06,27.62 26.11,27.56 26.15,27.51 26.2,27.45 26.24,27.39 26.27,27.33 26.31,27.28 26.35,27.22 26.38,27.16 26.41,27.1 26.43,27.04 26.46,26.98 26.48,26.93 26.5,26.87 26.51,26.82 26.53,26.77 26.54,26.73 26.54,26.69 26.55,26.65 26.54,26.61 26.54,26.58 26.53,26.55 26.52,26.53 26.51,26.5 26.49,26.48 26.47,26.45 26.45,26.43 26.43,26.4 26.41,26.38 26.38,26.35 26.35,26.32 26.32,26.3 26.29,26.27 26.26,26.24 26.23,26.22 26.2,26.19 26.17,26.16 26.14,26.13 26.11,26.1 26.08,26.07 26.06,26.04 26.03,26.01 26.01,25.97 25.99,25.94 25.97,25.9 25.95,25.86 25.94,25.83 25.93,25.79 25.92,25.75 25.92,25.71 25.92,25.66 25.92,25.62 25.93,25.57 25.93,25.55 25.94,25.53 25.94,25.51 25.95,25.49 25.96,25.47 25.96,25.45 25.97,25.43 25.98,25.41 25.99,25.4 25.99,25.38 26,25.36 26.01,25.34 26.02,25.32 26.03,25.3 26.04,25.28 26.04,25.26 26.05,25.24 26.06,25.22 26.07,25.2 26.08,25.18 26.09,25.16 26.1,25.14 26.1,25.12 26.11,25.1 26.12,25.08 26.13,25.06 26.13,25.04 26.14,25.02 26.14,24.99 26.15,24.97 26.15,24.95 26.16,24.93 26.11,24.92 26.06,24.91 26.01,24.91 25.96,24.9 25.91,24.9 25.86,24.9 25.81,24.89 25.76,24.89 25.71,24.89 25.66,24.89 25.61,24.89 25.56,24.89 25.51,24.88 25.46,24.88 25.41,24.88 25.36,24.88 25.31,24.87 25.26,24.87 25.22,24.86 25.17,24.86 25.12,24.85 25.07,24.84 25.03,24.83 24.98,24.82 24.94,24.81 24.89,24.79 24.85,24.77 24.8,24.76 24.76,24.73 24.72,24.71 24.68,24.69 24.63,24.66 24.61,24.64 24.58,24.61 24.55,24.59 24.52,24.56 24.5,24.54 24.48,24.51 24.45,24.48 24.43,24.45 24.41,24.42 24.39,24.39 24.37,24.36 24.35,24.33 24.33,24.29 24.31,24.26 24.3,24.23 24.28,24.19 24.26,24.16 24.24,24.12 24.23,24.08 24.21,24.05 24.2,24.01 24.18,23.98 24.16,23.94 24.15,23.9 24.13,23.87 24.12,23.83 24.1,23.79 24.08,23.76 24.07,23.72 24.05,23.68 24.03,23.65 24.01,23.61 24,23.58 23.98,23.55 23.96,23.52 23.95,23.49 23.93,23.45 23.91,23.41 23.89,23.37 23.87,23.34 23.85,23.3 23.84,23.26 23.82,23.22 23.81,23.18 23.81,23.14 23.8,23.1 23.8,23.06 23.81,23.03 23.83,22.94 23.85,22.87 23.87,22.79 23.89,22.73 23.91,22.67 23.93,22.61 23.95,22.56 23.97,22.51 23.98,22.47 24,22.43 24.01,22.39 24.02,22.36 24.03,22.33 24.04,22.3 24.04,22.28 24.05,22.26 24.04,22.24 24.04,22.22 24.03,22.21 24.02,22.19 24,22.18 23.98,22.17 23.95,22.15 23.92,22.14 23.89,22.13 23.85,22.12 23.8,22.11 23.75,22.1 23.69,22.09 23.63,22.07 23.56,22.06 23.48,22.04 23.4,22.03 23.33,22.01 23.25,22 23.18,21.99 23.11,21.98 23.04,21.97 22.97,21.96 22.9,21.96 22.83,21.95 22.76,21.95 22.7,21.95 22.63,21.95 22.57,21.95 22.5,21.96 22.44,21.96 22.38,21.97 22.32,21.98 22.25,21.99 22.19,22 22.13,22.02 22.07,22.03 22.01,22.05 21.95,22.07 21.89,22.1 21.83,22.12 21.77,22.15 21.71,22.18 21.65,22.21 21.59,22.24 21.53,22.28 21.47,22.31 21.41,22.35 21.38,22.37 21.35,22.39 21.32,22.42 21.3,22.44 21.27,22.46 21.24,22.49 21.22,22.52 21.19,22.55 21.16,22.58 21.14,22.61 21.11,22.64 21.08,22.68 21.06,22.71 21.03,22.75 21.01,22.78 20.98,22.82 20.96,22.85 20.93,22.89 20.91,22.93 20.89,22.96 20.87,23 20.85,23.04 20.82,23.07 20.8,23.11 20.79,23.15 20.77,23.18 20.75,23.22 20.73,23.25 20.72,23.28 20.7,23.32 20.69,23.35 20.67,23.38 20.65,23.43 20.63,23.48 20.62,23.52 20.6,23.57 20.59,23.61 20.57,23.66 20.56,23.7 20.54,23.74 20.53,23.78 20.52,23.82 20.5,23.87 20.49,23.9 20.48,23.94 20.46,23.98 20.45,24.02 20.43,24.05 20.42,24.09 20.4,24.12 20.39,24.16 20.37,24.19 20.35,24.22 20.33,24.25 20.31,24.28 20.28,24.31 20.26,24.34 20.23,24.36 20.2,24.39 20.17,24.42 20.13,24.44 20.1,24.46 20.06,24.48 20.02,24.5 19.95,24.54 19.89,24.56 19.83,24.59 19.78,24.61 19.73,24.63 19.68,24.65 19.64,24.66 19.6,24.67 19.56,24.68 19.53,24.69 19.5,24.69 19.47,24.69 19.45,24.69 19.43,24.69 19.41,24.69 19.39,24.68 19.37,24.68 19.35,24.67 19.34,24.66 19.32,24.65 19.31,24.64 19.29,24.63 19.28,24.62 19.27,24.61 19.25,24.6 19.24,24.59 19.22,24.58 19.21,24.57 19.19,24.56 19.17,24.55 19.15,24.54 19.13,24.53 19.11,24.52 19.08,24.52 19.06,24.51 19.03,24.51 19.01,24.5 18.98,24.5 18.96,24.5 18.93,24.5 18.9,24.5 18.88,24.5 18.85,24.5 18.83,24.5 18.8,24.5 18.78,24.5 18.75,24.5 "/>
    <polygon class="fil6" points="27.05,20.2 27.02,20.18 26.99,20.17 26.96,20.16 26.93,20.14 26.9,20.13 26.87,20.11 26.84,20.1 26.82,20.08 26.79,20.06 26.76,20.05 26.73,20.03 26.71,20.02 26.68,20 26.65,19.99 26.63,19.97 26.6,19.96 26.57,19.94 26.54,19.93 26.51,19.91 26.48,19.9 26.45,19.89 26.42,19.87 26.39,19.86 26.36,19.85 26.33,19.84 26.29,19.83 26.26,19.82 26.22,19.81 26.19,19.8 26.15,19.8 26.11,19.79 26.07,19.79 26.09,19.8 26.11,19.81 26.14,19.82 26.17,19.83 26.2,19.84 26.23,19.85 26.27,19.86 26.3,19.87 26.34,19.88 26.38,19.9 26.42,19.91 26.46,19.93 26.5,19.95 26.54,19.97 26.59,19.99 26.63,20.01 26.63,20.03 26.63,20.03 26.64,20.03 26.64,20.02 26.64,20.01 26.64,20.01 26.63,20.01 26.61,20.03 26.6,20.05 26.59,20.05 26.58,20.05 26.58,20.04 26.58,20.04 26.59,20.04 26.59,20.04 26.6,20.06 26.62,20.06 26.64,20.06 26.66,20.07 26.68,20.08 26.7,20.08 26.72,20.09 26.75,20.1 26.77,20.11 26.79,20.11 26.81,20.12 26.84,20.13 26.86,20.14 26.88,20.16 26.91,20.17 26.93,20.18 26.95,20.19 26.97,20.2 26.99,20.22 27.02,20.23 27.04,20.24 27.06,20.25 27.08,20.26 27.1,20.28 27.12,20.29 27.13,20.3 27.15,20.31 27.17,20.33 27.18,20.34 27.19,20.35 27.21,20.36 27.22,20.37 27.23,20.38 27.63,20.59 27.63,20.67 27.63,20.75 27.64,20.81 27.66,20.87 27.68,20.93 27.7,20.97 27.73,21.01 27.77,21.05 27.81,21.08 27.85,21.1 27.89,21.12 27.94,21.14 27.99,21.15 28.04,21.16 28.1,21.17 28.16,21.18 28.21,21.18 28.28,21.18 28.34,21.18 28.4,21.19 28.47,21.19 28.53,21.19 28.6,21.19 28.66,21.19 28.73,21.2 28.79,21.21 28.86,21.21 28.92,21.23 28.98,21.24 29.04,21.26 29.1,21.29 29.16,21.31 29.18,21.33 29.2,21.34 29.22,21.35 29.24,21.37 29.26,21.38 29.27,21.4 29.29,21.41 29.31,21.43 29.33,21.45 29.34,21.47 29.36,21.49 29.37,21.51 29.39,21.53 29.4,21.56 29.41,21.58 29.42,21.6 29.43,21.63 29.44,21.65 29.45,21.68 29.46,21.71 29.47,21.73 29.47,21.76 29.48,21.79 29.48,21.82 29.48,21.84 29.48,21.87 29.48,21.9 29.48,21.93 29.47,21.96 29.47,21.99 29.46,22.03 29.45,22.06 29.44,22.11 29.42,22.16 29.39,22.21 29.37,22.25 29.34,22.3 29.3,22.34 29.27,22.38 29.23,22.41 29.19,22.45 29.15,22.48 29.11,22.51 29.07,22.54 29.02,22.56 28.98,22.58 28.93,22.6 28.89,22.61 28.85,22.62 28.82,22.63 28.78,22.64 28.75,22.64 28.72,22.64 28.69,22.65 28.66,22.65 28.63,22.64 28.6,22.64 28.57,22.64 28.54,22.63 28.52,22.63 28.49,22.62 28.47,22.61 28.44,22.6 28.42,22.59 28.4,22.58 28.37,22.57 28.35,22.56 28.33,22.55 28.31,22.53 28.29,22.52 28.27,22.5 28.25,22.49 28.22,22.47 28.21,22.46 28.19,22.44 28.17,22.42 28.15,22.4 28.13,22.39 28.11,22.37 28.09,22.35 28.07,22.34 28.06,22.32 28.04,22.31 28.03,22.29 28.01,22.28 27.99,22.26 27.97,22.24 27.96,22.23 27.94,22.21 27.92,22.19 27.9,22.18 27.88,22.16 27.86,22.14 27.84,22.13 27.82,22.11 27.8,22.09 27.78,22.07 27.76,22.06 27.74,22.04 27.71,22.02 27.69,22.01 27.67,21.99 27.65,21.98 27.63,21.96 27.61,21.95 27.59,21.93 27.57,21.92 27.55,21.9 27.53,21.89 27.51,21.88 27.49,21.87 27.47,21.85 27.42,21.82 27.36,21.79 27.3,21.76 27.25,21.74 27.19,21.71 27.13,21.69 27.08,21.67 27.02,21.66 26.97,21.64 26.92,21.63 26.86,21.62 26.81,21.61 26.75,21.61 26.7,21.6 26.65,21.6 26.59,21.6 26.54,21.6 26.49,21.6 26.43,21.61 26.38,21.61 26.33,21.62 26.27,21.63 26.22,21.64 26.16,21.66 26.11,21.67 26.06,21.69 26,21.7 25.95,21.72 25.89,21.74 25.84,21.76 25.78,21.79 25.72,21.81 25.67,21.83 25.63,21.85 25.58,21.88 25.54,21.9 25.51,21.92 25.47,21.93 25.44,21.95 25.42,21.97 25.39,21.98 25.37,22 25.35,22.01 25.33,22.02 25.31,22.04 25.3,22.05 25.28,22.06 25.27,22.07 25.25,22.08 25.24,22.08 25.23,22.09 25.22,22.09 25.2,22.1 25.19,22.1 25.18,22.1 25.16,22.1 25.14,22.1 25.13,22.1 25.11,22.1 25.09,22.1 25.06,22.09 25.04,22.09 25.01,22.08 24.98,22.07 24.9,22.05 24.82,22.04 24.74,22.03 24.67,22.03 24.61,22.03 24.54,22.04 24.48,22.05 24.42,22.07 24.37,22.09 24.32,22.12 24.27,22.15 24.23,22.18 24.19,22.21 24.15,22.25 24.12,22.29 24.09,22.34 24.06,22.38 24.03,22.43 24.01,22.48 23.99,22.53 23.97,22.58 23.95,22.64 23.94,22.69 23.93,22.75 23.92,22.8 23.92,22.86 23.91,22.91 23.91,22.96 23.91,23.02 23.91,23.07 23.92,23.12 23.92,23.17 23.93,23.2 23.93,23.22 23.94,23.25 23.94,23.27 23.95,23.3 23.96,23.32 23.97,23.35 23.98,23.37 23.98,23.39 23.99,23.42 24,23.44 24.01,23.47 24.02,23.49 24.03,23.51 24.04,23.53 24.05,23.56 24.07,23.58 24.08,23.6 24.09,23.62 24.1,23.65 24.11,23.67 24.12,23.69 24.13,23.71 24.15,23.74 24.16,23.76 24.17,23.78 24.18,23.8 24.19,23.83 24.2,23.85 24.21,23.87 24.22,23.89 24.23,23.92 24.25,23.97 24.28,24.03 24.3,24.07 24.32,24.12 24.34,24.16 24.36,24.2 24.38,24.24 24.41,24.28 24.43,24.32 24.46,24.35 24.49,24.38 24.52,24.42 24.55,24.45 24.59,24.48 24.63,24.52 24.68,24.55 24.7,24.56 24.72,24.58 24.74,24.59 24.77,24.61 24.79,24.62 24.81,24.64 24.84,24.65 24.86,24.66 24.88,24.67 24.91,24.69 24.93,24.7 24.96,24.71 24.98,24.72 25.01,24.73 25.03,24.74 25.06,24.75 25.08,24.76 25.11,24.77 25.14,24.78 25.16,24.79 25.19,24.8 25.22,24.81 25.25,24.82 25.27,24.82 25.3,24.83 25.33,24.84 25.36,24.84 25.39,24.85 25.42,24.85 25.45,24.86 25.48,24.86 25.51,24.86 25.57,24.87 25.63,24.87 25.69,24.87 25.74,24.87 25.8,24.87 25.86,24.86 25.91,24.85 25.97,24.84 26.02,24.83 26.07,24.81 26.13,24.79 26.18,24.78 26.23,24.75 26.28,24.73 26.32,24.71 26.37,24.68 26.42,24.65 26.46,24.62 26.5,24.59 26.54,24.56 26.58,24.53 26.62,24.49 26.66,24.45 26.69,24.42 26.72,24.38 26.76,24.34 26.78,24.3 26.81,24.26 26.84,24.21 26.86,24.17 26.88,24.13 26.9,24.08 26.86,24.06 26.83,24.04 26.8,24.03 26.77,24.01 26.75,24 26.72,23.98 26.7,23.97 26.68,23.96 26.66,23.94 26.64,23.93 26.62,23.91 26.6,23.89 26.58,23.86 26.57,23.83 26.55,23.8 26.54,23.76 26.56,23.77 26.58,23.78 26.6,23.79 26.62,23.8 26.64,23.81 26.66,23.82 26.68,23.83 26.69,23.84 26.71,23.85 26.73,23.86 26.75,23.87 26.77,23.89 26.79,23.9 26.81,23.91 26.82,23.92 26.84,23.93 26.86,23.94 26.88,23.95 26.9,23.96 26.92,23.97 26.94,23.98 26.96,23.99 26.98,24 27,24.01 27.02,24.02 27.05,24.03 27.07,24.04 27.09,24.05 27.12,24.06 27.14,24.07 27.17,24.08 27.19,24.08 27.21,24.09 27.23,24.09 27.26,24.1 27.28,24.1 27.31,24.1 27.33,24.11 27.36,24.11 27.39,24.11 27.41,24.11 27.44,24.11 27.47,24.11 27.5,24.11 27.53,24.11 27.56,24.11 27.59,24.11 27.62,24.11 27.65,24.11 27.68,24.11 27.71,24.1 27.73,24.1 27.76,24.09 27.79,24.09 27.82,24.09 27.84,24.08 27.87,24.07 27.89,24.07 27.91,24.06 27.93,24.05 27.95,24.05 27.97,24.04 27.99,24.03 28,24.02 27.99,24.01 27.98,24 27.97,23.99 27.95,23.97 27.94,23.96 27.93,23.95 27.92,23.94 27.91,23.93 27.9,23.91 27.89,23.9 27.89,23.89 27.88,23.87 27.88,23.85 27.87,23.83 27.87,23.81 27.87,23.79 27.87,23.76 27.88,23.74 27.88,23.72 27.89,23.7 27.89,23.68 27.9,23.66 27.91,23.64 27.92,23.62 27.93,23.61 27.95,23.59 27.96,23.58 27.98,23.57 27.99,23.56 28.01,23.55 28.02,23.55 28.04,23.54 28.07,23.54 28.1,23.55 28.13,23.56 28.16,23.57 28.2,23.58 28.23,23.6 28.27,23.62 28.31,23.64 28.34,23.66 28.38,23.68 28.42,23.7 28.45,23.72 28.49,23.74 28.52,23.75 28.55,23.77 28.57,23.78 28.61,23.79 28.65,23.8 28.69,23.81 28.73,23.82 28.77,23.83 28.81,23.83 28.86,23.84 28.9,23.84 28.95,23.84 28.99,23.84 29.04,23.84 29.08,23.84 29.13,23.84 29.18,23.83 29.22,23.83 29.27,23.83 29.31,23.82 29.36,23.81 29.4,23.8 29.44,23.8 29.49,23.79 29.53,23.78 29.57,23.76 29.61,23.75 29.65,23.74 29.68,23.73 29.72,23.71 29.75,23.7 29.79,23.68 29.82,23.67 29.85,23.65 29.87,23.64 29.83,23.64 29.79,23.64 29.76,23.65 29.72,23.65 29.68,23.65 29.65,23.66 29.61,23.66 29.58,23.67 29.54,23.67 29.5,23.68 29.46,23.68 29.42,23.68 29.38,23.68 29.34,23.68 29.29,23.68 29.24,23.67 29.27,23.63 29.29,23.59 29.31,23.55 29.33,23.52 29.34,23.5 29.36,23.47 29.37,23.45 29.39,23.43 29.41,23.41 29.43,23.4 29.45,23.38 29.47,23.36 29.5,23.34 29.53,23.32 29.56,23.3 29.6,23.28 29.63,23.26 29.66,23.24 29.68,23.22 29.71,23.2 29.74,23.18 29.77,23.16 29.8,23.14 29.82,23.12 29.85,23.1 29.88,23.08 29.91,23.05 29.93,23.03 29.96,23.01 29.98,22.99 30,22.96 30.02,22.94 30.08,22.87 30.13,22.8 30.17,22.73 30.21,22.66 30.24,22.59 30.26,22.52 30.28,22.45 30.29,22.37 30.3,22.3 30.3,22.23 30.3,22.15 30.29,22.08 30.28,22.01 30.26,21.94 30.24,21.87 30.22,21.8 30.19,21.73 30.16,21.67 30.13,21.6 30.1,21.54 30.06,21.48 30.02,21.42 29.98,21.36 29.94,21.31 29.89,21.26 29.85,21.21 29.8,21.17 29.76,21.12 29.71,21.09 29.67,21.05 29.62,21.02 29.57,20.99 29.53,20.97 29.49,20.95 29.44,20.93 29.4,20.91 29.36,20.89 29.32,20.88 29.28,20.87 29.24,20.86 29.19,20.85 29.15,20.84 29.11,20.83 29.07,20.83 29.03,20.82 28.99,20.82 28.95,20.82 28.91,20.81 28.87,20.81 28.83,20.81 28.79,20.81 28.75,20.81 28.71,20.81 28.66,20.81 28.62,20.81 28.58,20.81 28.53,20.81 28.49,20.81 28.45,20.81 28.4,20.81 28.36,20.8 28.31,20.8 28.26,20.8 28.21,20.79 28.19,20.78 28.17,20.77 28.16,20.75 28.15,20.73 28.14,20.71 28.13,20.69 28.12,20.67 28.11,20.65 28.1,20.62 28.09,20.6 28.07,20.57 28.05,20.55 28.02,20.52 27.98,20.5 27.94,20.48 27.88,20.46 27.87,20.45 27.85,20.45 27.84,20.44 27.83,20.44 27.83,20.44 27.82,20.44 27.8,20.44 27.79,20.44 27.77,20.44 27.76,20.44 27.76,20.44 27.75,20.44 27.75,20.44 27.75,20.44 27.74,20.45 27.73,20.45 27.72,20.45 27.72,20.45 27.72,20.45 27.72,20.45 27.72,20.46 27.71,20.46 27.7,20.46 27.67,20.46 27.67,20.42 27.68,20.39 27.69,20.37 27.7,20.34 27.71,20.32 27.72,20.29 27.73,20.27 27.74,20.25 27.75,20.22 27.76,20.2 27.76,20.17 27.76,20.13 27.76,20.1 27.75,20.06 27.73,20.01 27.71,19.96 27.7,19.94 27.69,19.92 27.68,19.89 27.66,19.87 27.65,19.85 27.63,19.83 27.61,19.81 27.59,19.79 27.57,19.77 27.55,19.75 27.53,19.74 27.5,19.72 27.47,19.71 27.45,19.7 27.42,19.69 27.38,19.69 27.39,19.73 27.39,19.77 27.39,19.81 27.39,19.85 27.39,19.88 27.4,19.92 27.4,19.95 27.4,19.98 27.4,20.01 27.4,20.04 27.4,20.07 27.4,20.1 27.4,20.12 27.41,20.15 27.41,20.17 27.41,20.19 27.42,20.21 27.42,20.23 27.43,20.25 27.44,20.26 27.45,20.28 27.46,20.3 27.47,20.31 27.48,20.32 27.5,20.34 27.52,20.35 27.54,20.36 27.56,20.37 27.58,20.38 27.6,20.38 27.63,20.39 27.66,20.4 27.66,20.53 27.64,20.52 27.61,20.51 27.59,20.5 27.56,20.49 27.54,20.48 27.51,20.47 27.48,20.45 27.46,20.44 27.43,20.43 27.4,20.41 27.38,20.4 27.35,20.38 27.33,20.37 27.3,20.35 27.28,20.34 27.26,20.33 27.22,20.31 27.19,20.29 27.16,20.27 27.14,20.24 27.12,20.22 27.1,20.2 27.08,20.18 27.07,20.16 27.06,20.13 27.05,20.11 27.05,20.09 27.04,20.07 27.04,20.04 27.04,20.02 27.04,19.99 27.04,19.97 27.04,19.94 27.04,19.92 27.05,19.89 27.05,19.87 27.05,19.84 27.05,19.81 27.06,19.79 27.06,19.76 27.05,19.73 27.05,19.7 27.05,19.67 27.04,19.64 27.04,19.61 27.03,19.58 27.01,19.54 27,19.51 26.99,19.49 26.97,19.46 26.96,19.44 26.94,19.42 26.93,19.4 26.91,19.38 26.89,19.36 26.87,19.34 26.85,19.33 26.82,19.31 26.8,19.3 26.77,19.28 26.74,19.27 26.71,19.26 26.67,19.26 26.64,19.25 26.65,19.34 26.66,19.42 26.67,19.49 26.68,19.56 26.69,19.62 26.71,19.67 26.73,19.72 26.74,19.76 26.76,19.8 26.78,19.83 26.8,19.86 26.81,19.89 26.83,19.91 26.85,19.92 26.87,19.94 26.89,19.95 26.91,19.96 26.93,19.97 26.94,19.98 26.96,19.99 26.97,20 26.99,20.01 27,20.02 27.01,20.03 27.03,20.04 27.03,20.05 27.04,20.07 27.05,20.09 27.05,20.11 27.05,20.13 27.05,20.16 "/>
    <polygon class="fil6" points="22.09,26.22 22.09,26.24 22.09,26.26 22.08,26.29 22.08,26.31 22.09,26.34 22.09,26.36 22.09,26.38 22.09,26.41 22.09,26.43 22.09,26.45 22.09,26.48 22.09,26.5 22.09,26.52 22.09,26.55 22.09,26.57 22.09,26.59 22.09,26.62 22.09,26.64 22.09,26.66 22.09,26.69 22.09,26.71 22.08,26.73 22.08,26.76 22.08,26.78 22.07,26.81 22.07,26.83 22.07,26.85 22.06,26.88 22.05,26.9 22.05,26.93 22.04,26.95 22.03,26.98 22.02,27.01 22,27.05 21.98,27.08 21.96,27.11 21.94,27.15 21.92,27.18 21.89,27.22 21.87,27.25 21.84,27.28 21.81,27.32 21.79,27.35 21.76,27.39 21.74,27.42 21.72,27.45 21.69,27.49 21.67,27.52 21.66,27.55 21.64,27.59 21.63,27.62 21.62,27.65 21.61,27.68 21.61,27.72 21.62,27.75 21.62,27.78 21.64,27.81 21.65,27.85 21.68,27.88 21.7,27.91 21.74,27.94 21.78,27.97 21.83,28 21.88,28.03 21.9,28.04 21.92,28.05 21.94,28.06 21.96,28.06 21.98,28.07 22,28.08 22.02,28.09 22.05,28.09 22.07,28.1 22.1,28.11 22.12,28.11 22.15,28.12 22.18,28.12 22.21,28.13 22.23,28.13 22.26,28.14 22.29,28.14 22.32,28.14 22.34,28.14 22.37,28.15 22.4,28.15 22.42,28.15 22.45,28.15 22.48,28.15 22.5,28.14 22.52,28.14 22.54,28.14 22.57,28.14 22.58,28.13 22.6,28.12 22.62,28.12 22.64,28.11 22.64,28.09 22.65,28.08 22.66,28.05 22.66,28.03 22.67,28.01 22.67,27.98 22.67,27.96 22.67,27.93 22.67,27.9 22.67,27.86 22.67,27.83 22.67,27.8 22.67,27.76 22.67,27.73 22.67,27.69 22.67,27.65 22.67,27.61 22.67,27.57 22.67,27.53 22.67,27.49 22.67,27.45 22.68,27.41 22.68,27.37 22.69,27.33 22.69,27.29 22.7,27.25 22.71,27.21 22.72,27.17 22.73,27.14 22.74,27.1 22.76,27.06 22.78,27.02 22.79,27 22.81,26.97 22.82,26.94 22.84,26.91 22.86,26.89 22.87,26.86 22.89,26.84 22.9,26.81 22.92,26.79 22.94,26.77 22.95,26.74 22.97,26.72 22.99,26.7 23,26.67 23.02,26.65 23.03,26.63 23.05,26.6 23.06,26.58 23.08,26.55 23.09,26.53 23.11,26.5 23.12,26.47 23.14,26.45 23.15,26.42 23.17,26.39 23.18,26.36 23.19,26.33 23.2,26.3 23.21,26.26 23.23,26.23 23.24,26.19 23.25,26.15 23.21,26.15 23.18,26.15 23.14,26.16 23.11,26.16 23.07,26.16 23.04,26.16 23,26.17 22.97,26.17 22.93,26.18 22.9,26.18 22.87,26.19 22.83,26.19 22.8,26.2 22.77,26.2 22.73,26.21 22.7,26.21 22.66,26.22 22.62,26.22 22.58,26.23 22.54,26.23 22.51,26.23 22.47,26.23 22.43,26.23 22.39,26.23 22.36,26.23 22.32,26.23 22.28,26.23 22.24,26.23 22.21,26.23 22.17,26.22 22.13,26.22 "/>
    <polygon class="fil6" points="29.98,23.91 29.92,23.92 29.87,23.92 29.81,23.92 29.76,23.93 29.71,23.93 29.66,23.94 29.61,23.94 29.56,23.94 29.51,23.95 29.46,23.95 29.41,23.96 29.36,23.96 29.32,23.96 29.27,23.96 29.22,23.96 29.17,23.96 29.12,23.96 29.07,23.95 29.02,23.95 28.97,23.94 28.92,23.93 28.87,23.92 28.82,23.91 28.77,23.89 28.71,23.87 28.66,23.85 28.6,23.83 28.55,23.8 28.49,23.77 28.43,23.74 28.37,23.71 28.3,23.67 28.27,23.65 28.24,23.64 28.21,23.62 28.17,23.61 28.14,23.6 28.11,23.6 28.08,23.6 28.05,23.6 28.02,23.61 28,23.62 27.98,23.64 27.96,23.66 27.94,23.69 27.93,23.72 27.93,23.77 27.92,23.82 27.93,23.84 27.93,23.87 27.94,23.9 27.96,23.92 27.97,23.94 27.99,23.97 28.02,23.99 28.04,24.01 28.07,24.02 28.1,24.04 28.13,24.05 28.17,24.07 28.2,24.08 28.24,24.09 28.28,24.1 28.32,24.11 28.36,24.12 28.4,24.13 28.45,24.13 28.49,24.14 28.53,24.15 28.57,24.15 28.62,24.15 28.66,24.16 28.7,24.16 28.74,24.16 28.78,24.16 28.82,24.16 28.86,24.16 28.89,24.16 28.93,24.16 28.96,24.16 28.99,24.16 29.02,24.16 29.05,24.15 29.09,24.15 29.12,24.15 29.16,24.15 29.19,24.14 29.23,24.14 29.26,24.13 29.3,24.13 29.33,24.12 29.37,24.12 29.4,24.11 29.44,24.1 29.48,24.1 29.51,24.09 29.55,24.08 29.58,24.07 29.61,24.07 29.65,24.06 29.68,24.05 29.71,24.04 29.74,24.03 29.77,24.02 29.8,24 29.83,23.99 29.86,23.98 29.88,23.97 29.91,23.95 29.93,23.94 29.96,23.93 "/>
    <polygon class="fil6" points="26.21,20.61 26.25,20.62 26.29,20.62 26.33,20.63 26.37,20.63 26.41,20.64 26.45,20.64 26.49,20.65 26.52,20.65 26.56,20.65 26.59,20.65 26.62,20.65 26.66,20.65 26.69,20.65 26.72,20.65 26.75,20.65 26.78,20.65 26.81,20.64 26.84,20.64 26.87,20.63 26.9,20.62 26.92,20.61 26.95,20.6 26.97,20.59 27,20.58 27.03,20.56 27.05,20.55 27.07,20.53 27.1,20.51 27.12,20.49 27.14,20.47 27.17,20.44 27.19,20.41 27.15,20.4 27.11,20.38 27.08,20.37 27.04,20.36 27.01,20.34 26.98,20.33 26.95,20.32 26.91,20.31 26.88,20.31 26.85,20.3 26.81,20.3 26.78,20.3 26.74,20.31 26.7,20.31 26.66,20.32 26.61,20.34 26.58,20.35 26.55,20.36 26.52,20.37 26.49,20.39 26.46,20.4 26.43,20.42 26.4,20.43 26.37,20.45 26.35,20.47 26.32,20.49 26.3,20.51 26.28,20.53 26.26,20.55 26.24,20.57 26.22,20.59 "/>
    <polygon class="fil6" points="25.56,20.23 25.58,20.25 25.6,20.27 25.62,20.29 25.63,20.3 25.66,20.32 25.68,20.33 25.7,20.34 25.72,20.35 25.74,20.35 25.77,20.36 25.79,20.36 25.82,20.37 25.84,20.37 25.87,20.37 25.89,20.37 25.92,20.36 25.95,20.36 25.97,20.36 26,20.35 26.03,20.35 26.05,20.34 26.08,20.33 26.11,20.32 26.13,20.31 26.16,20.3 26.18,20.29 26.21,20.28 26.23,20.27 26.25,20.25 26.28,20.24 26.3,20.23 26.32,20.21 26.51,20.05 26.51,20.05 26.51,20.05 26.52,20.05 26.52,20.05 26.52,20.05 26.52,20.04 26.52,20.04 26.53,20.04 26.48,20.03 26.44,20.02 26.41,20.01 26.37,20 26.34,20 26.32,19.99 26.29,19.99 26.26,19.99 26.23,19.99 26.21,19.99 26.18,19.99 26.15,20 26.11,20 26.08,20.01 26.04,20.03 25.99,20.04 25.97,20.05 25.95,20.06 25.92,20.07 25.89,20.08 25.86,20.09 25.83,20.1 25.8,20.12 25.76,20.13 25.73,20.14 25.7,20.16 25.67,20.17 25.64,20.19 25.62,20.2 25.59,20.21 25.58,20.22 "/>
    <polygon class="fil6" points="26.32,19.75 26.32,19.72 26.31,19.69 26.31,19.66 26.3,19.62 26.29,19.59 26.29,19.56 26.28,19.53 26.27,19.49 26.26,19.46 26.25,19.43 26.24,19.4 26.23,19.37 26.22,19.34 26.21,19.31 26.19,19.28 26.18,19.26 26.16,19.23 26.15,19.2 26.13,19.18 26.11,19.16 26.09,19.14 26.07,19.12 26.04,19.1 26.02,19.09 25.99,19.07 25.97,19.06 25.94,19.05 25.91,19.04 25.88,19.04 25.84,19.04 25.81,19.04 25.77,19.04 25.78,19.06 25.78,19.09 25.79,19.12 25.8,19.15 25.81,19.18 25.82,19.21 25.83,19.24 25.84,19.27 25.85,19.3 25.86,19.33 25.88,19.36 25.89,19.39 25.9,19.41 25.91,19.44 25.93,19.46 25.94,19.48 25.96,19.51 25.97,19.53 25.99,19.56 26.01,19.58 26.03,19.6 26.05,19.62 26.07,19.63 26.09,19.65 26.11,19.66 26.13,19.68 26.16,19.69 26.19,19.7 26.22,19.71 26.25,19.72 26.28,19.74 "/>
    <polygon class="fil6" points="25.05,19.84 25.06,19.86 25.08,19.87 25.09,19.89 25.11,19.9 25.13,19.91 25.15,19.92 25.17,19.93 25.19,19.94 25.21,19.95 25.23,19.96 25.26,19.96 25.28,19.97 25.31,19.97 25.33,19.97 25.36,19.97 25.39,19.97 25.42,19.97 25.45,19.97 25.47,19.96 25.5,19.96 25.53,19.95 25.56,19.94 25.59,19.93 25.62,19.92 25.65,19.91 25.68,19.9 25.71,19.89 25.74,19.87 25.77,19.86 25.8,19.84 25.83,19.82 25.86,19.8 25.86,19.8 25.87,19.8 25.87,19.8 25.87,19.8 25.87,19.8 25.87,19.8 25.88,19.79 25.88,19.79 25.91,19.77 25.88,19.76 25.85,19.75 25.82,19.73 25.8,19.72 25.77,19.71 25.75,19.7 25.72,19.69 25.7,19.68 25.67,19.67 25.65,19.66 25.62,19.65 25.59,19.65 25.55,19.65 25.51,19.65 25.47,19.65 25.43,19.66 25.4,19.66 25.38,19.67 25.35,19.68 25.33,19.68 25.3,19.69 25.27,19.7 25.24,19.72 25.22,19.73 25.19,19.74 25.17,19.75 25.14,19.77 25.12,19.78 25.1,19.8 25.08,19.81 25.06,19.82 "/>
    <polygon class="fil8" points="26.94,22.81 26.93,22.85 26.93,22.89 26.93,22.92 26.94,22.95 26.96,22.97 26.98,22.99 27,23.01 27.02,23.02 27.05,23.03 27.08,23.04 27.1,23.04 27.13,23.04 27.16,23.03 27.18,23.03 27.2,23.02 27.21,23 27.23,22.98 27.24,22.96 27.24,22.93 27.24,22.91 27.23,22.89 27.21,22.87 27.2,22.85 27.17,22.83 27.15,22.82 27.12,22.81 27.09,22.8 27.06,22.79 27.03,22.79 26.99,22.79 26.96,22.8 "/>
   </g>
  </g>
 </g>
</svg>
