<?xml version="1.0" encoding="UTF-8"?>
<!DOCTYPE svg PUBLIC "-//W3C//DTD SVG 1.1//EN" "http://www.w3.org/Graphics/SVG/1.1/DTD/svg11.dtd">
<!-- Creator: CorelDRAW -->
<svg xmlns="http://www.w3.org/2000/svg" xml:space="preserve" width="63.1953mm" height="40.3804mm" version="1.1" style="shape-rendering:geometricPrecision; text-rendering:geometricPrecision; image-rendering:optimizeQuality; fill-rule:evenodd; clip-rule:evenodd"
viewBox="0 0 230.66 147.39"
 xmlns:xlink="http://www.w3.org/1999/xlink"
 xmlns:xodm="http://www.corel.com/coreldraw/odm/2003">
 <defs>
  <style type="text/css">
   <![CDATA[
    .fil3 {fill:none}
    .fil8 {fill:#030000}
    .fil6 {fill:#33DC76}
    .fil7 {fill:#3A9960}
    .fil0 {fill:#42A66C}
    .fil5 {fill:black;fill-rule:nonzero}
    .fil4 {fill:#33DC76;fill-opacity:0.200000}
    .fil1 {fill:#1C613A;fill-opacity:0.501961}
    .fil2 {fill:#22663F;fill-opacity:0.501961}
   ]]>
  </style>
   <clipPath id="id0">
    <path d="M11.44 0l207.78 0c6.29,0 11.44,5.15 11.44,11.44l0 124.5c0,6.29 -5.15,11.44 -11.44,11.44l-207.78 0c-6.29,0 -11.44,-5.15 -11.44,-11.44l0 -124.5c0,-6.29 5.15,-11.44 11.44,-11.44z"/>
   </clipPath>
 </defs>
 <g id="Layer_x0020_1">
  <metadata id="CorelCorpID_0Corel-Layer"/>
  <path class="fil0" d="M11.44 0l207.78 0c6.29,0 11.44,5.15 11.44,11.44l0 124.5c0,6.29 -5.15,11.44 -11.44,11.44l-207.78 0c-6.29,0 -11.44,-5.15 -11.44,-11.44l0 -124.5c0,-6.29 5.15,-11.44 11.44,-11.44z"/>
  <g style="clip-path:url(#id0)">
   <g id="_105553314371136">
    <path id="_1" class="fil1" d="M39.24 -6.04c46.12,0 83.5,37.38 83.5,83.5 0,46.12 -37.38,83.5 -83.5,83.5 -46.12,0 -83.5,-37.38 -83.5,-83.5 0,-46.12 37.38,-83.5 83.5,-83.5z"/>
    <path class="fil2" d="M119.51 66.06c40.15,0 72.7,32.55 72.7,72.7 0,40.15 -32.55,72.7 -72.7,72.7 -40.15,0 -72.7,-32.55 -72.7,-72.7 0,-40.15 32.55,-72.7 72.7,-72.7z"/>
   </g>
  </g>
  <path class="fil3" d="M11.44 0l207.78 0c6.29,0 11.44,5.15 11.44,11.44l0 124.5c0,6.29 -5.15,11.44 -11.44,11.44l-207.78 0c-6.29,0 -11.44,-5.15 -11.44,-11.44l0 -124.5c0,-6.29 5.15,-11.44 11.44,-11.44z"/>
  <g id="_105553314377696">
   <path class="fil4" d="M15.08 9.27l16.18 0c2.59,0 4.72,2.12 4.72,4.72l0 16.18c0,2.59 -2.12,4.72 -4.72,4.72l-16.18 0c-2.59,0 -4.72,-2.12 -4.72,-4.72l0 -16.18c0,-2.59 2.12,-4.72 4.72,-4.72z"/>
   <g>
    <path class="fil5" d="M23.05 29.01c3.83,0 6.94,-3.05 6.94,-6.82 0,-3.77 -3.11,-6.82 -6.94,-6.82 -3.83,0 -6.94,3.05 -6.94,6.82 0,3.77 3.11,6.82 6.94,6.82z"/>
    <polygon class="fil6" points="21.37,15.27 21.48,15.26 21.58,15.25 21.69,15.24 21.8,15.24 21.91,15.24 22.02,15.24 22.13,15.24 22.24,15.25 22.36,15.26 22.47,15.27 22.58,15.28 22.7,15.3 22.81,15.32 22.92,15.34 23.03,15.36 23.14,15.38 23.25,15.41 23.36,15.43 23.47,15.46 23.58,15.49 23.68,15.53 23.79,15.56 23.89,15.59 23.99,15.63 24.09,15.67 24.19,15.71 24.28,15.75 24.38,15.79 24.47,15.83 24.56,15.87 24.64,15.91 24.72,15.96 24.77,15.98 24.81,16.01 24.85,16.03 24.89,16.06 24.94,16.08 24.98,16.1 25.02,16.13 25.06,16.15 25.1,16.18 25.14,16.2 25.18,16.23 25.22,16.26 25.25,16.28 25.29,16.31 25.33,16.33 25.37,16.36 25.4,16.39 25.44,16.41 25.48,16.44 25.51,16.47 25.55,16.49 25.58,16.52 25.62,16.55 25.65,16.58 25.69,16.6 25.72,16.63 25.75,16.66 25.79,16.69 25.82,16.71 25.85,16.74 25.88,16.77 25.91,16.8 25.95,16.83 25.98,16.86 26.01,16.89 26.04,16.92 26.07,16.95 26.1,16.98 26.13,17.01 26.16,17.04 26.18,17.06 26.21,17.09 26.23,17.12 26.26,17.14 26.28,17.17 26.31,17.19 26.33,17.22 26.35,17.24 26.37,17.27 26.4,17.29 26.42,17.32 26.44,17.35 26.46,17.37 26.48,17.4 26.51,17.43 26.53,17.46 26.55,17.48 26.58,17.51 26.6,17.55 26.62,17.58 26.65,17.61 26.67,17.64 26.7,17.68 26.72,17.71 26.73,17.72 26.74,17.73 26.74,17.74 26.75,17.75 26.76,17.76 26.76,17.77 26.77,17.78 26.78,17.79 26.82,17.87 26.92,17.99 27.02,18.1 27.12,18.22 27.21,18.34 27.3,18.47 27.39,18.59 27.48,18.72 27.56,18.85 27.64,18.98 27.71,19.12 27.79,19.25 27.86,19.39 27.92,19.53 27.98,19.67 28.04,19.81 28.1,19.96 28.15,20.1 28.2,20.25 28.24,20.4 28.28,20.55 28.32,20.71 28.35,20.86 28.38,21.02 28.4,21.18 28.42,21.34 28.43,21.5 28.44,21.66 28.45,21.82 28.45,21.99 28.45,22.15 28.44,22.32 28.42,22.49 28.4,22.7 28.37,22.9 28.34,23.1 28.3,23.3 28.25,23.5 28.19,23.69 28.13,23.88 28.07,24.07 27.99,24.26 27.92,24.44 27.83,24.63 27.74,24.8 27.65,24.98 27.55,25.15 27.44,25.32 27.33,25.48 27.22,25.64 27.1,25.8 26.97,25.95 26.84,26.09 26.71,26.24 26.57,26.38 26.43,26.51 26.28,26.64 26.13,26.77 25.98,26.89 25.82,27 25.66,27.11 25.49,27.21 25.32,27.31 25.15,27.41 24.98,27.49 24.94,27.51 24.91,27.53 24.87,27.54 24.84,27.56 24.8,27.57 24.77,27.59 24.73,27.6 24.7,27.62 24.66,27.63 24.63,27.65 24.59,27.66 24.56,27.68 24.53,27.69 24.49,27.7 24.46,27.72 24.42,27.73 24.39,27.74 24.35,27.76 24.31,27.77 24.28,27.78 24.24,27.79 24.21,27.8 24.17,27.82 24.13,27.83 24.1,27.84 24.06,27.85 24.02,27.86 23.98,27.88 23.94,27.89 23.9,27.9 23.86,27.91 23.82,27.92 23.74,27.94 23.66,27.97 23.58,27.98 23.49,28 23.41,28.02 23.32,28.03 23.24,28.05 23.15,28.06 23.06,28.07 22.97,28.08 22.88,28.09 22.79,28.1 22.7,28.11 22.61,28.11 22.52,28.12 22.43,28.12 22.34,28.12 22.25,28.12 22.15,28.12 22.06,28.12 21.97,28.11 21.88,28.11 21.78,28.1 21.69,28.09 21.6,28.08 21.51,28.07 21.42,28.06 21.33,28.05 21.24,28.03 21.15,28.02 21.06,28 20.97,27.98 20.87,27.96 20.76,27.93 20.66,27.91 20.56,27.88 20.46,27.85 20.36,27.82 20.26,27.79 20.17,27.75 20.07,27.72 19.98,27.68 19.89,27.64 19.8,27.6 19.71,27.56 19.62,27.52 19.54,27.48 19.45,27.43 19.37,27.39 19.28,27.34 19.2,27.29 19.12,27.24 19.04,27.19 18.96,27.14 18.88,27.08 18.81,27.03 18.73,26.97 18.65,26.92 18.58,26.86 18.5,26.8 18.43,26.74 18.36,26.68 18.28,26.61 18.21,26.55 18.2,26.54 18.18,26.53 18.17,26.51 18.16,26.5 18.14,26.49 18.13,26.48 18.12,26.46 18.1,26.45 18.09,26.44 18.08,26.43 18.06,26.41 18.05,26.4 18.04,26.39 18.03,26.38 18.01,26.36 18,26.35 17.98,26.33 17.96,26.31 17.94,26.29 17.92,26.27 17.9,26.24 17.88,26.22 17.85,26.19 17.83,26.16 17.8,26.14 17.78,26.11 17.76,26.08 17.73,26.05 17.71,26.02 17.68,25.99 17.66,25.96 17.63,25.93 17.61,25.9 17.58,25.87 17.56,25.84 17.53,25.81 17.51,25.77 17.48,25.74 17.46,25.72 17.44,25.69 17.42,25.66 17.4,25.63 17.38,25.6 17.36,25.58 17.34,25.55 17.32,25.53 17.31,25.5 17.29,25.48 17.28,25.47 17.27,25.45 17.27,25.44 17.26,25.42 17.25,25.41 17.24,25.39 17.23,25.38 17.22,25.37 17.21,25.35 17.2,25.34 17.19,25.33 17.18,25.31 17.17,25.3 17.16,25.29 17.15,25.27 17.14,25.26 17.06,25.18 17.03,25.14 17,25.11 16.98,25.08 16.95,25.04 16.93,25.01 16.91,24.98 16.89,24.95 16.86,24.93 16.84,24.89 16.82,24.86 16.79,24.83 16.77,24.8 16.75,24.76 16.72,24.73 16.69,24.69 16.67,24.65 16.27,23.98 16.49,24.67 16.51,24.71 16.53,24.75 16.54,24.79 16.56,24.83 16.58,24.87 16.59,24.91 16.61,24.94 16.62,24.98 16.64,25.01 16.65,25.05 16.66,25.08 16.68,25.11 16.69,25.14 16.71,25.18 16.72,25.21 16.74,25.24 16.75,25.27 16.76,25.3 16.78,25.33 16.8,25.37 16.81,25.4 16.83,25.43 16.85,25.47 16.87,25.5 16.89,25.54 16.91,25.57 16.93,25.61 16.95,25.65 16.97,25.69 17,25.73 17.02,25.77 17.05,25.81 17.06,25.83 17.07,25.84 17.08,25.85 17.09,25.87 17.09,25.89 17.1,25.9 17.11,25.92 17.12,25.94 17.13,25.95 17.14,25.97 17.15,25.98 17.16,26 17.17,26.01 17.18,26.02 17.19,26.03 17.2,26.04 17.21,26.05 17.22,26.06 17.24,26.07 17.27,26.09 17.3,26.12 17.33,26.15 17.36,26.18 17.39,26.22 17.43,26.25 17.46,26.28 17.49,26.32 17.52,26.35 17.54,26.37 17.57,26.4 17.59,26.42 17.6,26.43 17.62,26.45 17.65,26.48 17.68,26.5 17.71,26.53 17.73,26.55 17.76,26.58 17.79,26.6 17.82,26.63 17.84,26.65 17.87,26.68 17.9,26.7 17.93,26.73 17.96,26.75 17.99,26.77 18.02,26.8 18.05,26.82 18.15,26.9 18.25,26.97 18.35,27.04 18.45,27.12 18.55,27.19 18.66,27.25 18.76,27.32 18.87,27.38 18.98,27.44 19.09,27.5 19.2,27.56 19.31,27.62 19.42,27.67 19.53,27.73 19.64,27.78 19.76,27.82 19.87,27.87 19.99,27.91 20.11,27.96 20.23,28 20.35,28.03 20.47,28.07 20.6,28.1 20.72,28.14 20.85,28.17 20.97,28.19 21.1,28.22 21.23,28.24 21.36,28.26 21.49,28.28 21.63,28.3 21.76,28.31 21.89,28.32 22.01,28.33 22.14,28.33 22.27,28.34 22.4,28.34 22.53,28.34 22.66,28.33 22.79,28.33 22.92,28.32 23.05,28.31 23.18,28.3 23.31,28.28 23.44,28.26 23.57,28.25 23.7,28.22 23.83,28.2 23.95,28.17 24.08,28.15 24.21,28.12 24.33,28.08 24.46,28.05 24.58,28.01 24.7,27.97 24.82,27.93 24.94,27.89 25.06,27.84 25.18,27.8 25.29,27.75 25.41,27.7 25.52,27.64 25.63,27.59 25.74,27.53 25.78,27.51 25.83,27.48 25.87,27.46 25.91,27.44 25.95,27.41 25.99,27.39 26.04,27.37 26.08,27.34 26.12,27.32 26.16,27.29 26.2,27.27 26.24,27.24 26.28,27.22 26.32,27.2 26.36,27.17 26.4,27.15 26.43,27.12 26.47,27.1 26.51,27.07 26.55,27.04 26.59,27.02 26.62,26.99 26.66,26.96 26.7,26.94 26.74,26.91 26.77,26.88 26.81,26.86 26.85,26.83 26.88,26.8 26.92,26.77 26.96,26.74 26.99,26.71 27.04,26.67 27.09,26.63 27.14,26.59 27.19,26.55 27.24,26.5 27.29,26.46 27.34,26.41 27.38,26.37 27.43,26.32 27.48,26.28 27.53,26.23 27.58,26.18 27.63,26.13 27.67,26.08 27.72,26.03 27.77,25.98 27.82,25.93 27.86,25.88 27.91,25.83 27.95,25.78 28,25.73 28.04,25.67 28.08,25.62 28.13,25.57 28.17,25.52 28.21,25.46 28.25,25.41 28.29,25.36 28.32,25.3 28.36,25.25 28.4,25.2 28.43,25.15 28.48,25.08 28.52,25 28.56,24.93 28.61,24.86 28.65,24.79 28.69,24.72 28.73,24.65 28.77,24.58 28.81,24.51 28.85,24.44 28.89,24.36 28.92,24.29 28.96,24.22 29,24.14 29.03,24.07 29.06,24 29.1,23.92 29.13,23.84 29.16,23.77 29.19,23.69 29.22,23.61 29.25,23.53 29.28,23.45 29.31,23.37 29.34,23.28 29.36,23.2 29.39,23.11 29.41,23.03 29.43,22.94 29.46,22.85 29.48,22.76 29.5,22.66 29.52,22.57 29.54,22.47 29.56,22.37 29.57,22.28 29.59,22.18 29.6,22.09 29.61,21.99 29.63,21.9 29.63,21.8 29.64,21.7 29.65,21.61 29.66,21.52 29.66,21.42 29.66,21.33 29.67,21.23 29.67,21.14 29.67,21.04 29.66,20.95 29.66,20.86 29.66,20.76 29.65,20.67 29.64,20.58 29.64,20.48 29.63,20.39 29.62,20.3 29.61,20.21 29.59,20.12 29.58,20.03 29.56,19.94 29.55,19.85 29.53,19.76 29.51,19.67 29.5,19.59 29.48,19.52 29.46,19.46 29.45,19.39 29.43,19.32 29.41,19.25 29.39,19.19 29.37,19.12 29.35,19.06 29.33,18.99 29.31,18.93 29.29,18.87 29.27,18.8 29.25,18.74 29.22,18.68 29.2,18.62 29.17,18.56 29.15,18.5 29.12,18.43 29.1,18.37 29.07,18.31 29.04,18.25 29.01,18.19 28.99,18.13 28.96,18.07 28.93,18.01 28.9,17.95 28.86,17.89 28.83,17.83 28.8,17.77 28.77,17.71 28.73,17.65 28.73,17.64 28.72,17.62 28.71,17.61 28.69,17.59 28.68,17.57 28.67,17.55 28.66,17.54 28.65,17.52 28.64,17.5 28.63,17.48 28.62,17.46 28.61,17.45 28.6,17.43 28.6,17.42 28.6,17.41 28.6,17.4 28,16.78 27.99,16.77 27.97,16.76 27.96,16.74 27.94,16.72 27.92,16.71 27.9,16.69 27.88,16.67 27.86,16.65 27.84,16.64 27.81,16.62 27.79,16.6 27.76,16.58 27.74,16.56 27.71,16.54 27.69,16.52 27.66,16.5 27.64,16.48 27.61,16.46 27.59,16.44 27.56,16.42 27.54,16.4 27.51,16.38 27.49,16.36 27.47,16.34 27.44,16.33 27.42,16.31 27.4,16.3 27.38,16.28 27.36,16.27 27.34,16.25 27.32,16.24 27.31,16.23 27.26,16.2 27.21,16.17 27.16,16.14 27.11,16.1 27.06,16.07 27.01,16.04 26.96,16.01 26.91,15.98 26.86,15.95 26.81,15.92 26.76,15.89 26.71,15.86 26.66,15.83 26.6,15.81 26.55,15.78 26.5,15.75 26.45,15.72 26.4,15.7 26.34,15.67 26.29,15.64 26.24,15.62 26.18,15.59 26.13,15.57 26.07,15.55 26.02,15.52 25.96,15.5 25.91,15.48 25.85,15.46 25.8,15.44 25.74,15.42 25.69,15.4 25.63,15.38 25.58,15.36 25.53,15.35 25.48,15.33 25.42,15.32 25.37,15.3 25.32,15.29 25.27,15.27 25.22,15.26 25.17,15.24 25.12,15.23 25.07,15.22 25.02,15.2 24.97,15.19 24.92,15.18 24.87,15.17 24.82,15.16 24.77,15.14 24.72,15.13 24.67,15.12 24.61,15.11 24.56,15.1 24.51,15.09 24.46,15.09 24.41,15.08 24.36,15.07 24.31,15.06 24.26,15.05 24.21,15.05 24.16,15.04 24.11,15.03 24.06,15.03 24.01,15.02 23.69,15 23.66,14.99 23.64,14.99 23.61,14.99 23.59,14.99 23.56,14.99 23.54,14.99 23.52,14.99 23.49,14.99 23.47,14.99 23.44,14.99 23.42,14.99 23.39,14.99 23.37,14.99 23.34,14.99 23.32,14.99 23.29,14.99 23.26,14.99 23.24,14.99 23.21,14.99 23.19,14.99 23.16,14.99 23.14,14.99 23.11,14.99 23.09,14.99 23.06,14.99 23.03,14.99 23.01,14.99 22.98,15 22.96,15 22.93,15 22.9,15 22.88,15 22.84,15 22.81,15.01 22.78,15.01 22.75,15.01 22.72,15.01 22.68,15.02 22.65,15.02 22.62,15.02 22.58,15.02 22.55,15.03 22.52,15.03 22.48,15.03 22.45,15.04 22.42,15.04 22.39,15.05 22.35,15.05 22.32,15.05 22.29,15.06 22.25,15.06 22.22,15.07 22.19,15.07 22.15,15.08 22.12,15.08 22.09,15.09 22.06,15.09 22.03,15.1 21.99,15.1 21.96,15.11 21.93,15.11 21.9,15.12 21.87,15.13 21.84,15.13 21.82,15.14 21.8,15.14 21.77,15.15 21.74,15.15 21.71,15.16 21.67,15.17 21.64,15.18 21.6,15.19 21.56,15.19 21.52,15.2 21.49,15.21 21.46,15.23 21.43,15.24 21.4,15.25 21.38,15.26 "/>
    <polygon class="fil7" points="17.21,26.04 17.25,26.11 17.29,26.17 17.33,26.23 17.38,26.3 17.43,26.36 17.47,26.43 17.52,26.49 17.57,26.55 17.63,26.62 17.68,26.68 17.73,26.74 17.79,26.81 17.85,26.87 17.9,26.93 17.96,26.99 18.02,27.05 18.08,27.11 18.14,27.17 18.2,27.23 18.26,27.29 18.33,27.34 18.39,27.4 18.45,27.45 18.51,27.51 18.58,27.56 18.64,27.61 18.7,27.66 18.77,27.71 18.83,27.76 18.89,27.81 18.95,27.85 19.02,27.9 19.09,27.94 19.15,27.99 19.22,28.03 19.3,28.08 19.37,28.12 19.44,28.17 19.52,28.21 19.59,28.26 19.67,28.3 19.74,28.34 19.82,28.38 19.9,28.42 19.98,28.46 20.06,28.5 20.15,28.54 20.23,28.58 20.31,28.61 20.4,28.65 20.49,28.68 20.58,28.72 20.67,28.75 20.76,28.78 20.85,28.81 20.94,28.84 21.03,28.87 21.13,28.89 21.23,28.92 21.32,28.94 21.42,28.97 21.52,28.99 21.62,29.01 21.73,29.03 21.76,29.03 21.79,29.04 21.82,29.04 21.85,29.05 21.88,29.05 21.91,29.06 21.94,29.07 21.97,29.07 22,29.08 22.03,29.08 22.06,29.09 22.09,29.09 22.13,29.1 22.16,29.1 22.19,29.11 22.22,29.11 22.61,29.15 22.71,29.15 22.82,29.16 22.93,29.16 23.03,29.16 23.14,29.16 23.24,29.15 23.34,29.15 23.44,29.14 23.54,29.14 23.64,29.13 23.74,29.12 23.84,29.11 23.94,29.1 24.04,29.09 24.13,29.07 24.23,29.05 24.33,29.04 24.42,29.02 24.52,29 24.61,28.98 24.71,28.96 24.81,28.93 24.9,28.91 25,28.88 25.1,28.85 25.19,28.82 25.29,28.79 25.39,28.76 25.49,28.73 25.59,28.69 25.69,28.66 25.79,28.62 25.87,28.58 25.96,28.55 26.05,28.51 26.14,28.47 26.23,28.43 26.32,28.38 26.41,28.34 26.49,28.29 26.58,28.24 26.67,28.19 26.75,28.14 26.84,28.09 26.93,28.03 27.01,27.97 27.1,27.92 27.18,27.86 27.26,27.8 27.34,27.74 27.43,27.68 27.51,27.62 27.59,27.55 27.67,27.49 27.74,27.42 27.82,27.36 27.89,27.29 27.97,27.23 28.04,27.16 28.11,27.09 28.18,27.02 28.25,26.95 28.32,26.89 28.38,26.82 28.4,26.8 28.41,26.78 28.43,26.77 28.44,26.75 28.45,26.74 28.47,26.72 28.48,26.71 28.49,26.69 28.51,26.68 28.52,26.66 28.53,26.65 28.55,26.63 28.56,26.62 28.57,26.6 28.59,26.59 28.6,26.57 28.63,26.54 28.65,26.51 28.67,26.48 28.7,26.46 28.72,26.43 28.74,26.4 28.76,26.38 28.78,26.35 28.8,26.33 28.82,26.3 28.84,26.28 28.85,26.26 28.87,26.23 28.89,26.21 28.9,26.19 28.92,26.16 28.94,26.14 28.95,26.12 28.97,26.09 28.99,26.07 29.01,26.04 29.02,26.02 29.04,25.99 29.06,25.97 29.08,25.94 29.09,25.91 29.11,25.88 29.13,25.86 29.15,25.82 29.17,25.79 29.19,25.76 29.22,25.73 29.31,25.58 29.4,25.43 29.48,25.27 29.56,25.12 29.64,24.96 29.71,24.8 29.78,24.64 29.84,24.48 29.9,24.32 29.96,24.15 30.01,23.99 30.05,23.82 30.1,23.65 30.14,23.48 30.17,23.31 30.2,23.14 30.23,22.97 30.25,22.79 30.27,22.62 30.28,22.45 30.29,22.27 30.3,22.1 30.3,21.92 30.3,21.75 30.29,21.58 30.28,21.4 30.27,21.23 30.25,21.06 30.22,20.89 30.2,20.72 30.17,20.55 30.13,20.38 30.11,20.3 30.09,20.22 30.07,20.13 30.05,20.05 30.02,19.97 30,19.89 29.97,19.81 29.95,19.73 29.92,19.65 29.89,19.57 29.86,19.49 29.83,19.41 29.8,19.33 29.76,19.25 29.73,19.17 29.7,19.09 29.66,19.02 29.62,18.94 29.59,18.86 29.55,18.79 29.51,18.71 29.47,18.64 29.43,18.56 29.39,18.49 29.34,18.42 29.3,18.34 29.26,18.27 29.21,18.2 29.17,18.13 29.12,18.06 29.07,17.99 29.02,17.92 29.01,17.9 29,17.88 28.99,17.87 28.97,17.85 28.96,17.84 28.95,17.82 28.94,17.81 28.93,17.79 28.61,17.4 28.61,17.41 28.61,17.42 28.61,17.43 28.62,17.45 28.62,17.46 28.63,17.48 28.64,17.5 28.65,17.52 28.67,17.54 28.68,17.55 28.69,17.57 28.7,17.59 28.71,17.61 28.72,17.62 28.73,17.64 28.74,17.65 28.77,17.71 28.81,17.77 28.84,17.83 28.87,17.89 28.9,17.95 28.93,18.01 28.96,18.07 28.99,18.13 29.02,18.19 29.05,18.25 29.08,18.31 29.1,18.37 29.13,18.43 29.16,18.5 29.18,18.56 29.21,18.62 29.23,18.68 29.25,18.74 29.28,18.8 29.3,18.87 29.32,18.93 29.34,18.99 29.36,19.06 29.38,19.12 29.4,19.19 29.42,19.25 29.44,19.32 29.45,19.39 29.47,19.46 29.49,19.53 29.5,19.59 29.52,19.67 29.54,19.76 29.56,19.85 29.57,19.94 29.59,20.03 29.6,20.12 29.61,20.21 29.62,20.3 29.63,20.39 29.64,20.49 29.65,20.58 29.66,20.67 29.66,20.76 29.67,20.86 29.67,20.95 29.67,21.04 29.67,21.14 29.67,21.23 29.67,21.33 29.67,21.42 29.66,21.52 29.66,21.61 29.65,21.71 29.64,21.8 29.63,21.9 29.62,21.99 29.61,22.09 29.6,22.18 29.58,22.28 29.56,22.37 29.55,22.47 29.53,22.57 29.51,22.66 29.49,22.76 29.47,22.85 29.44,22.94 29.42,23.03 29.39,23.11 29.37,23.2 29.34,23.28 29.32,23.37 29.29,23.45 29.26,23.53 29.23,23.61 29.2,23.69 29.17,23.77 29.14,23.84 29.11,23.92 29.07,24 29.04,24.07 29,24.14 28.97,24.22 28.93,24.29 28.89,24.36 28.86,24.44 28.82,24.51 28.78,24.58 28.74,24.65 28.7,24.72 28.66,24.79 28.61,24.86 28.57,24.93 28.53,25 28.48,25.08 28.44,25.15 28.4,25.2 28.37,25.25 28.33,25.3 28.29,25.36 28.26,25.41 28.22,25.46 28.18,25.52 28.13,25.57 28.09,25.62 28.05,25.67 28.01,25.73 27.96,25.78 27.92,25.83 27.87,25.88 27.82,25.93 27.78,25.98 27.73,26.03 27.68,26.08 27.63,26.13 27.59,26.18 27.54,26.23 27.49,26.28 27.44,26.32 27.39,26.37 27.34,26.41 27.29,26.46 27.25,26.5 27.2,26.55 27.15,26.59 27.1,26.63 27.05,26.67 27,26.71 26.97,26.74 26.93,26.77 26.89,26.8 26.86,26.83 26.82,26.86 26.78,26.88 26.74,26.91 26.71,26.94 26.67,26.96 26.63,26.99 26.59,27.02 26.56,27.04 26.52,27.07 26.48,27.1 26.44,27.12 26.4,27.15 26.36,27.17 26.33,27.2 26.29,27.22 26.25,27.24 26.21,27.27 26.17,27.29 26.13,27.32 26.08,27.34 26.04,27.37 26,27.39 25.96,27.41 25.92,27.44 25.88,27.46 25.83,27.48 25.79,27.51 25.75,27.53 25.64,27.59 25.53,27.64 25.42,27.7 25.3,27.75 25.19,27.8 25.07,27.85 24.95,27.89 24.83,27.93 24.71,27.97 24.59,28.01 24.47,28.05 24.34,28.08 24.22,28.12 24.09,28.15 23.96,28.17 23.83,28.2 23.71,28.22 23.58,28.25 23.45,28.27 23.32,28.28 23.19,28.3 23.06,28.31 22.93,28.32 22.8,28.33 22.67,28.33 22.54,28.34 22.41,28.34 22.28,28.34 22.15,28.33 22.02,28.33 21.89,28.32 21.77,28.31 21.63,28.3 21.5,28.28 21.37,28.26 21.24,28.24 21.11,28.22 20.98,28.19 20.85,28.17 20.73,28.14 20.6,28.1 20.48,28.07 20.36,28.03 20.24,28 20.12,27.96 20,27.91 19.88,27.87 19.77,27.82 19.65,27.78 19.54,27.73 19.42,27.67 19.31,27.62 19.2,27.56 19.09,27.5 18.99,27.44 18.88,27.38 18.77,27.32 18.67,27.25 18.56,27.19 18.46,27.12 18.36,27.04 18.25,26.97 18.15,26.9 18.05,26.82 18.02,26.8 17.99,26.77 17.97,26.75 17.94,26.72 17.91,26.7 17.88,26.68 17.85,26.65 17.82,26.63 17.8,26.6 17.77,26.58 17.74,26.55 17.71,26.53 17.69,26.5 17.66,26.48 17.63,26.45 17.61,26.43 17.59,26.42 17.58,26.4 17.55,26.37 17.53,26.35 17.5,26.32 17.47,26.28 17.43,26.25 17.4,26.22 17.37,26.18 17.33,26.15 17.3,26.12 17.28,26.1 17.25,26.07 17.23,26.06 17.22,26.05 "/>
    <polygon class="fil7" points="21.37,15.27 21.36,15.27 21.34,15.27 21.31,15.27 21.28,15.28 21.25,15.29 21.21,15.29 21.17,15.31 21.13,15.32 21.09,15.33 21.04,15.35 20.99,15.36 20.95,15.38 20.9,15.4 20.84,15.42 20.79,15.44 20.74,15.46 20.69,15.48 20.64,15.5 20.58,15.52 20.53,15.54 20.48,15.56 20.44,15.58 20.39,15.6 20.35,15.62 20.31,15.64 20.27,15.66 20.23,15.67 20.2,15.69 20.17,15.7 20.15,15.71 20.13,15.72 20.11,15.73 20.08,15.74 20.05,15.76 20.02,15.78 19.98,15.8 19.95,15.81 19.91,15.83 19.88,15.85 19.84,15.87 19.8,15.89 19.77,15.91 19.73,15.93 19.69,15.95 19.66,15.98 19.62,16 19.58,16.02 19.54,16.04 19.51,16.06 19.47,16.09 19.43,16.11 19.4,16.13 19.36,16.15 19.33,16.18 19.29,16.2 19.26,16.22 19.22,16.24 19.19,16.27 19.16,16.29 19.13,16.31 19.1,16.34 19.07,16.36 19.04,16.38 19.01,16.4 18.17,17.11 18.1,17.18 18.02,17.26 17.95,17.33 17.88,17.41 17.81,17.5 17.73,17.58 17.66,17.67 17.59,17.76 17.52,17.85 17.46,17.94 17.39,18.04 17.32,18.13 17.26,18.23 17.19,18.33 17.13,18.43 17.07,18.53 17.01,18.63 16.95,18.74 16.89,18.84 16.84,18.94 16.79,19.05 16.73,19.15 16.69,19.25 16.64,19.36 16.59,19.46 16.55,19.56 16.51,19.66 16.47,19.76 16.44,19.86 16.41,19.95 16.38,20.05 16.35,20.14 16.16,20.91 16.16,20.92 16.16,20.94 16.15,20.95 16.15,20.96 16.15,20.97 16.15,20.98 16.15,21 16.15,21.01 16.15,21.02 16.14,21.03 16.14,21.05 16.14,21.06 16.14,21.07 16.14,21.08 16.14,21.09 16.13,21.11 16.13,21.11 16.13,21.12 16.13,21.13 16.12,21.14 16.12,21.15 16.12,21.16 16.12,21.18 16.12,21.19 16.11,21.2 16.11,21.21 16.11,21.22 16.11,21.24 16.11,21.25 16.1,21.26 16.1,21.28 16.1,21.29 16.06,21.66 16.06,21.67 16.06,21.69 16.06,21.7 16.06,21.71 16.06,21.72 16.06,21.73 16.06,21.74 16.06,21.75 16.06,21.77 16.06,21.8 16.06,21.82 16.06,21.85 16.06,21.88 16.06,21.9 16.06,21.93 16.05,21.96 16.05,21.98 16.05,22.01 16.05,22.04 16.05,22.07 16.05,22.09 16.05,22.12 16.04,22.14 16.04,22.17 16.04,22.19 16.04,22.21 16.04,22.24 16.04,22.26 16.04,22.29 16.04,22.31 16.04,22.34 16.04,22.36 16.05,22.39 16.05,22.41 16.05,22.44 16.05,22.46 16.05,22.49 16.05,22.51 16.05,22.54 16.05,22.56 16.05,22.59 16.06,22.63 16.06,22.67 16.06,22.71 16.06,22.75 16.07,22.79 16.07,22.83 16.08,22.88 16.08,22.93 16.09,22.97 16.09,23.02 16.1,23.07 16.1,23.12 16.11,23.17 16.12,23.22 16.13,23.27 16.13,23.32 16.14,23.37 16.15,23.42 16.16,23.47 16.17,23.52 16.18,23.57 16.19,23.61 16.19,23.66 16.2,23.7 16.21,23.75 16.22,23.79 16.23,23.83 16.24,23.87 16.25,23.91 16.26,23.94 16.27,23.98 16.67,24.65 16.7,24.69 16.72,24.73 16.75,24.76 16.77,24.8 16.8,24.83 16.82,24.86 16.84,24.89 16.87,24.92 16.89,24.95 16.91,24.98 16.93,25.01 16.96,25.04 16.98,25.08 17.01,25.11 17.03,25.14 17.06,25.18 17.14,25.26 17.14,25.24 17.13,25.22 17.12,25.2 17.11,25.18 17.1,25.16 17.09,25.14 17.08,25.12 17.07,25.1 17.06,25.07 17.04,25.05 17.03,25.02 17.02,25 17,24.97 16.99,24.94 16.97,24.92 16.96,24.89 16.94,24.86 16.93,24.83 16.91,24.8 16.9,24.77 16.88,24.74 16.87,24.7 16.85,24.67 16.83,24.64 16.82,24.61 16.8,24.57 16.79,24.54 16.77,24.5 16.76,24.47 16.74,24.43 16.73,24.39 16.71,24.36 16.64,24.16 16.57,23.95 16.51,23.75 16.46,23.54 16.41,23.33 16.38,23.12 16.35,22.91 16.33,22.7 16.31,22.49 16.31,22.28 16.31,22.06 16.32,21.85 16.33,21.64 16.36,21.43 16.39,21.22 16.42,21.01 16.47,20.8 16.52,20.59 16.58,20.39 16.65,20.19 16.72,19.99 16.8,19.79 16.89,19.59 16.98,19.4 17.08,19.21 17.19,19.03 17.3,18.85 17.42,18.67 17.55,18.5 17.68,18.33 17.83,18.16 17.97,18 18,17.98 18.02,17.96 18.04,17.93 18.06,17.91 18.08,17.89 18.11,17.87 18.13,17.85 18.15,17.82 18.17,17.8 18.19,17.78 18.21,17.76 18.23,17.74 18.26,17.72 18.28,17.7 18.3,17.68 18.32,17.65 18.34,17.63 18.37,17.61 18.39,17.59 18.42,17.57 18.44,17.55 18.47,17.53 18.49,17.51 18.52,17.49 18.54,17.47 18.56,17.45 18.59,17.43 18.61,17.42 18.63,17.4 18.65,17.38 18.68,17.36 18.71,17.33 18.73,17.32 18.75,17.3 18.77,17.28 18.79,17.27 18.81,17.25 18.84,17.23 18.86,17.22 18.89,17.2 18.92,17.18 18.94,17.16 18.97,17.14 19,17.12 19.03,17.1 19.06,17.08 19.09,17.06 19.12,17.05 19.15,17.03 19.18,17.01 19.21,16.99 19.24,16.97 19.26,16.95 19.29,16.94 19.32,16.92 19.35,16.9 19.38,16.89 19.4,16.87 19.43,16.86 19.45,16.84 19.48,16.83 19.5,16.81 19.52,16.8 19.54,16.79 19.63,16.74 19.73,16.69 19.82,16.65 19.92,16.6 20.01,16.56 20.11,16.52 20.21,16.48 20.3,16.44 20.4,16.4 20.5,16.37 20.6,16.34 20.7,16.3 20.8,16.27 20.9,16.25 21.01,16.22 21.11,16.19 21.21,16.17 21.32,16.15 21.42,16.13 21.53,16.11 21.63,16.1 21.74,16.08 21.85,16.07 21.95,16.06 22.06,16.05 22.17,16.05 22.28,16.04 22.39,16.04 22.5,16.04 22.61,16.04 22.72,16.04 22.83,16.05 22.97,16.06 23.1,16.07 23.24,16.09 23.37,16.1 23.5,16.12 23.64,16.15 23.77,16.18 23.9,16.2 24.03,16.24 24.15,16.27 24.28,16.31 24.41,16.35 24.53,16.39 24.65,16.44 24.78,16.49 24.9,16.54 25.02,16.59 25.13,16.65 25.25,16.71 25.37,16.77 25.48,16.83 25.59,16.9 25.71,16.97 25.81,17.04 25.92,17.11 26.03,17.19 26.13,17.27 26.24,17.35 26.34,17.43 26.44,17.51 26.54,17.6 26.63,17.69 26.64,17.7 26.66,17.72 26.67,17.73 26.68,17.74 26.69,17.75 26.7,17.76 26.71,17.77 26.72,17.78 26.73,17.79 26.74,17.8 26.76,17.81 26.77,17.83 26.78,17.84 26.79,17.85 26.81,17.86 26.82,17.87 26.78,17.79 26.77,17.78 26.77,17.77 26.76,17.76 26.75,17.75 26.75,17.74 26.74,17.73 26.73,17.72 26.73,17.71 26.7,17.68 26.68,17.64 26.65,17.61 26.63,17.58 26.6,17.55 26.58,17.51 26.56,17.49 26.53,17.46 26.51,17.43 26.49,17.4 26.47,17.37 26.44,17.35 26.42,17.32 26.4,17.29 26.38,17.27 26.36,17.24 26.33,17.22 26.31,17.19 26.29,17.17 26.26,17.14 26.24,17.12 26.21,17.09 26.19,17.06 26.16,17.04 26.13,17.01 26.11,16.98 26.08,16.95 26.05,16.92 26.01,16.89 25.98,16.86 25.95,16.83 25.91,16.8 25.88,16.77 25.85,16.74 25.82,16.71 25.79,16.69 25.76,16.66 25.72,16.63 25.69,16.6 25.66,16.58 25.62,16.55 25.59,16.52 25.55,16.49 25.52,16.47 25.48,16.44 25.45,16.41 25.41,16.39 25.37,16.36 25.33,16.33 25.3,16.31 25.26,16.28 25.22,16.26 25.18,16.23 25.14,16.2 25.1,16.18 25.06,16.15 25.02,16.13 24.98,16.1 24.94,16.08 24.9,16.05 24.86,16.03 24.81,16.01 24.77,15.98 24.73,15.96 24.65,15.91 24.56,15.87 24.47,15.83 24.38,15.79 24.29,15.75 24.19,15.71 24.1,15.67 24,15.63 23.89,15.59 23.79,15.56 23.69,15.53 23.58,15.49 23.47,15.46 23.37,15.43 23.26,15.41 23.15,15.38 23.04,15.36 22.92,15.34 22.81,15.32 22.7,15.3 22.59,15.28 22.47,15.27 22.36,15.26 22.25,15.25 22.14,15.24 22.02,15.24 21.91,15.24 21.8,15.24 21.69,15.24 21.59,15.25 21.48,15.26 "/>
    <polygon class="fil6" points="17.08,22.35 17.09,22.41 17.11,22.46 17.13,22.51 17.16,22.55 17.19,22.59 17.22,22.62 17.26,22.64 17.31,22.66 17.36,22.67 17.41,22.68 17.46,22.68 17.52,22.68 17.57,22.68 17.63,22.67 17.69,22.66 17.76,22.65 17.82,22.63 17.88,22.62 17.94,22.6 18.01,22.58 18.07,22.56 18.13,22.54 18.18,22.51 18.24,22.49 18.3,22.47 18.35,22.45 18.4,22.43 18.44,22.41 18.48,22.39 18.52,22.38 18.55,22.36 18.58,22.35 18.58,22.39 18.58,22.42 18.58,22.47 18.58,22.51 18.58,22.57 18.58,22.62 18.58,22.68 18.57,22.74 18.57,22.81 18.57,22.87 18.57,22.94 18.56,23.01 18.56,23.08 18.56,23.15 18.55,23.23 18.55,23.3 18.54,23.37 18.54,23.45 18.53,23.52 18.53,23.59 18.52,23.66 18.52,23.73 18.51,23.79 18.5,23.85 18.5,23.92 18.49,23.97 18.49,24.03 18.48,24.08 18.47,24.12 18.47,24.16 18.46,24.2 18.46,24.23 18.45,24.26 18.44,24.29 18.44,24.31 18.43,24.34 18.42,24.36 18.41,24.39 18.41,24.41 18.4,24.44 18.39,24.46 18.38,24.48 18.37,24.51 18.36,24.53 18.35,24.55 18.34,24.57 18.33,24.59 18.32,24.61 18.31,24.63 18.3,24.65 18.29,24.67 18.28,24.7 18.27,24.71 18.26,24.73 18.24,24.75 18.23,24.77 18.22,24.79 18.21,24.81 18.2,24.83 18.18,24.85 18.17,24.87 18.16,24.89 18.14,24.91 18.13,24.93 18.12,24.95 18.11,24.97 18.1,24.99 18.09,25.01 18.08,25.03 18.06,25.06 18.05,25.08 18.04,25.1 18.03,25.13 18.02,25.15 18.01,25.18 18,25.21 17.99,25.23 17.98,25.26 17.97,25.29 17.96,25.32 17.96,25.34 17.95,25.37 17.94,25.4 17.94,25.43 17.93,25.46 17.93,25.48 17.92,25.51 17.92,25.54 17.92,25.57 17.92,25.59 17.92,25.62 17.92,25.65 17.92,25.67 17.92,25.69 17.93,25.72 17.93,25.74 17.95,25.76 17.97,25.77 17.98,25.79 18,25.81 18.02,25.82 18.04,25.84 18.06,25.85 18.09,25.87 18.11,25.88 18.13,25.9 18.16,25.91 18.18,25.92 18.21,25.94 18.23,25.95 18.26,25.96 18.29,25.97 18.31,25.98 18.34,25.99 18.37,26 18.4,26.01 18.43,26.02 18.46,26.03 18.49,26.04 18.52,26.04 18.55,26.05 18.58,26.05 18.61,26.06 18.64,26.06 18.67,26.06 18.7,26.06 18.73,26.07 18.76,26.06 18.83,26.06 18.89,26.05 18.94,26.04 18.98,26.02 19.01,26 19.03,25.98 19.05,25.95 19.07,25.92 19.07,25.89 19.08,25.85 19.08,25.81 19.07,25.77 19.06,25.72 19.06,25.67 19.04,25.62 19.03,25.57 19.02,25.51 19.01,25.45 19,25.39 18.99,25.33 18.98,25.26 18.98,25.2 18.97,25.13 18.98,25.06 18.98,24.99 19,24.92 19.01,24.84 19.04,24.77 19.07,24.69 19.11,24.61 19.16,24.54 19.21,24.46 19.23,24.44 19.24,24.42 19.26,24.4 19.27,24.38 19.29,24.36 19.3,24.34 19.32,24.32 19.34,24.31 19.35,24.29 19.37,24.27 19.39,24.25 19.4,24.24 19.42,24.22 19.43,24.2 19.45,24.18 19.47,24.17 19.49,24.15 19.5,24.13 19.52,24.11 19.54,24.09 19.55,24.07 19.57,24.06 19.59,24.04 19.61,24.02 19.63,24 19.64,23.98 19.66,23.96 19.68,23.93 19.7,23.91 19.72,23.89 19.74,23.87 19.76,23.84 19.78,23.84 19.81,23.84 19.83,23.85 19.86,23.85 19.89,23.85 19.92,23.85 19.95,23.85 19.98,23.85 20.01,23.86 20.05,23.86 20.08,23.86 20.12,23.86 20.15,23.86 20.19,23.86 20.22,23.87 20.26,23.87 20.29,23.87 20.32,23.87 20.36,23.87 20.39,23.87 20.43,23.88 20.46,23.88 20.49,23.88 20.52,23.88 20.55,23.88 20.58,23.88 20.61,23.88 20.63,23.87 20.66,23.87 20.68,23.87 20.7,23.87 20.72,23.87 20.75,23.86 20.77,23.86 20.79,23.85 20.82,23.85 20.84,23.84 20.87,23.84 20.9,23.83 20.92,23.83 20.95,23.82 20.97,23.82 21,23.81 21.02,23.8 21.05,23.8 21.07,23.79 21.1,23.79 21.12,23.78 21.15,23.77 21.17,23.77 21.2,23.76 21.22,23.76 21.25,23.75 21.27,23.74 21.3,23.74 21.32,23.73 21.35,23.73 21.37,23.72 21.4,23.72 21.42,23.71 21.45,23.71 21.47,23.71 21.49,23.7 21.52,23.7 21.52,23.71 21.53,23.72 21.53,23.74 21.53,23.76 21.54,23.79 21.55,23.82 21.55,23.86 21.56,23.89 21.57,23.93 21.58,23.98 21.58,24.02 21.59,24.07 21.6,24.12 21.61,24.17 21.62,24.22 21.63,24.27 21.64,24.32 21.64,24.37 21.65,24.42 21.66,24.47 21.67,24.52 21.68,24.57 21.68,24.61 21.69,24.65 21.7,24.69 21.7,24.73 21.71,24.77 21.71,24.8 21.71,24.82 21.72,24.85 21.72,24.86 21.72,24.88 21.72,24.92 21.72,24.96 21.72,25.01 21.72,25.05 21.71,25.09 21.7,25.13 21.7,25.17 21.69,25.21 21.68,25.25 21.67,25.29 21.66,25.33 21.65,25.37 21.64,25.41 21.63,25.45 21.61,25.49 21.6,25.53 21.59,25.57 21.58,25.61 21.56,25.65 21.55,25.68 21.54,25.72 21.52,25.76 21.51,25.8 21.5,25.85 21.49,25.89 21.48,25.93 21.47,25.97 21.46,26.01 21.45,26.06 21.44,26.1 21.43,26.14 21.43,26.19 21.47,26.21 21.52,26.23 21.56,26.25 21.59,26.27 21.63,26.29 21.66,26.3 21.7,26.32 21.73,26.34 21.76,26.35 21.79,26.37 21.82,26.38 21.85,26.39 21.87,26.4 21.9,26.41 21.93,26.42 21.96,26.43 21.99,26.43 22.02,26.43 22.05,26.44 22.08,26.44 22.12,26.43 22.15,26.43 22.19,26.42 22.23,26.42 22.27,26.41 22.32,26.39 22.37,26.38 22.42,26.36 22.47,26.34 22.53,26.32 22.59,26.3 22.66,26.27 22.66,26.26 22.66,26.24 22.66,26.22 22.66,26.2 22.66,26.17 22.65,26.15 22.65,26.11 22.65,26.08 22.64,26.05 22.64,26.01 22.64,25.97 22.63,25.93 22.63,25.89 22.62,25.85 22.62,25.8 22.61,25.76 22.61,25.71 22.6,25.67 22.6,25.62 22.59,25.58 22.59,25.53 22.58,25.49 22.58,25.44 22.57,25.4 22.57,25.36 22.56,25.32 22.56,25.28 22.56,25.24 22.55,25.2 22.55,25.17 22.55,25.14 22.55,25.11 22.55,25.07 22.55,25.03 22.54,24.99 22.54,24.94 22.54,24.9 22.54,24.86 22.54,24.82 22.54,24.78 22.54,24.74 22.54,24.7 22.54,24.66 22.55,24.62 22.55,24.57 22.55,24.53 22.55,24.49 22.55,24.45 22.56,24.41 22.56,24.37 22.56,24.33 22.56,24.29 22.57,24.24 22.57,24.2 22.57,24.16 22.58,24.12 22.58,24.08 22.59,24.04 22.59,24 22.6,23.96 22.6,23.91 22.61,23.87 22.61,23.83 22.62,23.79 22.64,23.8 22.67,23.81 22.7,23.82 22.73,23.84 22.76,23.85 22.79,23.87 22.81,23.88 22.84,23.9 22.87,23.92 22.9,23.94 22.93,23.97 22.96,23.99 22.99,24.01 23.02,24.04 23.05,24.06 23.07,24.09 23.1,24.12 23.12,24.14 23.14,24.17 23.17,24.2 23.19,24.23 23.2,24.26 23.22,24.29 23.23,24.32 23.25,24.35 23.26,24.37 23.27,24.4 23.27,24.43 23.27,24.46 23.27,24.49 23.27,24.52 23.27,24.55 23.26,24.55 23.24,24.55 23.21,24.55 23.18,24.55 23.15,24.55 23.11,24.55 23.07,24.55 23.03,24.55 22.99,24.55 22.95,24.55 22.91,24.56 22.88,24.56 22.85,24.56 22.82,24.57 22.81,24.57 22.8,24.58 22.79,24.58 22.79,24.6 22.78,24.61 22.78,24.63 22.77,24.66 22.77,24.69 22.76,24.72 22.76,24.76 22.76,24.8 22.75,24.84 22.75,24.88 22.75,24.93 22.75,24.97 22.75,25.02 22.75,25.07 22.75,25.11 22.76,25.16 22.77,25.21 22.78,25.25 22.79,25.29 22.8,25.34 22.82,25.38 22.84,25.41 22.87,25.45 22.89,25.48 22.92,25.5 22.96,25.53 23,25.54 23.04,25.56 23.08,25.57 23.13,25.57 23.19,25.56 23.24,25.56 23.29,25.54 23.35,25.52 23.4,25.5 23.45,25.47 23.5,25.44 23.55,25.41 23.59,25.37 23.64,25.33 23.69,25.29 23.73,25.24 23.77,25.19 23.82,25.14 23.86,25.09 23.9,25.04 23.93,24.99 23.97,24.93 24,24.88 24.03,24.83 24.06,24.77 24.09,24.72 24.11,24.67 24.14,24.61 24.16,24.56 24.17,24.52 24.19,24.47 24.2,24.42 24.21,24.38 24.21,24.34 24.22,24.31 24.21,24.27 24.21,24.24 24.2,24.22 24.19,24.2 24.18,24.17 24.17,24.15 24.15,24.13 24.13,24.11 24.11,24.08 24.09,24.06 24.06,24.04 24.04,24.01 24.01,23.99 23.98,23.97 23.96,23.94 23.93,23.92 23.9,23.89 23.87,23.86 23.85,23.84 23.82,23.81 23.79,23.78 23.77,23.75 23.75,23.72 23.73,23.69 23.71,23.66 23.69,23.63 23.67,23.59 23.66,23.56 23.65,23.52 23.64,23.49 23.64,23.45 23.64,23.41 23.64,23.37 23.65,23.33 23.66,23.31 23.66,23.29 23.67,23.27 23.67,23.25 23.68,23.24 23.68,23.22 23.69,23.2 23.7,23.18 23.7,23.17 23.71,23.15 23.72,23.13 23.73,23.11 23.73,23.1 23.74,23.08 23.75,23.06 23.76,23.04 23.77,23.02 23.77,23.01 23.78,22.99 23.79,22.97 23.8,22.95 23.8,22.93 23.81,22.91 23.82,22.9 23.83,22.88 23.83,22.86 23.84,22.84 23.84,22.82 23.85,22.8 23.85,22.78 23.86,22.76 23.86,22.74 23.82,22.73 23.77,22.73 23.73,22.72 23.68,22.72 23.64,22.71 23.59,22.71 23.54,22.71 23.5,22.71 23.45,22.71 23.41,22.7 23.36,22.7 23.32,22.7 23.27,22.7 23.22,22.7 23.18,22.69 23.13,22.69 23.09,22.69 23.05,22.68 23,22.68 22.96,22.67 22.91,22.67 22.87,22.66 22.83,22.65 22.79,22.64 22.75,22.63 22.7,22.61 22.66,22.6 22.62,22.58 22.59,22.56 22.55,22.54 22.51,22.52 22.47,22.49 22.45,22.47 22.42,22.45 22.4,22.43 22.37,22.41 22.35,22.38 22.33,22.36 22.31,22.33 22.29,22.31 22.27,22.28 22.25,22.25 22.23,22.22 22.21,22.19 22.19,22.16 22.18,22.13 22.16,22.1 22.15,22.07 22.13,22.03 22.12,22 22.1,21.97 22.09,21.94 22.07,21.9 22.06,21.87 22.04,21.84 22.03,21.8 22.01,21.77 22,21.74 21.98,21.7 21.97,21.67 21.95,21.64 21.94,21.6 21.92,21.57 21.91,21.54 21.89,21.51 21.88,21.49 21.86,21.46 21.84,21.42 21.83,21.39 21.81,21.36 21.79,21.32 21.77,21.29 21.76,21.25 21.74,21.21 21.73,21.18 21.72,21.14 21.72,21.11 21.71,21.07 21.71,21.04 21.72,21 21.74,20.93 21.76,20.86 21.78,20.79 21.79,20.73 21.81,20.68 21.83,20.63 21.85,20.58 21.86,20.54 21.88,20.5 21.89,20.46 21.9,20.43 21.91,20.4 21.92,20.37 21.93,20.35 21.93,20.32 21.93,20.3 21.93,20.29 21.93,20.27 21.92,20.26 21.91,20.24 21.89,20.23 21.87,20.22 21.85,20.21 21.82,20.2 21.79,20.19 21.75,20.18 21.71,20.17 21.66,20.16 21.61,20.15 21.55,20.14 21.49,20.12 21.42,20.11 21.35,20.09 21.28,20.08 21.21,20.07 21.14,20.06 21.08,20.05 21.01,20.04 20.95,20.03 20.89,20.03 20.83,20.03 20.77,20.02 20.7,20.02 20.65,20.02 20.59,20.02 20.53,20.03 20.47,20.03 20.41,20.04 20.36,20.05 20.3,20.06 20.24,20.07 20.19,20.08 20.13,20.1 20.08,20.12 20.02,20.14 19.97,20.16 19.91,20.18 19.86,20.2 19.8,20.23 19.75,20.26 19.69,20.29 19.64,20.32 19.58,20.35 19.53,20.39 19.5,20.41 19.48,20.43 19.45,20.45 19.43,20.47 19.4,20.49 19.38,20.52 19.35,20.54 19.33,20.57 19.3,20.6 19.28,20.63 19.26,20.66 19.23,20.69 19.21,20.72 19.19,20.75 19.16,20.78 19.14,20.81 19.12,20.85 19.1,20.88 19.08,20.91 19.06,20.95 19.04,20.98 19.02,21.01 19,21.05 18.98,21.08 18.96,21.11 18.94,21.15 18.93,21.18 18.91,21.21 18.9,21.24 18.88,21.27 18.87,21.3 18.86,21.33 18.84,21.37 18.82,21.41 18.81,21.46 18.79,21.5 18.78,21.54 18.76,21.58 18.75,21.62 18.74,21.66 18.73,21.7 18.72,21.73 18.7,21.77 18.69,21.81 18.68,21.84 18.67,21.88 18.65,21.91 18.64,21.94 18.63,21.97 18.61,22.01 18.6,22.04 18.58,22.07 18.56,22.09 18.54,22.12 18.52,22.15 18.5,22.18 18.48,22.2 18.45,22.23 18.43,22.25 18.4,22.27 18.37,22.29 18.33,22.31 18.3,22.33 18.26,22.35 18.2,22.38 18.14,22.41 18.09,22.43 18.04,22.45 18,22.47 17.95,22.48 17.92,22.49 17.88,22.5 17.85,22.51 17.82,22.52 17.79,22.52 17.77,22.52 17.74,22.52 17.72,22.52 17.7,22.52 17.68,22.52 17.67,22.51 17.65,22.5 17.64,22.5 17.63,22.49 17.61,22.48 17.6,22.47 17.59,22.46 17.58,22.45 17.56,22.44 17.55,22.43 17.54,22.42 17.52,22.41 17.51,22.4 17.49,22.39 17.47,22.38 17.45,22.38 17.43,22.37 17.41,22.36 17.38,22.36 17.36,22.35 17.34,22.35 17.31,22.35 17.29,22.35 17.27,22.35 17.24,22.35 17.22,22.35 17.2,22.35 17.17,22.35 17.15,22.35 17.13,22.35 17.1,22.35 "/>
    <polygon class="fil6" points="24.68,18.42 24.65,18.41 24.62,18.4 24.59,18.39 24.57,18.37 24.54,18.36 24.51,18.35 24.49,18.33 24.46,18.32 24.44,18.3 24.41,18.29 24.39,18.27 24.36,18.26 24.34,18.25 24.31,18.23 24.29,18.22 24.26,18.2 24.24,18.19 24.21,18.18 24.19,18.16 24.16,18.15 24.13,18.14 24.1,18.13 24.07,18.12 24.05,18.11 24.02,18.1 23.99,18.09 23.95,18.08 23.92,18.07 23.89,18.07 23.85,18.06 23.82,18.06 23.78,18.05 23.8,18.06 23.82,18.07 23.84,18.08 23.87,18.09 23.9,18.1 23.93,18.11 23.96,18.12 23.99,18.13 24.03,18.14 24.06,18.15 24.1,18.16 24.14,18.18 24.18,18.2 24.21,18.21 24.25,18.23 24.29,18.26 24.29,18.27 24.3,18.28 24.3,18.27 24.3,18.26 24.3,18.25 24.3,18.25 24.29,18.26 24.28,18.27 24.26,18.29 24.26,18.29 24.25,18.29 24.25,18.28 24.25,18.28 24.25,18.28 24.26,18.28 24.27,18.3 24.28,18.3 24.3,18.3 24.32,18.31 24.34,18.31 24.36,18.32 24.38,18.33 24.4,18.33 24.42,18.34 24.44,18.35 24.46,18.36 24.48,18.37 24.5,18.38 24.52,18.39 24.54,18.4 24.56,18.41 24.58,18.42 24.61,18.43 24.62,18.44 24.65,18.45 24.66,18.46 24.68,18.47 24.7,18.49 24.72,18.5 24.74,18.51 24.75,18.52 24.77,18.53 24.78,18.54 24.79,18.55 24.81,18.56 24.82,18.57 24.83,18.58 24.84,18.59 25.2,18.78 25.2,18.86 25.21,18.93 25.22,18.99 25.23,19.04 25.25,19.09 25.27,19.13 25.3,19.17 25.33,19.2 25.36,19.23 25.4,19.25 25.44,19.27 25.49,19.28 25.53,19.3 25.58,19.31 25.63,19.31 25.68,19.32 25.74,19.32 25.79,19.32 25.85,19.32 25.91,19.33 25.97,19.33 26.03,19.33 26.08,19.33 26.14,19.33 26.2,19.34 26.26,19.34 26.32,19.35 26.38,19.36 26.44,19.38 26.49,19.39 26.55,19.42 26.6,19.44 26.62,19.45 26.64,19.46 26.65,19.48 26.67,19.49 26.69,19.5 26.7,19.52 26.72,19.53 26.74,19.55 26.75,19.57 26.77,19.59 26.78,19.61 26.79,19.62 26.81,19.64 26.82,19.66 26.83,19.69 26.84,19.71 26.85,19.73 26.86,19.75 26.87,19.78 26.87,19.8 26.88,19.82 26.88,19.85 26.89,19.88 26.89,19.9 26.89,19.93 26.89,19.95 26.89,19.98 26.89,20.01 26.89,20.04 26.88,20.06 26.88,20.09 26.87,20.12 26.85,20.17 26.83,20.21 26.81,20.26 26.79,20.3 26.76,20.34 26.73,20.38 26.7,20.41 26.66,20.45 26.63,20.48 26.59,20.51 26.55,20.53 26.51,20.56 26.47,20.58 26.43,20.6 26.39,20.61 26.35,20.63 26.32,20.64 26.29,20.64 26.26,20.65 26.23,20.65 26.2,20.66 26.17,20.66 26.14,20.66 26.11,20.66 26.09,20.65 26.06,20.65 26.04,20.65 26.01,20.64 25.99,20.64 25.97,20.63 25.94,20.62 25.92,20.61 25.9,20.6 25.88,20.59 25.86,20.58 25.84,20.57 25.82,20.55 25.8,20.54 25.78,20.53 25.77,20.51 25.75,20.5 25.73,20.48 25.71,20.47 25.69,20.45 25.68,20.44 25.66,20.42 25.64,20.4 25.62,20.39 25.61,20.37 25.6,20.36 25.58,20.35 25.57,20.33 25.55,20.32 25.53,20.31 25.52,20.29 25.5,20.28 25.48,20.26 25.47,20.25 25.45,20.23 25.43,20.21 25.41,20.2 25.39,20.18 25.38,20.17 25.36,20.15 25.34,20.14 25.32,20.12 25.3,20.11 25.28,20.09 25.26,20.08 25.24,20.06 25.22,20.05 25.21,20.03 25.19,20.02 25.17,20.01 25.15,19.99 25.13,19.98 25.11,19.97 25.1,19.96 25.08,19.95 25.06,19.94 25.01,19.91 24.96,19.88 24.91,19.85 24.85,19.83 24.8,19.81 24.75,19.79 24.7,19.77 24.65,19.76 24.6,19.74 24.55,19.73 24.5,19.72 24.45,19.71 24.41,19.71 24.36,19.7 24.31,19.7 24.26,19.7 24.21,19.7 24.16,19.71 24.11,19.71 24.06,19.72 24.02,19.72 23.97,19.73 23.92,19.74 23.87,19.75 23.82,19.77 23.77,19.78 23.72,19.8 23.67,19.81 23.62,19.83 23.57,19.85 23.52,19.87 23.46,19.9 23.42,19.92 23.38,19.94 23.34,19.96 23.3,19.97 23.27,19.99 23.24,20.01 23.21,20.02 23.19,20.04 23.16,20.05 23.14,20.07 23.12,20.08 23.11,20.09 23.09,20.1 23.08,20.11 23.06,20.12 23.05,20.13 23.04,20.14 23.03,20.14 23.01,20.15 23,20.15 22.99,20.16 22.98,20.16 22.97,20.16 22.95,20.16 22.94,20.16 22.92,20.16 22.9,20.16 22.88,20.16 22.86,20.15 22.84,20.15 22.81,20.14 22.79,20.13 22.71,20.12 22.64,20.11 22.57,20.1 22.51,20.1 22.45,20.1 22.39,20.11 22.33,20.12 22.28,20.13 22.23,20.15 22.19,20.18 22.14,20.2 22.1,20.23 22.07,20.26 22.03,20.3 22,20.34 21.97,20.38 21.95,20.42 21.92,20.46 21.9,20.51 21.88,20.55 21.86,20.6 21.85,20.65 21.84,20.7 21.83,20.75 21.82,20.8 21.82,20.85 21.81,20.9 21.81,20.95 21.81,21 21.81,21.05 21.82,21.09 21.82,21.14 21.83,21.16 21.83,21.18 21.84,21.21 21.84,21.23 21.85,21.25 21.86,21.28 21.86,21.3 21.87,21.32 21.88,21.34 21.89,21.36 21.9,21.38 21.9,21.41 21.91,21.43 21.92,21.45 21.93,21.47 21.94,21.49 21.95,21.51 21.96,21.53 21.97,21.55 21.98,21.57 21.99,21.59 22.01,21.61 22.02,21.63 22.03,21.65 22.04,21.67 22.05,21.69 22.06,21.71 22.07,21.73 22.08,21.76 22.09,21.78 22.1,21.8 22.1,21.82 22.13,21.87 22.15,21.92 22.17,21.96 22.18,22 22.2,22.04 22.22,22.08 22.24,22.12 22.27,22.15 22.29,22.18 22.31,22.21 22.34,22.24 22.37,22.27 22.4,22.3 22.43,22.33 22.47,22.36 22.51,22.39 22.53,22.41 22.55,22.42 22.57,22.43 22.59,22.45 22.61,22.46 22.63,22.47 22.66,22.48 22.68,22.5 22.7,22.51 22.72,22.52 22.74,22.53 22.76,22.54 22.79,22.55 22.81,22.56 22.83,22.57 22.86,22.58 22.88,22.59 22.91,22.6 22.93,22.61 22.95,22.61 22.98,22.62 23,22.63 23.03,22.64 23.06,22.64 23.08,22.65 23.11,22.65 23.13,22.66 23.16,22.67 23.19,22.67 23.21,22.67 23.24,22.68 23.27,22.68 23.32,22.69 23.38,22.69 23.43,22.69 23.48,22.69 23.54,22.68 23.59,22.68 23.64,22.67 23.69,22.66 23.74,22.65 23.79,22.63 23.83,22.62 23.88,22.6 23.92,22.58 23.97,22.56 24.01,22.54 24.06,22.51 24.1,22.49 24.14,22.46 24.18,22.43 24.21,22.4 24.25,22.37 24.28,22.34 24.32,22.31 24.35,22.27 24.38,22.24 24.41,22.2 24.43,22.17 24.46,22.13 24.48,22.09 24.5,22.05 24.52,22.01 24.54,21.97 24.51,21.95 24.48,21.93 24.45,21.92 24.42,21.9 24.4,21.89 24.38,21.88 24.36,21.87 24.34,21.85 24.32,21.84 24.3,21.83 24.28,21.81 24.27,21.79 24.25,21.77 24.24,21.74 24.22,21.71 24.21,21.67 24.23,21.68 24.24,21.69 24.26,21.7 24.28,21.71 24.3,21.72 24.32,21.73 24.33,21.74 24.35,21.75 24.37,21.76 24.39,21.77 24.4,21.78 24.42,21.79 24.44,21.8 24.45,21.81 24.47,21.82 24.49,21.83 24.5,21.84 24.52,21.85 24.54,21.86 24.56,21.87 24.57,21.88 24.59,21.89 24.61,21.9 24.63,21.91 24.65,21.91 24.67,21.92 24.69,21.93 24.71,21.94 24.74,21.95 24.76,21.95 24.78,21.96 24.81,21.97 24.82,21.97 24.84,21.98 24.86,21.98 24.89,21.98 24.91,21.99 24.93,21.99 24.96,21.99 24.98,21.99 25.01,21.99 25.03,22 25.06,22 25.09,22 25.11,22 25.14,22 25.17,21.99 25.19,21.99 25.22,21.99 25.25,21.99 25.27,21.99 25.3,21.98 25.33,21.98 25.35,21.98 25.37,21.97 25.4,21.97 25.42,21.96 25.44,21.96 25.46,21.95 25.48,21.94 25.5,21.94 25.52,21.93 25.53,21.92 25.54,21.91 25.53,21.9 25.52,21.89 25.51,21.88 25.5,21.87 25.49,21.86 25.48,21.85 25.47,21.84 25.46,21.83 25.45,21.82 25.44,21.8 25.44,21.79 25.43,21.77 25.43,21.76 25.43,21.74 25.42,21.72 25.42,21.7 25.43,21.68 25.43,21.66 25.43,21.64 25.44,21.62 25.44,21.6 25.45,21.58 25.46,21.57 25.47,21.55 25.48,21.53 25.49,21.52 25.51,21.51 25.52,21.5 25.53,21.49 25.55,21.49 25.56,21.48 25.58,21.48 25.6,21.48 25.63,21.48 25.66,21.49 25.69,21.5 25.72,21.51 25.75,21.53 25.79,21.54 25.82,21.56 25.86,21.58 25.89,21.6 25.92,21.62 25.95,21.64 25.99,21.65 26.01,21.67 26.04,21.68 26.06,21.69 26.1,21.7 26.13,21.71 26.17,21.72 26.21,21.73 26.25,21.73 26.28,21.74 26.32,21.74 26.36,21.75 26.41,21.75 26.45,21.75 26.49,21.75 26.53,21.75 26.57,21.75 26.61,21.74 26.66,21.74 26.7,21.73 26.74,21.73 26.78,21.72 26.82,21.71 26.86,21.71 26.9,21.7 26.94,21.69 26.97,21.68 27.01,21.67 27.04,21.66 27.08,21.64 27.11,21.63 27.14,21.62 27.17,21.6 27.2,21.59 27.23,21.58 27.25,21.56 27.21,21.56 27.18,21.57 27.14,21.57 27.11,21.57 27.08,21.58 27.04,21.58 27.01,21.59 26.98,21.59 26.95,21.6 26.91,21.6 26.88,21.6 26.84,21.6 26.8,21.6 26.76,21.6 26.72,21.6 26.67,21.6 26.7,21.55 26.72,21.52 26.74,21.49 26.75,21.46 26.77,21.43 26.78,21.41 26.8,21.39 26.81,21.38 26.83,21.36 26.84,21.34 26.86,21.33 26.88,21.31 26.91,21.3 26.94,21.28 26.97,21.26 27,21.23 27.03,21.22 27.05,21.2 27.08,21.18 27.1,21.17 27.13,21.15 27.15,21.13 27.18,21.11 27.21,21.09 27.23,21.07 27.26,21.05 27.28,21.03 27.3,21.01 27.33,20.99 27.35,20.97 27.37,20.95 27.39,20.93 27.44,20.86 27.48,20.8 27.52,20.74 27.56,20.67 27.58,20.61 27.6,20.54 27.62,20.48 27.63,20.41 27.64,20.34 27.64,20.28 27.64,20.21 27.63,20.14 27.62,20.08 27.6,20.01 27.59,19.95 27.57,19.89 27.54,19.82 27.51,19.76 27.49,19.71 27.45,19.65 27.42,19.59 27.38,19.54 27.35,19.49 27.31,19.44 27.27,19.39 27.23,19.35 27.19,19.31 27.15,19.27 27.1,19.23 27.06,19.2 27.02,19.17 26.98,19.15 26.94,19.13 26.9,19.11 26.86,19.09 26.82,19.07 26.78,19.06 26.74,19.05 26.71,19.04 26.67,19.03 26.63,19.02 26.59,19.01 26.56,19 26.52,19 26.48,19 26.45,18.99 26.41,18.99 26.37,18.99 26.34,18.99 26.3,18.99 26.26,18.98 26.22,18.98 26.19,18.98 26.15,18.98 26.11,18.98 26.07,18.98 26.03,18.98 25.99,18.98 25.95,18.98 25.91,18.98 25.87,18.98 25.82,18.98 25.78,18.97 25.74,18.97 25.72,18.96 25.7,18.94 25.69,18.93 25.68,18.91 25.67,18.89 25.66,18.88 25.65,18.86 25.65,18.83 25.63,18.81 25.62,18.79 25.61,18.77 25.58,18.74 25.56,18.72 25.52,18.7 25.48,18.68 25.43,18.66 25.42,18.66 25.41,18.65 25.4,18.65 25.39,18.65 25.38,18.65 25.37,18.65 25.36,18.65 25.35,18.65 25.33,18.65 25.33,18.65 25.32,18.65 25.32,18.65 25.32,18.65 25.31,18.65 25.31,18.65 25.29,18.65 25.28,18.65 25.28,18.66 25.28,18.66 25.29,18.66 25.29,18.66 25.28,18.66 25.27,18.66 25.24,18.66 25.24,18.63 25.25,18.6 25.26,18.58 25.26,18.56 25.28,18.53 25.29,18.51 25.3,18.49 25.31,18.47 25.31,18.45 25.32,18.42 25.32,18.4 25.32,18.37 25.32,18.33 25.31,18.3 25.3,18.26 25.28,18.21 25.27,18.19 25.26,18.17 25.25,18.15 25.23,18.13 25.22,18.11 25.2,18.09 25.19,18.07 25.17,18.05 25.15,18.04 25.13,18.02 25.11,18.01 25.09,17.99 25.06,17.98 25.04,17.97 25.01,17.96 24.98,17.96 24.98,18 24.98,18.03 24.99,18.07 24.99,18.1 24.99,18.14 24.99,18.17 24.99,18.2 24.99,18.23 24.99,18.26 24.99,18.28 24.99,18.31 25,18.33 25,18.35 25,18.38 25,18.4 25.01,18.42 25.01,18.44 25.02,18.45 25.02,18.47 25.03,18.49 25.04,18.5 25.05,18.51 25.06,18.53 25.07,18.54 25.08,18.55 25.1,18.56 25.12,18.57 25.14,18.58 25.16,18.59 25.18,18.59 25.21,18.6 25.23,18.61 25.23,18.73 25.21,18.72 25.19,18.71 25.17,18.7 25.14,18.69 25.12,18.68 25.09,18.67 25.07,18.66 25.05,18.65 25.02,18.63 25,18.62 24.97,18.61 24.95,18.59 24.93,18.58 24.91,18.57 24.89,18.56 24.87,18.55 24.83,18.53 24.8,18.51 24.78,18.49 24.76,18.47 24.74,18.45 24.72,18.43 24.7,18.41 24.69,18.39 24.68,18.37 24.68,18.35 24.67,18.32 24.67,18.3 24.67,18.28 24.66,18.26 24.67,18.24 24.67,18.22 24.67,18.19 24.67,18.17 24.67,18.15 24.67,18.12 24.68,18.1 24.68,18.07 24.68,18.05 24.68,18.02 24.68,18 24.68,17.97 24.67,17.94 24.67,17.91 24.66,17.89 24.65,17.86 24.64,17.83 24.63,17.8 24.62,17.77 24.6,17.75 24.59,17.73 24.58,17.71 24.56,17.7 24.55,17.68 24.53,17.66 24.51,17.64 24.49,17.63 24.47,17.62 24.44,17.6 24.42,17.59 24.39,17.58 24.36,17.57 24.33,17.57 24.3,17.56 24.31,17.64 24.32,17.71 24.33,17.78 24.34,17.84 24.35,17.9 24.36,17.95 24.38,17.99 24.39,18.03 24.41,18.06 24.43,18.09 24.44,18.12 24.46,18.14 24.48,18.16 24.49,18.18 24.51,18.19 24.53,18.2 24.55,18.21 24.56,18.22 24.58,18.23 24.59,18.24 24.61,18.24 24.62,18.25 24.63,18.26 24.64,18.27 24.65,18.28 24.66,18.29 24.67,18.31 24.67,18.32 24.68,18.34 24.68,18.37 24.68,18.39 "/>
    <polygon class="fil6" points="20.15,23.91 20.15,23.94 20.15,23.96 20.15,23.98 20.15,24 20.15,24.02 20.15,24.05 20.15,24.07 20.15,24.09 20.15,24.11 20.15,24.13 20.15,24.15 20.15,24.17 20.15,24.2 20.15,24.22 20.15,24.24 20.15,24.26 20.15,24.28 20.15,24.3 20.15,24.32 20.15,24.34 20.15,24.37 20.14,24.39 20.14,24.41 20.14,24.43 20.14,24.45 20.13,24.47 20.13,24.5 20.12,24.52 20.12,24.54 20.11,24.56 20.1,24.59 20.1,24.61 20.08,24.64 20.07,24.67 20.05,24.7 20.03,24.73 20.01,24.76 19.99,24.8 19.97,24.83 19.95,24.86 19.92,24.89 19.9,24.92 19.88,24.95 19.85,24.98 19.83,25.01 19.81,25.04 19.79,25.07 19.77,25.1 19.76,25.13 19.74,25.16 19.73,25.19 19.72,25.22 19.72,25.25 19.72,25.28 19.72,25.31 19.72,25.34 19.74,25.37 19.75,25.4 19.77,25.43 19.8,25.46 19.83,25.49 19.87,25.52 19.91,25.54 19.96,25.57 19.98,25.58 19.99,25.59 20.01,25.59 20.03,25.6 20.05,25.61 20.07,25.61 20.09,25.62 20.11,25.63 20.14,25.63 20.16,25.64 20.18,25.64 20.21,25.65 20.23,25.65 20.26,25.66 20.28,25.66 20.31,25.67 20.33,25.67 20.36,25.67 20.38,25.67 20.41,25.68 20.43,25.68 20.46,25.68 20.48,25.68 20.5,25.68 20.52,25.67 20.55,25.67 20.57,25.67 20.58,25.67 20.6,25.66 20.62,25.66 20.63,25.65 20.65,25.64 20.66,25.63 20.66,25.61 20.67,25.59 20.67,25.57 20.68,25.55 20.68,25.53 20.68,25.5 20.68,25.47 20.68,25.45 20.68,25.42 20.68,25.39 20.68,25.36 20.68,25.32 20.68,25.29 20.68,25.26 20.68,25.22 20.68,25.19 20.68,25.15 20.68,25.12 20.68,25.08 20.68,25.04 20.69,25.01 20.69,24.97 20.69,24.93 20.7,24.9 20.71,24.86 20.71,24.82 20.72,24.79 20.73,24.75 20.75,24.72 20.76,24.68 20.78,24.65 20.79,24.63 20.81,24.6 20.82,24.58 20.83,24.55 20.85,24.53 20.86,24.5 20.88,24.48 20.89,24.46 20.91,24.44 20.92,24.42 20.94,24.39 20.95,24.37 20.97,24.35 20.98,24.33 21,24.31 21.01,24.29 21.03,24.27 21.04,24.24 21.05,24.22 21.07,24.2 21.08,24.17 21.09,24.15 21.11,24.12 21.12,24.1 21.13,24.07 21.14,24.05 21.15,24.02 21.17,23.99 21.18,23.96 21.19,23.92 21.2,23.89 21.21,23.86 21.17,23.86 21.14,23.86 21.11,23.86 21.08,23.86 21.05,23.86 21.01,23.87 20.98,23.87 20.95,23.87 20.92,23.88 20.89,23.88 20.86,23.89 20.83,23.89 20.8,23.9 20.77,23.9 20.74,23.91 20.71,23.91 20.67,23.92 20.63,23.92 20.6,23.92 20.57,23.93 20.53,23.93 20.5,23.93 20.46,23.93 20.43,23.93 20.39,23.93 20.36,23.93 20.33,23.93 20.29,23.93 20.26,23.92 20.22,23.92 20.18,23.92 "/>
    <polygon class="fil6" points="27.34,21.81 27.29,21.82 27.24,21.82 27.2,21.82 27.15,21.83 27.1,21.83 27.06,21.83 27.01,21.84 26.96,21.84 26.92,21.85 26.88,21.85 26.83,21.85 26.79,21.85 26.74,21.86 26.7,21.86 26.65,21.86 26.61,21.86 26.57,21.85 26.52,21.85 26.48,21.84 26.43,21.84 26.38,21.83 26.34,21.82 26.29,21.81 26.24,21.79 26.19,21.78 26.14,21.76 26.09,21.74 26.04,21.71 25.99,21.69 25.93,21.66 25.88,21.63 25.82,21.59 25.79,21.58 25.76,21.56 25.73,21.55 25.7,21.54 25.67,21.53 25.64,21.53 25.62,21.53 25.59,21.53 25.56,21.53 25.54,21.55 25.52,21.56 25.5,21.58 25.49,21.61 25.48,21.64 25.48,21.68 25.47,21.72 25.48,21.75 25.48,21.78 25.49,21.8 25.5,21.82 25.52,21.84 25.54,21.86 25.56,21.88 25.58,21.9 25.61,21.91 25.63,21.93 25.66,21.94 25.69,21.95 25.73,21.97 25.76,21.98 25.8,21.99 25.83,21.99 25.87,22 25.91,22.01 25.95,22.02 25.99,22.02 26.03,22.03 26.07,22.03 26.1,22.03 26.14,22.04 26.18,22.04 26.22,22.04 26.25,22.04 26.29,22.04 26.32,22.04 26.36,22.04 26.39,22.04 26.41,22.04 26.44,22.04 26.47,22.04 26.5,22.03 26.53,22.03 26.56,22.03 26.6,22.03 26.63,22.02 26.66,22.02 26.69,22.01 26.72,22.01 26.76,22.01 26.79,22 26.82,21.99 26.86,21.99 26.89,21.98 26.92,21.98 26.95,21.97 26.98,21.96 27.01,21.95 27.04,21.94 27.07,21.94 27.1,21.93 27.13,21.92 27.16,21.91 27.19,21.9 27.21,21.89 27.24,21.87 27.26,21.86 27.28,21.85 27.31,21.84 27.33,21.83 "/>
    <polygon class="fil6" points="23.91,18.8 23.95,18.81 23.98,18.81 24.02,18.82 24.06,18.82 24.09,18.83 24.13,18.83 24.16,18.83 24.19,18.84 24.22,18.84 24.26,18.84 24.29,18.84 24.32,18.84 24.35,18.84 24.37,18.84 24.4,18.84 24.43,18.83 24.46,18.83 24.48,18.83 24.51,18.82 24.53,18.81 24.56,18.8 24.58,18.79 24.61,18.78 24.63,18.77 24.65,18.76 24.67,18.74 24.7,18.73 24.72,18.71 24.74,18.69 24.76,18.67 24.78,18.65 24.8,18.62 24.77,18.61 24.73,18.59 24.7,18.58 24.67,18.57 24.64,18.56 24.61,18.55 24.58,18.54 24.55,18.53 24.52,18.53 24.49,18.52 24.46,18.52 24.43,18.52 24.39,18.52 24.36,18.53 24.32,18.54 24.27,18.55 24.25,18.56 24.22,18.57 24.19,18.58 24.16,18.6 24.13,18.61 24.11,18.62 24.08,18.64 24.06,18.66 24.03,18.67 24.01,18.69 23.99,18.71 23.97,18.72 23.95,18.74 23.93,18.76 23.92,18.78 "/>
    <polygon class="fil6" points="23.32,18.46 23.33,18.47 23.35,18.49 23.37,18.51 23.38,18.52 23.4,18.53 23.42,18.54 23.44,18.55 23.46,18.56 23.48,18.57 23.51,18.57 23.53,18.57 23.55,18.58 23.57,18.58 23.6,18.58 23.62,18.58 23.65,18.58 23.67,18.57 23.69,18.57 23.72,18.56 23.74,18.56 23.77,18.55 23.79,18.55 23.81,18.54 23.84,18.53 23.86,18.52 23.88,18.51 23.91,18.5 23.93,18.49 23.95,18.47 23.97,18.46 23.99,18.45 24.01,18.44 24.18,18.29 24.18,18.29 24.19,18.29 24.19,18.29 24.19,18.29 24.19,18.29 24.19,18.28 24.2,18.28 24.2,18.28 24.16,18.27 24.12,18.26 24.09,18.25 24.06,18.25 24.03,18.24 24.01,18.24 23.98,18.23 23.96,18.23 23.93,18.23 23.91,18.23 23.88,18.24 23.85,18.24 23.82,18.25 23.79,18.26 23.75,18.27 23.71,18.28 23.69,18.29 23.67,18.29 23.65,18.3 23.62,18.31 23.59,18.32 23.56,18.34 23.53,18.35 23.5,18.36 23.47,18.38 23.44,18.39 23.42,18.4 23.39,18.41 23.37,18.43 23.35,18.44 23.33,18.45 "/>
    <polygon class="fil6" points="24.01,18.02 24.01,17.99 24,17.96 24,17.93 23.99,17.9 23.99,17.87 23.98,17.84 23.97,17.81 23.97,17.78 23.96,17.75 23.95,17.73 23.94,17.7 23.93,17.67 23.92,17.64 23.91,17.62 23.89,17.59 23.88,17.57 23.87,17.54 23.85,17.52 23.83,17.5 23.82,17.48 23.8,17.46 23.78,17.44 23.76,17.42 23.74,17.41 23.71,17.4 23.69,17.39 23.66,17.38 23.63,17.37 23.6,17.37 23.57,17.37 23.54,17.37 23.51,17.37 23.51,17.39 23.52,17.41 23.53,17.44 23.53,17.47 23.54,17.49 23.55,17.52 23.56,17.55 23.57,17.58 23.58,17.61 23.59,17.63 23.61,17.66 23.62,17.68 23.63,17.71 23.64,17.73 23.65,17.75 23.66,17.77 23.68,17.79 23.69,17.82 23.71,17.84 23.73,17.86 23.74,17.88 23.76,17.89 23.78,17.91 23.8,17.92 23.82,17.94 23.84,17.95 23.86,17.96 23.89,17.97 23.91,17.98 23.94,17.99 23.98,18 "/>
    <polygon class="fil6" points="22.85,18.1 22.86,18.11 22.88,18.13 22.89,18.14 22.9,18.15 22.92,18.16 22.94,18.18 22.96,18.18 22.98,18.19 23,18.2 23.02,18.21 23.04,18.21 23.06,18.21 23.09,18.22 23.11,18.22 23.13,18.22 23.16,18.22 23.19,18.22 23.21,18.21 23.24,18.21 23.26,18.2 23.29,18.2 23.32,18.19 23.35,18.18 23.37,18.17 23.4,18.16 23.43,18.15 23.46,18.14 23.48,18.13 23.51,18.11 23.54,18.1 23.57,18.08 23.59,18.06 23.59,18.06 23.6,18.06 23.6,18.06 23.6,18.06 23.6,18.06 23.6,18.06 23.6,18.06 23.61,18.06 23.63,18.03 23.61,18.02 23.58,18.01 23.56,18 23.53,17.99 23.51,17.98 23.49,17.97 23.47,17.96 23.44,17.95 23.42,17.94 23.39,17.93 23.37,17.93 23.34,17.92 23.31,17.92 23.27,17.92 23.24,17.93 23.2,17.93 23.17,17.94 23.15,17.94 23.13,17.95 23.1,17.96 23.08,17.96 23.05,17.97 23.03,17.99 23,18 22.98,18.01 22.96,18.02 22.94,18.03 22.92,18.04 22.9,18.06 22.88,18.07 22.86,18.08 "/>
    <polygon class="fil8" points="24.57,20.81 24.56,20.85 24.56,20.88 24.57,20.91 24.58,20.93 24.59,20.95 24.61,20.97 24.63,20.99 24.65,21 24.67,21.01 24.7,21.01 24.72,21.02 24.75,21.01 24.77,21.01 24.79,21 24.81,20.99 24.83,20.98 24.84,20.96 24.85,20.94 24.85,20.92 24.85,20.9 24.84,20.88 24.83,20.86 24.81,20.84 24.79,20.83 24.76,20.81 24.74,20.8 24.71,20.8 24.68,20.79 24.65,20.79 24.62,20.79 24.6,20.8 "/>
   </g>
  </g>
 </g>
</svg>
