<?xml version="1.0" encoding="UTF-8"?>
<!DOCTYPE svg PUBLIC "-//W3C//DTD SVG 1.1//EN" "http://www.w3.org/Graphics/SVG/1.1/DTD/svg11.dtd">
<!-- Creator: CorelDRAW -->
<svg xmlns="http://www.w3.org/2000/svg" xml:space="preserve" width="304.932mm" height="304.932mm" version="1.1" style="shape-rendering:geometricPrecision; text-rendering:geometricPrecision; image-rendering:optimizeQuality; fill-rule:evenodd; clip-rule:evenodd"
viewBox="0 0 34236.65 34236.65"
 xmlns:xlink="http://www.w3.org/1999/xlink"
 xmlns:xodm="http://www.corel.com/coreldraw/odm/2003">
 <defs>
  <style type="text/css">
   <![CDATA[
    .str6 {stroke:white;stroke-width:39.61;stroke-linecap:round;stroke-linejoin:round;stroke-miterlimit:10;stroke-opacity:0.200000}
    .str4 {stroke:#263138;stroke-width:39.61;stroke-linejoin:round;stroke-miterlimit:2.61313;stroke-opacity:0.301961}
    .str3 {stroke:#263138;stroke-width:39.61;stroke-linecap:round;stroke-linejoin:round;stroke-miterlimit:10;stroke-opacity:0.301961}
    .str7 {stroke:#263138;stroke-width:39.61;stroke-linejoin:round;stroke-miterlimit:2.61313;stroke-opacity:0.501961}
    .str8 {stroke:#263138;stroke-width:39.61;stroke-linecap:round;stroke-linejoin:round;stroke-miterlimit:10;stroke-opacity:0.501961}
    .str9 {stroke:#32AB62;stroke-width:8.56;stroke-miterlimit:2.61313}
    .str5 {stroke:#FFBD9C;stroke-width:8.56;stroke-miterlimit:2.61313}
    .str2 {stroke:#263138;stroke-width:39.61;stroke-linejoin:round;stroke-miterlimit:2.61313}
    .str1 {stroke:#263138;stroke-width:79.22;stroke-linecap:round;stroke-linejoin:round;stroke-miterlimit:10}
    .str0 {stroke:#263138;stroke-width:39.61;stroke-linecap:round;stroke-linejoin:round;stroke-miterlimit:10}
    .fil23 {fill:none}
    .fil2 {fill:none;fill-rule:nonzero}
    .fil10 {fill:none;fill-rule:nonzero}
    .fil6 {fill:none;fill-rule:nonzero}
    .fil15 {fill:none;fill-rule:nonzero}
    .fil19 {fill:#237744}
    .fil20 {fill:#263138}
    .fil21 {fill:#32AB62}
    .fil22 {fill:white}
    .fil17 {fill:black;fill-rule:nonzero}
    .fil9 {fill:#263138;fill-rule:nonzero}
    .fil5 {fill:#32AB62;fill-rule:nonzero}
    .fil0 {fill:#91E2A8;fill-rule:nonzero}
    .fil8 {fill:#FFBD9C;fill-rule:nonzero}
    .fil3 {fill:white;fill-rule:nonzero}
    .fil4 {fill:black;fill-rule:nonzero;fill-opacity:0.301961}
    .fil7 {fill:#91E2A8;fill-rule:nonzero;fill-opacity:0.301961}
    .fil18 {fill:#91E2A8;fill-rule:nonzero;fill-opacity:0.400000}
    .fil13 {fill:black;fill-rule:nonzero;fill-opacity:0.501961}
    .fil11 {fill:#757575;fill-rule:nonzero;fill-opacity:0.501961}
    .fil14 {fill:#999999;fill-rule:nonzero;fill-opacity:0.501961}
    .fil16 {fill:#BFBFBF;fill-rule:nonzero;fill-opacity:0.501961}
    .fil12 {fill:white;fill-rule:nonzero;fill-opacity:0.501961}
    .fil1 {fill:white;fill-rule:nonzero;fill-opacity:0.701961}
   ]]>
  </style>
   <clipPath id="id0">
    <path d="M-0 0l34236.65 0 0 34236.65 -34236.65 0 0 -34236.65z"/>
   </clipPath>
 </defs>
 <g id="Layer_x0020_1">
  <metadata id="CorelCorpID_0Corel-Layer"/>
  <g>
  </g>
  <g style="clip-path:url(#id0)">
   <g>
    <path class="fil0" d="M4610.87 4295.73c15.3,-13.92 30.64,-27.8 46.01,-41.65 4235.88,-3814.14 9862.1,-3986.09 13960.79,119.7 2136.24,2139.94 5929.41,1730.4 8643.33,2504.4 9357.27,2668.74 7739.43,15364.7 3117.25,21501.86 -4171.05,5538.18 -13208.69,6789.38 -19280.75,4064.49 -5335.7,-2394.48 -9092.77,-7743.76 -10429.82,-13336.99 -134.11,-560.93 -244.38,-1127.51 -328.67,-1698.05 -703.31,-4761.34 647.59,-9818.12 4271.86,-13113.74z"/>
    <path class="fil1" d="M4610.89 4295.73c15.29,-13.92 30.63,-27.8 45.99,-41.64 4235.89,-3814.15 9862.12,-3986.1 13960.77,119.69 2136.26,2139.94 5929.42,1730.4 8643.34,2504.41 9357.27,2668.73 7739.43,15364.68 3117.25,21501.86 -4171.05,5538.18 -13208.69,6789.38 -19280.73,4064.47 -5335.73,-2394.46 -9092.77,-7743.76 -10429.84,-13336.99 -134.11,-560.92 -244.38,-1127.51 -328.68,-1698.07 -703.32,-4761.31 647.61,-9818.08 4271.9,-13113.72z"/>
    <path class="fil2 str0" d="M19545.24 29572.29c-406.6,2032.53 -2383.93,3350.63 -4416.47,2944 -1453.46,-290.77 -2541.59,-1384.76 -2894.93,-2727.76"/>
    <path class="fil2 str0" d="M19494.3 27876.5c108.03,407.45 148.43,837.92 110.85,1275.91"/>
    <path class="fil2 str0" d="M13450.67 25963.56c842.97,-707.62 1987.46,-1040.46 3150.57,-807.76 1229.4,245.94 2197.43,1066.56 2680.47,2126.43"/>
    <polyline class="fil2 str0" points="12409.14,25371.45 12304.69,25091.6 13294.27,25844.56 "/>
    <path class="fil2 str0" d="M12184.78 28099.79c113.75,-568.59 350.56,-1081.13 676.95,-1515.77"/>
    <line class="fil2 str0" x1="12861.73" y1="26584.02" x2="12531.98" y2= "25700.54" />
    <path class="fil2 str0" d="M12114.35 28994.8c-6.27,-151 -3.42,-303.61 9.03,-457.13"/>
    <path class="fil2 str0" d="M16042.93 26966.02c1036.16,121.35 1777.74,1059.69 1656.4,2095.86 -121.36,1036.18 -1059.69,1777.78 -2095.86,1656.43 -1036.18,-121.36 -1777.79,-1059.72 -1656.43,-2095.87 94.44,-806.29 683.54,-1434.18 1428.48,-1615.96"/>
    <path class="fil2 str0" d="M15579.79 30920.51c-1147.85,-134.45 -1969.37,-1173.93 -1834.95,-2321.75"/>
    <path class="fil2 str0" d="M17826.02 29449.49c-224.64,743.91 -845.4,1296.45 -1593.81,1445.42"/>
    <path class="fil2 str0" d="M13878.23 28068.83c340.99,-859.19 1226.64,-1417.66 2188.38,-1305.01 1147.83,134.42 1969.34,1173.89 1834.9,2321.74"/>
    <line class="fil2 str1" x1="17038.02" y1="28023.84" x2="17060.61" y2= "27996.79" />
    <line class="fil2 str1" x1="16722.13" y1="28401.95" x2="16879.49" y2= "28213.59" />
    <polyline class="fil2 str1" points="14692.89,28772.83 15553.43,29800.86 16584.27,28566.99 "/>
    <path class="fil3 str2" d="M30128.2 25387.42l-9024.27 0c-2095.47,0 -3794.21,-1698.72 -3794.21,-3794.21l0 -9024.25c0,-2095.47 1698.74,-3794.21 3794.21,-3794.21l9024.27 0c2095.5,0 3794.21,1698.74 3794.21,3794.21l0 9024.25c0,2095.49 -1698.71,3794.21 -3794.21,3794.21z"/>
    <path class="fil2 str0" d="M30355.64 10799.52c518.95,-2067.99 -598.84,-2775.77 -1303.12,-3046.77 -1128.25,-434.13 -2552.04,59.76 -2885.65,1208.61 -333.63,1148.84 -32.98,1410.41 -48.55,1880.43 -10.92,329.65 -229.48,491.96 11.47,1319.17 158.96,545.72 454.31,1171.75 798.64,1191.76 931.95,54.15 1814.28,-476.6 1765.27,-725.71"/>
    <path class="fil3 str2" d="M22398.51 16089.14c-251.84,-415.8 -1461.24,-409 -1570.74,-224.27 0,0 599.21,1937 1267,1736.23 667.81,-200.77 303.74,-1511.96 303.74,-1511.96z"/>
    <path class="fil2 str2" d="M22398.51 16089.14c-251.84,-415.8 -1461.24,-409 -1570.74,-224.27 0,0 599.21,1937 1267,1736.23 667.81,-200.77 303.74,-1511.96 303.74,-1511.96z"/>
    <path class="fil4" d="M22398.5 16089.15c-251.82,-415.79 -1461.22,-409 -1570.74,-224.28 0,0 599.21,1937 1267,1736.23 667.82,-200.78 303.74,-1511.95 303.74,-1511.95z"/>
    <path class="fil0 str2" d="M20955.72 17074.79c0,0 -128.03,146.04 -128.03,365.39 0,180.65 344.67,3789.22 1408.4,5045.38 222.86,263.69 477.56,423.57 767.53,427.02 900.42,9.69 1336.44,-704.53 1909.5,-2361.44 71.28,-206.22 145.33,-427.69 222.17,-664.39 557.13,-1710.17 1241.61,-5277.2 1241.61,-5277.2 0,0 -1214.63,281.69 -1935.09,995.91 -314.91,312.15 -642.96,1198.02 -852.68,1848.57 -103.11,319.73 -177.86,582.04 -208.99,692.78 -9.71,36.68 -15.22,56.74 -15.22,56.74 -27.69,-107.27 -73.37,-216.6 -127.34,-323.2 -0.7,-1.37 -0.7,-2.08 -1.39,-2.77 -2.08,-2.77 -3.47,-5.54 -4.17,-8.31 -217.31,-417.32 -570.97,-785.51 -570.97,-785.51l-262.29 -994.54c0,0 -92.76,181.34 -512.17,245.69 -420.09,64.38 -1058.9,-469.93 -1058.9,-469.93l128.03 1209.8z"/>
    <path class="fil5 str2" d="M20955.72 17074.79c0,0 -128.03,146.04 -128.03,365.39 0,180.65 344.67,3789.22 1408.4,5045.38 222.86,263.69 477.56,423.57 767.53,427.02 900.42,9.69 1336.44,-704.53 1909.5,-2361.44 71.28,-206.22 145.33,-427.69 222.17,-664.39 557.13,-1710.17 1241.61,-5277.2 1241.61,-5277.2 0,0 -1214.63,281.69 -1935.09,995.91 -314.91,312.15 -642.96,1198.02 -852.68,1848.57 -103.11,319.73 -177.86,582.04 -208.99,692.78 -9.71,36.68 -15.22,56.74 -15.22,56.74 -27.69,-107.27 -73.37,-216.6 -127.34,-323.2 -0.7,-1.37 -0.7,-2.08 -1.39,-2.77 -2.08,-2.77 -3.47,-5.54 -4.17,-8.31 -217.31,-417.32 -570.97,-785.51 -570.97,-785.51l-262.29 -994.54c0,0 -92.76,181.34 -512.17,245.69 -420.09,64.38 -1058.9,-469.93 -1058.9,-469.93l128.03 1209.8z"/>
    <path class="fil4" d="M22236.1 22485.55c222.85,263.7 477.54,423.58 767.52,427.04 900.43,9.69 1336.45,-704.56 1909.49,-2361.45l-12.44 -3850.79c0,0 -676.87,131.5 -1311.53,753.68 -103.13,319.73 -177.87,582.04 -208.99,692.79 253.3,527.4 694.86,1739.91 188.25,3032.09 -328.77,838.12 -866.51,1178.62 -1332.3,1306.65z"/>
    <path class="fil6 str3" d="M23819.18 19379.15c64.55,338.05 67.14,704.63 -89.2,1019.23"/>
    <path class="fil6 str3" d="M23364.91 18203.43c177.82,300.16 316.33,630.72 406.44,967.37"/>
    <path class="fil6 str3" d="M23938.77 18629.38c0,0 -126.65,-348.37 -468.89,-425.95"/>
    <path class="fil6 str3" d="M22190.91 17356.33c82.47,-44.43 159.34,-99.23 229.44,-161.35"/>
    <path class="fil6 str3" d="M20955.51 17074.79c268.15,286.71 686.2,474.19 1075.99,349.37"/>
    <path class="fil7 str4" d="M23231.35 17869.96c0,0 1.35,2.8 4.83,7.62 -2.07,-2.76 -3.48,-5.54 -4.17,-8.3 -0.66,0 -0.66,0.67 -0.66,0.67z"/>
    <path class="fil0 str2" d="M31164.35 25226.46c0,0 153.19,-1208.95 246.56,-1603.7 420.43,-1777.27 1901.6,-5895.08 1662.76,-7113.57 -245.46,-1252.24 -1746.72,-2347.95 -4169.77,-2468.38 -2247.23,-112.11 -4099.97,684.48 -4542.89,1610.52 -422.89,883.8 -405.59,6983.62 -298.32,9736.08 0,0 4629.89,0 6173.18,0 487.41,0 928.48,-160.96 928.48,-160.96z"/>
    <path class="fil5 str2" d="M31164.35 25226.46c0,0 153.19,-1208.95 246.56,-1603.7 420.43,-1777.27 1901.6,-5895.08 1662.76,-7113.57 -245.46,-1252.24 -1746.72,-2347.95 -4169.77,-2468.38 -2247.23,-112.11 -4099.97,684.48 -4542.89,1610.52 -422.89,883.8 -405.59,6983.62 -298.32,9736.08 0,0 4629.89,0 6173.18,0 487.41,0 928.48,-160.96 928.48,-160.96z"/>
    <path class="fil4" d="M30681.77 17878.14c-1164.01,1595.59 -2432.96,3983.4 -2432.96,3983.4l-3466.7 -4320.45c0,0 793.91,5487.63 1226.93,6081.66 433.04,594.04 413.72,866.94 413.72,866.94 0,0 570.68,614.53 1197.99,897.74l994.95 0c928.58,-594.1 3023.78,-3151.63 3727.23,-6069.07l-1661.16 -1440.22z"/>
    <path class="fil8 str2" d="M29882.32 14284.86c0,0 -1208.28,518.3 -2515.95,88.71 0,0 168.39,-409.07 169.21,-746.66 0.83,-169.21 -41.89,-321.15 -169.21,-393.43 0,0 59.15,-64.92 159.36,-167.57 0.81,0 0.81,0 0.81,0 495.32,-504.36 1999.28,-1922.08 2488.85,-1076.88 0,0 -512.54,48.47 -133.07,2295.82z"/>
    <path class="fil9" d="M28516.34 12719.28c0,0 -198.77,728.57 -980.76,907.63 0.83,-169.21 -41.89,-321.15 -169.21,-393.43 0,0 59.15,-64.92 159.36,-167.57 0.81,0 0.81,0 0.81,0 478.88,-188.11 989.79,-346.63 989.79,-346.63z"/>
    <path class="fil8 str5" d="M28693.71 12626.99l1661.92 -1827.48c518.95,-2067.99 -598.84,-2775.77 -1303.12,-3046.77 -1128.25,-434.13 -2552.04,59.76 -2885.65,1208.61 -333.63,1148.84 -32.98,1410.41 -48.55,1880.43 -10.92,329.65 -229.48,491.96 11.47,1319.17 158.96,545.72 454.31,1171.75 798.64,1191.76 931.95,54.15 1814.28,-476.6 1765.27,-725.71z"/>
    <path class="fil2 str0" d="M27427.19 9786.26c0,0 417.23,-144.2 640.08,310.88"/>
    <path class="fil2 str0" d="M26009.05 9718.35c0,0 310.25,-263.38 621.16,109.23"/>
    <path class="fil9" d="M27510.15 10661.91c0,96.11 46.31,174.02 103.45,174.02 57.16,0 103.47,-77.91 103.47,-174.02 0,-96.12 -46.31,-174.03 -103.47,-174.03 -57.14,0 -103.45,77.91 -103.45,174.03z"/>
    <path class="fil9" d="M26319.31 10566.66c0,96.12 46.31,174.05 103.45,174.05 57.14,0 103.47,-77.93 103.47,-174.05 0,-96.12 -46.34,-174.03 -103.47,-174.03 -57.14,0 -103.45,77.91 -103.45,174.03z"/>
    <path class="fil8" d="M26571.38 11517.98l58.83 -1349.79c0,0 64.27,478.84 35.63,572.51 -28.63,93.64 -352.65,386.08 -365.39,516.08 -12.71,129.97 270.93,261.2 270.93,261.2z"/>
    <path class="fil2 str0" d="M26630.21 10168.2c0,0 64.27,478.84 35.63,572.51 -28.63,93.64 -352.65,386.08 -365.39,516.08 -12.71,129.97 270.93,261.2 270.93,261.2"/>
    <path class="fil9" d="M26422.76 11792.94c0,0 647,162.47 1190.85,0 0,0 -256.24,802.55 -762.7,720.78 -335.47,-54.16 -250.05,-580.05 -250.05,-580.05l-178.09 -140.73z"/>
    <path class="fil9" d="M28206.57 8627.4c0,0 -267.51,-184.13 -639.74,-97.49 -372.22,86.67 -430.73,869.39 -430.73,869.39 0,0 -198.9,-176.16 -233.98,-392.8l-117 335.78 -310.34 -292.45 -103.9 349.46 -123.26 -251.97 -238.8 465.18c0,0 -358.89,-462.47 -303.29,-819.94 151.64,-974.84 925.18,-1775.78 2543.26,-1689.72 814.54,43.34 1118.51,601.63 1118.51,601.63 0,0 796.63,-107.74 1149.93,305.5 1203.07,1407.18 448.59,2935.15 -693.95,4382.77l-391.65 -1379.67 -379.11 -43.34c0,0 14.11,-208.5 2.36,-425.13 -11.77,-216.64 -140.45,-533.64 -140.45,-533.64l-140.4 63.05 58.48 -264.23 -320.68 164.43c0,0 135.55,-1086.86 0,-1271.01 -135.58,-184.12 -305.26,-75.81 -305.26,-75.81z"/>
    <path class="fil8" d="M29193.36 11919.7l0 -758.28c0,0 379.12,-706.57 775.5,-534.22 396.37,172.32 120.64,1016.75 -224.04,1292.5 -344.67,275.73 -551.47,0 -551.47,0z"/>
    <path class="fil2 str0" d="M29193.36 11161.42c0,0 379.12,-706.57 775.5,-534.22 396.37,172.32 120.64,1016.75 -224.04,1292.5 -344.67,275.73 -551.47,0 -551.47,0"/>
    <path class="fil10 str6" d="M28550.43 8336.65c0,0 -141.45,-396.14 -605.44,-426.6 -463.98,-30.48 -797.43,472.33 -808.03,822.78"/>
    <path class="fil10 str6" d="M28864.33 8320.76c0,0 317.93,-243.83 502.48,0 311.84,412.07 53.66,1407.02 53.66,1407.02"/>
    <path class="fil10 str6" d="M29296.97 8030.15c0,0 330.88,-203.3 614.36,188.75 283.43,392 252.58,1344.49 252.58,1344.49"/>
    <path class="fil10 str6" d="M30234.38 7977.45c0,0 572.84,241.45 605.35,1395.32"/>
    <path class="fil10 str6" d="M28902.87 8030.15c0,0 -322.28,-546.74 -1276.21,-363.91 -954,182.83 -1097.26,1158.01 -1097.26,1158.01"/>
    <path class="fil10 str6" d="M29140.27 7864.32c0,0 -384.19,-533.29 -1551.89,-426.63 -1167.74,106.67 -1637.36,1127.52 -1518.69,1615.09"/>
    <path class="fil11 str7" d="M19571.01 14701.86c0,0 1388.91,-1069.04 1994.26,-1177.35 605.35,-108.32 2688.41,346.61 2688.41,346.61l0 2466.87c0,0 -1303.2,143.02 -1888.1,571.13 -584.93,428.09 -2599.6,496.71 -2599.6,496.71l-194.97 -2703.96z"/>
    <path class="fil12 str7" d="M20874.61 13937.61c0,0 31.83,-314.13 80.9,-487.42 49.08,-173.3 384.86,-154.75 460.66,-93.63 75.85,61.13 149.1,167.94 149.1,167.94 0,0 -116.57,34.01 -149.1,44.84 -32.46,10.8 -64.99,639.05 -541.55,368.27z"/>
    <polygon class="fil3 str2" points="24634.96,10856.28 23251.02,14868.19 21264.34,14182.86 22648.28,10170.95 "/>
    <polygon class="fil2 str2" points="24634.96,10856.28 23251.02,14868.19 21264.34,14182.86 22648.28,10170.95 "/>
    <path class="fil13" d="M21264.31 14182.86l1986.69 685.35 1383.94 -4011.91 -1986.67 -685.35 -1383.96 4011.91zm3161.74 -3224.88l-1276.77 3701.37 -1676.1 -578.19 1276.78 -3701.34 1676.09 578.17z"/>
    <path class="fil13" d="M22943.32 10693.35l-170.93 495.49c-19.1,55.46 -79.58,84.9 -135.03,65.78 -55.43,-19.14 -84.89,-79.62 -65.77,-135.05l170.92 -495.49c19.14,-55.46 79.6,-84.9 135.06,-65.78 55.45,19.14 84.89,79.6 65.76,135.05z"/>
    <path class="fil13" d="M23327.68 13919.62l-170.91 495.46c-19.12,55.45 -79.57,84.88 -135.03,65.77 -55.44,-19.13 -84.89,-79.59 -65.77,-135.05l170.92 -495.49c19.12,-55.42 79.59,-84.88 135.05,-65.76 55.44,19.14 84.89,79.57 65.75,135.06z"/>
    <path class="fil13" d="M22327.29 12304.88c-118.59,343.71 63.93,718.49 407.68,837.08 343.71,118.56 718.49,-63.96 837.06,-407.7 118.56,-343.71 -63.95,-718.49 -407.7,-837.05 -343.71,-118.59 -718.49,63.94 -837.04,407.68z"/>
    <polygon class="fil0 str2" points="20749.44,8423.76 19659.36,4322.23 21690.45,3782.42 22780.53,7883.95 "/>
    <polygon class="fil5 str2" points="20749.44,8423.76 19659.36,4322.23 21690.45,3782.42 22780.53,7883.95 "/>
    <path class="fil13" d="M21690.45 3782.42l-2031.09 539.81 1090.08 4101.54 2031.09 -539.84 -1090.08 -4101.52zm-824.42 4440.39l-1005.68 -3784.04 1713.53 -455.38 1005.68 3784 -1713.53 455.41z"/>
    <path class="fil13" d="M22244.17 7615.08l-134.61 -506.55c-15.09,-56.7 18.66,-114.86 75.35,-129.91 56.7,-15.1 114.85,18.66 129.94,75.36l134.61 506.55c15.07,56.7 -18.67,114.85 -75.37,129.91 -56.67,15.07 -114.85,-18.68 -129.91,-75.36z"/>
    <path class="fil13" d="M20125.04 5152.2l-134.63 -506.53c-15.07,-56.69 18.67,-114.85 75.37,-129.91 56.69,-15.06 114.85,18.68 129.94,75.38l134.61 506.52c15.07,56.69 -18.67,114.85 -75.37,129.93 -56.7,15.06 -114.86,-18.69 -129.91,-75.38z"/>
    <path class="fil13" d="M21856.23 5933.98c-93.41,-351.4 -453.99,-560.56 -805.39,-467.17 -351.4,93.39 -560.57,453.99 -467.18,805.39 93.41,351.4 453.98,560.55 805.38,467.16 351.42,-93.39 560.58,-453.98 467.19,-805.38z"/>
    <path class="fil14 str7" d="M19571.01 14701.86c0,0 2014.69,-679.11 2556.28,-776.58 541.58,-97.48 2126.39,-54.16 2126.39,-54.16l0 2466.87c0,0 -1654.47,502 -1909.77,702.8 -255.28,200.83 -2577.93,365.03 -2577.93,365.03l-194.97 -2703.96z"/>
    <path class="fil15 str8" d="M22320.36 14995.62c-106.09,571.09 -29.88,1336.72 -407.99,1800.01"/>
    <path class="fil15 str8" d="M22495.83 14131.07c-41.04,186.41 -79.78,373.28 -116.98,560.47"/>
    <path class="fil16 str7" d="M24501.09 5946.54c0,249.25 -202.07,451.29 -451.32,451.29 -249.23,0 -451.31,-202.04 -451.31,-451.29 0,-249.23 202.07,-451.29 451.31,-451.29 249.24,0 451.32,202.06 451.32,451.29z"/>
    <path class="fil13" d="M24301.84 6227.63c155.23,-139.21 168.25,-377.89 29.03,-533.14 -139.19,-155.23 -377.89,-168.25 -533.12,-29.03 -155.26,139.19 -168.26,377.89 -29.07,533.12 139.22,155.26 377.9,168.26 533.16,29.06z"/>
    <path class="fil16 str7" d="M22363.64 2380.53c0,249.26 -202.06,451.29 -451.27,451.29 -249.26,0 -451.34,-202.03 -451.34,-451.29 0,-249.24 202.07,-451.29 451.34,-451.29 249.21,0 451.27,202.05 451.27,451.29z"/>
    <path class="fil13" d="M22164.41 2661.63c155.23,-139.21 168.25,-377.92 29.03,-533.16 -139.19,-155.26 -377.9,-168.25 -533.16,-29.06 -155.23,139.21 -168.22,377.92 -29.03,533.16 139.22,155.26 377.9,168.25 533.16,29.06z"/>
    <path class="fil16 str7" d="M20268.59 11100.19c-242.03,-59.5 -390.04,-303.93 -330.57,-545.98 59.48,-242.01 303.93,-390.04 545.95,-330.56 242.02,59.48 390.06,303.93 330.57,545.95 -59.47,242.05 -303.92,390.04 -545.95,330.59z"/>
    <path class="fil13" d="M20043.16 10839.61c98.14,183.96 326.84,253.56 510.82,155.42 183.96,-98.14 253.56,-326.84 155.42,-510.82 -98.14,-183.96 -326.84,-253.56 -510.82,-155.42 -183.96,98.14 -253.56,326.84 -155.42,510.82z"/>
    <path class="fil17" d="M25679.4 15111.01c-114.99,-208.32 -443.54,-107.92 -826.85,494.43 -383.32,602.35 -539.86,1304.8 -447.22,1560.64 92.65,255.8 1332.48,565.82 1332.48,565.82l255.54 -647.96 -313.96 -1972.93z"/>
    <path class="fil13" d="M25679.4 15111.04c-114.99,-208.34 -443.54,-107.92 -826.87,494.42 -383.32,602.35 -539.84,1304.8 -447.22,1560.61 92.67,255.81 1332.49,565.85 1332.49,565.85l255.54 -647.98 -313.95 -1972.9z"/>
    <path class="fil8 str2" d="M26203.8 16371.97l-711.23 -1556.18c0,0 -463.35,-663.22 -554.64,-916.08 -91.29,-252.86 -1110.64,-449.51 -1340.81,-449.51 -230.19,0 -473.69,411.32 -473.69,411.32l478.88 0.28c0,0 178.59,187.76 201.05,300.15 22.48,112.37 -633.08,671.15 -726.75,724.23 -93.65,53.08 -340.76,135.48 -601.18,328.41 -260.41,192.94 -847.27,343.42 -956.55,516.35 -109.27,172.95 -32.05,205.65 46.4,245.48 78.47,39.84 209.57,49.22 209.57,49.22 0,0 -46.82,196.65 0,299.69 46.83,103 319.72,93.64 319.72,93.64 0,0 12.82,143 146.24,165.14 133.42,22.16 234.61,62.19 234.61,62.19 0,0 563.72,95.37 816.59,41.72 252.86,-53.65 1020.13,-462.32 1207.77,-445.3 187.65,17.04 706.23,1220.77 706.23,1220.77 0,0 885.41,-150 997.8,-1091.5z"/>
    <path class="fil2 str0" d="M21774.85 16025.63c0,0 736.22,-159.22 784.88,-215.42 48.62,-56.18 563.69,-216.26 563.69,-216.26"/>
    <path class="fil2 str0" d="M22094.56 16418.95c0,0 413.4,-84.29 557.25,-103.02 143.85,-18.72 733.84,-290.3 733.84,-290.3"/>
    <path class="fil2 str0" d="M22475.42 16646.28c0,0 582.47,-49.39 704.22,-105.57 121.74,-56.21 477.61,-168.59 477.61,-168.59"/>
    <path class="fil0" d="M29694.73 17631.5l1386.17 -1945.29c-864.16,569.59 -1386.17,1945.29 -1386.17,1945.29z"/>
    <path class="fil2 str0" d="M31080.91 15686.22c-864.16,569.59 -1386.17,1945.29 -1386.17,1945.29"/>
    <line class="fil2 str0" x1="29694.73" y1="17631.5" x2="28345.71" y2= "20140.71" />
    <path class="fil0" d="M26889.97 17312.08l1455.74 2828.63c0,0 -1134.38,-2792.89 -1455.74,-2828.63z"/>
    <path class="fil2 str0" d="M28345.71 20140.71c0,0 -1134.38,-2792.89 -1455.74,-2828.63"/>
    <line class="fil2 str0" x1="26889.97" y1="17312.08" x2="25679.4" y2= "15111.01" />
    <polyline class="fil2 str0" points="24405.33,17166.08 24782.11,18206.48 24875.93,18700.81 "/>
    <path class="fil5 str9" d="M32577.8 19040.2l-7701.87 -339.39c0,0 1591.26,4773.9 2111.48,5069.41 520.21,295.5 1703.79,428.05 2707.33,-306.85 1003.5,-734.88 2720.5,-3514.01 2883.06,-4423.17z"/>
    <path class="fil2 str0" d="M26402.92 17642.32c43.68,-65.39 83.92,-133.05 120.84,-202.46"/>
    <path class="fil2 str0" d="M25383.16 18294.79c346.42,-36.78 668.81,-217.7 892.47,-482.95"/>
    <path class="fil2 str0" d="M24782.11 18206.48c134.35,56.55 278.22,88.63 423.89,94.35"/>
    <path class="fil2 str0" d="M28699.58 21247.1c5.64,114.67 -1.65,230.28 -27.6,342.27"/>
    <path class="fil2 str0" d="M28345.71 20140.71c158.26,276 277.4,585.77 330.84,899.53"/>
    <path class="fil2 str0" d="M29091.8 20590.04c0,0 -245.3,-307.26 -524.94,-449.33"/>
    <path class="fil2 str0" d="M31224.33 16948.31c0,0 -758.98,-101.5 -1361.3,592.78"/>
    <path class="fil2 str0" d="M32027.01 19071.02c-145.54,20.55 -294.23,-1.81 -425.39,-69"/>
    <path class="fil2 str0" d="M32938.37 18053.31c-119.47,576.07 -440.95,868.34 -721.17,969.89"/>
    <path class="fil2 str0" d="M29360.12 14779.01c0,0 -1260.02,292.84 -1962.03,-176.59"/>
    <path class="fil2 str0" d="M24841.41 22489.25c0,0 686.5,1938.48 2274.53,2267.05"/>
    <path class="fil2 str0" d="M29430.81 25176.12c-81.73,61.58 -167.34,118.05 -254.42,171.79"/>
    <line class="fil2 str0" x1="20669.13" y1="1699.62" x2="20669.13" y2= "3403.78" />
    <line class="fil2 str0" x1="20669.13" y1="677.1" x2="20669.13" y2= "1358.79" />
    <line class="fil2 str0" x1="20669.13" y1="40.12" x2="20669.13" y2= "404.73" />
    <polyline class="fil2 str0" points="20347.3,3204.59 20669.13,3602.97 20990.98,3204.59 "/>
    <line class="fil2 str0" x1="21521.06" y1="10233.07" x2="21521.06" y2= "11937.23" />
    <line class="fil2 str0" x1="21521.06" y1="9210.56" x2="21521.06" y2= "9892.21" />
    <line class="fil2 str0" x1="21521.06" y1="8573.56" x2="21521.06" y2= "8938.19" />
    <polyline class="fil2 str0" points="21199.23,11738.03 21521.06,12136.42 21842.88,11738.03 "/>
    <line class="fil2 str0" x1="23204.47" y1="5104.33" x2="23204.47" y2= "6808.49" />
    <line class="fil2 str0" x1="23204.47" y1="4081.85" x2="23204.47" y2= "4763.5" />
    <line class="fil2 str0" x1="23204.47" y1="3444.85" x2="23204.47" y2= "3809.48" />
    <polyline class="fil2 str0" points="22882.64,6609.32 23204.47,7007.69 23526.3,6609.32 "/>
    <path class="fil3" d="M8373.07 23878.28c-26.78,1069.77 502.76,983.42 502.76,983.42 32.81,-88.36 108.46,-210.21 199.47,-351.47 277.18,-426.43 701.59,-1024.23 542.26,-1378.38 -72.29,-160.66 -207.53,-384.93 -354.12,-610.52 -283.86,-435.13 -609.87,-874.96 -609.87,-874.96l1413.86 -234.3c0,0 1006.84,416.38 1801.46,464.58 20.77,1.36 41.51,2.01 61.58,2.01 725.69,14.06 608.53,-554.95 608.53,-738.38 0,-78.32 -196.15,-221.59 -425.75,-362.82 -327.36,-200.85 -724.33,-398.34 -724.33,-398.34l214.89 -445.16c149.27,26.78 273.11,32.13 375.54,20.07 550.29,-60.24 474.64,-601.81 385.6,-838.12 -25.43,-67.62 -151.98,-170.04 -330.7,-287.87 -565.68,-372.88 -1648.84,-892.37 -1648.84,-892.37l-1588.57 0 -1563.13 4267.04c0,0 1165.49,605.82 1139.37,1675.59z"/>
    <path class="fil18" d="M8373.08 23878.26c-26.79,1069.78 502.77,983.43 502.77,983.43 32.8,-88.36 108.45,-210.18 199.46,-351.47 277.15,-426.41 701.59,-1024.23 542.25,-1378.36 -72.29,-160.66 -207.53,-384.94 -354.11,-610.54 -283.87,-435.13 -609.87,-874.95 -609.87,-874.95l1413.85 -234.31c0,0 1006.84,416.37 1801.47,464.58 20.78,1.36 41.51,2.01 61.59,2.01 725.68,14.08 608.51,-554.95 608.51,-738.38 0,-78.34 -196.15,-221.6 -425.76,-362.81 -327.35,-200.87 -724.31,-398.37 -724.31,-398.37l214.86 -445.16c149.27,26.79 273.12,32.16 375.55,20.06 550.29,-60.24 474.65,-601.82 385.6,-838.11 -25.41,-67.61 -151.99,-170.04 -330.71,-287.87 -565.66,-372.89 -1648.83,-892.37 -1648.83,-892.37l-1588.59 0 -1563.12 4267.05c0,0 1165.48,605.82 1139.37,1675.57z"/>
    <path class="fil18" d="M8373.08 23878.26c-26.79,1069.78 502.77,983.43 502.77,983.43 32.8,-88.36 108.45,-210.18 199.46,-351.47 -18.73,-99.06 -30.79,-206.18 -28.77,-311.27 6.69,-366.19 307.28,-1067.08 307.28,-1067.08l-307.28 -486c44.84,-46.2 121.83,-87.72 216.91,-124.54 -283.87,-435.13 -609.87,-874.95 -609.87,-874.95l1413.85 -234.31c0,0 1006.84,416.37 1801.47,464.58 20.78,1.36 41.51,2.01 61.59,2.01 -46.18,-398.31 111.11,-900.39 182.75,-1101.19 -327.35,-200.87 -724.31,-398.37 -724.31,-398.37l214.86 -445.16c149.27,26.79 273.12,32.16 375.55,20.06 -72.29,-347.39 -3.36,-829.42 54.89,-1125.97 -565.66,-372.89 -1648.83,-892.37 -1648.83,-892.37l-1588.59 0 -1563.12 4267.05c0,0 1165.48,605.82 1139.37,1675.57z"/>
    <line class="fil2 str0" x1="8796.51" y1="17935.57" x2="10385.51" y2= "17935.57" />
    <path class="fil2 str0" d="M10385.51 17935.57c0,0 1873.52,898.92 1979.44,1180 105.94,281.07 192.18,989.79 -761.19,818.56"/>
    <line class="fil2 str0" x1="11603.76" y1="19934.13" x2="11388.94" y2= "20379.02" />
    <path class="fil2 str0" d="M11388.94 20379.02c0,0 1150.01,571.76 1150.01,761.03 0,189.3 124.12,784.17 -670.37,736.4 -794.51,-47.83 -1800.89,-464.61 -1800.89,-464.61"/>
    <line class="fil2 str0" x1="10067.7" y1="21411.83" x2="8653.73" y2= "21646.06" />
    <path class="fil2 str0" d="M8653.73 21646.06c0,0 751.9,1014.31 963.77,1485.63 211.85,471.3 -609.13,1373.77 -741.52,1730.29 0,0 -529.69,85.87 -503.21,-983.81 26.5,-1069.66 -1138.76,-1675.67 -1138.76,-1675.67"/>
    <path class="fil2 str0" d="M9173.22 22940.92c0,0 -398.22,-222.98 -615.07,190.77"/>
    <path class="fil5 str2" d="M14040.06 23375.57l-7872.66 0c-420.17,0 -760.8,-340.62 -760.8,-760.77l0 -14759.66c0,-420.15 340.62,-760.77 760.8,-760.77l7872.66 0c420.15,0 760.77,340.62 760.77,760.77l0 14759.66c0,420.15 -340.62,760.77 -760.77,760.77z"/>
    <path class="fil9" d="M14509.64 7754.89l0 15002.14c0,187.47 -151.94,339.41 -339.41,339.41l-8133.03 0c-187.43,0 -339.41,-151.94 -339.41,-339.41l0 -15002.14c0,-187.46 151.98,-339.41 339.41,-339.41l1807.12 0c118.96,0 225.38,73.92 266.9,185.41l76.79 206.22c41.52,111.49 147.95,185.44 266.9,185.44l3297.61 0c118.96,0 225.38,-73.95 266.9,-185.44l76.79 -206.22c41.52,-111.49 147.95,-185.41 266.9,-185.41l1807.12 0c187.47,0 339.41,151.95 339.41,339.41z"/>
    <path class="fil5 str2" d="M11294.95 19391.43l-2382.45 0c-446.11,0 -807.74,-361.62 -807.74,-807.74 0,-446.1 361.63,-807.74 807.74,-807.74l2382.45 0c446.1,0 807.74,361.64 807.74,807.74 0,446.12 -361.64,807.74 -807.74,807.74z"/>
    <path class="fil3 str2" d="M9325.81 7584.59c0,77.54 -62.86,140.4 -140.4,140.4 -77.53,0 -140.4,-62.86 -140.4,-140.4 0,-77.56 62.87,-140.4 140.4,-140.4 77.54,0 140.4,62.84 140.4,140.4z"/>
    <path class="fil3 str2" d="M11162.42 7584.59c0,48.62 -39.4,88.01 -88.01,88.01 -48.62,0 -88.01,-39.4 -88.01,-88.01 0,-48.62 39.4,-88.01 88.01,-88.01 48.62,0 88.01,39.4 88.01,88.01z"/>
    <path class="fil3 str2" d="M10662.52 7634.25l-1052.74 0c-27.43,0 -49.66,-22.23 -49.66,-49.66 0,-27.43 22.23,-49.66 49.66,-49.66l1052.74 0c27.4,0 49.64,22.23 49.64,49.66 0,27.43 -22.24,49.66 -49.64,49.66z"/>
    <path class="fil3 str2" d="M13049 16950.78l-5890.58 0c-566.47,0 -1025.69,-459.23 -1025.69,-1025.7l0 -6054.85c0,-566.47 459.22,-1025.7 1025.69,-1025.7l5890.58 0c566.47,0 1025.7,459.23 1025.7,1025.7l0 6054.85c0,566.47 -459.23,1025.7 -1025.7,1025.7z"/>
    <line class="fil2 str0" x1="9302.3" y1="12274.26" x2="9302.3" y2= "11055.87" />
    <line class="fil2 str0" x1="9302.3" y1="13005.31" x2="9302.3" y2= "12517.95" />
    <line class="fil2 str0" x1="9302.3" y1="13460.71" x2="9302.3" y2= "13200.03" />
    <polyline class="fil2 str0" points="9532.39,11198.28 9302.3,10913.47 9072.21,11198.28 "/>
    <line class="fil2 str0" x1="10905.13" y1="11822.46" x2="10905.13" y2= "10604.08" />
    <line class="fil2 str0" x1="10905.13" y1="12553.51" x2="10905.13" y2= "12066.15" />
    <line class="fil2 str0" x1="10905.13" y1="13008.91" x2="10905.13" y2= "12748.23" />
    <polyline class="fil2 str0" points="11135.24,10746.48 10905.13,10461.67 10675.04,10746.48 "/>
    <line class="fil2 str0" x1="10067.17" y1="11004.25" x2="10067.17" y2= "9785.87" />
    <line class="fil2 str0" x1="10067.17" y1="11735.29" x2="10067.17" y2= "11247.94" />
    <line class="fil2 str0" x1="10067.17" y1="12190.7" x2="10067.17" y2= "11930.01" />
    <polyline class="fil2 str0" points="10297.26,9928.29 10067.17,9643.47 9837.08,9928.29 "/>
    <path class="fil5 str2" d="M11378.02 12714.75c0,703.77 -570.52,1274.29 -1274.29,1274.29 -703.78,0 -1274.3,-570.52 -1274.3,-1274.29 0,-703.78 570.52,-1274.3 1274.3,-1274.3 703.77,0 1274.29,570.52 1274.29,1274.3z"/>
    <path class="fil9" d="M9373.6 14832.89c63.58,0 77.78,-30.7 90.51,-65.81l55.39 0 0 523.77 -82.31 0 0 -399.57 -63.58 0 0 -58.39z"/>
    <path class="fil9" d="M9612.51 14892.78c0,-83.83 44.15,-131.72 124.96,-131.72 80.82,0 124.99,47.9 124.99,131.72l0 272.37c0,83.77 -44.17,131.67 -124.99,131.67 -80.82,0 -124.96,-47.9 -124.96,-131.67l0 -272.37zm82.33 277.58l0 0c0,37.42 16.44,51.67 42.63,51.67 26.19,0 42.63,-14.25 42.63,-51.67l0 -282.85c0,-37.42 -16.44,-51.6 -42.63,-51.6 -26.19,0 -42.63,14.18 -42.63,51.6l0 282.85z"/>
    <path class="fil9" d="M9909.03 14892.78c0,-83.83 44.15,-131.72 124.96,-131.72 80.82,0 124.96,47.9 124.96,131.72l0 272.37c0,83.77 -44.15,131.67 -124.96,131.67 -80.82,0 -124.96,-47.9 -124.96,-131.67l0 -272.37zm82.33 277.58l0 0c0,37.42 16.44,51.67 42.63,51.67 26.19,0 42.63,-14.25 42.63,-51.67l0 -282.85c0,-37.42 -16.44,-51.6 -42.63,-51.6 -26.19,0 -42.63,14.18 -42.63,51.6l0 282.85z"/>
    <path class="fil9" d="M10205.56 14892.78c0,-83.83 44.17,-131.72 125,-131.72 80.82,0 124.96,47.9 124.96,131.72l0 272.37c0,83.77 -44.15,131.67 -124.96,131.67 -80.83,0 -125,-47.9 -125,-131.67l0 -272.37zm82.35 277.58l0 0c0,37.42 16.45,51.67 42.64,51.67 26.19,0 42.63,-14.25 42.63,-51.67l0 -282.85c0,-37.42 -16.44,-51.6 -42.63,-51.6 -26.19,0 -42.64,14.18 -42.64,51.6l0 282.85z"/>
    <polygon class="fil9" points="10846.38,15211.51 10846.38,15290.86 10767.05,15290.86 10767.05,15211.51 "/>
    <path class="fil9" d="M10888.36 14892.78c0,-83.83 44.14,-131.72 124.96,-131.72 80.82,0 124.99,47.9 124.99,131.72l0 272.37c0,83.77 -44.17,131.67 -124.99,131.67 -80.83,0 -124.96,-47.9 -124.96,-131.67l0 -272.37zm82.32 277.58l0 0c0,37.42 16.45,51.67 42.64,51.67 26.19,0 42.63,-14.25 42.63,-51.67l0 -282.85c0,-37.42 -16.44,-51.6 -42.63,-51.6 -26.19,0 -42.64,14.18 -42.64,51.6l0 282.85z"/>
    <path class="fil9" d="M11184.89 14892.78c0,-83.83 44.17,-131.72 124.96,-131.72 80.83,0 124.99,47.9 124.99,131.72l0 272.37c0,83.77 -44.16,131.67 -124.99,131.67 -80.79,0 -124.96,-47.9 -124.96,-131.67l0 -272.37zm82.35 277.58l0 0c0,37.42 16.44,51.67 42.61,51.67 26.19,0 42.66,-14.25 42.66,-51.67l0 -282.85c0,-37.42 -16.47,-51.6 -42.66,-51.6 -26.17,0 -42.61,14.18 -42.61,51.6l0 282.85z"/>
    <polygon class="fil9" points="8657.71,15775.53 8740,15775.53 8740,16299.3 8657.71,16299.3 "/>
    <path class="fil9" d="M8799.98 15775.53l130.17 0c82.33,0 122.73,45.66 122.73,129.43l0 264.88c0,83.83 -40.4,129.45 -122.73,129.45l-130.17 0 0 -523.77zm82.29 74.81l0 0 0 374.13 46.4 0c26.19,0 41.92,-13.44 41.92,-50.85l0 -272.37c0,-37.42 -15.73,-50.91 -41.92,-50.91l-46.4 0z"/>
    <polygon class="fil9" points="9177.34,16219.98 9177.34,16299.3 9098,16299.3 9098,16219.98 "/>
    <path class="fil9" d="M9357.73 15844.36c-26.19,0 -42.63,14.2 -42.63,51.62l0 56.12 -77.83 0 0 -50.85c0,-83.83 41.9,-131.72 122.73,-131.72 80.82,0 122.67,47.9 122.67,131.72 0,69.59 -25.42,125.68 -101.74,207.27 -48.62,52.35 -62.1,77.04 -62.1,104.75 0,3.72 0,7.47 0.72,11.19l155.66 0 0 74.83 -237.94 0 0 -64.33c0,-58.39 20.95,-102.52 82.28,-166.88 62.9,-66.59 80.83,-107.73 80.83,-163.89 0,-47.12 -16.45,-59.84 -42.64,-59.84z"/>
    <path class="fil9" d="M9584.71 15841.36c63.6,0 77.81,-30.69 90.53,-65.83l55.39 0 0 523.77 -82.31 0 0 -399.55 -63.6 0 0 -58.39z"/>
    <path class="fil9" d="M9948.56 16305.29c-83.05,0 -128.71,-47.9 -128.71,-131.67l0 -41.17c0,-50.12 14.97,-88.32 50.89,-108.47l0 -1.54c-34.41,-18.67 -50.89,-53.1 -50.89,-104.75l0 -16.44c0,-83.83 45.66,-131.72 128.71,-131.72 83.05,0 128.71,47.9 128.71,131.72l0 16.44c0,51.66 -17.21,86.08 -50.89,104.75l0 1.54c35.92,20.15 50.89,58.35 50.89,108.47l0 41.17c0,83.77 -45.66,131.67 -128.71,131.67zm-46.4 -371.88l0 0c0,41.9 19.44,55.39 46.4,55.39 26.19,0 46.4,-13.48 46.4,-55.39l0 -29.2c0,-47.12 -20.21,-59.84 -46.4,-59.84 -26.19,0 -46.4,12.72 -46.4,59.84l0 29.2zm46.4 297.07l0 0c26.19,0 45.64,-12.75 46.4,-59.11l0 -48.64c0,-41.17 -17.21,-59.12 -46.4,-59.12 -29.2,0 -46.4,17.95 -46.4,59.12l0 48.64c0,46.36 20.21,59.11 46.4,59.11z"/>
    <path class="fil9" d="M10177.76 15841.36c63.62,0 77.82,-30.69 90.53,-65.83l55.4 0 0 523.77 -82.31 0 0 -399.55 -63.62 0 0 -58.39z"/>
    <path class="fil9" d="M10665.08 16169.13c0,88.26 -40.37,136.16 -125.69,136.16 -80.82,0 -122.73,-47.9 -122.73,-131.67l0 -13.48 77.84 0 0 18.69c0,37.42 16.46,51.65 42.63,51.65 29.2,0 45.66,-14.23 45.66,-64.38l0 -95 -1.49 0c-14.25,29.92 -38.19,45.64 -74.83,45.64 -60.61,0 -91.29,-42.69 -91.29,-119.73l0 -95.76c0,-83.83 44.17,-131.72 124.99,-131.72 80.77,0 124.92,47.9 124.92,131.72l0 267.88zm-82.29 -178.84l0 0 0 -94.3c0,-37.42 -16.46,-50.85 -42.63,-50.85 -26.19,0 -42.68,13.43 -42.68,50.85l0 94.3c0,37.41 16.48,51.61 42.68,51.61 26.17,0 42.63,-14.2 42.63,-51.61z"/>
    <path class="fil9" d="M10793.99 16130.21l0 48.62c0,37.42 16.49,50.88 42.65,50.88 26.21,0 42.66,-13.46 42.66,-50.88l0 -115.23c0,-37.41 -16.46,-51.61 -42.66,-51.61 -26.16,0 -42.65,14.2 -42.65,51.61l0 15.72 -77.81 0 14.97 -303.79 216.96 0 0 74.81 -143.67 0 -6.73 124.96 1.52 0c14.97,-24.7 38.14,-38.19 71.08,-38.19 60.58,0 91.27,42.69 91.27,119.73l0 116.77c0,83.77 -41.9,131.67 -122.67,131.67 -80.82,0 -122.73,-47.9 -122.73,-131.67l0 -43.41 77.81 0z"/>
    <path class="fil9" d="M11011.26 15905.74c0,-88.32 40.37,-136.21 125.68,-136.21 80.82,0 122.73,47.9 122.73,131.72l0 13.47 -77.84 0 0 -18.74c0,-37.42 -16.46,-51.62 -42.65,-51.62 -29.17,0 -45.63,14.2 -45.63,64.33l0 95.08 1.48 0c14.26,-29.92 38.19,-45.66 74.84,-45.66 60.61,0 91.29,42.63 91.29,119.72l0 95.79c0,83.77 -44.17,131.67 -124.99,131.67 -80.82,0 -124.92,-47.9 -124.92,-131.67l0 -267.88zm82.29 178.82l0 0 0 94.27c0,37.42 16.46,50.88 42.63,50.88 26.19,0 42.68,-13.46 42.68,-50.88l0 -94.27c0,-37.4 -16.48,-51.65 -42.68,-51.65 -26.17,0 -42.63,14.25 -42.63,51.65z"/>
    <polygon class="fil9" points="11554.65,15775.53 11554.65,15847.37 11433.46,16299.3 11351.15,16299.3 11471.6,15850.34 11307.78,15850.34 11307.78,15775.53 "/>
    <polygon class="fil9" points="9999.41,15422.25 10095.76,15422.25 10095.76,15450.56 10063.19,15450.56 10063.19,15620.53 10031.98,15620.53 10031.98,15450.56 9999.41,15450.56 "/>
    <path class="fil9" d="M10106.82 15469.84c0,-31.73 16.77,-49.85 47.34,-49.85 30.55,0 47.31,18.12 47.31,49.85l0 103.13c0,31.7 -16.76,49.81 -47.31,49.81 -30.56,0 -47.34,-18.11 -47.34,-49.81l0 -103.13zm31.2 105.08l0 0c0,14.16 6.2,19.54 16.13,19.54 9.95,0 16.12,-5.38 16.12,-19.54l0 -107.08c0,-14.16 -6.18,-19.54 -16.12,-19.54 -9.94,0 -16.13,5.38 -16.13,19.54l0 107.08z"/>
    <path class="fil9" d="M9444 18150.57c117.65,0 178.07,70.34 178.07,193.46l0 24.15 -114.3 0 0 -31.85c0,-54.93 -21.98,-75.79 -60.45,-75.79 -38.49,0 -60.46,20.86 -60.46,75.79 0,56.07 24.18,97.86 103.31,167.11 101.15,89.04 133.05,152.79 133.05,240.71 0,123.12 -61.56,193.49 -180.29,193.49 -118.72,0 -180.28,-70.36 -180.28,-193.49l0 -47.25 114.34 0 0 54.95c0,54.95 24.2,74.76 62.66,74.76 38.47,0 62.64,-19.82 62.64,-74.76 0,-56.07 -24.17,-97.86 -103.32,-167.09 -101.14,-89.04 -132.99,-152.81 -132.99,-240.73 0,-123.12 60.44,-193.46 178.03,-193.46z"/>
    <polygon class="fil9" points="9813.21,18483.62 9979.16,18483.62 9979.16,18593.59 9813.21,18593.59 9813.21,18818.9 10022.05,18818.9 10022.05,18928.81 9692.28,18928.81 9692.28,18159.37 10022.05,18159.37 10022.05,18269.28 9813.21,18269.28 "/>
    <polygon class="fil9" points="10206.52,18371.56 10204.34,18371.56 10204.34,18928.81 10095.53,18928.81 10095.53,18159.37 10247.2,18159.37 10369.21,18619.91 10371.42,18619.91 10371.42,18159.37 10479.15,18159.37 10479.15,18928.81 10354.94,18928.81 "/>
    <path class="fil9" d="M10565.75 18159.37l191.25 0c120.93,0 180.28,67.06 180.28,190.12l0 389.14c0,123.12 -59.35,190.18 -180.28,190.18l-191.25 0 0 -769.44zm120.91 109.91l0 0 0 549.63 68.15 0c38.47,0 61.56,-19.81 61.56,-74.75l0 -400.12c0,-54.95 -23.1,-74.75 -61.56,-74.75l-68.15 0z"/>
    <path class="fil2 str0" d="M4691.58 16612.89c0,0 529.69,163.69 715.04,624.03"/>
    <path class="fil8" d="M2291.43 31203.73c59.15,-1023.34 97.98,-2068.8 149.07,-2910.43 105.92,-1745.17 185.38,-2915.92 344.27,-4107.65 158.92,-1191.76 132.42,-2991.85 211.85,-3620.74 79.47,-628.89 316.25,-761.75 503.21,-1508.69 186.95,-746.95 355.01,-2234.2 662.08,-2443.33 307.06,-209.14 1244.69,-601.77 1244.69,-601.77l0 4213.05c556.16,854.96 1218.25,1066.58 1218.25,1066.58 423.72,-1226.42 370.77,-1713.21 794.49,-2163.43 423.74,-450.22 729.02,-1038.71 1394.33,-792.86 316.8,117.07 486,236.7 327.09,1310.71 -158.89,1074.01 -476.69,1411.51 -476.69,1411.51 -52.97,366.85 26.47,1434.01 158.89,1979.94 132.43,545.93 -370.75,1996.49 -609.11,2923.38 -238.35,926.93 -1509.55,2805.28 -1509.55,2805.28 0,0 -52.97,1034.83 52.97,2120.64 9.71,99.68 21.93,206.39 36.04,317.8l84.01 2884.32 -4585.9 -86.48 0 -2797.85z"/>
    <path class="fil18" d="M9046.55 18650.59c-25.43,-91.67 -21.43,-151.93 0,-190.77 -62.25,-57.54 -141.24,-91.72 -232.97,-125.2 -665.41,-246.35 -970.68,342.77 -1394.44,792.64 -39.51,42.18 -74.99,84.34 -106.45,127.87 383.6,-144.61 886.34,-141.91 1088.52,138.56 254.37,351.48 772.53,-283.82 645.34,-743.1z"/>
    <path class="fil18" d="M6172.62 30170.37l-209.53 785.26c0,0 295.24,-289.22 736.4,-990.79 -21.43,-684.85 4.68,-1199.63 4.68,-1199.63 0,0 1271.26,-1878.46 1509.59,-2804.96 238.32,-927.19 741.72,-2377.84 609.18,-2923.44 -132.53,-546.28 -211.53,-1613.35 -158.66,-1980.23 0,0 66.3,-70.96 153.98,-251.04 -57.56,-55.57 -124.53,-101.07 -199.47,-117.81 0,0 -340.11,805.34 -257.75,1865.05 82.33,1059.07 -99.06,1147.43 -449.86,2524.46 -350.81,1377.03 -933.21,2936.17 -1207,3216.03 -273.81,279.8 -392.29,1539.69 -531.55,1877.09z"/>
    <path class="fil18" d="M5671.22 20892.57c0,0 -417.74,64.95 -585.77,164.01 0,0 815.37,212.88 868.28,439.83 52.86,226.27 227.62,462.59 537.55,185.45 0,0 16.07,-173.4 48.22,-425.09 -196.84,-87.73 -696.91,-362.87 -1132.71,-1032.3l0 -4213.4c0,0 -463.25,194.13 -845.49,381.56 283.16,37.48 573.04,124.51 686.15,315.98 0,0 -85.67,352.77 -476.64,528.16 -301.24,135.21 0,2408.65 0,2408.65 0,0 -494.06,121.85 -652.68,579.05 0,0 812.02,83.02 1147.41,340.74 335.39,257.08 405.68,327.36 405.68,327.36z"/>
    <path class="fil18" d="M2440.52 28293.28c-41.52,681.48 -74.32,1496.84 -116.49,2326.29 104.43,-1576.53 421.05,-4282.43 421.05,-4282.43 0,0 283.18,1000.83 304.61,894.38 62.93,-313.31 -132.53,-2083.97 -115.15,-2714.58 8.06,-285.86 -12.7,-1018.92 -38.15,-1733.86 -22.75,491.37 -55.55,984.07 -111.78,1402.48 -158.66,1191.63 -238.34,2362.47 -344.08,4107.73z"/>
    <line class="fil2 str0" x1="2291.43" y1="34196.53" x2="2291.43" y2= "31203.73" />
    <path class="fil2 str0" d="M2291.43 31203.73c59.15,-1023.34 97.98,-2068.8 149.07,-2910.43 105.92,-1745.17 185.38,-2915.92 344.27,-4107.65 158.92,-1191.76 132.42,-2991.85 211.85,-3620.74 79.47,-628.89 316.25,-761.75 503.21,-1508.69 186.95,-746.95 355.01,-2234.2 662.08,-2443.33 307.06,-209.14 1244.69,-601.77 1244.69,-601.77"/>
    <line class="fil2 str0" x1="5406.62" y1="16011.12" x2="5406.62" y2= "20224.18" />
    <path class="fil2 str0" d="M5406.62 20224.18c556.16,854.96 1218.25,1066.58 1218.25,1066.58 423.72,-1226.42 370.77,-1713.21 794.49,-2163.43 423.74,-450.22 729.02,-1038.71 1394.33,-792.86 316.8,117.07 486,236.7 327.09,1310.71 -158.89,1074.01 -476.69,1411.51 -476.69,1411.51 -52.97,366.85 26.47,1434.01 158.89,1979.94 132.43,545.93 -370.75,1996.49 -609.11,2923.38 -238.35,926.93 -1509.55,2805.28 -1509.55,2805.28 0,0 -52.97,1034.83 52.97,2120.64 9.71,99.68 21.93,206.39 36.04,317.8 0,0 42.73,1862.28 245.69,2992.8"/>
    <path class="fil2 str0" d="M6624.87 21290.76c0,0 -132.41,590.83 -397.24,723.25 -264.85,132.41 -645.89,0 -645.89,0"/>
    <path class="fil2 str0" d="M5406.62 20224.18c0,0 -264.8,-588.59 -1112.29,-78.14"/>
    <path class="fil2 str0" d="M5406.62 17845.76c0,0 -52.94,-312.21 -489.93,-391.68"/>
    <path class="fil2 str0" d="M6704.32 28765.29c-503.19,637.58 -407.51,1246.7 -601,1564.5 -193.49,317.81 -167.01,1456.59 -167.01,1456.59"/>
    <path class="fil2 str0" d="M3049.6 22645.64c0,0 0,1250.71 0,2216.34 0,965.64 185.39,1892.55 185.39,1892.55"/>
    <path class="fil2 str0" d="M8664.09 21056.69c0,0 0,-378.37 -105.94,-491.78"/>
    <path class="fil2 str0" d="M8372.77 19866.98c0,0 -234.59,-789.76 -923.16,-445.49"/>
    <path class="fil2 str0" d="M6250.89 21095.73c-511.31,10.88 -1029.63,-215.79 -1334.2,59.91"/>
    <path class="fil9" d="M2217.14 33330l-138.04 0 0 -3141.16 138.04 0c89.73,0 162.47,72.73 162.47,162.47l0 2816.21c0,89.73 -72.74,162.47 -162.47,162.47z"/>
    <path class="fil9" d="M2079.1 30595.78c0,0 2427.97,-634.66 4758.29,88.74 73.99,22.95 124.01,92.46 124.01,169.92l0 1490.38c0,55.73 -50.02,97.9 -104.9,88.04 -500.18,-90.11 -2700.05,-437.7 -4657.22,19.78l-120.18 -1856.86z"/>
    <path class="fil0 str2" d="M2184.64 30567.94l0 -335.8c0,-110.65 -89.71,-200.38 -200.38,-200.38l-272.19 0c-68.7,0 -131.95,37.49 -164.91,97.77l-239.88 438.41 0 2567.11 236.96 288.72c35.7,43.5 89.02,68.71 145.3,68.71l294.73 0c110.67,0 200.38,-89.72 200.38,-200.38l0 -2724.16z"/>
    <path class="fil0 str2" d="M2012.41 30402.37l554.27 -103.02c65.73,-12.23 126.42,38.23 126.42,105.1l0 319.9 -183.52 136.05 0 1039.86 183.52 0 0 542.4c0,62.58 -43.96,116.6 -105.26,129.29l-526.37 109c-78.99,16.35 -153.04,-43.97 -153.04,-124.59l0 -2028.85c0,-61.3 43.72,-113.88 103.98,-125.11z"/>
    <line class="fil2 str0" x1="2032.99" y1="32539.29" x2="2484.56" y2= "32436.03" />
    <path class="fil2 str0" d="M2484.56 32436.03c33.66,-7.71 57.53,-37.66 57.53,-72.2"/>
    <line class="fil2 str0" x1="2542.09" y1="32363.82" x2="2542.09" y2= "32024.78" />
    <polyline class="fil2 str0" points="2357.96,31883.99 2357.96,30771.03 2539.39,30632.93 2539.39,30424.42 "/>
    <line class="fil2 str0" x1="1624.11" y1="30234.87" x2="1624.11" y2= "33208.16" />
    <path class="fil3" d="M3817.5 31395.45c-44.87,0 -81.23,-36.34 -81.23,-81.24l0 -177.61c0,-44.87 36.37,-81.23 81.23,-81.23 44.87,0 81.23,36.37 81.23,81.23l0 177.61c0,44.9 -36.37,81.24 -81.23,81.24z"/>
    <path class="fil3" d="M5068.57 31428.51c-44.87,0 -81.24,-36.38 -81.24,-81.24l0 -177.63c0,-44.87 36.38,-81.23 81.24,-81.23 44.87,0 81.23,36.37 81.23,81.23l0 177.63c0,44.87 -36.37,81.24 -81.23,81.24z"/>
    <path class="fil3" d="M6181.5 31565.51c-44.84,0 -81.21,-36.37 -81.21,-81.24l0 -177.63c0,-44.87 36.37,-81.23 81.21,-81.23 44.87,0 81.24,36.37 81.24,81.23l0 177.63c0,44.88 -36.38,81.24 -81.24,81.24z"/>
    <path class="fil19" d="M-6307.7 10720.43l43.63 -1002.81 -630.23 -27.42 24.63 -566.06 630.22 27.42 28.33 -650.85 -630.23 -27.42 24.63 -566.07 630.22 27.43 30.69 -705.29 519.17 22.59 470.62 727.09 1091.98 47.52 30.69 -705.29 648.95 28.24 -30.69 705.29 630.23 27.42 -24.63 566.06 -630.22 -27.42 -28.33 650.85 630.23 27.43 -24.63 566.06 -630.22 -27.42 -43.64 1002.8 -519.15 -22.59 -667.29 -1033.73 -882.36 -38.4 -43.63 1002.81 -648.95 -28.24zm1198.26 -1519.7l-433.09 -670.93 -19.64 -0.85 -28.32 650.85 481.05 20.93zm755.44 32.87l227 9.87 28.32 -650.85 -689.62 -30 434.31 670.99z"/>
    <path class="fil9" d="M10494.1 14892.78c0,-83.83 44.17,-131.72 125,-131.72 80.82,0 124.96,47.9 124.96,131.72l0 272.37c0,83.77 -44.15,131.67 -124.96,131.67 -80.83,0 -125,-47.9 -125,-131.67l0 -272.37zm82.35 277.58l0 0c0,37.42 16.45,51.67 42.64,51.67 26.19,0 42.63,-14.25 42.63,-51.67l0 -282.85c0,-37.42 -16.44,-51.6 -42.63,-51.6 -26.19,0 -42.64,14.18 -42.64,51.6l0 282.85z"/>
    <path class="fil20" d="M8824.45 15307.19l-2.46 -157.86 -99.21 1.55 -1.39 -89.11 99.21 -1.55 -1.59 -102.45 -99.21 1.55 -1.39 -89.11 99.21 -1.55 -1.74 -111.02 81.73 -1.28 80.65 109.79 171.89 -2.68 -1.73 -111.02 102.16 -1.59 1.73 111.02 99.21 -1.55 1.39 89.11 -99.21 1.55 1.59 102.45 99.21 -1.55 1.39 89.11 -99.21 1.54 2.47 157.86 -81.73 1.28 -114.38 -156.11 -138.9 2.17 2.46 157.86 -102.16 1.59zm174.03 -249.75l-74.23 -101.32 -3.1 0.04 1.61 102.45 75.72 -1.18zm118.92 -1.85l35.74 -0.56 -1.61 -102.45 -108.56 1.7 74.43 101.32z"/>
    <path class="fil20" d="M9692.62 13252.42l-4.76 -305.12 -191.76 2.99 -2.69 -172.23 191.76 -3 -3.09 -198.03 -191.76 2.99 -2.69 -172.23 191.77 -3 -3.36 -214.59 157.97 -2.47 155.87 212.21 332.26 -5.18 -3.35 -214.6 197.46 -3.08 3.35 214.59 191.76 -3 2.69 172.24 -191.77 3 3.1 198.03 191.76 -3 2.68 172.24 -191.76 2.99 4.76 305.13 -157.96 2.46 -221.07 -301.74 -268.47 4.19 4.76 305.12 -197.46 3.09zm336.38 -482.73l-143.49 -195.84 -5.97 0.09 3.09 198.04 146.37 -2.29zm229.85 -3.59l69.07 -1.08 -3.09 -198.03 -209.83 3.28 143.85 195.83z"/>
    <path class="fil21" d="M20910.37 5940.92l156.01 -24.21 -15.21 -98.05 88.07 -13.66 15.21 98.05 101.25 -15.72 -15.21 -98.04 88.07 -13.66 15.21 98.04 109.72 -17.02 12.54 80.76 -97.62 95.02 26.36 169.89 109.73 -17.02 15.66 100.96 -109.73 17.02 15.21 98.05 -88.06 13.66 -15.21 -98.05 -101.26 15.72 15.21 98.04 -88.06 13.68 -15.21 -98.05 -156.02 24.21 -12.53 -80.77 138.85 -134.81 -21.31 -137.27 -156.01 24.21 -15.66 -100.96zm271.35 137.93l90.12 -87.5 -0.47 -3.07 -101.26 15.72 11.61 74.84zm18.24 117.52l5.48 35.32 101.25 -15.72 -16.64 -107.28 -90.09 87.68z"/>
    <path class="fil22" d="M23000.41 12883.22l-119.59 -114.33 -71.86 75.16 -67.5 -64.54 71.85 -75.15 -77.62 -74.2 -71.85 75.15 -67.5 -64.53 71.85 -75.16 -84.11 -80.41 59.19 -61.91 141.25 20.63 124.49 -130.22 -84.11 -80.4 73.99 -77.39 84.11 80.41 71.85 -75.16 67.5 64.54 -71.85 75.16 77.62 74.19 71.85 -75.15 67.5 64.54 -71.85 75.15 119.59 114.33 -59.19 61.91 -200.63 -29.55 -100.6 105.23 119.59 114.32 -73.98 77.39zm-58.27 -313.61l-130.22 -19.18 -2.23 2.34 77.62 74.2 54.84 -57.36zm86.13 -90.09l25.88 -27.07 -77.62 -74.2 -78.62 82.24 130.35 19.03z"/>
   </g>
  </g>
  <polygon class="fil23" points="-0,0 34236.65,0 34236.65,34236.65 -0,34236.65 "/>
 </g>
</svg>
