<?xml version="1.0" encoding="UTF-8"?>
<!DOCTYPE svg PUBLIC "-//W3C//DTD SVG 1.1//EN" "http://www.w3.org/Graphics/SVG/1.1/DTD/svg11.dtd">
<!-- Creator: CorelDRAW -->
<svg xmlns="http://www.w3.org/2000/svg" xml:space="preserve" width="304.932mm" height="304.932mm" version="1.1" style="shape-rendering:geometricPrecision; text-rendering:geometricPrecision; image-rendering:optimizeQuality; fill-rule:evenodd; clip-rule:evenodd"
viewBox="0 0 33413.1 33413.1"
 xmlns:xlink="http://www.w3.org/1999/xlink"
 xmlns:xodm="http://www.corel.com/coreldraw/odm/2003">
 <defs>
  <style type="text/css">
   <![CDATA[
    .str2 {stroke:#32AB62;stroke-width:8.35;stroke-miterlimit:2.61313;stroke-opacity:0.200000}
    .str3 {stroke:white;stroke-width:38.66;stroke-linecap:round;stroke-linejoin:round;stroke-miterlimit:10;stroke-opacity:0.200000}
    .str12 {stroke:black;stroke-width:28.99;stroke-miterlimit:2.61313}
    .str4 {stroke:#FFBD9C;stroke-width:8.35;stroke-miterlimit:2.61313}
    .str5 {stroke:black;stroke-width:38.66;stroke-linejoin:round;stroke-miterlimit:2.61313}
    .str1 {stroke:#263138;stroke-width:38.66;stroke-linejoin:round;stroke-miterlimit:2.61313}
    .str10 {stroke:#263138;stroke-width:115.96;stroke-linecap:round;stroke-linejoin:round;stroke-miterlimit:10}
    .str0 {stroke:#263138;stroke-width:38.66;stroke-linecap:round;stroke-linejoin:round;stroke-miterlimit:10}
    .str6 {stroke:#263138;stroke-width:38.66;stroke-linecap:round;stroke-linejoin:round;stroke-miterlimit:4}
    .str11 {stroke:white;stroke-width:38.66;stroke-linecap:round;stroke-linejoin:round;stroke-miterlimit:10}
    .str7 {stroke:#263138;stroke-width:38.66;stroke-linecap:round;stroke-linejoin:round;stroke-miterlimit:4;stroke-dasharray:236.332454 236.332454}
    .str8 {stroke:#263138;stroke-width:38.66;stroke-linecap:round;stroke-linejoin:round;stroke-miterlimit:4;stroke-dasharray:334.720302 334.720302}
    .str9 {stroke:#263138;stroke-width:38.66;stroke-linecap:round;stroke-linejoin:round;stroke-miterlimit:4;stroke-dasharray:263.430477 263.430477}
    .fil17 {fill:none}
    .fil0 {fill:none;fill-rule:nonzero}
    .fil12 {fill:none;fill-rule:nonzero}
    .fil15 {fill:#263138}
    .fil14 {fill:#32AB62}
    .fil16 {fill:white}
    .fil6 {fill:#263138;fill-rule:nonzero}
    .fil3 {fill:#32AB62;fill-rule:nonzero}
    .fil13 {fill:#757575;fill-rule:nonzero}
    .fil1 {fill:#91E2A8;fill-rule:nonzero}
    .fil8 {fill:#999999;fill-rule:nonzero}
    .fil7 {fill:#BFBFBF;fill-rule:nonzero}
    .fil10 {fill:#FFBD9C;fill-rule:nonzero}
    .fil4 {fill:white;fill-rule:nonzero}
    .fil5 {fill:black;fill-rule:nonzero;fill-opacity:0.200000}
    .fil9 {fill:#237744;fill-rule:nonzero;fill-opacity:0.200000}
    .fil11 {fill:black;fill-rule:nonzero;fill-opacity:0.400000}
    .fil2 {fill:white;fill-rule:nonzero;fill-opacity:0.701961}
   ]]>
  </style>
   <clipPath id="id0">
    <path d="M-0 0l33413.1 0 0 33413.1 -33413.1 0 0 -33413.1z"/>
   </clipPath>
 </defs>
 <g id="Layer_x0020_1">
  <metadata id="CorelCorpID_0Corel-Layer"/>
  <g>
  </g>
  <g style="clip-path:url(#id0)">
   <g>
    <path class="fil0 str0" d="M27744.11 12462.14c-775.39,22.17 -2813.59,3757.26 -2813.59,3757.26 -552.24,209.25 -288.74,692.58 -288.74,692.58 0,0 1294.66,1643.1 1539.92,1783.34 605.86,346.4 820.73,-260.04 820.73,-260.04 0,0 2547.83,-2312.63 2371.6,-4195.32 -176.22,-1882.72 -753.99,-1840.73 -753.99,-1840.73"/>
    <path class="fil1" d="M3458.92 31298.18c0,0 -8579.5,-8513.07 1285.76,-14788.07 9865.27,-6274.98 5807.85,-6133 6479.39,-10107.98 671.5,-3975.02 8698.67,-6731.73 11585.24,-1135.71 2886.53,5596.03 116.94,8470.82 5532.52,11830.42 5415.58,3359.72 6662.78,10491.72 2921.33,14201.34l-27804.24 0z"/>
    <path class="fil2" d="M3458.92 31298.18c0,0 -8579.5,-8513.07 1285.76,-14788.07 9865.27,-6274.98 5807.86,-6133 6479.39,-10107.99 671.5,-3975.02 8698.67,-6731.72 11585.23,-1135.7 2886.55,5596.04 116.96,8470.82 5532.53,11830.41 5415.58,3359.73 6662.79,10491.72 2921.32,14201.35l-27804.23 0z"/>
    <polyline class="fil0 str0" points="18063.39,8392.04 14672.97,8392.04 14672.97,5668.75 "/>
    <polygon class="fil0 str0" points="15280.53,7896.8 15009.24,7896.8 15009.24,8392.04 15280.53,8392.04 "/>
    <polygon class="fil0 str0" points="15844.2,7740.05 15572.9,7740.05 15572.9,8392.04 15844.2,8392.04 "/>
    <polygon class="fil0 str0" points="16407.9,7478.82 16136.55,7478.82 16136.55,8392.04 16407.9,8392.04 "/>
    <polygon class="fil0 str0" points="16971.53,7217.53 16700.24,7217.53 16700.24,8392.04 16971.53,8392.04 "/>
    <polygon class="fil0 str0" points="17535.15,6848.3 17263.95,6848.3 17263.95,8392.04 17535.15,8392.04 "/>
    <path class="fil0 str0" d="M14672.97 7914.49c0,0 2174.07,-463.25 3213.83,-1840.63"/>
    <polyline class="fil0 str0" points="17750.38,6030.97 17961.12,5972.61 17961.12,6204.69 "/>
    <path class="fil0 str0" d="M17264 4317.29c-95.96,-19.8 -193.52,-36.25 -292.48,-49.14"/>
    <path class="fil0 str0" d="M18125.95 9913c806.15,414.44 1921.79,446.77 1921.79,446.77 -561.87,-384.85 -947.15,-949.54 -1142.73,-1285.74 596.24,-513.91 963.63,-1212.81 963.63,-1983.5 0,-1190.27 -874.66,-2210.54 -2118.4,-2639.99"/>
    <path class="fil0 str0" d="M16434.99 9947.58c486.49,0 949.19,-84.72 1368.6,-236.61"/>
    <path class="fil0 str0" d="M13377.32 8391.93c487.52,791.4 1405.84,1368.75 2497.42,1517.79"/>
    <path class="fil0 str0" d="M13001.23 7090.53c0,153.71 14.57,304.59 42.66,451.7"/>
    <path class="fil0 str0" d="M16434.99 4233.43c-1524.69,0 -2817.24,826.85 -3265.4,1971.03"/>
    <path class="fil3 str1" d="M22382.48 11852.19c0,0 -1447.13,426.37 -1773.4,1119.45 -326.18,693.05 -978.49,2629.53 -978.49,2629.53 0,0 -611.53,1080.37 -611.53,1406.49 0,326.12 905,1536.83 1312.7,1862.94 407.71,326.12 1932.68,-1822.03 1932.68,-1822.03l118.03 -5196.37z"/>
    <path class="fil4 str1" d="M28925.7 21487c18.84,16.91 75.33,741.53 75.33,741.53 0,0 386.76,763.5 381.75,1931.37 -5.02,1167.9 371.72,7149.69 371.72,7149.69l-9248.86 0c0,0 642.56,-4484.34 1554.18,-6754.11 0,0 28.41,-1862.49 527.42,-2381.68 0,0 -216.47,-764.08 226.07,-858.25 442.5,-94.18 6112.4,171.45 6112.4,171.45z"/>
    <path class="fil0 str1" d="M28925.7 21487c18.84,16.91 75.33,741.53 75.33,741.53 0,0 386.76,763.5 381.75,1931.37 -5.02,1167.9 371.72,7149.69 371.72,7149.69l-9248.86 0c0,0 642.56,-4484.34 1554.18,-6754.11 0,0 28.41,-1862.49 527.42,-2381.68 0,0 -216.47,-764.08 226.07,-858.25 442.5,-94.18 6112.4,171.45 6112.4,171.45z"/>
    <path class="fil5" d="M29754.51 31309.59l-9248.86 0 0.47 -3.27 1.42 -9.68 2.31 -15.93 3.21 -22.05 4.16 -28 5.05 -33.82 5.93 -39.46 6.82 -44.94 0 -0.02 7.69 -50.26 0.02 0 8.56 -55.49 0 -0.01 9.37 -60.5 0.05 -0.01 10.23 -65.38 0.02 -0.01 11.07 -70.12 0.02 -0.03 11.91 -74.66 0.03 -0.03 12.72 -79.1 0.01 -0.03 13.55 -83.35 0.02 -0.03c223.53,-1367.71 755.99,-4315.85 1439.72,-6017.95 0,0 5.29,-354.14 52.74,-797.16 425.78,204.91 987.05,500.27 1143.78,702.98 262.97,339.06 -670.56,834.14 -670.56,834.14 0,0 257.68,304.43 670.56,262.15 413.66,-41.42 2041.14,-412.85 2041.14,-412.85 0,0 -608.01,371.43 -534.19,635.17 74.61,263.72 742.2,1122.69 1105.34,1333.65 363.18,210.94 -738.42,-210.97 -738.42,-210.97 0,0 1252.29,2023.79 2005.78,2428.41 753.46,404.64 2292.78,-847.63 2072.05,-951.63 -220.75,-103.97 -1115.87,-1322.34 -953.19,-1527.22 93.42,-118.36 647.17,192.79 1257.42,347.97 30.18,554.11 62.51,1121.33 93.42,1650.92l4.38 75.27 0.75 12.61 5.11 87.13 2.68 45.65 2.39 40.69 5.02 85.48 1 16.95 4.01 67.56 4.31 72.97 0.64 10.62 4.89 82.58 2.66 44.49 2.2 36.98 4.78 80.37 1.05 17.21 7.83 131.28 0.52 8.65 4.61 76.68 2.53 42.38 1.97 32.95 4.47 73.94 1.04 17 3.33 55.5 3.9 64.29 0.39 6.73 4.21 69.48 2.38 39.28 5.77 94.76 0.99 16.18 2.93 48.3 3.53 57.82 0.31 4.95 3.71 60.91 7.11 116.19 0.91 14.75 2.48 40.43 3.08 49.79 0.19 3.32 3.14 51.08 1.85 30.03 1.17 18.89 5.62 91.3 2.49 40.26 0.13 1.97 2.47 39.89 2.31 37.5 2.21 35.04 0.62 9.91 1.4 22.64 1.82 29.09 0.07 0.92 1.69 27.38 1.02 16.13 0.53 8.6 1.35 22.01 0.43 6.32 0.8 12.92 1 16.22 0.03 0.23 0.85 13.59 0.45 7.31 0.22 3.31 0.49 7.69 0.1 1.84 0.16 2.79 0.11 1.56z"/>
    <path class="fil6" d="M22784.89 21514.21c0,0 -56.51,351.57 0,650.98 0,0 974.07,713.82 2304.8,770.33 1330.71,56.52 3227.63,-301.39 3748.44,-602.77l0 -715.8 -6053.24 -102.73z"/>
    <path class="fil7 str1" d="M23632.53 21904.79c0,0 -113.01,597.47 0,823.53 113.04,226.03 1134.64,287.84 1134.64,287.84l-32.53 -850.97 -1102.11 -260.4z"/>
    <path class="fil8" d="M26980.85 22165.19l155.35 963.19c0,0 -28.12,-452.6 -155.35,-963.19z"/>
    <path class="fil0 str0" d="M27136.2 23128.38c0,0 -28.12,-452.6 -155.35,-963.19"/>
    <line class="fil0 str0" x1="26980.85" y1="22165.19" x2="26665.27" y2= "22173.8" />
    <path class="fil8" d="M26740.62 23128.38l-75.36 -954.58c0,0 169.55,582.33 75.36,954.58z"/>
    <path class="fil0 str0" d="M26665.27 22173.8c0,0 169.55,582.33 75.36,954.58"/>
    <path class="fil9 str2" d="M22303.45 15312.67l-39.23 1735.95c0,0 -504.86,712.03 -1011.89,1253.76 -18.81,-228.25 -41.42,-493.5 -68.56,-797.92 -125.85,-1406.71 351.85,-2536.9 323.24,-2620.52l796.44 428.73z"/>
    <path class="fil3" d="M25827.4 10647.79l-4108.77 1457.45c545.83,-253.05 914.18,-377.06 914.18,-377.06 39.06,-101.95 -54.61,-407.97 888.64,-896.96 943.18,-488.94 2305.96,-183.43 2305.96,-183.43z"/>
    <path class="fil0 str0" d="M21718.62 12105.24c545.83,-253.05 914.18,-377.06 914.18,-377.06 39.06,-101.95 -54.61,-407.97 888.64,-896.96 943.18,-488.94 2305.96,-183.43 2305.96,-183.43"/>
    <line class="fil0 str0" x1="25827.4" y1="10647.79" x2="26357.4" y2= "11300.07" />
    <g>
     <path class="fil3" d="M20812.9 13501.64l1717.68 -682.03 -0.41 -2.01 0.39 2.01 -171.62 68.15 23.12 -1017.84 238.16 -84.48c-43.35,227.71 -37.55,559.16 -27.45,771.74 6.88,54.08 15.97,107.88 27.84,159.59 0,0 189.72,-699.18 282.11,-708.31 92.42,-9.11 276.39,45.08 550.19,390.74 12.94,15.23 24.4,28.96 34.06,40.65l-152.9 60.72 3023.3 -1200.45c0,0 1834.62,730.65 2262.66,1099.14 428.09,368.52 782.9,8999.8 428.09,9309.21 -1010.72,881.51 -5298.03,1001.52 -6460.9,-165.83 -251.13,-252.1 -420.68,-2073.66 -905.13,-4776.96 0,0 -918.88,-2106.97 -869.21,-3264.02zm1716.86 -686.16c-1.08,-5.57 -2.11,-11.22 -3.14,-16.95 1.03,5.73 2.06,11.38 3.14,16.95zm-3.73 -20.21c-0.94,-5.36 -1.85,-10.79 -2.74,-16.29 0.89,5.5 1.8,10.94 2.74,16.29zm-3.41 -20.44c-1.03,-6.46 -2.02,-13.01 -2.96,-19.67 0.94,6.66 1.94,13.21 2.96,19.67zm-3.08 -20.45c-0.93,-6.55 -1.81,-13.2 -2.66,-19.94 0.83,6.74 1.73,13.39 2.66,19.94zm-2.96 -22.32c-0.87,-7 -1.7,-14.08 -2.48,-21.29 0.78,7.2 1.61,14.29 2.48,21.29zm-2.52 -21.66c-0.75,-6.98 -1.46,-14.09 -2.13,-21.27 0.67,7.2 1.38,14.29 2.13,21.27zm-2.45 -24.99c-0.59,-6.45 -1.13,-13.02 -1.64,-19.64 0.52,6.62 1.05,13.17 1.64,19.64zm-1.96 -23.88c-0.55,-7.37 -1.06,-14.84 -1.51,-22.4 0.45,7.55 0.96,15.03 1.51,22.4zm-1.62 -24.25c-0.93,-16.11 -1.63,-32.69 -2.11,-49.71 0.48,17.03 1.18,33.61 2.11,49.71zm-2.17 -52.19c-0.19,-7.71 -0.34,-15.55 -0.44,-23.46 0.1,7.91 0.25,15.75 0.44,23.46zm-0.49 -27.66c-0.09,-7.77 -0.1,-15.59 -0.08,-23.54 -0.02,7.92 -0.01,15.77 0.08,23.54zm-0.08 -27.28c0.04,-8.89 0.15,-17.85 0.34,-26.98 0.19,-9.35 0.44,-18.83 0.77,-28.4l0.02 -0.96 0.07 -1.79c0.33,-9.08 0.72,-18.26 1.18,-27.56 -0.46,9.3 -0.85,18.47 -1.18,27.56l-1.19 58.13zm2.48 -87.63c0.46,-9.01 0.96,-18.15 1.55,-27.37 -0.58,9.24 -1.08,18.35 -1.55,27.37zm1.86 -32.25c0.6,-9.09 1.24,-18.31 1.98,-27.61 -0.72,9.29 -1.38,18.52 -1.98,27.61zm2.21 -30.57c0.79,-9.99 1.67,-20.07 2.62,-30.3 -0.95,10.22 -1.83,20.33 -2.62,30.3zm2.75 -31.79c1,-10.58 2.06,-21.3 3.22,-32.16l0.08 -0.7c1.17,-10.85 2.43,-21.84 3.79,-32.95l0.42 -3.37c1.18,-9.69 2.44,-19.49 3.77,-29.4 -1.33,9.91 -2.59,19.69 -3.77,29.4l-7.51 69.19zm12.28 -106.07c1.38,-10.03 2.83,-20.14 4.34,-30.37 -1.51,10.22 -2.96,20.35 -4.34,30.37zm4.76 -33.26c1.7,-11.3 3.48,-22.73 5.36,-34.28 -1.87,11.55 -3.66,22.98 -5.36,34.28zm5.62 -35.94c1.96,-12.04 4.03,-24.23 6.2,-36.55 -2.17,12.33 -4.24,24.49 -6.2,36.55zm6.41 -37.73c2.08,-11.78 4.27,-23.72 6.54,-35.75 -2.27,12.04 -4.46,23.96 -6.54,35.75zm7.53 -40.92c2.11,-11.09 4.3,-22.29 6.59,-33.57 -2.29,11.29 -4.47,22.48 -6.59,33.57zm7.74 -39.24c2.24,-11.01 4.58,-22.16 6.98,-33.38 -2.4,11.22 -4.74,22.34 -6.98,33.38zm8.31 -39.5c2.58,-11.92 5.26,-23.95 8.02,-36.11 -2.76,12.15 -5.45,24.18 -8.02,36.11zm8.84 -39.74c3.06,-13.41 6.25,-26.99 9.55,-40.7 -3.31,13.72 -6.48,27.28 -9.55,40.7zm-70.79 554.63c0.04,-8.89 0.15,-17.87 0.34,-26.98l-0.34 26.98zm9.3 -182.24c1,-10.58 2.05,-21.32 3.22,-32.16l-3.22 32.16z"/>
    </g>
    <path class="fil9" d="M26326.8 11435.83c0,0 101.26,904.02 -825.59,1506.77 0,0 -427.65,-273.13 -729.01,-301.4 -301.42,-28.27 -405.03,75.56 -405.03,75.56 0,0 -62.97,-353.78 81.51,-586.68 144.53,-232.95 427.53,-53.53 893.53,586.68 0,0 787.38,-386.05 984.58,-1280.94z"/>
    <path class="fil10 str1" d="M22902.77 10397.75c0,0 496.37,474.31 312.94,1248.86l661.21 1070.16 406.38 -947.84c0,0 942.8,-244.62 1217.92,-886.72 0,0 -621.62,-1012.4 -435.67,-2432.02 185.93,-1419.54 -2162.78,1947.55 -2162.78,1947.55z"/>
    <path class="fil10" d="M24464.62 10342.28l662 -1234.08c291.96,-2175.53 -359.96,-3043.83 -2071.46,-2921.68 -1714,122.28 -1738.52,2033.56 -1330.06,2845.82 137.08,272.66 92.2,869.83 942.85,1823.72 326.18,365.7 1182.98,90.28 1796.67,-513.78z"/>
    <path class="fil0 str0" d="M25126.62 9108.2c291.96,-2175.53 -359.96,-3043.83 -2071.46,-2921.68 -1714,122.28 -1738.52,2033.56 -1330.06,2845.82 137.08,272.66 92.2,869.83 942.85,1823.72 326.18,365.7 1182.98,90.28 1796.67,-513.78"/>
    <path class="fil0 str0" d="M22581.22 8582.32c0,0 168.2,-297.16 626.82,0"/>
    <path class="fil0 str0" d="M21893.23 8582.32c0,0 -248.64,-205.44 -323.03,0"/>
    <path class="fil6" d="M22986.28 9031.72c19.44,74.59 -2.29,144.71 -48.42,156.73 -46.2,12.01 -99.33,-38.75 -118.68,-113.24 -19.42,-74.59 2.34,-144.75 48.41,-156.68 46.21,-12.05 99.34,38.66 118.69,113.19z"/>
    <path class="fil6" d="M22063.19 9031.72c19.35,74.59 -2.34,144.71 -48.42,156.73 -46.2,11.97 -99.33,-38.75 -118.68,-113.24 -19.42,-74.59 2.28,-144.75 48.42,-156.68 46.22,-12.05 99.33,38.66 118.68,113.19z"/>
    <path class="fil0 str0" d="M22101.83 8749.49c188.88,259.88 13.91,587.32 -48.05,840.89 -61.88,253.48 321.03,236.92 428.01,152.86"/>
    <path class="fil6 str1" d="M24201.78 8916.71c0,0 -160.48,-508.67 183.5,-760.91 344.01,-252.22 320.97,1266.42 320.97,1266.42l328.68 183.45c0,0 473.94,-1253.65 244.66,-2170.96 -229.35,-917.26 -1156.47,-1568.41 -2440.18,-1221.93 -1719.22,464.12 -1332.25,1871.74 -1332.25,1871.74 0,0 72.68,-397.52 156.79,-374.56 84.04,22.91 353.72,282.8 1686.55,-175.82 0,0 147.97,129.95 117.37,450.98 -30.52,321.05 537.5,608.03 626.85,1144.08l107.07 -212.47z"/>
    <path class="fil0 str1" d="M24201.78 8916.71c0,0 -160.48,-508.67 183.5,-760.91 344.01,-252.22 320.97,1266.42 320.97,1266.42l328.68 183.45c0,0 473.94,-1253.65 244.66,-2170.96 -229.35,-917.26 -1156.47,-1568.41 -2440.18,-1221.93 -1719.22,464.12 -1332.25,1871.74 -1332.25,1871.74 0,0 72.68,-397.52 156.79,-374.56 84.04,22.91 353.72,282.8 1686.55,-175.82 0,0 147.97,129.95 117.37,450.98 -30.52,321.05 537.5,608.03 626.85,1144.08l107.07 -212.47z"/>
    <path class="fil11" d="M24201.8 8916.7c0,0 -160.52,-508.65 183.46,-760.89 344.02,-252.23 320.97,1266.42 320.97,1266.42l328.69 183.45c0,0 473.95,-1253.66 244.65,-2170.98 -229.33,-917.25 -1156.45,-1568.41 -2440.18,-1221.93 -1719.22,464.14 -1332.23,1871.74 -1332.23,1871.74 0,0 72.68,-397.51 156.76,-374.57 84.06,22.93 353.72,282.83 1686.56,-175.81 0,0 147.98,129.95 117.37,450.98 -30.52,321.05 537.53,608.06 626.86,1144.08l107.09 -212.48z"/>
    <path class="fil6" d="M21985.49 9829.77c0,0 148.49,66.35 354.98,35.78l72.62 84.09 68.7 -75.41c0,0 420.46,54.48 626.85,0 206.41,-54.54 420.46,75.41 527.44,75.41 0,0 458.63,-550.38 412.79,-833.18 -45.86,-282.85 -76.37,-366.96 -76.37,-366.96 0,0 86.52,78.98 132.44,63.73 58.26,-19.44 58.64,-63.73 58.64,-63.73 0,0 445.74,902.05 435.66,1635.85 0,0 -509.54,846.59 -1184.81,894.4 -756.78,53.44 -1149.99,-240.84 -1149.99,-240.84 -129.51,-380.52 -65.5,-737.65 -65.5,-737.65 -96.6,-95.67 -179.59,-133.79 -179.59,-133.79 -42.68,-114.63 -33.86,-337.7 -33.86,-337.7z"/>
    <path class="fil6" d="M21663.94 7709.94c0,0 -382.24,-180.95 -310.87,-619.2 71.36,-438.23 397.11,-591.11 631.69,-723.61 0,0 477.4,-407.91 1365.73,-458.65 1070.4,-61.14 2110.03,499.4 1866.1,1326.09 0,0 -1510.25,-642.97 -1866.1,299.55 0,0 -1039.4,601.31 -1686.55,175.82z"/>
    <path class="fil10" d="M24312.44 9094.92l-29.14 -644.72c0,0 336.42,-646 560.61,-431.99 224.2,214.04 162.99,530.04 86.61,830.66 -76.46,300.69 -101.98,249.72 -244.66,387.34 -142.6,137.54 -293.59,276.55 -346.42,127.32 -52.97,-149.25 -27,-268.6 -27,-268.6z"/>
    <path class="fil0 str0" d="M24283.3 8450.2c0,0 336.42,-646 560.61,-431.99 224.2,214.04 162.99,530.04 86.61,830.66 -76.46,300.69 -101.98,249.72 -244.66,387.34 -142.6,137.54 -293.59,276.55 -346.42,127.32 -52.97,-149.25 -27,-268.6 -27,-268.6"/>
    <path class="fil4" d="M23249.99 10324.39c-599.98,15.1 -800.64,-74.72 -800.64,-74.72 -28.62,38.2 -66.87,28.64 -66.87,28.64l99.31 206.36c0,0 99.43,61.2 357.61,61.2 217.6,0 410.59,-221.48 410.59,-221.48z"/>
    <path class="fil12 str3" d="M22734.1 7549.38c0,0 -244.63,-489.23 397.52,-787.31 642.06,-298.13 1681.69,-183.46 1933.94,152.86"/>
    <path class="fil12 str3" d="M22070.32 7641.15c0,0 -705.33,-30.57 -181.27,-718.57 524.04,-687.97 1632.38,-901.98 1632.38,-901.98"/>
    <path class="fil0 str0" d="M26357.4 11300.07c0,0 -134.64,917.28 -1015.2,1416.7 0,0 -486.73,-724.89 -742.8,-708.33 -125.38,8.1 -316.1,390.79 -316.1,390.79"/>
    <path class="fil0 str0" d="M22632.8 11728.18c-87.2,346.51 -26.87,1035.47 -26.87,1035.47 0,0 212.13,-687.5 296.84,-755.21 152.16,-121.66 618.66,473.94 618.66,473.94"/>
    <line class="fil0 str0" x1="23876.92" y1="12716.77" x2="23521.43" y2= "12951.22" />
    <path class="fil0 str0" d="M23521.43 12951.22c0,0 402.71,448.46 355.48,856.17 -47.18,407.64 95.58,1304.56 95.58,1304.56"/>
    <path class="fil10 str1" d="M20464.42 16836.8c407.73,805.85 279.75,1553.16 279.75,1553.16 0,0 -525.73,730.36 -931.75,840.01 -984,265.48 -1576.77,-1921.95 -2759.44,-4858.97 -75.87,-188.4 596.53,-1184.02 596.53,-1184.02l1950.58 3037.64c0,0 578.78,47.75 864.34,612.19z"/>
    <line class="fil0 str0" x1="17567.3" y1="13407.67" x2="17065.69" y2= "12733.25" />
    <path class="fil10 str4" d="M17448.85 14476.48l-383.15 -1743.23c0,0 -754.54,-432.35 -836.73,-173.58 -123.04,387.43 -740.69,501.4 -740.69,501.4 54.54,198.27 657.97,1081.19 999.91,1279.02 341.76,197.9 373.69,258.55 517.92,297.16 357.91,95.77 442.74,-160.77 442.74,-160.77z"/>
    <path class="fil0 str0" d="M17065.69 12733.25c0,0 -754.54,-432.35 -836.73,-173.58 -123.04,387.43 -740.69,501.4 -740.69,501.4 54.54,198.27 657.97,1081.19 999.91,1279.02 341.76,197.9 373.69,258.55 517.92,297.16 357.91,95.77 442.74,-160.77 442.74,-160.77"/>
    <path class="fil13 str1" d="M13579.84 16360.58c0,0 -2752.68,-2557.33 665.95,-3481.12 3418.66,-923.81 2519.31,2459.69 2519.31,2459.69l-228.5 39.11c0,0 895.34,-3027.13 -2177.94,-2238.06 -3073.33,789.09 -654.93,3066.09 -654.93,3066.09l-123.88 154.29z"/>
    <path class="fil10" d="M17642.65 14037.56l-404.91 -167.06c-577.53,-281.67 -376.52,-797.93 -939.02,-1123.24 -151.37,-87.58 -639.06,-34.47 -793.8,-142.57 -232.15,-162.02 -148.42,-273.69 -145.11,-292.99 7.74,-44.81 170.72,100.15 725.37,-56.66 221.7,-62.62 827.34,127.45 1018.2,293.06 446.19,387.29 834.19,843.99 792.18,1201.17 -24.14,205.77 -252.9,288.29 -252.9,288.29z"/>
    <path class="fil0 str0" d="M17237.74 13870.51c-577.53,-281.67 -376.52,-797.93 -939.02,-1123.24 -151.37,-87.58 -639.06,-34.47 -793.8,-142.57 -232.15,-162.02 -148.42,-273.69 -145.11,-292.99 7.74,-44.81 170.72,100.15 725.37,-56.66 221.7,-62.62 827.34,127.45 1018.2,293.06 446.19,387.29 834.19,843.99 792.18,1201.17 -24.14,205.77 -252.9,288.29 -252.9,288.29"/>
    <path class="fil10 str1" d="M15579.91 12996.72c0,0 484.66,-118.6 639.41,-117.26 212.13,1.81 279.63,32.16 329.94,122.55 50.56,90.32 -9.34,201.48 -9.34,201.48 0,0 135.97,63.05 173.94,180.09 38.04,117 -48.41,248.33 -48.41,248.33 0,0 140.51,39.26 220.27,134.03 103.18,122.59 12,223.51 12,223.51 0,0 273,187.03 121.4,298.4 -151.64,111.3 -565.14,279.38 -751.09,261.25 -185.86,-18.23 -1371.33,-1447.66 -688.12,-1552.38z"/>
    <path class="fil0 str0" d="M16539.92 13203.49c0,0 -769.72,235.84 -981.13,230.54"/>
    <path class="fil0 str0" d="M16665.45 13631.91c0,0 -655.54,235.65 -790.64,262.07"/>
    <path class="fil0 str0" d="M16897.72 13989.45c0,0 -503.57,207.51 -721.38,250.51"/>
    <path class="fil13 str1" d="M13528.81 15971.29c0,0 843.38,-1444 2935.17,-1185.68l1721.5 3583.59c0,0 -1080.26,2049.97 -4137.4,1564.2l-519.27 -3962.11z"/>
    <path class="fil13" d="M11249.56 18862.2l3089.99 -25.47c0,0 -1842.19,-1366.69 -3089.99,25.47z"/>
    <path class="fil0 str0" d="M14339.54 18836.73c0,0 -1842.19,-1366.69 -3089.99,25.47"/>
    <line class="fil0 str0" x1="11249.56" y1="18862.2" x2="11815.59" y2= "19286.63" />
    <path class="fil13" d="M14358.64 19572.99l-2543.05 -286.36c0,0 581.19,-1221.76 2543.05,286.36z"/>
    <path class="fil0 str0" d="M11815.59 19286.63c0,0 581.19,-1221.76 2543.05,286.36"/>
    <path class="fil13" d="M16306.58 14884.25l-2602.87 1102.25c0,0 1987.08,195.94 2602.87,-1102.25z"/>
    <path class="fil0 str0" d="M13703.71 15986.51c0,0 1987.08,195.94 2602.87,-1102.25"/>
    <path class="fil13 str1" d="M10200.23 18984.64c0,0 782.16,-549.5 1475.22,-145.11 692.78,404.71 530.75,1131.54 530.75,1131.54 0,0 -1042.33,80.2 -2005.97,-986.43z"/>
    <path class="fil0 str0" d="M10583.44 18987.29c0,0 1215.52,324.79 1622.76,983.78"/>
    <path class="fil13 str1" d="M15276.3 15061.53l-140.32 -586.89c0,0 -784.81,-20.91 -1053.84,430.41l349.52 462.39 844.64 -305.91z"/>
    <path class="fil0 str0" d="M15233.11 15184.77c0,0 -205.22,125.83 -503.41,154.38"/>
    <path class="fil0 str0" d="M14575.18 18953.74c0,0 177.25,240.17 -45.02,545.98"/>
    <path class="fil9" d="M28693.41 15997.05c0,0 -728.38,2511.79 -2336.02,3767.56 -734.46,573.68 -4092.93,-351.58 -4092.93,-351.58l217.32 -1301.79 1100.51 -521.86c0,0 1946.52,-3047.23 3001.37,-3349.39 1054.91,-302.18 2109.74,1757.08 2109.74,1757.08z"/>
    <path class="fil3" d="M28620.04 12399.24l-875.92 62.91c-775.39,22.17 -2813.59,3757.26 -2813.59,3757.26 -552.24,209.25 -288.74,692.58 -288.74,692.58 0,0 1294.66,1643.1 1539.92,1783.34 605.86,346.4 820.73,-260.04 820.73,-260.04 0,0 2547.83,-2312.63 2371.6,-4195.32 -176.22,-1882.72 -753.99,-1840.73 -753.99,-1840.73z"/>
    <path class="fil10 str5" d="M24777.39 16765.72l-776.27 836.76c-1649.33,-160.55 -4656.75,1088.57 -5526.12,634.28 -505.87,-264.16 -1719.34,7.79 -1900.2,98.88 -180.94,90.95 -562.98,564.38 -421.48,625.16 141.44,60.76 455.41,-221.64 628.88,-196.03 173.58,25.47 487.05,-4.12 487.05,-4.12 0,0 -764.59,727.14 -935.64,758.48 -171.08,31.35 -1039.42,401.89 -725.07,466.51 440.9,90.64 608.8,45.04 608.8,45.04 0,0 397.77,282.84 693.93,313.01 153.71,15.74 987.4,-134.96 987.4,-134.96l764.34 -728.9c0,0 5083.97,264.76 5978.78,-111.23 1166.33,-489.92 1539.92,-894.32 1539.92,-894.32 0,0 -493.44,-1431.75 -1404.31,-1708.56z"/>
    <path class="fil0 str0" d="M24036.51 22917.64c-17.66,-4.12 -393.22,2221.77 138.25,2692.7 0,0 307.8,1063.27 250.11,1793.7 -57.68,730.45 342.31,2218.54 342.31,2218.54"/>
    <line class="fil0 str0" x1="24767.18" y1="29622.58" x2="25034.2" y2= "31309.59" />
    <path class="fil0 str0" d="M24424.86 22983.06c0,0 -189.53,1101.51 -114.2,1497.06 75.36,395.58 -88.44,801.46 -317.34,815.14"/>
    <path class="fil0 str0" d="M27936.91 22646.77c0,0 342.65,1834.68 901.21,1986.05"/>
    <path class="fil0 str0" d="M28624.31 22393.96c0,0 258.12,1171.11 213.81,2787.11 -44.29,1616.01 321.41,4855.93 355.19,5251.5 33.77,395.58 0,877.02 0,877.02"/>
    <path class="fil0 str0" d="M25604.38 25038.99c-144.66,62.76 -1915.33,590.18 -2254.38,1004.61"/>
    <path class="fil0 str0" d="M24424.86 26085.52c0,0 1223.51,1483.84 1816.74,1634.55"/>
    <path class="fil0 str0" d="M23891.25 26231.95c0,0 -1880.29,1841.9 -2209.13,1636.75"/>
    <path class="fil0 str0" d="M24477.2 28379.36c0,0 -518.69,2049.09 -483.87,2277.2 34.79,228.09 -176.37,653.04 -176.37,653.04"/>
    <path class="fil0 str0" d="M23972.5 20344.86c0,0 113.88,591.15 0,950.45 -113.9,359.31 10.74,902.26 166.65,932.5"/>
    <path class="fil0 str0" d="M19600.08 16224.62c0,0 604.16,650.59 604.16,1156.61"/>
    <path class="fil0 str6" d="M11972.58 20344.86c0,0 -49.59,160.64 -119.91,435.66"/>
    <path class="fil0 str7" d="M11745.33 21228.5c-45.09,200.81 -92.36,429.06 -137.17,677.24"/>
    <path class="fil0 str6" d="M11568.86 22132.89c-23.83,144.06 -46.49,293.59 -67.21,447.36"/>
    <path class="fil0 str6" d="M10946.42 19952.17c0,0 -92.58,144.15 -227.02,390.56"/>
    <path class="fil0 str8" d="M10425.64 20925.19c-123.83,266.24 -253.05,574.03 -367.03,906.47"/>
    <path class="fil0 str6" d="M9958.9 22142.97c-42.44,142.82 -81.23,289.02 -114.89,437.28"/>
    <path class="fil0 str6" d="M10200.23 19331.71c-44.55,8.48 -193.08,83.3 -393.42,219.8"/>
    <path class="fil0 str9" d="M9400.12 19864.15c-176.69,151.66 -364.03,334.27 -542.09,546.05"/>
    <path class="fil0 str6" d="M8698.25 20612.12c-87.89,118.24 -171.74,244.12 -248.74,377.4"/>
    <path class="fil0 str0" d="M24930.52 16219.4c566.88,85.55 1395.69,1121.57 1546.38,1517.15"/>
    <path class="fil0 str0" d="M29193.31 14884.25c0,0 -1360.1,828.4 -2716.41,912.13"/>
    <path class="fil0 str0" d="M19523.61 15796.38c0,0 699.46,-141.87 1057.37,428.23 357.9,570.09 470.92,1156.61 470.92,1156.61"/>
    <path class="fil0 str0" d="M20505.64 14550.47c0,0 338.61,741.52 734.41,1050.23"/>
    <path class="fil0 str0" d="M23972.5 16700.82c0,0 58.11,560.4 28.62,901.66"/>
    <path class="fil0 str0" d="M22879.08 20166.5c0,0 1488.1,1674.85 3786.18,1223.6"/>
    <path class="fil6" d="M24097.21 13155.22c0,48.59 -37.74,88.03 -84.47,88.03 -46.65,0 -84.38,-39.45 -84.38,-88.03 0,-48.64 37.74,-88.09 84.38,-88.09 46.73,0 84.47,39.45 84.47,88.09z"/>
    <path class="fil6" d="M24202 15378.25c0,48.61 -37.77,88.03 -84.47,88.03 -46.65,0 -84.42,-39.43 -84.42,-88.03 0,-48.64 37.77,-88.09 84.42,-88.09 46.7,0 84.47,39.45 84.47,88.09z"/>
    <line class="fil0 str0" x1="613.96" y1="31309.59" x2="32862.58" y2= "31309.59" />
    <path class="fil0 str10" d="M7208.49 26981.97c0,0 1216.43,-427.36 423.81,-2831.64 -792.6,-2404.26 222,-2351.65 673.65,-3567.67 451.7,-1215.99 -215.29,-2039.67 -215.29,-2039.67"/>
    <path class="fil6" d="M7809.63 26386.84l-226.03 0 -3315.29 0c0,0 477.4,3598.72 615.5,4640.19 25.13,189.17 175.66,282.55 357.77,282.55 429.35,0 1798.69,0 2342.02,0 140.03,0 226.03,0 226.03,0 543.4,0 1912.75,0 2342.09,0 182.13,0 332.59,-93.38 357.69,-282.55 138.19,-1041.47 615.51,-4640.19 615.51,-4640.19l-3315.28 0z"/>
    <path class="fil6" d="M11424.31 26519.88c0,92.93 -75.41,168.35 -168.41,168.35l-7118.57 0c-93.01,0 -168.43,-75.42 -168.43,-168.35l0 -265.99c0,-92.93 75.42,-168.36 168.43,-168.36l7118.57 0c93,0 168.41,75.43 168.41,168.36l0 265.99z"/>
    <line class="fil0 str11" x1="4646.09" y1="26688.23" x2="8237.59" y2= "26688.23" />
    <line class="fil0 str11" x1="8689.67" y1="26688.23" x2="8965.97" y2= "26688.23" />
    <line class="fil0 str11" x1="10623.61" y1="26688.23" x2="10121.27" y2= "26688.23" />
    <line class="fil0 str11" x1="4922.3" y1="27868.7" x2="6328.81" y2= "27868.7" />
    <line class="fil0 str11" x1="7132.53" y1="27868.7" x2="7509.28" y2= "27868.7" />
    <line class="fil0 str11" x1="10523.16" y1="27868.7" x2="9166.91" y2= "27868.7" />
    <line class="fil0 str11" x1="10372.4" y1="28848.22" x2="10121.27" y2= "28848.22" />
    <line class="fil0 str11" x1="6328.81" y1="28848.22" x2="5801.38" y2= "28848.22" />
    <line class="fil0 str11" x1="8827.79" y1="29802.63" x2="9694.35" y2= "29802.63" />
    <line class="fil0 str11" x1="6805.99" y1="29802.63" x2="5449.74" y2= "29802.63" />
    <line class="fil0 str11" x1="5173.51" y1="30656.55" x2="5625.52" y2= "30656.55" />
    <line class="fil0 str11" x1="6328.81" y1="30656.55" x2="8965.97" y2= "30656.55" />
    <line class="fil0 str11" x1="10246.88" y1="30656.55" x2="9845.04" y2= "30656.55" />
    <path class="fil3 str1" d="M8990.11 28697.6c0,714.25 -579.08,1293.42 -1293.51,1293.42 -714.32,0 -1293.47,-579.17 -1293.47,-1293.42 0,-714.41 579.15,-1293.56 1293.47,-1293.56 714.42,0 1293.51,579.15 1293.51,1293.56z"/>
    <path class="fil0 str0" d="M8770.61 28697.53c0,593.06 -480.86,1073.92 -1073.92,1073.92 -593.14,0 -1074,-480.86 -1074,-1073.92 0,-593.22 480.86,-1073.99 1074,-1073.99 593.06,0 1073.92,480.77 1073.92,1073.99z"/>
    <path class="fil0 str10" d="M7535.33 23837.63c0,0 258.32,-1339.28 1340.63,-1443.89 1082.24,-104.63 1209.18,-952.52 1209.18,-952.52"/>
    <path class="fil0 str10" d="M7645.69 21515.83c0,0 -263.5,-126.27 -1238.23,-719.92 -974.73,-593.66 -937.56,-1540.42 -937.56,-1540.42"/>
    <path class="fil0 str10" d="M7854.38 25039.2c0,0 -1908.79,-74.69 -2192,-1640.85"/>
    <path class="fil4 str1" d="M9060.44 17873.5c-57.68,471.5 -486.67,807.11 -958.24,749.56 -471.68,-57.68 -807.19,-486.73 -749.56,-958.26 57.66,-471.65 486.65,-807.25 958.24,-749.56 471.57,57.63 807.19,486.67 749.56,958.26z"/>
    <path class="fil0 str1" d="M9060.44 17873.5c-57.68,471.5 -486.67,807.11 -958.24,749.56 -471.68,-57.68 -807.19,-486.73 -749.56,-958.26 57.66,-471.65 486.65,-807.25 958.24,-749.56 471.57,57.63 807.19,486.67 749.56,958.26z"/>
    <path class="fil0 str0" d="M8896.37 17853.4c-46.53,381 -393.17,652.22 -774.09,605.57 -381.08,-46.5 -652.23,-393.15 -605.67,-774.22 46.59,-381.02 393.17,-652.16 774.24,-605.57 381.02,46.49 652.07,393.2 605.51,774.22z"/>
    <path class="fil4 str1" d="M6352.06 18556.83c64.1,470.63 -265.48,904.3 -736.26,968.47 -470.76,64.09 -904.37,-265.55 -968.47,-736.24 -64.16,-470.78 265.48,-904.4 736.26,-968.56 470.76,-64.1 904.32,265.57 968.47,736.33z"/>
    <path class="fil0 str1" d="M6352.06 18556.83c64.1,470.63 -265.48,904.3 -736.26,968.47 -470.76,64.09 -904.37,-265.55 -968.47,-736.24 -64.16,-470.78 265.48,-904.4 736.26,-968.56 470.76,-64.1 904.32,265.57 968.47,736.33z"/>
    <path class="fil0 str0" d="M6188.27 18579.13c51.87,380.35 -214.42,730.67 -594.74,782.46 -380.41,51.88 -730.67,-214.56 -782.48,-594.89 -51.88,-380.35 214.41,-730.67 594.84,-782.49 380.33,-51.79 730.58,214.51 782.38,594.92z"/>
    <path class="fil4 str1" d="M6302.32 22672.24c37.83,473.49 -315.45,888.14 -789.02,925.95 -473.64,37.83 -888.19,-315.45 -925.95,-789 -37.83,-473.57 315.37,-888.21 789.02,-926.03 473.57,-37.8 888.2,315.45 925.95,789.09z"/>
    <path class="fil0 str1" d="M6302.32 22672.24c37.83,473.49 -315.45,888.14 -789.02,925.95 -473.64,37.83 -888.19,-315.45 -925.95,-789 -37.83,-473.57 315.37,-888.21 789.02,-926.03 473.57,-37.8 888.2,315.45 925.95,789.09z"/>
    <path class="fil0 str0" d="M6137.64 22685.41c30.55,382.64 -254.8,717.49 -637.43,748.09 -382.7,30.62 -717.64,-254.86 -748.18,-637.5 -30.52,-382.69 254.83,-717.58 637.52,-748.18 382.62,-30.6 717.56,254.89 748.09,637.59z"/>
    <path class="fil4 str1" d="M11318.59 21194.51c-199.7,431.04 -711.02,618.59 -1142.14,418.97 -431.11,-199.85 -618.6,-711.25 -418.9,-1142.14 199.7,-431.18 711.01,-618.75 1142.13,-419.05 431.1,199.7 618.61,711.17 418.91,1142.22z"/>
    <path class="fil0 str1" d="M11318.59 21194.51c-199.7,431.04 -711.02,618.59 -1142.14,418.97 -431.11,-199.85 -618.6,-711.25 -418.9,-1142.14 199.7,-431.18 711.01,-618.75 1142.13,-419.05 431.1,199.7 618.61,711.17 418.91,1142.22z"/>
    <path class="fil0 str0" d="M11168.69 21124.97c-161.36,348.33 -574.45,499.92 -922.69,338.54 -348.42,-161.36 -500,-574.45 -338.56,-922.71 161.28,-348.4 574.52,-499.92 922.86,-338.56 348.26,161.3 499.76,574.39 338.39,922.72z"/>
    <path class="fil1 str1" d="M10044.37 21586.24c-3.67,53.42 802.86,-528.46 1585.47,-157.68 0,0 -815.73,741.05 -1603.86,280.2 -788.06,-460.77 -676.29,-1589.5 -676.29,-1589.5 0,0 758.33,532.22 694.68,1466.99z"/>
    <path class="fil1 str1" d="M8207.12 18649.92c25.97,46.88 387.71,-879.61 1246.26,-992.75 0,0 -283.15,1065.08 -1195.19,1105.63 -911.95,40.54 -1430.49,-968.25 -1430.49,-968.25 0,0 925.73,35.6 1379.42,855.38z"/>
    <path class="fil1 str1" d="M5596.6 19620.9c33.04,42.23 243.93,-929.7 1073.85,-1176.94 0,0 -111.41,1096.36 -1005.57,1280.31 -894.22,184.11 -1565.52,-730.21 -1565.52,-730.21 0,0 919.78,-111.04 1497.24,626.84z"/>
    <path class="fil1 str1" d="M5771.06 23722.55c39.83,35.9 81.31,-957.81 856.63,-1343.4 0,0 77.79,1099.25 -771.71,1433.59 -849.48,334.28 -1667.28,-451.64 -1667.28,-451.64 0,0 887.24,-266.73 1582.36,361.45z"/>
    <path class="fil6" d="M16851.28 26386.84l-226.01 0 -3315.27 0c0,0 477.38,3598.72 615.5,4640.19 25.1,189.17 175.64,282.55 357.75,282.55 429.35,0 1798.69,0 2342.02,0 140.03,0 226.01,0 226.01,0 543.41,0 1912.75,0 2342.02,0 182.19,0 332.66,-93.38 357.75,-282.55 138.19,-1041.47 615.53,-4640.19 615.53,-4640.19l-3315.31 0z"/>
    <path class="fil6" d="M20465.95 26519.88c0,92.93 -75.39,168.35 -168.41,168.35l-7118.54 0c-93,0 -168.42,-75.42 -168.42,-168.35l0 -265.99c0,-92.93 75.42,-168.36 168.42,-168.36l7118.54 0c93.02,0 168.41,75.43 168.41,168.36l0 265.99z"/>
    <line class="fil0 str11" x1="13687.76" y1="26688.23" x2="17279.24" y2= "26688.23" />
    <line class="fil0 str11" x1="17731.33" y1="26688.23" x2="18007.62" y2= "26688.23" />
    <line class="fil0 str11" x1="19665.25" y1="26688.23" x2="19162.92" y2= "26688.23" />
    <line class="fil0 str11" x1="13963.98" y1="27868.7" x2="15370.5" y2= "27868.7" />
    <line class="fil0 str11" x1="16174.22" y1="27868.7" x2="16550.94" y2= "27868.7" />
    <line class="fil0 str11" x1="19564.75" y1="27868.7" x2="18208.49" y2= "27868.7" />
    <line class="fil0 str11" x1="19414.06" y1="28848.22" x2="19162.92" y2= "28848.22" />
    <line class="fil0 str11" x1="15370.5" y1="28848.22" x2="14843.04" y2= "28848.22" />
    <line class="fil0 str11" x1="17869.43" y1="29802.63" x2="18735.93" y2= "29802.63" />
    <line class="fil0 str11" x1="15847.65" y1="29802.63" x2="14491.4" y2= "29802.63" />
    <line class="fil0 str11" x1="14215.18" y1="30656.55" x2="14667.21" y2= "30656.55" />
    <line class="fil0 str11" x1="15370.5" y1="30656.55" x2="18007.62" y2= "30656.55" />
    <line class="fil0 str11" x1="19288.52" y1="30656.55" x2="18886.62" y2= "30656.55" />
    <path class="fil3 str1" d="M18031.76 28697.6c0,714.25 -579.08,1293.42 -1293.46,1293.42 -714.32,0 -1293.5,-579.17 -1293.5,-1293.42 0,-714.41 579.17,-1293.56 1293.5,-1293.56 714.38,0 1293.46,579.15 1293.46,1293.56z"/>
    <path class="fil0 str0" d="M17812.25 28697.53c0,593.06 -480.84,1073.92 -1073.89,1073.92 -593.14,0 -1073.98,-480.86 -1073.98,-1073.92 0,-593.22 480.84,-1073.99 1073.98,-1073.99 593.06,0 1073.89,480.77 1073.89,1073.99z"/>
    <polygon class="fil4 str1" points="16738.29,28090.55 16422.03,28404.37 16422.03,28191.06 16321.6,28191.06 16321.6,28504.07 16150.16,28674.12 16300.32,28674.12 16300.32,29191.7 17176.29,29191.7 17176.29,28674.12 17326.4,28674.12 "/>
    <path class="fil0 str10" d="M16805 26759.39c0,0 452.45,-866.5 -630.78,-1619.98 -1083.35,-753.46 -1318.87,-1534.02 -1144.57,-2123.26"/>
    <path class="fil0 str10" d="M16625.94 25557.8c0,0 -126.43,-564.37 864.56,-962.29 990.98,-397.92 1138.43,-1579.34 1138.43,-1579.34"/>
    <path class="fil1 str1" d="M15580.64 22070.05c159.14,-0.53 131.48,997.33 -602.93,1185.68 0,0 -357.75,-111.98 -414.26,-592.84 -56.52,-480.86 279.59,-691.97 279.59,-691.97 0,0 87.66,296.03 186.61,451.34 0,0 249.6,-351.19 550.99,-352.22z"/>
    <path class="fil1" d="M14973.66 22897.84l55.99 -475.57c0,0 -203.31,168.67 -55.99,475.57z"/>
    <path class="fil0 str0" d="M15029.65 22422.27c0,0 -203.31,168.67 -55.99,475.57"/>
    <path class="fil1 str1" d="M18577.65 23255.74c0,0 -527.27,-480.19 -369.16,-833.46 158.12,-353.26 499.04,-517.48 499.04,-517.48 0,0 113.3,219.56 179.09,323.74l270.56 -158.48c0,0 552.67,1072.66 -579.53,1185.68z"/>
    <path class="fil1" d="M18801.7 23016.16l84.92 -787.63c0,0 329.49,529.19 -84.92,787.63z"/>
    <path class="fil0 str0" d="M18886.62 22228.53c0,0 329.49,529.19 -84.92,787.63"/>
    <path class="fil0 str10" d="M16976.08 24882.18c0,0 -509.59,-1281.2 -87.12,-2716.99"/>
    <path class="fil1 str1" d="M16912.88 22173.8c0,0 678.94,-218.18 681.65,-605.13 2.65,-387.03 -239.36,-677.91 -239.36,-677.91 0,0 -194.26,152.76 -297.33,220.31l-180.35 -256.52c0,0 -947.93,746.8 35.39,1319.25z"/>
    <path class="fil1" d="M16808.39 21862.92l249.45 -751.85c0,0 -519.32,344.79 -249.45,751.85z"/>
    <path class="fil0 str0" d="M17057.84 21111.07c0,0 -519.32,344.79 -249.45,751.85"/>
    <path class="fil6" d="M25892.97 26386.84l-226.05 0 -3315.27 0c0,0 477.33,3598.72 615.51,4640.19 25.09,189.17 175.56,282.55 357.74,282.55 429.28,0 1798.63,0 2342.02,0 140.03,0 226.05,0 226.05,0 543.41,0 1912.75,0 2342.02,0 182.19,0 332.66,-93.38 357.75,-282.55 138.16,-1041.47 615.51,-4640.19 615.51,-4640.19l-3315.28 0z"/>
    <path class="fil6" d="M29507.64 26519.88c0,92.93 -75.41,168.35 -168.43,168.35l-7118.63 0c-93,0 -168.35,-75.42 -168.35,-168.35l0 -265.99c0,-92.93 75.36,-168.36 168.35,-168.36l7118.63 0c93.02,0 168.43,75.43 168.43,168.36l0 265.99z"/>
    <line class="fil0 str11" x1="22729.34" y1="26688.23" x2="26320.9" y2= "26688.23" />
    <line class="fil0 str11" x1="26773" y1="26688.23" x2="27049.28" y2= "26688.23" />
    <line class="fil0 str11" x1="28706.92" y1="26688.23" x2="28204.6" y2= "26688.23" />
    <line class="fil0 str11" x1="23005.63" y1="27868.7" x2="24412.14" y2= "27868.7" />
    <line class="fil0 str11" x1="25215.79" y1="27868.7" x2="25592.52" y2= "27868.7" />
    <line class="fil0 str11" x1="28606.42" y1="27868.7" x2="27250.16" y2= "27868.7" />
    <line class="fil0 str11" x1="28455.73" y1="28848.22" x2="28204.6" y2= "28848.22" />
    <line class="fil0 str11" x1="24412.14" y1="28848.22" x2="23884.71" y2= "28848.22" />
    <line class="fil0 str11" x1="26911.1" y1="29802.63" x2="27777.61" y2= "29802.63" />
    <line class="fil0 str11" x1="24889.32" y1="29802.63" x2="23533.07" y2= "29802.63" />
    <line class="fil0 str11" x1="23256.77" y1="30656.55" x2="23708.85" y2= "30656.55" />
    <line class="fil0 str11" x1="24412.14" y1="30656.55" x2="27049.28" y2= "30656.55" />
    <line class="fil0 str11" x1="28330.21" y1="30656.55" x2="27928.29" y2= "30656.55" />
    <path class="fil3 str1" d="M27073.42 28697.6c0,714.25 -579.08,1293.42 -1293.48,1293.42 -714.39,0 -1293.47,-579.17 -1293.47,-1293.42 0,-714.41 579.08,-1293.56 1293.47,-1293.56 714.4,0 1293.48,579.15 1293.48,1293.56z"/>
    <path class="fil4 str1" d="M26273.89 28555.36l0 455.33c0,0 -94.47,158.35 -494.03,158.35 -399.4,0 -493.87,-158.35 -493.87,-158.35l0 -455.33 987.9 0z"/>
    <polygon class="fil4 str1" points="25779.86,28229.62 26465.5,28484.21 25779.86,28738.64 25094.38,28484.21 "/>
    <polyline class="fil0 str0" points="25779.86,28484.21 26066.7,28632.24 26066.7,29316.05 "/>
    <path class="fil0 str0" d="M26853.86 28697.53c0,593.06 -480.77,1073.92 -1073.85,1073.92 -593.2,0 -1073.98,-480.86 -1073.98,-1073.92 0,-593.22 480.78,-1073.99 1073.98,-1073.99 593.08,0 1073.85,480.77 1073.85,1073.99z"/>
    <path class="fil0 str10" d="M25779.94 27048.2c0,0 -343.03,-878.99 0,-2009.21"/>
    <path class="fil1 str1" d="M25779.94 24084.56c0,0 1073.92,728.3 -152.45,1456.69 0,0 -1215.35,-728.38 152.45,-1456.69z"/>
    <path class="fil0 str0" d="M25779.94 24084.56c0,0 184.24,276.29 -0.08,527.43 -184.33,251.13 -107.42,569.07 -107.42,569.07"/>
    <path class="fil14" d="M22620.24 11785.44c-43.35,227.73 -37.55,559.23 -27.45,771.81 6.88,54.06 15.98,107.82 27.84,159.52 0,0 189.72,-699.18 282.11,-708.31 63.25,-50.56 180.81,22.78 296.59,125.78 73.57,59.32 158.12,144.42 253.6,264.95 12.94,15.23 24.4,28.96 34.06,40.65l175.72 -69.77 -447.01 -723.46c6.26,-26.43 11.72,-52.51 16.46,-78.23l-611.91 217.05z"/>
    <path class="fil14" d="M25501.2 10882.24c-177.9,415.18 -634.97,664.2 -935.79,788.34 -164.4,67.83 -282.12,98.38 -282.12,98.38l-183.28 427.49 521.38 -207.03 1735.99 -689.31 -530.01 -652.29 -380.59 135c33.28,65.02 54.4,99.43 54.4,99.43z"/>
    <path class="fil9" d="M23452.93 12399.18c0,0 -366.35,16.44 -550.16,317.58 -183.81,301.18 -240.32,414.2 -240.32,414.2 0,0 -294.92,-291.95 -76.81,-1196.14 0,0 -44.17,437.09 35.01,781.94 0,0 189.71,-699.2 282.12,-708.32 92.42,-9.13 276.37,45.07 550.16,390.74z"/>
    <path class="fil15" d="M5263.14 19011.22l-10.44 -186.1 -116.96 6.56 -5.88 -105.06 116.96 -6.55 -6.78 -120.8 -116.96 6.56 -5.88 -105.05 116.96 -6.56 -7.34 -130.89 96.35 -5.4 100.37 125.66 202.66 -11.36 -7.34 -130.89 120.43 -6.76 7.34 130.9 116.96 -6.56 5.88 105.05 -116.96 6.56 6.78 120.79 116.96 -6.55 5.88 105.05 -116.96 6.56 10.44 186.1 -96.35 5.4 -142.37 -178.71 -163.75 9.19 10.43 186.1 -120.43 6.75zm193.38 -302.92l-92.41 -115.99 -3.65 0.21 6.78 120.79 89.27 -5.01zm140.2 -7.86l42.13 -2.37 -6.78 -120.8 -127.98 7.19 92.64 115.97z"/>
    <path class="fil15" d="M7869.82 18018.87l46.71 -180.46 -113.41 -29.36 26.36 -101.86 113.41 29.36 30.31 -117.11 -113.4 -29.36 26.36 -101.86 113.4 29.36 32.85 -126.92 93.42 24.18 57.36 150.26 196.49 50.86 32.85 -126.91 116.77 30.22 -32.84 126.92 113.4 29.34 -26.36 101.86 -113.41 -29.34 -30.31 117.11 113.4 29.36 -26.36 101.86 -113.4 -29.36 -46.71 180.45 -93.42 -24.17 -81.22 -213.57 -158.77 -41.09 -46.71 180.45 -116.77 -30.22zm276.42 -229.68l-52.72 -138.61 -3.54 -0.92 -30.31 117.13 86.56 22.41zm135.94 35.18l40.85 10.57 30.31 -117.13 -124.09 -32.12 52.94 138.67z"/>
    <path class="fil15" d="M5208.33 23078.97l-10.44 -186.1 -116.96 6.56 -5.88 -105.06 116.96 -6.55 -6.78 -120.8 -116.96 6.56 -5.88 -105.05 116.96 -6.56 -7.34 -130.89 96.35 -5.4 100.37 125.66 202.66 -11.36 -7.34 -130.89 120.43 -6.76 7.34 130.9 116.96 -6.56 5.88 105.05 -116.96 6.56 6.78 120.79 116.96 -6.55 5.88 105.05 -116.96 6.56 10.44 186.1 -96.35 5.4 -142.37 -178.71 -163.75 9.19 10.43 186.1 -120.43 6.75zm193.38 -302.92l-92.41 -115.99 -3.65 0.21 6.78 120.79 89.27 -5.01zm140.2 -7.86l42.13 -2.37 -6.78 -120.8 -127.98 7.19 92.64 115.97z"/>
    <path class="fil15" d="M10201.37 21082.67l46.71 -180.46 -113.41 -29.36 26.36 -101.86 113.41 29.36 30.31 -117.11 -113.4 -29.36 26.36 -101.86 113.4 29.36 32.85 -126.92 93.42 24.18 57.36 150.26 196.49 50.86 32.85 -126.91 116.77 30.22 -32.84 126.92 113.4 29.34 -26.36 101.86 -113.41 -29.34 -30.31 117.11 113.4 29.36 -26.36 101.86 -113.4 -29.36 -46.71 180.45 -93.42 -24.17 -81.22 -213.57 -158.77 -41.09 -46.71 180.45 -116.77 -30.22zm276.42 -229.68l-52.72 -138.61 -3.54 -0.92 -30.31 117.13 86.56 22.41zm135.94 35.18l40.85 10.57 30.31 -117.13 -124.09 -32.12 52.94 138.67z"/>
    <path class="fil16 str12" d="M7303.93 29190.05l1.05 -283.8 -178.36 -0.66 0.58 -160.2 178.36 0.66 0.68 -184.2 -178.36 -0.65 0.59 -160.2 178.36 0.65 0.73 -199.59 146.93 0.54 141.13 200.12 309.04 1.14 0.73 -199.59 183.65 0.67 -0.73 199.6 178.36 0.66 -0.58 160.2 -178.36 -0.66 -0.68 184.2 178.36 0.65 -0.59 160.2 -178.36 -0.65 -1.04 283.79 -146.93 -0.54 -200.15 -284.53 -249.71 -0.92 -1.04 283.8 -183.66 -0.68zm321.43 -442.82l-129.9 -184.68 -5.56 -0.02 -0.68 184.2 136.14 0.5zm213.79 0.78l64.24 0.24 0.68 -184.2 -195.16 -0.71 130.24 184.67z"/>
   </g>
  </g>
  <polygon class="fil17" points="-0,0 33413.1,0 33413.1,33413.1 -0,33413.1 "/>
 </g>
</svg>
