<?xml version="1.0" encoding="UTF-8"?>
<!DOCTYPE svg PUBLIC "-//W3C//DTD SVG 1.1//EN" "http://www.w3.org/Graphics/SVG/1.1/DTD/svg11.dtd">
<!-- Creator: CorelDRAW -->
<svg xmlns="http://www.w3.org/2000/svg" xml:space="preserve" width="246.933mm" height="246.933mm" version="1.1" style="shape-rendering:geometricPrecision; text-rendering:geometricPrecision; image-rendering:optimizeQuality; fill-rule:evenodd; clip-rule:evenodd"
viewBox="0 0 15062.22 15062.22"
 xmlns:xlink="http://www.w3.org/1999/xlink"
 xmlns:xodm="http://www.corel.com/coreldraw/odm/2003">
 <defs>
  <style type="text/css">
   <![CDATA[
    .fil10 {fill:none}
    .fil5 {fill:#263138;fill-rule:nonzero}
    .fil3 {fill:#32AB62;fill-rule:nonzero}
    .fil9 {fill:#363E44;fill-rule:nonzero}
    .fil2 {fill:#B1E8C7;fill-rule:nonzero}
    .fil0 {fill:#DFF7E5;fill-rule:nonzero}
    .fil6 {fill:#E0AA63;fill-rule:nonzero}
    .fil8 {fill:#E2A18D;fill-rule:nonzero}
    .fil4 {fill:#E6D0BE;fill-rule:nonzero}
    .fil7 {fill:#EFBC73;fill-rule:nonzero}
    .fil1 {fill:white;fill-rule:nonzero}
   ]]>
  </style>
   <clipPath id="id0">
    <path d="M-0 0l15062.22 0 0 15062.22 -15062.22 0 0 -15062.22z"/>
   </clipPath>
 </defs>
 <g id="Layer_x0020_1">
  <metadata id="CorelCorpID_0Corel-Layer"/>
  <g>
  </g>
  <g style="clip-path:url(#id0)">
   <g>
    <g id="_105553710903200">
     <path class="fil0" d="M-0 7531.11c0,4159.31 3371.8,7531.11 7531.11,7531.11 4159.31,0 7531.11,-3371.79 7531.11,-7531.11 0,-4159.31 -3371.79,-7531.11 -7531.11,-7531.11 -4159.31,0 -7531.11,3371.8 -7531.11,7531.11z"/>
     <polygon class="fil1" points="803.98,408.31 8134.01,408.31 8134.01,10279.75 803.98,10279.75 "/>
     <path class="fil2" d="M8418.87 10017.03l-7293.65 0 0 -9835.15 7293.65 0 0 9835.15zm-7311.84 36.3l7330.03 0c10.05,0 18.11,-8.15 18.11,-18.11l0 -9871.49c0,-10.03 -8.06,-18.15 -18.11,-18.15l-7330.03 0c-10.04,0 -18.1,8.12 -18.1,18.15l0 9871.49c0,9.96 8.06,18.11 18.1,18.11z"/>
     <path class="fil2" d="M1544.25 2801.37l5813.03 0 0 -1499.17 -5813.03 0 0 1499.17zm5831.22 36.3l-5849.41 0c-9.95,0 -18.1,-8.11 -18.1,-18.15l0 -1535.47c0,-10.02 8.15,-18.14 18.1,-18.14l5849.41 0c10.04,0 18.11,8.12 18.11,18.14l0 1535.47c0,10.03 -8.07,18.15 -18.11,18.15z"/>
     <polygon class="fil3" points="3370.15,2341.25 3691.07,2341.25 3691.07,2439.39 3247.35,2439.39 3247.35,1732.04 3370.15,1732.04 "/>
     <path class="fil3" d="M4195.36 2067.25c0,-78.39 -14.73,-138.46 -44.36,-180.24 -29.63,-41.78 -71.6,-62.68 -126.01,-62.68 -53.01,0 -94.57,20.82 -124.45,62.44 -29.96,41.61 -45.27,100.48 -45.92,176.6l0 40.79c0,77.75 15.14,137.84 45.43,180.25 30.21,42.43 72.18,63.64 125.93,63.64 54.41,0 96.22,-20.72 125.52,-62.19 29.3,-41.45 43.87,-102.03 43.87,-181.71l0 -36.9zm122.88 36.9c0,69.33 -12.02,130.14 -35.97,182.44 -23.95,52.32 -58.11,92.47 -102.63,120.49 -44.53,28.02 -95.72,42.02 -153.67,42.02 -57.28,0 -108.31,-14 -153.17,-42.02 -44.78,-28.02 -79.43,-67.93 -103.87,-119.76 -24.45,-51.8 -36.79,-111.56 -37.12,-179.26l0 -39.84c0,-69 12.18,-129.89 36.63,-182.68 24.44,-52.77 58.93,-93.18 103.46,-121.2 44.45,-28.02 95.48,-42.05 153.09,-42.05 57.62,0 108.73,13.86 153.18,41.55 44.53,27.7 78.93,67.54 103.21,119.51 24.2,51.99 36.54,112.47 36.87,181.45l0 39.34z"/>
     <path class="fil3" d="M4586.65 2175.58l204.86 0 -102.39 -293.44 -102.47 293.44zm239.35 99.11l-273.83 0 -57.2 164.69 -127.74 0 267 -707.35 110.21 0 267.5 707.35 -128.15 0 -57.78 -164.69z"/>
     <polygon class="fil3" points="5652.7,2439.39 5529.9,2439.39 5214.82,1937.54 5214.82,2439.39 5092.02,2439.39 5092.02,1732.04 5214.82,1732.04 5530.88,2235.84 5530.88,1732.04 5652.7,1732.04 "/>
     <path class="fil3" d="M5334.74 7818.61c-70.62,0 -148.97,50.29 -208.07,108.4 -210.87,207.25 -355.97,481.66 -408.49,772.62 -7.98,44.2 -11.85,91.53 -9.55,137.37 87.66,-5.18 165.85,-57.29 230.79,-107.66 198.61,-153.75 363.06,-353.75 475.58,-578.37 57.12,-114.08 76.3,-254.74 -9.72,-311.7 -21.73,-14.4 -45.68,-20.66 -70.54,-20.66zm-110.04 844.31c-1.73,0 -3.54,0.08 -5.35,0.24 -29.55,2.71 -66.17,28.07 -85.27,58.94 -47.33,76.62 -52.35,175.07 -17.86,256.38 50.87,-55.23 89.06,-123.71 123.54,-185.6 30.7,-55.06 36.13,-94.24 16.13,-116.38 -8.23,-9.13 -18.43,-13.58 -31.19,-13.58zm389.15 190.38c-43.3,26.99 -75.47,74.48 -87.9,131.11 -7,31.93 -7.08,63.79 -0.82,93.17 63.05,-55.15 98.44,-141.82 88.73,-224.29zm97.21 402.64c-68.23,0 -131.44,-26.25 -172.76,-72.76 -12.76,-14.24 -23.29,-30.37 -31.6,-47.74 -7.25,4.28 -14.65,8.23 -22.23,11.77 -117.86,55.15 -270.71,20.91 -355.65,-79.5 -7.9,-9.39 -15.22,-19.26 -21.89,-29.63 -3.29,2.88 -6.67,5.76 -10.04,8.48 -73.5,59.59 -191.28,97.94 -288.41,49.3 -90.78,-45.35 -124.2,-136.96 -133.67,-223.46 -84.94,-8.72 -171.85,-64.53 -184.86,-155.15 -1.4,-9.96 5.51,-19.1 15.47,-20.5 9.88,-1.48 19.1,5.43 20.5,15.39 9.79,68.23 77.7,113.91 146.26,123.38 -2.39,-60.33 5.18,-114.16 10.28,-142.31 53.83,-298.37 202.56,-579.61 418.78,-792.04 90.12,-88.57 222.56,-159.35 324.04,-92.18 111.78,73.99 81.74,239.26 22.14,358.28 -114.9,229.39 -282.89,433.76 -485.78,590.81 -69.05,53.49 -152.76,108.97 -249.89,115.06 10.53,82.55 43.87,155.73 112.92,190.29 82.8,41.4 184.86,7.16 249.31,-45.11 5.11,-4.03 10.05,-8.31 14.82,-12.59 -45.19,-94.33 -41.56,-212.11 14.41,-302.64 25.35,-41.08 71.77,-72.27 112.84,-76.06 26.58,-2.46 49.71,6.26 66.75,25.11 31.61,34.98 27.74,88.23 -11.36,158.44 -37.53,67.33 -79.27,142.23 -137.62,202.15 6.75,11.03 14.32,21.56 22.72,31.52 74.65,88.4 208.98,118.52 312.52,70.04 8.48,-3.95 16.71,-8.4 24.53,-13.33 -11.11,-38.68 -12.43,-81.57 -3.13,-124.29 16.88,-76.79 65.35,-139.51 129.8,-167.66 4.93,-2.14 10.53,-1.98 15.39,0.49 4.86,2.38 8.31,6.83 9.55,12.1 24.36,106.83 -21.81,225.11 -108.15,293.09 7.15,16.3 16.71,31.28 28.31,44.36 39.01,43.87 101.97,66.01 168.89,59.43 66.67,-6.67 124.2,-40.91 153.76,-91.61 5.1,-8.64 16.21,-11.6 24.85,-6.5 8.64,5.02 11.52,16.13 6.5,24.78 -35.47,60.74 -103.29,101.65 -181.48,109.47 -9.05,0.82 -17.95,1.32 -26.83,1.32z"/>
     <polygon class="fil2" points="3055.24,6530.5 5284.95,6530.5 5284.95,6667.38 3055.24,6667.38 "/>
     <polygon class="fil2" points="3401.27,6872.57 6142.42,6872.57 6142.42,7009.44 3401.27,7009.44 "/>
     <polygon class="fil2" points="3055.24,7214.55 5692.62,7214.55 5692.62,7351.51 3055.24,7351.51 "/>
     <polygon class="fil2" points="3645.3,5024.3 6403.59,5024.3 6403.59,5161.22 3645.3,5161.22 "/>
     <polygon class="fil2" points="2980.67,5366.36 5618.04,5366.36 5618.04,5503.31 2980.67,5503.31 "/>
     <polygon class="fil2" points="2980.67,5708.42 6077.56,5708.42 6077.56,5845.29 2980.67,5845.29 "/>
     <polygon class="fil2" points="3655.1,3609.33 6077.56,3609.33 6077.56,3746.24 3655.1,3746.24 "/>
     <polygon class="fil2" points="2990.38,3951.37 5618.04,3951.37 5618.04,4088.29 2990.38,4088.29 "/>
     <polygon class="fil2" points="2990.38,4293.42 6403.59,4293.42 6403.59,4430.34 2990.38,4430.34 "/>
     <path class="fil2" d="M1544.25 7476.05l1070.65 0 0 -1070.07 -1070.65 0 0 1070.07zm1088.76 36.29l-1106.95 0c-9.95,0 -18.1,-8.06 -18.1,-18.1l0 -1106.46c0,-10.04 8.15,-18.1 18.1,-18.1l1106.95 0c10.04,0 18.2,8.06 18.2,18.1l0 1106.46c0,10.04 -8.16,18.1 -18.2,18.1z"/>
     <polygon class="fil3" points="2020.15,7326.99 1673.64,7011.83 1780.72,6879.9 2000.39,7055.45 2345.18,6555.03 2485.52,6651.66 "/>
     <path class="fil2" d="M1544.25 5969.9l1070.65 0 0 -1070.16 -1070.65 0 0 1070.16zm1088.76 36.3l-1106.95 0c-9.95,0 -18.1,-8.15 -18.1,-18.19l0 -1106.41c0,-10.03 8.15,-18.15 18.1,-18.15l1106.95 0c10.04,0 18.2,8.11 18.2,18.15l0 1106.41c0,10.04 -8.16,18.19 -18.2,18.19z"/>
     <polygon class="fil3" points="2020.15,5820.77 1673.64,5505.69 1780.72,5373.71 2000.39,5549.32 2345.18,5048.87 2485.52,5145.42 "/>
     <path class="fil2" d="M1544.25 4554.89l1070.65 0 0 -1070.12 -1070.65 0 0 1070.12zm1088.76 36.3l-1106.95 0c-9.95,0 -18.1,-8.12 -18.1,-18.15l0 -1106.41c0,-10.03 8.15,-18.15 18.1,-18.15l1106.95 0c10.04,0 18.2,8.12 18.2,18.15l0 1106.41c0,10.03 -8.16,18.15 -18.2,18.15z"/>
     <polygon class="fil3" points="2020.15,4405.78 1673.64,4090.7 1780.72,3958.73 2000.39,4134.32 2345.18,3633.89 2485.52,3730.44 "/>
     <polygon class="fil4" points="10015.1,2917.8 8908.69,2917.8 8908.69,3126.27 10015.1,3126.27 "/>
     <polygon class="fil4" points="9847.75,3022.04 9076.01,3022.04 9076.01,5374.1 9847.75,5374.1 "/>
     <polygon class="fil4" points="11333.2,2917.8 10226.78,2917.8 10226.78,3126.27 11333.2,3126.27 "/>
     <polygon class="fil4" points="11165.85,3022.04 10394.14,3022.04 10394.14,5959.28 11165.85,5959.28 "/>
     <polygon class="fil3" points="12648.94,2917.8 11542.52,2917.8 11542.52,3126.27 12648.94,3126.27 "/>
     <polygon class="fil3" points="12648.94,5960.6 11542.52,5960.6 11542.52,6169.09 12648.94,6169.09 "/>
     <polygon class="fil3" points="12481.59,3022.04 11709.87,3022.04 11709.87,6076.25 12481.59,6076.25 "/>
     <polygon class="fil3" points="11333.2,2917.8 10226.78,2917.8 10226.78,3126.27 11333.2,3126.27 "/>
     <polygon class="fil3" points="11333.2,5960.6 10226.78,5960.6 10226.78,6169.09 11333.2,6169.09 "/>
     <polygon class="fil3" points="11165.85,3022.04 10394.14,3022.04 10394.14,6076.25 11165.85,6076.25 "/>
     <polygon class="fil3" points="10015.1,2917.8 8908.69,2917.8 8908.69,3126.27 10015.1,3126.27 "/>
     <polygon class="fil3" points="10015.1,5960.6 8908.69,5960.6 8908.69,6169.09 10015.1,6169.09 "/>
     <polygon class="fil3" points="9847.75,3022.04 9076.01,3022.04 9076.01,6076.25 9847.75,6076.25 "/>
     <polygon class="fil3" points="13967.05,6296.5 8917.08,6296.5 8917.08,6679.14 13967.05,6679.14 "/>
     <polygon class="fil3" points="14106.13,6799.73 8790.08,6799.73 8790.08,7308.22 14106.13,7308.22 "/>
     <polygon class="fil3" points="14292.73,7431.68 8599.7,7431.68 8599.7,7958.78 14292.73,7958.78 "/>
     <polygon class="fil3" points="13967.05,2917.8 12860.62,2917.8 12860.62,3126.27 13967.05,3126.27 "/>
     <polygon class="fil3" points="13967.05,5960.6 12860.62,5960.6 12860.62,6169.09 13967.05,6169.09 "/>
     <polygon class="fil3" points="13799.69,3022.04 13027.98,3022.04 13027.98,6076.25 13799.69,6076.25 "/>
     <polygon class="fil3" points="11416.41,380.74 8854.61,2111.48 13978.25,2111.48 "/>
     <polygon class="fil3" points="13978.25,2324.98 8854.61,2324.98 8854.61,2757.67 13978.25,2757.67 "/>
     <polygon class="fil1" points="4379.07,14104.33 231.7,12319.08 781.42,11042.08 1091.89,10827.19 1050.82,10416.22 1290.82,9858.67 5438.12,11643.92 5198.19,12201.38 4906.17,12407.15 4928.8,12827.25 "/>
     <path class="fil5" d="M5480.84 11768.86l-1044.81 2427.08 -4114.04 -1770.84 1044.81 -2427.15 4114.04 1770.92zm-1025.79 2474.73l1073.45 -2493.75 -16.71 -7.16 -4164.01 -1792.41 -1073.45 2493.83 16.71 7.16 4164.01 1792.32z"/>
     <polygon class="fil5" points="4928.8,12827.25 781.42,11042.08 1050.82,10416.22 5198.19,12201.38 "/>
     <path class="fil6" d="M3861.03 14574.22c0,195.72 501.16,354.33 1119.46,354.33 618.29,0 1119.55,-158.6 1119.55,-354.33 0,-195.73 -501.26,-354.42 -1119.55,-354.42 -618.29,0 -1119.46,158.69 -1119.46,354.42z"/>
     <polygon class="fil6" points="6100.04,14221.12 3861.03,14221.12 3861.03,14586.24 6100.04,14586.24 "/>
     <path class="fil7" d="M3861.03 14228.03c0,195.73 501.16,354.42 1119.46,354.42 618.29,0 1119.55,-158.69 1119.55,-354.42 0,-195.72 -501.26,-354.33 -1119.55,-354.33 -618.29,0 -1119.46,158.61 -1119.46,354.33z"/>
     <path class="fil1" d="M4848.64 13891.81c596.97,0 1101.35,153.99 1101.35,336.22 0,182.31 -504.38,336.31 -1101.35,336.31 -596.98,0 -1101.35,-153.99 -1101.35,-336.31 0,-182.23 504.37,-336.22 1101.35,-336.22zm0 708.83c637.96,0 1137.65,-163.62 1137.65,-372.61 0,-208.89 -499.68,-372.52 -1137.65,-372.52 -637.96,0 -1137.65,163.63 -1137.65,372.52 0,208.98 499.69,372.61 1137.65,372.61z"/>
     <path class="fil6" d="M3677.16 14059.31c0,195.72 501.16,354.41 1119.46,354.41 618.29,0 1119.54,-158.69 1119.54,-354.41 0,-195.73 -501.25,-354.42 -1119.54,-354.42 -618.3,0 -1119.46,158.69 -1119.46,354.42z"/>
     <polygon class="fil6" points="5916.16,13706.29 3677.16,13706.29 3677.16,14071.4 5916.16,14071.4 "/>
     <path class="fil7" d="M3677.16 13713.2c0,195.73 501.16,354.41 1119.46,354.41 618.29,0 1119.54,-158.68 1119.54,-354.41 0,-195.73 -501.25,-354.42 -1119.54,-354.42 -618.3,0 -1119.46,158.69 -1119.46,354.42z"/>
     <path class="fil1" d="M4874.81 13334.34c596.97,0 1101.27,153.99 1101.27,336.22 0,182.31 -504.29,336.31 -1101.27,336.31 -597.06,0 -1101.44,-154 -1101.44,-336.31 0,-182.23 504.38,-336.22 1101.44,-336.22zm0 708.83c637.88,0 1137.57,-163.63 1137.57,-372.61 0,-208.9 -499.69,-372.52 -1137.57,-372.52 -637.96,0 -1137.74,163.62 -1137.74,372.52 0,208.98 499.77,372.61 1137.74,372.61z"/>
     <path class="fil6" d="M3861.03 13420.44c0,195.73 501.16,354.42 1119.46,354.42 618.29,0 1119.55,-158.69 1119.55,-354.42 0,-195.73 -501.26,-354.41 -1119.55,-354.41 -618.29,0 -1119.46,158.68 -1119.46,354.41z"/>
     <polygon class="fil6" points="6100.04,13067.42 3861.03,13067.42 3861.03,13432.53 6100.04,13432.53 "/>
     <path class="fil7" d="M3861.03 13074.33c0,195.73 501.16,354.42 1119.46,354.42 618.29,0 1119.55,-158.69 1119.55,-354.42 0,-195.72 -501.26,-354.41 -1119.55,-354.41 -618.29,0 -1119.46,158.69 -1119.46,354.41z"/>
     <path class="fil1" d="M4848.64 12738.11c596.97,0 1101.35,153.91 1101.35,336.22 0,182.23 -504.38,336.23 -1101.35,336.23 -596.98,0 -1101.35,-154 -1101.35,-336.23 0,-182.31 504.37,-336.22 1101.35,-336.22zm0 708.75c637.96,0 1137.65,-163.63 1137.65,-372.53 0,-208.89 -499.68,-372.52 -1137.65,-372.52 -637.96,0 -1137.65,163.63 -1137.65,372.52 0,208.9 499.69,372.53 1137.65,372.53z"/>
     <path class="fil6" d="M3498.3 12907.41c0,195.73 501.25,354.42 1119.55,354.42 618.29,0 1119.46,-158.69 1119.46,-354.42 0,-195.72 -501.17,-354.41 -1119.46,-354.41 -618.3,0 -1119.55,158.69 -1119.55,354.41z"/>
     <polygon class="fil6" points="5737.3,12554.4 3498.3,12554.4 3498.3,12919.51 5737.3,12919.51 "/>
     <path class="fil7" d="M3498.3 12561.31c0,195.73 501.25,354.41 1119.55,354.41 618.29,0 1119.46,-158.68 1119.46,-354.41 0,-195.73 -501.17,-354.42 -1119.46,-354.42 -618.3,0 -1119.55,158.69 -1119.55,354.42z"/>
     <path class="fil1" d="M4485.91 12225.01c597.06,0 1101.35,153.99 1101.35,336.31 0,182.22 -504.29,336.22 -1101.35,336.22 -596.97,0 -1101.35,-154 -1101.35,-336.22 0,-182.31 504.38,-336.31 1101.35,-336.31zm0 708.83c637.96,0 1137.65,-163.63 1137.65,-372.52 0,-208.9 -499.69,-372.52 -1137.65,-372.52 -637.88,0 -1137.65,163.62 -1137.65,372.52 0,208.89 499.77,372.52 1137.65,372.52z"/>
     <path class="fil6" d="M1306.22 14586.81c0,195.73 501.25,354.33 1119.54,354.33 618.29,0 1119.46,-158.6 1119.46,-354.33 0,-195.73 -501.17,-354.41 -1119.46,-354.41 -618.29,0 -1119.54,158.68 -1119.54,354.41z"/>
     <polygon class="fil6" points="3545.22,14233.71 1306.22,14233.71 1306.22,14598.83 3545.22,14598.83 "/>
     <path class="fil7" d="M1306.22 14240.63c0,195.73 501.25,354.42 1119.54,354.42 618.29,0 1119.46,-158.69 1119.46,-354.42 0,-195.73 -501.17,-354.33 -1119.46,-354.33 -618.29,0 -1119.54,158.6 -1119.54,354.33z"/>
     <path class="fil1" d="M2293.82 13904.4c597.06,0 1101.36,154 1101.36,336.23 0,182.31 -504.3,336.31 -1101.36,336.31 -596.97,0 -1101.35,-154 -1101.35,-336.31 0,-182.23 504.38,-336.23 1101.35,-336.23zm0 708.83c637.97,0 1137.65,-163.7 1137.65,-372.6 0,-208.9 -499.68,-372.52 -1137.65,-372.52 -637.88,0 -1137.65,163.62 -1137.65,372.52 0,208.9 499.77,372.6 1137.65,372.6z"/>
     <path class="fil6" d="M1438.15 14056.26c0,195.23 501.17,353.43 1119.46,353.43 618.29,0 1119.54,-158.2 1119.54,-353.43 0,-195.15 -501.25,-353.42 -1119.54,-353.42 -618.29,0 -1119.46,158.28 -1119.46,353.42z"/>
     <polygon class="fil6" points="3677.16,13704.14 1438.15,13704.14 1438.15,14068.36 3677.16,14068.36 "/>
     <path class="fil7" d="M1438.15 13711.06c0,195.23 501.17,353.42 1119.46,353.42 618.29,0 1119.54,-158.19 1119.54,-353.42 0,-195.15 -501.25,-353.34 -1119.54,-353.34 -618.29,0 -1119.46,158.2 -1119.46,353.34z"/>
     <path class="fil1" d="M2425.76 13375.82c596.97,0 1101.35,153.51 1101.35,335.24 0,181.73 -504.38,335.32 -1101.35,335.32 -596.97,0 -1101.35,-153.58 -1101.35,-335.32 0,-181.73 504.38,-335.24 1101.35,-335.24zm0 706.86c637.88,0 1137.65,-163.22 1137.65,-371.62 0,-208.32 -499.77,-371.53 -1137.65,-371.53 -637.96,0 -1137.65,163.21 -1137.65,371.53 0,208.4 499.69,371.62 1137.65,371.62z"/>
     <path class="fil6" d="M2227.4 13774.6c139.1,137.7 604.63,-106.59 1039.71,-545.78 435.16,-439.11 675.16,-906.78 536.06,-1044.56 -139.1,-137.69 -604.54,106.59 -1039.7,545.78 -435.15,439.11 -675.16,906.78 -536.07,1044.56z"/>
     <polygon class="fil6" points="2236.04,13783.08 3811.73,12192.83 3552.3,11935.86 1976.53,13526.12 "/>
     <path class="fil7" d="M1981.46 13530.97c139.1,137.78 604.55,-106.59 1039.71,-545.7 435.16,-439.19 675.09,-906.78 536.07,-1044.56 -139.1,-137.78 -604.63,106.59 -1039.71,545.69 -435.15,439.2 -675.16,906.86 -536.07,1044.56z"/>
     <path class="fil1" d="M3352.62 12013.56c42.22,0 75.89,10.86 99.01,33.74 60.25,59.67 39.84,201.16 -56.05,388.08 -100.41,195.65 -270.96,419.68 -480.1,630.8 -420.18,423.97 -884.56,673.77 -1014.11,545.53 -60.25,-59.67 -39.84,-201.08 56.14,-388 100.41,-195.73 270.87,-419.76 480.01,-630.8 345.28,-348.49 720.52,-579.36 915.1,-579.36zm-1352.89 1667.13c210.05,0 581.83,-226.02 941.51,-588.99 211.7,-213.67 384.54,-440.92 486.6,-639.77 105.19,-204.95 122.63,-357.79 49.3,-430.47 -148.48,-146.92 -616.39,92.76 -1065.38,545.86 -211.7,213.67 -384.54,440.92 -486.6,639.78 -105.1,204.94 -122.64,357.78 -49.3,430.46l12.76 -12.92 -12.76 12.92c29.55,29.22 71.69,43.13 123.87,43.13z"/>
     <path class="fil3" d="M10801.14 13531.38l-116.64 1496.34 -2310.81 0c91.45,-909.16 206.59,-2981.91 503.56,-4360.06 919.88,-168.65 2176.42,-337.3 3096.31,-505.94 377.75,584.46 1311.63,3479.78 1679.74,4866l-2469.76 0 -382.4 -1496.34z"/>
     <polygon class="fil1" points="10384.38,12018.42 10176.02,13226.27 8520.03,12610.61 8629.66,12007.39 "/>
     <polygon class="fil1" points="10362.45,12067.71 10570.83,13208.33 12900.11,12323.37 12790.44,11720.13 "/>
     <path class="fil8" d="M6679.97 10024.44c-554.17,-53.58 -1807.79,-176.14 -1935.37,-189.72 -238.36,-25.34 -1396.75,-136.3 -1415.03,31.94 -11.6,107.41 566.27,173.75 666.03,193.18 -122.15,7.48 -750.15,-52.76 -770.56,43.78 -22.14,104.77 770.97,252.11 776.82,254.99 -87.08,-5.18 -724.47,-56.62 -728.74,36.71 -5.02,108.32 652.28,219.93 760.27,232.19 -9.71,11.94 -472.69,-52.35 -491.78,52.35 -17.04,93.34 508,188.15 578.54,211.78 185.85,56.54 536.06,112.19 930.48,195.4 926.45,195.56 1366.54,245.85 1831.08,261.41 334.67,11.19 631.3,-355.24 809,-714.84 -279.51,-278.03 -516.64,-376.47 -1010.73,-609.15z"/>
     <path class="fil9" d="M4520.06 10297.95c9.55,0 17.62,-7.58 18.11,-17.29 0.49,-10.04 -7.25,-18.52 -17.29,-19.01 -535.49,-26.67 -556.97,-92.76 -557.63,-100.25 -0.66,-6.67 6.75,-68.73 450.13,-181.41 9.72,-2.47 15.64,-12.35 13.17,-22.06 -2.46,-9.71 -12.51,-15.55 -22.06,-13.08 -486.27,123.54 -479.85,193.5 -477.47,219.84 2.64,28.48 9.55,104.21 592.04,133.18 0.33,0.09 0.66,0.09 0.99,0.09z"/>
     <path class="fil5" d="M10444.71 7711.12c0,0 -805.89,-327.5 -973.12,-246.43 -1084.73,525.61 -2456.05,2066.81 -2717.29,2316.45 41.65,51.77 -1623.1,-54.9 -1623.1,-54.9l-54.9 1535.44c0,0 1432.88,339.11 2379.91,164.45 689.74,-127.17 997.97,-811.55 1052.79,-976 -26.09,838.63 21.98,1381.77 54.9,1842.45 954.1,296.06 3125.57,98.69 4244.2,-329.06 -22.06,-359.93 -118.35,-1715.37 -134.79,-2219.91 33.35,12.84 354.14,147.17 354.14,147.17l-1096.71 1019.95 1151.55 1162.5c0,0 1960.19,-1755.44 1919.23,-2566.34 -43.75,-866.2 -2007.45,-1954.13 -3778.57,-2198.59 -448.9,-61.89 -778.24,402.81 -778.24,402.81z"/>
     <path class="fil1" d="M9471.83 7464.77c167.12,-80.99 327.54,-138.11 475.95,-162.39 389.84,-63.78 826.46,-55.96 1275.44,6.01 1.79,30.04 1.84,60.33 -0.43,91.03 -31.44,425.78 -451.98,741.92 -939.31,705.87 -410.82,-30.29 -737.91,-301.17 -811.66,-640.52z"/>
     <polygon class="fil1" points="6888.29,8904.73 8044.95,9278.16 7757.79,9754.06 "/>
     <polygon class="fil3" points="7249.62,9259.72 6885.16,8903.67 7370.03,9060.21 "/>
     <path class="fil7" d="M13669.36 12996.55l0 0c79.3,-131.45 37.04,-302.31 -94.37,-381.58l-5530.03 -3336.81 -287.17 475.9 5530.04 3336.81c131.42,79.35 302.24,37.04 381.54,-94.32z"/>
     <path class="fil9" d="M12784.93 12388.39c6.15,0 12.15,-3.13 15.55,-8.73 5.19,-8.56 2.43,-19.75 -6.15,-24.94l-4844.52 -2923.23c-8.56,-5.18 -19.75,-2.38 -24.94,6.17 -5.19,8.56 -2.39,19.76 6.17,24.94l4844.53 2923.22c2.94,1.73 6.17,2.56 9.36,2.56z"/>
     <path class="fil9" d="M12661.52 12592.92c6.16,0 12.15,-3.13 15.57,-8.81 5.18,-8.56 2.41,-19.67 -6.17,-24.86l-4844.57 -2923.22c-8.56,-5.18 -19.67,-2.47 -24.86,6.17 -5.18,8.56 -2.47,19.75 6.17,24.86l4844.5 2923.22c2.94,1.81 6.17,2.64 9.36,2.64z"/>
     <path class="fil9" d="M12600.38 12694.24c6.15,0 12.15,-3.13 15.55,-8.81l287.16 -475.9c5.18,-8.56 2.43,-19.76 -6.15,-24.86 -8.57,-5.27 -19.74,-2.47 -24.92,6.09l-287.16 475.98c-5.19,8.56 -2.43,19.67 6.15,24.86 2.94,1.81 6.17,2.64 9.36,2.64z"/>
     <path class="fil9" d="M12888.61 12868.15c6.15,0 12.15,-3.13 15.55,-8.81l287.17 -475.9c5.18,-8.56 2.43,-19.67 -6.17,-24.86 -8.56,-5.18 -19.73,-2.47 -24.91,6.17l-287.16 475.9c-5.18,8.56 -2.43,19.76 6.16,24.86 2.93,1.81 6.16,2.64 9.36,2.64z"/>
     <path class="fil8" d="M12060.42 10831.3c0,0 -511.9,374.42 -558.48,410.96 -215.6,168.89 -685.09,515.98 -602.16,684.71 27.58,56.06 92.51,91.45 167.12,95.81 -22.84,76.87 1.49,159.01 61.02,207.58 78.21,63.71 174.67,34.57 181.7,32.26 -25.36,56.72 -21.09,121.07 13.27,166.02 47.41,61.98 146.34,79.26 226.36,29.22 1.59,17.53 9.44,79.75 60.69,125.03 56.8,50.13 143.95,59.18 220.51,22.47 191.68,-149.97 1120.22,-729.57 1120.22,-729.57l-890.26 -1044.48z"/>
     <path class="fil9" d="M11257.3 11774.79c4.31,0 8.64,-1.48 12.1,-4.61 7.47,-6.67 8.1,-18.19 1.42,-25.59l-80.38 -89.8c-6.69,-7.49 -18.16,-8.15 -25.63,-1.48 -7.47,6.75 -8.09,18.19 -1.42,25.68l80.39 89.79c3.59,3.95 8.55,6.01 13.53,6.01z"/>
     <path class="fil9" d="M11460.93 12002.94c4.31,0 8.63,-1.48 12.1,-4.61 7.47,-6.67 8.1,-18.19 1.42,-25.59l-80.37 -89.8c-6.67,-7.49 -18.16,-8.15 -25.63,-1.48 -7.45,6.75 -8.1,18.19 -1.42,25.68l80.37 89.8c3.59,4.03 8.56,6.01 13.54,6.01z"/>
     <path class="fil9" d="M11665.74 12237.6c4.31,0 8.63,-1.56 12.1,-4.69 7.47,-6.67 8.1,-18.1 1.42,-25.6l-80.38 -89.79c-6.69,-7.49 -18.16,-8.06 -25.63,-1.4 -7.47,6.67 -8.1,18.19 -1.42,25.59l80.38 89.8c3.59,4.03 8.55,6.09 13.53,6.09z"/>
     <path class="fil9" d="M11855.86 12446.58c4.3,0 8.63,-1.57 12.1,-4.7 7.46,-6.66 8.1,-18.1 1.42,-25.59l-80.39 -89.8c-6.7,-7.49 -18.14,-8.15 -25.62,-1.4 -7.48,6.67 -8.1,18.1 -1.42,25.59l80.39 89.8c3.57,4.03 8.54,6.09 13.53,6.09z"/>
     <polygon class="fil1" points="10139.45,7975.24 10417.29,7785.11 10680.51,8304.22 11053.38,7375.63 "/>
     <path class="fil9" d="M10680.49 8322.33c0.26,0 0.52,0 0.79,0 7.12,-0.33 13.4,-4.77 16.05,-11.36l372.88 -928.5c3.74,-9.3 -0.76,-19.92 -10.08,-23.62 -9.28,-3.7 -19.85,0.74 -23.59,10.04l-357.96 891.39 -245.1 -483.39c-2.37,-4.61 -6.63,-8.06 -11.69,-9.38 -5.03,-1.24 -10.44,-0.33 -14.74,2.63l-277.84 190.13c-8.28,5.59 -10.41,16.95 -4.75,25.19 5.66,8.31 16.97,10.37 25.22,4.77l260.76 -178.44 253.85 500.68c3.1,6.09 9.38,9.88 16.19,9.88z"/>
     <polygon class="fil1" points="9885.39,7779.59 9528.95,8157.96 9594.76,7467.07 "/>
     <path class="fil9" d="M9528.95 8176.15c4.86,0 9.71,-1.98 13.25,-5.76l356.4 -378.28c6.86,-7.33 6.53,-18.85 -0.77,-25.69 -7.28,-6.91 -18.77,-6.58 -25.66,0.74l-320.17 339.85 60.83 -638.21c0.96,-9.95 -6.37,-18.85 -16.35,-19.83 -9.83,-1.32 -18.81,6.42 -19.79,16.38l-65.77 690.97c-0.74,7.66 3.46,14.97 10.54,18.19 2.38,1.07 4.94,1.65 7.49,1.65z"/>
     <polygon class="fil8" points="10852.11,7294.48 9980.19,7967.75 9980.19,5703.23 10852.11,5703.23 "/>
     <path class="fil8" d="M9665.96 6743.59c132.31,183.79 740.98,15.64 740.98,15.64l484.24 -494.17c103.02,-301.49 -57.84,-629.4 -359.31,-732.45 -301.47,-102.99 -629.37,57.86 -732.4,359.35 0,0 -268.3,664.47 -133.51,851.63z"/>
     <path class="fil8" d="M9813.16 6056.9c0,0 -207.92,108.07 -214.25,153.26 -7.55,53.83 152.46,142.97 152.46,142.97 0,0 57.59,-297.21 61.8,-296.22z"/>
     <path class="fil9" d="M9982.43 6855.94c0.27,0 0.56,0 0.82,0 77.32,-3.46 258.68,-27.99 327.49,-40 9.88,-1.73 16.48,-11.11 14.76,-20.99 -1.73,-9.88 -11.21,-16.38 -21,-14.73 -66.27,11.52 -248.17,36.13 -322.86,39.51 -10.01,0.41 -17.76,8.89 -17.33,18.93 0.44,9.72 8.47,17.29 18.12,17.29z"/>
     <path class="fil1" d="M10380.93 6182.34c0,0 -81.74,-88.07 -202.48,-129.3 -25.69,-8.81 -47.47,213.26 -19.11,209.96 124.7,-14.49 221.59,-80.66 221.59,-80.66z"/>
     <path class="fil5" d="M10159.63 6263.01c40.98,-60.13 50.4,-139.35 18.81,-209.99 -25.69,-8.77 -53.13,-15.43 -81.93,-18.67 -164.19,-18.43 -310.18,81.16 -310.18,81.16 0,0 120.23,129.64 284.43,148.07 30.53,3.43 60.42,2.77 88.87,-0.57z"/>
     <path class="fil9" d="M9905.99 6525.15c8.59,0 17.26,-0.99 25.81,-3.13 39.1,-9.88 69.88,-41.81 78.38,-81.48 2.1,-9.8 -4.14,-19.43 -13.94,-21.57 -9.8,-2.14 -19.43,4.2 -21.54,13.91 -5.62,26.25 -25.94,47.41 -51.75,53.91 -26.74,6.75 -55.25,-3.04 -72.57,-24.86 -6.25,-7.82 -17.66,-9.14 -25.5,-2.96 -7.85,6.26 -9.17,17.7 -2.95,25.52 20.64,26.01 51.87,40.66 84.07,40.66z"/>
     <path class="fil9" d="M10649.26 6488.94c4.28,0 8.59,-1.48 12.05,-4.53 47.5,-42.22 76.54,-93.75 77.67,-138.03 0.56,-21.89 -5.79,-40.09 -18.4,-52.43 -31.72,-31.27 -98.77,-20.17 -146.55,-1.15 -9.31,3.7 -13.86,14.24 -10.16,23.54 3.71,9.3 14.24,13.83 23.57,10.2 52.98,-21.15 95.03,-19.26 107.67,-6.75 5.18,5.1 7.88,14.24 7.58,25.67 -0.68,26.51 -18.24,69.8 -65.5,111.78 -7.5,6.67 -8.17,18.11 -1.52,25.59 3.58,4.04 8.57,6.09 13.58,6.09z"/>
     <path class="fil5" d="M10831.29 6677.42c126.19,-9.38 247.43,-329.15 257.73,-383.8 35.65,-189.22 62.02,-374.58 -84.99,-603.22 -197.87,-307.75 -597.7,-290.62 -685.44,-279.66 -237.95,29.75 -438.67,191.92 -411.26,268.71 23.63,66.18 274.54,70.04 349.12,76.71 180.48,16.3 266.03,-6.25 299.77,47.58 30.9,49.3 -50.88,110.45 -89.57,262.31 -28.65,112.34 -10.97,205.6 -1.82,264.12 37.46,-99.68 123.39,-161.73 207.45,-162.72 87.75,-0.99 134.22,66.67 154.46,126.17 45.7,134.33 -42.04,274.17 -149.88,336.31 28.33,28.31 112.19,50.62 154.44,47.49z"/>
     <path class="fil5" d="M10998.54 5679.44c0,143.87 116.61,260.42 260.47,260.42 143.85,0 260.47,-116.55 260.47,-260.42 0,-143.87 -116.62,-260.48 -260.47,-260.48 -143.86,0 -260.47,116.6 -260.47,260.48z"/>
     <path class="fil5" d="M11283.69 5544.05c133.62,0 242.32,108.73 242.32,242.31 0,133.58 -108.7,242.32 -242.32,242.32 -133.61,0 -242.32,-108.73 -242.32,-242.32 0,-133.58 108.7,-242.31 242.32,-242.31zm0 520.92c153.62,0 278.6,-125.02 278.6,-278.61 0,-153.66 -124.98,-278.61 -278.6,-278.61 -153.63,0 -278.61,124.95 -278.61,278.61 0,153.59 124.98,278.61 278.61,278.61z"/>
     <path class="fil5" d="M10214.01 6225.55c5.88,0 11.65,-2.88 15.14,-8.15 5.54,-8.31 3.25,-19.59 -5.09,-25.19 -140.73,-93.25 -162.91,-150.7 -156.73,-182.47 4.82,-24.77 27.86,-41.23 52.27,-58.69 27.05,-19.42 57.72,-41.32 61.3,-78.27 6.62,-68.15 -108.45,-139.68 -206.16,-187.74 -8.98,-4.36 -19.87,-0.66 -24.28,8.31 -4.43,8.97 -0.72,19.83 8.27,24.28 141.44,69.55 188.62,125.19 186.05,151.69 -1.99,20.5 -22.53,35.15 -46.31,52.18 -27.74,19.84 -59.19,42.39 -66.77,81.32 -12.23,62.8 44.14,134.74 172.3,219.68 3.07,2.06 6.56,3.04 10.01,3.04z"/>
    </g>
   </g>
  </g>
  <polygon class="fil10" points="-0,0 15062.22,0 15062.22,15062.22 -0,15062.22 "/>
 </g>
</svg>
