<?xml version="1.0" encoding="UTF-8"?>
<!DOCTYPE svg PUBLIC "-//W3C//DTD SVG 1.1//EN" "http://www.w3.org/Graphics/SVG/1.1/DTD/svg11.dtd">
<!-- Creator: CorelDRAW -->
<svg xmlns="http://www.w3.org/2000/svg" xml:space="preserve" width="5.45604in" height="5.45604in" version="1.1" style="shape-rendering:geometricPrecision; text-rendering:geometricPrecision; image-rendering:optimizeQuality; fill-rule:evenodd; clip-rule:evenodd"
viewBox="0 0 5706.97 5706.97"
 xmlns:xlink="http://www.w3.org/1999/xlink"
 xmlns:xodm="http://www.corel.com/coreldraw/odm/2003">
 <defs>
  <style type="text/css">
   <![CDATA[
    .fil17 {fill:none}
    .fil12 {fill:black}
    .fil15 {fill:#1F592F}
    .fil6 {fill:#333333}
    .fil2 {fill:#399452}
    .fil13 {fill:#AFBBC3}
    .fil0 {fill:#DAE6DD}
    .fil9 {fill:#F3A500}
    .fil7 {fill:#F4AC0A}
    .fil4 {fill:#F5AA00}
    .fil10 {fill:#F5AD00}
    .fil5 {fill:#F5CB4C}
    .fil3 {fill:#F5CD53}
    .fil8 {fill:#F6A900}
    .fil11 {fill:#F6AB00}
    .fil14 {fill:#FBC543}
    .fil16 {fill:#FEFEF9}
    .fil1 {fill:#FEFEFE}
   ]]>
  </style>
   <clipPath id="id0">
    <path d="M-0 0l5706.97 0 0 5706.97 -5706.97 0 0 -5706.97z"/>
   </clipPath>
 </defs>
 <g id="Layer_x0020_1">
  <metadata id="CorelCorpID_0Corel-Layer"/>
  <g>
  </g>
  <g style="clip-path:url(#id0)">
   <g>
    <g id="_105553227468256">
     <path class="fil0" d="M817.34 4099.94c0,66.82 182.94,38.7 216.17,40.66l45.33 6.16c0,45.11 -42.16,53.08 103.95,80.01 27.99,5.16 118.7,13.38 133.14,21.16 -2.61,31.3 -28.46,34.38 -49.39,48.8 -11.68,8.05 -44.75,40.32 -44.75,57.21 0,14.39 25.85,19.64 36.01,25.39 77.78,44.01 322.8,55.85 383.34,0.34 58.9,-54.02 35.04,-56.02 -7.21,-71.83 -17.06,-6.37 -19.76,-13.73 -41.7,-20.04 -22.79,-6.55 -85.37,-13.65 -101.97,-22.6 8.97,-37.94 44.63,-42.61 79.38,-48.42 72.67,-12.15 177.69,9.99 253.9,3.91 74.76,-5.96 84.87,-14.47 161.82,-9.92 24.28,1.43 8.19,31.24 6.97,45.74 30.77,22.42 53.86,28 91.66,35.79 102.92,21.19 205.95,15.62 308.98,11.97 90.13,-3.19 79.56,-4.7 168.94,29.95 40.52,15.71 93.82,24.24 141.68,27.07 51.05,3.01 112.94,-29.98 135.98,-72.16 -10.83,-13.11 -22.04,-25.7 -31.38,-40.2 4.57,-4.99 1.4,-1.21 5.78,-7.82 2.81,-4.25 3.11,-5.84 6.54,-10.51 21.98,-29.86 133.26,-11.05 169.29,-6.13 53.55,7.31 54.77,15.05 -10.08,108.5 -18.94,27.29 -49.51,57.13 -49.51,94.01 21.3,6.22 40.65,18.61 68.83,25.89 136.4,35.21 253.35,10.58 366.99,17.29 67.29,3.98 86.99,33.04 230.12,41.49 98.52,5.82 106.28,1.28 162.33,-37.28 10.99,-7.56 32.92,-19.17 32.92,-34.87 0,-47.45 -164.4,-79.01 -209.31,-81.98 -17.13,-1.13 -23.77,-3.78 -41.51,-6.27 -61.17,-8.57 -19.91,-57.54 11.01,-64.63 27.26,-6.26 127,-1.65 169.55,-5.23 12.97,-1.09 133.03,-24.41 133.03,8.4 0,32.02 -38.94,39.34 64.79,68.03 95.51,26.43 327.37,29.18 400.05,2.38 49.26,-18.16 53.98,-55.4 143.84,-36.48 46.83,9.86 123,10 166.44,5.97 45.83,-4.25 91.64,-6.14 138.38,-3.38 29.8,1.76 63.03,30.15 92.77,41.72 63.55,24.71 174.77,47.19 233.53,7.49 32.94,-22.25 85.76,-38.58 37.24,-84.45 -27.71,-26.2 -63.78,-39.97 -98.96,-53.32 -24.6,-9.33 -54,-16.82 -80.72,-21.67 -99.89,-18.16 -97.33,-10.94 -14.43,-132.2 13.57,-19.86 55.17,-82.44 57.2,-106.78 -24.16,-17.6 -34.76,-18.5 -69.57,-25.19 -26.92,-5.18 -51.18,-14.3 -80.53,-18.36 -71.68,-9.92 -136.76,-8.26 -209.02,-12.53 -54.25,-3.2 -7.08,-50.42 3.5,-69.52 47.69,-86.1 121.71,-121.85 183.76,-192.4 19.56,-22.24 40.6,-42.83 58.24,-67.33 109.03,-151.43 142.16,-270.35 61.44,-454.64 -9.04,-20.63 -20.16,-30.98 -33.94,-48.26l-24.4 -29.34c-12.05,-15.05 -29.1,-30.65 -39.39,-46.62 5.26,-22.25 30.41,-30.12 -17.41,-32.42 -28.17,-1.35 -35.74,-12.04 -52.28,-24.03 -99.58,-72.2 -180.49,-108.56 -296.81,-149.59 -392.08,-138.29 -910.62,-111.46 -1293.14,-38.45 -165.66,31.62 -282.39,67.73 -441.81,121.33 -69.72,23.44 -134.32,54.26 -200.89,83.61 -65.96,29.07 -125.37,64.17 -185.03,100.4 -30.8,18.71 -56.49,36.25 -85.26,56.14 -28.62,19.77 -109.65,87.76 -135.65,114.34 -7.88,8.05 -8.98,11.88 -17.35,19.98 -51.76,50.11 -109.98,146.17 -142.76,214.9 -8.55,17.93 -13.66,35.82 -24.87,50.37 -20.97,27.2 -69.97,25.31 -92.28,48.7 -19.54,20.49 -41.47,60.59 -57.62,85.42 -9.01,13.86 -16.73,31.92 -27.67,43.92 -13.17,14.45 -20.59,24.93 -43.01,27.67 -41.29,5.03 -98.96,-1.97 -146.16,-4.87 -28.53,-1.75 -44.25,1.17 -69.67,-0.57 -56.74,-3.88 -136.29,0.34 -173.66,35.74 -37.84,35.84 -58.53,84.74 -85.92,128.66 -10.41,16.7 -20.38,30.18 -29.65,45.3 -21.88,35.68 -41.08,43.99 -93.71,47.19 -71.94,4.37 -314.44,32.99 -314.44,113.28z"/>
     <path class="fil0" d="M5245.37 4535.86c0,43.94 122.51,49.08 153.41,50.9 63.98,3.78 206.16,-4.66 260.46,-30.99 26.09,-12.65 85.9,-64.46 5.9,-94.11 -65.8,-24.39 -419.76,-41.6 -419.76,74.2z"/>
     <path class="fil0" d="M378.03 4258.78c0,49.77 153.62,50.92 205.71,53.99 50.22,2.97 184.94,-7.4 222.19,-36.65 13.61,-10.69 32.34,-33.48 32.34,-56.41 0,-36.44 -112.53,-45 -153.41,-47.42 -70.23,-4.15 -245.57,-6.08 -289.46,52.56 -5.07,6.77 -17.36,22.91 -17.36,33.91z"/>
     <path class="fil0" d="M5091.96 2905.52c22.34,1.32 28.8,-1.78 48.81,-0.6 67.76,4 49.73,24.51 121.5,-0.33 14.31,-4.95 28.91,-9.84 44.87,-15.24l272.95 -101.43c-19.08,-2.72 -69.48,-12.71 -80.96,-21.62 -26.22,-20.37 26.74,-67.95 -18.51,-52.96l-284.56 100.21c-21.88,7.45 -55.19,14.39 -65.8,31.42 -6.55,10.51 -7.56,21.18 -15.33,32.58 -7.32,10.74 -16.51,18.72 -22.96,27.98z"/>
    </g>
    <path class="fil1" d="M1459.73 2966.27c105.52,29.12 213.99,26.28 237.49,139.43 -0.15,92.56 -12.53,303.54 7.28,373.54 47.08,50.73 86.34,92.21 130.06,134.76 65.56,17.84 193.26,-18.49 240.69,20.17 61,-6.4 128.27,16.09 168.26,55.38 50.95,50.08 25.89,115.12 35.1,188.08l9.97 6.08c150.45,42.51 273.76,68 442.48,61.7 21.12,-71.09 94.39,-98.6 179.51,-111.24 119.99,-17.82 178.01,7.53 281.59,6.24 68.21,-31.55 121.95,-59.11 185.35,-102.92 32.21,-22.25 47.74,-33.14 81.82,-58.63l80.09 -67.56c30.49,-46.84 21.1,-383.47 18.61,-483.36 -2,-80.14 -12.11,-65.21 -21.39,-76.47 -12.45,74.2 -105.5,203.12 -143.11,245.89 -517.4,588.31 -1434.21,326.35 -1607.7,-367.34 -167.75,-670.77 386.09,-1244.13 1029.63,-1157.79 254.5,34.14 347.59,123.28 502.2,238.8l229.83 -229.67c-609.71,-570.4 -1601.3,-406.45 -1981.01,343.63 -137.59,271.79 -152.95,512.1 -106.74,841.27z"/>
    <path class="fil2" d="M3536.64 3051.47c49.58,-115.34 -27.59,-163.69 73.43,-241.65l4.72 -85.64c-54.67,-10.83 -110.78,-7.21 -167.92,-7.07 -174.04,0.46 -137,21.55 -151.62,-33.12 1.66,-2.55 -17.41,-23.79 68.7,-25.47l249.42 -0.63 -1.33 -30.05c-13.99,-229.91 -100.9,-404.8 -246.04,-566.41 -48.54,18.42 -132.36,120.52 -170.58,160.89 -25.45,26.87 -33.88,20.04 -52.19,63.39 23.17,30 34.6,38.6 56.34,72.31 19,29.48 30.83,52.28 45.34,83.11 32.91,69.95 46.44,135.28 54.82,220.63l0.49 53.54c-24.87,305.87 -217.29,520.77 -482.95,577.77 -619.35,132.88 -1035.62,-654.68 -504.48,-1088.17 94.67,-77.26 238.34,-130.68 396.99,-125.75 171.37,5.33 282.92,81.93 385.43,153.25l222.45 -221.39c-154.6,-115.52 -247.7,-204.66 -502.2,-238.8 -643.53,-86.34 -1197.38,487.02 -1029.63,1157.79 173.49,693.69 1090.31,955.65 1607.7,367.34 37.61,-42.77 130.66,-171.69 143.11,-245.89z"/>
    <path class="fil2" d="M1176.34 2996.39c102.19,-9.04 153.5,-29.84 283.39,-30.13 -46.21,-329.16 -30.85,-569.48 106.74,-841.27 379.72,-750.07 1371.31,-914.03 1981.01,-343.63l201.52 -201.94 -161.75 -135.13c-62.04,-45.97 -114.07,-77.03 -187.55,-116.7 -739.22,-399.07 -1699.04,-92.21 -2072.15,640.74 -182.87,359.22 -200.3,594.22 -151.21,1028.06z"/>
    <path class="fil1" d="M3300.22 2715.32l-290.71 4.05 -0.49 1.45c-14.85,152.7 -118.65,264.01 -261.44,292.12 -167.05,32.88 -306.15,-70.62 -355.09,-175.05 -165.65,-353.48 286.62,-610.25 493.72,-396.83l209 -208.65c-102.51,-71.32 -214.06,-147.92 -385.43,-153.25 -158.65,-4.93 -302.32,48.48 -396.99,125.75 -531.15,433.49 -114.87,1221.05 504.48,1088.17 265.67,-56.99 458.08,-271.9 482.95,-577.77z"/>
    <path class="fil3" d="M3154.48 4569.57c-95.81,23.33 -262.9,15.48 -346.5,-31.32l-3.7 -81.03c61.92,7.53 104.71,27.89 177.44,34.46 64.57,5.84 139.19,-14.46 191.27,-3.86l-18.51 81.76zm58.32 -158c148.84,-107.68 485.5,16.47 439.07,137 -29.44,76.43 -191.63,54.41 -266.93,33.19 -88.78,-25.03 -175.23,-61.54 -172.14,-170.19zm409.17 -245.5c67.59,-59.22 171.58,-77.88 293.11,-70.4 95.7,5.88 227.04,18.72 232.84,123.13 -117.54,105.61 -510.68,112.71 -525.95,-52.73zm463.21 -141.34c61.47,12.06 128.08,35.09 203.91,37 65.66,1.64 149.45,-24.25 192.4,-16.43 -22.55,36.63 -2.67,50.02 -12.37,82.19 -141.55,45.29 -253.72,14.38 -383.94,-12.96l0 -89.79zm852.72 194.81c-101.09,29.24 -212.69,-12.3 -283.48,-65.53 -31.44,-23.64 -170.04,-139.38 -89,-198.45 101.06,-73.66 447.98,106.05 372.48,263.98zm-2133.42 -191.49c188.58,35.01 320.82,78.14 481.8,-31.24 167.86,-114.05 410.65,-160.98 361.09,-13 -53.77,160.56 -265.88,151.18 -367.47,217.41 -124.74,81.32 -339.27,69.96 -474.62,17.26l-0.64 -85.19c81.94,13.29 355.83,96.05 476.19,-34.86 -123.8,69.37 -338.89,72.27 -476.27,12.3l-0.07 -82.68zm130.81 -177.75c106.49,-7.74 211.35,-10.04 304.2,36.59 213.43,107.2 -235.48,221.32 -430.75,112.86 -94.86,-52.69 -28.43,-138.18 126.56,-149.45zm697.31 -234.71c181.64,39.58 178.17,43.12 376.48,21.82l-4.19 84.85c-136.25,30.35 -226.92,17.03 -363.4,-14.46l33.09 23.73c2.9,1.46 5.81,2.61 8.81,3.86l126.44 22.5c84.17,7.07 124.75,-7.17 199.65,-15.48l-4.05 87.39c-160.82,31.63 -223.88,18.69 -371.8,-21.55l-1.04 -192.66zm1.58 -116.39c114.89,54.01 236.97,45.16 375.23,26.87l-7.96 90.7c-167.72,20.08 -207.32,19.68 -366.23,-21.78l-1.04 -95.78zm18.11 -693.1c75.94,0.44 153.94,-30.22 263.62,-19.58 311.11,30.19 248.06,229.1 -141.79,189.66 -59.23,-5.99 -126.39,-22.07 -158.83,-51.78 -74.93,-68.62 28.19,-105.3 30.33,-112.7 1.07,-3.7 4.88,-3.32 6.67,-5.61zm0 0l-42.22 3.73c-101.01,77.96 -23.85,126.31 -73.43,241.65 9.28,11.26 19.39,-3.67 21.39,76.47 2.49,99.89 11.87,436.51 -18.61,483.36 29.75,22.1 17.73,15.39 17.32,125.21 -0.16,42.92 1.27,87.25 -3.49,128.73 -111.01,35.63 -126.47,24.06 -223.33,82.84 -1.99,-2.1 -4.06,-5.51 -5.11,-7 -72.68,-102.59 -75.26,-47.72 -132.64,-100.68 -103.58,1.28 -161.6,-24.06 -281.59,-6.24 -85.11,12.64 -158.39,40.16 -179.51,111.24l-2.87 282.24c4.16,79.14 1.72,165.83 1.33,245.8 -0.51,107.3 -9.3,139.48 78.8,175.98l-4.02 -80.16c89.09,5.04 125.88,55.38 312.87,29.33 69.41,-9.67 40.37,-12.83 96.09,9.54 5.58,-38.45 2.27,-48.3 23.08,-72.26 128.78,94.36 368.37,126.27 415.2,35.91 14.63,16.46 6.65,-2.17 14.45,27.24 109.35,-135.24 -195.68,-267.98 -342.13,-247.32 -85.54,7.14 -133.89,27.37 -144.18,108.01 -150.75,18.07 -234.86,26.71 -373.88,-24.17 -3.53,-79.54 8.79,-68.74 10.54,-92.7 1.82,-24.75 -13.11,-41.07 -8.29,-97.5 107.08,19.56 292.37,75.24 437.1,-7.82 33.78,-19.38 39.2,-34.6 64.87,-42.71 48.32,-15.26 152.99,17.5 301.24,-130.05 127.14,-126.54 34.4,-156.87 22.81,-201.68 -1.88,-7.26 -1.88,-27.69 -1.92,-35.11 165.02,64.41 211.13,35.25 375.14,25.71l-9.97 85.4c-61.54,17.33 -297.25,6.74 -299.61,8.02 68.64,55.19 227.91,17.77 312.34,11.33l-9.39 86.7c-108.73,32.44 -171.89,7.12 -280.62,10.46 11.84,22.22 27.41,19.36 47.94,31 -124.58,11.92 -150.67,54.11 -202.09,134.67 43.75,-0.96 10.23,-24.71 23.35,40.31 6.15,30.46 -7.48,11.06 10.54,47.88 11.77,24.05 35.94,41 70.11,50.11l-2.61 -80.37c121.45,28.75 176.31,51.32 316.67,28.29 83.07,-13.63 186.67,-41.21 196.69,-134.67 0.58,-5.37 1.56,-6.96 3.01,-10.19 77.77,12.28 140.14,14.33 217.85,1.2 89.27,-15.08 103.37,-8.55 129.81,-89.97l85.92 82.96c56.13,47.79 146.07,87.67 222.73,93.42 48.13,3.61 100.98,-16.56 109.44,-14.93 122.04,-112.35 -176.02,-327.15 -351.47,-314.01 -148.78,42.45 -13.68,94.6 -217.62,115.7 -140.41,14.52 -185.59,-15.32 -295.17,-27.09l0.33 -92.2c163.88,41.74 386.91,72.43 492.87,-53.52 -56.44,43.04 -145.74,65.77 -230.67,70.33 -126.02,6.77 -169.08,-20.27 -264.21,-31.09l9.21 -92.16c110.97,51.14 285.04,53.4 404.28,5.46 42.8,-17.21 70.39,-31.7 81.42,-64.59 -23.75,17.14 -29.93,20.99 -63.08,34.19 -68.79,66.07 -343.86,44.53 -427.44,-2.97 -4.52,-49.12 -8.01,-50.79 14.73,-81.26 1.31,-1.76 6.29,-1.79 7.33,-6.18 1.05,-4.46 5.26,-3.81 7.95,-5.62 -30.54,-7.55 -36.82,12.63 -31.35,-92.39 156.27,40.95 276.88,55.19 429.17,-4.69 43.33,-20.07 54.33,-34.06 80.68,-65.82 -13.35,-66.37 -43.1,-83.58 -112.18,-99.87l43.63 36.41c15.89,10.37 22.06,12.36 34.09,20.8 -0.68,70.39 -34.25,89.07 -92.68,105.18 -143.34,39.53 -420.43,18.09 -429.91,-75.55 25.16,-134.87 287.64,-96.92 415.11,-87.56 -17.07,-15.43 10.65,-3.43 -34.72,-20.48l-107.04 -12.69c-59.57,-1.93 -111.44,8.27 -169.99,10.86l-47.67 24.06c-108.08,46.3 -37.92,84.3 -203.48,93.37 -118.06,6.47 -159.79,-19.89 -259.39,-37.19l6.61 -307.51c137.93,75.41 305.12,40.01 451.28,-3.31 7.23,-25.93 24.46,-19.19 42.18,-55.55 -109.87,100.86 -353.73,98.56 -499.58,37.81l2.39 -90.15c124.5,60.09 360.08,64.68 459.73,-18.14 -80.34,11.49 -128.26,40.13 -226.84,43.47 -96.04,3.25 -163.65,-30.78 -233.57,-30.02l-0.33 -94.68c189.07,47.9 406.16,73.48 512.35,-76.28 -28.62,-99.5 -114.77,-80.24 -204.14,-123.27 -61.81,2 -244.29,-19.44 -289.95,38.98z"/>
    <path class="fil4" d="M791.28 4416.97c69.14,20.22 152.91,44.92 231.46,32.4l191.1 -31.18c44.58,-16.83 65.09,-45.78 84.75,-52.27 20.76,-6.85 101.74,4.21 137.05,2.22 85.94,-4.85 169.41,-23.94 232.85,-68.23 20.95,-39.29 13.37,-46.46 12.05,-96.56 -45.49,17.14 -229.64,132.68 -391.65,65.09 122.66,-39.76 248.84,28.52 391.68,-76.8l0.67 -93.96c-36.23,14.5 -200.89,112.21 -334.27,78.78 -64.46,-16.16 -27,-5.94 -52,-27.45 95.93,9.14 171.93,12.38 262.13,-10.41 156.23,-39.46 124.28,-78.41 124.78,-145 -55.7,26.96 -101.32,57.64 -177.37,70.84 -67.99,11.8 -155.73,13.1 -214.11,-4.43 32.8,-28.69 -52.63,-18.29 110.27,-11.74 124.64,5.01 188.24,-29.14 281.95,-75.92l-1.38 -92.29c-79.08,36.19 -208,123.32 -385.94,68.61 26.57,-21.33 -8.35,-10.42 45.95,-12.28 110.76,-3.78 198.08,21.95 343.15,-68.48l-14.15 -96.99c-64.95,113.14 -382.85,73.78 -383.08,73.87 -60.59,22.57 -91.57,161.88 -498.69,57.04l1.06 80.35 118.42 35.48c95.59,15.59 173.24,9.28 266.81,-16.04 52.6,-14.24 65.68,-30.5 103.77,-43.43 -108.59,120.2 -346.46,100.21 -490.92,46.03l2.38 83.22c58.9,39.36 173.31,49.12 258.73,45.13 106.96,-5 154.04,-34.4 231.94,-69.75 -54.94,139.49 -383.95,87.44 -491.5,57.2l-1.85 88.05c201.8,34.13 298.38,64.23 485.35,-28.84 -127.15,137.19 -373.99,67.47 -483.61,47.32l-1.05 87.44c211.71,37.51 289.69,58.43 486.1,-27.7 -142.06,133.06 -359.05,71.14 -485.21,46.64l2.36 84.03z"/>
    <path class="fil2" d="M3597.86 1829.39c41.11,56.08 85.21,101.75 128.86,165.43 39.39,57.46 72.75,118.94 103.93,188.5 63.44,141.57 98.39,301.33 108.18,476.38l283.71 -1.71c-5.35,-315.43 -102.27,-580.17 -261.73,-826.81l-163.77 -200.56c-37.41,14.5 -64.32,50.9 -105.74,93.1 -43.8,44.62 -79.7,67.61 -93.44,105.66z"/>
    <path class="fil5" d="M539.67 4062.74c32.51,49.44 10.2,18.41 61.26,22.83 34.9,3.02 25.01,-15.29 39.41,39.5l-66.66 15.39c58.4,47.52 131.91,-37.68 132.08,-37.8 5.14,47.65 10.49,39.41 -34.44,61.12 -71.92,34.76 -230.22,80.42 -256.42,-6.17 1.21,-117.45 173.63,-213.58 297.28,-225.77l-0.73 115.06c-59.89,-3.94 -59.65,20.15 -87.62,-21.18 11.42,-27.34 -17.97,13.45 37.59,-32.48 2.81,-2.33 7.11,-5.22 10.16,-8.38l-78.11 9.18c-21.34,29.11 -40.37,40.35 -53.8,68.69zm207.82 -546c-12.63,-193.89 499.77,-134.1 517.98,-33.61 19.13,105.54 -341.58,158.68 -517.98,33.61zm527.81 -519.68c101.3,-20.7 229.21,-13.51 318.63,20.19 199.87,75.33 -70.91,233.27 -370.84,135.25 -108.96,-35.61 -138.99,-116.36 52.2,-155.44zm-98.96 -0.67c-59.93,71.39 -69.18,13.68 -68.36,155.07 0.44,75.83 -3.47,152.29 3.59,227.71 -513.71,-7.73 -387.96,56.81 -401.58,533.34 -401.06,70.24 -366.06,384.95 -182.13,401.56l-29.23 -78.2c105.33,-13.29 127.57,-29 212.79,-58.4l-2.43 101.1c-1.14,97.46 9.68,101.75 82.29,138.38l-2.36 -84.03c126.16,24.51 343.16,86.42 485.21,-46.64 -196.41,86.13 -274.39,65.21 -486.1,27.7l1.05 -87.44c109.61,20.15 356.46,89.86 483.61,-47.32 -186.97,93.07 -283.55,62.97 -485.35,28.84l1.85 -88.05c107.55,30.24 436.56,82.29 491.5,-57.2 -77.9,35.35 -124.98,64.75 -231.94,69.75 -85.42,3.99 -199.83,-5.77 -258.73,-45.13l-2.38 -83.22c144.46,54.18 382.33,74.17 490.92,-46.03 -38.09,12.93 -51.17,29.19 -103.77,43.43 -93.58,25.32 -171.22,31.63 -266.81,16.04l-118.42 -35.48 -1.06 -80.35c407.12,104.84 438.11,-34.47 498.69,-57.04 0.23,-0.09 318.14,39.28 383.08,-73.87 -70.51,13.48 -97.24,51.86 -211.12,58.35 -225.18,12.83 -74.4,-41.79 -209.28,36.9 -117.25,68.4 -322.85,59.54 -455.42,10.75l-7.44 -83.91c114.34,20.99 134.56,45.81 272.18,34.12 98.91,-8.4 187.8,-29.68 221.88,-94.26 187.96,34.46 296.08,4.33 410.99,-84.27l2.94 -13.65c-18.91,13.25 -38.56,26.41 -65.77,43.82 -70.89,28.88 -131.63,40.51 -217.25,41.82 -168.82,2.6 -64.81,-10.42 -191.04,47.46 -112.56,51.62 -329.16,59.35 -432.87,-8.19l6.58 -79.12c164.65,56.25 365.56,62.43 483.99,-48.03 -81.59,29.95 -91.87,53.66 -230.65,64.48 -110.29,8.59 -167.71,-21.16 -258.46,-30.31l1.78 -90.32c167.91,48.66 415.72,68.61 509.25,-73.89 -17.51,-70.49 -54.5,-71.57 -113.09,-105.26 41.02,-15.2 220.96,80.43 427.93,-14.22 12.22,-8.74 19.4,-11.88 30.53,-20.97l26.19 -26.51c-281.27,88.36 -176.13,79.59 -486.45,28.08l0.07 -86.96c91.32,22.77 175.5,45.7 278.41,34.11 80.05,-9.02 195.2,-36.22 210.34,-93.28 -18.95,43.55 -146.5,64.32 -216.57,70.57 -122.51,10.93 -173.42,-17.54 -271.41,-27.75l-0.44 -90.24c112.75,23.2 272.79,70.27 418.96,0.59 47.67,-22.72 51.83,-39.68 92.2,-65.15 -23.5,-113.14 -131.96,-110.3 -237.49,-139.43 -129.89,0.28 -181.2,21.08 -283.39,30.13z"/>
    <path class="fil2" d="M3009.02 2720.83c-56.3,-4.99 -113.65,-4.13 -170.32,-3.73 -25.4,0.18 -59.5,3.31 -82.72,2.4 -19.91,-0.78 -24.72,-0.21 -40.88,-7.68 -26.18,-12.11 -5.71,0.08 -21.22,-20.28 -25.12,-54.66 46.73,-97.75 79.87,-131 26.65,-26.74 96.99,-91.72 112.47,-119.46 -207.09,-213.43 -659.36,43.35 -493.72,396.83 48.94,104.43 188.03,207.93 355.09,175.05 142.79,-28.11 246.6,-139.41 261.44,-292.12z"/>
    <path class="fil1" d="M3366 2061.45c145.15,161.61 232.05,336.5 246.04,566.41l7.59 33.99 319.2 -2.14c-9.79,-175.05 -44.74,-334.81 -108.18,-476.38 -31.18,-69.57 -64.54,-131.05 -103.93,-188.5 -43.66,-63.68 -87.76,-109.35 -128.86,-165.43 -19.75,8.44 -217.08,194.06 -231.86,232.06z"/>
    <path class="fil5" d="M2075.26 3634.17c2.72,1.59 6.48,3.33 8.47,4.21 39.94,17.62 154.56,38.34 154.77,98.21 0.42,126.57 -531.23,126.91 -522.38,-11.7 51.92,-127.77 261.32,-65.04 359.15,-90.73zm-379.39 57.07c-8.26,29.96 -20.46,66.42 -25.59,79.7l14.15 96.99c-145.08,90.43 -232.39,64.69 -343.15,68.48 -54.31,1.86 -19.38,-9.05 -45.95,12.28 177.95,54.7 306.86,-32.43 385.94,-68.61l1.38 92.29c-93.71,46.77 -157.31,80.93 -281.95,75.92 -162.9,-6.55 -77.47,-16.95 -110.27,11.74 58.39,17.53 146.13,16.23 214.11,4.43 76.04,-13.2 121.66,-43.88 177.37,-70.84 -0.5,66.59 31.45,105.54 -124.78,145 -90.2,22.79 -166.19,19.54 -262.13,10.41 25,21.51 -12.47,11.3 52,27.45 133.38,33.43 298.04,-64.28 334.27,-78.78l-0.67 93.96c-142.84,105.32 -269.02,37.03 -391.68,76.8 162.01,67.59 346.15,-47.95 391.65,-65.09 1.32,50.1 8.9,57.27 -12.05,96.56 17.74,22.37 0.43,-10.38 9.92,25.18 0.81,3.04 1.35,6.36 2.1,9.62 9.06,39.53 -5.46,20.55 13.7,55.78 14.89,27.36 39.23,37.14 70.01,51.34l-3.93 -87.27c77.69,26.75 332.49,82.14 399.87,-4.31 -122.95,9.97 -303.62,50.57 -399.31,-28.88l-1.22 -182.63c200.11,55.14 227.95,49.31 423.26,6.65 -43.98,83 -35.13,105.38 -151.29,114.78 -108.04,8.74 -165.63,-7.87 -263.34,-29.34 19.55,21.19 27.06,29.29 71.33,38.95 94.78,20.67 181.73,13.8 274,0.44l33.85 66.87 48.01 -66.87c11.64,9.17 8.38,6.69 20.3,18.1l54.83 51.85c77.64,69.19 167.56,110.25 275.65,99.24 53.62,-5.46 43.88,-10.79 63.44,6.84 1.45,-2.84 3.46,-6.4 4.39,-8.48 0.93,-2.09 3.16,-5.99 4.25,-8.64l14.15 -61.38c-0.83,-67.52 -35.34,-68.33 -35.43,-68.39 51.77,240.44 -273.14,81.72 -352.94,-15.05 -36.7,-44.5 -47.37,-80.49 -28.19,-139.64 106.25,-30.63 194.05,8.95 278.47,65.42 57.64,38.55 8.35,19.2 59.93,37.89 19.21,-26.72 -32.55,-19.08 43.77,-22.89 -45.42,-13.64 -38.13,1.52 -81.79,-26.2 -17.47,-11.09 -35.46,-25.73 -56.59,-36.85 -52.3,-27.51 -91.75,-45.19 -156.68,-49.65 -89.08,2 -35.84,-21.04 -119.18,8.94 -197.61,71.07 -276.8,18.97 -425.14,3.95l8.5 -92.1c112.47,55.96 421.12,63.65 484.91,-56.64 -181.49,99.18 -291.39,77.99 -494.39,34.06l2.82 -92.14c138.61,55.18 407.99,65.84 481.55,-37.75 -159.34,81.89 -307.32,71 -484.26,23.38l2.82 -89.98c77.94,30.49 182.26,50.38 282.59,38.64 42.58,-4.97 92.82,-14.88 131.28,-30.58 79.97,-32.64 73.3,-35.07 89.21,-68.14 5.36,102.32 -18.77,86.31 14.88,123.61 -9.21,-72.96 15.85,-137.99 -35.1,-188.08 -39.98,-39.3 -107.26,-61.78 -168.26,-55.38 -47.43,-38.66 -175.13,-2.33 -240.69,-20.17 -13.11,12.32 -3.91,6.17 -24,16.85 -3.28,1.74 -13.91,5.98 -17.44,7.47l-97.26 52.92z"/>
    <path class="fil4" d="M1629.21 3678.78c-30.96,-50.85 -18.84,-74.49 6.51,-87.76 29.56,-15.46 -56.91,-10.84 33.38,-6.53 -19.38,-13.75 -45.2,-26.61 -58.06,-17.31l-0.3 -64.5c76.28,-55.92 27.77,-1.07 81.75,-81.81l-41.73 25.94c-3.23,1.06 -6.7,1.59 -9.6,2.19l-30.09 -4.84 4.31 -60.96c-206.97,94.65 -386.91,-0.98 -427.93,14.22 58.59,33.69 95.58,34.76 113.09,105.26 -93.53,142.5 -341.33,122.54 -509.25,73.89l-1.78 90.32c90.75,9.15 148.17,38.9 258.46,30.31 138.78,-10.81 149.06,-34.53 230.65,-64.48 -118.43,110.46 -319.34,104.28 -483.99,48.03l-6.58 79.12c103.71,67.54 320.32,59.81 432.87,8.19 126.23,-57.89 22.22,-44.86 191.04,-47.46 85.61,-1.32 146.36,-12.94 217.25,-41.82z"/>
    <path class="fil4" d="M3323.86 4351.71l-2.62 -76.42c118.11,-5.11 151.33,-5.79 244.66,-54.04 51.42,-80.56 77.51,-122.75 202.09,-134.67 -20.53,-11.63 -36.1,-8.78 -47.94,-31 108.73,-3.34 171.89,21.98 280.62,-10.46l9.39 -86.7c-84.43,6.43 -243.7,43.85 -312.34,-11.33 2.36,-1.28 238.07,9.31 299.61,-8.02l9.97 -85.4c-164.01,9.55 -210.12,38.7 -375.14,-25.71 0.05,7.42 0.05,27.86 1.92,35.11 11.59,44.82 104.33,75.14 -22.81,201.68 -148.25,147.55 -252.92,114.79 -301.24,130.05 -25.67,8.11 -31.09,23.33 -64.87,42.71 -144.73,83.06 -330.03,27.39 -437.1,7.82 -4.82,56.43 10.11,72.74 8.29,97.5 -1.75,23.96 -14.07,13.17 -10.54,92.7 139.03,50.88 223.13,42.25 373.88,24.17 10.29,-80.64 58.64,-100.87 144.18,-108.01z"/>
    <path class="fil6" d="M3930.22 1374.18c-3.53,49.81 -57.12,85.77 -86.9,115.71 -29.69,29.85 -63.18,67.85 -94.31,89.55l-201.52 201.94 -229.83 229.67 -222.45 221.39 -209 208.65c-15.48,27.74 -85.82,92.72 -112.47,119.46 -33.14,33.25 -104.99,76.35 -79.87,131 37.79,-3.58 16.86,1.92 50.43,-20l19.95 -14.18c25.3,-34.86 54.97,-63.8 78.01,-86.55 10.72,-10.58 26.87,-26.47 40.65,-40.91 29.43,-30.83 18.22,-27.59 61.67,-40.45 3.2,-49.61 25.34,-32.59 70.79,-84.52 8.23,-9.41 10.51,-14.24 20.85,-26.19 29.93,-34.6 66.4,-78.1 107.01,-93.02 18.31,-43.35 26.74,-36.52 52.19,-63.39 38.22,-40.36 122.04,-142.46 170.58,-160.89 14.78,-38 212.11,-223.62 231.86,-232.06 13.74,-38.05 49.64,-61.04 93.44,-105.66 41.43,-42.2 68.33,-78.6 105.74,-93.1 19.27,-51.72 13.71,-13.8 60.13,-68.05 8.25,-9.64 8.88,-13.27 20.37,-26.62 157.32,-182.7 156.85,-13.46 250.64,-88l319.3 -322.21c-45.64,-24.12 -133.87,-8.1 -164.73,-51.87 -57.07,22.99 -241.37,234.9 -310.2,300.13 -14.2,13.46 -30.02,13.47 -42.34,0.17z"/>
    <path class="fil4" d="M1764.22 4441.82c75.41,30.64 158.1,40.99 244.41,36.8 56.82,-2.76 217.85,-44.08 219.47,-43.88 15.78,1.96 115.68,69.93 191.8,84.69 124.76,24.19 137.56,2.01 189.79,-73.19 -19.56,-17.63 -9.82,-12.3 -63.44,-6.84 -108.1,11 -198.01,-30.05 -275.65,-99.24l-54.83 -51.85c-11.92,-11.41 -8.66,-8.94 -20.3,-18.1l-48.01 66.87 -33.85 -66.87c-92.27,13.36 -179.22,20.23 -274,-0.44 -44.27,-9.66 -51.78,-17.76 -71.33,-38.95 97.71,21.46 155.3,38.08 263.34,29.34 116.16,-9.4 107.31,-31.78 151.29,-114.78 -195.31,42.66 -223.15,48.49 -423.26,-6.65l1.22 182.63c95.69,79.45 276.36,38.85 399.31,28.88 -67.38,86.45 -322.18,31.06 -399.87,4.31l3.93 87.27z"/>
    <path class="fil4" d="M3358.59 4048.04c5.49,-77.5 13.24,-37.45 53.19,-99.03 36.19,8.28 29.65,3.82 70.6,0.54 -12.04,32.98 -19.27,12.68 -35.12,44.34 47.37,35.65 53.85,-8.66 84.66,20.94 23.55,22.65 -4.62,49.43 -21.14,66.6l-16.18 15.93c-25.05,17.79 -66.2,22.48 -104.87,5.73l66.73 -27.33c-27.98,-51.06 -27.61,-25.57 -97.87,-27.71zm-554.11 -20l0.07 82.68c137.38,59.98 352.47,57.08 476.27,-12.3 -120.35,130.9 -394.25,48.15 -476.19,34.86l0.64 85.19c135.35,52.7 349.88,64.06 474.62,-17.26 101.59,-66.22 313.7,-56.85 367.47,-217.41 49.56,-147.98 -193.24,-101.06 -361.09,13 -160.98,109.38 -293.22,66.25 -481.8,31.24z"/>
    <path class="fil7" d="M4095.02 3428.56c-11.81,-2.04 -21.97,7.2 -39.94,-7.81 33.52,-19.18 63.78,-33.87 81.76,-70.11 -3.4,-1.83 -8.15,-2.99 -11.02,-3.6l-59.04 3.6c0,-96.21 -5.28,-37.05 22.86,-61.59 48.31,-42.14 16.27,21.21 44.72,-43.67l-20.63 -5.66c-2.61,-0.47 -6.6,-1.19 -9.32,-1.58 -37.59,-5.39 6.87,38.94 -37.63,-4.45 4.67,-59.74 -9.94,-11.93 23.28,-59.77 -146.17,43.32 -313.36,78.71 -451.28,3.31l-6.61 307.51c99.59,17.3 141.32,43.66 259.39,37.19 165.56,-9.07 95.4,-47.07 203.48,-93.37z"/>
    <path class="fil8" d="M2303.02 4112.37l-33.32 -5.42c1.84,-76.41 -11.81,-186.77 18.87,-223.25l-9.97 -6.08c-33.65,-37.3 -9.52,-21.29 -14.88,-123.61 -15.91,33.07 -9.23,35.5 -89.21,68.14 -38.47,15.7 -88.7,25.6 -131.28,30.58 -100.33,11.73 -204.64,-8.15 -282.59,-38.64l-2.82 89.98c176.94,47.62 324.92,58.51 484.26,-23.38 -73.56,103.59 -342.93,92.93 -481.55,37.75l-2.82 92.14c203,43.93 312.9,65.12 494.39,-34.06 -63.79,120.29 -372.44,112.6 -484.91,56.64l-8.5 92.1c148.34,15.02 227.54,67.12 425.14,-3.95 83.33,-29.97 30.1,-6.93 119.18,-8.94z"/>
    <path class="fil2" d="M2303.02 4112.37c64.93,4.46 104.38,22.14 156.68,49.65 21.13,11.12 39.12,25.76 56.59,36.85 43.67,27.72 36.37,12.56 81.79,26.2l130.1 2.57 2.87 -282.24c-168.72,6.3 -292.03,-19.19 -442.48,-61.7 -30.68,36.47 -17.04,146.84 -18.87,223.25l33.32 5.42z"/>
    <path class="fil4" d="M3669.91 4359.56c75.58,46.73 207.64,47.81 307.61,35.32 107.59,-13.44 199.87,-39.42 201.84,-147.43 86.73,12.33 163.71,15.13 250.25,-2.7l105.12 -31.95c50.71,26.99 67.24,54.38 131.11,82.85 58.23,25.96 106.97,37.62 178.52,39.72 67.74,-10.25 98.9,-39.55 105.06,-100.07 -8.46,-1.63 -61.31,18.54 -109.44,14.93 -76.66,-5.75 -166.6,-45.63 -222.73,-93.42l-85.92 -82.96c-26.44,81.42 -40.54,74.89 -129.81,89.97 -77.71,13.13 -140.08,11.08 -217.85,-1.2 -1.45,3.23 -2.43,4.81 -3.01,10.19 -10.02,93.46 -113.62,121.03 -196.69,134.67 -140.36,23.03 -195.22,0.46 -316.67,-28.29l2.61 80.37z"/>
    <path class="fil9" d="M1615.39 3383.2l-4.31 60.96 30.09 4.84c2.9,-0.61 6.37,-1.13 9.6,-2.19l41.73 -25.94c-53.98,80.74 -5.47,25.89 -81.75,81.81l0.3 64.5c12.86,-9.3 38.68,3.56 58.06,17.31 -90.29,-4.31 -3.83,-8.93 -33.38,6.53 -25.35,13.26 -37.47,36.9 -6.51,87.76 27.21,-17.41 46.87,-30.57 65.77,-43.82 -1.04,-30.07 -1.28,-56.33 -0.62,-86.52 0.04,-1.84 0.93,-33.35 1,-34.02l9.14 -35.18c-19.82,-70 -7.43,-280.98 -7.28,-373.54 -40.37,25.47 -44.52,42.42 -92.2,65.15 -146.17,69.68 -306.21,22.61 -418.96,-0.59l0.44 90.24c98,10.21 148.9,38.68 271.41,27.75 70.06,-6.25 197.62,-27.02 216.57,-70.57 -15.14,57.06 -130.29,84.26 -210.34,93.28 -102.92,11.59 -187.09,-11.34 -278.41,-34.11l-0.07 86.96c310.32,51.51 205.18,60.28 486.45,-28.08l-26.19 26.51c-11.13,9.09 -18.31,12.23 -30.53,20.97z"/>
    <path class="fil9" d="M4090.05 3173.92c-33.21,47.84 -18.61,0.02 -23.28,59.77 44.5,43.39 0.04,-0.93 37.63,4.45 2.72,0.39 6.7,1.12 9.32,1.58l20.63 5.66c-28.45,64.88 3.59,1.52 -44.72,43.67 -28.13,24.54 -22.86,-34.62 -22.86,61.59l59.04 -3.6c2.87,0.61 7.62,1.77 11.02,3.6 -17.97,36.24 -48.24,50.93 -81.76,70.11 17.97,15.01 28.13,5.77 39.94,7.81l47.67 -24.06c15.69,-88.26 -8.56,-194.39 16.21,-275 -17.35,-28.75 -11.83,-16.11 -13.77,-58.74 -0.7,-15.32 0.96,-42.24 1.09,-59.11 0.32,-40.51 -0.76,-80.64 0.14,-121.27 -106.19,149.75 -323.27,124.17 -512.35,76.28l0.33 94.68c69.92,-0.76 137.53,33.26 233.57,30.02 98.59,-3.34 146.5,-31.98 226.84,-43.47 -99.65,82.82 -335.23,78.23 -459.73,18.14l-2.39 90.15c145.85,60.75 389.71,63.05 499.58,-37.81 -17.72,36.36 -34.95,29.62 -42.18,55.55z"/>
    <path class="fil9" d="M4515.71 3593.23l-4.5 73.24c38.84,5.53 69.61,-28.79 81.75,-35.08 -12.52,18.72 -13.84,22.04 -23.11,32.83 -29.68,34.55 -62.43,15.4 -54.54,122.12 33.15,-13.19 39.33,-17.04 63.08,-34.19 -11.03,32.89 -38.62,47.38 -81.42,64.59 -119.24,47.94 -293.31,45.68 -404.28,-5.46l-9.21 92.16c95.14,10.82 138.19,37.86 264.21,31.09 84.93,-4.56 174.23,-27.29 230.67,-70.33 -105.96,125.95 -328.99,95.26 -492.87,53.52l-0.33 92.2c109.57,11.77 154.76,41.61 295.17,27.09 203.94,-21.1 68.83,-73.25 217.62,-115.7l-1.57 -393.9c-26.35,31.76 -37.35,45.75 -80.68,65.82z"/>
    <path class="fil1" d="M2944.59 2489.45c33.15,52.15 54.5,92.04 63.99,168.36l1.01 2.08 290.14 1.89c-8.38,-85.35 -21.92,-150.69 -54.82,-220.63 -14.5,-30.83 -26.34,-53.63 -45.34,-83.11 -21.74,-33.71 -33.17,-42.32 -56.34,-72.31 -40.61,14.92 -77.08,58.43 -107.01,93.02 -10.33,11.94 -12.62,16.78 -20.85,26.19 -45.44,51.93 -67.59,34.9 -70.79,84.52z"/>
    <path class="fil10" d="M4515.31 3786.34c-7.89,-106.72 24.85,-87.57 54.54,-122.12 9.26,-10.78 10.59,-14.1 23.11,-32.83 -12.14,6.29 -42.91,40.61 -81.75,35.08l4.5 -73.24c-152.29,59.88 -272.89,45.63 -429.17,4.69 -5.47,105.02 0.82,84.84 31.35,92.39 -2.69,1.81 -6.9,1.17 -7.95,5.62 -1.04,4.39 -6.02,4.42 -7.33,6.18 -22.74,30.47 -19.25,32.14 -14.73,81.26 83.58,47.5 358.64,69.04 427.44,2.97z"/>
    <path class="fil4" d="M1670.27 3770.93c5.13,-13.28 17.32,-49.74 25.59,-79.7l-3.81 -42.63c-114.91,88.6 -223.03,118.73 -410.99,84.27 -34.08,64.58 -122.97,85.86 -221.88,94.26 -137.61,11.69 -157.83,-13.14 -272.18,-34.12l7.44 83.91c132.57,48.8 338.18,57.65 455.42,-10.75 134.88,-78.69 -15.9,-24.07 209.28,-36.9 113.88,-6.49 140.61,-44.87 211.12,-58.35z"/>
    <path class="fil4" d="M2808.32 4649.43c179.87,93.43 410.7,-5.88 462.31,11.62 96.8,32.83 107.91,58.52 235.21,52.85 98.9,-4.41 155.35,-23.56 160.15,-114.86 -7.8,-29.4 0.19,-10.77 -14.45,-27.24 -46.82,90.36 -286.42,58.45 -415.2,-35.91 -20.81,23.95 -17.49,33.81 -23.08,72.26 -55.73,-22.37 -26.69,-19.21 -96.09,-9.54 -186.99,26.05 -223.79,-24.29 -312.87,-29.33l4.02 80.16z"/>
    <path class="fil11" d="M3633.64 3808.24c147.92,40.23 210.97,53.18 371.8,21.55l4.05 -87.39c-74.9,8.31 -115.49,22.55 -199.65,15.48l-126.44 -22.5c-2.99,-1.25 -5.91,-2.4 -8.81,-3.86l-33.09 -23.73c136.49,31.49 227.15,44.81 363.4,14.46l4.19 -84.85c-198.31,21.29 -194.84,17.76 -376.48,-21.82l1.04 192.66z"/>
    <path class="fil11" d="M3049.64 3923.71c33.05,45.75 58.2,-4.43 78.84,59.7 -44.93,60.16 -131.39,36.42 -195.37,9.91l41.95 -9.8c28.19,1.28 -2.21,9.73 39.66,3.34 -0.58,-72.89 -24.61,-5.25 -77.72,-74.84 46.75,-49.78 119.47,-53.24 171,-11.7 -42.83,22.36 -13.8,2.24 -29.67,5.51 -36.34,7.5 -8.2,-0.46 -28.69,17.88zm-114.35 -73.42c-154.98,11.27 -221.41,96.76 -126.56,149.45 195.28,108.46 644.19,-5.66 430.75,-112.86 -92.85,-46.63 -197.71,-44.34 -304.2,-36.59z"/>
    <path class="fil11" d="M3836.02 2811.7c49.97,-16.37 -19.71,0.89 14.31,-5.02 26.01,-4.52 76.09,22.95 81.88,35.93l-56.98 5.13c21.41,66.87 36.79,-2.65 77.3,70.17 -24.6,33.58 5.99,11.43 -43.63,31.19 -49.8,19.83 -110.08,7.98 -146.14,-19.5 2.19,-1.22 5.65,-2.36 7.05,-2.64l15.13 -3.08c14.49,-1.29 41.86,4.67 59.14,-5.98 -12.89,-49.26 3.95,-12.79 -43.28,-35.84 -54.18,-26.44 -22.46,11.34 -37.87,-39.73l73.08 -30.64zm-183.73 -5.61c-1.79,2.29 -5.6,1.91 -6.67,5.61 -2.13,7.4 -105.26,44.08 -30.33,112.7 32.44,29.7 99.6,45.78 158.83,51.78 389.85,39.43 452.89,-159.47 141.79,-189.66 -109.68,-10.64 -187.69,20.02 -263.62,19.58z"/>
    <path class="fil11" d="M3800.45 4169.32c5.79,-17.59 5.05,-42.7 84.25,-51.84 28.58,-3.3 54,9.9 83.63,32.05 -50.78,22.94 -42.9,-15.34 -59.26,19.8 11.87,29.23 -10,6.89 36.38,25.89 15.77,6.47 27.28,9.75 41.51,15.64 -8.77,33.22 1.47,29.63 -31.89,47.58 -47.84,25.74 -112.83,15.02 -160.68,-18.95 17.04,-7.21 -17.47,-3.6 24.21,-5.46 18.94,-0.84 -1.31,-1.19 17.62,0.91 23.26,2.57 21.64,4.76 35.33,10.07 14.97,-82.74 -16.83,-15.66 -71.12,-75.69zm-178.48 -3.25c15.27,165.44 408.41,158.34 525.95,52.73 -5.8,-104.41 -137.14,-117.25 -232.84,-123.13 -121.53,-7.47 -225.52,11.18 -293.11,70.4z"/>
    <path class="fil11" d="M1422.24 3058.26c34.11,52.37 33.29,-9.63 82.8,58.48 -12.51,16.65 -24.9,41.75 -93.97,44.76 -28.07,1.23 -76.2,-9.38 -101.11,-33.33l78.63 2.34 6.67 -33.31c-51.33,-18.67 -47.37,2.01 -80.9,-38.94 46.81,-83.16 142.06,-32.3 175.92,-19.8 -27.57,14.47 -46.08,3.45 -68.03,19.8zm-146.94 -61.19c-191.19,39.08 -161.17,119.83 -52.2,155.44 299.92,98.02 570.71,-59.92 370.84,-135.25 -89.42,-33.7 -217.34,-40.89 -318.63,-20.19z"/>
    <path class="fil11" d="M4323.08 3479.29c17.96,48 -3.21,13.97 36.91,30.97 63.17,26.76 24.23,-14.43 42.57,39.2 -51.49,65.85 -123.39,34.9 -197.12,14.91 32.68,-26.82 49.43,-3.39 86.64,-10.62l-81.7 -52.55c5.92,-17.42 -11.23,-48.99 84.84,-62.22l46.25 9.13c20.36,6.59 26.17,5.22 47.22,14.91l-65.61 16.28zm161.13 -51.76l-29.76 -0.72c-127.47,-9.36 -389.95,-47.31 -415.11,87.56 9.48,93.64 286.57,115.08 429.91,75.55 58.42,-16.11 91.99,-34.8 92.68,-105.18 -12.02,-8.44 -18.2,-10.44 -34.09,-20.8l-43.63 -36.41z"/>
    <path class="fil11" d="M2001.76 3713.2c32.75,38.09 55.57,-3.67 74.66,58.48 -30.41,43.27 1.69,14.05 -41.14,29.37 -15.33,5.49 -47.82,11.36 -51.8,11.46 -21.43,0.54 -87.17,-24.09 -100.65,-32.1 61.54,-34.36 70.4,49.42 87.46,-35.16l-81.37 -21.78c10.55,-48.55 36.67,-64.93 99.02,-65.93 14.52,-0.23 22.58,-7.36 66.69,32.27 -30.72,14.17 -13.14,0.1 -26.36,3.95 -34.38,10.01 -6.36,-5.9 -26.52,19.45zm73.5 -79.03c-97.83,25.68 -307.23,-37.04 -359.15,90.73 -8.85,138.61 522.8,138.27 522.38,11.7 -0.2,-59.88 -114.82,-80.59 -154.77,-98.21 -1.98,-0.88 -5.74,-2.62 -8.47,-4.21z"/>
    <path class="fil11" d="M1029.78 3467.59c13.45,37.8 34.17,3.44 77.4,43.18 -25.47,79.31 -124.47,70.71 -194.81,24.7 46.36,-25.88 48.12,17.58 86.64,-9.4 -17.53,-72.61 -44.57,9.78 -80.5,-70.17 53.44,-61.89 118.98,-39.77 174.61,-9.25 -42.05,23.03 -7.81,-0.07 -37.77,4.86 -37.46,6.17 -6.02,-3.71 -25.57,16.09zm-282.29 49.15c176.4,125.07 537.11,71.93 517.98,-33.61 -18.21,-100.49 -530.61,-160.28 -517.98,33.61z"/>
    <path class="fil11" d="M1161.22 4508.48c39.2,-40.08 44.2,-14.52 86.92,-42.29l31.16 48.16c-25.91,8.26 -6.38,-13.07 -24.02,17.53 51.23,69.65 52.67,-32.35 66.65,81 -42.65,13.23 -51.38,3.15 -84.45,29.79l-90.83 -48.54c51.71,-16.43 17.29,-3.96 76.02,9.81 4.95,-97.31 -34.59,-10.22 -61.45,-95.46zm255.45 -17.39c-56.9,-1.14 -15.08,-11.75 -95.13,-33.27 -123.13,-33.11 -219.19,-15.72 -312.66,43.82 -4.19,192.97 343.11,181 419.06,116.97 64.75,-54.59 26.16,-80.38 -11.28,-127.52z"/>
    <path class="fil11" d="M4663.48 4133.88c26.85,-25.26 45.75,-8.42 68.27,-24.98 -9.25,-65.51 -3.1,-9.07 -32.01,-48.73 -8.08,-11.09 -9.43,29.7 -8.95,-19.88 0.03,-3.51 6.23,-17.94 9.18,-20.89 28.6,-28.62 54.82,0.7 91.87,-6.02l41.49 68.06c-46.36,-4.57 -8.15,-6.48 -47.68,-21.85l-15.17 27.86c33.68,37.35 33.6,11.64 39.05,70.17 -69.71,43.7 -121.39,-11.44 -121.46,-11.49l-24.58 -12.25zm274.42 85.66c75.5,-157.93 -271.42,-337.63 -372.48,-263.98 -81.04,59.07 57.56,174.81 89,198.45 70.79,53.23 182.38,94.77 283.48,65.53z"/>
    <path class="fil11" d="M5308.05 4383.42c41.86,-40.33 86.2,-36.44 141.97,-19.31 -58.6,47.37 -32.06,-16.92 -50.16,39.11 46.05,39.4 37.96,-5.59 76.1,46.78 -25.78,55.53 -20.88,15.83 -75.97,67.07 -43.88,-25.37 -50.15,2.48 -90.3,-31.98 49.05,-31.92 47.66,19.39 69.97,-23.39 -27.64,-56.55 -80.52,8.17 -71.62,-78.27zm20.76 -54.61c-299.85,62.76 -186.14,257.1 110.48,196.04 284.53,-58.58 187.71,-258.45 -110.48,-196.04z"/>
    <path class="fil11" d="M3511.7 4543.57c-50.62,44.7 -33.35,4.41 -88.23,30.87 -88.95,-70.67 -50.64,-9.92 -78.8,-67.46 40.12,11.82 37.43,22.76 71.27,19.33 17.29,-85.02 -46.95,-9.01 -47.31,-96.29 37.65,-25.54 49.68,-13.65 89.93,-26.29l30.85 25.36c36.09,29.84 10.2,-2.35 29.38,32.73l-52.39 -13.5c-25.39,86.2 27.34,5.59 45.31,95.24zm-298.9 -131.99c-3.09,108.65 83.36,145.16 172.14,170.19 75.29,21.22 237.48,43.24 266.93,-33.19 46.44,-120.53 -290.23,-244.68 -439.07,-137z"/>
    <path class="fil11" d="M233.45 4426.61c25.23,-35.91 2.83,-15.93 43.12,-37.33 30.41,-16.16 5.07,8.22 35.94,-21.74 19.01,10.27 44.5,18 73.32,23.03 -55.2,48.51 -27.77,-17.45 -53.39,36.05 16.47,17.18 -1.37,4.38 21.89,15.96 30.94,15.4 25.34,-3.98 53.37,30.82 -5.33,30.05 16.76,25.54 -52.43,55.55 -38.83,16.85 -87.36,2.73 -110.66,-20.47 35.72,-20.08 8.6,-4.17 36.86,-6.21 2.31,-0.17 6.42,0.14 8.53,-0.03 2.06,-0.16 6.6,-0.75 8.27,-0.92l15.8 -4.53c-13.42,-72.84 -22.55,0.45 -80.62,-70.17zm-143.12 74.03c145.7,117.46 503.46,39.04 447.88,-87.91 -29.33,-67.01 -177.11,-75.7 -257.7,-64.34 -119.84,16.89 -194.4,50.06 -190.19,152.25z"/>
    <path class="fil11" d="M2498.34 4277.97l-58.89 -15.7c-19.95,56.96 31.87,10.17 26.2,95.36 -56.35,19.23 -36.41,0.29 -94.75,6.6l-64.85 -84.31c38.78,-1.96 41.88,14.47 64.85,34.56l22.18 -27.79c-0.03,-0.03 -25.37,-10.71 -37.71,-45.39 -14.43,-40.54 2.15,-38.8 36.87,-40.32l63.89 13.33c8.76,6.61 34.39,46.97 42.22,63.66zm98.71 21.39c-9.38,-32.54 -19.49,-37.69 -42.73,-51.39 -51.58,-18.68 -2.3,0.67 -59.93,-37.89 -84.42,-56.47 -172.22,-96.05 -278.47,-65.42 -19.18,59.15 -8.51,95.14 28.19,139.64 79.8,96.77 404.71,255.49 352.94,15.05z"/>
    <path class="fil2" d="M3192.16 3840.4c57.38,52.96 59.97,-1.91 132.64,100.68 1.05,1.49 3.13,4.9 5.11,7 96.86,-58.78 112.32,-47.22 223.33,-82.84 4.76,-41.47 3.33,-85.8 3.49,-128.73 0.41,-109.82 12.43,-103.12 -17.32,-125.21l-80.09 67.56c-34.08,25.49 -49.61,36.37 -81.82,58.63 -63.4,43.8 -117.14,71.37 -185.35,102.92z"/>
    <path class="fil12" d="M3930.22 1374.18c12.31,13.3 28.13,13.29 42.34,-0.17 68.83,-65.23 253.13,-277.14 310.2,-300.13 -9.92,-60.34 -5.54,-93.51 -28.9,-140.55l-339.04 337.23 15.41 103.62z"/>
    <path class="fil11" d="M539.67 4062.74c13.43,-28.34 32.45,-39.58 53.8,-68.69l78.11 -9.18c-3.05,3.16 -7.34,6.05 -10.16,8.38 -55.55,45.93 -26.16,5.14 -37.59,32.48 27.97,41.33 27.73,17.24 87.62,21.18l0.73 -115.06c-123.65,12.2 -296.07,108.32 -297.28,225.77 26.2,86.59 184.5,40.93 256.42,6.17 44.92,-21.71 39.57,-13.47 34.44,-61.12 -0.16,0.12 -73.68,85.32 -132.08,37.8l66.66 -15.39c-14.4,-54.79 -4.51,-36.48 -39.41,-39.5 -51.05,-4.42 -28.74,26.61 -61.26,-22.83z"/>
    <path class="fil8" d="M5216.65 4627.05c75.65,48.83 208.86,25.75 288.53,-1.72 93.69,-32.3 150.54,-63.74 141.22,-188.98 -2.1,-1.82 -21.46,-15.64 -21.77,-15.97 -66.4,184.43 -402.92,126.99 -416.09,131.66l8.11 75.01z"/>
    <path class="fil8" d="M146.65 4657.09c123.41,18.18 170.17,36.72 296.57,-6.16 93.12,-31.59 147.94,-64.5 133.63,-177.59 -61.83,-30.28 3.49,48.87 -189.03,99.54 -103.68,27.29 -156.85,11.07 -250.02,-8.42l8.85 92.63z"/>
    <path class="fil8" d="M1029.76 4709.31c69.19,87.24 442.8,99.83 448.87,-51.44l2.77 -60.25c-48.76,47.32 -105.74,82.64 -209.97,85.5 -125.39,3.44 -141.45,-30.33 -233.59,-50.64l-8.08 76.84z"/>
    <path class="fil2" d="M3942.23 2767.11c89.36,43.03 175.51,23.77 204.14,123.27 -0.9,40.63 0.17,80.76 -0.14,121.27 -0.13,16.87 -1.79,43.79 -1.09,59.11 1.94,42.63 -3.59,29.99 13.77,58.74 35.62,-140.45 60.61,-256.14 63.72,-410.6l-282.99 -0.99 2.6 49.2z"/>
    <path class="fil11" d="M4085.18 4114.52c130.22,27.35 242.39,58.25 383.94,12.96 9.7,-32.17 -10.18,-45.56 12.37,-82.19 -42.95,-7.82 -126.74,18.07 -192.4,16.43 -75.83,-1.91 -142.44,-24.93 -203.91,-37l0 89.79z"/>
    <path class="fil11" d="M3635.22 3594.97c158.91,41.46 198.51,41.86 366.23,21.78l7.96 -90.7c-138.25,18.29 -260.34,27.14 -375.23,-26.87l1.04 95.78z"/>
    <path class="fil11" d="M3172.99 4487.82c-52.08,-10.6 -126.7,9.7 -191.27,3.86 -72.73,-6.57 -115.52,-26.92 -177.44,-34.46l3.7 81.03c83.6,46.8 250.69,54.66 346.5,31.32l18.51 -81.76z"/>
    <path class="fil3" d="M1416.67 4491.09c37.44,47.14 76.02,72.93 11.28,127.52 -75.95,64.04 -423.26,76.01 -419.06,-116.97 93.47,-59.54 189.53,-76.93 312.66,-43.82 80.05,21.52 38.23,32.13 95.13,33.27zm-393.93 -41.72c-15.39,49.47 -43.13,46.12 -50.27,128.82 -7.3,84.53 0.87,108.44 57.29,131.13l8.08 -76.84c92.15,20.32 108.21,54.09 233.59,50.64 104.22,-2.86 161.21,-38.17 209.97,-85.5l-2.77 60.25c14.09,-25.36 17.8,-65.68 6.94,-103.88 -14.23,-50.02 -29.63,-58.01 -68.9,-62.9l-36.75 -31.98c-47.83,-24.61 -113.85,-27.14 -166.08,-40.93l-191.1 31.18z"/>
    <path class="fil3" d="M90.34 4500.64c-4.21,-102.19 70.35,-135.37 190.19,-152.25 80.58,-11.36 228.36,-2.66 257.7,64.34 55.58,126.95 -302.18,205.37 -447.88,87.91zm56.31 156.45l-8.85 -92.63c93.17,19.49 146.34,35.7 250.02,8.42 192.52,-50.67 127.2,-129.81 189.03,-99.54 -9.7,-91.29 -48.96,-118.56 -137.54,-138.04 -125.72,-27.64 -363.69,10.2 -377.25,137.65 -11.41,107.24 16.33,141.88 84.59,184.14z"/>
    <path class="fil3" d="M5328.81 4328.81c298.19,-62.41 395.01,137.46 110.48,196.04 -296.62,61.06 -410.33,-133.28 -110.48,-196.04zm-112.16 298.24l-8.11 -75.01c13.17,-4.67 349.69,52.77 416.09,-131.66 0.3,0.33 19.67,14.15 21.77,15.97 -22.36,-160.65 -238.61,-156.61 -372.78,-113.31 -62.17,20.06 -135.76,54.47 -143.84,127.51 -9.62,87.04 14.59,157.89 86.87,176.5z"/>
    <path class="fil2" d="M2764.25 2657.36l244.33 0.45c-9.49,-76.31 -30.84,-116.21 -63.99,-168.36 -43.45,12.86 -32.24,9.62 -61.67,40.45 -13.78,14.44 -29.93,30.33 -40.65,40.91 -23.04,22.75 -52.71,51.69 -78.01,86.55z"/>
    <polygon class="fil13" points="3613.37,2657.91 3614.79,2724.19 3939.64,2717.91 3938.83,2659.7 3619.63,2661.85 3612.04,2627.86 "/>
    <path class="fil14" d="M4388.68 3463.01c-21.04,-9.69 -26.85,-8.32 -47.22,-14.91l-46.25 -9.13c-96.07,13.23 -78.92,44.8 -84.84,62.22l81.7 52.55c-37.22,7.24 -53.96,-16.19 -86.64,10.62 73.73,19.99 145.62,50.94 197.12,-14.91 -18.33,-53.63 20.6,-12.45 -42.57,-39.2 -40.12,-17 -18.95,17.03 -36.91,-30.97l65.61 -16.28z"/>
    <path class="fil15" d="M3614.79 2724.19l-1.42 -66.28 -249.42 0.63c-86.1,1.68 -67.04,22.92 -68.7,25.47 14.62,54.66 -22.42,33.58 151.62,33.12 57.14,-0.15 113.25,-3.77 167.92,7.07z"/>
    <path class="fil11" d="M527.87 4314.08c82.36,4.08 116.9,-14.24 181.12,-35.5l2.43 -101.1c-85.22,29.4 -107.46,45.11 -212.79,58.4l29.23 78.2z"/>
    <path class="fil14" d="M1029.78 3467.59c19.56,-19.79 -11.88,-9.92 25.57,-16.09 29.96,-4.94 -4.28,18.17 37.77,-4.86 -55.64,-30.52 -121.18,-52.64 -174.61,9.25 35.93,79.96 62.97,-2.44 80.5,70.17 -38.52,26.97 -40.27,-16.48 -86.64,9.4 70.33,46.01 169.33,54.61 194.81,-24.7 -43.23,-39.74 -63.94,-5.37 -77.4,-43.18z"/>
    <path class="fil14" d="M2001.76 3713.2c20.15,-25.35 -7.87,-9.43 26.52,-19.45 13.22,-3.85 -4.36,10.23 26.36,-3.95 -44.12,-39.63 -52.17,-32.5 -66.69,-32.27 -62.35,1 -88.48,17.37 -99.02,65.93l81.37 21.78c-17.06,84.58 -25.92,0.8 -87.46,35.16 13.48,8.01 79.22,32.65 100.65,32.1 3.98,-0.1 36.47,-5.97 51.8,-11.46 42.83,-15.32 10.73,13.89 41.14,-29.37 -19.09,-62.15 -41.91,-20.39 -74.66,-58.48z"/>
    <path class="fil14" d="M3800.45 4169.32c54.28,60.03 86.08,-7.05 71.12,75.69 -13.7,-5.3 -12.07,-7.5 -35.33,-10.07 -18.93,-2.1 1.32,-1.75 -17.62,-0.91 -41.69,1.86 -7.17,-1.75 -24.21,5.46 47.85,33.97 112.84,44.69 160.68,18.95 33.36,-17.95 23.12,-14.36 31.89,-47.58 -14.24,-5.89 -25.74,-9.18 -41.51,-15.64 -46.38,-19 -24.51,3.34 -36.38,-25.89 16.35,-35.14 8.47,3.15 59.26,-19.8 -29.63,-22.15 -55.05,-35.35 -83.63,-32.05 -79.2,9.15 -78.47,34.25 -84.25,51.84z"/>
    <path class="fil16" d="M3610.07 2809.83l42.22 -3.73c45.66,-58.42 228.14,-36.98 289.95,-38.98l-2.6 -49.2 -324.85 6.28 -4.72 85.64z"/>
    <path class="fil14" d="M3049.64 3923.71c20.49,-18.34 -7.65,-10.38 28.69,-17.88 15.88,-3.27 -13.16,16.85 29.67,-5.51 -51.53,-41.54 -124.25,-38.08 -171,11.7 53.12,69.59 77.14,1.95 77.72,74.84 -41.87,6.4 -11.47,-2.05 -39.66,-3.34l-41.95 9.8c63.98,26.51 150.44,50.25 195.37,-9.91 -20.63,-64.13 -45.78,-13.95 -78.84,-59.7z"/>
    <path class="fil14" d="M1422.24 3058.26c21.96,-16.35 40.46,-5.33 68.03,-19.8 -33.86,-12.49 -129.11,-63.36 -175.92,19.8 33.52,40.96 29.57,20.27 80.9,38.94l-6.67 33.31 -78.63 -2.34c24.91,23.95 73.04,34.55 101.11,33.33 69.08,-3.01 81.47,-28.11 93.97,-44.76 -49.51,-68.1 -48.69,-6.11 -82.8,-58.48z"/>
    <path class="fil14" d="M3762.94 2842.35c15.41,51.07 -16.31,13.29 37.87,39.73 47.23,23.04 30.4,-13.43 43.28,35.84 -17.28,10.65 -44.66,4.69 -59.14,5.98l-15.13 3.08c-1.4,0.28 -4.86,1.41 -7.05,2.64 36.06,27.48 96.34,39.33 146.14,19.5 49.61,-19.76 19.03,2.39 43.63,-31.19 -40.51,-72.82 -55.89,-3.31 -77.3,-70.17l56.98 -5.13c-5.8,-12.98 -55.87,-40.45 -81.88,-35.93 -34.02,5.91 35.66,-11.34 -14.31,5.02l-73.08 30.64z"/>
    <path class="fil15" d="M2693.87 2691.54c15.51,20.36 -4.95,8.17 21.22,20.28 16.16,7.47 20.97,6.89 40.88,7.68 23.22,0.91 57.32,-2.22 82.72,-2.4 56.68,-0.4 114.02,-1.26 170.32,3.73l0.49 -1.45 0.08 -59.49 -1.01 -2.08 -244.33 -0.45 -19.95 14.18c-33.57,21.92 -12.64,16.42 -50.43,20z"/>
    <path class="fil14" d="M2465.64 4357.63c5.67,-85.19 -46.15,-38.4 -26.2,-95.36l58.89 15.7c-7.83,-16.69 -33.46,-57.05 -42.22,-63.66l-63.89 -13.33c-34.71,1.53 -51.29,-0.21 -36.87,40.32 12.34,34.68 37.68,45.36 37.71,45.39l-22.18 27.79c-22.97,-20.09 -26.07,-36.51 -64.85,-34.56l64.85 84.31c58.34,-6.31 38.4,12.63 94.75,-6.6z"/>
    <polygon class="fil15" points="3939.64,2717.91 4222.63,2718.9 4222.55,2658 3938.83,2659.7 "/>
    <path class="fil14" d="M233.45 4426.61c58.07,70.62 67.2,-2.67 80.62,70.17l-15.8 4.53c-1.67,0.17 -6.21,0.76 -8.27,0.92 -2.1,0.16 -6.21,-0.14 -8.53,0.03 -28.26,2.04 -1.14,-13.87 -36.86,6.21 23.3,23.2 71.83,37.32 110.66,20.47 69.19,-30.01 47.1,-25.51 52.43,-55.55 -28.04,-34.81 -22.43,-15.42 -53.37,-30.82 -23.25,-11.58 -5.42,1.22 -21.89,-15.96 25.62,-53.49 -1.81,12.47 53.39,-36.05 -28.82,-5.02 -54.31,-12.75 -73.32,-23.03 -30.86,29.96 -5.53,5.59 -35.94,21.74 -40.29,21.4 -17.88,1.42 -43.12,37.33z"/>
    <path class="fil14" d="M5308.05 4383.42c-8.9,86.44 43.99,21.73 71.62,78.27 -22.32,42.78 -20.92,-8.52 -69.97,23.39 40.15,34.46 46.41,6.61 90.3,31.98 55.09,-51.24 50.19,-11.54 75.97,-67.07 -38.14,-52.37 -30.05,-7.38 -76.1,-46.78 18.1,-56.03 -8.44,8.27 50.16,-39.11 -55.78,-17.13 -100.12,-21.02 -141.97,19.31z"/>
    <polygon class="fil13" points="3009.51,2719.38 3300.22,2715.32 3299.73,2661.78 3009.59,2659.89 "/>
    <path class="fil14" d="M3358.59 4048.04c70.25,2.14 69.89,-23.34 97.87,27.71l-66.73 27.33c38.67,16.75 79.82,12.07 104.87,-5.73l16.18 -15.93c16.51,-17.16 44.69,-43.95 21.14,-66.6 -30.8,-29.61 -37.28,14.71 -84.66,-20.94 15.85,-31.66 23.08,-11.36 35.12,-44.34 -40.95,3.29 -34.41,7.74 -70.6,-0.54 -39.95,61.57 -47.7,21.53 -53.19,99.03z"/>
    <path class="fil14" d="M3511.7 4543.57c-17.96,-89.65 -70.7,-9.04 -45.31,-95.24l52.39 13.5c-19.17,-35.07 6.71,-2.88 -29.38,-32.73l-30.85 -25.36c-40.25,12.64 -52.28,0.75 -89.93,26.29 0.36,87.28 64.6,11.27 47.31,96.29 -33.83,3.42 -31.15,-7.52 -71.27,-19.33 28.16,57.54 -10.15,-3.21 78.8,67.46 54.87,-26.46 37.61,13.83 88.23,-30.87z"/>
    <path class="fil14" d="M4731.75 4108.9c-22.52,16.56 -41.42,-0.28 -68.27,24.98l24.58 12.25c0.07,0.05 51.76,55.19 121.46,11.49 -5.46,-58.53 -5.37,-32.82 -39.05,-70.17l15.17 -27.86c39.53,15.38 1.32,17.28 47.68,21.85l-41.49 -68.06c-37.05,6.72 -63.27,-22.6 -91.87,6.02 -2.95,2.95 -9.15,17.38 -9.18,20.89 -0.48,49.58 0.86,8.79 8.95,19.88 28.92,39.67 22.76,-16.77 32.01,48.73z"/>
    <path class="fil2" d="M1694.99 3634.96l-2.94 13.65 3.81 42.63 97.26 -52.92c3.53,-1.48 14.17,-5.72 17.44,-7.47 20.09,-10.68 10.89,-4.53 24,-16.85 -43.72,-42.55 -82.98,-84.03 -130.06,-134.76l-9.14 35.18c-0.07,0.67 -0.96,32.18 -1,34.02 -0.66,30.19 -0.42,56.45 0.62,86.52z"/>
    <path class="fil14" d="M1161.22 4508.48c26.86,85.24 66.4,-1.84 61.45,95.46 -58.73,-13.76 -24.32,-26.24 -76.02,-9.81l90.83 48.54c33.07,-26.64 41.8,-16.57 84.45,-29.79 -13.98,-113.35 -15.41,-11.35 -66.65,-81 17.64,-30.59 -1.89,-9.27 24.02,-17.53l-31.16 -48.16c-42.72,27.77 -47.72,2.22 -86.92,42.29z"/>
   </g>
  </g>
  <polygon class="fil17" points="-0,0 5706.97,0 5706.97,5706.97 -0,5706.97 "/>
 </g>
</svg>
