<?xml version="1.0" encoding="UTF-8"?>
<!DOCTYPE svg PUBLIC "-//W3C//DTD SVG 1.1//EN" "http://www.w3.org/Graphics/SVG/1.1/DTD/svg11.dtd">
<!-- Creator: CorelDRAW -->
<svg xmlns="http://www.w3.org/2000/svg" xml:space="preserve" width="4.11946in" height="3.79064in" version="1.1" style="shape-rendering:geometricPrecision; text-rendering:geometricPrecision; image-rendering:optimizeQuality; fill-rule:evenodd; clip-rule:evenodd"
viewBox="0 0 638.95 587.95"
 xmlns:xlink="http://www.w3.org/1999/xlink"
 xmlns:xodm="http://www.corel.com/coreldraw/odm/2003">
 <defs>
  <style type="text/css">
   <![CDATA[
    .fil32 {fill:#33DC76}
    .fil14 {fill:#FEFEFE}
    .fil2 {fill:#056A2D;fill-rule:nonzero}
    .fil20 {fill:#09AB49;fill-rule:nonzero}
    .fil5 {fill:#0AF769;fill-rule:nonzero}
    .fil25 {fill:#1E3125;fill-rule:nonzero}
    .fil15 {fill:#2FD772;fill-rule:nonzero}
    .fil6 {fill:#333333;fill-rule:nonzero}
    .fil26 {fill:#33DC76;fill-rule:nonzero}
    .fil31 {fill:#49E688;fill-rule:nonzero}
    .fil10 {fill:#4A5057;fill-rule:nonzero}
    .fil3 {fill:#51585F;fill-rule:nonzero}
    .fil9 {fill:#606979;fill-rule:nonzero}
    .fil13 {fill:#E79737;fill-rule:nonzero}
    .fil12 {fill:#F2AB32;fill-rule:nonzero}
    .fil11 {fill:#FBCC50;fill-rule:nonzero}
    .fil7 {fill:#FEFEFE;fill-rule:nonzero}
    .fil1 {fill:black;fill-rule:nonzero;fill-opacity:0.501961}
    .fil0 {fill:#51585F;fill-rule:nonzero;fill-opacity:0.501961}
    .fil8 {fill:url(#id0)}
    .fil17 {fill:url(#id1)}
    .fil22 {fill:url(#id2)}
    .fil4 {fill:url(#id3)}
    .fil23 {fill:url(#id4)}
    .fil18 {fill:url(#id5)}
    .fil28 {fill:url(#id6)}
    .fil27 {fill:url(#id7)}
    .fil19 {fill:url(#id8)}
    .fil24 {fill:url(#id9)}
    .fil29 {fill:url(#id10)}
    .fil30 {fill:url(#id11)}
    .fil16 {fill:url(#id12)}
    .fil21 {fill:url(#id13)}
   ]]>
  </style>
  <linearGradient id="id0" gradientUnits="userSpaceOnUse" x1="337.97" y1="519.6" x2="305.4" y2="487.65">
   <stop offset="0" style="stop-opacity:1; stop-color:#4DA971"/>
   <stop offset="0.380392" style="stop-opacity:1; stop-color:#00AB44"/>
   <stop offset="0.741176" style="stop-opacity:1; stop-color:#28DB6F"/>
   <stop offset="1" style="stop-opacity:1; stop-color:#33DC76"/>
  </linearGradient>
  <linearGradient id="id1" gradientUnits="userSpaceOnUse" xlink:href="#id0" x1="594.87" y1="391.58" x2="568.59" y2="355.78">
  </linearGradient>
  <linearGradient id="id2" gradientUnits="userSpaceOnUse" xlink:href="#id0" x1="594.87" y1="337.13" x2="568.59" y2="301.19">
  </linearGradient>
  <linearGradient id="id3" gradientUnits="userSpaceOnUse" xlink:href="#id0" x1="356.12" y1="582.27" x2="310.99" y2="501.14">
  </linearGradient>
  <linearGradient id="id4" gradientUnits="userSpaceOnUse" xlink:href="#id0" x1="594.35" y1="363.92" x2="568.14" y2="328.53">
  </linearGradient>
  <linearGradient id="id5" gradientUnits="userSpaceOnUse" xlink:href="#id0" x1="594.35" y1="418.51" x2="568.14" y2="383.12">
  </linearGradient>
  <linearGradient id="id6" gradientUnits="userSpaceOnUse" xlink:href="#id0" x1="523.68" y1="391.42" x2="497.4" y2="355.48">
  </linearGradient>
  <linearGradient id="id7" gradientUnits="userSpaceOnUse" xlink:href="#id0" x1="523.68" y1="377.77" x2="497.4" y2="341.98">
  </linearGradient>
  <linearGradient id="id8" gradientUnits="userSpaceOnUse" xlink:href="#id0" x1="594.72" y1="405.22" x2="568.74" y2="369.59">
  </linearGradient>
  <linearGradient id="id9" gradientUnits="userSpaceOnUse" xlink:href="#id0" x1="594.72" y1="350.77" x2="568.74" y2="314.99">
  </linearGradient>
  <linearGradient id="id10" gradientUnits="userSpaceOnUse" xlink:href="#id0" x1="523.16" y1="418.35" x2="496.95" y2="382.81">
  </linearGradient>
  <linearGradient id="id11" gradientUnits="userSpaceOnUse" xlink:href="#id0" x1="523.52" y1="405.06" x2="497.55" y2="369.28">
  </linearGradient>
  <linearGradient id="id12" gradientUnits="userSpaceOnUse" xlink:href="#id0" x1="594.88" y1="378.08" x2="568.74" y2="342.28">
  </linearGradient>
  <linearGradient id="id13" gradientUnits="userSpaceOnUse" xlink:href="#id0" x1="594.88" y1="323.48" x2="568.74" y2="287.69">
  </linearGradient>
 </defs>
 <g id="Layer_x0020_1">
  <metadata id="CorelCorpID_0Corel-Layer"/>
  <g id="_105553217913888">
   <path class="fil0" d="M319.28 23.69l-1.74 -23.69 -1.79 23.69c-16.98,216.17 -2.92,417.41 -2.92,417.41l4.57 5.75 0.01 0.45 0.17 -0.22 0.17 0.22 0 -0.45 4.58 -5.75c0,0 13.92,-201.24 -3.07,-417.41l0 0z"/>
   <path class="fil0" d="M313.32 23.69l-0.87 -23.69 -0.89 23.69c-8.49,216.17 -1.46,417.41 -1.46,417.41l2.29 5.75 0.01 0.45 0.09 -0.22 0.09 0.22 0 -0.45 2.29 -5.75c0,0 6.96,-201.24 -1.53,-417.41l-0 0z"/>
   <path class="fil1" d="M319.28 23.69l-1.74 -23.69 -1.79 23.69c-16.98,216.17 -2.92,417.41 -2.92,417.41l4.57 5.75 0.01 0.45 0.17 -0.22 0.17 0.22 0 -0.45 4.58 -5.75c0,0 13.92,-201.24 -3.07,-417.41l0 0z"/>
   <path class="fil1" d="M313.32 23.69l-0.87 -23.69 -0.89 23.69c-8.49,216.17 -1.46,417.41 -1.46,417.41l2.29 5.75 0.01 0.45 0.09 -0.22 0.09 0.22 0 -0.45 2.29 -5.75c0,0 6.96,-201.24 -1.53,-417.41l-0 0z"/>
   <path class="fil2" d="M320.93 587.95c-94.38,0 -170.88,-15.18 -170.88,-33.9 0,-18.73 76.51,-33.9 170.88,-33.9 94.38,0 170.88,15.18 170.88,33.9 0,18.72 -76.51,33.9 -170.88,33.9z"/>
   <path class="fil3" d="M614.31 383.47c-0.87,-0.3 -1.76,-0.59 -2.67,-0.88l-72.19 -255.56 1.79 -0.42 2.82 8.15 70.25 248.71 0 0z"/>
   <path class="fil4" d="M321.18 533.29c0,0 -48.68,4.66 -97.26,-18.9l0 34.52c0,0 16.98,19.57 97.12,19.57 82.86,0 96.92,-19.57 96.92,-19.57l0 -34.52c-48.59,23.56 -96.78,18.9 -96.78,18.9z"/>
   <path class="fil5" d="M417.93 513.6c0,12.96 -43.49,23.46 -97.14,23.46 -53.65,0 -97.13,-10.5 -97.13,-23.46 0,-12.95 43.49,-23.46 97.13,-23.46 53.66,0 97.14,10.51 97.14,23.46z"/>
   <path class="fil5" d="M350.11 448.88l0 60.94c0,5.68 -4.74,10.29 -10.43,10.29l-44.57 0c-5.66,0 -10.18,-4.61 -10.18,-10.29l0 -60.94c0,-5.68 4.51,-10.24 10.18,-10.24l44.57 0c5.68,0 10.43,4.57 10.43,10.24z"/>
   <polygon class="fil6" points="110.96,154.89 528.1,121.16 528.1,111.3 110.96,145.03 "/>
   <path class="fil6" d="M113.15 152.14c-0.12,0.39 -1.74,13.82 -18.34,12.05 -0.71,-0.07 -1.41,-0.24 -2.07,-0.5 -2.67,-1.08 -8.83,-4.76 -8.93,-15.69 -0.01,-0.99 0.52,-1.96 1.42,-2.41 1.15,-0.57 2.84,-0.32 4.48,3.9 0,0 2.3,8.58 9.15,7.57 0,0 6.28,-0.08 8.61,-8.96 0.51,-1.92 2.37,-3.32 4.3,-3.05 1.72,0.24 3.02,1.81 1.38,7.09l-0 -0z"/>
   <path class="fil6" d="M525.89 119.43c0.12,0.38 1.75,13.73 18.34,11.18 0.72,-0.11 1.41,-0.31 2.08,-0.6 2.67,-1.21 8.83,-5.19 8.93,-16.11 0.01,-0.99 -0.53,-1.94 -1.42,-2.34 -1.14,-0.51 -2.83,-0.19 -4.47,4.12 0,0 -2.3,8.69 -9.15,8.01 0,0 -6.28,0.22 -8.61,-8.56 -0.51,-1.9 -2.37,-3.21 -4.3,-2.85 -1.72,0.32 -3.03,1.95 -1.38,7.15l0 -0z"/>
   <path class="fil3" d="M441.41 403.15c0,16.46 44.21,29.8 98.77,29.8 54.54,0 98.77,-13.34 98.77,-29.8 0,-2.44 -0.97,-4.82 -2.82,-7.09 -10.53,-13.03 -49.5,-22.71 -95.95,-22.71 -50.58,0 -92.28,11.47 -98.07,26.25 -0.47,1.17 -0.7,2.34 -0.7,3.54l-0 0z"/>
   <path class="fil6" d="M337.13 130.13c0,10.82 -8.76,19.59 -19.59,19.59 -10.83,0 -19.59,-8.77 -19.59,-19.59 0,-10.82 8.76,-19.59 19.59,-19.59 10.82,0 19.59,8.77 19.59,19.59z"/>
   <path class="fil7" d="M327.79 130.13c0,5.66 -4.58,10.25 -10.25,10.25 -5.66,0 -10.25,-4.59 -10.25,-10.25 0,-5.66 4.58,-10.25 10.25,-10.25 5.66,0 10.25,4.59 10.25,10.25z"/>
   <path class="fil8" d="M350.11 486.93l0 22.89c0,5.68 -4.74,10.29 -10.43,10.29l-44.57 0c-5.66,0 -10.18,-4.61 -10.18,-10.29l0 -22.89 65.17 0 -0 0z"/>
   <polygon class="fil3" points="541.71,126.5 544.06,134.76 541.24,126.61 "/>
   <polygon class="fil3" points="544.06,134.76 541.24,126.61 541.71,126.5 "/>
   <path class="fil9" d="M636.13 396.07c-0.18,0.46 -0.4,0.92 -0.66,1.38 -7.77,14.11 -48.43,24.86 -97.42,24.86 -46.44,0 -85.41,-9.67 -95.95,-22.7 0.34,-0.88 0.82,-1.75 1.41,-2.61 0.95,-1.37 2.21,-2.71 3.77,-4 13.75,-11.46 50.15,-19.64 92.89,-19.64 28.12,0 53.48,3.54 71.47,9.23 0.91,0.29 1.8,0.58 2.67,0.88 8.05,2.75 14.43,5.96 18.68,9.48 1.22,1.02 2.28,2.06 3.14,3.12l-0 -0z"/>
   <path class="fil10" d="M233.65 135.06l-3.78 0c-0.21,-1.05 -0.35,-1.93 -0.4,-2.43 0.28,0.19 0.58,0.34 0.91,0.45 -0.61,-0.97 -0.91,-2.02 -0.91,-3.16 2.01,1.13 3.97,2.33 5.89,3.6 -0.28,0.86 -0.89,1.32 -1.8,1.36 0.04,0.06 0.07,0.12 0.1,0.18l0 0z"/>
   <path class="fil3" d="M635.47 397.45c0.25,-0.46 0.47,-0.92 0.66,-1.38 -0.86,-1.06 -1.92,-2.11 -3.14,-3.12l-88.93 -258.19 -2.34 -8.26 -0.47 0.11 -0.39 -1.14 2.21 -0.76 93.79 272.27 -1.37 0.47 -0 0z"/>
   <path class="fil3" d="M539.45 125.46l-92.16 267.54c-1.55,1.3 -2.82,2.63 -3.77,4l-0.06 -0.02 93.79 -272.27 2.2 0.76z"/>
   <path class="fil3" d="M172.91 418.08c-0.87,-0.3 -1.76,-0.59 -2.66,-0.88l-72.2 -255.56 1.79 -0.42 2.81 8.15 70.26 248.71 0 0z"/>
   <path class="fil3" d="M-0 437.76c0,16.46 44.22,29.8 98.78,29.8 54.55,0 98.76,-13.34 98.76,-29.8 0,-2.44 -0.97,-4.82 -2.82,-7.09 -10.53,-13.03 -49.49,-22.71 -95.95,-22.71 -50.58,0 -92.28,11.47 -98.07,26.25 -0.46,1.17 -0.7,2.34 -0.7,3.54l-0 0z"/>
   <path class="fil9" d="M194.72 430.68c-0.18,0.47 -0.4,0.92 -0.65,1.38 -7.78,14.11 -48.43,24.86 -97.42,24.86 -46.44,0 -85.41,-9.67 -95.95,-22.7 0.35,-0.88 0.82,-1.75 1.42,-2.61 0.95,-1.37 2.21,-2.71 3.77,-4 13.75,-11.46 50.15,-19.64 92.89,-19.64 28.12,0 53.48,3.54 71.47,9.23 0.91,0.29 1.79,0.58 2.66,0.88 8.05,2.75 14.43,5.96 18.68,9.48 1.23,1.02 2.28,2.06 3.14,3.12l-0 0z"/>
   <polygon class="fil11" points="173.88,422.82 152.22,440.6 115.03,442.81 87.82,422.82 87.82,369.32 173.88,369.32 "/>
   <path class="fil12" d="M173.89 381.26l0 0.73c-0.12,6.8 -3.67,11.96 -9.66,16.02 -0.41,0.28 -0.82,0.55 -1.25,0.81 -17.29,10.71 -48.53,10.55 -65.19,-0.54 -7.02,-4.67 -11.27,-10.69 -9.62,-20.42 11.66,21.54 53.85,24.4 74.81,10.97 4.8,-3.08 8.94,-6.47 10.89,-11.22 -0,1.57 -0.01,2.31 0.01,3.65l0 -0z"/>
   <path class="fil12" d="M173.89 395.91l0 0c-0.23,6.64 -3.76,11.7 -9.65,15.69 -0.41,0.28 -0.82,0.55 -1.25,0.81 -17.29,10.72 -48.53,10.55 -65.19,-0.54 -7.02,-4.67 -11.27,-10.69 -9.62,-20.42 11.66,21.54 53.85,24.4 74.81,10.97 4.8,-3.08 8.94,-6.52 10.89,-11.27 -0.01,1.46 -0.04,2.15 0.01,3.39l0 0.02c0.01,0.46 0.01,0.91 0,1.35l0 0z"/>
   <path class="fil12" d="M173.87 423.46l0 0c-0.41,5.94 -3.45,10.74 -8.86,14.61 -0.65,0.47 -1.33,0.92 -2.03,1.35 -17.72,10.96 -49.62,10.61 -66.21,-1.2 -5.93,-4.23 -8.94,-9.14 -8.94,-14.24 0,-1.56 0.28,-3.13 0.84,-4.7 2.87,4.41 6.23,7.8 9.96,10.39 9.17,6.38 20.54,7.9 32.24,7.84 11.64,-0.06 23,-1.47 32.1,-7.85 4.01,-2.81 7.91,-6.09 10.88,-11.14 0.02,0.9 0,1.3 0,2.17l0 0.01c0.06,0.94 0.06,1.86 -0,2.75l0 -0z"/>
   <path class="fil12" d="M173.88 409.72l0 0.01c-0.3,6.53 -3.82,11.52 -9.64,15.47 -0.41,0.28 -0.82,0.55 -1.25,0.81 -17.29,10.72 -48.53,10.56 -65.19,-0.54 -7.02,-4.67 -11.27,-10.69 -9.62,-20.42 11.66,21.54 53.85,24.4 74.81,10.97 4.8,-3.08 8.94,-6.32 10.89,-11.07 -0.02,1.23 -0.05,1.79 0,2.95 0.03,0.62 0.03,1.22 0,1.81l0 -0z"/>
   <path class="fil11" d="M98.69 388.32l0 51.14 -1.89 -1.23c-5.97,-4.16 -9.04,-9.14 -9.04,-14.24l0.09 -48.46 10.84 12.79 0 0z"/>
   <path class="fil13" d="M173.87 418.52c0,0 0,1.29 0.01,2.15l0 0.04 -0.01 2.75 0 0.53c0,5.1 -3.05,10.07 -9.03,14.24l-1.86 1.24 0 -9.8c8.19,-5.57 10.88,-11.14 10.88,-11.14l0 -0z"/>
   <path class="fil13" d="M173.88 407.91l0 1.83c-0.3,6.53 -3.82,11.52 -9.64,15.47 -0.41,0.28 -0.82,0.55 -1.25,0.81l0 -9.98c9.57,-5.88 10.89,-11.07 10.89,-11.07 0,0 -0.05,1.79 0,2.95l0 -0z"/>
   <path class="fil13" d="M173.89 394.54l0 1.36 -0.01 0.98c-0.01,5.58 -3.75,10.73 -9.64,14.72 -0.41,0.28 -0.82,0.55 -1.25,0.81l0 -9.99c4.8,-3.08 8.94,-6.52 10.89,-11.27 0,1.37 0,2.15 0.01,3.39l0 0z"/>
   <path class="fil13" d="M173.89 381.26l0 0.73c-0.12,6.8 -3.67,11.96 -9.66,16.02 -0.41,0.28 -0.82,0.55 -1.25,0.81l0 -9.98c9.58,-6.05 10.89,-11.22 10.89,-11.22 0,0 -0.01,2.31 0.01,3.65l0 -0z"/>
   <polygon class="fil11" points="173.88,369.26 152.22,386.17 115.03,388.27 87.82,369.26 87.82,318.4 173.88,318.4 "/>
   <path class="fil12" d="M173.89 326.72l0 0.73c-0.12,6.8 -3.67,11.96 -9.66,16.01 -0.41,0.28 -0.82,0.55 -1.25,0.81 -17.29,10.72 -48.53,10.56 -65.19,-0.54 -7.02,-4.67 -11.27,-10.69 -9.62,-20.42 11.66,21.54 53.85,24.4 74.81,10.97 4.8,-3.08 8.94,-6.46 10.89,-11.22 -0,1.57 -0.01,2.32 0.01,3.65l0 -0z"/>
   <path class="fil12" d="M173.89 341.36l0 0.01c-0.23,6.64 -3.76,11.7 -9.65,15.69 -0.41,0.28 -0.82,0.55 -1.25,0.81 -17.29,10.72 -48.53,10.56 -65.19,-0.53 -7.02,-4.67 -11.27,-10.69 -9.62,-20.42 11.66,21.54 53.85,24.4 74.81,10.97 4.8,-3.08 8.94,-6.52 10.89,-11.28 -0.01,1.46 -0.04,2.15 0.01,3.39l0 0.02c0.01,0.46 0.01,0.91 0,1.34l0 0z"/>
   <path class="fil12" d="M173.87 368.91l0 0.01c-0.41,5.94 -3.45,10.75 -8.86,14.61 -0.65,0.47 -1.33,0.92 -2.03,1.35 -17.72,10.96 -49.62,10.61 -66.21,-1.2 -5.93,-4.22 -8.94,-9.14 -8.94,-14.24 0,-1.56 0.28,-3.13 0.84,-4.7 2.87,4.41 6.23,7.8 9.96,10.39 9.17,6.38 20.54,7.9 32.24,7.84 11.64,-0.06 23,-1.48 32.1,-7.85 4.01,-2.81 7.91,-6.09 10.88,-11.14 0.02,0.9 0,1.3 0,2.17l0 0.01c0.06,0.94 0.06,1.86 -0,2.75l0 -0z"/>
   <path class="fil12" d="M173.88 355.18l0 0.02c-0.3,6.53 -3.82,11.52 -9.64,15.47 -0.41,0.28 -0.82,0.55 -1.25,0.81 -17.29,10.72 -48.53,10.56 -65.19,-0.54 -7.02,-4.67 -11.27,-10.69 -9.62,-20.42 11.66,21.54 53.85,24.4 74.81,10.97 4.8,-3.08 8.94,-6.32 10.89,-11.07 -0.02,1.23 -0.05,1.78 0,2.95 0.03,0.62 0.03,1.22 0,1.81l0 -0z"/>
   <path class="fil12" d="M174.36 315.08c0,13.14 -19.47,23.8 -43.48,23.8 -24.01,0 -43.49,-10.66 -43.49,-23.8 0,-13.15 19.48,-23.8 43.49,-23.8 24.02,0 43.48,10.66 43.48,23.8z"/>
   <path class="fil7" d="M130.87 298.02c-9.37,0 -18.17,1.76 -24.77,4.97 -6.39,3.1 -9.92,7.15 -9.92,11.39 0,4.25 3.52,8.29 9.92,11.4 6.6,3.2 15.4,4.97 24.77,4.97 9.37,0 18.17,-1.77 24.78,-4.97 6.39,-3.1 9.92,-7.15 9.92,-11.4 0,-4.25 -3.52,-8.3 -9.92,-11.39 -6.6,-3.2 -15.4,-4.97 -24.78,-4.97zm0 34.55c-9.65,0 -18.74,-1.83 -25.59,-5.15 -7.06,-3.42 -10.95,-8.05 -10.95,-13.03 0,-4.98 3.89,-9.61 10.95,-13.03 6.85,-3.32 15.94,-5.15 25.59,-5.15 9.65,0 18.74,1.83 25.59,5.15 7.06,3.42 10.94,8.05 10.94,13.03 0,4.98 -3.89,9.61 -10.94,13.03 -6.85,3.32 -15.94,5.15 -25.59,5.15z"/>
   <path class="fil7" d="M148.12 314.12c0.53,2.98 0.42,6.12 -0.43,9.42l-8.94 0c0.88,-1.92 1.53,-3.9 1.97,-5.92 0.41,-1.91 0.52,-3.5 0.35,-4.81 -0.14,-1.05 -0.39,-1.79 -0.75,-2.26 -0.36,-0.46 -0.89,-0.68 -1.59,-0.68 -0.48,0 -0.88,0.16 -1.19,0.49 -0.32,0.33 -0.67,0.89 -1.05,1.69 -0.4,0.82 -0.89,1.97 -1.48,3.47 -0.71,1.77 -1.57,3.27 -2.55,4.45 -1.02,1.22 -2.19,2.14 -3.5,2.73 -1.33,0.6 -2.97,0.9 -4.91,0.9 -2.96,0 -5.12,-0.89 -6.41,-2.61 -1.23,-1.65 -1.64,-3.98 -1.28,-6.86l-5.22 0 1.25 -3.81 4.88 0c0.71,-2.22 1.9,-4.29 3.51,-6.24l5.49 1.72c-1.58,2.15 -2.55,4.23 -2.84,6.22 -0.15,0.99 -0.1,1.71 0.15,2.12 0.25,0.43 0.67,0.64 1.28,0.64 0.52,0 0.97,-0.16 1.34,-0.47 0.37,-0.3 0.79,-0.83 1.26,-1.56 0.46,-0.72 1,-1.68 1.59,-2.88 1.18,-2.29 2.41,-3.83 3.71,-4.72 1.26,-0.87 2.86,-1.3 4.83,-1.3 2.23,0 4.11,0.5 5.7,1.52 1.65,1.06 2.92,2.68 3.8,4.95l5.93 0 1.25 3.81 -6.16 0 0 -0z"/>
   <path class="fil11" d="M98.69 333.77l0 51.14 -1.89 -1.23c-5.97,-4.17 -9.04,-9.14 -9.04,-14.24l0.09 -48.46 10.84 12.79 0 0z"/>
   <path class="fil13" d="M173.87 363.98c0,0 0,1.29 0.01,2.15l0 0.04 -0.01 2.74 0 0.53c0,5.1 -3.05,10.07 -9.03,14.24l-1.86 1.23 0 -9.8c8.19,-5.57 10.88,-11.14 10.88,-11.14l0 0z"/>
   <path class="fil13" d="M173.88 353.37l0 1.82c-0.3,6.53 -3.82,11.52 -9.64,15.47 -0.41,0.28 -0.82,0.55 -1.25,0.81l0 -9.98c9.57,-5.88 10.89,-11.07 10.89,-11.07 0,0 -0.05,1.78 0,2.95l0 0z"/>
   <path class="fil13" d="M173.89 340l0 1.36 -0.01 0.98c-0.01,5.58 -3.75,10.72 -9.64,14.71 -0.41,0.28 -0.82,0.55 -1.25,0.81l0 -9.98c4.8,-3.08 8.94,-6.52 10.89,-11.28 0,1.37 0,2.15 0.01,3.39l0 0z"/>
   <path class="fil13" d="M173.89 326.72l0 0.73c-0.12,6.8 -3.67,11.96 -9.66,16.01 -0.41,0.28 -0.82,0.55 -1.25,0.81l0 -9.98c9.58,-6.05 10.89,-11.22 10.89,-11.22 0,0 -0.01,2.32 0.01,3.65l0 -0z"/>
   <polygon class="fil11" points="102.65,423.57 80.99,440.48 43.8,442.58 16.59,423.57 16.59,372.72 102.65,372.72 "/>
   <path class="fil12" d="M102.67 381.03l-0 0.73c-0.12,6.8 -3.67,11.96 -9.65,16.02 -0.41,0.28 -0.83,0.55 -1.25,0.81 -17.29,10.72 -48.53,10.56 -65.19,-0.54 -7.02,-4.67 -11.27,-10.69 -9.62,-20.42 11.66,21.54 53.85,24.4 74.81,10.97 4.8,-3.08 8.94,-6.46 10.9,-11.22 -0,1.57 -0.01,2.31 0.01,3.64l-0 -0z"/>
   <path class="fil12" d="M102.66 395.68l0 0.01c-0.23,6.64 -3.76,11.7 -9.65,15.69 -0.41,0.28 -0.83,0.55 -1.25,0.81 -17.29,10.72 -48.53,10.56 -65.19,-0.54 -7.02,-4.67 -11.27,-10.69 -9.62,-20.42 11.66,21.54 53.85,24.4 74.81,10.97 4.8,-3.08 8.94,-6.52 10.89,-11.28 -0,1.46 -0.04,2.15 0.01,3.39l0 0.02c0.02,0.46 0.02,0.91 0,1.34l0 -0z"/>
   <path class="fil12" d="M102.64 423.23l0 0c-0.41,5.94 -3.45,10.75 -8.86,14.61 -0.65,0.46 -1.33,0.92 -2.02,1.34 -17.71,10.96 -49.61,10.61 -66.21,-1.2 -5.94,-4.22 -8.94,-9.14 -8.94,-14.24 0,-1.56 0.28,-3.13 0.84,-4.7 2.88,4.41 6.23,7.8 9.96,10.39 9.17,6.38 20.53,7.9 32.24,7.84 11.64,-0.06 23,-1.47 32.1,-7.85 4.02,-2.81 7.91,-6.09 10.88,-11.14 0.02,0.9 0,1.3 0,2.17l0 0.01c0.06,0.94 0.06,1.86 -0,2.75l0 0z"/>
   <path class="fil12" d="M102.65 409.49l0 0.02c-0.3,6.53 -3.82,11.52 -9.64,15.47 -0.41,0.27 -0.83,0.55 -1.25,0.81 -17.29,10.72 -48.53,10.56 -65.19,-0.53 -7.02,-4.67 -11.27,-10.69 -9.62,-20.42 11.66,21.54 53.85,24.4 74.81,10.97 4.8,-3.07 8.94,-6.32 10.89,-11.07 -0.02,1.23 -0.05,1.78 0,2.95 0.03,0.62 0.03,1.22 0,1.81l0 0z"/>
   <path class="fil12" d="M103.13 369.4c0,13.14 -19.47,23.8 -43.48,23.8 -24.01,0 -43.49,-10.66 -43.49,-23.8 0,-13.15 19.48,-23.8 43.49,-23.8 24.01,0 43.48,10.66 43.48,23.8z"/>
   <path class="fil7" d="M59.65 352.33c-9.38,0 -18.18,1.77 -24.77,4.97 -6.39,3.1 -9.92,7.15 -9.92,11.4 0,4.25 3.52,8.3 9.92,11.39 6.6,3.2 15.4,4.97 24.77,4.97 9.37,0 18.17,-1.76 24.77,-4.97 6.39,-3.1 9.91,-7.15 9.91,-11.39 0,-4.25 -3.52,-8.3 -9.91,-11.4 -6.6,-3.2 -15.4,-4.97 -24.77,-4.97zm0 34.55c-9.65,0 -18.74,-1.83 -25.59,-5.15 -7.06,-3.42 -10.95,-8.05 -10.95,-13.03 0,-4.98 3.89,-9.61 10.95,-13.03 6.85,-3.32 15.94,-5.15 25.59,-5.15 9.65,0 18.74,1.83 25.58,5.15 7.06,3.42 10.95,8.05 10.95,13.03 0,4.98 -3.89,9.61 -10.95,13.03 -6.85,3.32 -15.94,5.15 -25.58,5.15z"/>
   <path class="fil7" d="M76.89 368.44c0.54,2.98 0.43,6.12 -0.43,9.42l-8.94 0c0.88,-1.92 1.53,-3.9 1.96,-5.93 0.42,-1.91 0.53,-3.5 0.36,-4.81 -0.14,-1.05 -0.39,-1.79 -0.75,-2.25 -0.36,-0.46 -0.89,-0.68 -1.59,-0.68 -0.48,0 -0.88,0.16 -1.19,0.49 -0.32,0.33 -0.67,0.89 -1.05,1.69 -0.4,0.82 -0.89,1.97 -1.48,3.47 -0.71,1.77 -1.57,3.27 -2.55,4.45 -1.02,1.22 -2.19,2.14 -3.5,2.73 -1.33,0.6 -2.97,0.9 -4.91,0.9 -2.96,0 -5.12,-0.89 -6.41,-2.61 -1.23,-1.64 -1.64,-3.98 -1.28,-6.86l-5.23 0 1.25 -3.81 4.88 0c0.71,-2.21 1.9,-4.29 3.52,-6.24l5.49 1.72c-1.58,2.15 -2.55,4.23 -2.84,6.22 -0.14,0.99 -0.1,1.71 0.15,2.13 0.25,0.42 0.67,0.64 1.28,0.64 0.52,0 0.97,-0.16 1.34,-0.47 0.37,-0.31 0.79,-0.83 1.26,-1.56 0.46,-0.72 1,-1.68 1.59,-2.88 1.18,-2.29 2.41,-3.83 3.71,-4.73 1.26,-0.87 2.86,-1.3 4.83,-1.3 2.23,0 4.11,0.5 5.7,1.52 1.65,1.06 2.92,2.68 3.81,4.95l5.93 0 1.25 3.81 -6.16 0 0 -0z"/>
   <path class="fil11" d="M27.3 388.09l0 51.14 -1.81 -1.24c-5.97,-4.16 -9,-9.14 -9,-14.24l0.02 -48.45 10.78 12.79 0 0z"/>
   <path class="fil13" d="M102.64 418.29c0,0 0,1.29 0.01,2.15l0 0.04 -0.01 2.75 0 0.53c0,5.1 -3.05,10.08 -9.03,14.24l-1.86 1.24 0 -9.8c8.19,-5.57 10.88,-11.14 10.88,-11.14l0 -0z"/>
   <path class="fil13" d="M102.65 407.68l0 1.83c-0.3,6.53 -3.82,11.52 -9.64,15.47 -0.41,0.27 -0.83,0.55 -1.25,0.81l0 -9.98c9.57,-5.88 10.89,-11.07 10.89,-11.07 0,0 -0.05,1.78 0,2.95z"/>
   <path class="fil13" d="M102.66 394.31l0 1.36 -0.01 0.98c-0.01,5.58 -3.75,10.72 -9.64,14.71 -0.41,0.28 -0.83,0.55 -1.25,0.81l0 -9.98c4.8,-3.08 8.94,-6.52 10.89,-11.28 0,1.38 0,2.15 0.01,3.39l0 0z"/>
   <path class="fil13" d="M102.67 381.03l-0 0.73c-0.12,6.8 -3.67,11.96 -9.65,16.02 -0.41,0.28 -0.83,0.55 -1.25,0.81l0 -9.98c9.58,-6.05 10.9,-11.22 10.9,-11.22 0,0 -0.01,2.31 0.01,3.64l-0 -0z"/>
   <path class="fil7" d="M120.36 348.89c-11.62,0.09 -14.22,2.71 -14.17,14.33 -0.05,-11.62 -2.67,-14.21 -14.29,-14.12 11.62,-0.08 14.22,-2.71 14.17,-14.33 0.05,11.62 2.67,14.21 14.29,14.13l-0 -0z"/>
   <path class="fil7" d="M42.47 415.69c-9.86,0.07 -12.07,2.3 -12.02,12.17 -0.05,-9.86 -2.27,-12.06 -12.14,-11.99 9.86,-0.07 12.07,-2.3 12.03,-12.17 0.05,9.86 2.27,12.06 12.13,11.99l0 0z"/>
   <path class="fil12" d="M161.38 313.05c0,8.53 -13.45,15.45 -30.04,15.45 -16.59,0 -30.05,-6.92 -30.05,-15.45 0,-8.54 13.46,-15.46 30.05,-15.46 16.59,0 30.04,6.92 30.04,15.46z"/>
   <path class="fil14" d="M162.47 315.69l-5.34 2.7 -13.35 -1.61 -6.98 3.52 9.89 3.36 -4.98 2.51 -9.89 -3.36 -3.34 1.69 -8.8 -2.99 3.34 -1.69 -4.57 -1.55 -3.34 1.69 -8.8 -2.99 3.34 -1.69 -9.89 -3.36 5.6 -2.83 13.32 1.62 6.74 -3.4 -9.89 -3.36 4.98 -2.51 9.89 3.36 3.34 -1.69 8.8 2.99 -3.34 1.69 4.57 1.55 3.34 -1.69 8.8 2.99 -3.34 1.69 9.89 3.36zm-31.92 -3.53l6.16 0.75 2.09 -1.06 -4.57 -1.55 -3.68 1.86zm-4.83 2.44l-2.29 1.16 4.57 1.55 3.89 -1.97 -6.17 -0.74z"/>
   <path class="fil3" d="M194.07 432.06c0.25,-0.46 0.47,-0.92 0.65,-1.38 -0.86,-1.06 -1.91,-2.11 -3.14,-3.12l-88.94 -258.19 -2.33 -8.26 -0.47 0.11 -0.39 -1.14 2.2 -0.76 93.79 272.27 -1.37 0.47 0 -0z"/>
   <path class="fil3" d="M98.05 160.08l-92.16 267.54c-1.55,1.3 -2.82,2.63 -3.77,4l-0.07 -0.03 93.79 -272.27 2.2 0.76z"/>
   <polygon class="fil15" points="618.71,391.94 597.04,409.73 559.85,411.94 532.64,391.94 532.64,338.45 618.71,338.45 "/>
   <path class="fil16" d="M618.72 350.39l0 0.73c-0.12,6.8 -3.67,11.96 -9.66,16.02 -0.41,0.28 -0.82,0.55 -1.25,0.81 -17.29,10.71 -48.53,10.55 -65.19,-0.54 -7.02,-4.67 -11.27,-10.69 -9.62,-20.42 11.66,21.54 53.85,24.4 74.81,10.97 4.8,-3.08 8.94,-6.47 10.9,-11.22 -0,1.57 -0.01,2.31 0.01,3.65l0 -0z"/>
   <path class="fil17" d="M618.71 365.03l0 0c-0.23,6.64 -3.76,11.7 -9.65,15.69 -0.41,0.28 -0.82,0.55 -1.25,0.81 -17.29,10.72 -48.53,10.55 -65.19,-0.54 -7.02,-4.67 -11.27,-10.69 -9.62,-20.42 11.66,21.54 53.85,24.4 74.81,10.97 4.8,-3.08 8.94,-6.52 10.89,-11.27 -0.01,1.46 -0.04,2.15 0.01,3.39l0 0.02c0.01,0.46 0.01,0.91 0,1.35l0 0z"/>
   <path class="fil18" d="M618.69 392.58l0 0.01c-0.41,5.94 -3.45,10.74 -8.86,14.61 -0.65,0.47 -1.33,0.92 -2.03,1.35 -17.71,10.96 -49.61,10.61 -66.21,-1.2 -5.93,-4.23 -8.94,-9.14 -8.94,-14.24 0,-1.56 0.28,-3.13 0.84,-4.7 2.87,4.41 6.23,7.8 9.96,10.39 9.17,6.38 20.54,7.9 32.25,7.84 11.64,-0.06 23,-1.47 32.1,-7.85 4.01,-2.81 7.91,-6.09 10.89,-11.14 0.02,0.9 0,1.3 0,2.17l0 0.01c0.06,0.94 0.06,1.86 -0,2.75l0 -0z"/>
   <path class="fil19" d="M618.7 378.85l0 0.01c-0.3,6.53 -3.82,11.52 -9.64,15.47 -0.41,0.28 -0.82,0.55 -1.25,0.81 -17.29,10.72 -48.53,10.56 -65.19,-0.54 -7.02,-4.67 -11.27,-10.69 -9.62,-20.42 11.66,21.54 53.85,24.4 74.81,10.97 4.8,-3.08 8.94,-6.32 10.89,-11.07 -0.02,1.23 -0.05,1.79 0,2.95 0.03,0.62 0.03,1.22 0,1.81l0 -0z"/>
   <path class="fil15" d="M543.52 357.44l0 51.14 -1.89 -1.23c-5.97,-4.16 -9.04,-9.14 -9.04,-14.24l0.09 -48.46 10.84 12.79 0 0z"/>
   <path class="fil20" d="M618.7 387.65c0,0 0,1.28 0.01,2.15l0 0.04 -0.01 2.75 0 0.53c0,5.1 -3.05,10.07 -9.03,14.24l-1.86 1.24 0 -9.8c8.19,-5.57 10.89,-11.14 10.89,-11.14l0 -0z"/>
   <path class="fil20" d="M618.7 377.04l0 1.83c-0.3,6.53 -3.82,11.52 -9.64,15.47 -0.41,0.28 -0.82,0.55 -1.25,0.81l0 -9.98c9.57,-5.88 10.89,-11.07 10.89,-11.07 0,0 -0.05,1.79 0,2.95z"/>
   <path class="fil20" d="M618.71 363.67l0 1.36 -0.01 0.98c-0.01,5.58 -3.75,10.73 -9.64,14.72 -0.41,0.28 -0.82,0.55 -1.25,0.81l0 -9.99c4.8,-3.08 8.94,-6.52 10.89,-11.27 0,1.37 0,2.15 0.01,3.39l0 0z"/>
   <path class="fil20" d="M618.72 350.39l0 0.73c-0.12,6.8 -3.67,11.96 -9.66,16.02 -0.41,0.28 -0.82,0.55 -1.25,0.81l0 -9.98c9.58,-6.05 10.9,-11.22 10.9,-11.22 0,0 -0.01,2.31 0.01,3.65l0 -0z"/>
   <polygon class="fil15" points="618.71,338.38 597.04,355.3 559.85,357.4 532.64,338.38 532.64,287.53 618.71,287.53 "/>
   <path class="fil21" d="M618.72 295.84l0 0.73c-0.12,6.8 -3.67,11.96 -9.66,16.01 -0.41,0.28 -0.82,0.55 -1.25,0.81 -17.29,10.72 -48.53,10.55 -65.19,-0.54 -7.02,-4.67 -11.27,-10.69 -9.62,-20.42 11.66,21.54 53.85,24.4 74.81,10.97 4.8,-3.08 8.94,-6.46 10.9,-11.22 -0,1.57 -0.01,2.32 0.01,3.65l0 -0z"/>
   <path class="fil22" d="M618.71 310.49l0 0.01c-0.23,6.64 -3.76,11.7 -9.65,15.69 -0.41,0.28 -0.82,0.55 -1.25,0.81 -17.29,10.72 -48.53,10.56 -65.19,-0.53 -7.02,-4.67 -11.27,-10.69 -9.62,-20.42 11.66,21.54 53.85,24.4 74.81,10.97 4.8,-3.08 8.94,-6.52 10.89,-11.28 -0.01,1.46 -0.04,2.15 0.01,3.39l0 0.02c0.01,0.46 0.01,0.91 0,1.34l0 0z"/>
   <path class="fil23" d="M618.69 338.04l0 0.01c-0.41,5.94 -3.45,10.75 -8.86,14.61 -0.65,0.47 -1.33,0.92 -2.03,1.35 -17.71,10.96 -49.61,10.61 -66.21,-1.2 -5.93,-4.22 -8.94,-9.14 -8.94,-14.24 0,-1.56 0.28,-3.13 0.84,-4.7 2.87,4.41 6.23,7.8 9.96,10.39 9.17,6.38 20.54,7.9 32.25,7.84 11.64,-0.06 23,-1.48 32.1,-7.85 4.01,-2.81 7.91,-6.09 10.89,-11.14 0.02,0.9 0,1.3 0,2.17l0 0.01c0.06,0.94 0.06,1.86 -0,2.75l0 -0z"/>
   <path class="fil24" d="M618.7 324.3l0 0.02c-0.3,6.53 -3.82,11.52 -9.64,15.47 -0.41,0.28 -0.82,0.55 -1.25,0.81 -17.29,10.72 -48.53,10.56 -65.19,-0.54 -7.02,-4.67 -11.27,-10.69 -9.62,-20.42 11.66,21.54 53.85,24.4 74.81,10.97 4.8,-3.08 8.94,-6.32 10.89,-11.07 -0.02,1.22 -0.05,1.78 0,2.95 0.03,0.62 0.03,1.22 0,1.81l0 -0z"/>
   <path class="fil25" d="M619.18 284.21c0,13.14 -19.47,23.8 -43.48,23.8 -24.01,0 -43.49,-10.66 -43.49,-23.8 0,-13.15 19.48,-23.8 43.49,-23.8 24.02,0 43.48,10.66 43.48,23.8z"/>
   <path class="fil26" d="M575.7 267.14c-9.37,0 -18.17,1.76 -24.77,4.97 -6.39,3.1 -9.92,7.15 -9.92,11.39 0,4.25 3.52,8.3 9.92,11.4 6.6,3.2 15.4,4.97 24.77,4.97 9.37,0 18.17,-1.77 24.78,-4.97 6.39,-3.1 9.92,-7.15 9.92,-11.4 0,-4.25 -3.52,-8.3 -9.92,-11.39 -6.6,-3.2 -15.4,-4.97 -24.78,-4.97zm0 34.55c-9.65,0 -18.74,-1.83 -25.59,-5.15 -7.06,-3.42 -10.95,-8.05 -10.95,-13.03 0,-4.98 3.89,-9.61 10.95,-13.03 6.85,-3.32 15.94,-5.15 25.59,-5.15 9.65,0 18.74,1.83 25.59,5.15 7.06,3.42 10.94,8.05 10.94,13.03 0,4.98 -3.89,9.61 -10.94,13.03 -6.85,3.32 -15.94,5.15 -25.59,5.15z"/>
   <path class="fil26" d="M592.94 283.25c0.53,2.98 0.42,6.12 -0.43,9.42l-8.94 0c0.88,-1.92 1.53,-3.91 1.97,-5.93 0.41,-1.91 0.52,-3.5 0.35,-4.81 -0.14,-1.05 -0.39,-1.79 -0.75,-2.26 -0.36,-0.46 -0.89,-0.68 -1.59,-0.68 -0.48,0 -0.88,0.16 -1.19,0.49 -0.32,0.33 -0.67,0.89 -1.05,1.69 -0.4,0.82 -0.89,1.97 -1.48,3.47 -0.71,1.77 -1.57,3.27 -2.55,4.45 -1.02,1.22 -2.19,2.14 -3.5,2.73 -1.33,0.6 -2.97,0.9 -4.91,0.9 -2.96,0 -5.12,-0.89 -6.41,-2.61 -1.23,-1.65 -1.64,-3.98 -1.28,-6.86l-5.22 0 1.25 -3.81 4.88 0c0.71,-2.22 1.9,-4.29 3.51,-6.24l5.49 1.72c-1.58,2.15 -2.55,4.23 -2.84,6.22 -0.15,0.99 -0.1,1.71 0.15,2.13 0.25,0.43 0.67,0.64 1.28,0.64 0.52,0 0.97,-0.16 1.34,-0.47 0.37,-0.3 0.79,-0.83 1.26,-1.56 0.46,-0.72 1,-1.68 1.59,-2.88 1.18,-2.29 2.41,-3.83 3.71,-4.72 1.26,-0.87 2.86,-1.3 4.83,-1.3 2.23,0 4.11,0.5 5.71,1.52 1.65,1.06 2.92,2.68 3.8,4.95l5.93 0 1.25 3.81 -6.16 0 -0 -0z"/>
   <path class="fil15" d="M543.52 302.9l0 51.14 -1.89 -1.23c-5.97,-4.17 -9.04,-9.14 -9.04,-14.24l0.09 -48.45 10.84 12.79 0 0z"/>
   <path class="fil20" d="M618.7 333.1c0,0 0,1.29 0.01,2.15l0 0.04 -0.01 2.74 0 0.53c0,5.1 -3.05,10.07 -9.03,14.24l-1.86 1.23 0 -9.8c8.19,-5.57 10.89,-11.14 10.89,-11.14l0 -0z"/>
   <path class="fil20" d="M618.7 322.49l0 1.82c-0.3,6.53 -3.82,11.52 -9.64,15.47 -0.41,0.28 -0.82,0.55 -1.25,0.81l0 -9.98c9.57,-5.88 10.89,-11.07 10.89,-11.07 0,0 -0.05,1.78 0,2.95l0 0z"/>
   <path class="fil20" d="M618.71 309.13l0 1.36 -0.01 0.98c-0.01,5.58 -3.75,10.72 -9.64,14.71 -0.41,0.28 -0.82,0.55 -1.25,0.81l0 -9.98c4.8,-3.08 8.94,-6.52 10.89,-11.28 0,1.37 0,2.15 0.01,3.39l0 0z"/>
   <path class="fil20" d="M618.72 295.84l0 0.73c-0.12,6.8 -3.67,11.96 -9.66,16.01 -0.41,0.28 -0.82,0.55 -1.25,0.81l0 -9.98c9.58,-6.05 10.9,-11.22 10.9,-11.22 0,0 -0.01,2.32 0.01,3.65l0 -0z"/>
   <polygon class="fil15" points="547.48,392.7 525.82,409.61 488.62,411.71 461.42,392.7 461.42,341.84 547.48,341.84 "/>
   <path class="fil27" d="M547.49 350.16l-0 0.73c-0.12,6.8 -3.67,11.96 -9.65,16.02 -0.41,0.28 -0.83,0.55 -1.25,0.81 -17.29,10.72 -48.53,10.56 -65.19,-0.54 -7.02,-4.67 -11.27,-10.69 -9.63,-20.42 11.66,21.54 53.85,24.4 74.81,10.97 4.8,-3.08 8.94,-6.46 10.9,-11.22 -0,1.57 -0.01,2.31 0.01,3.64l0 -0z"/>
   <path class="fil28" d="M547.48 364.8l0 0.01c-0.23,6.64 -3.76,11.7 -9.65,15.69 -0.41,0.28 -0.83,0.55 -1.25,0.81 -17.29,10.72 -48.53,10.56 -65.19,-0.54 -7.02,-4.67 -11.27,-10.69 -9.63,-20.42 11.66,21.54 53.85,24.4 74.81,10.97 4.8,-3.08 8.94,-6.52 10.89,-11.28 -0,1.46 -0.04,2.15 0.01,3.39l0 0.02c0.02,0.46 0.02,0.91 0,1.34l0 -0z"/>
   <path class="fil29" d="M547.47 392.35l0 0c-0.41,5.94 -3.45,10.75 -8.86,14.61 -0.65,0.46 -1.33,0.92 -2.02,1.34 -17.71,10.96 -49.62,10.61 -66.21,-1.2 -5.94,-4.22 -8.94,-9.14 -8.94,-14.24 0,-1.56 0.28,-3.13 0.84,-4.7 2.87,4.41 6.23,7.8 9.96,10.39 9.17,6.38 20.53,7.9 32.24,7.84 11.64,-0.06 23,-1.47 32.1,-7.85 4.02,-2.81 7.91,-6.09 10.88,-11.14 0.02,0.9 0,1.3 0,2.17l0 0.01c0.06,0.94 0.06,1.86 -0,2.75l0 0z"/>
   <path class="fil30" d="M547.48 378.62l0 0.02c-0.3,6.53 -3.82,11.52 -9.64,15.47 -0.41,0.27 -0.83,0.55 -1.25,0.81 -17.29,10.72 -48.53,10.56 -65.19,-0.53 -7.02,-4.67 -11.27,-10.69 -9.63,-20.42 11.66,21.54 53.85,24.4 74.81,10.97 4.8,-3.07 8.94,-6.32 10.89,-11.07 -0.02,1.23 -0.05,1.78 0,2.95 0.03,0.62 0.03,1.22 0,1.81l0 0z"/>
   <path class="fil25" d="M547.96 338.52c0,13.14 -19.47,23.8 -43.48,23.8 -24.01,0 -43.49,-10.66 -43.49,-23.8 0,-13.15 19.48,-23.8 43.49,-23.8 24.01,0 43.48,10.66 43.48,23.8z"/>
   <path class="fil26" d="M504.48 321.46c-9.38,0 -18.17,1.77 -24.77,4.97 -6.39,3.1 -9.92,7.15 -9.92,11.4 0,4.25 3.52,8.3 9.92,11.39 6.6,3.2 15.4,4.97 24.77,4.97 9.37,0 18.17,-1.76 24.77,-4.97 6.39,-3.1 9.91,-7.15 9.91,-11.39 0,-4.25 -3.52,-8.3 -9.91,-11.4 -6.6,-3.2 -15.4,-4.97 -24.77,-4.97zm0 34.55c-9.65,0 -18.74,-1.83 -25.59,-5.15 -7.06,-3.42 -10.95,-8.05 -10.95,-13.03 0,-4.98 3.89,-9.61 10.95,-13.03 6.85,-3.32 15.94,-5.15 25.59,-5.15 9.65,0 18.74,1.83 25.58,5.15 7.06,3.42 10.95,8.05 10.95,13.03 0,4.98 -3.89,9.61 -10.95,13.03 -6.85,3.32 -15.94,5.15 -25.58,5.15z"/>
   <path class="fil26" d="M521.72 337.56c0.54,2.98 0.43,6.12 -0.43,9.42l-8.94 0c0.88,-1.92 1.53,-3.9 1.96,-5.93 0.41,-1.91 0.53,-3.5 0.36,-4.81 -0.14,-1.05 -0.39,-1.79 -0.75,-2.25 -0.36,-0.46 -0.89,-0.68 -1.59,-0.68 -0.48,0 -0.88,0.16 -1.19,0.49 -0.32,0.33 -0.67,0.89 -1.05,1.69 -0.4,0.82 -0.89,1.97 -1.48,3.47 -0.71,1.77 -1.57,3.27 -2.55,4.45 -1.02,1.22 -2.19,2.14 -3.5,2.73 -1.33,0.6 -2.97,0.9 -4.91,0.9 -2.96,0 -5.12,-0.89 -6.41,-2.61 -1.23,-1.64 -1.64,-3.98 -1.28,-6.86l-5.23 0 1.25 -3.81 4.88 0c0.71,-2.21 1.9,-4.29 3.52,-6.24l5.49 1.72c-1.58,2.15 -2.55,4.23 -2.84,6.22 -0.14,0.99 -0.1,1.71 0.15,2.13 0.25,0.43 0.67,0.64 1.28,0.64 0.52,0 0.97,-0.16 1.34,-0.47 0.37,-0.3 0.79,-0.83 1.26,-1.56 0.46,-0.72 1,-1.68 1.59,-2.88 1.18,-2.29 2.41,-3.83 3.71,-4.72 1.26,-0.87 2.86,-1.3 4.83,-1.3 2.23,0 4.11,0.5 5.7,1.52 1.65,1.06 2.92,2.68 3.81,4.95l5.93 0 1.25 3.81 -6.16 0 -0 -0z"/>
   <path class="fil15" d="M472.13 357.21l0 51.14 -1.81 -1.24c-5.97,-4.16 -9,-9.14 -9,-14.24l0.02 -48.45 10.78 12.79 0 0z"/>
   <path class="fil31" d="M547.47 387.42c0,0 0,1.29 0.01,2.15l0 0.04 -0.01 2.75 0 0.53c0,5.1 -3.05,10.07 -9.03,14.24l-1.86 1.24 0 -9.8c8.19,-5.57 10.88,-11.14 10.88,-11.14l0 -0z"/>
   <path class="fil20" d="M547.48 376.81l0 1.83c-0.3,6.53 -3.82,11.52 -9.64,15.47 -0.41,0.27 -0.83,0.55 -1.25,0.81l0 -9.98c9.57,-5.88 10.89,-11.07 10.89,-11.07 0,0 -0.05,1.78 0,2.95z"/>
   <path class="fil20" d="M547.48 363.44l0 1.36 -0.01 0.98c-0.01,5.58 -3.75,10.72 -9.64,14.71 -0.41,0.28 -0.83,0.55 -1.25,0.81l0 -9.98c4.8,-3.08 8.94,-6.52 10.89,-11.28 0,1.38 0,2.15 0.01,3.39l0 0z"/>
   <path class="fil20" d="M547.49 350.16l-0 0.73c-0.12,6.8 -3.67,11.96 -9.65,16.02 -0.41,0.28 -0.83,0.55 -1.25,0.81l0 -9.98c9.58,-6.05 10.9,-11.22 10.9,-11.22 0,0 -0.01,2.31 0.01,3.64l-0 -0z"/>
   <path class="fil7" d="M565.19 318.02c-11.62,0.09 -14.22,2.71 -14.17,14.33 -0.05,-11.62 -2.67,-14.21 -14.29,-14.12 11.62,-0.08 14.22,-2.71 14.17,-14.33 0.05,11.62 2.67,14.21 14.29,14.13l-0 0z"/>
   <path class="fil7" d="M487.29 384.82c-9.86,0.07 -12.07,2.3 -12.02,12.17 -0.05,-9.86 -2.27,-12.06 -12.14,-11.99 9.86,-0.07 12.07,-2.3 12.02,-12.16 0.05,9.86 2.27,12.06 12.14,11.99l0 -0z"/>
   <path class="fil25" d="M535.21 338c0,9.13 -14.17,16.54 -31.65,16.54 -17.48,0 -31.66,-7.4 -31.66,-16.54 0,-9.13 14.18,-16.54 31.66,-16.54 17.48,0 31.65,7.4 31.65,16.54z"/>
   <path class="fil25" d="M607.42 283.45c0,9.13 -14.17,16.54 -31.65,16.54 -17.48,0 -31.66,-7.4 -31.66,-16.54 0,-9.13 14.18,-16.54 31.66,-16.54 17.48,0 31.65,7.4 31.65,16.54z"/>
   <path class="fil12" d="M89.69 368.4c0,8.53 -13.45,15.45 -30.04,15.45 -16.59,0 -30.05,-6.92 -30.05,-15.45 0,-8.54 13.46,-15.46 30.05,-15.46 16.59,0 30.04,6.92 30.04,15.46z"/>
   <path class="fil14" d="M90.52 369.1l-5.34 2.7 -13.35 -1.61 -6.98 3.52 9.89 3.36 -4.98 2.51 -9.89 -3.36 -3.34 1.69 -8.8 -2.99 3.34 -1.69 -4.57 -1.55 -3.34 1.69 -8.8 -2.99 3.34 -1.69 -9.89 -3.36 5.6 -2.83 13.32 1.62 6.74 -3.4 -9.89 -3.36 4.98 -2.51 9.89 3.36 3.34 -1.69 8.8 2.99 -3.34 1.69 4.57 1.55 3.34 -1.69 8.8 2.99 -3.34 1.69 9.89 3.36zm-31.92 -3.53l6.16 0.75 2.09 -1.06 -4.57 -1.55 -3.68 1.86zm-4.83 2.44l-2.29 1.16 4.57 1.55 3.89 -1.97 -6.17 -0.74z"/>
   <polygon class="fil32" points="525.3,334.31 523.36,337.68 521.09,338.32 506.11,342.26 504.51,342.68 489.16,346.73 501.19,348.58 501.19,348.58 504.31,349.07 515.68,350.82 517.95,351.17 520.18,351.52 520.71,350.58 521.06,349.97 523.39,345.82 523.85,345 512.35,343.22 525.43,339.7 531.75,330.51 484.84,342.09 486.75,338.58 488.95,338.1 501.74,334.75 510.27,332.52 521.1,329.62 490.95,325.06 489.9,324.9 486.27,331.35 497.87,333.15 484.86,336.54 478.49,346.33 "/>
   <polygon class="fil32" points="595.94,280.03 594.01,283.4 591.74,284.04 576.76,287.99 575.16,288.41 559.81,292.45 571.84,294.31 571.84,294.31 574.96,294.79 586.33,296.54 588.6,296.9 590.83,297.24 591.36,296.31 591.7,295.69 594.04,291.54 594.5,290.73 582.99,288.94 596.08,285.42 602.39,276.24 555.48,287.81 557.39,284.3 559.6,283.82 572.39,280.47 580.92,278.24 591.74,275.34 561.6,270.79 560.54,270.62 556.91,277.08 568.52,278.87 555.51,282.27 549.14,292.05 "/>
  </g>
 </g>
</svg>
