<?xml version="1.0" encoding="UTF-8"?>
<!DOCTYPE svg PUBLIC "-//W3C//DTD SVG 1.1//EN" "http://www.w3.org/Graphics/SVG/1.1/DTD/svg11.dtd">
<!-- Creator: CorelDRAW -->
<svg xmlns="http://www.w3.org/2000/svg" xml:space="preserve" width="1.73929in" height="2.02215in" version="1.1" style="shape-rendering:geometricPrecision; text-rendering:geometricPrecision; image-rendering:optimizeQuality; fill-rule:evenodd; clip-rule:evenodd"
viewBox="0 0 1739.5 2022.4"
 xmlns:xlink="http://www.w3.org/1999/xlink"
 xmlns:xodm="http://www.corel.com/coreldraw/odm/2003">
 <defs>
  <style type="text/css">
   <![CDATA[
    .fil0 {fill:#78192E}
    .fil1 {fill:#C9143B}
   ]]>
  </style>
 </defs>
 <g id="Layer_x0020_1">
  <metadata id="CorelCorpID_0Corel-Layer"/>
  <path class="fil0" d="M711.66 143.08c-104.12,-51.42 -136.71,-2.6 -195.24,55.61 -122.3,121.63 -5.61,118.1 -88.72,202.25 -27.77,28.13 -51.41,47.33 -79.03,75.24 -84.9,85.8 -2.88,34.99 -37.19,102.18 -23.98,46.96 -122,98.39 -150.85,167.96l757.95 756.9c209.01,210.19 360.67,-34.19 545.84,-217.68 72.57,-71.92 268.81,-231.01 274.84,-333.58 8.01,-136.18 -183.51,-278.85 -253.11,-349.89 -104.03,-106.19 -201.68,-199.15 -306.61,-304.6 -58.89,-59.18 -256.22,-268.66 -309.94,-297.45 -47.35,20.17 -125.64,103.23 -157.94,143.08z"/>
  <path class="fil1" d="M747.03 174.77c46.18,81.44 348.11,260.37 164.88,419.65 -152.6,132.65 -337.53,-140.31 -409.08,-201.3l-130.29 130.43 359.29 360.58c98.82,98.15 429.33,391.43 437.77,476.7 5.97,60.28 -21.93,94.62 -62.78,109.3 -113.03,40.62 -240.01,-133.74 -311.18,-219.18l-180.3 -180.88c-17.11,-16.9 -36.12,-31.38 -51.02,-47.73 -3.19,-3.5 -16.34,-20.19 -17.52,-23.17l-0.7 -38.52c65.62,0.23 319.52,300.12 396.75,379.18 45.65,46.73 78.11,104.06 167.26,78.45 27.85,-104.58 -79.44,-166.78 -141.97,-228.67 -70.75,-70.02 -131.26,-131.15 -201.84,-201.14 -127.55,-126.47 -265.03,-278.38 -396.05,-390.99l-148.38 143.56 703.56 699.48c196.95,196.52 252.77,58.67 503.43,-190.48 383.97,-381.67 390.12,-238.22 -270.43,-903.68 -82.44,-83.05 -202.88,-216.72 -288.85,-282.16l-122.57 110.58z"/>
  <path class="fil0" d="M219.41 1520.06c-342.37,105.59 -178.51,578.6 136.69,491.75 307.81,-84.81 194.38,-593.86 -136.69,-491.75z"/>
  <path class="fil0" d="M146.55 1004.3c-266.51,85.14 -140.06,505.54 143.36,412.4 259.86,-85.4 148.72,-505.7 -143.36,-412.4z"/>
  <path class="fil1" d="M207.59 1578.63c-273.36,129.54 -65.65,480.52 161.69,375.64 249.32,-115.03 77.24,-488.87 -161.69,-375.64z"/>
  <path class="fil1" d="M503.1 301.82c23.38,56.69 334.88,428.24 409.74,208.36 17.86,-117.28 -118.29,-205.19 -178.59,-267.47 -34.11,-35.22 -69.3,-96.09 -124.65,-63.61 -31.9,18.72 -90.51,84.04 -106.5,122.72z"/>
  <path class="fil1" d="M175.54 1047.11c-215.7,55.18 -136.29,386.12 94.27,324.18 190.67,-51.23 132.97,-382.32 -94.27,-324.18z"/>
  <path class="fil0" d="M596.2 1369.26c-220.38,116.55 -46.97,385.32 138.45,298.39 198.69,-93.14 48.23,-397.12 -138.45,-298.39z"/>
  <path class="fil1" d="M623.38 1410.6c-159.81,73.92 -53.85,266.83 83.25,215.14 145.3,-54.77 47.89,-275.81 -83.25,-215.14z"/>
  <path class="fil0" d="M731.74 416.27c-63.76,239.49 297.94,141.12 115.53,-30.07 -72.24,-4.15 -59.98,-9.22 -115.53,30.07z"/>
 </g>
</svg>
